<?xml version="1.0" standalone="no"?>
<!DOCTYPE svg PUBLIC "-//W3C//DTD SVG 1.1//EN" "http://www.w3.org/Graphics/SVG/1.1/DTD/svg11.dtd" >
<svg xmlns="http://www.w3.org/2000/svg" xmlns:xlink="http://www.w3.org/1999/xlink" version="1.1">
<metadata>
Created by FontForge 20170924 at Tue May 19 12:32:12 2015
 By www-data
Copyright (c) 2011 by Fontsmith Ltd. All rights reserved.
</metadata>
<defs>
<font id="FSMePro-Light" horiz-adv-x="362" >
  <font-face 
    font-family="FS Me Pro Light"
    font-weight="300"
    font-stretch="normal"
    units-per-em="1000"
    panose-1="2 0 5 6 3 0 0 2 0 4"
    ascent="750"
    descent="-250"
    x-height="528"
    cap-height="720"
    bbox="-81.4444 -276.081 1220 1033"
    underline-thickness="44"
    underline-position="-100"
    stemh="55"
    stemv="66"
    unicode-range="U+000D-FB04"
  />
<missing-glyph horiz-adv-x="694" 
d="M90 0v720h514v-720h-514zM348 406l174 263h-350zM378 360l175 -262v524zM172 52h350l-174 262zM142 622v-524l174 262z" />
    <glyph glyph-name="fi" unicode="fi" horiz-adv-x="548" 
d="M299 472h-123v-462c0 -7 -7 -10 -28 -10h-8c-23 0 -29 3 -29 10v462h-70c-7 0 -9 5 -9 24v7c0 20 2 25 9 25h70v41c0 143 62 201 197 201c50 0 110 -16 151 -36c7 -3 7 -7 -1 -26l-2 -5c-8 -19 -10 -22 -19 -18c-46 21 -86 31 -130 31c-98 0 -131 -41 -131 -149v-39h123
c7 0 9 -5 9 -25v-7c0 -19 -2 -24 -9 -24zM405 10v509c0 7 7 9 28 9h8c23 0 29 -2 29 -9v-509c0 -7 -6 -10 -28 -10h-8c-24 0 -29 3 -29 10z" />
    <glyph glyph-name="fl" unicode="fl" horiz-adv-x="588" 
d="M414 132v351c0 74 -3 165 -7 226c-28 13 -63 20 -97 20c-108 0 -134 -66 -134 -162v-39h123c7 0 9 -5 9 -25v-7c0 -19 -2 -24 -9 -24h-123v-462c0 -7 -7 -10 -28 -10h-8c-23 0 -29 3 -29 10v462h-70c-7 0 -9 5 -9 24v7c0 20 2 25 9 25h70v41c0 142 65 213 199 213
c48 0 101 -12 140 -29c14 -6 20 -14 21 -25c6 -65 8 -159 8 -268v-348c0 -44 5 -61 36 -61c8 0 14 1 20 2c5 1 7 -1 9 -18l1 -7c2 -15 1 -19 -9 -22c-13 -4 -29 -6 -41 -6c-25 0 -50 5 -66 28c-11 17 -15 49 -15 104z" />
    <glyph glyph-name="f_f" unicode="ff" horiz-adv-x="650" 
d="M176 528h255v41c0 134 51 213 177 213c33 0 63 -6 91 -17c7 -3 7 -10 3 -26l-2 -7c-5 -17 -8 -23 -17 -20c-21 7 -45 12 -72 12c-92 0 -115 -56 -115 -157v-39h123c7 0 9 -5 9 -25v-7c0 -19 -2 -24 -9 -24h-123v-462c0 -7 -7 -10 -28 -10h-8c-23 0 -29 3 -29 10v462h-255
v-462c0 -7 -7 -10 -28 -10h-8c-23 0 -29 3 -29 10v462h-70c-7 0 -9 5 -9 24v7c0 20 2 25 9 25h70v41c0 134 51 213 177 213c33 0 63 -6 91 -17c7 -3 7 -10 3 -26l-2 -7c-5 -17 -8 -23 -17 -20c-21 7 -45 12 -72 12c-92 0 -115 -56 -115 -157v-39z" />
    <glyph glyph-name="f_f_i" unicode="ffi" horiz-adv-x="868" 
d="M176 528h255v41c0 143 62 201 197 201c50 0 110 -16 151 -36c7 -3 7 -7 -1 -26l-2 -5c-8 -19 -10 -22 -19 -18c-46 21 -86 31 -130 31c-98 0 -131 -41 -131 -149v-39h123c7 0 9 -5 9 -25v-7c0 -19 -2 -24 -9 -24h-123v-462c0 -7 -7 -10 -28 -10h-8c-23 0 -29 3 -29 10
v462h-255v-462c0 -7 -7 -10 -28 -10h-8c-23 0 -29 3 -29 10v462h-70c-7 0 -9 5 -9 24v7c0 20 2 25 9 25h70v41c0 134 51 213 177 213c33 0 63 -6 91 -17c7 -3 7 -10 3 -26l-2 -7c-5 -17 -8 -23 -17 -20c-21 7 -45 12 -72 12c-92 0 -115 -56 -115 -157v-39zM725 10v509
c0 7 7 9 28 9h8c23 0 29 -2 29 -9v-509c0 -7 -6 -10 -28 -10h-8c-24 0 -29 3 -29 10z" />
    <glyph glyph-name="f_j" unicode="fj" horiz-adv-x="549" 
d="M299 472h-123v-462c0 -7 -7 -10 -28 -10h-8c-23 0 -29 3 -29 10v462h-70c-7 0 -9 5 -9 24v7c0 20 2 25 9 25h70v41c0 143 62 201 197 201c50 0 110 -16 151 -36c7 -3 7 -7 -1 -26l-2 -5c-8 -19 -10 -22 -19 -18c-46 21 -86 31 -130 31c-98 0 -131 -41 -131 -149v-39h123
c7 0 9 -5 9 -25v-7c0 -19 -2 -24 -9 -24zM470 519v-528c0 -171 -63 -236 -179 -236c-24 0 -50 5 -65 11c-4 2 -6 6 -3 24l1 6c3 18 5 23 11 21c14 -4 30 -7 50 -7c89 0 120 50 120 179v530c0 7 8 9 28 9h8c23 0 29 -2 29 -9z" />
    <glyph glyph-name="f_f_j" unicode="ffj" horiz-adv-x="869" 
d="M176 528h255v41c0 143 62 201 197 201c50 0 110 -16 151 -36c7 -3 7 -7 -1 -26l-2 -5c-8 -19 -10 -22 -19 -18c-46 21 -86 31 -130 31c-98 0 -131 -41 -131 -149v-39h123c7 0 9 -5 9 -25v-7c0 -19 -2 -24 -9 -24h-123v-462c0 -7 -7 -10 -28 -10h-8c-23 0 -29 3 -29 10
v462h-255v-462c0 -7 -7 -10 -28 -10h-8c-23 0 -29 3 -29 10v462h-70c-7 0 -9 5 -9 24v7c0 20 2 25 9 25h70v41c0 134 51 213 177 213c33 0 63 -6 91 -17c7 -3 7 -10 3 -26l-2 -7c-5 -17 -8 -23 -17 -20c-21 7 -45 12 -72 12c-92 0 -115 -56 -115 -157v-39zM790 519v-528
c0 -171 -63 -236 -179 -236c-24 0 -50 5 -65 11c-4 2 -6 6 -3 24l1 6c3 18 5 23 11 21c14 -4 30 -7 50 -7c89 0 120 50 120 179v530c0 7 8 9 28 9h8c23 0 29 -2 29 -9z" />
    <glyph glyph-name="f_f_l" unicode="ffl" horiz-adv-x="908" 
d="M431 472h-255v-462c0 -7 -7 -10 -28 -10h-8c-23 0 -29 3 -29 10v462h-70c-7 0 -9 5 -9 24v7c0 20 2 25 9 25h70v41c0 134 51 213 177 213c33 0 63 -6 91 -17c7 -3 7 -10 3 -26l-2 -7c-5 -17 -8 -23 -17 -20c-21 7 -45 12 -72 12c-92 0 -115 -56 -115 -157v-39h255v41
c0 142 65 213 199 213c48 0 101 -12 140 -29c14 -6 20 -14 21 -25c6 -65 8 -159 8 -268v-348c0 -44 5 -61 36 -61c8 0 14 1 20 2c5 1 7 -1 9 -18l1 -7c2 -15 1 -19 -9 -22c-13 -4 -29 -6 -41 -6c-25 0 -50 5 -66 28c-11 17 -15 49 -15 104v351c0 74 -3 165 -7 226
c-28 13 -63 20 -97 20c-108 0 -134 -66 -134 -162v-39h123c7 0 9 -5 9 -25v-7c0 -19 -2 -24 -9 -24h-123v-462c0 -7 -7 -10 -28 -10h-8c-23 0 -29 3 -29 10v462z" />
    <glyph glyph-name=".notdef" horiz-adv-x="694" 
d="M90 0v720h514v-720h-514zM348 406l174 263h-350zM378 360l175 -262v524zM172 52h350l-174 262zM142 622v-524l174 262z" />
    <glyph glyph-name=".null" horiz-adv-x="0" 
 />
    <glyph glyph-name=".null" horiz-adv-x="0" 
 />
    <glyph glyph-name="CR" unicode="&#xd;" horiz-adv-x="250" 
 />
    <glyph glyph-name="nbspace" unicode="&#xa0;" horiz-adv-x="250" 
 />
    <glyph glyph-name="space" unicode=" " horiz-adv-x="250" 
 />
    <glyph glyph-name="A" unicode="A" horiz-adv-x="626" 
d="M524 10l-61 184h-308l-61 -184c-3 -8 -12 -10 -35 -10h-5c-28 0 -31 4 -29 11l242 696c4 11 13 13 43 13h2c30 0 39 -2 43 -13l246 -696c2 -7 -1 -11 -30 -11h-10c-27 0 -34 2 -37 10zM310 657l-137 -407h272z" />
    <glyph glyph-name="B" unicode="B" horiz-adv-x="565" 
d="M82 720h161c93 0 153 -18 194 -57c31 -29 48 -70 48 -124c0 -86 -56 -141 -113 -159c82 -19 151 -79 151 -178c0 -58 -19 -102 -50 -134c-47 -48 -123 -68 -214 -68h-177v720zM151 345v-289h100c77 0 129 15 162 45c26 23 39 56 39 99c0 41 -13 73 -36 96
c-33 33 -85 49 -160 49h-105zM151 664v-267h83c70 0 117 15 146 44c22 22 35 52 35 91c0 44 -13 75 -36 96c-29 26 -71 36 -138 36h-90z" />
    <glyph glyph-name="C" unicode="C" horiz-adv-x="564" 
d="M355 671c-158 0 -235 -124 -235 -315c0 -194 76 -307 233 -307c49 0 100 12 142 33c8 4 12 -1 18 -15l4 -10c7 -16 7 -22 -1 -26c-51 -27 -114 -41 -180 -41c-184 0 -288 144 -288 360c0 254 131 380 303 380c60 0 122 -17 168 -46c6 -4 6 -8 -2 -24l-5 -11
c-8 -16 -11 -17 -18 -14c-52 24 -93 36 -139 36z" />
    <glyph glyph-name="D" unicode="D" horiz-adv-x="646" 
d="M82 720h162c131 0 210 -31 270 -94c56 -59 85 -147 85 -263c0 -122 -32 -214 -93 -275c-58 -58 -141 -88 -261 -88h-163v720zM151 664v-608h88c101 0 167 24 212 68c53 52 76 133 76 237c0 102 -24 181 -75 233c-46 47 -105 70 -215 70h-86z" />
    <glyph glyph-name="E" unicode="E" horiz-adv-x="534" 
d="M472 0h-390v720h386c7 0 9 -5 9 -26v-4c0 -22 -2 -27 -9 -27h-317v-270h269c7 0 9 -5 9 -26v-4c0 -22 -2 -27 -9 -27h-269v-279h321c7 0 9 -5 9 -26v-4c0 -22 -2 -27 -9 -27z" />
    <glyph glyph-name="F" unicode="F" horiz-adv-x="479" 
d="M151 336v-325c0 -8 -5 -11 -31 -11h-5c-28 0 -33 3 -33 11v709h360c7 0 9 -5 9 -26v-4c0 -22 -2 -27 -9 -27h-291v-270h243c7 0 9 -5 9 -26v-4c0 -22 -2 -27 -9 -27h-243z" />
    <glyph glyph-name="G" unicode="G" horiz-adv-x="636" 
d="M525 625c-58 32 -106 46 -167 46c-160 0 -239 -126 -239 -312c0 -181 71 -311 246 -311c49 0 101 11 140 27v243h-163c-7 0 -9 5 -9 26v4c0 22 2 27 9 27h230v-337c-65 -28 -137 -48 -211 -48c-96 0 -168 30 -218 81c-63 64 -96 163 -96 283c0 232 119 376 311 376
c77 0 143 -22 192 -56c6 -4 5 -9 -2 -24l-5 -11c-7 -15 -11 -18 -18 -14z" />
    <glyph glyph-name="H" unicode="H" horiz-adv-x="656" 
d="M82 9v702c0 7 8 9 29 9h8c22 0 32 -2 32 -9v-318h354v318c0 7 8 9 29 9h8c22 0 32 -2 32 -9v-702c0 -7 -10 -9 -32 -9h-8c-21 0 -29 2 -29 9v327h-354v-327c0 -7 -10 -9 -32 -9h-8c-21 0 -29 2 -29 9z" />
    <glyph glyph-name="I" unicode="I" horiz-adv-x="365" 
d="M292 0h-219c-7 0 -9 2 -9 21v4c0 20 2 22 9 22h75v626h-75c-7 0 -9 2 -9 21v4c0 20 2 22 9 22h219c7 0 9 -2 9 -22v-4c0 -19 -2 -21 -9 -21h-75v-626h75c7 0 9 -2 9 -22v-4c0 -19 -2 -21 -9 -21z" />
    <glyph glyph-name="J" unicode="J" horiz-adv-x="438" 
d="M324 720h8c22 0 32 -2 32 -9v-516c0 -70 -15 -119 -49 -155c-30 -32 -80 -50 -136 -50c-55 0 -109 16 -148 42c-9 6 -9 10 -1 26l5 10c8 15 12 18 22 13c42 -21 79 -33 116 -33c39 0 73 14 92 37c21 26 30 67 30 126v500c0 7 8 9 29 9z" />
    <glyph glyph-name="K" unicode="K" horiz-adv-x="571" 
d="M82 9v702c0 7 8 9 29 9h8c22 0 32 -2 32 -9v-375l103 110c103 110 167 200 200 266c3 6 5 8 27 8h14c19 0 24 -2 21 -10c-31 -73 -105 -177 -214 -290l244 -407c5 -8 3 -13 -23 -13h-16c-29 0 -33 2 -38 10l-214 361l-104 -108v-254c0 -7 -10 -9 -32 -9h-8
c-21 0 -29 2 -29 9z" />
    <glyph glyph-name="L" unicode="L" horiz-adv-x="495" 
d="M151 711v-654h297c7 0 9 -5 9 -26v-4c0 -22 -2 -27 -9 -27h-338c-24 0 -28 3 -28 11v700c0 7 8 9 29 9h8c22 0 32 -2 32 -9z" />
    <glyph glyph-name="M" unicode="M" horiz-adv-x="777" 
d="M143 720c34 0 40 -3 43 -10l208 -516l199 516c3 7 9 10 45 10h5c31 0 37 -2 37 -10l30 -703c0 -5 -4 -7 -30 -7h-6c-26 0 -30 2 -30 7l-23 627l-193 -497c-3 -7 -8 -8 -33 -8h-8c-25 0 -30 1 -33 8l-200 489l-23 -619c0 -5 -4 -7 -30 -7h-4c-26 0 -30 2 -30 7l34 703
c0 8 6 10 37 10h5z" />
    <glyph glyph-name="N" unicode="N" horiz-adv-x="677" 
d="M516 10l-374 615v-616c0 -7 -6 -9 -28 -9h-7c-22 0 -27 2 -27 9v702c0 7 6 9 29 9h7c33 0 40 -2 45 -10l374 -615v616c0 7 5 9 27 9h7c22 0 28 -2 28 -9v-702c0 -7 -6 -9 -29 -9h-7c-33 0 -40 2 -45 10z" />
    <glyph glyph-name="O" unicode="O" horiz-adv-x="693" 
d="M353 671c-144 0 -234 -115 -234 -317c0 -196 82 -305 221 -305c143 0 234 117 234 318c0 196 -82 304 -221 304zM356 730c170 0 290 -120 290 -359c0 -234 -120 -381 -309 -381c-170 0 -290 121 -290 360c0 234 120 380 309 380z" />
    <glyph glyph-name="P" unicode="P" horiz-adv-x="525" 
d="M151 664v-321c32 -5 66 -8 103 -8c62 0 106 15 134 43c30 30 45 74 45 127c0 51 -14 87 -39 112c-35 35 -88 47 -164 47h-79zM82 9v711h151c95 0 167 -16 217 -65c33 -33 54 -80 54 -147s-21 -126 -63 -168c-38 -38 -98 -61 -178 -61c-35 0 -74 3 -112 9v-279
c0 -7 -10 -9 -32 -9h-8c-21 0 -29 2 -29 9z" />
    <glyph glyph-name="Q" unicode="Q" horiz-adv-x="693" 
d="M356 730c170 0 290 -120 290 -359c0 -155 -53 -272 -143 -333c25 -36 55 -69 88 -102c7 -7 3 -12 -9 -23l-10 -9c-12 -11 -17 -12 -23 -6c-34 34 -67 73 -96 113c-35 -13 -74 -21 -116 -21c-170 0 -290 121 -290 360c0 234 120 380 309 380zM353 671
c-144 0 -234 -115 -234 -317c0 -196 82 -305 221 -305c28 0 55 5 79 14c-21 34 -39 69 -51 103c-3 9 0 12 14 18l14 6c17 7 19 4 23 -5c14 -33 31 -65 49 -95c67 50 106 146 106 277c0 196 -82 304 -221 304z" />
    <glyph glyph-name="R" unicode="R" horiz-adv-x="554" 
d="M255 305h-104v-296c0 -7 -10 -9 -32 -9h-8c-21 0 -29 2 -29 9v711h152c110 0 179 -20 224 -64c33 -32 50 -77 50 -136c0 -64 -21 -113 -56 -148c-27 -27 -62 -45 -103 -56c61 -132 103 -213 169 -303c4 -6 3 -13 -27 -13h-10c-26 0 -32 1 -40 11
c-53 67 -118 196 -158 295c-9 -1 -19 -1 -28 -1zM151 665v-306h96c66 0 116 16 147 46c26 26 41 63 41 111c0 45 -11 78 -33 101c-32 34 -84 48 -164 48h-87z" />
    <glyph glyph-name="S" unicode="S" horiz-adv-x="513" 
d="M49 47c-7 5 -6 11 4 29l3 5c10 16 14 20 21 16c53 -34 110 -50 160 -50c99 0 166 57 166 136c0 83 -82 120 -164 163c-84 43 -168 93 -168 203s96 181 204 181c61 0 123 -20 166 -49c8 -5 6 -10 -3 -26l-3 -5c-10 -18 -14 -20 -21 -16c-40 22 -85 39 -135 39
c-80 0 -140 -45 -140 -121c0 -77 69 -114 144 -153c90 -46 188 -94 188 -213c0 -116 -92 -196 -228 -196c-78 0 -152 25 -194 57z" />
    <glyph glyph-name="T" unicode="T" horiz-adv-x="516" 
d="M227 663h-202c-7 0 -9 7 -9 27v4c0 19 2 26 9 26h466c7 0 9 -7 9 -27v-4c0 -19 -2 -26 -9 -26h-195v-654c0 -7 -10 -9 -32 -9h-8c-21 0 -29 2 -29 9v654z" />
    <glyph glyph-name="U" unicode="U" horiz-adv-x="670" 
d="M595 711v-444c0 -102 -23 -168 -69 -212c-44 -42 -109 -65 -190 -65c-82 0 -148 22 -192 64c-46 44 -69 110 -69 212v445c0 7 8 9 29 9h8c22 0 32 -2 32 -9v-436c0 -86 18 -143 52 -178c32 -33 81 -49 140 -49s107 16 139 49c34 35 52 92 52 178v436c0 7 8 9 29 9h7
c22 0 32 -2 32 -9z" />
    <glyph glyph-name="V" unicode="V" horiz-adv-x="594" 
d="M574 709l-225 -695c-4 -12 -14 -14 -45 -14h-5c-31 0 -41 2 -45 14l-234 693c-3 10 1 13 29 13h11c24 0 31 -3 34 -11l212 -642l202 643c3 8 6 10 31 10h7c26 0 30 -4 28 -11z" />
    <glyph glyph-name="W" unicode="W" horiz-adv-x="956" 
d="M928 709l-193 -695c-3 -12 -14 -14 -45 -14h-5c-31 0 -43 2 -46 14l-158 577l-158 -577c-3 -12 -14 -14 -45 -14h-5c-31 0 -41 2 -45 14l-198 693c-3 11 1 13 29 13h11c24 0 32 -3 34 -11l174 -642l173 643c2 7 6 10 29 10h8c23 0 27 -3 29 -10l175 -644l170 644
c2 8 6 10 31 10h7c26 0 30 -4 28 -11z" />
    <glyph glyph-name="X" unicode="X" horiz-adv-x="550" 
d="M455 9l-184 314l-179 -313c-5 -8 -12 -10 -39 -10h-5c-26 0 -31 5 -25 15l217 363l-193 328c-5 9 0 14 28 14h12c20 0 30 -2 34 -9l161 -276l157 275c5 8 12 10 39 10h5c26 0 31 -5 25 -15l-195 -325l216 -366c5 -9 0 -14 -28 -14h-12c-20 0 -30 2 -34 9z" />
    <glyph glyph-name="Y" unicode="Y" horiz-adv-x="523" 
d="M254 0c-21 0 -29 2 -29 9v269l-211 430c-3 7 0 12 29 12h8c28 0 34 -3 38 -11l177 -369l175 371c4 8 9 9 34 9h9c23 0 28 -4 24 -12l-214 -430v-269c0 -7 -10 -9 -32 -9h-8z" />
    <glyph glyph-name="Z" unicode="Z" horiz-adv-x="538" 
d="M474 642l-352 -585h369c7 0 9 -7 9 -27v-4c0 -19 -2 -26 -9 -26h-426c-19 0 -22 2 -22 10v20c0 21 5 31 18 53l351 580h-341c-7 0 -9 7 -9 27v4c0 19 2 26 9 26h399c19 0 22 -2 22 -10v-15c0 -21 -5 -31 -18 -53z" />
    <glyph glyph-name="a" unicode="a" horiz-adv-x="563" 
d="M484 369v-146c0 -87 2 -144 7 -215c0 -6 -5 -8 -25 -8h-3c-23 0 -26 2 -27 9l-8 62c-31 -52 -91 -81 -161 -81c-152 0 -220 120 -220 265c0 171 96 283 229 283c69 0 118 -29 148 -73l5 53c1 8 7 10 28 10h7c21 0 22 -2 22 -12c0 -9 -1 -22 -1 -32c-1 -31 -1 -74 -1 -115
zM419 246v150c-33 51 -76 82 -139 82c-101 0 -163 -85 -163 -218c0 -105 37 -211 156 -211c48 0 85 13 110 41c28 32 36 62 36 156z" />
    <glyph glyph-name="b" unicode="b" horiz-adv-x="557" 
d="M76 35v716c0 7 12 9 28 9h8c18 0 29 -2 29 -9v-284c37 46 89 71 154 71c158 0 215 -130 215 -260c0 -177 -92 -288 -254 -288c-70 0 -124 12 -167 28c-11 4 -13 8 -13 17zM141 206v-140c30 -11 72 -18 112 -18c128 0 187 85 187 223c0 134 -50 207 -149 207
c-48 0 -88 -16 -114 -45c-17 -19 -30 -41 -33 -84c-2 -29 -3 -82 -3 -143z" />
    <glyph glyph-name="c" unicode="c" horiz-adv-x="483" 
d="M446 493c7 -5 7 -9 -2 -28l-4 -8c-9 -18 -14 -20 -23 -15c-40 24 -81 35 -122 35c-106 0 -178 -77 -178 -215c0 -113 44 -213 167 -213c48 0 92 9 131 30c9 5 13 1 20 -17l4 -11c6 -16 6 -20 -1 -24c-42 -24 -100 -37 -161 -37c-155 0 -230 116 -230 266
c0 183 105 282 243 282c60 0 111 -15 156 -45z" />
    <glyph glyph-name="d" unicode="d" horiz-adv-x="581" 
d="M527 50c6 0 7 -1 7 -21v-4c0 -19 0 -21 -6 -23c-7 -2 -21 -4 -34 -4c-40 0 -64 23 -68 66c-29 -48 -84 -74 -157 -74c-142 0 -222 98 -222 263c0 150 79 285 240 285c48 0 99 -16 133 -42v255c0 7 12 9 28 9h8c18 0 29 -2 29 -9v-636c0 -58 10 -65 42 -65zM420 244v186
c-36 30 -77 47 -127 47c-107 0 -176 -87 -176 -221c0 -137 63 -207 160 -207c45 0 86 15 111 41c27 28 32 62 32 154z" />
    <glyph glyph-name="e" unicode="e" horiz-adv-x="541" 
d="M482 243h-365c3 -72 22 -122 57 -152c30 -27 74 -40 126 -40c51 0 99 11 137 30c10 5 14 4 22 -16l4 -10c6 -15 6 -22 -1 -26c-50 -26 -108 -39 -173 -39c-155 0 -242 100 -242 262c0 163 87 286 237 286c86 0 145 -42 178 -108c23 -47 34 -102 34 -162
c0 -23 -4 -25 -14 -25zM118 295h311c-2 92 -45 182 -146 182c-86 0 -151 -50 -165 -182z" />
    <glyph glyph-name="f" unicode="f" horiz-adv-x="330" 
d="M299 472h-123v-462c0 -7 -7 -10 -28 -10h-8c-23 0 -29 3 -29 10v462h-70c-7 0 -9 5 -9 24v7c0 20 2 25 9 25h70v41c0 134 51 213 177 213c33 0 63 -6 91 -17c7 -3 7 -10 3 -26l-2 -7c-5 -17 -8 -23 -17 -20c-21 7 -45 12 -72 12c-92 0 -115 -56 -115 -157v-39h123
c7 0 9 -5 9 -25v-7c0 -19 -2 -24 -9 -24z" />
    <glyph glyph-name="g" unicode="g" horiz-adv-x="561" 
d="M484 519c2 -53 4 -162 4 -252v-174c0 -88 -5 -145 -20 -194c-30 -95 -110 -144 -219 -144c-50 0 -106 11 -139 26c-6 3 -9 7 -2 28l2 6c8 23 10 25 20 21c34 -14 71 -21 119 -21c91 0 151 41 168 128c4 26 6 76 6 123c-41 -43 -98 -66 -165 -66c-140 0 -211 111 -211 258
c1 174 97 280 230 280c59 0 111 -18 145 -67l1 48c0 7 5 9 28 9h4c26 0 29 -2 29 -9zM423 132v152c0 72 -3 101 -17 128c-18 36 -59 63 -120 63c-112 0 -169 -84 -169 -213c0 -130 52 -202 158 -202c58 0 112 29 148 72z" />
    <glyph glyph-name="h" unicode="h" horiz-adv-x="580" 
d="M143 751v-294c37 52 95 81 173 81c61 0 110 -18 143 -52c34 -35 49 -87 49 -168v-307c0 -7 -5 -11 -28 -11h-8c-24 0 -29 4 -29 11v262c0 87 -4 130 -32 163c-22 26 -62 38 -111 38c-55 0 -94 -17 -124 -49c-16 -18 -27 -45 -30 -72c-3 -29 -3 -84 -3 -145v-197
c0 -7 -7 -11 -28 -11h-8c-24 0 -29 4 -29 11v740c0 7 12 9 28 9h8c18 0 29 -2 29 -9z" />
    <glyph glyph-name="i" unicode="i" horiz-adv-x="221" 
d="M59 710c0 30 24 54 52 54s52 -24 52 -54c0 -31 -24 -53 -52 -53s-52 22 -52 53zM78 10v509c0 7 7 9 28 9h8c23 0 29 -2 29 -9v-509c0 -7 -6 -10 -28 -10h-8c-24 0 -29 3 -29 10z" />
    <glyph glyph-name="j" unicode="j" horiz-adv-x="246" 
d="M83 710c0 30 24 54 52 54s52 -24 52 -54c0 -31 -24 -53 -52 -53s-52 22 -52 53zM167 519v-528c0 -171 -63 -236 -179 -236c-24 0 -50 5 -65 11c-4 2 -6 6 -3 24l1 6c3 18 5 23 11 21c14 -4 30 -7 50 -7c89 0 120 50 120 179v530c0 7 8 9 28 9h8c23 0 29 -2 29 -9z" />
    <glyph glyph-name="k" unicode="k" horiz-adv-x="478" 
d="M115 0h-8c-18 0 -29 2 -29 9v742c0 7 12 9 28 9h8c18 0 29 -2 29 -9v-462l58 50c59 50 120 116 166 179c5 7 12 10 36 10h5c27 0 32 -2 26 -11c-32 -48 -95 -124 -170 -194l190 -309c8 -12 -3 -14 -27 -14h-4c-34 0 -35 2 -41 11l-166 271l-73 -63v-210
c0 -7 -12 -9 -28 -9z" />
    <glyph glyph-name="l" unicode="l" horiz-adv-x="245" 
d="M136 460v-348c0 -44 5 -61 36 -61c8 0 14 1 20 2c5 1 7 -1 9 -18l1 -7c2 -15 1 -19 -9 -22c-13 -4 -29 -6 -41 -6c-25 0 -50 5 -66 28c-11 17 -15 49 -15 104v351c0 117 -1 189 -4 268c0 7 7 9 28 9h8c23 0 29 -2 29 -9c3 -58 4 -185 4 -291z" />
    <glyph glyph-name="m" unicode="m" horiz-adv-x="924" 
d="M111 528c21 0 29 -1 29 -9l3 -61c37 54 95 80 169 80c59 0 104 -18 137 -52c12 -13 22 -27 29 -45c42 67 104 97 182 97c59 0 110 -18 143 -52c34 -35 49 -87 49 -168v-309c0 -7 -12 -9 -28 -9h-8c-18 0 -29 2 -29 9v264c0 87 -4 130 -32 163c-22 26 -57 38 -106 38
c-53 0 -96 -16 -125 -55c-13 -17 -20 -39 -23 -66c-2 -17 -3 -42 -3 -72v-272c0 -7 -12 -9 -28 -9h-8c-18 0 -29 2 -29 9v264c0 87 -4 130 -32 163c-22 26 -57 38 -106 38c-51 0 -96 -16 -125 -55c-13 -17 -20 -39 -23 -66c-3 -29 -3 -84 -3 -145v-199c0 -7 -12 -9 -28 -9
h-8c-18 0 -29 2 -29 9v378c0 47 0 93 -2 132c0 8 6 9 26 9h8z" />
    <glyph glyph-name="n" unicode="n" horiz-adv-x="581" 
d="M138 519l3 -64c38 53 97 83 176 83c61 0 110 -18 143 -52c34 -35 49 -87 49 -168v-307c0 -7 -5 -11 -28 -11h-8c-24 0 -29 4 -29 11v262c0 87 -4 130 -32 163c-22 26 -62 38 -111 38c-55 0 -94 -17 -124 -49c-16 -18 -27 -45 -30 -72c-3 -29 -3 -84 -3 -145v-197
c0 -7 -7 -11 -28 -11h-8c-24 0 -29 4 -29 11v376c0 41 0 87 -2 132c0 7 8 9 27 9h7c20 0 27 -2 27 -9z" />
    <glyph glyph-name="o" unicode="o" horiz-adv-x="566" 
d="M117 259c0 -101 35 -210 159 -210c92 0 173 61 173 220c0 101 -35 210 -160 210c-91 0 -172 -62 -172 -220zM273 -10c-60 0 -109 15 -147 49c-49 44 -79 117 -79 213c0 189 97 286 246 286c60 0 109 -15 147 -49c49 -44 79 -117 79 -213c0 -189 -97 -286 -246 -286z" />
    <glyph glyph-name="p" unicode="p" horiz-adv-x="560" 
d="M112 528c18 0 26 -2 26 -9l3 -50c36 46 91 69 157 69c132 0 215 -90 215 -263c0 -150 -83 -285 -235 -285c-58 0 -102 18 -136 48v-262c0 -7 -10 -9 -29 -9h-8c-21 0 -28 2 -28 9v743c0 7 6 9 27 9h8zM142 265v-163c31 -30 81 -53 136 -53c105 0 165 89 165 223
c0 146 -60 206 -154 206c-55 0 -92 -17 -115 -45c-19 -24 -32 -53 -32 -168z" />
    <glyph glyph-name="q" unicode="q" horiz-adv-x="560" 
d="M483 490v-435c0 -104 2 -217 6 -280c0 -6 -7 -8 -30 -8h-6c-23 0 -29 2 -29 8c-3 59 -6 185 -6 302c-31 -56 -87 -87 -161 -87c-142 0 -210 111 -210 260c0 177 103 288 266 288c59 0 112 -12 156 -29c9 -3 14 -7 14 -19zM418 302v158c-32 13 -69 21 -105 21
c-127 0 -196 -90 -196 -224c0 -136 51 -208 151 -208c42 0 79 17 107 45c32 32 43 77 43 208z" />
    <glyph glyph-name="r" unicode="r" horiz-adv-x="347" 
d="M139 521l3 -116c29 83 89 129 148 129c13 0 23 -1 30 -3c5 -1 7 -5 7 -21v-8c0 -20 -1 -31 -10 -31c-54 0 -95 -25 -123 -60c-29 -37 -44 -84 -47 -135c-2 -29 -3 -94 -3 -155v-112c0 -7 -6 -9 -30 -9h-6c-24 0 -29 2 -29 9v348c0 54 -1 109 -2 164c0 4 3 7 28 7h5
c27 0 29 -3 29 -7z" />
    <glyph glyph-name="s" unicode="s" horiz-adv-x="449" 
d="M382 460l-4 -6c-11 -16 -16 -17 -23 -12c-39 26 -77 40 -128 40c-68 0 -110 -31 -110 -86c0 -66 52 -78 120 -96c95 -25 166 -51 166 -150c0 -104 -77 -160 -189 -160c-70 0 -126 22 -164 47c-6 4 -6 8 3 25l3 6c11 21 15 22 23 17c37 -23 88 -41 133 -41
c80 0 131 29 131 98c0 62 -47 79 -132 100c-49 12 -92 28 -117 50c-26 23 -41 57 -41 96c0 97 73 150 176 150c59 0 117 -20 158 -52c6 -5 5 -11 -5 -26z" />
    <glyph glyph-name="t" unicode="t" horiz-adv-x="365" 
d="M309 478h-141v-321c0 -48 2 -75 18 -91c15 -15 33 -20 61 -20c26 0 54 4 76 12c9 3 9 0 14 -18l2 -7c5 -19 3 -22 -2 -24c-32 -13 -71 -19 -105 -19c-41 0 -73 12 -94 31c-27 26 -35 63 -35 129v328h-70c-5 0 -6 4 -6 23v3c0 19 1 24 7 24h69v149c0 5 1 6 29 6h7
c26 0 29 -2 29 -6v-149h141c6 0 7 -5 7 -24v-3c0 -19 -1 -23 -7 -23z" />
    <glyph glyph-name="u" unicode="u" horiz-adv-x="578" 
d="M442 10l-5 69c-33 -57 -91 -89 -171 -89c-62 0 -117 17 -148 51c-34 35 -47 87 -47 169v308c0 7 4 10 28 10h8c24 0 29 -3 29 -10v-264c0 -86 2 -131 28 -162c22 -26 58 -40 111 -40c50 0 87 15 114 42c28 28 43 68 43 175v249c0 7 4 10 28 10h8c24 0 29 -3 29 -10v-347
c0 -52 0 -104 3 -159c1 -11 -4 -12 -24 -12h-8c-22 0 -25 1 -26 10z" />
    <glyph glyph-name="v" unicode="v" horiz-adv-x="493" 
d="M90 517l161 -464c64 163 111 312 148 464c2 9 8 11 28 11h9c23 0 32 -3 29 -13c-48 -180 -113 -367 -170 -500c-5 -12 -12 -15 -45 -15h-8c-32 0 -37 4 -42 17l-181 498c-3 9 1 13 26 13h12c24 0 30 -2 33 -11z" />
    <glyph glyph-name="w" unicode="w" horiz-adv-x="788" 
d="M96 516l130 -463l120 464c2 9 8 11 37 11h9c32 0 36 -2 38 -10l132 -465c59 171 95 297 127 463c2 10 3 12 30 12h5c23 0 29 -2 27 -9c-50 -222 -86 -340 -146 -498c-6 -15 -12 -21 -43 -21h-8c-31 0 -39 6 -42 17l-66 235c-19 67 -37 134 -58 217
c-19 -85 -33 -145 -53 -218l-64 -231c-4 -14 -14 -20 -44 -20h-8c-28 0 -38 5 -42 17l-151 498c-3 11 3 13 29 13h8c27 0 30 -2 33 -12z" />
    <glyph glyph-name="x" unicode="x" horiz-adv-x="496" 
d="M137 519l115 -190l114 190c5 8 9 9 36 9h7c28 0 35 -4 29 -13l-150 -233l173 -267c6 -10 -5 -15 -26 -15h-9c-30 0 -36 3 -42 13l-136 213l-137 -218c-4 -6 -13 -8 -37 -8h-5c-28 0 -33 5 -29 11l172 264l-152 240c-5 8 -1 13 32 13h6c30 0 35 -3 39 -9z" />
    <glyph glyph-name="y" unicode="y" horiz-adv-x="509" 
d="M104 518l94 -254c24 -64 45 -126 71 -207c26 81 45 138 67 200l92 261c3 8 7 10 31 10h5c20 0 32 -2 29 -10l-192 -539c-28 -74 -56 -130 -87 -163c-39 -43 -89 -60 -145 -60c-22 0 -54 4 -74 13c-7 3 -6 8 -1 24l3 9c6 17 8 22 15 20c16 -5 33 -9 53 -9
c82 0 129 49 171 173l-206 530c-3 8 1 12 30 12h8c25 0 33 -2 36 -10z" />
    <glyph glyph-name="z" unicode="z" horiz-adv-x="455" 
d="M123 56h284c6 0 8 -3 8 -27v-3c0 -23 -2 -26 -8 -26h-356c-7 0 -9 4 -9 22v5c0 14 1 20 6 27l272 418h-258c-6 0 -8 3 -8 26v3c0 24 2 27 8 27h330c8 0 9 -2 9 -22v-4c0 -17 -1 -22 -7 -31z" />
    <glyph glyph-name="ampersand" unicode="&#x26;" horiz-adv-x="701" 
d="M443 652c-37 13 -75 21 -111 21c-71 0 -128 -43 -128 -129c0 -82 48 -138 165 -245l131 -120c36 57 62 130 76 214c1 6 5 9 26 9h3c22 0 25 -2 25 -9c-13 -94 -43 -182 -89 -252l114 -103c7 -6 5 -11 -7 -25l-10 -11c-13 -14 -18 -16 -26 -9l-109 99
c-57 -63 -131 -102 -223 -102c-143 0 -228 88 -228 201c0 90 49 163 134 207c-35 49 -50 92 -50 144c0 112 83 187 197 187c44 0 92 -10 128 -27c6 -3 6 -7 1 -25l-3 -10c-5 -16 -7 -18 -16 -15zM286 46c69 0 129 30 177 83l-155 141c-37 33 -66 62 -90 88
c-60 -34 -96 -92 -96 -161c0 -94 69 -151 164 -151z" />
    <glyph glyph-name="at" unicode="@" horiz-adv-x="822" 
d="M437 538c38 0 69 -14 93 -37l7 23c2 6 6 7 29 7h10c16 0 22 -2 21 -8l-43 -204c-3 -16 -5 -30 -5 -44c0 -41 19 -64 59 -64c67 0 122 75 122 204c0 165 -117 261 -284 261c-202 0 -344 -151 -344 -346c0 -188 114 -290 298 -290c53 0 110 9 162 24c8 2 10 -1 13 -14
l4 -14c2 -10 2 -14 -5 -16c-51 -17 -118 -30 -186 -30c-200 0 -350 125 -350 340c0 245 190 400 410 400c194 0 343 -117 343 -311c0 -168 -89 -256 -190 -256c-60 0 -99 35 -107 77c-25 -47 -74 -77 -125 -77c-88 0 -133 61 -133 146c0 109 74 229 201 229zM497 345l22 110
c-20 23 -47 38 -83 38c-82 0 -135 -89 -135 -184c0 -54 21 -98 77 -98c27 0 51 11 71 31c23 23 39 58 48 103z" />
    <glyph glyph-name="exclam" unicode="!" horiz-adv-x="307" 
d="M144 720h14c32 0 37 -4 37 -12l-17 -504c0 -5 -4 -7 -21 -7h-10c-17 0 -21 2 -21 7l-19 504c0 8 5 12 37 12zM152 97c30 0 53 -24 53 -54s-23 -53 -53 -53c-28 0 -51 23 -51 53s23 54 51 54z" />
    <glyph glyph-name="exclamdown" unicode="&#xa1;" horiz-adv-x="307" 
d="M158 -192h-14c-32 0 -37 4 -37 12l19 504c0 5 4 7 21 7h10c17 0 21 -2 21 -7l17 -504c0 -8 -5 -12 -37 -12zM152 431c-28 0 -51 24 -51 54s23 53 51 53c30 0 53 -23 53 -53s-23 -54 -53 -54z" />
    <glyph glyph-name="question" unicode="?" horiz-adv-x="419" 
d="M167 195h-10c-22 0 -29 2 -29 8v66c0 78 31 111 116 167c60 39 82 67 82 117c0 33 -11 60 -29 80c-23 24 -58 37 -103 37c-46 0 -91 -13 -132 -32c-8 -4 -12 1 -19 15l-5 10c-8 16 -8 20 0 26c32 20 100 40 159 40c67 0 117 -19 152 -53c32 -30 50 -72 50 -123
c0 -85 -52 -124 -103 -158c-70 -46 -100 -68 -100 -132v-60c0 -6 -7 -8 -29 -8zM111 42c0 30 23 54 52 54c30 0 54 -24 54 -54s-24 -53 -54 -53c-29 0 -52 23 -52 53z" />
    <glyph glyph-name="questiondown" unicode="&#xbf;" horiz-adv-x="419" 
d="M252 332h10c22 0 29 -2 29 -8v-66c0 -78 -31 -111 -116 -167c-60 -39 -82 -67 -82 -117c0 -33 11 -60 29 -80c23 -24 58 -37 103 -37c46 0 91 13 132 32c8 4 12 -1 19 -15l5 -10c8 -16 8 -20 0 -26c-32 -20 -100 -40 -159 -40c-67 0 -117 19 -152 53
c-32 30 -50 72 -50 123c0 85 52 124 103 158c70 46 100 68 100 132v60c0 6 7 8 29 8zM308 485c0 -30 -23 -54 -52 -54c-30 0 -54 24 -54 54s24 53 54 53c29 0 52 -23 52 -53z" />
    <glyph glyph-name="asterisk" unicode="*" horiz-adv-x="401" 
d="M177 564l-128 23c-9 2 -9 9 -4 22l4 11c5 13 8 19 17 16l120 -47l-12 132c0 6 2 9 21 9h10c20 0 21 -3 21 -9l-11 -132l120 47c8 3 11 -3 16 -16l4 -11c5 -13 5 -20 -4 -22l-127 -23l74 -109c3 -5 4 -8 -14 -18l-9 -5c-16 -10 -18 -8 -21 -3l-54 117l-56 -117
c-3 -5 -5 -7 -22 3l-9 5c-18 10 -17 13 -13 18z" />
    <glyph glyph-name="period" unicode="." horiz-adv-x="241" 
d="M120 106c31 0 57 -25 57 -58c0 -34 -26 -58 -57 -58c-30 0 -56 24 -56 58c0 33 26 58 56 58z" />
    <glyph glyph-name="comma" unicode="," horiz-adv-x="241" 
d="M46 -170l-4 5c-6 8 -7 11 -2 16c29 29 63 76 63 112c0 46 -46 53 -46 95c0 29 24 48 52 48c39 0 62 -31 62 -69c0 -78 -43 -160 -108 -212c-5 -4 -9 -4 -17 5z" />
    <glyph glyph-name="colon" unicode=":" horiz-adv-x="240" 
d="M64 48c0 32 26 57 56 57s56 -25 56 -57c0 -34 -26 -58 -56 -58s-56 24 -56 58zM64 438c0 32 26 58 56 58s56 -26 56 -58c0 -33 -26 -58 -56 -58s-56 25 -56 58z" />
    <glyph glyph-name="semicolon" unicode=";" horiz-adv-x="240" 
d="M64 438c0 32 26 58 56 58s56 -26 56 -58c0 -33 -26 -58 -56 -58s-56 25 -56 58zM53 -170l-4 5c-6 8 -7 11 -2 16c29 29 63 76 63 112c0 46 -46 53 -46 95c0 29 24 48 52 48c39 0 62 -31 62 -69c0 -78 -43 -160 -108 -212c-5 -4 -9 -4 -17 5z" />
    <glyph glyph-name="ellipsis" unicode="&#x2026;" horiz-adv-x="723" 
d="M120 106c31 0 57 -25 57 -58c0 -34 -26 -58 -57 -58c-30 0 -56 24 -56 58c0 33 26 58 56 58zM361 106c31 0 57 -25 57 -58c0 -34 -26 -58 -57 -58c-30 0 -56 24 -56 58c0 33 26 58 56 58zM602 106c31 0 57 -25 57 -58c0 -34 -26 -58 -57 -58c-30 0 -56 24 -56 58
c0 33 26 58 56 58z" />
    <glyph glyph-name="periodcentered" unicode="&#xb7;" horiz-adv-x="241" 
d="M120 410c31 0 57 -25 57 -58c0 -34 -26 -58 -57 -58c-30 0 -56 24 -56 58c0 33 26 58 56 58z" />
    <glyph glyph-name="uni22C5" unicode="&#x22c5;" horiz-adv-x="241" 
d="M120 410c31 0 57 -25 57 -58c0 -34 -26 -58 -57 -58c-30 0 -56 24 -56 58c0 33 26 58 56 58z" />
    <glyph glyph-name="bullet" unicode="&#x2022;" horiz-adv-x="339" 
d="M54 353c0 64 51 116 115 116s116 -52 116 -116s-52 -115 -116 -115s-115 51 -115 115z" />
    <glyph glyph-name="slash" unicode="/" horiz-adv-x="334" 
d="M25 -4l220 731c2 7 6 11 32 11h4c26 0 31 -3 28 -13l-220 -731c-2 -7 -6 -11 -32 -11h-4c-26 0 -31 3 -28 13z" />
    <glyph glyph-name="parenleft" unicode="(" horiz-adv-x="330" 
d="M92 312c0 205 73 355 143 447c4 5 9 5 22 -3l11 -7c14 -9 15 -13 11 -19c-72 -108 -122 -247 -122 -418s50 -310 122 -418c4 -6 3 -10 -11 -19l-11 -7c-13 -8 -18 -8 -22 -3c-70 92 -143 242 -143 447z" />
    <glyph glyph-name="brokenbar" unicode="&#xa6;" horiz-adv-x="276" 
d="M168 757v-382c0 -7 -5 -10 -27 -10h-8c-21 0 -26 3 -26 10v382c0 7 5 10 26 10h8c22 0 27 -3 27 -10zM168 170v-382c0 -7 -5 -10 -27 -10h-8c-21 0 -26 3 -26 10v382c0 7 5 10 26 10h8c22 0 27 -3 27 -10z" />
    <glyph glyph-name="parenright" unicode=")" horiz-adv-x="330" 
d="M238 312c0 -205 -73 -355 -143 -447c-4 -5 -9 -5 -22 3l-11 7c-14 9 -15 13 -11 19c72 108 122 247 122 418s-50 310 -122 418c-4 6 -3 10 11 19l11 7c13 8 18 8 22 3c70 -92 143 -242 143 -447z" />
    <glyph glyph-name="bracketleft" unicode="[" horiz-adv-x="330" 
d="M296 -132h-188v885h188c7 0 9 -2 9 -22v-9c0 -19 -2 -21 -9 -21h-124v-781h124c7 0 9 -2 9 -22v-9c0 -19 -2 -21 -9 -21z" />
    <glyph glyph-name="backslash" unicode="\" horiz-adv-x="334" 
d="M89 727l220 -731c3 -10 -2 -13 -28 -13h-4c-26 0 -30 4 -32 11l-220 731c-3 10 2 13 28 13h4c26 0 30 -4 32 -11z" />
    <glyph glyph-name="bracketright" unicode="]" horiz-adv-x="330" 
d="M222 -132h-188c-7 0 -9 2 -9 21v9c0 20 2 22 9 22h124v781h-124c-7 0 -9 2 -9 21v9c0 20 2 22 9 22h188v-885z" />
    <glyph glyph-name="braceleft" unicode="{" horiz-adv-x="330" 
d="M198 167v-143c0 -78 30 -104 94 -104h14c7 0 9 -2 9 -21v-9c0 -20 -2 -22 -9 -22h-20c-90 0 -152 43 -152 149v143c0 87 -23 115 -73 122c-7 1 -9 4 -9 22v13c0 18 2 21 9 22c50 7 73 35 73 122v143c0 106 62 149 152 149h20c7 0 9 -2 9 -22v-9c0 -19 -2 -21 -9 -21h-14
c-64 0 -94 -26 -94 -104v-142c0 -81 -22 -119 -76 -144c54 -25 76 -63 76 -144z" />
    <glyph glyph-name="bar" unicode="|" horiz-adv-x="276" 
d="M168 807v-1070c0 -7 -5 -10 -27 -10h-8c-21 0 -26 3 -26 10v1070c0 7 5 10 26 10h8c22 0 27 -3 27 -10z" />
    <glyph glyph-name="braceright" unicode="}" horiz-adv-x="330" 
d="M132 24v143c0 81 22 119 76 144c-54 25 -76 63 -76 144v142c0 78 -30 104 -94 104h-14c-7 0 -9 2 -9 21v9c0 20 2 22 9 22h20c90 0 152 -43 152 -149v-143c0 -87 23 -115 73 -122c7 -1 9 -4 9 -22v-13c0 -18 -2 -21 -9 -22c-50 -7 -73 -35 -73 -122v-143
c0 -106 -62 -149 -152 -149h-20c-7 0 -9 2 -9 22v9c0 19 2 21 9 21h14c64 0 94 26 94 104z" />
    <glyph glyph-name="hyphen" unicode="-" horiz-adv-x="382" 
d="M60 330h262c7 0 8 -4 8 -23v-3c0 -18 -1 -25 -8 -25h-262c-7 0 -8 7 -8 25v3c0 19 1 23 8 23z" />
    <glyph glyph-name="uni00AD" unicode="&#xad;" horiz-adv-x="382" 
d="M60 330h262c7 0 8 -4 8 -23v-3c0 -18 -1 -25 -8 -25h-262c-7 0 -8 7 -8 25v3c0 19 1 23 8 23z" />
    <glyph glyph-name="endash" unicode="&#x2013;" horiz-adv-x="500" 
d="M52 308h396c7 0 8 -4 8 -21v-3c0 -16 -1 -23 -8 -23h-396c-7 0 -8 7 -8 23v3c0 17 1 21 8 21z" />
    <glyph glyph-name="emdash" unicode="&#x2014;" horiz-adv-x="1000" 
d="M52 308h896c7 0 8 -4 8 -21v-3c0 -16 -1 -23 -8 -23h-896c-7 0 -8 7 -8 23v3c0 17 1 21 8 21z" />
    <glyph glyph-name="underscore" unicode="_" horiz-adv-x="504" 
d="M7 -164h490c7 0 8 -4 8 -21v-1c0 -16 -1 -23 -8 -23h-490c-7 0 -8 7 -8 23v1c0 17 1 21 8 21z" />
    <glyph glyph-name="dagger" unicode="&#x2020;" horiz-adv-x="473" 
d="M267 412v-540c0 -7 -7 -9 -29 -9h-2c-21 0 -30 2 -30 9v540h-174c-7 0 -8 7 -8 25v3c0 19 1 23 8 23h174v248c0 7 9 9 30 9h2c22 0 29 -2 29 -9v-248h174c7 0 8 -4 8 -23v-3c0 -18 -1 -25 -8 -25h-174z" />
    <glyph glyph-name="daggerdbl" unicode="&#x2021;" horiz-adv-x="473" 
d="M267 440v-297h174c7 0 8 -7 8 -25v-3c0 -19 -1 -23 -8 -23h-174v-220c0 -7 -7 -9 -29 -9h-2c-21 0 -30 2 -30 9v220h-174c-7 0 -8 4 -8 23v3c0 18 1 25 8 25h174v297h-174c-7 0 -8 7 -8 25v3c0 19 1 23 8 23h174v220c0 7 9 9 30 9h2c22 0 29 -2 29 -9v-220h174
c7 0 8 -4 8 -23v-3c0 -18 -1 -25 -8 -25h-174z" />
    <glyph glyph-name="section" unicode="&#xa7;" horiz-adv-x="501" 
d="M397 641c-38 23 -79 37 -127 37c-74 0 -124 -34 -124 -89c0 -132 310 -65 310 -257c0 -58 -29 -108 -74 -138c21 -22 34 -50 34 -89c0 -82 -71 -145 -185 -145c-59 0 -110 15 -154 45c-5 4 -3 10 4 22l4 7c10 17 13 17 18 14c38 -23 79 -37 127 -37c74 0 124 34 124 89
c0 132 -310 65 -310 257c0 58 28 107 73 138c-20 21 -33 49 -33 89c0 82 71 145 185 145c59 0 110 -15 154 -45c5 -4 3 -10 -4 -22l-4 -7c-10 -17 -13 -17 -18 -14zM397 325c0 97 -150 91 -243 142c-33 -28 -51 -64 -51 -103c0 -97 150 -91 242 -143c34 28 52 64 52 104z
" />
    <glyph glyph-name="paragraph" unicode="&#xb6;" horiz-adv-x="617" 
d="M560 664h-62v-792c0 -7 -9 -9 -31 -9h-6c-21 0 -28 2 -28 9v793h-118v-793c0 -7 -9 -9 -31 -9h-6c-21 0 -28 2 -28 9v441c-129 5 -208 85 -208 199c0 126 80 208 230 208h288c7 0 8 -4 8 -23v-8c0 -18 -1 -25 -8 -25z" />
    <glyph glyph-name="registered" unicode="&#xae;" horiz-adv-x="809" 
d="M406 731c203 0 359 -163 359 -370s-159 -371 -360 -371c-202 0 -362 164 -362 371s159 370 363 370zM406 689c-174 0 -311 -145 -311 -328c0 -184 134 -329 309 -329s311 142 311 329c0 183 -134 328 -309 328zM410 329h-79v-152c0 -5 -8 -7 -25 -7h-6c-17 0 -23 2 -23 7
v387h116c56 0 102 -11 130 -38c19 -18 31 -44 31 -78c0 -36 -14 -63 -37 -83c-14 -13 -33 -22 -54 -28c30 -60 57 -107 94 -157c3 -4 2 -10 -21 -10h-7c-20 0 -25 1 -31 9c-28 35 -60 93 -88 150zM331 521v-152h56c40 0 70 9 87 24c15 14 23 32 23 55c0 25 -10 44 -28 56
s-46 17 -87 17h-51z" />
    <glyph glyph-name="copyright" unicode="&#xa9;" horiz-adv-x="809" 
d="M521 551c4 -2 5 -6 0 -17l-5 -11c-4 -9 -7 -11 -12 -9c-25 10 -50 16 -74 16c-94 0 -134 -74 -134 -164c0 -87 36 -160 133 -160c26 0 50 5 75 16c5 2 7 2 12 -9l5 -11c5 -11 4 -15 0 -17c-27 -15 -65 -24 -103 -24c-115 0 -177 92 -177 203c0 110 58 210 189 210
c33 0 67 -9 91 -23zM406 731c203 0 359 -163 359 -370s-159 -371 -360 -371c-202 0 -362 164 -362 371s159 370 363 370zM406 689c-174 0 -311 -145 -311 -328c0 -184 134 -329 309 -329s311 142 311 329c0 183 -134 328 -309 328z" />
    <glyph glyph-name="trademark" unicode="&#x2122;" horiz-adv-x="891" 
d="M455 730c20 0 24 -1 27 -8l121 -276l113 276c3 7 7 8 27 8h15c22 0 25 -3 25 -10l26 -388c0 -4 -4 -6 -17 -6h-14c-15 0 -18 2 -18 6l-22 337l-111 -268c-2 -5 -7 -6 -21 -6h-9c-17 0 -21 2 -23 6l-115 258l-20 -327c0 -4 -4 -6 -17 -6h-14c-15 0 -18 2 -18 6l28 388
c1 7 3 10 25 10h12zM36 730h305c4 0 6 -4 6 -17v-6c0 -15 -2 -18 -6 -18h-127v-357c0 -4 -4 -6 -17 -6h-16c-15 0 -18 2 -18 6v357h-127c-4 0 -6 3 -6 18v6c0 13 2 17 6 17z" />
    <glyph glyph-name="quotedblleft" unicode="&#x201c;" horiz-adv-x="436" 
d="M380 721l4 -5c6 -8 7 -11 2 -16c-29 -29 -63 -76 -63 -112c0 -46 46 -53 46 -95c0 -29 -24 -48 -52 -48c-39 0 -62 31 -62 69c0 78 43 160 108 212c5 4 9 4 17 -5zM175 721l4 -5c6 -8 7 -11 2 -16c-29 -29 -63 -76 -63 -112c0 -46 46 -53 46 -95c0 -29 -24 -48 -52 -48
c-39 0 -62 31 -62 69c0 78 43 160 108 212c5 4 9 4 17 -5z" />
    <glyph glyph-name="quotedblright" unicode="&#x201d;" horiz-adv-x="436" 
d="M56 454l-4 5c-6 8 -7 11 -2 16c29 29 63 76 63 112c0 46 -46 53 -46 95c0 29 24 48 52 48c39 0 62 -31 62 -69c0 -78 -43 -160 -108 -212c-5 -4 -9 -4 -17 5zM261 454l-4 5c-6 8 -7 11 -2 16c29 29 63 76 63 112c0 46 -46 53 -46 95c0 29 24 48 52 48c39 0 62 -31 62 -69
c0 -78 -43 -160 -108 -212c-5 -4 -9 -4 -17 5z" />
    <glyph glyph-name="quoteleft" unicode="&#x2018;" horiz-adv-x="231" 
d="M175 721l4 -5c6 -8 7 -11 2 -16c-29 -29 -63 -76 -63 -112c0 -46 46 -53 46 -95c0 -29 -24 -48 -52 -48c-39 0 -62 31 -62 69c0 78 43 160 108 212c5 4 9 4 17 -5z" />
    <glyph glyph-name="quoteright" unicode="&#x2019;" horiz-adv-x="231" 
d="M56 454l-4 5c-6 8 -7 11 -2 16c29 29 63 76 63 112c0 46 -46 53 -46 95c0 29 24 48 52 48c39 0 62 -31 62 -69c0 -78 -43 -160 -108 -212c-5 -4 -9 -4 -17 5z" />
    <glyph glyph-name="guillemotleft" unicode="&#xab;" horiz-adv-x="515" 
d="M72 302v5c0 10 2 15 5 19l134 194c5 7 9 7 22 0l7 -4c14 -8 14 -13 11 -18l-117 -194l117 -193c3 -5 3 -10 -11 -18l-7 -4c-13 -7 -17 -7 -22 0l-134 194c-3 4 -5 9 -5 19zM278 302v5c0 10 2 15 5 19l134 194c5 7 9 7 22 0l7 -4c14 -8 14 -13 11 -18l-117 -194l117 -193
c3 -5 3 -10 -11 -18l-7 -4c-13 -7 -17 -7 -22 0l-134 194c-3 4 -5 9 -5 19z" />
    <glyph glyph-name="guillemotright" unicode="&#xbb;" horiz-adv-x="515" 
d="M237 307v-5c0 -10 -2 -15 -5 -19l-134 -194c-5 -7 -9 -7 -22 0l-7 4c-14 8 -14 13 -11 18l117 193l-117 194c-3 5 -3 10 11 18l7 4c13 7 17 7 22 0l134 -194c3 -4 5 -9 5 -19zM443 307v-5c0 -10 -2 -15 -5 -19l-134 -194c-5 -7 -9 -7 -22 0l-7 4c-14 8 -14 13 -11 18
l117 193l-117 194c-3 5 -3 10 11 18l7 4c13 7 17 7 22 0l134 -194c3 -4 5 -9 5 -19z" />
    <glyph glyph-name="guilsinglleft" unicode="&#x2039;" horiz-adv-x="309" 
d="M72 302v5c0 10 2 15 5 19l134 194c5 7 9 7 22 0l7 -4c14 -8 14 -13 11 -18l-117 -194l117 -193c3 -5 3 -10 -11 -18l-7 -4c-13 -7 -17 -7 -22 0l-134 194c-3 4 -5 9 -5 19z" />
    <glyph glyph-name="guilsinglright" unicode="&#x203a;" horiz-adv-x="309" 
d="M237 307v-5c0 -10 -2 -15 -5 -19l-134 -194c-5 -7 -9 -7 -22 0l-7 4c-14 8 -14 13 -11 18l117 193l-117 194c-3 5 -3 10 11 18l7 4c13 7 17 7 22 0l134 -194c3 -4 5 -9 5 -19z" />
    <glyph glyph-name="quotesinglbase" unicode="&#x201a;" horiz-adv-x="231" 
d="M52 -171l-4 5c-6 8 -7 11 -2 16c29 29 63 76 63 112c0 46 -46 53 -46 95c0 29 24 48 52 48c39 0 62 -31 62 -69c0 -78 -43 -160 -108 -212c-5 -4 -9 -4 -17 5z" />
    <glyph glyph-name="quotedblbase" unicode="&#x201e;" horiz-adv-x="436" 
d="M52 -171l-4 5c-6 8 -7 11 -2 16c29 29 63 76 63 112c0 46 -46 53 -46 95c0 29 24 48 52 48c39 0 62 -31 62 -69c0 -78 -43 -160 -108 -212c-5 -4 -9 -4 -17 5zM257 -171l-4 5c-6 8 -7 11 -2 16c29 29 63 76 63 112c0 46 -46 53 -46 95c0 29 24 48 52 48
c39 0 62 -31 62 -69c0 -78 -43 -160 -108 -212c-5 -4 -9 -4 -17 5z" />
    <glyph glyph-name="arrowleft" unicode="&#x2190;" horiz-adv-x="596" 
d="M45 289v5c0 6 1 8 9 16l172 172c5 5 9 3 24 -12l6 -6c15 -15 15 -17 10 -22l-125 -122h398c7 0 9 -4 9 -26v-8c0 -21 -2 -23 -9 -23h-398l125 -122c5 -5 5 -7 -10 -22l-6 -6c-15 -15 -19 -17 -24 -12l-172 172c-8 8 -9 10 -9 16z" />
    <glyph glyph-name="arrowup" unicode="&#x2191;" horiz-adv-x="596" 
d="M303 0h-11c-21 0 -23 2 -23 9v413l-122 -122c-5 -5 -7 -5 -22 10l-6 6c-15 15 -17 19 -12 24l172 172c8 8 10 9 16 9h5c6 0 8 -1 16 -9l172 -172c5 -5 3 -9 -12 -24l-6 -6c-15 -15 -17 -15 -22 -10l-122 122v-413c0 -7 -2 -9 -23 -9z" />
    <glyph glyph-name="arrowright" unicode="&#x2192;" horiz-adv-x="596" 
d="M551 294v-5c0 -6 -1 -8 -9 -16l-172 -172c-5 -5 -9 -3 -24 12l-6 6c-15 15 -15 17 -10 22l125 122h-398c-7 0 -9 2 -9 23v8c0 22 2 26 9 26h398l-125 122c-5 5 -5 7 10 22l6 6c15 15 19 17 24 12l172 -172c8 -8 9 -10 9 -16z" />
    <glyph glyph-name="arrowdown" unicode="&#x2193;" horiz-adv-x="596" 
d="M292 521h11c21 0 23 -2 23 -9v-413l122 122c5 5 7 5 22 -10l6 -6c15 -15 17 -19 12 -24l-172 -172c-8 -8 -10 -9 -16 -9h-5c-6 0 -8 1 -16 9l-172 172c-5 5 -3 9 12 24l6 6c15 15 17 15 22 10l122 -122v413c0 7 2 9 23 9z" />
    <glyph glyph-name="uni266A" unicode="&#x266a;" horiz-adv-x="690" 
d="M513 408c-4 -2 -6 -2 -14 10l-4 6c-8 12 -8 13 -4 16c20 14 32 33 32 50c0 44 -48 54 -99 73c-22 7 -43 17 -62 33v-472c0 -85 -52 -134 -146 -134c-74 0 -116 37 -116 80s42 80 112 80c32 0 70 -10 96 -27v588c0 7 2 9 23 9h8c21 0 23 -2 23 -9v-25
c32 -24 69 -37 104 -50c66 -24 124 -43 124 -117c0 -41 -28 -83 -77 -111z" />
    <glyph glyph-name="grave" unicode="`" horiz-adv-x="354" 
d="M129 721h15c27 0 32 -3 36 -10l67 -118c3 -5 -4 -7 -20 -7h-4c-19 0 -23 1 -27 6l-88 119c-5 7 -2 10 21 10z" />
    <glyph glyph-name="acute" unicode="&#xb4;" horiz-adv-x="354" 
d="M209 721h15c23 0 26 -3 21 -10l-88 -119c-4 -5 -8 -6 -27 -6h-4c-16 0 -23 2 -20 7l67 118c4 7 9 10 36 10z" />
    <glyph glyph-name="dieresis" unicode="&#xa8;" horiz-adv-x="354" 
d="M28 654c0 26 21 48 47 48s48 -22 48 -48s-22 -47 -48 -47s-47 21 -47 47zM230 654c0 26 21 48 47 48s48 -22 48 -48s-22 -47 -48 -47s-47 21 -47 47z" />
    <glyph glyph-name="circumflex" unicode="&#x2c6;" horiz-adv-x="354" 
d="M164 729h26c20 0 27 -3 34 -10l94 -100c4 -4 3 -8 -4 -16l-5 -6c-7 -8 -11 -10 -16 -6l-116 97l-116 -97c-5 -4 -9 -2 -16 6l-5 6c-7 8 -8 12 -4 16l94 100c7 7 14 10 34 10z" />
    <glyph glyph-name="tilde" unicode="&#x2dc;" horiz-adv-x="354" 
d="M327 665c-18 -23 -54 -44 -88 -44c-55 0 -83 38 -128 38c-21 0 -36 -9 -58 -30c-4 -3 -8 -2 -16 8l-8 10c-5 7 -6 11 -2 16c18 23 54 44 88 44c55 0 83 -38 128 -38c21 0 36 9 58 30c4 3 8 2 16 -8l8 -10c5 -7 6 -11 2 -16z" />
    <glyph glyph-name="macron" unicode="&#xaf;" horiz-adv-x="354" 
d="M46 684h262c7 0 8 -4 8 -23v-3c0 -18 -1 -25 -8 -25h-262c-7 0 -8 7 -8 25v3c0 19 1 23 8 23z" />
    <glyph glyph-name="breve" unicode="&#x2d8;" horiz-adv-x="354" 
d="M177 595c-76 0 -136 42 -136 111c0 4 1 6 19 6h12c17 0 18 -1 19 -10c5 -42 35 -66 86 -66s81 24 86 66c1 9 2 10 19 10h12c18 0 19 -2 19 -6c0 -69 -60 -111 -136 -111z" />
    <glyph glyph-name="dotaccent" unicode="&#x2d9;" horiz-adv-x="354" 
d="M130 680c0 26 20 47 46 47s47 -21 47 -47s-21 -46 -47 -46s-46 20 -46 46z" />
    <glyph glyph-name="ring" unicode="&#x2da;" horiz-adv-x="354" 
d="M83 668c0 50 43 90 94 90s94 -39 94 -90s-43 -90 -94 -90s-94 40 -94 90zM126 668c0 -31 23 -51 51 -51c30 0 49 23 49 51s-19 51 -49 51c-28 0 -51 -20 -51 -51z" />
    <glyph glyph-name="cedilla" unicode="&#xb8;" horiz-adv-x="354" 
d="M100 -109l13 102c1 5 5 6 19 6h12c14 0 18 -2 17 -6l-8 -60c9 1 18 2 27 2c53 0 90 -31 90 -78s-33 -90 -110 -90c-28 0 -59 6 -72 12c-4 2 -4 6 -2 18l1 5c3 13 5 15 10 14c18 -4 38 -7 55 -7c38 0 62 13 62 44c0 30 -24 43 -61 43c-14 0 -39 -2 -53 -5z" />
    <glyph glyph-name="hungarumlaut" unicode="&#x2dd;" horiz-adv-x="354" 
d="M131 721h15c23 0 26 -3 21 -10l-88 -119c-4 -5 -8 -6 -27 -6h-4c-16 0 -23 2 -20 7l67 118c4 7 9 10 36 10zM288 721h15c23 0 26 -3 21 -10l-88 -119c-4 -5 -8 -6 -27 -6h-4c-16 0 -23 2 -20 7l67 118c4 7 9 10 36 10z" />
    <glyph glyph-name="ogonek" unicode="&#x2db;" horiz-adv-x="354" 
d="M261 -213c-22 -10 -47 -16 -73 -16c-54 0 -100 35 -100 92c0 53 37 101 88 129c9 5 17 7 31 7h8c16 0 19 -2 13 -6c-58 -39 -83 -79 -83 -121c0 -36 22 -57 58 -57c17 0 34 5 49 9c4 1 7 -1 10 -14l1 -5c2 -12 2 -16 -2 -18z" />
    <glyph glyph-name="caron" unicode="&#x2c7;" horiz-adv-x="354" 
d="M190 583h-26c-20 0 -27 3 -34 10l-94 100c-4 4 -3 8 4 16l5 6c7 8 11 10 16 6l116 -97l116 97c5 4 9 2 16 -6l5 -6c7 -8 8 -12 4 -16l-94 -100c-7 -7 -14 -10 -34 -10z" />
    <glyph glyph-name="commaaccent" unicode="&#xf6c3;" horiz-adv-x="354" 
d="M130 -270l-5 5c-6 6 -5 9 -1 13c22 23 49 59 49 87c0 36 -34 41 -34 74c0 23 19 38 41 38c31 0 49 -25 49 -54c0 -62 -31 -124 -85 -167c-5 -4 -8 -2 -14 4z" />
    <glyph glyph-name="grave.sc" horiz-adv-x="354" 
d="M129 763h15c27 0 32 -3 36 -10l67 -118c3 -5 -4 -7 -20 -7h-4c-19 0 -23 1 -27 6l-88 119c-5 7 -2 10 21 10z" />
    <glyph glyph-name="acute.sc" horiz-adv-x="354" 
d="M209 763h15c23 0 26 -3 21 -10l-88 -119c-4 -5 -8 -6 -27 -6h-4c-16 0 -23 2 -20 7l67 118c4 7 9 10 36 10z" />
    <glyph glyph-name="dieresis.sc" horiz-adv-x="354" 
d="M28 696c0 26 21 48 47 48s48 -22 48 -48s-22 -47 -48 -47s-47 21 -47 47zM230 696c0 26 21 48 47 48s48 -22 48 -48s-22 -47 -48 -47s-47 21 -47 47z" />
    <glyph glyph-name="circumflex.sc" horiz-adv-x="354" 
d="M164 771h26c20 0 27 -3 34 -10l94 -100c4 -4 3 -8 -4 -16l-5 -6c-7 -8 -11 -10 -16 -6l-116 97l-116 -97c-5 -4 -9 -2 -16 6l-5 6c-7 8 -8 12 -4 16l94 100c7 7 14 10 34 10z" />
    <glyph glyph-name="tilde.sc" horiz-adv-x="354" 
d="M327 707c-18 -23 -54 -44 -88 -44c-55 0 -83 38 -128 38c-21 0 -36 -9 -58 -30c-4 -3 -8 -2 -16 8l-8 10c-5 7 -6 11 -2 16c18 23 54 44 88 44c55 0 83 -38 128 -38c21 0 36 9 58 30c4 3 8 2 16 -8l8 -10c5 -7 6 -11 2 -16z" />
    <glyph glyph-name="macron.sc" horiz-adv-x="354" 
d="M46 726h262c7 0 8 -4 8 -23v-3c0 -18 -1 -25 -8 -25h-262c-7 0 -8 7 -8 25v3c0 19 1 23 8 23z" />
    <glyph glyph-name="breve.sc" horiz-adv-x="354" 
d="M177 637c-76 0 -136 42 -136 111c0 4 1 6 19 6h12c17 0 18 -1 19 -10c5 -42 35 -66 86 -66s81 24 86 66c1 9 2 10 19 10h12c18 0 19 -2 19 -6c0 -69 -60 -111 -136 -111z" />
    <glyph glyph-name="dotaccent.sc" horiz-adv-x="354" 
d="M130 722c0 26 20 47 46 47s47 -21 47 -47s-21 -46 -47 -46s-46 20 -46 46z" />
    <glyph glyph-name="ring.sc" horiz-adv-x="354" 
d="M83 710c0 50 43 90 94 90s94 -39 94 -90s-43 -90 -94 -90s-94 40 -94 90zM126 710c0 -31 23 -51 51 -51c30 0 49 23 49 51s-19 51 -49 51c-28 0 -51 -20 -51 -51z" />
    <glyph glyph-name="hungarumlaut.sc" horiz-adv-x="354" 
d="M131 763h15c23 0 26 -3 21 -10l-88 -119c-4 -5 -8 -6 -27 -6h-4c-16 0 -23 2 -20 7l67 118c4 7 9 10 36 10zM288 763h15c23 0 26 -3 21 -10l-88 -119c-4 -5 -8 -6 -27 -6h-4c-16 0 -23 2 -20 7l67 118c4 7 9 10 36 10z" />
    <glyph glyph-name="caron.sc" horiz-adv-x="354" 
d="M190 625h-26c-20 0 -27 3 -34 10l-94 100c-4 4 -3 8 4 16l5 6c7 8 11 10 16 6l116 -97l116 97c5 4 9 2 16 -6l5 -6c7 -8 8 -12 4 -16l-94 -100c-7 -7 -14 -10 -34 -10z" />
    <glyph glyph-name="grave.cap" horiz-adv-x="354" 
d="M129 913h15c27 0 32 -3 36 -10l67 -118c3 -5 -4 -7 -20 -7h-4c-19 0 -23 1 -27 6l-88 119c-5 7 -2 10 21 10z" />
    <glyph glyph-name="acute.cap" horiz-adv-x="354" 
d="M209 913h15c23 0 26 -3 21 -10l-88 -119c-4 -5 -8 -6 -27 -6h-4c-16 0 -23 2 -20 7l67 118c4 7 9 10 36 10z" />
    <glyph glyph-name="dieresis.cap" horiz-adv-x="354" 
d="M28 846c0 26 21 48 47 48s48 -22 48 -48s-22 -47 -48 -47s-47 21 -47 47zM230 846c0 26 21 48 47 48s48 -22 48 -48s-22 -47 -48 -47s-47 21 -47 47z" />
    <glyph glyph-name="circumflex.cap" horiz-adv-x="354" 
d="M164 921h26c20 0 27 -3 34 -10l94 -100c4 -4 3 -8 -4 -16l-5 -6c-7 -8 -11 -10 -16 -6l-116 97l-116 -97c-5 -4 -9 -2 -16 6l-5 6c-7 8 -8 12 -4 16l94 100c7 7 14 10 34 10z" />
    <glyph glyph-name="tilde.cap" horiz-adv-x="354" 
d="M327 857c-18 -23 -54 -44 -88 -44c-55 0 -83 38 -128 38c-21 0 -36 -9 -58 -30c-4 -3 -8 -2 -16 8l-8 10c-5 7 -6 11 -2 16c18 23 54 44 88 44c55 0 83 -38 128 -38c21 0 36 9 58 30c4 3 8 2 16 -8l8 -10c5 -7 6 -11 2 -16z" />
    <glyph glyph-name="macron.cap" horiz-adv-x="354" 
d="M46 874h262c7 0 8 -4 8 -23v-3c0 -18 -1 -25 -8 -25h-262c-7 0 -8 7 -8 25v3c0 19 1 23 8 23z" />
    <glyph glyph-name="breve.cap" horiz-adv-x="354" 
d="M177 795c-76 0 -136 42 -136 111c0 4 1 6 19 6h12c17 0 18 -1 19 -10c5 -42 35 -66 86 -66s81 24 86 66c1 9 2 10 19 10h12c18 0 19 -2 19 -6c0 -69 -60 -111 -136 -111z" />
    <glyph glyph-name="dotaccent.cap" horiz-adv-x="354" 
d="M130 840c0 26 20 47 46 47s47 -21 47 -47s-21 -46 -47 -46s-46 20 -46 46z" />
    <glyph glyph-name="ring.cap" horiz-adv-x="354" 
d="M83 868c0 50 43 90 94 90s94 -39 94 -90s-43 -90 -94 -90s-94 40 -94 90zM126 868c0 -31 23 -51 51 -51c30 0 49 23 49 51s-19 51 -49 51c-28 0 -51 -20 -51 -51z" />
    <glyph glyph-name="hungarumlaut.cap" horiz-adv-x="354" 
d="M131 913h15c23 0 26 -3 21 -10l-88 -119c-4 -5 -8 -6 -27 -6h-4c-16 0 -23 2 -20 7l67 118c4 7 9 10 36 10zM288 913h15c23 0 26 -3 21 -10l-88 -119c-4 -5 -8 -6 -27 -6h-4c-16 0 -23 2 -20 7l67 118c4 7 9 10 36 10z" />
    <glyph glyph-name="caron.cap" horiz-adv-x="354" 
d="M130 798l-94 100c-4 5 -4 7 4 16l5 6c8 9 11 10 16 6l116 -97l116 97c5 4 8 3 16 -6l5 -6c8 -9 8 -11 4 -16l-94 -100c-7 -7 -14 -10 -34 -10h-26c-20 0 -27 3 -34 10z" />
    <glyph glyph-name="periodcentered.cap" horiz-adv-x="241" 
d="M120 410c31 0 57 -25 57 -58c0 -34 -26 -58 -57 -58c-30 0 -56 24 -56 58c0 33 26 58 56 58z" />
    <glyph glyph-name="bullet.cap" horiz-adv-x="339" 
d="M54 376c0 64 51 116 115 116s116 -52 116 -116s-52 -115 -116 -115s-115 51 -115 115z" />
    <glyph glyph-name="parenleft.cap" horiz-adv-x="330" 
d="M92 348c0 205 73 355 143 447c4 5 9 5 22 -3l11 -7c14 -9 15 -13 11 -19c-72 -108 -122 -247 -122 -418s50 -310 122 -418c4 -6 3 -10 -11 -19l-11 -7c-13 -8 -18 -8 -22 -3c-70 92 -143 242 -143 447z" />
    <glyph glyph-name="parenright.cap" horiz-adv-x="330" 
d="M238 348c0 -205 -73 -355 -143 -447c-4 -5 -9 -5 -22 3l-11 7c-14 9 -15 13 -11 19c72 108 122 247 122 418s-50 310 -122 418c-4 6 -3 10 11 19l11 7c13 8 18 8 22 3c70 -92 143 -242 143 -447z" />
    <glyph glyph-name="bracketleft.cap" horiz-adv-x="330" 
d="M296 -85h-188v885h188c7 0 9 -2 9 -22v-9c0 -19 -2 -21 -9 -21h-124v-781h124c7 0 9 -2 9 -22v-9c0 -19 -2 -21 -9 -21z" />
    <glyph glyph-name="bracketright.cap" horiz-adv-x="330" 
d="M222 -85h-188c-7 0 -9 2 -9 21v9c0 20 2 22 9 22h124v781h-124c-7 0 -9 2 -9 21v9c0 20 2 22 9 22h188v-885z" />
    <glyph glyph-name="braceleft.cap" horiz-adv-x="330" 
d="M198 214v-143c0 -78 30 -104 94 -104h14c7 0 9 -2 9 -21v-9c0 -20 -2 -22 -9 -22h-20c-90 0 -152 43 -152 149v143c0 87 -23 115 -73 122c-7 1 -9 4 -9 22v13c0 18 2 21 9 22c50 7 73 35 73 122v143c0 106 62 149 152 149h20c7 0 9 -2 9 -22v-9c0 -19 -2 -21 -9 -21h-14
c-64 0 -94 -26 -94 -104v-142c0 -81 -22 -119 -76 -144c54 -25 76 -63 76 -144z" />
    <glyph glyph-name="braceright.cap" horiz-adv-x="330" 
d="M132 71v143c0 81 22 119 76 144c-54 25 -76 63 -76 144v142c0 78 -30 104 -94 104h-14c-7 0 -9 2 -9 21v9c0 20 2 22 9 22h20c90 0 152 -43 152 -149v-143c0 -87 23 -115 73 -122c7 -1 9 -4 9 -22v-13c0 -18 -2 -21 -9 -22c-50 -7 -73 -35 -73 -122v-143
c0 -106 -62 -149 -152 -149h-20c-7 0 -9 2 -9 22v9c0 19 2 21 9 21h14c64 0 94 26 94 104z" />
    <glyph glyph-name="questiondown.cap" horiz-adv-x="419" 
d="M252 524h10c22 0 29 -2 29 -8v-66c0 -78 -31 -111 -116 -167c-60 -39 -82 -67 -82 -117c0 -33 11 -60 29 -80c23 -24 58 -37 103 -37c46 0 91 13 132 32c8 4 12 -1 19 -15l5 -10c8 -16 8 -20 0 -26c-32 -20 -100 -40 -159 -40c-67 0 -117 19 -152 53
c-32 30 -50 72 -50 123c0 85 52 124 103 158c70 46 100 68 100 132v60c0 6 7 8 29 8zM308 677c0 -30 -23 -54 -52 -54c-30 0 -54 24 -54 54s24 53 54 53c29 0 52 -23 52 -53z" />
    <glyph glyph-name="exclamdown.cap" horiz-adv-x="307" 
d="M158 0h-14c-32 0 -37 4 -37 12l19 504c0 5 4 7 21 7h10c17 0 21 -2 21 -7l17 -504c0 -8 -5 -12 -37 -12zM152 623c-28 0 -51 24 -51 54s23 53 51 53c30 0 53 -23 53 -53s-23 -54 -53 -54z" />
    <glyph glyph-name="guillemotleft.cap" horiz-adv-x="515" 
d="M72 360v5c0 10 2 15 5 19l134 194c5 7 9 7 22 0l7 -4c14 -8 14 -13 11 -18l-117 -194l117 -193c3 -5 3 -10 -11 -18l-7 -4c-13 -7 -17 -7 -22 0l-134 194c-3 4 -5 9 -5 19zM278 360v5c0 10 2 15 5 19l134 194c5 7 9 7 22 0l7 -4c14 -8 14 -13 11 -18l-117 -194l117 -193
c3 -5 3 -10 -11 -18l-7 -4c-13 -7 -17 -7 -22 0l-134 194c-3 4 -5 9 -5 19z" />
    <glyph glyph-name="guillemotright.cap" horiz-adv-x="515" 
d="M237 365v-5c0 -10 -2 -15 -5 -19l-134 -194c-5 -7 -9 -7 -22 0l-7 4c-14 8 -14 13 -11 18l117 193l-117 194c-3 5 -3 10 11 18l7 4c13 7 17 7 22 0l134 -194c3 -4 5 -9 5 -19zM443 365v-5c0 -10 -2 -15 -5 -19l-134 -194c-5 -7 -9 -7 -22 0l-7 4c-14 8 -14 13 -11 18
l117 193l-117 194c-3 5 -3 10 11 18l7 4c13 7 17 7 22 0l134 -194c3 -4 5 -9 5 -19z" />
    <glyph glyph-name="guilsinglleft.cap" horiz-adv-x="309" 
d="M72 360v5c0 10 2 15 5 19l134 194c5 7 9 7 22 0l7 -4c14 -8 14 -13 11 -18l-117 -194l117 -193c3 -5 3 -10 -11 -18l-7 -4c-13 -7 -17 -7 -22 0l-134 194c-3 4 -5 9 -5 19z" />
    <glyph glyph-name="guilsinglright.cap" horiz-adv-x="309" 
d="M237 365v-5c0 -10 -2 -15 -5 -19l-134 -194c-5 -7 -9 -7 -22 0l-7 4c-14 8 -14 13 -11 18l117 193l-117 194c-3 5 -3 10 11 18l7 4c13 7 17 7 22 0l134 -194c3 -4 5 -9 5 -19z" />
    <glyph glyph-name="hyphen.cap" horiz-adv-x="382" 
d="M60 372h262c7 0 8 -4 8 -23v-3c0 -18 -1 -25 -8 -25h-262c-7 0 -8 7 -8 25v3c0 19 1 23 8 23z" />
    <glyph glyph-name="uni00AD.cap" horiz-adv-x="382" 
d="M60 372h262c7 0 8 -4 8 -23v-3c0 -18 -1 -25 -8 -25h-262c-7 0 -8 7 -8 25v3c0 19 1 23 8 23z" />
    <glyph glyph-name="endash.cap" horiz-adv-x="500" 
d="M52 372h396c7 0 8 -4 8 -21v-3c0 -16 -1 -23 -8 -23h-396c-7 0 -8 7 -8 23v3c0 17 1 21 8 21z" />
    <glyph glyph-name="emdash.cap" horiz-adv-x="1000" 
d="M52 372h896c7 0 8 -4 8 -21v-3c0 -16 -1 -23 -8 -23h-896c-7 0 -8 7 -8 23v3c0 17 1 21 8 21z" />
    <glyph glyph-name="afii00208.cap" horiz-adv-x="1000" 
d="M52 372h896c7 0 8 -4 8 -21v-3c0 -16 -1 -23 -8 -23h-896c-7 0 -8 7 -8 23v3c0 17 1 21 8 21z" />
    <glyph glyph-name="A.sc" horiz-adv-x="562" 
d="M460 9l-52 145h-260l-52 -145c-2 -7 -12 -9 -33 -9h-6c-24 0 -30 3 -28 9l210 563c3 8 11 10 38 10h6c26 0 34 -2 37 -10l213 -563c2 -6 -4 -9 -29 -9h-9c-24 0 -33 2 -35 9zM278 518l-111 -310h222z" />
    <glyph glyph-name="B.sc" horiz-adv-x="509" 
d="M235 0h-157v582h142c131 0 210 -44 210 -149c0 -65 -45 -108 -91 -125c73 -20 124 -68 124 -142c0 -122 -99 -166 -228 -166zM144 54h85c100 0 166 24 166 108c0 70 -55 112 -159 112h-92v-220zM144 325h71c100 0 148 39 148 102c0 79 -54 101 -143 101h-76v-203z" />
    <glyph glyph-name="C.sc" horiz-adv-x="505" 
d="M449 58l4 -9c6 -13 7 -21 1 -24c-44 -21 -100 -35 -155 -35c-167 0 -251 120 -251 293c0 185 100 309 261 309c54 0 107 -14 148 -39c5 -3 5 -10 -2 -22l-5 -9c-7 -13 -11 -18 -17 -15c-44 20 -80 29 -120 29c-126 0 -196 -87 -196 -249c0 -135 58 -241 194 -241
c41 0 84 10 121 27c6 3 11 -2 17 -15z" />
    <glyph glyph-name="D.sc" horiz-adv-x="576" 
d="M78 582h142c113 0 182 -23 234 -74c48 -47 74 -117 74 -214c0 -99 -28 -177 -83 -228c-50 -47 -122 -66 -224 -66h-143v582zM460 292c0 78 -21 138 -61 177c-38 38 -89 59 -181 59h-74v-474h74c80 0 137 15 176 50c45 40 66 105 66 188z" />
    <glyph glyph-name="E.sc" horiz-adv-x="475" 
d="M144 55h274c7 0 9 -4 9 -23v-9c0 -19 -2 -23 -9 -23h-340v582h336c7 0 9 -4 9 -23v-9c0 -19 -2 -23 -9 -23h-270v-205h229c7 0 9 -4 9 -23v-9c0 -19 -2 -23 -9 -23h-229v-212z" />
    <glyph glyph-name="F.sc" horiz-adv-x="429" 
d="M78 582h314c7 0 9 -4 9 -23v-9c0 -19 -2 -23 -9 -23h-248v-205h207c7 0 9 -4 9 -23v-9c0 -19 -2 -23 -9 -23h-207v-258c0 -7 -6 -9 -29 -9h-8c-23 0 -29 2 -29 9v573z" />
    <glyph glyph-name="G.sc" horiz-adv-x="565" 
d="M302 307h203v-278c-68 -26 -132 -39 -188 -39c-176 0 -269 112 -269 296c0 187 100 306 269 306c68 0 126 -19 168 -47c5 -3 4 -10 -2 -24l-4 -9c-6 -14 -13 -17 -19 -14c-46 25 -94 38 -142 38c-141 0 -201 -107 -201 -246c0 -148 65 -245 208 -245c36 0 76 6 116 20
v187h-139c-7 0 -9 4 -9 23v9c0 19 2 23 9 23z" />
    <glyph glyph-name="H.sc" horiz-adv-x="584" 
d="M440 322v251c0 7 6 9 29 9h8c23 0 29 -2 29 -9v-564c0 -7 -6 -9 -29 -9h-8c-23 0 -29 2 -29 9v258h-296v-258c0 -7 -6 -9 -29 -9h-8c-23 0 -29 2 -29 9v564c0 7 6 9 29 9h8c23 0 29 -2 29 -9v-251h296z" />
    <glyph glyph-name="I.sc" horiz-adv-x="338" 
d="M266 0h-194c-6 0 -8 3 -8 20v7c0 17 2 20 8 20h64v488h-64c-6 0 -8 3 -8 20v7c0 17 2 20 8 20h194c6 0 8 -3 8 -20v-7c0 -17 -2 -20 -8 -20h-64v-488h64c6 0 8 -3 8 -20v-7c0 -17 -2 -20 -8 -20z" />
    <glyph glyph-name="J.sc" horiz-adv-x="397" 
d="M261 168v405c0 7 6 9 29 9h8c23 0 29 -2 29 -9v-408c0 -117 -58 -175 -162 -175c-48 0 -96 13 -130 37c-7 5 -5 12 2 25l5 9c7 12 13 15 21 11c36 -18 68 -27 99 -27c77 0 99 56 99 123z" />
    <glyph glyph-name="K.sc" horiz-adv-x="513" 
d="M144 212v-203c0 -7 -6 -9 -29 -9h-8c-23 0 -29 2 -29 9v564c0 7 6 9 29 9h8c23 0 29 -2 29 -9v-290l82 80c88 86 143 158 172 212c3 6 5 7 27 7h11c20 0 25 -2 22 -9c-25 -54 -89 -143 -183 -235l210 -328c4 -6 -2 -10 -25 -10h-14c-25 0 -32 3 -36 9l-181 284z" />
    <glyph glyph-name="L.sc" horiz-adv-x="444" 
d="M78 11v562c0 7 6 9 29 9h8c23 0 29 -2 29 -9v-518h253c7 0 9 -4 9 -23v-9c0 -19 -2 -23 -9 -23h-291c-24 0 -28 3 -28 11z" />
    <glyph glyph-name="M.sc" horiz-adv-x="686" 
d="M594 0h-7c-23 0 -28 2 -28 7l-18 486l-164 -383c-2 -6 -5 -7 -29 -7h-7c-23 0 -25 1 -28 7l-170 377l-19 -480c0 -5 -5 -7 -28 -7h-5c-22 0 -27 2 -27 7l29 565c0 8 6 10 35 10h5c30 0 34 -3 37 -10l177 -400l170 400c3 7 7 10 39 10h5c29 0 35 -3 35 -10l26 -565
c0 -5 -6 -7 -28 -7z" />
    <glyph glyph-name="N.sc" horiz-adv-x="601" 
d="M102 582h9c31 0 32 -2 37 -9l318 -479v480c0 6 5 8 26 8h7c21 0 26 -2 26 -8v-566c0 -6 -5 -8 -26 -8h-8c-31 0 -33 1 -38 8l-318 479v-479c0 -6 -5 -8 -26 -8h-7c-21 0 -26 2 -26 8v566c0 6 5 8 26 8z" />
    <glyph glyph-name="O.sc" horiz-adv-x="616" 
d="M302 46c121 0 197 90 197 250c0 155 -68 240 -185 240c-121 0 -197 -90 -197 -250c0 -155 68 -240 185 -240zM317 592c147 0 251 -98 251 -293c0 -191 -105 -309 -269 -309c-147 0 -251 98 -251 293c0 191 105 309 269 309z" />
    <glyph glyph-name="P.sc" horiz-adv-x="473" 
d="M144 228v-219c0 -7 -6 -9 -29 -9h-8c-23 0 -29 2 -29 9v573h135c159 0 234 -56 234 -174c0 -108 -71 -186 -214 -186c-27 0 -56 2 -89 6zM144 528v-246c31 -4 60 -6 85 -6c107 0 150 52 150 130c0 90 -53 122 -165 122h-70z" />
    <glyph glyph-name="Q.sc" horiz-adv-x="616" 
d="M317 592c147 0 251 -98 251 -293c0 -125 -45 -218 -122 -268c23 -30 48 -54 75 -77c6 -5 3 -10 -9 -22l-8 -8c-12 -12 -18 -13 -23 -8c-28 26 -58 56 -84 90c-29 -10 -62 -16 -98 -16c-147 0 -251 98 -251 293c0 191 105 309 269 309zM302 46c23 0 45 3 65 10
c-18 27 -34 54 -44 82c-3 8 1 13 14 17l12 4c15 5 19 6 23 -2c12 -23 27 -52 43 -76c53 40 84 113 84 215c0 155 -68 240 -185 240c-121 0 -197 -90 -197 -250c0 -155 68 -240 185 -240z" />
    <glyph glyph-name="R.sc" horiz-adv-x="499" 
d="M144 294h82c103 0 155 46 155 122c0 82 -47 113 -161 113h-76v-235zM221 242h-77v-233c0 -7 -6 -9 -29 -9h-8c-23 0 -29 2 -29 9v573h136c153 0 237 -43 237 -163c0 -88 -53 -142 -136 -167c50 -95 88 -166 146 -240c4 -5 -1 -12 -26 -12h-11c-24 0 -32 4 -38 12
c-47 61 -98 151 -135 231c-10 -1 -20 -1 -30 -1z" />
    <glyph glyph-name="S.sc" horiz-adv-x="462" 
d="M54 64l4 7c8 13 13 16 19 13c44 -26 95 -40 136 -40c82 0 140 40 140 104c0 137 -285 114 -285 288c0 98 83 156 178 156c52 0 108 -15 145 -40c6 -4 5 -13 -3 -25l-4 -6c-10 -15 -14 -16 -20 -13c-33 17 -71 30 -114 30c-70 0 -117 -40 -117 -93
c0 -129 285 -111 285 -291c0 -98 -77 -164 -198 -164c-69 0 -133 19 -170 46c-6 4 -5 12 4 28z" />
    <glyph glyph-name="T.sc" horiz-adv-x="459" 
d="M29 582h401c7 0 9 -4 9 -23v-9c0 -19 -2 -23 -9 -23h-166v-518c0 -7 -6 -9 -29 -9h-8c-23 0 -29 2 -29 9v518h-169c-7 0 -9 4 -9 23v9c0 19 2 23 9 23z" />
    <glyph glyph-name="U.sc" horiz-adv-x="597" 
d="M72 212v361c0 7 6 9 29 9h8c23 0 29 -2 29 -9v-354c0 -126 58 -174 161 -174c102 0 160 52 160 173v355c0 7 6 9 29 9h8c23 0 29 -2 29 -9v-353c0 -160 -82 -230 -227 -230s-226 65 -226 222z" />
    <glyph glyph-name="V.sc" horiz-adv-x="533" 
d="M274 0h-9c-26 0 -36 2 -39 10l-201 562c-3 7 4 10 28 10h11c21 0 30 -4 32 -10l177 -507l170 508c2 6 7 9 29 9h9c23 0 29 -4 27 -10l-194 -562c-3 -8 -14 -10 -40 -10z" />
    <glyph glyph-name="W.sc" horiz-adv-x="843" 
d="M607 0h-10c-26 0 -38 2 -40 10l-133 471l-132 -470c-2 -8 -14 -11 -40 -11h-10c-26 0 -36 2 -39 11l-170 561c-2 8 5 10 29 10h10c22 0 31 -4 33 -10l144 -507l143 508c2 6 8 9 29 9h11c21 0 27 -3 29 -9l145 -509l141 509c2 6 7 9 29 9h7c23 0 29 -3 27 -10l-163 -562
c-2 -8 -14 -10 -40 -10z" />
    <glyph glyph-name="X.sc" horiz-adv-x="497" 
d="M444 0h-12c-18 0 -29 2 -33 8l-153 244l-152 -243c-4 -6 -13 -9 -36 -9h-6c-23 0 -31 4 -26 11l188 294l-166 266c-4 7 4 11 29 11h10c19 0 29 -2 33 -8l136 -219l134 218c4 7 13 9 36 9h5c23 0 32 -4 27 -11l-172 -268l186 -292c4 -7 -4 -11 -28 -11z" />
    <glyph glyph-name="Y.sc" horiz-adv-x="472" 
d="M202 9v216l-183 347c-3 6 4 10 29 10h8c24 0 32 -2 35 -9l149 -286l147 287c3 7 11 8 32 8h9c20 0 28 -4 25 -10l-185 -347v-216c0 -7 -6 -9 -29 -9h-8c-23 0 -29 2 -29 9z" />
    <glyph glyph-name="Z.sc" horiz-adv-x="482" 
d="M433 0h-367c-18 0 -22 2 -22 10v25c0 16 5 25 16 42l299 450h-289c-7 0 -9 4 -9 23v9c0 19 2 23 9 23h343c18 0 23 -2 23 -10v-23c0 -15 -7 -26 -17 -42l-299 -452h313c7 0 9 -4 9 -23v-9c0 -19 -2 -23 -9 -23z" />
    <glyph glyph-name="ampersand.sc" horiz-adv-x="622" 
d="M124 440c0 100 82 152 174 152c37 0 74 -7 109 -24c6 -3 5 -8 1 -23l-2 -7c-4 -14 -8 -21 -15 -18c-34 13 -64 19 -94 19c-74 0 -108 -42 -108 -94c0 -53 33 -112 155 -214l95 -80c28 43 52 104 63 168c1 6 4 9 24 9h4c21 0 24 -3 23 -9c-12 -77 -36 -145 -74 -201
l97 -81c6 -5 4 -10 -7 -24l-7 -9c-12 -15 -16 -17 -21 -13l-96 80c-55 -55 -122 -81 -194 -81c-129 0 -199 72 -199 169c0 61 35 127 117 164c-34 45 -45 81 -45 117zM201 285c-56 -30 -82 -78 -82 -123c0 -70 52 -119 135 -119c55 0 111 21 150 63l-95 79
c-46 38 -81 71 -108 100z" />
    <glyph glyph-name="at.sc" horiz-adv-x="719" 
d="M432 283l16 81c-20 19 -44 28 -68 28c-56 0 -111 -52 -111 -141c0 -43 17 -73 63 -73c51 0 88 44 100 105zM501 15c-56 -17 -109 -25 -161 -25c-161 0 -302 89 -302 275c0 179 140 327 353 327c167 0 296 -93 296 -252c0 -139 -83 -211 -165 -211c-51 0 -83 29 -90 63
c-28 -42 -70 -63 -112 -63c-68 0 -113 45 -113 118c0 97 71 190 169 190c30 0 59 -10 84 -29l4 15c2 6 7 8 26 8h11c15 0 20 -4 19 -8c-7 -29 -16 -67 -22 -99l-13 -66c-3 -13 -4 -26 -4 -33c0 -33 15 -51 48 -51c55 0 100 60 100 163c0 129 -97 204 -239 204
c-182 0 -292 -131 -292 -274c0 -145 94 -230 246 -230c50 0 93 7 145 20c8 2 9 -1 12 -13l4 -14c3 -9 3 -13 -4 -15z" />
    <glyph glyph-name="exclam.sc" horiz-adv-x="286" 
d="M183 572l-14 -406c0 -5 -5 -6 -21 -6h-10c-16 0 -21 1 -21 6l-16 406c0 7 7 10 35 10h12c28 0 35 -3 35 -10zM96 37c0 26 21 47 47 47s47 -21 47 -47s-21 -47 -47 -47s-47 21 -47 47z" />
    <glyph glyph-name="exclamdown.sc" horiz-adv-x="286" 
d="M169 406l14 -406c0 -7 -7 -10 -35 -10h-12c-28 0 -35 3 -35 10l16 406c0 5 5 6 21 6h10c16 0 21 -1 21 -6zM96 535c0 26 21 47 47 47s47 -21 47 -47s-21 -47 -47 -47s-47 21 -47 47z" />
    <glyph glyph-name="question.sc" horiz-adv-x="377" 
d="M98 37c0 26 21 47 47 47s47 -21 47 -47s-21 -47 -47 -47s-47 21 -47 47zM112 167v51c0 59 20 86 90 128c65 39 79 62 79 101c0 60 -45 89 -108 89c-33 0 -71 -8 -109 -24c-6 -3 -10 0 -17 14l-6 11c-6 12 -6 20 0 24c28 18 81 31 135 31c88 0 175 -35 175 -140
c0 -69 -42 -111 -89 -140c-76 -46 -85 -57 -85 -106v-39c0 -7 -6 -9 -29 -9h-7c-23 0 -29 2 -29 9z" />
    <glyph glyph-name="questiondown.sc" horiz-adv-x="377" 
d="M289 545c0 -26 -21 -47 -47 -47s-47 21 -47 47s21 47 47 47s47 -21 47 -47zM275 415v-51c0 -59 -20 -86 -90 -128c-65 -39 -79 -62 -79 -101c0 -60 45 -89 108 -89c33 0 71 8 109 24c6 3 10 0 17 -14l6 -11c6 -12 6 -20 0 -24c-28 -18 -81 -31 -135 -31
c-88 0 -175 35 -175 140c0 69 42 111 89 140c76 46 85 57 85 106v39c0 7 6 9 29 9h7c23 0 29 -2 29 -9z" />
    <glyph glyph-name="slash.sc" horiz-adv-x="301" 
d="M57 -14h-7c-22 0 -27 3 -25 11l191 592c2 7 6 8 28 8h7c22 0 27 -3 25 -11l-191 -592c-2 -7 -6 -8 -28 -8z" />
    <glyph glyph-name="backslash.sc" horiz-adv-x="301" 
d="M251 -14h-7c-22 0 -26 1 -28 8l-191 592c-2 8 3 11 25 11h7c22 0 26 -1 28 -8l191 -592c2 -8 -3 -11 -25 -11z" />
    <glyph glyph-name="parenleft.sc" horiz-adv-x="300" 
d="M84 296c0 163 62 293 124 367c5 6 8 4 21 -4l11 -7c11 -7 14 -11 9 -18c-69 -96 -103 -217 -103 -338s34 -242 103 -338c5 -7 2 -11 -9 -18l-11 -7c-13 -8 -16 -10 -21 -4c-62 74 -124 204 -124 367z" />
    <glyph glyph-name="parenright.sc" horiz-adv-x="300" 
d="M216 296c0 -163 -62 -293 -124 -367c-5 -6 -8 -4 -21 4l-11 7c-11 7 -14 11 -9 18c69 96 103 217 103 338s-34 242 -103 338c-5 7 -2 11 9 18l11 7c13 8 16 10 21 4c62 -74 124 -204 124 -367z" />
    <glyph glyph-name="bracketleft.sc" horiz-adv-x="301" 
d="M263 -91h-167v745h166c6 0 8 -5 8 -21v-6c0 -17 -2 -23 -8 -23h-105v-644h106c6 0 8 -6 8 -22v-6c0 -17 -2 -23 -8 -23z" />
    <glyph glyph-name="bracketright.sc" horiz-adv-x="301" 
d="M205 -91h-167c-6 0 -8 6 -8 23v6c0 16 2 22 8 22h106v644h-105c-6 0 -8 6 -8 23v6c0 16 2 21 8 21h166v-745z" />
    <glyph glyph-name="braceleft.sc" horiz-adv-x="301" 
d="M116 281c48 -14 64 -59 64 -111v-126c0 -55 25 -84 77 -84h15c6 0 8 -6 8 -22v-6c0 -17 -2 -23 -8 -23h-19c-80 0 -134 42 -134 129v125c0 57 -18 91 -62 96c-6 1 -7 7 -7 21v3c0 14 1 20 7 21c44 5 62 39 62 96v125c0 87 54 129 134 129h19c6 0 8 -6 8 -23v-6
c0 -16 -2 -22 -8 -22h-15c-52 0 -77 -29 -77 -84v-126c0 -52 -16 -98 -64 -112z" />
    <glyph glyph-name="braceright.sc" horiz-adv-x="301" 
d="M185 281c-48 14 -64 60 -64 112v126c0 55 -25 84 -77 84h-15c-6 0 -8 6 -8 22v6c0 17 2 23 8 23h19c80 0 134 -42 134 -129v-125c0 -57 18 -91 62 -96c6 -1 7 -7 7 -21v-3c0 -14 -1 -20 -7 -21c-44 -5 -62 -39 -62 -96v-125c0 -87 -54 -129 -134 -129h-19
c-6 0 -8 6 -8 23v6c0 16 2 22 8 22h15c52 0 77 29 77 84v126c0 52 16 97 64 111z" />
    <glyph glyph-name="FI.sc" horiz-adv-x="767" 
d="M78 582h314c7 0 9 -4 9 -23v-9c0 -19 -2 -23 -9 -23h-248v-205h207c7 0 9 -4 9 -23v-9c0 -19 -2 -23 -9 -23h-207v-258c0 -7 -6 -9 -29 -9h-8c-23 0 -29 2 -29 9v573zM695 0h-194c-6 0 -8 3 -8 20v7c0 17 2 20 8 20h64v488h-64c-6 0 -8 3 -8 20v7c0 17 2 20 8 20h194
c6 0 8 -3 8 -20v-7c0 -17 -2 -20 -8 -20h-64v-488h64c6 0 8 -3 8 -20v-7c0 -17 -2 -20 -8 -20z" />
    <glyph glyph-name="FL.sc" horiz-adv-x="873" 
d="M78 582h314c7 0 9 -4 9 -23v-9c0 -19 -2 -23 -9 -23h-248v-205h207c7 0 9 -4 9 -23v-9c0 -19 -2 -23 -9 -23h-207v-258c0 -7 -6 -9 -29 -9h-8c-23 0 -29 2 -29 9v573zM507 11v562c0 7 6 9 29 9h8c23 0 29 -2 29 -9v-518h253c7 0 9 -4 9 -23v-9c0 -19 -2 -23 -9 -23h-291
c-24 0 -28 3 -28 11z" />
    <glyph glyph-name="zero.slash" horiz-adv-x="574" 
d="M294 730c143 0 232 -106 232 -353c0 -250 -90 -387 -248 -387c-143 0 -231 112 -231 355c0 253 91 385 247 385zM455 372c0 116 -20 199 -57 247l-184 -554c19 -12 42 -17 68 -17c113 0 173 112 173 324zM290 672c-109 0 -171 -106 -171 -320c0 -112 17 -193 50 -243
l184 549c-19 9 -40 14 -63 14z" />
    <glyph glyph-name="zero" unicode="0" horiz-adv-x="574" 
d="M290 672c-109 0 -171 -106 -171 -320c0 -201 55 -304 163 -304c113 0 173 112 173 324c0 201 -57 300 -165 300zM294 730c143 0 232 -106 232 -353c0 -250 -90 -387 -248 -387c-143 0 -231 112 -231 355c0 253 91 385 247 385z" />
    <glyph glyph-name="one" unicode="1" horiz-adv-x="574" 
d="M158 54h117v593l-157 -95c-9 -5 -13 -3 -22 13l-5 9c-9 16 -9 20 0 26l178 108c14 8 23 12 42 12h13c14 0 20 -2 20 -7v-659h108c7 0 9 -3 9 -24v-7c0 -20 -2 -23 -9 -23h-294c-7 0 -9 3 -9 23v7c0 21 2 24 9 24z" />
    <glyph glyph-name="two" unicode="2" horiz-adv-x="574" 
d="M81 25v3c0 15 0 22 10 34l145 171c112 132 160 220 160 302c0 91 -59 137 -136 137c-58 0 -104 -18 -151 -43c-9 -5 -14 -4 -22 11l-5 10c-7 14 -8 20 -1 25c49 31 116 55 183 55c113 0 200 -70 200 -191c0 -105 -62 -200 -178 -334l-127 -147h309c7 0 9 -4 9 -25v-8
c0 -20 -2 -25 -9 -25h-378c-7 0 -9 5 -9 25z" />
    <glyph glyph-name="three" unicode="3" horiz-adv-x="574" 
d="M203 352h-21c-7 0 -9 3 -9 23v6c0 21 2 24 9 24h17c63 0 115 13 148 45c22 22 36 52 36 93c0 38 -12 67 -31 88c-26 29 -65 42 -108 42c-45 0 -94 -14 -132 -30c-11 -5 -15 -3 -21 11l-4 10c-6 16 -8 22 -1 26c42 23 106 40 162 40c63 0 118 -20 156 -58
c29 -30 47 -70 47 -122c0 -82 -54 -145 -129 -167c75 -17 155 -77 155 -181c0 -142 -113 -212 -239 -212c-55 0 -121 13 -163 33c-8 4 -9 9 -2 27l4 10c6 14 9 18 20 14c41 -16 91 -26 132 -26c61 0 106 15 138 45c26 25 42 60 42 106c0 44 -15 77 -41 101
c-39 36 -96 52 -165 52z" />
    <glyph glyph-name="four" unicode="4" horiz-adv-x="574" 
d="M55 273l205 436c3 7 6 11 32 11h7c26 0 33 -3 28 -13l-215 -457h245v172c0 7 8 9 29 9h7c22 0 32 -2 32 -9v-172h96c8 0 9 -4 9 -28v-2c0 -24 -1 -27 -9 -27h-96v-184c0 -7 -10 -9 -32 -9h-7c-21 0 -29 2 -29 9v184h-281c-26 0 -32 2 -32 8v21c0 20 4 37 11 51z" />
    <glyph glyph-name="five" unicode="5" horiz-adv-x="574" 
d="M180 662v-226c20 5 45 8 74 8c73 0 134 -22 176 -63c37 -36 60 -88 60 -153c0 -140 -97 -238 -252 -238c-61 0 -124 16 -151 31c-8 4 -9 10 -2 28l4 10c5 12 9 17 20 13c37 -14 82 -24 126 -24c61 0 108 17 139 47s48 74 48 129c0 50 -14 90 -41 118
c-30 32 -78 48 -142 48c-45 0 -86 -7 -126 -18v348h344c7 0 9 -4 9 -25v-8c0 -20 -2 -25 -9 -25h-277z" />
    <glyph glyph-name="six" unicode="6" horiz-adv-x="574" 
d="M452 657c-29 11 -61 17 -95 17c-132 0 -193 -135 -214 -282c45 31 103 53 164 53c139 0 210 -96 210 -223c0 -132 -79 -232 -219 -232c-159 0 -230 121 -230 310c0 202 87 430 289 430c49 0 89 -10 121 -26c7 -4 5 -10 -1 -26l-4 -10c-6 -14 -10 -15 -21 -11zM138 336
c0 -192 43 -290 161 -290c96 0 149 69 149 170c0 85 -33 174 -149 174c-59 0 -117 -26 -161 -54z" />
    <glyph glyph-name="seven" unicode="7" horiz-adv-x="574" 
d="M491 641l-260 -630c-3 -7 -6 -11 -32 -11h-8c-26 0 -32 3 -28 13l272 649h-349c-7 0 -9 5 -9 25v8c0 21 2 25 9 25h391c17 0 22 -1 22 -6v-34c0 -16 -2 -24 -8 -39z" />
    <glyph glyph-name="eight" unicode="8" horiz-adv-x="574" 
d="M488 560c0 -82 -71 -138 -146 -172c87 -42 173 -89 173 -192c0 -127 -105 -206 -236 -206c-115 0 -221 65 -221 192c0 92 66 167 160 200c-69 36 -126 83 -126 171c0 112 96 177 200 177c105 0 196 -66 196 -170zM448 189c0 90 -90 126 -179 168
c-91 -33 -142 -96 -142 -171c0 -87 69 -140 157 -140c94 0 164 58 164 143zM159 559c0 -73 61 -112 133 -147c74 33 129 83 129 146c0 69 -54 117 -131 117c-81 0 -131 -51 -131 -116z" />
    <glyph glyph-name="nine" unicode="9" horiz-adv-x="574" 
d="M117 69c33 -14 70 -23 108 -23c55 0 91 14 123 46c47 47 71 127 83 236c-44 -30 -104 -53 -165 -53c-139 0 -210 95 -210 222c0 130 78 233 216 233c159 0 233 -125 233 -311c0 -164 -36 -294 -110 -366c-42 -40 -92 -63 -165 -63c-48 0 -106 14 -139 32c-7 4 -5 10 1 26
l4 10c6 14 10 16 21 11zM436 384c0 188 -46 290 -164 290c-94 0 -147 -69 -147 -171c0 -85 33 -173 149 -173c59 0 118 26 162 54z" />
    <glyph glyph-name="dollar" unicode="$" horiz-adv-x="574" 
d="M84 47c-7 5 -6 11 4 29l3 5c10 16 14 20 21 16c53 -34 110 -50 160 -50c99 0 166 57 166 136c0 83 -82 120 -164 163c-84 43 -168 93 -168 203c0 106 89 175 192 180v84c0 7 4 8 23 8h3c18 0 25 -1 25 -8v-86c47 -7 93 -23 127 -46c8 -5 6 -10 -3 -26l-3 -5
c-10 -18 -14 -20 -21 -16c-40 22 -85 39 -135 39c-80 0 -140 -45 -140 -121c0 -77 69 -114 144 -153c90 -46 188 -94 188 -213c0 -107 -78 -183 -196 -194v-82c0 -7 -7 -8 -25 -8h-3c-19 0 -23 1 -23 8v81c-71 3 -137 26 -175 56z" />
    <glyph glyph-name="cent" unicode="&#xa2;" horiz-adv-x="574" 
d="M458 194c8 4 13 5 21 -12l4 -9c8 -18 6 -21 -2 -26c-38 -23 -83 -39 -138 -42v-97c0 -7 -7 -8 -25 -8h-3c-19 0 -23 1 -23 8v98c-141 15 -204 135 -204 253c0 140 79 250 215 263v100c0 7 4 8 23 8h3c18 0 25 -1 25 -8v-99c52 -4 99 -21 135 -47c10 -7 7 -11 -1 -25
l-6 -10c-8 -14 -13 -18 -20 -13c-45 30 -84 40 -126 40c-116 0 -178 -81 -178 -202c0 -111 50 -203 174 -203c48 0 88 11 126 31z" />
    <glyph glyph-name="Euro" unicode="&#x20ac;" horiz-adv-x="574" 
d="M41 460h71c29 179 134 270 271 270c62 0 117 -19 160 -44c6 -4 4 -10 -2 -24l-5 -11c-6 -14 -11 -17 -18 -14c-46 22 -89 34 -130 34c-118 0 -183 -82 -204 -211h238c7 0 8 -2 8 -21v-3c0 -18 -1 -23 -8 -23h-244c-2 -19 -2 -38 -2 -57c0 -17 0 -33 1 -48h232
c7 0 8 -2 8 -21v-3c0 -18 -1 -23 -8 -23h-226c21 -130 90 -212 211 -212c43 0 83 10 125 29c8 4 12 -1 18 -15l4 -10c7 -16 7 -21 -1 -25c-46 -23 -96 -38 -160 -38c-77 0 -134 26 -178 69c-48 47 -79 118 -92 202h-82c-7 0 -8 5 -8 23v3c0 19 1 21 8 21h77
c-1 14 -1 28 -1 43c0 21 1 42 2 62h-65c-7 0 -8 5 -8 23v3c0 19 1 21 8 21z" />
    <glyph glyph-name="florin" unicode="&#x192;" horiz-adv-x="574" 
d="M229 118l33 267h-108c-7 0 -8 6 -8 24v3c0 19 1 22 8 22h114l8 63c21 167 84 242 197 242c28 0 55 -6 71 -14c7 -4 5 -9 1 -24l-3 -10c-5 -16 -8 -18 -16 -16c-17 4 -35 7 -51 7c-84 0 -117 -60 -131 -176l-9 -72h133c7 0 8 -3 8 -22v-3c0 -18 -1 -24 -8 -24h-139
l-32 -258c-21 -167 -84 -242 -197 -242c-28 0 -55 6 -71 14c-7 4 -5 9 -1 24l3 10c5 16 8 18 16 16c17 -4 35 -7 51 -7c84 0 117 60 131 176z" />
    <glyph glyph-name="sterling" unicode="&#xa3;" horiz-adv-x="574" 
d="M484 658c-35 17 -67 25 -101 25c-112 0 -141 -77 -141 -179v-104h195c7 0 8 -4 8 -23v-1c0 -18 -1 -25 -8 -25h-195v-98c0 -105 -20 -146 -77 -194h354c7 0 8 -7 8 -26v-5c0 -18 -1 -28 -8 -28h-429c-7 0 -8 10 -8 28v5c0 19 2 25 7 29c64 47 83 101 83 181v108h-89
c-7 0 -8 7 -8 25v1c0 19 1 23 8 23h89v104c0 137 64 235 209 235c42 0 90 -12 131 -35c7 -4 6 -11 -1 -25l-5 -10c-8 -15 -13 -16 -22 -11z" />
    <glyph glyph-name="yen" unicode="&#xa5;" horiz-adv-x="574" 
d="M107 381h97l-152 327c-3 7 0 12 29 12h8c28 0 34 -3 38 -11l167 -369l165 371c4 8 9 9 34 9h9c23 0 28 -4 24 -12l-156 -327h98c7 0 8 -4 8 -23v-3c0 -18 -1 -25 -8 -25h-122l-24 -52v-39h146c7 0 8 -4 8 -23v-3c0 -18 -1 -25 -8 -25h-146v-179c0 -7 -10 -9 -32 -9h-8
c-21 0 -29 2 -29 9v179h-146c-7 0 -8 7 -8 25v3c0 19 1 23 8 23h146v39l-25 52h-121c-7 0 -8 7 -8 25v3c0 19 1 23 8 23z" />
    <glyph glyph-name="numbersign" unicode="#" horiz-adv-x="574" 
d="M303 0c-15 0 -17 3 -16 10l43 205h-157l-43 -205c-2 -8 -6 -10 -19 -10h-13c-15 0 -17 3 -16 10l43 205h-90c-7 0 -9 2 -9 17v6c0 15 2 17 9 17h97l48 215h-99c-7 0 -9 2 -9 17v6c0 15 2 17 9 17h107l42 200c2 8 6 10 19 10h13c15 0 17 -3 16 -10l-42 -200h157l42 200
c2 8 6 10 19 10h12c15 0 17 -3 16 -10l-42 -200h99c7 0 9 -2 9 -17v-6c0 -15 -2 -17 -9 -17h-107l-46 -215h107c7 0 9 -2 9 -17v-6c0 -15 -2 -17 -9 -17h-116l-43 -205c-2 -8 -6 -10 -19 -10h-12zM228 470l-47 -215h157l47 215h-157z" />
    <glyph glyph-name="percent" unicode="%" horiz-adv-x="886" 
d="M214 683c-60 0 -101 -54 -101 -160c0 -97 33 -150 96 -150s100 58 100 161c0 97 -33 149 -95 149zM217 730c95 0 156 -61 156 -194c0 -135 -63 -211 -167 -211c-95 0 -156 63 -156 194c0 137 63 211 167 211zM242 -5l344 731c4 8 7 11 29 11h10c20 0 24 -2 19 -13
l-345 -731c-4 -8 -9 -11 -29 -11h-10c-20 0 -23 3 -18 13zM677 348c-60 0 -101 -54 -101 -160c0 -97 33 -150 96 -150s100 58 100 161c0 97 -33 149 -95 149zM680 395c95 0 156 -61 156 -194c0 -135 -63 -211 -167 -211c-95 0 -156 63 -156 194c0 137 63 211 167 211z" />
    <glyph glyph-name="perthousand" unicode="&#x2030;" horiz-adv-x="1270" 
d="M214 683c-60 0 -101 -54 -101 -160c0 -97 33 -150 96 -150s100 58 100 161c0 97 -33 149 -95 149zM217 730c95 0 156 -61 156 -194c0 -135 -63 -211 -167 -211c-95 0 -156 63 -156 194c0 137 63 211 167 211zM242 -5l344 731c4 8 7 11 29 11h10c20 0 24 -2 19 -13
l-345 -731c-4 -8 -9 -11 -29 -11h-10c-20 0 -23 3 -18 13zM677 348c-60 0 -101 -54 -101 -160c0 -97 33 -150 96 -150s100 58 100 161c0 97 -33 149 -95 149zM680 395c95 0 156 -61 156 -194c0 -135 -63 -211 -167 -211c-95 0 -156 63 -156 194c0 137 63 211 167 211z
M1061 348c-60 0 -101 -54 -101 -160c0 -97 33 -150 96 -150s100 58 100 161c0 97 -33 149 -95 149zM1064 395c95 0 156 -61 156 -194c0 -135 -63 -211 -167 -211c-95 0 -156 63 -156 194c0 137 63 211 167 211z" />
    <glyph glyph-name="plus" unicode="+" horiz-adv-x="574" 
d="M263 126v215h-214c-7 0 -8 6 -8 22v3c0 17 1 22 8 22h214v214c0 7 5 8 22 8h3c16 0 22 -1 22 -8v-214h215c7 0 8 -5 8 -22v-3c0 -16 -1 -22 -8 -22h-215v-215c0 -7 -6 -8 -22 -8h-3c-17 0 -22 1 -22 8z" />
    <glyph glyph-name="minus" unicode="&#x2212;" horiz-adv-x="574" 
d="M525 341h-476c-7 0 -8 6 -8 22v3c0 17 1 22 8 22h476c7 0 8 -5 8 -22v-3c0 -16 -1 -22 -8 -22z" />
    <glyph glyph-name="multiply" unicode="&#xd7;" horiz-adv-x="574" 
d="M438 179l-152 152l-151 -152c-5 -5 -10 -1 -21 10l-2 2c-12 12 -15 17 -10 22l151 151l-151 151c-5 5 -2 10 10 22l2 2c11 11 16 15 21 10l151 -152l152 152c5 5 10 2 22 -10l2 -2c11 -11 15 -16 10 -21l-152 -152l152 -152c5 -5 1 -10 -10 -21l-2 -2
c-12 -12 -17 -15 -22 -10z" />
    <glyph glyph-name="less" unicode="&#x3c;" horiz-adv-x="574" 
d="M42 366v8c0 16 2 21 9 25l449 251c8 4 12 1 20 -13l4 -7c8 -14 10 -19 3 -23l-425 -237l425 -237c7 -4 5 -9 -3 -23l-4 -7c-8 -14 -12 -17 -20 -13l-449 251c-7 4 -9 9 -9 25z" />
    <glyph glyph-name="divide" unicode="&#xf7;" horiz-adv-x="574" 
d="M296 619c27 0 49 -23 49 -52s-22 -50 -49 -50s-48 21 -48 50s21 52 48 52zM296 212c27 0 49 -21 49 -51c0 -28 -22 -50 -49 -50s-48 22 -48 50c0 30 21 51 48 51zM525 342h-476c-7 0 -8 6 -8 22v1c0 17 1 22 8 22h476c7 0 8 -5 8 -22v-1c0 -16 -1 -22 -8 -22z" />
    <glyph glyph-name="equal" unicode="=" horiz-adv-x="574" 
d="M525 442h-476c-7 0 -8 6 -8 22v3c0 17 1 22 8 22h476c7 0 8 -5 8 -22v-3c0 -16 -1 -22 -8 -22zM525 239h-476c-7 0 -8 6 -8 22v3c0 17 1 22 8 22h476c7 0 8 -5 8 -22v-3c0 -16 -1 -22 -8 -22z" />
    <glyph glyph-name="logicalnot" unicode="&#xac;" horiz-adv-x="574" 
d="M41 463v3c0 17 1 22 8 22h484v-241c0 -7 -6 -8 -22 -8h-3c-17 0 -22 1 -22 8v194h-437c-7 0 -8 6 -8 22z" />
    <glyph glyph-name="greater" unicode="&#x3e;" horiz-adv-x="574" 
d="M532 374v-8c0 -16 -2 -21 -9 -25l-449 -251c-8 -4 -12 -1 -20 13l-4 7c-8 14 -10 19 -3 23l425 237l-425 237c-7 4 -5 9 3 23l4 7c8 14 12 17 20 13l449 -251c7 -4 9 -9 9 -25z" />
    <glyph glyph-name="notequal" unicode="&#x2260;" horiz-adv-x="574" 
d="M145 145l51 94h-147c-7 0 -8 6 -8 22v3c0 17 1 22 8 22h172l85 156h-257c-7 0 -8 6 -8 22v3c0 17 1 22 8 22h283l51 94c3 5 5 7 21 7h9c15 0 18 -3 16 -7l-51 -94h147c7 0 8 -5 8 -22v-3c0 -16 -1 -22 -8 -22h-173l-85 -156h258c7 0 8 -5 8 -22v-3c0 -16 -1 -22 -8 -22
h-283l-51 -94c-3 -5 -4 -8 -21 -8h-9c-16 0 -18 4 -16 8z" />
    <glyph glyph-name="approxequal" unicode="&#x2248;" horiz-adv-x="574" 
d="M402 447c47 0 72 28 88 77c2 5 4 7 18 3l13 -4c9 -3 12 -4 11 -11c-16 -76 -68 -115 -137 -115c-95 0 -138 87 -223 87c-47 0 -72 -28 -88 -77c-2 -6 -4 -7 -18 -3l-13 4c-9 3 -12 4 -11 11c16 76 68 115 137 115c95 0 138 -87 223 -87zM402 243c47 0 72 28 88 77
c2 5 4 7 18 3l13 -4c9 -3 12 -4 11 -11c-16 -76 -68 -115 -137 -115c-95 0 -138 87 -223 87c-47 0 -72 -28 -88 -77c-2 -6 -4 -7 -18 -3l-13 4c-9 3 -12 4 -11 11c16 76 68 115 137 115c95 0 138 -87 223 -87z" />
    <glyph glyph-name="plusminus" unicode="&#xb1;" horiz-adv-x="574" 
d="M263 206v215h-214c-7 0 -8 6 -8 22v3c0 17 1 22 8 22h214v214c0 7 6 8 23 8h1c16 0 23 -1 23 -8v-214h215c7 0 8 -5 8 -22v-3c0 -16 -1 -22 -8 -22h-215v-215c0 -7 -7 -8 -23 -8h-1c-17 0 -23 1 -23 8zM525 0h-476c-7 0 -8 6 -8 22v3c0 17 1 22 8 22h476c7 0 8 -5 8 -22
v-3c0 -16 -1 -22 -8 -22z" />
    <glyph glyph-name="lessequal" unicode="&#x2264;" horiz-adv-x="574" 
d="M41 440v8c0 16 2 21 9 25l449 251c8 4 12 1 20 -13l4 -7c8 -14 10 -19 3 -23l-425 -237l425 -237c7 -4 5 -9 -3 -23l-4 -7c-8 -14 -12 -17 -20 -13l-449 251c-7 4 -9 9 -9 25zM525 0h-476c-7 0 -8 6 -8 22v3c0 17 1 22 8 22h476c7 0 8 -5 8 -22v-3c0 -16 -1 -22 -8 -22z
" />
    <glyph glyph-name="greaterequal" unicode="&#x2265;" horiz-adv-x="574" 
d="M533 448v-8c0 -16 -2 -21 -9 -25l-449 -251c-8 -4 -12 -1 -20 13l-4 7c-8 14 -10 19 -3 23l425 237l-425 237c-7 4 -5 9 3 23l4 7c8 14 12 17 20 13l449 -251c7 -4 9 -9 9 -25zM525 0h-476c-7 0 -8 6 -8 22v3c0 17 1 22 8 22h476c7 0 8 -5 8 -22v-3c0 -16 -1 -22 -8 -22z
" />
    <glyph glyph-name="asciicircum" unicode="^" horiz-adv-x="574" 
d="M286 730h2c24 0 29 -2 33 -10l177 -375c4 -8 -1 -11 -24 -11h-9c-23 0 -29 3 -32 9l-146 325l-146 -325c-3 -6 -9 -9 -32 -9h-9c-23 0 -28 3 -24 11l177 375c4 8 9 10 33 10z" />
    <glyph glyph-name="asciitilde" unicode="~" horiz-adv-x="574" 
d="M414 365c52 0 79 31 97 85c2 6 4 8 20 3l14 -4c10 -3 13 -5 12 -12c-18 -84 -75 -127 -151 -127c-105 0 -152 96 -246 96c-52 0 -79 -31 -97 -85c-2 -6 -4 -8 -20 -3l-14 4c-10 3 -13 5 -12 12c18 84 75 127 151 127c105 0 152 -96 246 -96z" />
    <glyph glyph-name="lozenge" unicode="&#x25ca;" horiz-adv-x="545" 
d="M272 58l177 307l-177 307l-177 -307zM278 -22h-12c-17 0 -21 2 -24 7l-200 340c-5 9 -7 18 -7 33v14c0 15 2 24 7 33l200 340c3 5 7 7 24 7h12c17 0 21 -2 24 -7l200 -340c5 -9 7 -18 7 -33v-14c0 -15 -2 -24 -7 -33l-200 -340c-3 -5 -7 -7 -24 -7z" />
    <glyph glyph-name="degree" unicode="&#xb0;" horiz-adv-x="357" 
d="M181 691c-57 0 -94 -36 -94 -99c0 -62 31 -95 89 -95c57 0 93 35 93 99c0 61 -30 95 -88 95zM41 590c0 86 55 140 141 140c80 0 134 -43 134 -133c0 -85 -55 -140 -141 -140c-80 0 -134 45 -134 133z" />
    <glyph glyph-name="quotesingle" unicode="'" horiz-adv-x="253" 
d="M130 449h-7c-20 0 -23 2 -23 7l-9 254c0 8 5 10 29 10h13c24 0 29 -2 29 -10l-9 -254c0 -5 -3 -7 -23 -7z" />
    <glyph glyph-name="quotedbl" unicode="&#x22;" horiz-adv-x="428" 
d="M130 449h-7c-20 0 -23 2 -23 7l-9 254c0 8 5 10 29 10h13c24 0 29 -2 29 -10l-9 -254c0 -5 -3 -7 -23 -7zM305 449h-7c-20 0 -23 2 -23 7l-9 254c0 8 5 10 29 10h13c24 0 29 -2 29 -10l-9 -254c0 -5 -3 -7 -23 -7z" />
    <glyph glyph-name="radical" unicode="&#x221a;" horiz-adv-x="644" 
d="M132 427h-70c-7 0 -8 7 -8 25v6c0 19 1 26 8 26h113c8 0 12 -5 18 -24l155 -460l256 811c2 7 6 11 32 11h5c26 0 31 -3 28 -13l-287 -883c-2 -5 -5 -6 -28 -6h-12c-28 0 -31 1 -33 6z" />
    <glyph glyph-name="currency" unicode="&#xa4;" horiz-adv-x="574" 
d="M467 368c0 -70 -19 -125 -53 -162l68 -114c5 -8 1 -12 -34 -12c-24 0 -29 3 -35 12l-46 78c-25 -13 -55 -20 -88 -20c-32 0 -59 7 -82 19l-45 -77c-6 -10 -11 -12 -38 -12c-32 1 -36 5 -31 12l68 114c-29 36 -44 86 -44 144c0 70 19 125 53 162l-68 114c-5 8 -1 12 34 12
c24 0 29 -3 35 -12l46 -78c25 13 55 20 88 20c32 0 59 -7 82 -19l45 77c6 10 11 12 38 12c32 -1 36 -5 31 -12l-68 -114c29 -36 44 -86 44 -144zM405 363c0 71 -24 152 -114 152c-65 0 -122 -47 -122 -160c0 -71 24 -152 114 -152c65 0 122 47 122 160z" />
    <glyph glyph-name="infinity" unicode="&#x221e;" horiz-adv-x="823" 
d="M379 328c-44 60 -89 107 -153 107c-68 0 -115 -44 -115 -105s47 -105 115 -105c64 0 109 43 153 103zM411 293c-54 -80 -109 -117 -188 -117c-91 0 -168 57 -168 154s77 154 168 154c79 0 134 -37 188 -117c54 80 109 117 188 117c91 0 168 -57 168 -154
s-77 -154 -168 -154c-79 0 -134 37 -188 117zM443 332c44 -60 89 -107 153 -107c68 0 115 44 115 105s-47 105 -115 105c-64 0 -109 -43 -153 -103z" />
    <glyph glyph-name="uni00B5" unicode="&#xb5;" horiz-adv-x="589" 
d="M435 72c-34 -51 -82 -82 -164 -82c-55 0 -105 22 -129 55v-86c0 -65 3 -125 9 -180c1 -9 -6 -12 -30 -12h-6c-26 0 -32 2 -33 10c-4 55 -5 111 -5 170v571c0 7 4 10 28 10h8c24 0 29 -3 29 -10v-263c0 -81 4 -130 29 -161c22 -25 57 -41 104 -41c50 0 90 12 119 43
c21 22 31 46 35 91c2 29 3 74 3 135v196c0 7 4 10 28 10h8c24 0 29 -3 29 -10v-399c0 -61 9 -69 43 -69c6 0 7 -1 7 -21v-4c0 -19 0 -21 -6 -23c-7 -2 -18 -4 -34 -4c-46 0 -71 28 -72 74z" />
    <glyph glyph-name="partialdiff" unicode="&#x2202;" horiz-adv-x="551" 
d="M117 657c-11 -4 -15 -3 -21 11l-4 10c-6 16 -8 22 -1 26c32 16 72 26 121 26c202 0 289 -228 289 -430c0 -189 -71 -310 -230 -310c-140 0 -219 100 -219 232c0 127 71 223 210 223c61 0 119 -22 164 -53c-21 147 -82 282 -214 282c-34 0 -66 -6 -95 -17zM431 336
c-44 28 -102 54 -161 54c-116 0 -149 -89 -149 -174c0 -101 53 -170 149 -170c118 0 161 98 161 290z" />
    <glyph glyph-name="summation" unicode="&#x2211;" horiz-adv-x="567" 
d="M49 -103l317 384l-312 375c-14 16 -18 25 -18 39v18c0 6 5 7 22 7h494c7 0 9 -7 9 -26v-4c0 -20 -2 -27 -9 -27h-423l290 -345c4 -5 6 -10 6 -24v-14c0 -15 -2 -20 -7 -27l-294 -363h427c7 0 9 -7 9 -27v-4c0 -19 -2 -26 -9 -26h-498c-17 0 -22 1 -22 7v18
c0 14 4 23 18 39z" />
    <glyph glyph-name="product" unicode="&#x220f;" horiz-adv-x="698" 
d="M658 663h-93v-821c0 -7 -8 -9 -29 -9h-8c-22 0 -32 2 -32 9v821h-295v-821c0 -7 -10 -9 -32 -9h-8c-21 0 -29 2 -29 9v821h-93c-7 0 -9 7 -9 27v4c0 19 2 26 9 26h619c7 0 9 -7 9 -26v-4c0 -20 -2 -27 -9 -27z" />
    <glyph glyph-name="integral" unicode="&#x222b;" horiz-adv-x="364" 
d="M185 48c0 170 -80 310 -80 487c0 126 63 195 173 195c18 0 40 -2 59 -8c5 -2 5 -5 1 -22l-3 -13c-5 -21 -7 -21 -14 -20c-13 3 -28 5 -39 5c-78 0 -104 -49 -104 -137c0 -170 80 -310 80 -487c0 -126 -63 -195 -173 -195c-18 0 -40 2 -59 8c-5 2 -5 5 -1 22l3 13
c5 21 7 21 14 20c13 -3 28 -5 39 -5c78 0 104 49 104 137z" />
    <glyph glyph-name="Ohm" unicode="&#x2126;" horiz-adv-x="752" 
d="M376 671c-127 0 -220 -94 -220 -311c0 -163 63 -263 159 -308c7 -3 10 -6 10 -24v-3c0 -18 -1 -25 -8 -25h-251c-7 0 -8 7 -8 25v3c0 19 1 23 8 23h165c-70 47 -147 129 -147 316c0 223 113 363 292 363s292 -140 292 -363c0 -187 -77 -269 -147 -316h165c7 0 8 -4 8 -23
v-3c0 -18 -1 -25 -8 -25h-251c-7 0 -8 7 -8 25v3c0 18 3 21 10 24c96 45 159 145 159 308c0 217 -93 311 -220 311z" />
    <glyph glyph-name="increment" unicode="&#x2206;" horiz-adv-x="620" 
d="M110 57h400l-200 597zM554 0h-488c-19 0 -24 3 -24 11v26c0 17 3 30 10 51l212 619c4 11 7 13 38 13h16c31 0 34 -2 38 -13l212 -619c7 -21 10 -34 10 -51v-26c0 -8 -5 -11 -24 -11z" />
    <glyph glyph-name="litre" unicode="&#x2113;" horiz-adv-x="245" 
d="M136 460v-348c0 -44 5 -61 36 -61c8 0 14 1 20 2c5 1 7 -1 9 -18l1 -7c2 -15 1 -19 -9 -22c-13 -4 -29 -6 -41 -6c-25 0 -50 5 -66 28c-11 17 -15 49 -15 104v351c0 117 -1 189 -4 268c0 7 7 9 28 9h8c23 0 29 -2 29 -9c3 -58 4 -185 4 -291z" />
    <glyph glyph-name="estimated" unicode="&#x212e;" horiz-adv-x="922" 
d="M872 352h-666c-4 0 -5 -1 -5 -6v-202c0 -8 3 -16 9 -24c64 -64 154 -108 253 -108c106 0 201 47 264 122h60c-75 -87 -193 -144 -325 -144c-227 0 -412 166 -412 370c0 205 185 370 412 370c226 0 410 -165 410 -370v-8zM721 377v203c0 9 -4 18 -10 25
c-64 63 -152 103 -248 103c-99 0 -187 -42 -252 -106c-7 -7 -10 -17 -10 -26v-199c0 -3 1 -6 5 -6h510c4 0 5 3 5 6z" />
    <glyph glyph-name="numero" unicode="&#x2116;" horiz-adv-x="1077" 
d="M733 455c0 -71 24 -152 114 -152c65 0 122 47 122 160c0 71 -24 152 -114 152c-65 0 -122 -47 -122 -160zM1031 468c0 -138 -74 -218 -188 -218c-115 0 -172 86 -172 200c0 138 74 218 188 218c115 0 172 -86 172 -200zM516 10l-374 615v-616c0 -7 -6 -9 -28 -9h-7
c-22 0 -27 2 -27 9v702c0 7 6 9 29 9h7c33 0 40 -2 45 -10l374 -615v616c0 7 5 9 27 9h7c22 0 28 -2 28 -9v-702c0 -7 -6 -9 -29 -9h-7c-33 0 -40 2 -45 10z" />
    <glyph glyph-name="zero.otab" horiz-adv-x="574" 
d="M282 46c119 0 191 90 191 250c0 155 -64 240 -181 240c-119 0 -191 -90 -191 -250c0 -155 64 -240 181 -240zM295 592c144 0 247 -98 247 -293c0 -191 -104 -309 -263 -309c-144 0 -247 98 -247 293c0 191 104 309 263 309z" />
    <glyph glyph-name="one.otab" horiz-adv-x="574" 
d="M435 0h-260c-6 0 -7 5 -7 23v6c0 18 1 23 7 23h101v462l-133 -77c-7 -4 -12 1 -20 14l-4 6c-8 13 -9 22 -2 26l155 90c11 6 20 9 36 9h13c15 0 21 -2 21 -7v-523h93c6 0 7 -5 7 -23v-6c0 -18 -1 -23 -7 -23z" />
    <glyph glyph-name="two.otab" horiz-adv-x="574" 
d="M121 484c-7 -4 -12 -3 -22 15l-4 7c-8 13 -9 18 -1 25c59 42 127 61 193 61c120 0 193 -68 193 -164c0 -92 -39 -147 -193 -270l-128 -102h317c7 0 8 -5 8 -25v-6c0 -20 -1 -25 -8 -25h-395c-6 0 -8 6 -8 24v8c0 22 1 26 10 33l164 132c129 104 167 155 167 229
s-57 110 -133 110c-50 0 -108 -17 -160 -52z" />
    <glyph glyph-name="three.otab" horiz-adv-x="574" 
d="M92 518l-5 11c-7 16 -7 19 0 23c42 23 106 40 162 40c63 0 117 -20 155 -58c28 -30 45 -70 45 -122c0 -82 -53 -145 -127 -167c92 -21 154 -93 154 -181c0 -142 -112 -212 -237 -212c-55 0 -122 13 -164 33c-6 3 -6 7 0 24l4 11c5 13 9 17 17 14c46 -18 92 -27 134 -27
c110 0 180 56 180 153c0 99 -80 155 -206 155h-21c-7 0 -9 3 -9 23v5c0 21 2 24 9 24h17c123 0 183 53 183 139c0 79 -52 132 -141 132c-42 0 -88 -9 -131 -30c-11 -5 -13 -4 -19 10z" />
    <glyph glyph-name="four.otab" horiz-adv-x="574" 
d="M51 89l234 484c3 6 9 9 31 9h8c22 0 31 -3 27 -11l-250 -516h261v186c0 6 8 8 28 8h7c20 0 30 -2 30 -8v-186h99c6 0 7 -6 7 -24v-6c0 -19 -1 -25 -7 -25h-99v-130c0 -6 -10 -8 -30 -8h-7c-20 0 -28 2 -28 8v130h-289c-25 0 -33 3 -33 11v31c0 23 2 29 11 47z" />
    <glyph glyph-name="five.otab" horiz-adv-x="574" 
d="M105 -66c43 -17 89 -26 131 -26c55 0 105 16 138 49c31 31 48 74 48 129c0 103 -59 167 -183 167c-45 0 -86 -7 -126 -18v347h345c6 0 8 -6 8 -24v-8c0 -17 -2 -24 -8 -24h-280v-229c23 6 49 9 75 9c139 0 235 -82 235 -216c0 -167 -124 -237 -252 -238
c-52 0 -104 11 -150 31c-7 3 -7 10 -1 26l3 8c5 13 9 20 17 17z" />
    <glyph glyph-name="six.otab" horiz-adv-x="574" 
d="M135 338c0 -195 46 -294 165 -294c97 0 150 69 150 172c0 129 -68 176 -150 176c-56 0 -116 -22 -165 -54zM459 657c-35 13 -69 19 -101 19c-102 0 -189 -80 -218 -284c49 35 110 53 168 53c110 0 209 -67 209 -223c0 -132 -79 -232 -219 -232c-159 0 -230 121 -230 310
c0 202 87 430 289 430c49 0 89 -10 121 -26c6 -3 5 -10 0 -24l-3 -8c-4 -12 -9 -18 -16 -15z" />
    <glyph glyph-name="seven.otab" horiz-adv-x="514" 
d="M50 582h403c16 0 22 -2 22 -8v-34c0 -12 -4 -22 -8 -32l-274 -637c-3 -6 -8 -9 -30 -9h-9c-22 0 -30 3 -27 10l286 654h-363c-6 0 -8 7 -8 24v8c0 18 2 24 8 24z" />
    <glyph glyph-name="eight.otab" horiz-adv-x="574" 
d="M486 560c0 -64 -44 -130 -145 -173c87 -42 172 -88 172 -191c0 -127 -105 -206 -234 -206c-113 0 -219 65 -219 192c0 92 64 168 158 201c-69 36 -124 82 -124 170c0 112 96 177 198 177c103 0 194 -66 194 -170zM449 188c0 90 -90 128 -181 170
c-91 -33 -142 -98 -142 -173c0 -88 69 -141 157 -141c96 0 166 58 166 144zM158 560c0 -64 46 -107 135 -149c84 37 129 91 129 148c0 70 -54 118 -133 118c-81 0 -131 -51 -131 -117z" />
    <glyph glyph-name="nine.otab" horiz-adv-x="574" 
d="M440 245c0 190 -46 293 -168 293c-94 0 -149 -69 -149 -173c0 -121 64 -174 151 -174c51 0 109 19 166 54zM116 -69c34 -17 73 -25 106 -25c53 0 91 10 129 48c43 44 72 119 84 237c-53 -36 -112 -54 -169 -54c-112 0 -209 70 -209 222c0 130 78 233 216 233
c159 0 233 -125 233 -311c0 -164 -36 -294 -110 -366c-42 -40 -92 -63 -165 -63c-48 0 -106 13 -139 32c-7 4 -5 12 1 25l4 8c8 15 12 17 19 14z" />
    <glyph glyph-name="dollar.otab" horiz-adv-x="574" 
d="M342 661v-71c41 -5 82 -19 111 -38c6 -4 5 -13 -3 -25l-4 -6c-10 -15 -14 -16 -20 -13c-33 17 -71 30 -114 30c-70 0 -117 -40 -117 -93c0 -129 285 -111 285 -291c0 -91 -66 -154 -172 -163v-68c0 -5 -5 -7 -22 -7h-7c-17 0 -22 2 -22 7v68c-59 4 -113 21 -145 45
c-6 4 -5 12 4 28l4 7c8 13 13 16 19 13c44 -26 95 -40 136 -40c82 0 140 40 140 104c0 137 -285 114 -285 288c0 92 73 149 161 155v70c0 5 5 7 22 7h7c17 0 22 -2 22 -7z" />
    <glyph glyph-name="cent.otab" horiz-adv-x="574" 
d="M449 125c8 4 13 5 21 -12l4 -9c8 -18 6 -21 -2 -26c-38 -23 -83 -39 -138 -42v-97c0 -7 -7 -8 -25 -8h-3c-19 0 -23 1 -23 8v98c-141 15 -204 135 -204 253c0 140 79 250 215 263v100c0 7 4 8 23 8h3c18 0 25 -1 25 -8v-99c52 -4 99 -21 135 -47c10 -7 7 -11 -1 -25
l-6 -10c-8 -14 -13 -18 -20 -13c-45 30 -84 40 -126 40c-116 0 -178 -81 -178 -202c0 -111 50 -203 174 -203c48 0 88 11 126 31z" />
    <glyph glyph-name="Euro.otab" horiz-adv-x="574" 
d="M399 206h-194c23 -114 91 -160 174 -160c36 0 73 8 110 25c6 3 11 -2 17 -15l4 -9c6 -13 6 -20 0 -23c-41 -22 -87 -34 -143 -34c-135 0 -211 85 -233 216h-70c-6 0 -7 4 -7 19v7c0 15 1 19 7 19h65v32c0 15 0 31 1 45h-55c-6 0 -7 4 -7 19v7c0 15 1 19 7 19h61
c22 139 114 219 236 219c48 0 97 -13 141 -38c5 -3 3 -11 -2 -23l-4 -9c-5 -12 -11 -17 -17 -14c-35 17 -74 28 -113 28c-89 0 -152 -52 -172 -163h205c6 0 7 -4 7 -19v-7c0 -15 -1 -19 -7 -19h-210c-2 -12 -2 -26 -2 -41c0 -13 0 -25 1 -36h200c6 0 7 -4 7 -19v-7
c0 -15 -1 -19 -7 -19z" />
    <glyph glyph-name="florin.otab" horiz-adv-x="574" 
d="M264 355l6 41c17 130 67 205 170 205c26 0 51 -5 66 -13c7 -4 6 -9 1 -24l-3 -9c-5 -16 -8 -18 -16 -16c-15 4 -30 7 -45 7c-70 0 -97 -48 -109 -142l-7 -49h115c6 0 7 -4 7 -20v-7c0 -16 -1 -20 -7 -20h-121l-26 -201c-17 -130 -67 -205 -170 -205c-26 0 -51 5 -66 13
c-7 4 -6 9 -1 24l3 9c5 16 8 18 16 16c15 -4 30 -7 45 -7c70 0 97 48 109 142l27 209h-92c-6 0 -7 4 -7 20v7c0 16 1 20 7 20h98z" />
    <glyph glyph-name="sterling.otab" horiz-adv-x="574" 
d="M458 515c-28 13 -59 21 -88 21c-86 0 -118 -47 -118 -133v-79h168c6 0 7 -4 7 -19v-7c0 -15 -1 -19 -7 -19h-168v-72c0 -77 -18 -115 -65 -150h299c8 0 9 -5 9 -24v-9c0 -19 -1 -24 -9 -24h-370c-7 0 -8 8 -8 25v6c0 17 2 24 7 27c52 32 70 79 70 139v82h-74
c-6 0 -7 4 -7 19v7c0 15 1 19 7 19h74v76c0 126 71 192 181 192c40 0 82 -12 116 -31c7 -4 5 -11 -2 -24l-4 -8c-8 -16 -11 -17 -18 -14z" />
    <glyph glyph-name="yen.otab" horiz-adv-x="574" 
d="M447 146h-127v-137c0 -7 -6 -9 -29 -9h-8c-23 0 -29 2 -29 9v137h-125c-5 0 -7 4 -7 22v5c0 18 2 22 7 22h125v30l-19 37h-106c-5 0 -7 4 -7 22v5c0 18 2 22 7 22h82l-130 261c-3 6 4 10 29 10h8c24 0 32 -2 35 -9l139 -286l137 287c3 7 11 8 32 8h9c20 0 28 -4 25 -10
l-132 -261h84c5 0 7 -4 7 -22v-5c0 -18 -2 -22 -7 -22h-109l-18 -37v-30h127c5 0 7 -4 7 -22v-5c0 -18 -2 -22 -7 -22z" />
    <glyph glyph-name="numbersign.otab" horiz-adv-x="515" 
d="M284 0h-9c-15 0 -19 2 -18 8l36 160h-135l-36 -160c-2 -7 -6 -8 -20 -8h-10c-15 0 -19 2 -18 8l36 160h-74c-6 0 -8 4 -8 19v6c0 15 2 19 8 19h82l39 162h-81c-6 0 -8 4 -8 19v6c0 15 2 19 8 19h89l36 156c1 7 6 8 20 8h10c15 0 18 -2 17 -8l-35 -156h135l36 156
c1 7 5 8 20 8h9c15 0 18 -2 17 -8l-35 -156h84c6 0 8 -4 8 -19v-6c0 -15 -2 -19 -8 -19h-92l-38 -162h90c6 0 8 -4 8 -19v-6c0 -15 -2 -19 -8 -19h-99l-36 -160c-2 -7 -6 -8 -20 -8zM301 212l39 162h-135l-39 -162h135z" />
    <glyph glyph-name="percent.otab" horiz-adv-x="781" 
d="M537 597h10c18 0 22 -3 19 -9l-295 -594c-3 -6 -7 -8 -26 -8h-11c-18 0 -22 3 -19 9l295 594c3 6 8 8 27 8zM189 306c54 0 85 44 85 123c0 75 -28 117 -81 117c-54 0 -85 -44 -85 -123c0 -75 28 -117 81 -117zM187 260c-81 0 -137 55 -137 162c0 105 57 170 145 170
c81 0 137 -55 137 -162c0 -105 -57 -170 -145 -170zM592 276c-54 0 -85 -44 -85 -123c0 -75 28 -117 81 -117c54 0 85 44 85 123c0 75 -28 117 -81 117zM594 322c81 0 137 -55 137 -162c0 -105 -57 -170 -145 -170c-81 0 -137 55 -137 162c0 105 57 170 145 170z" />
    <glyph glyph-name="perthousand.otab" horiz-adv-x="1115" 
d="M537 597h10c18 0 22 -3 19 -9l-295 -594c-3 -6 -7 -8 -26 -8h-11c-18 0 -22 3 -19 9l295 594c3 6 8 8 27 8zM189 306c54 0 85 44 85 123c0 75 -28 117 -81 117c-54 0 -85 -44 -85 -123c0 -75 28 -117 81 -117zM187 260c-81 0 -137 55 -137 162c0 105 57 170 145 170
c81 0 137 -55 137 -162c0 -105 -57 -170 -145 -170zM592 276c-54 0 -85 -44 -85 -123c0 -75 28 -117 81 -117c54 0 85 44 85 123c0 75 -28 117 -81 117zM594 322c81 0 137 -55 137 -162c0 -105 -57 -170 -145 -170c-81 0 -137 55 -137 162c0 105 57 170 145 170zM926 276
c-54 0 -85 -44 -85 -123c0 -75 28 -117 81 -117c54 0 85 44 85 123c0 75 -28 117 -81 117zM928 322c81 0 137 -55 137 -162c0 -105 -57 -170 -145 -170c-81 0 -137 55 -137 162c0 105 57 170 145 170z" />
    <glyph glyph-name="zero.lprop" horiz-adv-x="573" 
d="M290 672c-109 0 -171 -106 -171 -320c0 -201 55 -304 163 -304c113 0 173 112 173 324c0 201 -57 300 -165 300zM294 730c143 0 232 -106 232 -353c0 -250 -90 -387 -248 -387c-143 0 -231 112 -231 355c0 253 91 385 247 385z" />
    <glyph glyph-name="one.lprop" horiz-adv-x="474" 
d="M108 54h117v593l-157 -95c-9 -5 -13 -3 -22 13l-5 9c-9 16 -9 20 0 26l178 108c14 8 23 12 42 12h13c14 0 20 -2 20 -7v-659h108c7 0 9 -3 9 -24v-7c0 -20 -2 -23 -9 -23h-294c-7 0 -9 3 -9 23v7c0 21 2 24 9 24z" />
    <glyph glyph-name="two.lprop" horiz-adv-x="525" 
d="M33 25v3c0 15 0 22 10 34l145 171c112 132 160 220 160 302c0 91 -59 137 -136 137c-58 0 -104 -18 -151 -43c-9 -5 -14 -4 -22 11l-5 10c-7 14 -8 20 -1 25c49 31 116 55 183 55c113 0 200 -70 200 -191c0 -105 -62 -200 -178 -334l-127 -147h309c7 0 9 -4 9 -25v-8
c0 -20 -2 -25 -9 -25h-378c-7 0 -9 5 -9 25z" />
    <glyph glyph-name="three.lprop" horiz-adv-x="527" 
d="M169 352h-21c-7 0 -9 3 -9 23v6c0 21 2 24 9 24h17c63 0 115 13 148 45c22 22 36 52 36 93c0 38 -12 67 -31 88c-26 29 -65 42 -108 42c-45 0 -94 -14 -132 -30c-11 -5 -15 -3 -21 11l-4 10c-6 16 -8 22 -1 26c42 23 106 40 162 40c63 0 118 -20 156 -58
c29 -30 47 -70 47 -122c0 -82 -54 -145 -129 -167c75 -17 155 -77 155 -181c0 -142 -113 -212 -239 -212c-55 0 -121 13 -163 33c-8 4 -9 9 -2 27l4 10c6 14 9 18 20 14c41 -16 91 -26 132 -26c61 0 106 15 138 45c26 25 42 60 42 106c0 44 -15 77 -41 101
c-39 36 -96 52 -165 52z" />
    <glyph glyph-name="four.lprop" horiz-adv-x="554" 
d="M41 273l205 436c3 7 6 11 32 11h7c26 0 33 -3 28 -13l-215 -457h245v172c0 7 8 9 29 9h7c22 0 32 -2 32 -9v-172h96c8 0 9 -4 9 -28v-2c0 -24 -1 -27 -9 -27h-96v-184c0 -7 -10 -9 -32 -9h-7c-21 0 -29 2 -29 9v184h-281c-26 0 -32 2 -32 8v21c0 20 4 37 11 51z" />
    <glyph glyph-name="five.lprop" horiz-adv-x="525" 
d="M150 662v-226c20 5 45 8 74 8c73 0 134 -22 176 -63c37 -36 60 -88 60 -153c0 -140 -97 -238 -252 -238c-61 0 -124 16 -151 31c-8 4 -9 10 -2 28l4 10c5 12 9 17 20 13c37 -14 82 -24 126 -24c61 0 108 17 139 47s48 74 48 129c0 50 -14 90 -41 118
c-30 32 -78 48 -142 48c-45 0 -86 -7 -126 -18v348h344c7 0 9 -4 9 -25v-8c0 -20 -2 -25 -9 -25h-277z" />
    <glyph glyph-name="six.lprop" horiz-adv-x="545" 
d="M431 657c-29 11 -61 17 -95 17c-132 0 -193 -135 -214 -282c45 31 103 53 164 53c139 0 210 -96 210 -223c0 -132 -79 -232 -219 -232c-159 0 -230 121 -230 310c0 202 87 430 289 430c49 0 89 -10 121 -26c7 -4 5 -10 -1 -26l-4 -10c-6 -14 -10 -15 -21 -11zM117 336
c0 -192 43 -290 161 -290c96 0 149 69 149 170c0 85 -33 174 -149 174c-59 0 -117 -26 -161 -54z" />
    <glyph glyph-name="seven.lprop" horiz-adv-x="460" 
d="M434 641l-260 -630c-3 -7 -6 -11 -32 -11h-8c-26 0 -32 3 -28 13l272 649h-349c-7 0 -9 5 -9 25v8c0 21 2 25 9 25h391c17 0 22 -1 22 -6v-34c0 -16 -2 -24 -8 -39z" />
    <glyph glyph-name="eight.lprop" horiz-adv-x="563" 
d="M483 560c0 -82 -71 -138 -146 -172c87 -42 173 -89 173 -192c0 -127 -105 -206 -236 -206c-115 0 -221 65 -221 192c0 92 66 167 160 200c-69 36 -126 83 -126 171c0 112 96 177 200 177c105 0 196 -66 196 -170zM443 189c0 90 -90 126 -179 168
c-91 -33 -142 -96 -142 -171c0 -87 69 -140 157 -140c94 0 164 58 164 143zM154 559c0 -73 61 -112 133 -147c74 33 129 83 129 146c0 69 -54 117 -131 117c-81 0 -131 -51 -131 -116z" />
    <glyph glyph-name="nine.lprop" horiz-adv-x="545" 
d="M110 69c33 -14 70 -23 108 -23c55 0 91 14 123 46c47 47 71 127 83 236c-44 -30 -104 -53 -165 -53c-139 0 -210 95 -210 222c0 130 78 233 216 233c159 0 233 -125 233 -311c0 -164 -36 -294 -110 -366c-42 -40 -92 -63 -165 -63c-48 0 -106 14 -139 32c-7 4 -5 10 1 26
l4 10c6 14 10 16 21 11zM429 384c0 188 -46 290 -164 290c-94 0 -147 -69 -147 -171c0 -85 33 -173 149 -173c59 0 118 26 162 54z" />
    <glyph glyph-name="dollar.lprop" horiz-adv-x="525" 
d="M53 47c-7 5 -6 11 4 29l3 5c10 16 14 20 21 16c53 -34 110 -50 160 -50c99 0 166 57 166 136c0 83 -82 120 -164 163c-84 43 -168 93 -168 203c0 106 89 175 192 180v84c0 7 4 8 23 8h3c18 0 25 -1 25 -8v-86c47 -7 93 -23 127 -46c8 -5 6 -10 -3 -26l-3 -5
c-10 -18 -14 -20 -21 -16c-40 22 -85 39 -135 39c-80 0 -140 -45 -140 -121c0 -77 69 -114 144 -153c90 -46 188 -94 188 -213c0 -107 -78 -183 -196 -194v-82c0 -7 -7 -8 -25 -8h-3c-19 0 -23 1 -23 8v81c-71 3 -137 26 -175 56z" />
    <glyph glyph-name="cent.lprop" horiz-adv-x="514" 
d="M424 194c8 4 13 5 21 -12l4 -9c8 -18 6 -21 -2 -26c-38 -23 -83 -39 -138 -42v-97c0 -7 -7 -8 -25 -8h-3c-19 0 -23 1 -23 8v98c-141 15 -204 135 -204 253c0 140 79 250 215 263v100c0 7 4 8 23 8h3c18 0 25 -1 25 -8v-99c52 -4 99 -21 135 -47c10 -7 7 -11 -1 -25
l-6 -10c-8 -14 -13 -18 -20 -13c-45 30 -84 40 -126 40c-116 0 -178 -81 -178 -202c0 -111 50 -203 174 -203c48 0 88 11 126 31z" />
    <glyph glyph-name="Euro.lprop" horiz-adv-x="597" 
d="M55 460h71c29 179 134 270 271 270c62 0 117 -19 160 -44c6 -4 4 -10 -2 -24l-5 -11c-6 -14 -11 -17 -18 -14c-46 22 -89 34 -130 34c-118 0 -183 -82 -204 -211h238c7 0 8 -2 8 -21v-3c0 -18 -1 -23 -8 -23h-244c-2 -19 -2 -38 -2 -57c0 -17 0 -33 1 -48h232
c7 0 8 -2 8 -21v-3c0 -18 -1 -23 -8 -23h-226c21 -130 90 -212 211 -212c43 0 83 10 125 29c8 4 12 -1 18 -15l4 -10c7 -16 7 -21 -1 -25c-46 -23 -96 -38 -160 -38c-77 0 -134 26 -178 69c-48 47 -79 118 -92 202h-82c-7 0 -8 5 -8 23v3c0 19 1 21 8 21h77
c-1 14 -1 28 -1 43c0 21 1 42 2 62h-65c-7 0 -8 5 -8 23v3c0 19 1 21 8 21z" />
    <glyph glyph-name="florin.lprop" horiz-adv-x="498" 
d="M168 118l33 267h-108c-7 0 -8 6 -8 24v3c0 19 1 22 8 22h114l8 63c21 167 84 242 197 242c28 0 55 -6 71 -14c7 -4 5 -9 1 -24l-3 -10c-5 -16 -8 -18 -16 -16c-17 4 -35 7 -51 7c-84 0 -117 -60 -131 -176l-9 -72h133c7 0 8 -3 8 -22v-3c0 -18 -1 -24 -8 -24h-139
l-32 -258c-21 -167 -84 -242 -197 -242c-28 0 -55 6 -71 14c-7 4 -5 9 -1 24l3 10c5 16 8 18 16 16c17 -4 35 -7 51 -7c84 0 117 60 131 176z" />
    <glyph glyph-name="sterling.lprop" horiz-adv-x="554" 
d="M463 658c-35 17 -67 25 -101 25c-112 0 -141 -77 -141 -179v-104h195c7 0 8 -4 8 -23v-1c0 -18 -1 -25 -8 -25h-195v-98c0 -105 -20 -146 -77 -194h354c7 0 8 -7 8 -26v-5c0 -18 -1 -28 -8 -28h-429c-7 0 -8 10 -8 28v5c0 19 2 25 7 29c64 47 83 101 83 181v108h-89
c-7 0 -8 7 -8 25v1c0 19 1 23 8 23h89v104c0 137 64 235 209 235c42 0 90 -12 131 -35c7 -4 6 -11 -1 -25l-5 -10c-8 -15 -13 -16 -22 -11z" />
    <glyph glyph-name="yen.lprop" horiz-adv-x="533" 
d="M84 381h97l-152 327c-3 7 0 12 29 12h8c28 0 34 -3 38 -11l167 -369l165 371c4 8 9 9 34 9h9c23 0 28 -4 24 -12l-156 -327h98c7 0 8 -4 8 -23v-3c0 -18 -1 -25 -8 -25h-122l-24 -52v-39h146c7 0 8 -4 8 -23v-3c0 -18 -1 -25 -8 -25h-146v-179c0 -7 -10 -9 -32 -9h-8
c-21 0 -29 2 -29 9v179h-146c-7 0 -8 7 -8 25v3c0 19 1 23 8 23h146v39l-25 52h-121c-7 0 -8 7 -8 25v3c0 19 1 23 8 23z" />
    <glyph glyph-name="numbersign.lprop" horiz-adv-x="594" 
d="M313 0c-15 0 -17 3 -16 10l43 205h-157l-43 -205c-2 -8 -6 -10 -19 -10h-13c-15 0 -17 3 -16 10l43 205h-90c-7 0 -9 2 -9 17v6c0 15 2 17 9 17h97l48 215h-99c-7 0 -9 2 -9 17v6c0 15 2 17 9 17h107l42 200c2 8 6 10 19 10h13c15 0 17 -3 16 -10l-42 -200h157l42 200
c2 8 6 10 19 10h12c15 0 17 -3 16 -10l-42 -200h99c7 0 9 -2 9 -17v-6c0 -15 -2 -17 -9 -17h-107l-46 -215h107c7 0 9 -2 9 -17v-6c0 -15 -2 -17 -9 -17h-116l-43 -205c-2 -8 -6 -10 -19 -10h-12zM238 470l-47 -215h157l47 215h-157z" />
    <glyph glyph-name="percent.lprop" horiz-adv-x="886" 
d="M214 683c-60 0 -101 -54 -101 -160c0 -97 33 -150 96 -150s100 58 100 161c0 97 -33 149 -95 149zM217 730c95 0 156 -61 156 -194c0 -135 -63 -211 -167 -211c-95 0 -156 63 -156 194c0 137 63 211 167 211zM242 -5l344 731c4 8 7 11 29 11h10c20 0 24 -2 19 -13
l-345 -731c-4 -8 -9 -11 -29 -11h-10c-20 0 -23 3 -18 13zM677 348c-60 0 -101 -54 -101 -160c0 -97 33 -150 96 -150s100 58 100 161c0 97 -33 149 -95 149zM680 395c95 0 156 -61 156 -194c0 -135 -63 -211 -167 -211c-95 0 -156 63 -156 194c0 137 63 211 167 211z" />
    <glyph glyph-name="perthousand.lprop" horiz-adv-x="1270" 
d="M214 683c-60 0 -101 -54 -101 -160c0 -97 33 -150 96 -150s100 58 100 161c0 97 -33 149 -95 149zM217 730c95 0 156 -61 156 -194c0 -135 -63 -211 -167 -211c-95 0 -156 63 -156 194c0 137 63 211 167 211zM242 -5l344 731c4 8 7 11 29 11h10c20 0 24 -2 19 -13
l-345 -731c-4 -8 -9 -11 -29 -11h-10c-20 0 -23 3 -18 13zM677 348c-60 0 -101 -54 -101 -160c0 -97 33 -150 96 -150s100 58 100 161c0 97 -33 149 -95 149zM680 395c95 0 156 -61 156 -194c0 -135 -63 -211 -167 -211c-95 0 -156 63 -156 194c0 137 63 211 167 211z
M1061 348c-60 0 -101 -54 -101 -160c0 -97 33 -150 96 -150s100 58 100 161c0 97 -33 149 -95 149zM1064 395c95 0 156 -61 156 -194c0 -135 -63 -211 -167 -211c-95 0 -156 63 -156 194c0 137 63 211 167 211z" />
    <glyph glyph-name="zero.oprop" horiz-adv-x="610" 
d="M300 46c119 0 191 90 191 250c0 155 -64 240 -181 240c-119 0 -191 -90 -191 -250c0 -155 64 -240 181 -240zM313 592c144 0 247 -98 247 -293c0 -191 -104 -309 -263 -309c-144 0 -247 98 -247 293c0 191 104 309 263 309z" />
    <glyph glyph-name="one.oprop" horiz-adv-x="430" 
d="M359 0h-260c-6 0 -7 5 -7 23v6c0 18 1 23 7 23h101v462l-133 -77c-7 -4 -12 1 -20 14l-4 6c-8 13 -9 22 -2 26l155 90c11 6 20 9 36 9h13c15 0 21 -2 21 -7v-523h93c6 0 7 -5 7 -23v-6c0 -18 -1 -23 -7 -23z" />
    <glyph glyph-name="two.oprop" horiz-adv-x="523" 
d="M80 484c-7 -4 -12 -3 -22 15l-4 7c-8 13 -9 18 -1 25c59 42 127 61 193 61c120 0 193 -68 193 -164c0 -92 -39 -147 -193 -270l-128 -102h317c7 0 8 -5 8 -25v-6c0 -20 -1 -25 -8 -25h-395c-6 0 -8 6 -8 24v8c0 22 1 26 10 33l164 132c129 104 167 155 167 229
s-57 110 -133 110c-50 0 -108 -17 -160 -52z" />
    <glyph glyph-name="three.oprop" horiz-adv-x="521" 
d="M61 518l-5 11c-7 16 -7 19 0 23c42 23 106 40 162 40c63 0 117 -20 155 -58c28 -30 45 -70 45 -122c0 -82 -53 -145 -127 -167c92 -21 154 -93 154 -181c0 -142 -112 -212 -237 -212c-55 0 -122 13 -164 33c-6 3 -6 7 0 24l4 11c5 13 9 17 17 14c46 -18 92 -27 134 -27
c110 0 180 56 180 153c0 99 -80 155 -206 155h-21c-7 0 -9 3 -9 23v5c0 21 2 24 9 24h17c123 0 183 53 183 139c0 79 -52 132 -141 132c-42 0 -88 -9 -131 -30c-11 -5 -13 -4 -19 10z" />
    <glyph glyph-name="four.oprop" horiz-adv-x="571" 
d="M50 89l234 484c3 6 9 9 31 9h8c22 0 31 -3 27 -11l-250 -516h261v186c0 6 8 8 28 8h7c20 0 30 -2 30 -8v-186h99c6 0 7 -6 7 -24v-6c0 -19 -1 -25 -7 -25h-99v-130c0 -6 -10 -8 -30 -8h-7c-20 0 -28 2 -28 8v130h-289c-25 0 -33 3 -33 11v31c0 23 2 29 11 47z" />
    <glyph glyph-name="five.oprop" horiz-adv-x="522" 
d="M77 -66c43 -17 89 -26 131 -26c55 0 105 16 138 49c31 31 48 74 48 129c0 103 -59 167 -183 167c-45 0 -86 -7 -126 -18v347h345c6 0 8 -6 8 -24v-8c0 -17 -2 -24 -8 -24h-280v-229c23 6 49 9 75 9c139 0 235 -82 235 -216c0 -167 -124 -237 -252 -238
c-52 0 -104 11 -150 31c-7 3 -7 10 -1 26l3 8c5 13 9 20 17 17z" />
    <glyph glyph-name="six.oprop" horiz-adv-x="551" 
d="M117 338c0 -195 46 -294 165 -294c97 0 150 69 150 172c0 129 -68 176 -150 176c-56 0 -116 -22 -165 -54zM441 657c-35 13 -69 19 -101 19c-102 0 -189 -80 -218 -284c49 35 110 53 168 53c110 0 209 -67 209 -223c0 -132 -79 -232 -219 -232c-159 0 -230 121 -230 310
c0 202 87 430 289 430c49 0 89 -10 121 -26c6 -3 5 -10 0 -24l-3 -8c-4 -12 -9 -18 -16 -15z" />
    <glyph glyph-name="seven.oprop" horiz-adv-x="485" 
d="M34 582h403c16 0 22 -2 22 -8v-34c0 -12 -4 -22 -8 -32l-274 -637c-3 -6 -8 -9 -30 -9h-9c-22 0 -30 3 -27 10l286 654h-363c-6 0 -8 7 -8 24v8c0 18 2 24 8 24z" />
    <glyph glyph-name="eight.oprop" horiz-adv-x="557" 
d="M478 560c0 -64 -44 -130 -145 -173c87 -42 172 -88 172 -191c0 -127 -105 -206 -234 -206c-113 0 -219 65 -219 192c0 92 64 168 158 201c-69 36 -124 82 -124 170c0 112 96 177 198 177c103 0 194 -66 194 -170zM441 188c0 90 -90 128 -181 170
c-91 -33 -142 -98 -142 -173c0 -88 69 -141 157 -141c96 0 166 58 166 144zM150 560c0 -64 46 -107 135 -149c84 37 129 91 129 148c0 70 -54 118 -133 118c-81 0 -131 -51 -131 -117z" />
    <glyph glyph-name="nine.oprop" horiz-adv-x="551" 
d="M435 245c0 190 -46 293 -168 293c-94 0 -149 -69 -149 -173c0 -121 64 -174 151 -174c51 0 109 19 166 54zM111 -69c34 -17 73 -25 106 -25c53 0 91 10 129 48c43 44 72 119 84 237c-53 -36 -112 -54 -169 -54c-112 0 -209 70 -209 222c0 130 78 233 216 233
c159 0 233 -125 233 -311c0 -164 -36 -294 -110 -366c-42 -40 -92 -63 -165 -63c-48 0 -106 13 -139 32c-7 4 -5 12 1 25l4 8c8 15 12 17 19 14z" />
    <glyph glyph-name="dollar.oprop" horiz-adv-x="470" 
d="M283 661v-71c41 -5 82 -19 111 -38c6 -4 5 -13 -3 -25l-4 -6c-10 -15 -14 -16 -20 -13c-33 17 -71 30 -114 30c-70 0 -117 -40 -117 -93c0 -129 285 -111 285 -291c0 -91 -66 -154 -172 -163v-68c0 -5 -5 -7 -22 -7h-7c-17 0 -22 2 -22 7v68c-59 4 -113 21 -145 45
c-6 4 -5 12 4 28l4 7c8 13 13 16 19 13c44 -26 95 -40 136 -40c82 0 140 40 140 104c0 137 -285 114 -285 288c0 92 73 149 161 155v70c0 5 5 7 22 7h7c17 0 22 -2 22 -7z" />
    <glyph glyph-name="cent.oprop" horiz-adv-x="516" 
d="M423 125c8 4 13 5 21 -12l4 -9c8 -18 6 -21 -2 -26c-38 -23 -83 -39 -138 -42v-97c0 -7 -7 -8 -25 -8h-3c-19 0 -23 1 -23 8v98c-141 15 -204 135 -204 253c0 140 79 250 215 263v100c0 7 4 8 23 8h3c18 0 25 -1 25 -8v-99c52 -4 99 -21 135 -47c10 -7 7 -11 -1 -25
l-6 -10c-8 -14 -13 -18 -20 -13c-45 30 -84 40 -126 40c-116 0 -178 -81 -178 -202c0 -111 50 -203 174 -203c48 0 88 11 126 31z" />
    <glyph glyph-name="Euro.oprop" horiz-adv-x="531" 
d="M380 206h-194c23 -114 91 -160 174 -160c36 0 73 8 110 25c6 3 11 -2 17 -15l4 -9c6 -13 6 -20 0 -23c-41 -22 -87 -34 -143 -34c-135 0 -211 85 -233 216h-70c-6 0 -7 4 -7 19v7c0 15 1 19 7 19h65v32c0 15 0 31 1 45h-55c-6 0 -7 4 -7 19v7c0 15 1 19 7 19h61
c22 139 114 219 236 219c48 0 97 -13 141 -38c5 -3 3 -11 -2 -23l-4 -9c-5 -12 -11 -17 -17 -14c-35 17 -74 28 -113 28c-89 0 -152 -52 -172 -163h205c6 0 7 -4 7 -19v-7c0 -15 -1 -19 -7 -19h-210c-2 -12 -2 -26 -2 -41c0 -13 0 -25 1 -36h200c6 0 7 -4 7 -19v-7
c0 -15 -1 -19 -7 -19z" />
    <glyph glyph-name="florin.oprop" horiz-adv-x="459" 
d="M193 355l6 41c17 130 67 205 170 205c26 0 51 -5 66 -13c7 -4 6 -9 1 -24l-3 -9c-5 -16 -8 -18 -16 -16c-15 4 -30 7 -45 7c-70 0 -97 -48 -109 -142l-7 -49h115c6 0 7 -4 7 -20v-7c0 -16 -1 -20 -7 -20h-121l-26 -201c-17 -130 -67 -205 -170 -205c-26 0 -51 5 -66 13
c-7 4 -6 9 -1 24l3 9c5 16 8 18 16 16c15 -4 30 -7 45 -7c70 0 97 48 109 142l27 209h-92c-6 0 -7 4 -7 20v7c0 16 1 20 7 20h98z" />
    <glyph glyph-name="sterling.oprop" horiz-adv-x="492" 
d="M409 515c-28 13 -59 21 -88 21c-86 0 -118 -47 -118 -133v-79h168c6 0 7 -4 7 -19v-7c0 -15 -1 -19 -7 -19h-168v-72c0 -77 -18 -115 -65 -150h299c8 0 9 -5 9 -24v-9c0 -19 -1 -24 -9 -24h-370c-7 0 -8 8 -8 25v6c0 17 2 24 7 27c52 32 70 79 70 139v82h-74
c-6 0 -7 4 -7 19v7c0 15 1 19 7 19h74v76c0 126 71 192 181 192c40 0 82 -12 116 -31c7 -4 5 -11 -2 -24l-4 -8c-8 -16 -11 -17 -18 -14z" />
    <glyph glyph-name="yen.oprop" horiz-adv-x="482" 
d="M400 146h-127v-137c0 -7 -6 -9 -29 -9h-8c-23 0 -29 2 -29 9v137h-125c-5 0 -7 4 -7 22v5c0 18 2 22 7 22h125v30l-19 37h-106c-5 0 -7 4 -7 22v5c0 18 2 22 7 22h82l-130 261c-3 6 4 10 29 10h8c24 0 32 -2 35 -9l139 -286l137 287c3 7 11 8 32 8h9c20 0 28 -4 25 -10
l-132 -261h84c5 0 7 -4 7 -22v-5c0 -18 -2 -22 -7 -22h-109l-18 -37v-30h127c5 0 7 -4 7 -22v-5c0 -18 -2 -22 -7 -22z" />
    <glyph glyph-name="numbersign.oprop" horiz-adv-x="528" 
d="M291 0h-9c-15 0 -19 2 -18 8l36 160h-135l-36 -160c-2 -7 -6 -8 -20 -8h-10c-15 0 -19 2 -18 8l36 160h-74c-6 0 -8 4 -8 19v6c0 15 2 19 8 19h82l39 162h-81c-6 0 -8 4 -8 19v6c0 15 2 19 8 19h89l36 156c1 7 6 8 20 8h10c15 0 18 -2 17 -8l-35 -156h135l36 156
c1 7 5 8 20 8h9c15 0 18 -2 17 -8l-35 -156h84c6 0 8 -4 8 -19v-6c0 -15 -2 -19 -8 -19h-92l-38 -162h90c6 0 8 -4 8 -19v-6c0 -15 -2 -19 -8 -19h-99l-36 -160c-2 -7 -6 -8 -20 -8zM308 212l39 162h-135l-39 -162h135z" />
    <glyph glyph-name="percent.oprop" horiz-adv-x="781" 
d="M537 597h10c18 0 22 -3 19 -9l-295 -594c-3 -6 -7 -8 -26 -8h-11c-18 0 -22 3 -19 9l295 594c3 6 8 8 27 8zM189 306c54 0 85 44 85 123c0 75 -28 117 -81 117c-54 0 -85 -44 -85 -123c0 -75 28 -117 81 -117zM187 260c-81 0 -137 55 -137 162c0 105 57 170 145 170
c81 0 137 -55 137 -162c0 -105 -57 -170 -145 -170zM592 276c-54 0 -85 -44 -85 -123c0 -75 28 -117 81 -117c54 0 85 44 85 123c0 75 -28 117 -81 117zM594 322c81 0 137 -55 137 -162c0 -105 -57 -170 -145 -170c-81 0 -137 55 -137 162c0 105 57 170 145 170z" />
    <glyph glyph-name="perthousand.oprop" horiz-adv-x="1115" 
d="M537 597h10c18 0 22 -3 19 -9l-295 -594c-3 -6 -7 -8 -26 -8h-11c-18 0 -22 3 -19 9l295 594c3 6 8 8 27 8zM189 306c54 0 85 44 85 123c0 75 -28 117 -81 117c-54 0 -85 -44 -85 -123c0 -75 28 -117 81 -117zM187 260c-81 0 -137 55 -137 162c0 105 57 170 145 170
c81 0 137 -55 137 -162c0 -105 -57 -170 -145 -170zM592 276c-54 0 -85 -44 -85 -123c0 -75 28 -117 81 -117c54 0 85 44 85 123c0 75 -28 117 -81 117zM594 322c81 0 137 -55 137 -162c0 -105 -57 -170 -145 -170c-81 0 -137 55 -137 162c0 105 57 170 145 170zM926 276
c-54 0 -85 -44 -85 -123c0 -75 28 -117 81 -117c54 0 85 44 85 123c0 75 -28 117 -81 117zM928 322c81 0 137 -55 137 -162c0 -105 -57 -170 -145 -170c-81 0 -137 55 -137 162c0 105 57 170 145 170z" />
    <glyph glyph-name="a.sup" horiz-adv-x="381" 
d="M184 347c27 0 55 7 73 25c16 16 20 35 20 92v94c-19 30 -55 46 -92 46c-50 0 -98 -41 -98 -129c0 -64 22 -128 97 -128zM290 312l-5 35c-21 -31 -65 -48 -109 -48c-89 0 -148 62 -148 170c0 126 82 182 157 182c38 0 75 -16 98 -44l3 30c1 7 4 8 22 8h2c22 0 23 -3 23 -8
c0 -21 -2 -62 -2 -97v-91c0 -52 2 -100 4 -137c0 -5 -2 -7 -21 -7h-2c-19 0 -21 1 -22 7z" />
    <glyph glyph-name="b.sup" horiz-adv-x="378" 
d="M350 479c0 -126 -76 -180 -177 -180c-33 0 -72 5 -110 17c-10 3 -13 8 -13 17v453c0 5 3 8 26 8h2c23 0 26 -3 26 -8v-180c25 30 62 45 105 45c86 0 141 -64 141 -172zM104 440v-83c26 -8 48 -11 71 -11c75 0 116 46 116 133c0 90 -42 123 -94 123c-30 0 -54 -10 -70 -27
c-12 -13 -19 -30 -21 -50c-1 -17 -2 -49 -2 -85z" />
    <glyph glyph-name="c.sup" horiz-adv-x="325" 
d="M280 367c7 4 11 2 16 -12l3 -9c4 -12 5 -16 0 -19c-30 -17 -71 -28 -113 -28c-76 0 -158 44 -158 171c0 125 82 181 167 181c38 0 77 -12 110 -34c6 -4 6 -8 -2 -24l-3 -6c-8 -15 -12 -17 -19 -13c-30 18 -58 27 -84 27c-62 0 -110 -47 -110 -129c0 -87 45 -124 106 -124
c27 0 56 5 87 19z" />
    <glyph glyph-name="d.sup" horiz-adv-x="390" 
d="M277 463v114c-26 16 -55 24 -80 24c-64 0 -110 -47 -110 -131c0 -81 41 -123 102 -123c27 0 53 9 68 24c17 17 20 37 20 92zM356 348c5 0 6 -1 6 -18v-3c0 -18 -3 -19 -6 -20c-7 -2 -16 -3 -24 -3c-23 0 -42 9 -49 38c-21 -25 -61 -43 -106 -43c-73 0 -149 43 -149 169
c0 117 72 183 165 183c28 0 57 -7 84 -23v158c0 5 3 8 26 8h2c23 0 26 -3 26 -8v-402c0 -32 5 -36 25 -36z" />
    <glyph glyph-name="e.sup" horiz-adv-x="364" 
d="M88 500h194c-1 51 -28 101 -90 101c-54 0 -94 -31 -104 -101zM316 327c-28 -16 -74 -28 -121 -28c-83 0 -167 40 -167 168c0 102 58 184 163 184c88 0 147 -62 147 -174c0 -18 -2 -22 -8 -22h-243c0 -66 39 -106 119 -106c31 0 64 7 91 20c6 3 11 3 17 -13l3 -8
c5 -12 4 -18 -1 -21z" />
    <glyph glyph-name="f.sup" horiz-adv-x="224" 
d="M211 625v-5c0 -16 -1 -20 -6 -20h-81v-287c0 -5 -3 -8 -26 -8h-2c-23 0 -26 3 -26 8v287h-46c-5 0 -6 4 -6 20v5c0 16 1 20 6 20h46v17c0 93 41 140 118 140c26 0 49 -5 70 -14c7 -3 7 -8 3 -20l-2 -6c-4 -12 -6 -18 -13 -16c-19 6 -37 9 -52 9c-46 0 -70 -21 -70 -92
v-18h81c5 0 6 -4 6 -20z" />
    <glyph glyph-name="g.sup" horiz-adv-x="379" 
d="M70 195l1 4c5 19 8 20 17 17c27 -9 52 -14 77 -14c35 0 65 9 84 28c22 21 31 47 30 113c-26 -26 -67 -38 -106 -38c-97 0 -145 71 -145 166c0 110 65 180 155 180c37 0 69 -12 94 -41l1 27c0 5 4 8 25 8h2c20 0 24 -2 24 -8c2 -32 4 -119 4 -160v-108
c0 -88 -8 -139 -46 -174c-29 -28 -74 -42 -122 -42c-31 0 -63 7 -94 19c-5 2 -6 4 -1 23zM279 393v95c0 43 -2 61 -11 76c-12 20 -38 35 -78 35c-65 0 -103 -49 -103 -127c0 -76 33 -118 98 -118c37 0 73 16 94 39z" />
    <glyph glyph-name="h.sup" horiz-adv-x="392" 
d="M104 786v-184c27 32 70 49 111 49c39 0 74 -12 98 -36c22 -23 33 -56 33 -111v-191c0 -5 -3 -8 -26 -8h-2c-23 0 -26 3 -26 8v161c0 55 -2 82 -20 102c-14 16 -39 24 -69 24c-35 0 -59 -11 -78 -31c-10 -11 -17 -28 -19 -45c-2 -18 -2 -52 -2 -91v-120c0 -5 -3 -8 -26 -8
h-2c-23 0 -26 3 -26 8v473c0 5 3 8 26 8h2c23 0 26 -3 26 -8z" />
    <glyph glyph-name="i.sup" horiz-adv-x="156" 
d="M105 637v-324c0 -5 -3 -8 -26 -8h-2c-23 0 -26 3 -26 8v324c0 5 3 8 26 8h2c23 0 26 -3 26 -8zM118 751c0 -22 -18 -39 -40 -39s-40 17 -40 39s18 39 40 39s40 -17 40 -39z" />
    <glyph glyph-name="j.sup" horiz-adv-x="166" 
d="M60 304v333c0 5 3 8 26 8h2c23 0 26 -3 26 -8v-331c0 -59 -13 -100 -38 -124c-20 -19 -52 -29 -84 -29c-16 0 -35 2 -49 9c-4 2 -5 5 -3 16l2 8c3 14 5 18 11 16c13 -4 25 -5 36 -5c46 0 71 26 71 107zM127 751c0 -22 -18 -39 -40 -39s-40 17 -40 39s18 39 40 39
s40 -17 40 -39z" />
    <glyph glyph-name="k.sup" horiz-adv-x="329" 
d="M304 636c-17 -25 -64 -79 -118 -126l130 -196c3 -5 -1 -9 -23 -9h-4c-25 0 -30 2 -34 7l-109 164l-42 -32v-131c0 -5 -3 -8 -26 -8h-2c-23 0 -26 3 -26 8v473c0 5 3 8 26 8h2c23 0 26 -3 26 -8v-284l10 8c55 42 102 90 132 127c5 6 10 8 31 8h4c24 0 28 -1 23 -9z" />
    <glyph glyph-name="l.sup" horiz-adv-x="163" 
d="M139 331v-2c0 -16 0 -18 -5 -20c-10 -4 -22 -5 -30 -5c-24 0 -41 9 -49 23s-11 31 -11 66v217c0 69 -1 132 -4 176c0 4 6 8 26 8h4c20 0 23 -2 24 -8c3 -22 4 -100 4 -190v-215c0 -25 4 -34 26 -34h10c3 0 5 -2 5 -16z" />
    <glyph glyph-name="m.sup" horiz-adv-x="625" 
d="M525 313v165c0 53 -2 79 -19 99c-14 15 -38 23 -67 23c-34 0 -58 -10 -76 -30c-10 -11 -16 -27 -18 -44s-2 -50 -2 -88v-125c0 -5 -3 -8 -26 -8h-2c-23 0 -26 3 -26 8v165c0 53 -2 79 -19 99c-14 15 -38 23 -67 23c-34 0 -58 -10 -76 -30c-10 -11 -16 -27 -18 -44
s-2 -50 -2 -88v-125c0 -5 -3 -8 -26 -8h-2c-23 0 -26 3 -26 8v207c0 36 0 77 -2 117c0 6 7 8 24 8h8c18 0 24 -2 24 -8l1 -32c26 31 67 46 107 46c47 0 90 -18 112 -56c29 38 75 56 122 56c53 0 92 -21 112 -56c13 -23 18 -53 18 -87v-195c0 -5 -3 -8 -26 -8h-2
c-23 0 -26 3 -26 8z" />
    <glyph glyph-name="n.sup" horiz-adv-x="395" 
d="M105 637l2 -35c27 32 70 49 111 49c39 0 74 -12 98 -36c22 -23 33 -56 33 -111v-191c0 -5 -3 -8 -26 -8h-2c-23 0 -26 3 -26 8v161c0 55 -2 82 -20 102c-14 16 -39 24 -69 24c-35 0 -59 -11 -78 -31c-10 -11 -17 -28 -19 -45c-2 -18 -2 -52 -2 -91v-120
c0 -5 -3 -8 -26 -8h-2c-23 0 -26 3 -26 8v207c0 36 0 77 -2 117c0 6 7 8 24 8h6c18 0 24 -2 24 -8z" />
    <glyph glyph-name="o.sup" horiz-adv-x="381" 
d="M187 347c63 0 107 41 107 130c0 61 -19 126 -100 126c-63 0 -107 -41 -107 -130c0 -61 19 -126 100 -126zM184 299c-100 0 -156 66 -156 170c0 120 67 182 169 182c100 0 156 -66 156 -170c0 -120 -67 -182 -169 -182z" />
    <glyph glyph-name="p.sup" horiz-adv-x="381" 
d="M105 321v-157c0 -5 -3 -8 -26 -8h-2c-23 0 -26 3 -26 8v369c0 42 -1 85 -1 104c0 5 3 8 24 8h4c20 0 25 -2 25 -8c0 -10 0 -21 1 -31c22 29 62 45 102 45c94 0 147 -68 147 -169c0 -113 -71 -183 -160 -183c-32 0 -63 7 -88 22zM294 479c0 87 -38 123 -97 123
c-32 0 -55 -9 -69 -24c-17 -19 -23 -41 -23 -101v-104c20 -16 50 -26 80 -26c54 0 109 35 109 132z" />
    <glyph glyph-name="q.sup" horiz-adv-x="380" 
d="M330 615v-270c0 -67 1 -149 4 -177c1 -6 -6 -8 -26 -8h-4c-20 0 -23 2 -24 8c-3 21 -4 95 -4 176c-20 -28 -63 -45 -107 -45c-69 0 -141 45 -141 167c0 116 72 185 181 185c35 0 69 -5 108 -19c10 -4 13 -8 13 -17zM181 347c30 0 52 9 67 23c22 20 28 47 28 128v96
c-19 7 -44 11 -66 11c-80 0 -123 -54 -123 -134c0 -81 32 -124 94 -124z" />
    <glyph glyph-name="r.sup" horiz-adv-x="238" 
d="M106 386v-73c0 -5 -3 -8 -26 -8h-2c-23 0 -26 3 -26 8v219c0 43 -1 85 -1 105c0 5 2 8 25 8h3c22 0 24 -3 24 -8l2 -67c23 54 62 78 100 78c4 0 10 0 15 -1c7 -1 8 -4 8 -17v-9c0 -18 -1 -23 -8 -23c-36 0 -69 -22 -90 -53c-12 -19 -20 -40 -22 -63c-1 -18 -2 -58 -2 -96
z" />
    <glyph glyph-name="s.sup" horiz-adv-x="305" 
d="M31 330c-5 3 -4 6 2 21l2 4c7 17 12 18 19 14c32 -19 64 -27 93 -27c51 0 79 24 79 57c0 38 -39 46 -84 57c-36 9 -63 16 -81 32c-17 15 -27 37 -27 62c0 63 55 101 124 101c42 0 82 -14 108 -35c5 -4 4 -7 -3 -20l-4 -7c-9 -16 -13 -15 -19 -11c-28 19 -52 28 -83 28
c-39 0 -70 -17 -70 -50c0 -38 37 -45 75 -54c60 -14 115 -33 115 -98c0 -62 -50 -105 -134 -105c-37 0 -77 10 -112 31z" />
    <glyph glyph-name="t.sup" horiz-adv-x="247" 
d="M120 732v-87h92c4 0 5 -4 5 -18v-5c0 -14 -1 -18 -5 -18h-92v-198c0 -29 4 -43 14 -52c8 -7 21 -10 35 -10c17 0 37 3 50 8c5 2 7 1 11 -13l2 -7c4 -14 4 -15 -2 -18c-21 -10 -47 -15 -72 -15c-26 0 -50 7 -66 21c-19 16 -26 43 -26 81v203h-45c-4 0 -5 4 -5 18v5
c0 14 1 18 5 18h45v87c0 5 3 8 26 8h2c23 0 26 -3 26 -8z" />
    <glyph glyph-name="u.sup" horiz-adv-x="394" 
d="M100 637v-176c0 -44 4 -73 21 -91c14 -15 35 -22 65 -22c27 0 55 8 72 25c21 21 28 50 28 112v152c0 5 3 8 26 8h2c23 0 26 -3 26 -8v-209c0 -35 0 -76 2 -115c0 -6 -7 -8 -23 -8h-6c-17 0 -23 2 -23 8l-2 35c-25 -34 -70 -49 -114 -49c-38 0 -72 11 -93 32
c-22 22 -35 56 -35 111v195c0 5 3 8 26 8h2c23 0 26 -3 26 -8z" />
    <glyph glyph-name="v.sup" horiz-adv-x="331" 
d="M201 316c-5 -10 -10 -11 -34 -11h-5c-23 0 -27 3 -31 13l-122 317c-3 8 0 10 21 10h11c19 0 24 -1 27 -8l101 -273c39 87 71 180 94 271c2 8 5 10 23 10h8c19 0 26 -3 24 -11c-25 -97 -73 -229 -117 -318z" />
    <glyph glyph-name="w.sup" horiz-adv-x="529" 
d="M508 635c-30 -134 -63 -228 -99 -320c-3 -8 -10 -10 -31 -10h-9c-21 0 -28 3 -30 9l-44 151c-11 37 -23 80 -33 121c-9 -38 -21 -83 -32 -121l-43 -151c-2 -7 -9 -9 -32 -9h-6c-25 0 -32 2 -34 9l-102 321c-3 8 0 10 21 10h10c19 0 26 -1 28 -8l81 -271l76 270
c2 6 6 9 29 9h11c22 0 25 -3 27 -9l82 -271c34 93 58 176 78 271c1 5 5 9 22 9h7c21 0 24 -4 23 -10z" />
    <glyph glyph-name="x.sup" horiz-adv-x="341" 
d="M202 486l118 -172c3 -5 -1 -9 -25 -9h-6c-24 0 -29 2 -34 10l-86 126l-88 -130c-3 -5 -9 -6 -31 -6h-3c-24 0 -29 4 -25 9l118 168l-103 152c-6 9 -1 11 26 11h5c25 0 28 -2 31 -7l73 -109l71 108c4 7 8 8 30 8h6c26 0 30 -3 25 -11z" />
    <glyph glyph-name="y.sup" horiz-adv-x="342" 
d="M7 207c13 -3 26 -5 38 -5c47 0 79 24 106 98l-138 335c-3 8 0 10 22 10h11c20 0 25 -1 28 -8l64 -160c18 -45 30 -77 42 -114c11 34 24 71 39 110l61 162c3 8 5 10 23 10h8c19 0 27 -3 24 -11l-129 -338c-41 -108 -86 -142 -158 -142c-19 0 -39 4 -55 11c-4 2 -4 6 0 19
l2 7c4 14 6 18 12 16z" />
    <glyph glyph-name="z.sup" horiz-adv-x="304" 
d="M271 602l-178 -252h183c5 0 6 -4 6 -20v-5c0 -16 -1 -20 -6 -20h-246c-5 0 -6 4 -6 17v6c0 10 1 14 5 20l178 252h-168c-5 0 -6 4 -6 20v5c0 16 1 20 6 20h231c5 0 7 -4 7 -18v-4c0 -11 -2 -15 -6 -21z" />
    <glyph glyph-name="ordfeminine" unicode="&#xaa;" horiz-adv-x="425" 
d="M202 666c40 0 77 -16 100 -44l5 32c1 5 4 7 28 7c18 0 24 -1 24 -6c0 -17 -3 -96 -3 -137v-56c0 -41 3 -120 3 -137c0 -5 -6 -6 -24 -6c-24 0 -27 2 -28 7l-6 45c-21 -34 -58 -57 -108 -57c-44 0 -78 16 -101 42c-27 31 -42 77 -42 127c0 96 50 183 152 183zM299 491v84
c-20 28 -50 48 -88 48c-67 0 -102 -53 -102 -136c0 -77 31 -129 98 -129c29 0 51 12 66 31c18 22 26 55 26 102z" />
    <glyph glyph-name="ordmasculine" unicode="&#xba;" horiz-adv-x="425" 
d="M209 362c63 0 107 41 107 130c0 61 -19 127 -100 127c-63 0 -107 -42 -107 -131c0 -61 19 -126 100 -126zM206 314c-100 0 -156 66 -156 170c0 120 67 182 169 182c100 0 156 -66 156 -170c0 -120 -67 -182 -169 -182z" />
    <glyph glyph-name="zero.sup" 
d="M184 757c-60 0 -92 -60 -92 -167c0 -102 30 -155 86 -155c60 0 92 60 92 167c0 102 -30 155 -86 155zM176 392c-86 0 -141 61 -141 195c0 136 56 213 151 213c86 0 141 -61 141 -195c0 -136 -56 -213 -151 -213z" />
    <glyph glyph-name="onesuperior" unicode="&#xb9;" 
d="M287 399h-179c-4 0 -6 3 -6 17v4c0 15 1 18 6 18h64v303l-89 -52c-5 -3 -8 -1 -16 12l-3 5c-8 13 -7 17 -1 21l96 56c10 6 20 10 35 10h18c10 0 15 -1 15 -7v-348h60c5 0 6 -3 6 -18v-4c0 -14 -2 -17 -6 -17z" />
    <glyph glyph-name="twosuperior" unicode="&#xb2;" 
d="M51 744l-4 7c-7 12 -6 15 -1 18c26 17 68 31 115 31c75 0 125 -38 125 -107c0 -56 -23 -95 -89 -164l-83 -87h173c7 0 8 -3 8 -20v-4c0 -17 -2 -19 -8 -19h-234c-6 0 -7 4 -7 16v5c0 12 3 16 8 21l79 85c75 81 99 117 99 163c0 50 -31 68 -78 68c-31 0 -62 -10 -87 -23
c-7 -4 -9 -2 -16 10z" />
    <glyph glyph-name="threesuperior" unicode="&#xb3;" 
d="M47 432l3 8c5 11 7 14 16 11c25 -10 55 -16 81 -16c55 0 97 27 97 75c0 49 -43 75 -113 75h-29c-4 0 -6 2 -6 16v11c0 14 2 15 6 15h27c53 0 100 20 100 69c0 45 -38 62 -82 62c-24 0 -51 -5 -73 -15c-9 -4 -11 -1 -16 10l-3 7c-5 11 -7 14 -1 17c27 14 62 23 97 23
c67 0 133 -30 133 -101c0 -44 -30 -79 -70 -90c41 -6 84 -37 84 -96c0 -82 -73 -121 -153 -121c-33 0 -67 6 -97 19c-7 3 -7 6 -1 21z" />
    <glyph glyph-name="four.sup" 
d="M209 783l-127 -242h133v89c0 7 4 8 24 8h7c19 0 23 -3 23 -8v-89h48c5 0 6 -3 6 -19v-5c0 -15 -2 -18 -6 -18h-48v-92c0 -5 -4 -8 -23 -8h-7c-20 0 -24 1 -24 8v92h-160c-16 0 -21 2 -21 8v27c0 9 3 21 7 29l117 223c3 5 5 7 25 7h4c20 0 26 -3 22 -10z" />
    <glyph glyph-name="five.sup" 
d="M126 750v-106c16 3 31 4 44 4c85 0 134 -47 134 -120c0 -94 -69 -136 -148 -136c-37 0 -70 5 -104 19c-5 2 -5 8 0 21l2 5c6 14 8 15 14 13c29 -10 59 -15 84 -15c61 0 98 30 98 89c0 58 -33 85 -99 85c-23 0 -50 -3 -80 -9v193h213c7 0 8 -3 8 -20v-4
c0 -17 -2 -19 -8 -19h-158z" />
    <glyph glyph-name="six.sup" 
d="M107 578c0 -97 22 -145 79 -145c47 0 73 35 73 86c0 42 -17 87 -73 87c-29 0 -57 -14 -79 -28zM314 524c0 -75 -45 -132 -128 -132c-107 0 -134 84 -134 173c0 135 56 235 168 235c27 0 53 -6 73 -17c5 -3 4 -8 -1 -19l-3 -7c-5 -11 -8 -12 -15 -9c-18 8 -36 11 -54 11
c-63 0 -98 -54 -111 -142c25 18 56 29 89 29c77 0 116 -53 116 -122z" />
    <glyph glyph-name="seven.sup" 
d="M293 733l-147 -327c-2 -5 -4 -7 -24 -7h-5c-20 0 -25 3 -22 10l156 341h-197c-6 0 -8 2 -8 19v4c0 17 1 20 8 20h224c15 0 20 -2 20 -9v-28c0 -9 -3 -18 -5 -23z" />
    <glyph glyph-name="eight.sup" 
d="M231 612c46 -16 86 -49 86 -103c0 -73 -62 -117 -141 -117c-69 0 -130 34 -130 109c0 54 39 91 87 106c-40 14 -71 45 -71 92c0 69 59 101 122 101c62 0 117 -30 117 -94c0 -48 -33 -79 -70 -94zM179 586c-45 -14 -79 -42 -79 -86c0 -42 32 -67 79 -67c49 0 85 27 85 69
c0 46 -44 68 -85 84zM182 634c36 13 66 36 66 70c0 33 -26 56 -68 56c-40 0 -66 -23 -66 -57s29 -55 68 -69z" />
    <glyph glyph-name="nine.sup" 
d="M253 575c-25 -18 -56 -29 -89 -29c-77 0 -116 53 -116 122c0 75 45 132 128 132c107 0 134 -84 134 -173c0 -126 -41 -235 -166 -235c-28 0 -54 5 -75 17c-5 3 -4 8 1 19l3 7c5 11 8 12 15 9c17 -7 34 -11 53 -11c63 0 102 44 112 142zM255 614c0 97 -22 145 -79 145
c-47 0 -73 -35 -73 -86c0 -42 17 -87 73 -87c29 0 57 14 79 28z" />
    <glyph glyph-name="plus.sup" 
d="M202 738v-119h108c4 0 5 -4 5 -17v-6c0 -13 -1 -17 -5 -17h-108v-120c0 -4 -4 -6 -17 -6h-8c-13 0 -18 2 -18 6v120h-108c-4 0 -5 4 -5 17v6c0 13 1 17 5 17h108v119c0 4 5 6 18 6h8c13 0 17 -2 17 -6z" />
    <glyph glyph-name="minus.sup" 
d="M51 619h259c4 0 5 -4 5 -17v-6c0 -13 -1 -17 -5 -17h-259c-4 0 -5 4 -5 17v6c0 13 1 17 5 17z" />
    <glyph glyph-name="equal.sup" 
d="M51 676h259c4 0 5 -4 5 -17v-6c0 -13 -1 -17 -5 -17h-259c-4 0 -5 4 -5 17v6c0 13 1 17 5 17zM51 562h259c4 0 5 -4 5 -17v-6c0 -13 -1 -17 -5 -17h-259c-4 0 -5 4 -5 17v6c0 13 1 17 5 17z" />
    <glyph glyph-name="parenleft.sup" horiz-adv-x="210" 
d="M108 595c0 -80 17 -156 65 -228c4 -6 5 -10 -8 -17l-9 -5c-11 -6 -15 -7 -18 -3c-54 68 -82 154 -82 253s28 185 82 253c3 4 7 3 18 -3l9 -5c13 -7 12 -11 8 -17c-48 -72 -65 -148 -65 -228z" />
    <glyph glyph-name="parenright.sup" horiz-adv-x="210" 
d="M102 595c0 80 -17 156 -65 228c-4 6 -5 10 8 17l9 5c11 6 15 7 18 3c54 -68 82 -154 82 -253s-28 -185 -82 -253c-3 -4 -7 -3 -18 3l-9 5c-13 7 -12 11 -8 17c48 72 65 148 65 228z" />
    <glyph glyph-name="period.sup" horiz-adv-x="138" 
d="M30 431c0 22 18 39 39 39s39 -17 39 -39s-18 -39 -39 -39s-39 17 -39 39z" />
    <glyph glyph-name="comma.sup" horiz-adv-x="142" 
d="M31 311l-7 7c-3 3 -6 10 0 16c17 16 34 35 34 54c0 22 -26 16 -26 49c0 20 17 33 37 33c27 0 43 -20 43 -44c0 -44 -26 -88 -64 -116c-5 -4 -11 -5 -17 1z" />
    <glyph glyph-name="zero.sub" 
d="M184 285c-60 0 -92 -60 -92 -167c0 -102 30 -155 86 -155c60 0 92 60 92 167c0 102 -30 155 -86 155zM176 -80c-86 0 -141 61 -141 195c0 136 56 213 151 213c86 0 141 -61 141 -195c0 -136 -56 -213 -151 -213z" />
    <glyph glyph-name="one.sub" 
d="M287 -73h-179c-4 0 -6 3 -6 17v4c0 15 1 18 6 18h64v303l-89 -52c-5 -3 -8 -1 -16 12l-3 5c-8 13 -7 17 -1 21l96 56c10 6 20 10 35 10h18c10 0 15 -1 15 -7v-348h60c5 0 6 -3 6 -18v-4c0 -14 -2 -17 -6 -17z" />
    <glyph glyph-name="two.sub" 
d="M51 272l-4 7c-7 12 -6 15 -1 18c26 17 68 31 115 31c75 0 125 -38 125 -107c0 -56 -23 -95 -89 -164l-83 -87h173c7 0 8 -3 8 -20v-4c0 -17 -2 -19 -8 -19h-234c-6 0 -7 4 -7 16v5c0 12 3 16 8 21l79 85c75 81 99 117 99 163c0 50 -31 68 -78 68c-31 0 -62 -10 -87 -23
c-7 -4 -9 -2 -16 10z" />
    <glyph glyph-name="three.sub" 
d="M47 -40l3 8c5 11 7 14 16 11c25 -10 55 -16 81 -16c55 0 97 27 97 75c0 49 -43 75 -113 75h-29c-4 0 -6 2 -6 16v11c0 14 2 15 6 15h27c53 0 100 20 100 69c0 45 -38 62 -82 62c-24 0 -51 -5 -73 -15c-9 -4 -11 -1 -16 10l-3 7c-5 11 -7 14 -1 17c27 14 62 23 97 23
c67 0 133 -30 133 -101c0 -44 -30 -79 -70 -90c41 -6 84 -37 84 -96c0 -82 -73 -121 -153 -121c-33 0 -67 6 -97 19c-7 3 -7 6 -1 21z" />
    <glyph glyph-name="four.sub" 
d="M209 311l-127 -242h133v89c0 7 4 8 24 8h7c19 0 23 -3 23 -8v-89h48c5 0 6 -3 6 -19v-5c0 -15 -2 -18 -6 -18h-48v-92c0 -5 -4 -8 -23 -8h-7c-20 0 -24 1 -24 8v92h-160c-16 0 -21 2 -21 8v27c0 9 3 21 7 29l117 223c3 5 5 7 25 7h4c20 0 26 -3 22 -10z" />
    <glyph glyph-name="five.sub" 
d="M126 278v-106c16 3 31 4 44 4c85 0 134 -47 134 -120c0 -94 -69 -136 -148 -136c-37 0 -70 5 -104 19c-5 2 -5 8 0 21l2 5c6 14 8 15 14 13c29 -10 59 -15 84 -15c61 0 98 30 98 89c0 58 -33 85 -99 85c-23 0 -50 -3 -80 -9v193h213c7 0 8 -3 8 -20v-4
c0 -17 -2 -19 -8 -19h-158z" />
    <glyph glyph-name="six.sub" 
d="M107 106c0 -97 22 -145 79 -145c47 0 73 35 73 86c0 42 -17 87 -73 87c-29 0 -57 -14 -79 -28zM314 52c0 -75 -45 -132 -128 -132c-107 0 -134 84 -134 173c0 135 56 235 168 235c27 0 53 -6 73 -17c5 -3 4 -8 -1 -19l-3 -7c-5 -11 -8 -12 -15 -9c-18 8 -36 11 -54 11
c-63 0 -98 -54 -111 -142c25 18 56 29 89 29c77 0 116 -53 116 -122z" />
    <glyph glyph-name="seven.sub" 
d="M293 261l-147 -327c-2 -5 -4 -7 -24 -7h-5c-20 0 -25 3 -22 10l156 341h-197c-6 0 -8 2 -8 19v4c0 17 1 20 8 20h224c15 0 20 -2 20 -9v-28c0 -9 -3 -18 -5 -23z" />
    <glyph glyph-name="eight.sub" 
d="M231 140c46 -16 86 -49 86 -103c0 -73 -62 -117 -141 -117c-69 0 -130 34 -130 109c0 54 39 91 87 106c-40 14 -71 45 -71 92c0 69 59 101 122 101c62 0 117 -30 117 -94c0 -48 -33 -79 -70 -94zM179 114c-45 -14 -79 -42 -79 -86c0 -42 32 -67 79 -67c49 0 85 27 85 69
c0 46 -44 68 -85 84zM182 162c36 13 66 36 66 70c0 33 -26 56 -68 56c-40 0 -66 -23 -66 -57s29 -55 68 -69z" />
    <glyph glyph-name="nine.sub" 
d="M253 103c-25 -18 -56 -29 -89 -29c-77 0 -116 53 -116 122c0 75 45 132 128 132c107 0 134 -84 134 -173c0 -126 -41 -235 -166 -235c-28 0 -54 5 -75 17c-5 3 -4 8 1 19l3 7c5 11 8 12 15 9c17 -7 34 -11 53 -11c63 0 102 44 112 142zM255 142c0 97 -22 145 -79 145
c-47 0 -73 -35 -73 -86c0 -42 17 -87 73 -87c29 0 57 14 79 28z" />
    <glyph glyph-name="plus.sub" 
d="M202 266v-119h108c4 0 5 -4 5 -17v-6c0 -13 -1 -17 -5 -17h-108v-120c0 -4 -4 -6 -17 -6h-8c-13 0 -18 2 -18 6v120h-108c-4 0 -5 4 -5 17v6c0 13 1 17 5 17h108v119c0 4 5 6 18 6h8c13 0 17 -2 17 -6z" />
    <glyph glyph-name="minus.sub" 
d="M51 147h259c4 0 5 -4 5 -17v-6c0 -13 -1 -17 -5 -17h-259c-4 0 -5 4 -5 17v6c0 13 1 17 5 17z" />
    <glyph glyph-name="equal.sub" 
d="M51 204h259c4 0 5 -4 5 -17v-6c0 -13 -1 -17 -5 -17h-259c-4 0 -5 4 -5 17v6c0 13 1 17 5 17zM51 90h259c4 0 5 -4 5 -17v-6c0 -13 -1 -17 -5 -17h-259c-4 0 -5 4 -5 17v6c0 13 1 17 5 17z" />
    <glyph glyph-name="parenleft.sub" horiz-adv-x="210" 
d="M108 123c0 -80 17 -156 65 -228c4 -6 5 -10 -8 -17l-9 -5c-11 -6 -15 -7 -18 -3c-54 68 -82 154 -82 253s28 185 82 253c3 4 7 3 18 -3l9 -5c13 -7 12 -11 8 -17c-48 -72 -65 -148 -65 -228z" />
    <glyph glyph-name="parenright.sub" horiz-adv-x="210" 
d="M102 123c0 80 -17 156 -65 228c-4 6 -5 10 8 17l9 5c11 6 15 7 18 3c54 -68 82 -154 82 -253s-28 -185 -82 -253c-3 -4 -7 -3 -18 3l-9 5c-13 7 -12 11 -8 17c48 72 65 148 65 228z" />
    <glyph glyph-name="period.sub" horiz-adv-x="138" 
d="M30 -41c0 22 18 39 39 39s39 -17 39 -39s-18 -39 -39 -39s-39 17 -39 39z" />
    <glyph glyph-name="comma.sub" horiz-adv-x="142" 
d="M31 -161l-7 7c-3 3 -6 10 0 16c17 16 34 35 34 54c0 22 -26 16 -26 49c0 20 17 33 37 33c27 0 43 -20 43 -44c0 -44 -26 -88 -64 -116c-5 -4 -11 -5 -17 1z" />
    <glyph glyph-name="zero.num" 
d="M184 687c-60 0 -92 -60 -92 -167c0 -102 30 -155 86 -155c60 0 92 60 92 167c0 102 -30 155 -86 155zM176 322c-86 0 -141 61 -141 195c0 136 56 213 151 213c86 0 141 -61 141 -195c0 -136 -56 -213 -151 -213z" />
    <glyph glyph-name="one.num" 
d="M287 329h-179c-4 0 -6 3 -6 17v4c0 15 1 18 6 18h64v303l-89 -52c-5 -3 -8 -1 -16 12l-3 5c-8 13 -7 17 -1 21l96 56c10 6 20 10 35 10h18c10 0 15 -1 15 -7v-348h60c5 0 6 -3 6 -18v-4c0 -14 -2 -17 -6 -17z" />
    <glyph glyph-name="two.num" 
d="M51 674l-4 7c-7 12 -6 15 -1 18c26 17 68 31 115 31c75 0 125 -38 125 -107c0 -56 -23 -95 -89 -164l-83 -87h173c7 0 8 -3 8 -20v-4c0 -17 -2 -19 -8 -19h-234c-6 0 -7 4 -7 16v5c0 12 3 16 8 21l79 85c75 81 99 117 99 163c0 50 -31 68 -78 68c-31 0 -62 -10 -87 -23
c-7 -4 -9 -2 -16 10z" />
    <glyph glyph-name="three.num" 
d="M47 362l3 8c5 11 7 14 16 11c25 -10 55 -16 81 -16c55 0 97 27 97 75c0 49 -43 75 -113 75h-29c-4 0 -6 2 -6 16v11c0 14 2 15 6 15h27c53 0 100 20 100 69c0 45 -38 62 -82 62c-24 0 -51 -5 -73 -15c-9 -4 -11 -1 -16 10l-3 7c-5 11 -7 14 -1 17c27 14 62 23 97 23
c67 0 133 -30 133 -101c0 -44 -30 -79 -70 -90c41 -6 84 -37 84 -96c0 -82 -73 -121 -153 -121c-33 0 -67 6 -97 19c-7 3 -7 6 -1 21z" />
    <glyph glyph-name="four.num" 
d="M209 713l-127 -242h133v89c0 7 4 8 24 8h7c19 0 23 -3 23 -8v-89h48c5 0 6 -3 6 -19v-5c0 -15 -2 -18 -6 -18h-48v-92c0 -5 -4 -8 -23 -8h-7c-20 0 -24 1 -24 8v92h-160c-16 0 -21 2 -21 8v27c0 9 3 21 7 29l117 223c3 5 5 7 25 7h4c20 0 26 -3 22 -10z" />
    <glyph glyph-name="five.num" 
d="M126 680v-106c16 3 31 4 44 4c85 0 134 -47 134 -120c0 -94 -69 -136 -148 -136c-37 0 -70 5 -104 19c-5 2 -5 8 0 21l2 5c6 14 8 15 14 13c29 -10 59 -15 84 -15c61 0 98 30 98 89c0 58 -33 85 -99 85c-23 0 -50 -3 -80 -9v193h213c7 0 8 -3 8 -20v-4
c0 -17 -2 -19 -8 -19h-158z" />
    <glyph glyph-name="six.num" 
d="M107 508c0 -97 22 -145 79 -145c47 0 73 35 73 86c0 42 -17 87 -73 87c-29 0 -57 -14 -79 -28zM314 454c0 -75 -45 -132 -128 -132c-107 0 -134 84 -134 173c0 135 56 235 168 235c27 0 53 -6 73 -17c5 -3 4 -8 -1 -19l-3 -7c-5 -11 -8 -12 -15 -9c-18 8 -36 11 -54 11
c-63 0 -98 -54 -111 -142c25 18 56 29 89 29c77 0 116 -53 116 -122z" />
    <glyph glyph-name="seven.num" 
d="M293 663l-147 -327c-2 -5 -4 -7 -24 -7h-5c-20 0 -25 3 -22 10l156 341h-197c-6 0 -8 2 -8 19v4c0 17 1 20 8 20h224c15 0 20 -2 20 -9v-28c0 -9 -3 -18 -5 -23z" />
    <glyph glyph-name="eight.num" 
d="M231 542c46 -16 86 -49 86 -103c0 -73 -62 -117 -141 -117c-69 0 -130 34 -130 109c0 54 39 91 87 106c-40 14 -71 45 -71 92c0 69 59 101 122 101c62 0 117 -30 117 -94c0 -48 -33 -79 -70 -94zM179 516c-45 -14 -79 -42 -79 -86c0 -42 32 -67 79 -67c49 0 85 27 85 69
c0 46 -44 68 -85 84zM182 564c36 13 66 36 66 70c0 33 -26 56 -68 56c-40 0 -66 -23 -66 -57s29 -55 68 -69z" />
    <glyph glyph-name="nine.num" 
d="M253 505c-25 -18 -56 -29 -89 -29c-77 0 -116 53 -116 122c0 75 45 132 128 132c107 0 134 -84 134 -173c0 -126 -41 -235 -166 -235c-28 0 -54 5 -75 17c-5 3 -4 8 1 19l3 7c5 11 8 12 15 9c17 -7 34 -11 53 -11c63 0 102 44 112 142zM255 544c0 97 -22 145 -79 145
c-47 0 -73 -35 -73 -86c0 -42 17 -87 73 -87c29 0 57 14 79 28z" />
    <glyph glyph-name="plus.num" 
d="M202 668v-119h108c4 0 5 -4 5 -17v-6c0 -13 -1 -17 -5 -17h-108v-120c0 -4 -4 -6 -17 -6h-8c-13 0 -18 2 -18 6v120h-108c-4 0 -5 4 -5 17v6c0 13 1 17 5 17h108v119c0 4 5 6 18 6h8c13 0 17 -2 17 -6z" />
    <glyph glyph-name="minus.num" 
d="M51 549h259c4 0 5 -4 5 -17v-6c0 -13 -1 -17 -5 -17h-259c-4 0 -5 4 -5 17v6c0 13 1 17 5 17z" />
    <glyph glyph-name="equal.num" 
d="M51 606h259c4 0 5 -4 5 -17v-6c0 -13 -1 -17 -5 -17h-259c-4 0 -5 4 -5 17v6c0 13 1 17 5 17zM51 492h259c4 0 5 -4 5 -17v-6c0 -13 -1 -17 -5 -17h-259c-4 0 -5 4 -5 17v6c0 13 1 17 5 17z" />
    <glyph glyph-name="parenleft.num" horiz-adv-x="210" 
d="M108 525c0 -80 17 -156 65 -228c4 -6 5 -10 -8 -17l-9 -5c-11 -6 -15 -7 -18 -3c-54 68 -82 154 -82 253s28 185 82 253c3 4 7 3 18 -3l9 -5c13 -7 12 -11 8 -17c-48 -72 -65 -148 -65 -228z" />
    <glyph glyph-name="parenright.num" horiz-adv-x="210" 
d="M102 525c0 80 -17 156 -65 228c-4 6 -5 10 8 17l9 5c11 6 15 7 18 3c54 -68 82 -154 82 -253s-28 -185 -82 -253c-3 -4 -7 -3 -18 3l-9 5c-13 7 -12 11 -8 17c48 72 65 148 65 228z" />
    <glyph glyph-name="period.num" horiz-adv-x="138" 
d="M30 361c0 22 18 39 39 39s39 -17 39 -39s-18 -39 -39 -39s-39 17 -39 39z" />
    <glyph glyph-name="comma.num" horiz-adv-x="142" 
d="M31 241l-7 7c-3 3 -6 10 0 16c17 16 34 35 34 54c0 22 -26 16 -26 49c0 20 17 33 37 33c27 0 43 -20 43 -44c0 -44 -26 -88 -64 -116c-5 -4 -11 -5 -17 1z" />
    <glyph glyph-name="zero.den" 
d="M184 358c-60 0 -92 -60 -92 -167c0 -102 30 -155 86 -155c60 0 92 60 92 167c0 102 -30 155 -86 155zM176 -7c-86 0 -141 61 -141 195c0 136 56 213 151 213c86 0 141 -61 141 -195c0 -136 -56 -213 -151 -213z" />
    <glyph glyph-name="one.den" 
d="M287 0h-179c-4 0 -6 3 -6 17v4c0 15 1 18 6 18h64v303l-89 -52c-5 -3 -8 -1 -16 12l-3 5c-8 13 -7 17 -1 21l96 56c10 6 20 10 35 10h18c10 0 15 -1 15 -7v-348h60c5 0 6 -3 6 -18v-4c0 -14 -2 -17 -6 -17z" />
    <glyph glyph-name="two.den" 
d="M51 345l-4 7c-7 12 -6 15 -1 18c26 17 68 31 115 31c75 0 125 -38 125 -107c0 -56 -23 -95 -89 -164l-83 -87h173c7 0 8 -3 8 -20v-4c0 -17 -2 -19 -8 -19h-234c-6 0 -7 4 -7 16v5c0 12 3 16 8 21l79 85c75 81 99 117 99 163c0 50 -31 68 -78 68c-31 0 -62 -10 -87 -23
c-7 -4 -9 -2 -16 10z" />
    <glyph glyph-name="three.den" 
d="M47 33l3 8c5 11 7 14 16 11c25 -10 55 -16 81 -16c55 0 97 27 97 75c0 49 -43 75 -113 75h-29c-4 0 -6 2 -6 16v11c0 14 2 15 6 15h27c53 0 100 20 100 69c0 45 -38 62 -82 62c-24 0 -51 -5 -73 -15c-9 -4 -11 -1 -16 10l-3 7c-5 11 -7 14 -1 17c27 14 62 23 97 23
c67 0 133 -30 133 -101c0 -44 -30 -79 -70 -90c41 -6 84 -37 84 -96c0 -82 -73 -121 -153 -121c-33 0 -67 6 -97 19c-7 3 -7 6 -1 21z" />
    <glyph glyph-name="four.den" 
d="M209 384l-127 -242h133v89c0 7 4 8 24 8h7c19 0 23 -3 23 -8v-89h48c5 0 6 -3 6 -19v-5c0 -15 -2 -18 -6 -18h-48v-92c0 -5 -4 -8 -23 -8h-7c-20 0 -24 1 -24 8v92h-160c-16 0 -21 2 -21 8v27c0 9 3 21 7 29l117 223c3 5 5 7 25 7h4c20 0 26 -3 22 -10z" />
    <glyph glyph-name="five.den" 
d="M126 351v-106c16 3 31 4 44 4c85 0 134 -47 134 -120c0 -94 -69 -136 -148 -136c-37 0 -70 5 -104 19c-5 2 -5 8 0 21l2 5c6 14 8 15 14 13c29 -10 59 -15 84 -15c61 0 98 30 98 89c0 58 -33 85 -99 85c-23 0 -50 -3 -80 -9v193h213c7 0 8 -3 8 -20v-4
c0 -17 -2 -19 -8 -19h-158z" />
    <glyph glyph-name="six.den" 
d="M107 179c0 -97 22 -145 79 -145c47 0 73 35 73 86c0 42 -17 87 -73 87c-29 0 -57 -14 -79 -28zM314 125c0 -75 -45 -132 -128 -132c-107 0 -134 84 -134 173c0 135 56 235 168 235c27 0 53 -6 73 -17c5 -3 4 -8 -1 -19l-3 -7c-5 -11 -8 -12 -15 -9c-18 8 -36 11 -54 11
c-63 0 -98 -54 -111 -142c25 18 56 29 89 29c77 0 116 -53 116 -122z" />
    <glyph glyph-name="seven.den" 
d="M293 334l-147 -327c-2 -5 -4 -7 -24 -7h-5c-20 0 -25 3 -22 10l156 341h-197c-6 0 -8 2 -8 19v4c0 17 1 20 8 20h224c15 0 20 -2 20 -9v-28c0 -9 -3 -18 -5 -23z" />
    <glyph glyph-name="eight.den" 
d="M231 213c46 -16 86 -49 86 -103c0 -73 -62 -117 -141 -117c-69 0 -130 34 -130 109c0 54 39 91 87 106c-40 14 -71 45 -71 92c0 69 59 101 122 101c62 0 117 -30 117 -94c0 -48 -33 -79 -70 -94zM179 187c-45 -14 -79 -42 -79 -86c0 -42 32 -67 79 -67c49 0 85 27 85 69
c0 46 -44 68 -85 84zM182 235c36 13 66 36 66 70c0 33 -26 56 -68 56c-40 0 -66 -23 -66 -57s29 -55 68 -69z" />
    <glyph glyph-name="nine.den" 
d="M253 176c-25 -18 -56 -29 -89 -29c-77 0 -116 53 -116 122c0 75 45 132 128 132c107 0 134 -84 134 -173c0 -126 -41 -235 -166 -235c-28 0 -54 5 -75 17c-5 3 -4 8 1 19l3 7c5 11 8 12 15 9c17 -7 34 -11 53 -11c63 0 102 44 112 142zM255 215c0 97 -22 145 -79 145
c-47 0 -73 -35 -73 -86c0 -42 17 -87 73 -87c29 0 57 14 79 28z" />
    <glyph glyph-name="plus.den" 
d="M202 339v-119h108c4 0 5 -4 5 -17v-6c0 -13 -1 -17 -5 -17h-108v-120c0 -4 -4 -6 -17 -6h-8c-13 0 -18 2 -18 6v120h-108c-4 0 -5 4 -5 17v6c0 13 1 17 5 17h108v119c0 4 5 6 18 6h8c13 0 17 -2 17 -6z" />
    <glyph glyph-name="minus.den" 
d="M51 220h259c4 0 5 -4 5 -17v-6c0 -13 -1 -17 -5 -17h-259c-4 0 -5 4 -5 17v6c0 13 1 17 5 17z" />
    <glyph glyph-name="equal.den" 
d="M51 277h259c4 0 5 -4 5 -17v-6c0 -13 -1 -17 -5 -17h-259c-4 0 -5 4 -5 17v6c0 13 1 17 5 17zM51 163h259c4 0 5 -4 5 -17v-6c0 -13 -1 -17 -5 -17h-259c-4 0 -5 4 -5 17v6c0 13 1 17 5 17z" />
    <glyph glyph-name="parenleft.den" horiz-adv-x="210" 
d="M108 196c0 -80 17 -156 65 -228c4 -6 5 -10 -8 -17l-9 -5c-11 -6 -15 -7 -18 -3c-54 68 -82 154 -82 253s28 185 82 253c3 4 7 3 18 -3l9 -5c13 -7 12 -11 8 -17c-48 -72 -65 -148 -65 -228z" />
    <glyph glyph-name="parenright.den" horiz-adv-x="210" 
d="M102 196c0 80 -17 156 -65 228c-4 6 -5 10 8 17l9 5c11 6 15 7 18 3c54 -68 82 -154 82 -253s-28 -185 -82 -253c-3 -4 -7 -3 -18 3l-9 5c-13 7 -12 11 -8 17c48 72 65 148 65 228z" />
    <glyph glyph-name="period.den" horiz-adv-x="138" 
d="M30 32c0 22 18 39 39 39s39 -17 39 -39s-18 -39 -39 -39s-39 17 -39 39z" />
    <glyph glyph-name="comma.den" horiz-adv-x="142" 
d="M31 -88l-7 7c-3 3 -6 10 0 16c17 16 34 35 34 54c0 22 -26 16 -26 49c0 20 17 33 37 33c27 0 43 -20 43 -44c0 -44 -26 -88 -64 -116c-5 -4 -11 -5 -17 1z" />
    <glyph glyph-name="fraction" unicode="&#x2044;" horiz-adv-x="323" 
d="M336 738h7c20 0 23 -3 18 -13l-344 -731c-4 -8 -7 -11 -29 -11h-7c-20 0 -23 3 -18 13l344 731c4 8 7 11 29 11z" />
    <glyph glyph-name="onehalf" unicode="&#xbd;" horiz-adv-x="904" 
d="M309 329h-179c-4 0 -6 3 -6 17v4c0 15 1 18 6 18h64v303l-89 -52c-5 -3 -8 -1 -16 12l-3 5c-8 13 -7 17 -1 21l96 56c10 6 20 10 35 10h18c10 0 15 -1 15 -7v-348h60c5 0 6 -3 6 -18v-4c0 -14 -2 -17 -6 -17zM616 738h7c20 0 23 -3 18 -13l-344 -731
c-4 -8 -7 -11 -29 -11h-7c-20 0 -23 3 -18 13l344 731c4 8 7 11 29 11zM568 345l-4 7c-7 12 -6 15 -1 18c26 17 68 31 115 31c75 0 125 -38 125 -107c0 -56 -23 -95 -89 -164l-83 -87h173c7 0 8 -3 8 -20v-4c0 -17 -2 -19 -8 -19h-234c-6 0 -7 4 -7 16v5c0 12 3 16 8 21
l79 85c75 81 99 117 99 163c0 50 -31 68 -78 68c-31 0 -62 -10 -87 -23c-7 -4 -9 -2 -16 10z" />
    <glyph glyph-name="onequarter" unicode="&#xbc;" horiz-adv-x="904" 
d="M323 329h-179c-4 0 -6 3 -6 17v4c0 15 1 18 6 18h64v303l-89 -52c-5 -3 -8 -1 -16 12l-3 5c-8 13 -7 17 -1 21l96 56c10 6 20 10 35 10h18c10 0 15 -1 15 -7v-348h60c5 0 6 -3 6 -18v-4c0 -14 -2 -17 -6 -17zM638 738h7c20 0 23 -3 18 -13l-344 -731
c-4 -8 -7 -11 -29 -11h-7c-20 0 -23 3 -18 13l344 731c4 8 7 11 29 11zM729 384l-127 -242h133v89c0 7 4 8 24 8h7c19 0 23 -3 23 -8v-89h48c5 0 6 -3 6 -19v-5c0 -15 -2 -18 -6 -18h-48v-92c0 -5 -4 -8 -23 -8h-7c-20 0 -24 1 -24 8v92h-160c-16 0 -21 2 -21 8v27
c0 9 3 21 7 29l117 223c3 5 5 7 25 7h4c20 0 26 -3 22 -10z" />
    <glyph glyph-name="threequarters" unicode="&#xbe;" horiz-adv-x="904" 
d="M616 738h7c20 0 23 -3 18 -13l-344 -731c-4 -8 -7 -11 -29 -11h-7c-20 0 -23 3 -18 13l344 731c4 8 7 11 29 11zM707 384l-127 -242h133v89c0 7 4 8 24 8h7c19 0 23 -3 23 -8v-89h48c5 0 6 -3 6 -19v-5c0 -15 -2 -18 -6 -18h-48v-92c0 -5 -4 -8 -23 -8h-7
c-20 0 -24 1 -24 8v92h-160c-16 0 -21 2 -21 8v27c0 9 3 21 7 29l117 223c3 5 5 7 25 7h4c20 0 26 -3 22 -10zM89 362l3 8c5 11 7 14 16 11c25 -10 55 -16 81 -16c55 0 97 27 97 75c0 49 -43 75 -113 75h-29c-4 0 -6 2 -6 16v11c0 14 2 15 6 15h27c53 0 100 20 100 69
c0 45 -38 62 -82 62c-24 0 -51 -5 -73 -15c-9 -4 -11 -1 -16 10l-3 7c-5 11 -7 14 -1 17c27 14 62 23 97 23c67 0 133 -30 133 -101c0 -44 -30 -79 -70 -90c41 -6 84 -37 84 -96c0 -82 -73 -121 -153 -121c-33 0 -67 6 -97 19c-7 3 -7 6 -1 21z" />
    <glyph glyph-name="onethird" unicode="&#x2153;" horiz-adv-x="904" 
d="M309 329h-179c-4 0 -6 3 -6 17v4c0 15 1 18 6 18h64v303l-89 -52c-5 -3 -8 -1 -16 12l-3 5c-8 13 -7 17 -1 21l96 56c10 6 20 10 35 10h18c10 0 15 -1 15 -7v-348h60c5 0 6 -3 6 -18v-4c0 -14 -2 -17 -6 -17zM616 738h7c20 0 23 -3 18 -13l-344 -731
c-4 -8 -7 -11 -29 -11h-7c-20 0 -23 3 -18 13l344 731c4 8 7 11 29 11zM583 33l3 8c5 11 7 14 16 11c25 -10 55 -16 81 -16c55 0 97 27 97 75c0 49 -43 75 -113 75h-29c-4 0 -6 2 -6 16v11c0 14 2 15 6 15h27c53 0 100 20 100 69c0 45 -38 62 -82 62c-24 0 -51 -5 -73 -15
c-9 -4 -11 -1 -16 10l-3 7c-5 11 -7 14 -1 17c27 14 62 23 97 23c67 0 133 -30 133 -101c0 -44 -30 -79 -70 -90c41 -6 84 -37 84 -96c0 -82 -73 -121 -153 -121c-33 0 -67 6 -97 19c-7 3 -7 6 -1 21z" />
    <glyph glyph-name="twothirds" unicode="&#x2154;" horiz-adv-x="904" 
d="M616 738h7c20 0 23 -3 18 -13l-344 -731c-4 -8 -7 -11 -29 -11h-7c-20 0 -23 3 -18 13l344 731c4 8 7 11 29 11zM583 33l3 8c5 11 7 14 16 11c25 -10 55 -16 81 -16c55 0 97 27 97 75c0 49 -43 75 -113 75h-29c-4 0 -6 2 -6 16v11c0 14 2 15 6 15h27c53 0 100 20 100 69
c0 45 -38 62 -82 62c-24 0 -51 -5 -73 -15c-9 -4 -11 -1 -16 10l-3 7c-5 11 -7 14 -1 17c27 14 62 23 97 23c67 0 133 -30 133 -101c0 -44 -30 -79 -70 -90c41 -6 84 -37 84 -96c0 -82 -73 -121 -153 -121c-33 0 -67 6 -97 19c-7 3 -7 6 -1 21zM51 674l-4 7
c-7 12 -6 15 -1 18c26 17 68 31 115 31c75 0 125 -38 125 -107c0 -56 -23 -95 -89 -164l-83 -87h173c7 0 8 -3 8 -20v-4c0 -17 -2 -19 -8 -19h-234c-6 0 -7 4 -7 16v5c0 12 3 16 8 21l79 85c75 81 99 117 99 163c0 50 -31 68 -78 68c-31 0 -62 -10 -87 -23
c-7 -4 -9 -2 -16 10z" />
    <glyph glyph-name="uni2155" unicode="&#x2155;" horiz-adv-x="904" 
d="M309 329h-179c-4 0 -6 3 -6 17v4c0 15 1 18 6 18h64v303l-89 -52c-5 -3 -8 -1 -16 12l-3 5c-8 13 -7 17 -1 21l96 56c10 6 20 10 35 10h18c10 0 15 -1 15 -7v-348h60c5 0 6 -3 6 -18v-4c0 -14 -2 -17 -6 -17zM616 738h7c20 0 23 -3 18 -13l-344 -731
c-4 -8 -7 -11 -29 -11h-7c-20 0 -23 3 -18 13l344 731c4 8 7 11 29 11zM656 351v-106c16 3 31 4 44 4c85 0 134 -47 134 -120c0 -94 -69 -136 -148 -136c-37 0 -70 5 -104 19c-5 2 -5 8 0 21l2 5c6 14 8 15 14 13c29 -10 59 -15 84 -15c61 0 98 30 98 89c0 58 -33 85 -99 85
c-23 0 -50 -3 -80 -9v193h213c7 0 8 -3 8 -20v-4c0 -17 -2 -19 -8 -19h-158z" />
    <glyph glyph-name="uni2156" unicode="&#x2156;" horiz-adv-x="904" 
d="M656 351v-106c16 3 31 4 44 4c85 0 134 -47 134 -120c0 -94 -69 -136 -148 -136c-37 0 -70 5 -104 19c-5 2 -5 8 0 21l2 5c6 14 8 15 14 13c29 -10 59 -15 84 -15c61 0 98 30 98 89c0 58 -33 85 -99 85c-23 0 -50 -3 -80 -9v193h213c7 0 8 -3 8 -20v-4
c0 -17 -2 -19 -8 -19h-158zM616 738h7c20 0 23 -3 18 -13l-344 -731c-4 -8 -7 -11 -29 -11h-7c-20 0 -23 3 -18 13l344 731c4 8 7 11 29 11zM51 674l-4 7c-7 12 -6 15 -1 18c26 17 68 31 115 31c75 0 125 -38 125 -107c0 -56 -23 -95 -89 -164l-83 -87h173c7 0 8 -3 8 -20
v-4c0 -17 -2 -19 -8 -19h-234c-6 0 -7 4 -7 16v5c0 12 3 16 8 21l79 85c75 81 99 117 99 163c0 50 -31 68 -78 68c-31 0 -62 -10 -87 -23c-7 -4 -9 -2 -16 10z" />
    <glyph glyph-name="uni2157" unicode="&#x2157;" horiz-adv-x="904" 
d="M656 351v-106c16 3 31 4 44 4c85 0 134 -47 134 -120c0 -94 -69 -136 -148 -136c-37 0 -70 5 -104 19c-5 2 -5 8 0 21l2 5c6 14 8 15 14 13c29 -10 59 -15 84 -15c61 0 98 30 98 89c0 58 -33 85 -99 85c-23 0 -50 -3 -80 -9v193h213c7 0 8 -3 8 -20v-4
c0 -17 -2 -19 -8 -19h-158zM616 738h7c20 0 23 -3 18 -13l-344 -731c-4 -8 -7 -11 -29 -11h-7c-20 0 -23 3 -18 13l344 731c4 8 7 11 29 11zM89 362l3 8c5 11 7 14 16 11c25 -10 55 -16 81 -16c55 0 97 27 97 75c0 49 -43 75 -113 75h-29c-4 0 -6 2 -6 16v11c0 14 2 15 6 15
h27c53 0 100 20 100 69c0 45 -38 62 -82 62c-24 0 -51 -5 -73 -15c-9 -4 -11 -1 -16 10l-3 7c-5 11 -7 14 -1 17c27 14 62 23 97 23c67 0 133 -30 133 -101c0 -44 -30 -79 -70 -90c41 -6 84 -37 84 -96c0 -82 -73 -121 -153 -121c-33 0 -67 6 -97 19c-7 3 -7 6 -1 21z" />
    <glyph glyph-name="uni2158" unicode="&#x2158;" horiz-adv-x="904" 
d="M656 351v-106c16 3 31 4 44 4c85 0 134 -47 134 -120c0 -94 -69 -136 -148 -136c-37 0 -70 5 -104 19c-5 2 -5 8 0 21l2 5c6 14 8 15 14 13c29 -10 59 -15 84 -15c61 0 98 30 98 89c0 58 -33 85 -99 85c-23 0 -50 -3 -80 -9v193h213c7 0 8 -3 8 -20v-4
c0 -17 -2 -19 -8 -19h-158zM616 738h7c20 0 23 -3 18 -13l-344 -731c-4 -8 -7 -11 -29 -11h-7c-20 0 -23 3 -18 13l344 731c4 8 7 11 29 11zM249 713l-127 -242h133v89c0 7 4 8 24 8h7c19 0 23 -3 23 -8v-89h48c5 0 6 -3 6 -19v-5c0 -15 -2 -18 -6 -18h-48v-92
c0 -5 -4 -8 -23 -8h-7c-20 0 -24 1 -24 8v92h-160c-16 0 -21 2 -21 8v27c0 9 3 21 7 29l117 223c3 5 5 7 25 7h4c20 0 26 -3 22 -10z" />
    <glyph glyph-name="uni2159" unicode="&#x2159;" horiz-adv-x="904" 
d="M309 329h-179c-4 0 -6 3 -6 17v4c0 15 1 18 6 18h64v303l-89 -52c-5 -3 -8 -1 -16 12l-3 5c-8 13 -7 17 -1 21l96 56c10 6 20 10 35 10h18c10 0 15 -1 15 -7v-348h60c5 0 6 -3 6 -18v-4c0 -14 -2 -17 -6 -17zM616 738h7c20 0 23 -3 18 -13l-344 -731
c-4 -8 -7 -11 -29 -11h-7c-20 0 -23 3 -18 13l344 731c4 8 7 11 29 11zM621 179c0 -97 22 -145 79 -145c47 0 73 35 73 86c0 42 -17 87 -73 87c-29 0 -57 -14 -79 -28zM828 125c0 -75 -45 -132 -128 -132c-107 0 -134 84 -134 173c0 135 56 235 168 235c27 0 53 -6 73 -17
c5 -3 4 -8 -1 -19l-3 -7c-5 -11 -8 -12 -15 -9c-18 8 -36 11 -54 11c-63 0 -98 -54 -111 -142c25 18 56 29 89 29c77 0 116 -53 116 -122z" />
    <glyph glyph-name="uni215A" unicode="&#x215a;" horiz-adv-x="904" 
d="M616 738h7c20 0 23 -3 18 -13l-344 -731c-4 -8 -7 -11 -29 -11h-7c-20 0 -23 3 -18 13l344 731c4 8 7 11 29 11zM621 179c0 -97 22 -145 79 -145c47 0 73 35 73 86c0 42 -17 87 -73 87c-29 0 -57 -14 -79 -28zM828 125c0 -75 -45 -132 -128 -132c-107 0 -134 84 -134 173
c0 135 56 235 168 235c27 0 53 -6 73 -17c5 -3 4 -8 -1 -19l-3 -7c-5 -11 -8 -12 -15 -9c-18 8 -36 11 -54 11c-63 0 -98 -54 -111 -142c25 18 56 29 89 29c77 0 116 -53 116 -122zM166 680v-106c16 3 31 4 44 4c85 0 134 -47 134 -120c0 -94 -69 -136 -148 -136
c-37 0 -70 5 -104 19c-5 2 -5 8 0 21l2 5c6 14 8 15 14 13c29 -10 59 -15 84 -15c61 0 98 30 98 89c0 58 -33 85 -99 85c-23 0 -50 -3 -80 -9v193h213c7 0 8 -3 8 -20v-4c0 -17 -2 -19 -8 -19h-158z" />
    <glyph glyph-name="oneeighth" unicode="&#x215b;" horiz-adv-x="904" 
d="M309 329h-179c-4 0 -6 3 -6 17v4c0 15 1 18 6 18h64v303l-89 -52c-5 -3 -8 -1 -16 12l-3 5c-8 13 -7 17 -1 21l96 56c10 6 20 10 35 10h18c10 0 15 -1 15 -7v-348h60c5 0 6 -3 6 -18v-4c0 -14 -2 -17 -6 -17zM616 738h7c20 0 23 -3 18 -13l-344 -731
c-4 -8 -7 -11 -29 -11h-7c-20 0 -23 3 -18 13l344 731c4 8 7 11 29 11zM734 213c46 -16 86 -49 86 -103c0 -73 -62 -117 -141 -117c-69 0 -130 34 -130 109c0 54 39 91 87 106c-40 14 -71 45 -71 92c0 69 59 101 122 101c62 0 117 -30 117 -94c0 -48 -33 -79 -70 -94z
M682 187c-45 -14 -79 -42 -79 -86c0 -42 32 -67 79 -67c49 0 85 27 85 69c0 46 -44 68 -85 84zM685 235c36 13 66 36 66 70c0 33 -26 56 -68 56c-40 0 -66 -23 -66 -57s29 -55 68 -69z" />
    <glyph glyph-name="threeeighths" unicode="&#x215c;" horiz-adv-x="904" 
d="M89 362l3 8c5 11 7 14 16 11c25 -10 55 -16 81 -16c55 0 97 27 97 75c0 49 -43 75 -113 75h-29c-4 0 -6 2 -6 16v11c0 14 2 15 6 15h27c53 0 100 20 100 69c0 45 -38 62 -82 62c-24 0 -51 -5 -73 -15c-9 -4 -11 -1 -16 10l-3 7c-5 11 -7 14 -1 17c27 14 62 23 97 23
c67 0 133 -30 133 -101c0 -44 -30 -79 -70 -90c41 -6 84 -37 84 -96c0 -82 -73 -121 -153 -121c-33 0 -67 6 -97 19c-7 3 -7 6 -1 21zM616 738h7c20 0 23 -3 18 -13l-344 -731c-4 -8 -7 -11 -29 -11h-7c-20 0 -23 3 -18 13l344 731c4 8 7 11 29 11zM734 213
c46 -16 86 -49 86 -103c0 -73 -62 -117 -141 -117c-69 0 -130 34 -130 109c0 54 39 91 87 106c-40 14 -71 45 -71 92c0 69 59 101 122 101c62 0 117 -30 117 -94c0 -48 -33 -79 -70 -94zM682 187c-45 -14 -79 -42 -79 -86c0 -42 32 -67 79 -67c49 0 85 27 85 69
c0 46 -44 68 -85 84zM685 235c36 13 66 36 66 70c0 33 -26 56 -68 56c-40 0 -66 -23 -66 -57s29 -55 68 -69z" />
    <glyph glyph-name="fiveeighths" unicode="&#x215d;" horiz-adv-x="904" 
d="M166 680v-106c16 3 31 4 44 4c85 0 134 -47 134 -120c0 -94 -69 -136 -148 -136c-37 0 -70 5 -104 19c-5 2 -5 8 0 21l2 5c6 14 8 15 14 13c29 -10 59 -15 84 -15c61 0 98 30 98 89c0 58 -33 85 -99 85c-23 0 -50 -3 -80 -9v193h213c7 0 8 -3 8 -20v-4
c0 -17 -2 -19 -8 -19h-158zM616 738h7c20 0 23 -3 18 -13l-344 -731c-4 -8 -7 -11 -29 -11h-7c-20 0 -23 3 -18 13l344 731c4 8 7 11 29 11zM734 213c46 -16 86 -49 86 -103c0 -73 -62 -117 -141 -117c-69 0 -130 34 -130 109c0 54 39 91 87 106c-40 14 -71 45 -71 92
c0 69 59 101 122 101c62 0 117 -30 117 -94c0 -48 -33 -79 -70 -94zM682 187c-45 -14 -79 -42 -79 -86c0 -42 32 -67 79 -67c49 0 85 27 85 69c0 46 -44 68 -85 84zM685 235c36 13 66 36 66 70c0 33 -26 56 -68 56c-40 0 -66 -23 -66 -57s29 -55 68 -69z" />
    <glyph glyph-name="seveneighths" unicode="&#x215e;" horiz-adv-x="904" 
d="M353 663l-147 -327c-2 -5 -4 -7 -24 -7h-5c-20 0 -25 3 -22 10l156 341h-197c-6 0 -8 2 -8 19v4c0 17 1 20 8 20h224c15 0 20 -2 20 -9v-28c0 -9 -3 -18 -5 -23zM586 738h7c20 0 23 -3 18 -13l-344 -731c-4 -8 -7 -11 -29 -11h-7c-20 0 -23 3 -18 13l344 731
c4 8 7 11 29 11zM704 213c46 -16 86 -49 86 -103c0 -73 -62 -117 -141 -117c-69 0 -130 34 -130 109c0 54 39 91 87 106c-40 14 -71 45 -71 92c0 69 59 101 122 101c62 0 117 -30 117 -94c0 -48 -33 -79 -70 -94zM652 187c-45 -14 -79 -42 -79 -86c0 -42 32 -67 79 -67
c49 0 85 27 85 69c0 46 -44 68 -85 84zM655 235c36 13 66 36 66 70c0 33 -26 56 -68 56c-40 0 -66 -23 -66 -57s29 -55 68 -69z" />
    <glyph glyph-name="Agrave" unicode="&#xc0;" horiz-adv-x="626" 
d="M524 10l-61 184h-308l-61 -184c-3 -8 -12 -10 -35 -10h-5c-28 0 -31 4 -29 11l242 696c4 11 13 13 43 13h2c30 0 39 -2 43 -13l246 -696c2 -7 -1 -11 -30 -11h-10c-27 0 -34 2 -37 10zM310 657l-137 -407h272zM265 913h15c27 0 32 -3 36 -10l67 -118c3 -5 -4 -7 -20 -7
h-4c-19 0 -23 1 -27 6l-88 119c-5 7 -2 10 21 10z" />
    <glyph glyph-name="Aacute" unicode="&#xc1;" horiz-adv-x="626" 
d="M524 10l-61 184h-308l-61 -184c-3 -8 -12 -10 -35 -10h-5c-28 0 -31 4 -29 11l242 696c4 11 13 13 43 13h2c30 0 39 -2 43 -13l246 -696c2 -7 -1 -11 -30 -11h-10c-27 0 -34 2 -37 10zM310 657l-137 -407h272zM345 913h15c23 0 26 -3 21 -10l-88 -119c-4 -5 -8 -6 -27 -6
h-4c-16 0 -23 2 -20 7l67 118c4 7 9 10 36 10z" />
    <glyph glyph-name="Acircumflex" unicode="&#xc2;" horiz-adv-x="626" 
d="M524 10l-61 184h-308l-61 -184c-3 -8 -12 -10 -35 -10h-5c-28 0 -31 4 -29 11l242 696c4 11 13 13 43 13h2c30 0 39 -2 43 -13l246 -696c2 -7 -1 -11 -30 -11h-10c-27 0 -34 2 -37 10zM310 657l-137 -407h272zM300 921h26c20 0 27 -3 34 -10l94 -100c4 -4 3 -8 -4 -16
l-5 -6c-7 -8 -11 -10 -16 -6l-116 97l-116 -97c-5 -4 -9 -2 -16 6l-5 6c-7 8 -8 12 -4 16l94 100c7 7 14 10 34 10z" />
    <glyph glyph-name="Atilde" unicode="&#xc3;" horiz-adv-x="626" 
d="M524 10l-61 184h-308l-61 -184c-3 -8 -12 -10 -35 -10h-5c-28 0 -31 4 -29 11l242 696c4 11 13 13 43 13h2c30 0 39 -2 43 -13l246 -696c2 -7 -1 -11 -30 -11h-10c-27 0 -34 2 -37 10zM310 657l-137 -407h272zM463 857c-18 -23 -54 -44 -88 -44c-55 0 -83 38 -128 38
c-21 0 -36 -9 -58 -30c-4 -3 -8 -2 -16 8l-8 10c-5 7 -6 11 -2 16c18 23 54 44 88 44c55 0 83 -38 128 -38c21 0 36 9 58 30c4 3 8 2 16 -8l8 -10c5 -7 6 -11 2 -16z" />
    <glyph glyph-name="Adieresis" unicode="&#xc4;" horiz-adv-x="626" 
d="M524 10l-61 184h-308l-61 -184c-3 -8 -12 -10 -35 -10h-5c-28 0 -31 4 -29 11l242 696c4 11 13 13 43 13h2c30 0 39 -2 43 -13l246 -696c2 -7 -1 -11 -30 -11h-10c-27 0 -34 2 -37 10zM310 657l-137 -407h272zM162 846c0 26 21 48 47 48s48 -22 48 -48s-22 -47 -48 -47
s-47 21 -47 47zM364 846c0 26 21 48 47 48s48 -22 48 -48s-22 -47 -48 -47s-47 21 -47 47z" />
    <glyph glyph-name="Amacron" unicode="&#x100;" horiz-adv-x="626" 
d="M524 10l-61 184h-308l-61 -184c-3 -8 -12 -10 -35 -10h-5c-28 0 -31 4 -29 11l242 696c4 11 13 13 43 13h2c30 0 39 -2 43 -13l246 -696c2 -7 -1 -11 -30 -11h-10c-27 0 -34 2 -37 10zM310 657l-137 -407h272zM182 874h262c7 0 8 -4 8 -23v-3c0 -18 -1 -25 -8 -25h-262
c-7 0 -8 7 -8 25v3c0 19 1 23 8 23z" />
    <glyph glyph-name="Abreve" unicode="&#x102;" horiz-adv-x="626" 
d="M524 10l-61 184h-308l-61 -184c-3 -8 -12 -10 -35 -10h-5c-28 0 -31 4 -29 11l242 696c4 11 13 13 43 13h2c30 0 39 -2 43 -13l246 -696c2 -7 -1 -11 -30 -11h-10c-27 0 -34 2 -37 10zM310 657l-137 -407h272zM313 795c-76 0 -136 42 -136 111c0 4 1 6 19 6h12
c17 0 18 -1 19 -10c5 -42 35 -66 86 -66s81 24 86 66c1 9 2 10 19 10h12c18 0 19 -2 19 -6c0 -69 -60 -111 -136 -111z" />
    <glyph glyph-name="Acaron" unicode="&#x1cd;" horiz-adv-x="626" 
d="M524 10l-61 184h-308l-61 -184c-3 -8 -12 -10 -35 -10h-5c-28 0 -31 4 -29 11l242 696c4 11 13 13 43 13h2c30 0 39 -2 43 -13l246 -696c2 -7 -1 -11 -30 -11h-10c-27 0 -34 2 -37 10zM310 657l-137 -407h272zM263 798l-94 100c-4 5 -4 7 4 16l5 6c8 9 11 10 16 6
l116 -97l116 97c5 4 8 3 16 -6l5 -6c8 -9 8 -11 4 -16l-94 -100c-7 -7 -14 -10 -34 -10h-26c-20 0 -27 3 -34 10z" />
    <glyph glyph-name="Aring" unicode="&#xc5;" horiz-adv-x="626" 
d="M219 782c0 50 43 90 94 90s94 -39 94 -90c0 -36 -21 -65 -51 -80l245 -691c2 -7 -1 -11 -30 -11h-10c-27 0 -34 2 -37 10l-61 184h-308l-61 -184c-3 -8 -12 -10 -35 -10h-5c-28 0 -31 4 -29 11l241 693c-28 15 -47 44 -47 78zM310 657l-137 -407h272zM262 782
c0 -31 23 -51 51 -51c30 0 49 23 49 51s-19 51 -49 51c-28 0 -51 -20 -51 -51z" />
    <glyph glyph-name="Aringacute" unicode="&#x1fa;" horiz-adv-x="626" 
d="M219 782c0 50 43 90 94 90s94 -39 94 -90c0 -36 -21 -65 -51 -80l245 -691c2 -7 -1 -11 -30 -11h-10c-27 0 -34 2 -37 10l-61 184h-308l-61 -184c-3 -8 -12 -10 -35 -10h-5c-28 0 -31 4 -29 11l241 693c-28 15 -47 44 -47 78zM310 657l-137 -407h272zM262 782
c0 -31 23 -51 51 -51c30 0 49 23 49 51s-19 51 -49 51c-28 0 -51 -20 -51 -51zM345 1033h15c23 0 26 -3 21 -10l-88 -119c-4 -5 -8 -6 -27 -6h-4c-16 0 -23 2 -20 7l67 118c4 7 9 10 36 10z" />
    <glyph glyph-name="Aogonek" unicode="&#x104;" horiz-adv-x="626" 
d="M599 -213c-22 -10 -47 -16 -73 -16c-54 0 -100 37 -100 94s36 110 98 144l-61 185h-308l-61 -184c-3 -8 -12 -10 -35 -10h-5c-28 0 -31 4 -29 11l242 696c4 11 13 13 43 13h2c30 0 39 -2 43 -13l246 -696c2 -6 0 -9 -7 -10c-35 -7 -70 -30 -90 -62
c-14 -22 -21 -46 -21 -67c0 -37 22 -57 58 -57c17 0 34 5 49 9c4 1 7 -1 10 -14l1 -5c2 -12 2 -16 -2 -18zM310 657l-137 -407h272z" />
    <glyph glyph-name="AE" unicode="&#xc6;" horiz-adv-x="895" 
d="M10 11l400 698c5 8 7 11 33 11h386c7 0 9 -5 9 -26v-4c0 -22 -2 -27 -9 -27h-317v-270h269c7 0 9 -5 9 -26v-4c0 -22 -2 -27 -9 -27h-269v-279h321c7 0 9 -5 9 -26v-4c0 -22 -2 -27 -9 -27h-390v199h-255l-107 -189c-4 -7 -13 -10 -36 -10h-6c-30 0 -33 5 -29 11z
M220 256h223v392z" />
    <glyph glyph-name="AEacute" unicode="&#x1fc;" horiz-adv-x="895" 
d="M10 11l400 698c5 8 7 11 33 11h386c7 0 9 -5 9 -26v-4c0 -22 -2 -27 -9 -27h-317v-270h269c7 0 9 -5 9 -26v-4c0 -22 -2 -27 -9 -27h-269v-279h321c7 0 9 -5 9 -26v-4c0 -22 -2 -27 -9 -27h-390v199h-255l-107 -189c-4 -7 -13 -10 -36 -10h-6c-30 0 -33 5 -29 11z
M220 256h223v392zM666 913h15c23 0 26 -3 21 -10l-88 -119c-4 -5 -8 -6 -27 -6h-4c-16 0 -23 2 -20 7l67 118c4 7 9 10 36 10z" />
    <glyph glyph-name="Cacute" unicode="&#x106;" horiz-adv-x="564" 
d="M355 671c-158 0 -235 -124 -235 -315c0 -194 76 -307 233 -307c49 0 100 12 142 33c8 4 12 -1 18 -15l4 -10c7 -16 7 -22 -1 -26c-51 -27 -114 -41 -180 -41c-184 0 -288 144 -288 360c0 254 131 380 303 380c60 0 122 -17 168 -46c6 -4 6 -8 -2 -24l-5 -11
c-8 -16 -11 -17 -18 -14c-52 24 -93 36 -139 36zM384 913h15c23 0 26 -3 21 -10l-88 -119c-4 -5 -8 -6 -27 -6h-4c-16 0 -23 2 -20 7l67 118c4 7 9 10 36 10z" />
    <glyph glyph-name="Ccedilla" unicode="&#xc7;" horiz-adv-x="564" 
d="M288 -109l13 101c-162 17 -253 156 -253 358c0 254 131 380 303 380c60 0 122 -17 168 -46c6 -4 6 -8 -2 -24l-5 -11c-8 -16 -11 -17 -18 -14c-52 24 -93 36 -139 36c-158 0 -235 -124 -235 -315c0 -194 76 -307 233 -307c49 0 100 12 142 33c8 4 12 -1 18 -15l4 -10
c7 -16 7 -22 -1 -26c-48 -26 -106 -39 -168 -41l-7 -57c9 1 18 2 27 2c53 0 90 -31 90 -78s-33 -90 -110 -90c-28 0 -59 6 -72 12c-4 2 -4 6 -2 18l1 5c3 13 5 15 10 14c18 -4 38 -7 55 -7c38 0 62 13 62 44c0 30 -24 43 -61 43c-14 0 -39 -2 -53 -5z" />
    <glyph glyph-name="Ccircumflex" unicode="&#x108;" horiz-adv-x="564" 
d="M355 671c-158 0 -235 -124 -235 -315c0 -194 76 -307 233 -307c49 0 100 12 142 33c8 4 12 -1 18 -15l4 -10c7 -16 7 -22 -1 -26c-51 -27 -114 -41 -180 -41c-184 0 -288 144 -288 360c0 254 131 380 303 380c60 0 122 -17 168 -46c6 -4 6 -8 -2 -24l-5 -11
c-8 -16 -11 -17 -18 -14c-52 24 -93 36 -139 36zM339 921h26c20 0 27 -3 34 -10l94 -100c4 -4 3 -8 -4 -16l-5 -6c-7 -8 -11 -10 -16 -6l-116 97l-116 -97c-5 -4 -9 -2 -16 6l-5 6c-7 8 -8 12 -4 16l94 100c7 7 14 10 34 10z" />
    <glyph glyph-name="Ccaron" unicode="&#x10c;" horiz-adv-x="564" 
d="M355 671c-158 0 -235 -124 -235 -315c0 -194 76 -307 233 -307c49 0 100 12 142 33c8 4 12 -1 18 -15l4 -10c7 -16 7 -22 -1 -26c-51 -27 -114 -41 -180 -41c-184 0 -288 144 -288 360c0 254 131 380 303 380c60 0 122 -17 168 -46c6 -4 6 -8 -2 -24l-5 -11
c-8 -16 -11 -17 -18 -14c-52 24 -93 36 -139 36zM305 798l-94 100c-4 5 -4 7 4 16l5 6c8 9 11 10 16 6l116 -97l116 97c5 4 8 3 16 -6l5 -6c8 -9 8 -11 4 -16l-94 -100c-7 -7 -14 -10 -34 -10h-26c-20 0 -27 3 -34 10z" />
    <glyph glyph-name="Cdotaccent" unicode="&#x10a;" horiz-adv-x="564" 
d="M355 671c-158 0 -235 -124 -235 -315c0 -194 76 -307 233 -307c49 0 100 12 142 33c8 4 12 -1 18 -15l4 -10c7 -16 7 -22 -1 -26c-51 -27 -114 -41 -180 -41c-184 0 -288 144 -288 360c0 254 131 380 303 380c60 0 122 -17 168 -46c6 -4 6 -8 -2 -24l-5 -11
c-8 -16 -11 -17 -18 -14c-52 24 -93 36 -139 36zM302 840c0 26 20 47 46 47s47 -21 47 -47s-21 -46 -47 -46s-46 20 -46 46z" />
    <glyph glyph-name="Dcaron" unicode="&#x10e;" horiz-adv-x="646" 
d="M82 720h162c131 0 210 -31 270 -94c56 -59 85 -147 85 -263c0 -122 -32 -214 -93 -275c-58 -58 -141 -88 -261 -88h-163v720zM151 664v-608h88c101 0 167 24 212 68c53 52 76 133 76 237c0 102 -24 181 -75 233c-46 47 -105 70 -215 70h-86zM274 798l-94 100
c-4 5 -4 7 4 16l5 6c8 9 11 10 16 6l116 -97l116 97c5 4 8 3 16 -6l5 -6c8 -9 8 -11 4 -16l-94 -100c-7 -7 -14 -10 -34 -10h-26c-20 0 -27 3 -34 10z" />
    <glyph glyph-name="Dcroat" unicode="&#x110;" horiz-adv-x="652" 
d="M88 720h162c131 0 210 -31 270 -94c56 -59 85 -147 85 -263c0 -122 -32 -214 -93 -275c-58 -58 -141 -88 -261 -88h-163v339h-58c-7 0 -8 7 -8 25v3c0 19 1 23 8 23h58v330zM157 339v-283h88c101 0 167 24 212 68c53 52 76 133 76 237c0 102 -24 181 -75 233
c-46 47 -105 70 -215 70h-86v-274h169c7 0 8 -4 8 -23v-3c0 -18 -1 -25 -8 -25h-169z" />
    <glyph glyph-name="Eth" unicode="&#xd0;" horiz-adv-x="652" 
d="M88 720h162c131 0 210 -31 270 -94c56 -59 85 -147 85 -263c0 -122 -32 -214 -93 -275c-58 -58 -141 -88 -261 -88h-163v339h-58c-7 0 -8 7 -8 25v3c0 19 1 23 8 23h58v330zM157 339v-283h88c101 0 167 24 212 68c53 52 76 133 76 237c0 102 -24 181 -75 233
c-46 47 -105 70 -215 70h-86v-274h169c7 0 8 -4 8 -23v-3c0 -18 -1 -25 -8 -25h-169z" />
    <glyph glyph-name="Egrave" unicode="&#xc8;" horiz-adv-x="534" 
d="M472 0h-390v720h386c7 0 9 -5 9 -26v-4c0 -22 -2 -27 -9 -27h-317v-270h269c7 0 9 -5 9 -26v-4c0 -22 -2 -27 -9 -27h-269v-279h321c7 0 9 -5 9 -26v-4c0 -22 -2 -27 -9 -27zM219 913h15c27 0 32 -3 36 -10l67 -118c3 -5 -4 -7 -20 -7h-4c-19 0 -23 1 -27 6l-88 119
c-5 7 -2 10 21 10z" />
    <glyph glyph-name="Eacute" unicode="&#xc9;" horiz-adv-x="534" 
d="M472 0h-390v720h386c7 0 9 -5 9 -26v-4c0 -22 -2 -27 -9 -27h-317v-270h269c7 0 9 -5 9 -26v-4c0 -22 -2 -27 -9 -27h-269v-279h321c7 0 9 -5 9 -26v-4c0 -22 -2 -27 -9 -27zM339 913h15c23 0 26 -3 21 -10l-88 -119c-4 -5 -8 -6 -27 -6h-4c-16 0 -23 2 -20 7l67 118
c4 7 9 10 36 10z" />
    <glyph glyph-name="Ecircumflex" unicode="&#xca;" horiz-adv-x="534" 
d="M472 0h-390v720h386c7 0 9 -5 9 -26v-4c0 -22 -2 -27 -9 -27h-317v-270h269c7 0 9 -5 9 -26v-4c0 -22 -2 -27 -9 -27h-269v-279h321c7 0 9 -5 9 -26v-4c0 -22 -2 -27 -9 -27zM264 921h26c20 0 27 -3 34 -10l94 -100c4 -4 3 -8 -4 -16l-5 -6c-7 -8 -11 -10 -16 -6l-116 97
l-116 -97c-5 -4 -9 -2 -16 6l-5 6c-7 8 -8 12 -4 16l94 100c7 7 14 10 34 10z" />
    <glyph glyph-name="Ecaron" unicode="&#x11a;" horiz-adv-x="534" 
d="M472 0h-390v720h386c7 0 9 -5 9 -26v-4c0 -22 -2 -27 -9 -27h-317v-270h269c7 0 9 -5 9 -26v-4c0 -22 -2 -27 -9 -27h-269v-279h321c7 0 9 -5 9 -26v-4c0 -22 -2 -27 -9 -27zM240 798l-94 100c-4 5 -4 7 4 16l5 6c8 9 11 10 16 6l116 -97l116 97c5 4 8 3 16 -6l5 -6
c8 -9 8 -11 4 -16l-94 -100c-7 -7 -14 -10 -34 -10h-26c-20 0 -27 3 -34 10z" />
    <glyph glyph-name="Edieresis" unicode="&#xcb;" horiz-adv-x="534" 
d="M472 0h-390v720h386c7 0 9 -5 9 -26v-4c0 -22 -2 -27 -9 -27h-317v-270h269c7 0 9 -5 9 -26v-4c0 -22 -2 -27 -9 -27h-269v-279h321c7 0 9 -5 9 -26v-4c0 -22 -2 -27 -9 -27zM140 846c0 26 21 48 47 48s48 -22 48 -48s-22 -47 -48 -47s-47 21 -47 47zM342 846
c0 26 21 48 47 48s48 -22 48 -48s-22 -47 -48 -47s-47 21 -47 47z" />
    <glyph glyph-name="Emacron" unicode="&#x112;" horiz-adv-x="534" 
d="M472 0h-390v720h386c7 0 9 -5 9 -26v-4c0 -22 -2 -27 -9 -27h-317v-270h269c7 0 9 -5 9 -26v-4c0 -22 -2 -27 -9 -27h-269v-279h321c7 0 9 -5 9 -26v-4c0 -22 -2 -27 -9 -27zM147 874h262c7 0 8 -4 8 -23v-3c0 -18 -1 -25 -8 -25h-262c-7 0 -8 7 -8 25v3c0 19 1 23 8 23z
" />
    <glyph glyph-name="Ebreve" unicode="&#x114;" horiz-adv-x="534" 
d="M472 0h-390v720h386c7 0 9 -5 9 -26v-4c0 -22 -2 -27 -9 -27h-317v-270h269c7 0 9 -5 9 -26v-4c0 -22 -2 -27 -9 -27h-269v-279h321c7 0 9 -5 9 -26v-4c0 -22 -2 -27 -9 -27zM281 795c-76 0 -136 42 -136 111c0 4 1 6 19 6h12c17 0 18 -1 19 -10c5 -42 35 -66 86 -66
s81 24 86 66c1 9 2 10 19 10h12c18 0 19 -2 19 -6c0 -69 -60 -111 -136 -111z" />
    <glyph glyph-name="Edotaccent" unicode="&#x116;" horiz-adv-x="534" 
d="M472 0h-390v720h386c7 0 9 -5 9 -26v-4c0 -22 -2 -27 -9 -27h-317v-270h269c7 0 9 -5 9 -26v-4c0 -22 -2 -27 -9 -27h-269v-279h321c7 0 9 -5 9 -26v-4c0 -22 -2 -27 -9 -27zM239 840c0 26 20 47 46 47s47 -21 47 -47s-21 -46 -47 -46s-46 20 -46 46z" />
    <glyph glyph-name="Eogonek" unicode="&#x118;" horiz-adv-x="534" 
d="M472 0c-63 -7 -124 -57 -124 -128c0 -37 23 -57 56 -57c19 0 36 5 51 9c4 1 7 -1 10 -14l1 -5c2 -12 2 -16 -2 -18c-22 -10 -47 -16 -73 -16c-54 0 -100 31 -100 98c0 48 32 100 84 131h-293v720h386c7 0 9 -5 9 -26v-4c0 -22 -2 -27 -9 -27h-317v-270h269
c7 0 9 -5 9 -26v-4c0 -22 -2 -27 -9 -27h-269v-279h321c7 0 9 -5 9 -26v-4c0 -21 -2 -26 -9 -27z" />
    <glyph glyph-name="Gcircumflex" unicode="&#x11c;" horiz-adv-x="636" 
d="M525 625c-58 32 -106 46 -167 46c-160 0 -239 -126 -239 -312c0 -181 71 -311 246 -311c49 0 101 11 140 27v243h-163c-7 0 -9 5 -9 26v4c0 22 2 27 9 27h230v-337c-65 -28 -137 -48 -211 -48c-96 0 -168 30 -218 81c-63 64 -96 163 -96 283c0 232 119 376 311 376
c77 0 143 -22 192 -56c6 -4 5 -9 -2 -24l-5 -11c-7 -15 -11 -18 -18 -14zM345 921h26c20 0 27 -3 34 -10l94 -100c4 -4 3 -8 -4 -16l-5 -6c-7 -8 -11 -10 -16 -6l-116 97l-116 -97c-5 -4 -9 -2 -16 6l-5 6c-7 8 -8 12 -4 16l94 100c7 7 14 10 34 10z" />
    <glyph glyph-name="Gbreve" unicode="&#x11e;" horiz-adv-x="636" 
d="M525 625c-58 32 -106 46 -167 46c-160 0 -239 -126 -239 -312c0 -181 71 -311 246 -311c49 0 101 11 140 27v243h-163c-7 0 -9 5 -9 26v4c0 22 2 27 9 27h230v-337c-65 -28 -137 -48 -211 -48c-96 0 -168 30 -218 81c-63 64 -96 163 -96 283c0 232 119 376 311 376
c77 0 143 -22 192 -56c6 -4 5 -9 -2 -24l-5 -11c-7 -15 -11 -18 -18 -14zM358 795c-76 0 -136 42 -136 111c0 4 1 6 19 6h12c17 0 18 -1 19 -10c5 -42 35 -66 86 -66s81 24 86 66c1 9 2 10 19 10h12c18 0 19 -2 19 -6c0 -69 -60 -111 -136 -111z" />
    <glyph glyph-name="Gdotaccent" unicode="&#x120;" horiz-adv-x="636" 
d="M525 625c-58 32 -106 46 -167 46c-160 0 -239 -126 -239 -312c0 -181 71 -311 246 -311c49 0 101 11 140 27v243h-163c-7 0 -9 5 -9 26v4c0 22 2 27 9 27h230v-337c-65 -28 -137 -48 -211 -48c-96 0 -168 30 -218 81c-63 64 -96 163 -96 283c0 232 119 376 311 376
c77 0 143 -22 192 -56c6 -4 5 -9 -2 -24l-5 -11c-7 -15 -11 -18 -18 -14zM311 840c0 26 20 47 46 47s47 -21 47 -47s-21 -46 -47 -46s-46 20 -46 46z" />
    <glyph glyph-name="Gcommaaccent" unicode="&#x122;" horiz-adv-x="636" 
d="M525 625c-58 32 -106 46 -167 46c-160 0 -239 -126 -239 -312c0 -181 71 -311 246 -311c49 0 101 11 140 27v243h-163c-7 0 -9 5 -9 26v4c0 22 2 27 9 27h230v-337c-65 -28 -137 -48 -211 -48c-96 0 -168 30 -218 81c-63 64 -96 163 -96 283c0 232 119 376 311 376
c77 0 143 -22 192 -56c6 -4 5 -9 -2 -24l-5 -11c-7 -15 -11 -18 -18 -14zM312 -270l-5 5c-6 6 -5 9 -1 13c22 23 49 59 49 87c0 36 -34 41 -34 74c0 23 19 38 41 38c31 0 49 -25 49 -54c0 -62 -31 -124 -85 -167c-5 -4 -8 -2 -14 4z" />
    <glyph glyph-name="Hcircumflex" unicode="&#x124;" horiz-adv-x="656" 
d="M82 9v702c0 7 8 9 29 9h8c22 0 32 -2 32 -9v-318h354v318c0 7 8 9 29 9h8c22 0 32 -2 32 -9v-702c0 -7 -10 -9 -32 -9h-8c-21 0 -29 2 -29 9v327h-354v-327c0 -7 -10 -9 -32 -9h-8c-21 0 -29 2 -29 9zM315 921h26c20 0 27 -3 34 -10l94 -100c4 -4 3 -8 -4 -16l-5 -6
c-7 -8 -11 -10 -16 -6l-116 97l-116 -97c-5 -4 -9 -2 -16 6l-5 6c-7 8 -8 12 -4 16l94 100c7 7 14 10 34 10z" />
    <glyph glyph-name="Hbar" unicode="&#x126;" horiz-adv-x="668" 
d="M88 9v534h-58c-7 0 -8 7 -8 25v3c0 19 1 23 8 23h58v117c0 7 8 9 29 9h8c22 0 32 -2 32 -9v-117h354v117c0 7 8 9 29 9h8c22 0 32 -2 32 -9v-117h58c7 0 8 -4 8 -23v-3c0 -18 -1 -25 -8 -25h-58v-534c0 -7 -10 -9 -32 -9h-8c-21 0 -29 2 -29 9v327h-354v-327
c0 -7 -10 -9 -32 -9h-8c-21 0 -29 2 -29 9zM157 393h354v150h-354v-150z" />
    <glyph glyph-name="Igrave" unicode="&#xcc;" horiz-adv-x="365" 
d="M292 0h-219c-7 0 -9 2 -9 21v4c0 20 2 22 9 22h75v626h-75c-7 0 -9 2 -9 21v4c0 20 2 22 9 22h219c7 0 9 -2 9 -22v-4c0 -19 -2 -21 -9 -21h-75v-626h75c7 0 9 -2 9 -22v-4c0 -19 -2 -21 -9 -21zM135 913h15c27 0 32 -3 36 -10l67 -118c3 -5 -4 -7 -20 -7h-4
c-19 0 -23 1 -27 6l-88 119c-5 7 -2 10 21 10z" />
    <glyph glyph-name="Iacute" unicode="&#xcd;" horiz-adv-x="365" 
d="M292 0h-219c-7 0 -9 2 -9 21v4c0 20 2 22 9 22h75v626h-75c-7 0 -9 2 -9 21v4c0 20 2 22 9 22h219c7 0 9 -2 9 -22v-4c0 -19 -2 -21 -9 -21h-75v-626h75c7 0 9 -2 9 -22v-4c0 -19 -2 -21 -9 -21zM215 913h15c23 0 26 -3 21 -10l-88 -119c-4 -5 -8 -6 -27 -6h-4
c-16 0 -23 2 -20 7l67 118c4 7 9 10 36 10z" />
    <glyph glyph-name="Icircumflex" unicode="&#xce;" horiz-adv-x="365" 
d="M292 0h-219c-7 0 -9 2 -9 21v4c0 20 2 22 9 22h75v626h-75c-7 0 -9 2 -9 21v4c0 20 2 22 9 22h219c7 0 9 -2 9 -22v-4c0 -19 -2 -21 -9 -21h-75v-626h75c7 0 9 -2 9 -22v-4c0 -19 -2 -21 -9 -21zM169 921h26c20 0 27 -3 34 -10l94 -100c4 -4 3 -8 -4 -16l-5 -6
c-7 -8 -11 -10 -16 -6l-116 97l-116 -97c-5 -4 -9 -2 -16 6l-5 6c-7 8 -8 12 -4 16l94 100c7 7 14 10 34 10z" />
    <glyph glyph-name="Itilde" unicode="&#x128;" horiz-adv-x="365" 
d="M292 0h-219c-7 0 -9 2 -9 21v4c0 20 2 22 9 22h75v626h-75c-7 0 -9 2 -9 21v4c0 20 2 22 9 22h219c7 0 9 -2 9 -22v-4c0 -19 -2 -21 -9 -21h-75v-626h75c7 0 9 -2 9 -22v-4c0 -19 -2 -21 -9 -21zM332 857c-18 -23 -54 -44 -88 -44c-55 0 -83 38 -128 38
c-21 0 -36 -9 -58 -30c-4 -3 -8 -2 -16 8l-8 10c-5 7 -6 11 -2 16c18 23 54 44 88 44c55 0 83 -38 128 -38c21 0 36 9 58 30c4 3 8 2 16 -8l8 -10c5 -7 6 -11 2 -16z" />
    <glyph glyph-name="Idieresis" unicode="&#xcf;" horiz-adv-x="365" 
d="M292 0h-219c-7 0 -9 2 -9 21v4c0 20 2 22 9 22h75v626h-75c-7 0 -9 2 -9 21v4c0 20 2 22 9 22h219c7 0 9 -2 9 -22v-4c0 -19 -2 -21 -9 -21h-75v-626h75c7 0 9 -2 9 -22v-4c0 -19 -2 -21 -9 -21zM34 846c0 26 21 48 47 48s48 -22 48 -48s-22 -47 -48 -47s-47 21 -47 47z
M236 846c0 26 21 48 47 48s48 -22 48 -48s-22 -47 -48 -47s-47 21 -47 47z" />
    <glyph glyph-name="Imacron" unicode="&#x12a;" horiz-adv-x="365" 
d="M292 0h-219c-7 0 -9 2 -9 21v4c0 20 2 22 9 22h75v626h-75c-7 0 -9 2 -9 21v4c0 20 2 22 9 22h219c7 0 9 -2 9 -22v-4c0 -19 -2 -21 -9 -21h-75v-626h75c7 0 9 -2 9 -22v-4c0 -19 -2 -21 -9 -21zM51 874h262c7 0 8 -4 8 -23v-3c0 -18 -1 -25 -8 -25h-262c-7 0 -8 7 -8 25
v3c0 19 1 23 8 23z" />
    <glyph glyph-name="Ibreve" unicode="&#x12c;" horiz-adv-x="365" 
d="M292 0h-219c-7 0 -9 2 -9 21v4c0 20 2 22 9 22h75v626h-75c-7 0 -9 2 -9 21v4c0 20 2 22 9 22h219c7 0 9 -2 9 -22v-4c0 -19 -2 -21 -9 -21h-75v-626h75c7 0 9 -2 9 -22v-4c0 -19 -2 -21 -9 -21zM182 795c-76 0 -136 42 -136 111c0 4 1 6 19 6h12c17 0 18 -1 19 -10
c5 -42 35 -66 86 -66s81 24 86 66c1 9 2 10 19 10h12c18 0 19 -2 19 -6c0 -69 -60 -111 -136 -111z" />
    <glyph glyph-name="Idotaccent" unicode="&#x130;" horiz-adv-x="365" 
d="M292 0h-219c-7 0 -9 2 -9 21v4c0 20 2 22 9 22h75v626h-75c-7 0 -9 2 -9 21v4c0 20 2 22 9 22h219c7 0 9 -2 9 -22v-4c0 -19 -2 -21 -9 -21h-75v-626h75c7 0 9 -2 9 -22v-4c0 -19 -2 -21 -9 -21zM136 840c0 26 20 47 46 47s47 -21 47 -47s-21 -46 -47 -46s-46 20 -46 46z
" />
    <glyph glyph-name="Iogonek" unicode="&#x12e;" horiz-adv-x="365" 
d="M180 0h-107c-7 0 -9 2 -9 21v4c0 20 2 22 9 22h75v626h-75c-7 0 -9 2 -9 21v4c0 20 2 22 9 22h219c7 0 9 -2 9 -22v-4c0 -19 -2 -21 -9 -21h-75v-626h75c7 0 9 -2 9 -22v-4c0 -19 -2 -21 -9 -21h-7c-42 0 -76 -17 -100 -46c-19 -23 -31 -53 -31 -82c0 -37 19 -57 54 -57
c19 0 38 5 53 9c4 1 7 -1 10 -14l1 -5c2 -12 2 -16 -2 -18c-22 -10 -47 -16 -73 -16c-54 0 -100 32 -100 98c0 48 29 102 83 131z" />
    <glyph glyph-name="IJ" unicode="&#x132;" horiz-adv-x="803" 
d="M292 0h-219c-7 0 -9 2 -9 21v4c0 20 2 22 9 22h75v626h-75c-7 0 -9 2 -9 21v4c0 20 2 22 9 22h219c7 0 9 -2 9 -22v-4c0 -19 -2 -21 -9 -21h-75v-626h75c7 0 9 -2 9 -22v-4c0 -19 -2 -21 -9 -21zM689 720h8c22 0 32 -2 32 -9v-516c0 -70 -15 -119 -49 -155
c-30 -32 -80 -50 -136 -50c-55 0 -109 16 -148 42c-9 6 -9 10 -1 26l5 10c8 15 12 18 22 13c42 -21 79 -33 116 -33c39 0 73 14 92 37c21 26 30 67 30 126v500c0 7 8 9 29 9z" />
    <glyph glyph-name="Jcircumflex" unicode="&#x134;" horiz-adv-x="438" 
d="M324 720h8c22 0 32 -2 32 -9v-516c0 -70 -15 -119 -49 -155c-30 -32 -80 -50 -136 -50c-55 0 -109 16 -148 42c-9 6 -9 10 -1 26l5 10c8 15 12 18 22 13c42 -21 79 -33 116 -33c39 0 73 14 92 37c21 26 30 67 30 126v500c0 7 8 9 29 9zM316 921h26c20 0 27 -3 34 -10
l94 -100c4 -4 3 -8 -4 -16l-5 -6c-7 -8 -11 -10 -16 -6l-116 97l-116 -97c-5 -4 -9 -2 -16 6l-5 6c-7 8 -8 12 -4 16l94 100c7 7 14 10 34 10z" />
    <glyph glyph-name="Kcommaaccent" unicode="&#x136;" horiz-adv-x="571" 
d="M82 9v702c0 7 8 9 29 9h8c22 0 32 -2 32 -9v-375l103 110c103 110 167 200 200 266c3 6 5 8 27 8h14c19 0 24 -2 21 -10c-31 -73 -105 -177 -214 -290l244 -407c5 -8 3 -13 -23 -13h-16c-29 0 -33 2 -38 10l-214 361l-104 -108v-254c0 -7 -10 -9 -32 -9h-8
c-21 0 -29 2 -29 9zM258 -270l-5 5c-6 6 -5 9 -1 13c22 23 49 59 49 87c0 36 -34 41 -34 74c0 23 19 38 41 38c31 0 49 -25 49 -54c0 -62 -31 -124 -85 -167c-5 -4 -8 -2 -14 4z" />
    <glyph glyph-name="Lacute" unicode="&#x139;" horiz-adv-x="495" 
d="M151 711v-654h297c7 0 9 -5 9 -26v-4c0 -22 -2 -27 -9 -27h-338c-24 0 -28 3 -28 11v700c0 7 8 9 29 9h8c22 0 32 -2 32 -9zM177 913h15c23 0 26 -3 21 -10l-88 -119c-4 -5 -8 -6 -27 -6h-4c-16 0 -23 2 -20 7l67 118c4 7 9 10 36 10z" />
    <glyph glyph-name="Lcaron" unicode="&#x13d;" horiz-adv-x="495" 
d="M151 711v-654h297c7 0 9 -5 9 -26v-4c0 -22 -2 -27 -9 -27h-338c-24 0 -28 3 -28 11v700c0 7 8 9 29 9h8c22 0 32 -2 32 -9zM242 523l-5 5c-6 6 -5 9 -1 13c22 23 49 59 49 87c0 36 -34 41 -34 74c0 23 19 38 41 38c31 0 49 -25 49 -54c0 -62 -31 -124 -85 -167
c-5 -4 -8 -2 -14 4z" />
    <glyph glyph-name="Lcommaaccent" unicode="&#x13b;" horiz-adv-x="495" 
d="M151 711v-654h297c7 0 9 -5 9 -26v-4c0 -22 -2 -27 -9 -27h-338c-24 0 -28 3 -28 11v700c0 7 8 9 29 9h8c22 0 32 -2 32 -9zM226 -270l-5 5c-6 6 -5 9 -1 13c22 23 49 59 49 87c0 36 -34 41 -34 74c0 23 19 38 41 38c31 0 49 -25 49 -54c0 -62 -31 -124 -85 -167
c-5 -4 -8 -2 -14 4z" />
    <glyph glyph-name="Lslash" unicode="&#x141;" horiz-adv-x="495" 
d="M448 0h-338c-24 0 -28 3 -28 11v269l-59 -46c-7 -5 -12 -2 -12 14v10c0 16 2 20 8 25l63 49v379c0 7 8 9 29 9h8c22 0 32 -2 32 -9v-326l122 95c7 5 12 4 12 -15v-8c0 -17 -2 -21 -8 -26l-126 -98v-276h297c7 0 9 -5 9 -26v-4c0 -22 -2 -27 -9 -27z" />
    <glyph glyph-name="Ldot" unicode="&#x13f;" horiz-adv-x="495" 
d="M151 711v-654h297c7 0 9 -5 9 -26v-4c0 -22 -2 -27 -9 -27h-338c-24 0 -28 3 -28 11v700c0 7 8 9 29 9h8c22 0 32 -2 32 -9zM271 383c0 26 20 47 46 47s47 -21 47 -47s-21 -46 -47 -46s-46 20 -46 46z" />
    <glyph glyph-name="Nacute" unicode="&#x143;" horiz-adv-x="677" 
d="M516 10l-374 615v-616c0 -7 -6 -9 -28 -9h-7c-22 0 -27 2 -27 9v702c0 7 6 9 29 9h7c33 0 40 -2 45 -10l374 -615v616c0 7 5 9 27 9h7c22 0 28 -2 28 -9v-702c0 -7 -6 -9 -29 -9h-7c-33 0 -40 2 -45 10zM397 913h15c23 0 26 -3 21 -10l-88 -119c-4 -5 -8 -6 -27 -6h-4
c-16 0 -23 2 -20 7l67 118c4 7 9 10 36 10z" />
    <glyph glyph-name="Ncaron" unicode="&#x147;" horiz-adv-x="677" 
d="M516 10l-374 615v-616c0 -7 -6 -9 -28 -9h-7c-22 0 -27 2 -27 9v702c0 7 6 9 29 9h7c33 0 40 -2 45 -10l374 -615v616c0 7 5 9 27 9h7c22 0 28 -2 28 -9v-702c0 -7 -6 -9 -29 -9h-7c-33 0 -40 2 -45 10zM299 798l-94 100c-4 5 -4 7 4 16l5 6c8 9 11 10 16 6l116 -97
l116 97c5 4 8 3 16 -6l5 -6c8 -9 8 -11 4 -16l-94 -100c-7 -7 -14 -10 -34 -10h-26c-20 0 -27 3 -34 10z" />
    <glyph glyph-name="Ntilde" unicode="&#xd1;" horiz-adv-x="677" 
d="M516 10l-374 615v-616c0 -7 -6 -9 -28 -9h-7c-22 0 -27 2 -27 9v702c0 7 6 9 29 9h7c33 0 40 -2 45 -10l374 -615v616c0 7 5 9 27 9h7c22 0 28 -2 28 -9v-702c0 -7 -6 -9 -29 -9h-7c-33 0 -40 2 -45 10zM488 857c-18 -23 -54 -44 -88 -44c-55 0 -83 38 -128 38
c-21 0 -36 -9 -58 -30c-4 -3 -8 -2 -16 8l-8 10c-5 7 -6 11 -2 16c18 23 54 44 88 44c55 0 83 -38 128 -38c21 0 36 9 58 30c4 3 8 2 16 -8l8 -10c5 -7 6 -11 2 -16z" />
    <glyph glyph-name="Ncommaaccent" unicode="&#x145;" horiz-adv-x="677" 
d="M516 10l-374 615v-616c0 -7 -6 -9 -28 -9h-7c-22 0 -27 2 -27 9v702c0 7 6 9 29 9h7c33 0 40 -2 45 -10l374 -615v616c0 7 5 9 27 9h7c22 0 28 -2 28 -9v-702c0 -7 -6 -9 -29 -9h-7c-33 0 -40 2 -45 10zM293 -270l-5 5c-6 6 -5 9 -1 13c22 23 49 59 49 87
c0 36 -34 41 -34 74c0 23 19 38 41 38c31 0 49 -25 49 -54c0 -62 -31 -124 -85 -167c-5 -4 -8 -2 -14 4z" />
    <glyph glyph-name="Eng" unicode="&#x14a;" horiz-adv-x="677" 
d="M412 -140c79 0 114 40 121 141l-391 624v-616c0 -7 -6 -9 -28 -9h-7c-22 0 -27 2 -27 9v702c0 7 6 9 29 9h7c33 0 40 -2 45 -10l374 -595v596c0 7 5 9 27 9h7c22 0 28 -2 28 -9v-670c0 -171 -63 -236 -179 -236c-24 0 -50 5 -65 11c-4 2 -6 6 -3 24l1 6c3 18 4 23 11 21
c14 -4 30 -7 50 -7z" />
    <glyph glyph-name="Ograve" unicode="&#xd2;" horiz-adv-x="693" 
d="M353 671c-144 0 -234 -115 -234 -317c0 -196 82 -305 221 -305c143 0 234 117 234 318c0 196 -82 304 -221 304zM356 730c170 0 290 -120 290 -359c0 -234 -120 -381 -309 -381c-170 0 -290 121 -290 360c0 234 120 380 309 380zM309 913h15c27 0 32 -3 36 -10l67 -118
c3 -5 -4 -7 -20 -7h-4c-19 0 -23 1 -27 6l-88 119c-5 7 -2 10 21 10z" />
    <glyph glyph-name="Oacute" unicode="&#xd3;" horiz-adv-x="693" 
d="M353 671c-144 0 -234 -115 -234 -317c0 -196 82 -305 221 -305c143 0 234 117 234 318c0 196 -82 304 -221 304zM356 730c170 0 290 -120 290 -359c0 -234 -120 -381 -309 -381c-170 0 -290 121 -290 360c0 234 120 380 309 380zM389 913h15c23 0 26 -3 21 -10l-88 -119
c-4 -5 -8 -6 -27 -6h-4c-16 0 -23 2 -20 7l67 118c4 7 9 10 36 10z" />
    <glyph glyph-name="Ocircumflex" unicode="&#xd4;" horiz-adv-x="693" 
d="M353 671c-144 0 -234 -115 -234 -317c0 -196 82 -305 221 -305c143 0 234 117 234 318c0 196 -82 304 -221 304zM356 730c170 0 290 -120 290 -359c0 -234 -120 -381 -309 -381c-170 0 -290 121 -290 360c0 234 120 380 309 380zM343 921h26c20 0 27 -3 34 -10l94 -100
c4 -4 3 -8 -4 -16l-5 -6c-7 -8 -11 -10 -16 -6l-116 97l-116 -97c-5 -4 -9 -2 -16 6l-5 6c-7 8 -8 12 -4 16l94 100c7 7 14 10 34 10z" />
    <glyph glyph-name="Otilde" unicode="&#xd5;" horiz-adv-x="693" 
d="M353 671c-144 0 -234 -115 -234 -317c0 -196 82 -305 221 -305c143 0 234 117 234 318c0 196 -82 304 -221 304zM356 730c170 0 290 -120 290 -359c0 -234 -120 -381 -309 -381c-170 0 -290 121 -290 360c0 234 120 380 309 380zM504 857c-18 -23 -54 -44 -88 -44
c-55 0 -83 38 -128 38c-21 0 -36 -9 -58 -30c-4 -3 -8 -2 -16 8l-8 10c-5 7 -6 11 -2 16c18 23 54 44 88 44c55 0 83 -38 128 -38c21 0 36 9 58 30c4 3 8 2 16 -8l8 -10c5 -7 6 -11 2 -16z" />
    <glyph glyph-name="Odieresis" unicode="&#xd6;" horiz-adv-x="693" 
d="M353 671c-144 0 -234 -115 -234 -317c0 -196 82 -305 221 -305c143 0 234 117 234 318c0 196 -82 304 -221 304zM356 730c170 0 290 -120 290 -359c0 -234 -120 -381 -309 -381c-170 0 -290 121 -290 360c0 234 120 380 309 380zM208 846c0 26 21 48 47 48s48 -22 48 -48
s-22 -47 -48 -47s-47 21 -47 47zM410 846c0 26 21 48 47 48s48 -22 48 -48s-22 -47 -48 -47s-47 21 -47 47z" />
    <glyph glyph-name="Omacron" unicode="&#x14c;" horiz-adv-x="693" 
d="M353 671c-144 0 -234 -115 -234 -317c0 -196 82 -305 221 -305c143 0 234 117 234 318c0 196 -82 304 -221 304zM356 730c170 0 290 -120 290 -359c0 -234 -120 -381 -309 -381c-170 0 -290 121 -290 360c0 234 120 380 309 380zM215 874h262c7 0 8 -4 8 -23v-3
c0 -18 -1 -25 -8 -25h-262c-7 0 -8 7 -8 25v3c0 19 1 23 8 23z" />
    <glyph glyph-name="Obreve" unicode="&#x14e;" horiz-adv-x="693" 
d="M353 671c-144 0 -234 -115 -234 -317c0 -196 82 -305 221 -305c143 0 234 117 234 318c0 196 -82 304 -221 304zM356 730c170 0 290 -120 290 -359c0 -234 -120 -381 -309 -381c-170 0 -290 121 -290 360c0 234 120 380 309 380zM346 795c-76 0 -136 42 -136 111
c0 4 1 6 19 6h12c17 0 18 -1 19 -10c5 -42 35 -66 86 -66s81 24 86 66c1 9 2 10 19 10h12c18 0 19 -2 19 -6c0 -69 -60 -111 -136 -111z" />
    <glyph glyph-name="Ohungarumlaut" unicode="&#x150;" horiz-adv-x="693" 
d="M353 671c-144 0 -234 -115 -234 -317c0 -196 82 -305 221 -305c143 0 234 117 234 318c0 196 -82 304 -221 304zM356 730c170 0 290 -120 290 -359c0 -234 -120 -381 -309 -381c-170 0 -290 121 -290 360c0 234 120 380 309 380zM318 913h15c23 0 26 -3 21 -10l-88 -119
c-4 -5 -8 -6 -27 -6h-4c-16 0 -23 2 -20 7l67 118c4 7 9 10 36 10zM475 913h15c23 0 26 -3 21 -10l-88 -119c-4 -5 -8 -6 -27 -6h-4c-16 0 -23 2 -20 7l67 118c4 7 9 10 36 10z" />
    <glyph glyph-name="Oslash" unicode="&#xd8;" horiz-adv-x="693" 
d="M356 730c68 0 129 -20 176 -59l62 86c4 6 10 7 26 -5l12 -9c16 -12 17 -17 13 -23l-68 -95c44 -60 69 -145 69 -254c0 -234 -120 -381 -309 -381c-68 0 -127 19 -174 57l-59 -82c-4 -6 -10 -7 -26 5l-12 9c-16 12 -17 17 -13 23l65 91c-45 60 -71 145 -71 257
c0 234 120 380 309 380zM353 671c-144 0 -234 -115 -234 -317c0 -83 15 -151 42 -201l333 464c-36 35 -84 54 -141 54zM574 367c0 81 -14 147 -41 197l-332 -464c36 -34 83 -51 139 -51c143 0 234 117 234 318z" />
    <glyph glyph-name="Oslashacute" unicode="&#x1fe;" horiz-adv-x="693" 
d="M356 730c68 0 129 -20 176 -59l62 86c4 6 10 7 26 -5l12 -9c16 -12 17 -17 13 -23l-68 -95c44 -60 69 -145 69 -254c0 -234 -120 -381 -309 -381c-68 0 -127 19 -174 57l-59 -82c-4 -6 -10 -7 -26 5l-12 9c-16 12 -17 17 -13 23l65 91c-45 60 -71 145 -71 257
c0 234 120 380 309 380zM353 671c-144 0 -234 -115 -234 -317c0 -83 15 -151 42 -201l333 464c-36 35 -84 54 -141 54zM574 367c0 81 -14 147 -41 197l-332 -464c36 -34 83 -51 139 -51c143 0 234 117 234 318zM399 913h15c23 0 26 -3 21 -10l-88 -119c-4 -5 -8 -6 -27 -6
h-4c-16 0 -23 2 -20 7l67 118c4 7 9 10 36 10z" />
    <glyph glyph-name="OE" unicode="&#x152;" horiz-adv-x="939" 
d="M877 0h-390c-41 -5 -94 -10 -138 -10c-181 0 -302 111 -302 355c0 247 120 385 319 385c42 0 83 -5 118 -10h389c7 0 9 -5 9 -26v-4c0 -22 -2 -27 -9 -27h-317v-270h269c7 0 9 -5 9 -26v-4c0 -22 -2 -27 -9 -27h-269v-279h321c7 0 9 -5 9 -26v-4c0 -22 -2 -27 -9 -27z
M353 46c40 0 89 4 134 9v606c-36 6 -81 12 -122 12c-156 0 -246 -113 -246 -321c0 -203 83 -306 234 -306z" />
    <glyph glyph-name="Thorn" unicode="&#xde;" horiz-adv-x="536" 
d="M151 711v-152c33 6 72 10 114 10c150 0 239 -66 239 -196c0 -132 -89 -198 -239 -198c-42 0 -81 4 -114 10v-176c0 -7 -10 -9 -32 -9h-8c-21 0 -29 2 -29 9v702c0 7 8 9 29 9h8c22 0 32 -2 32 -9zM263 513c-43 0 -81 -4 -112 -9v-264c31 -5 69 -9 112 -9
c104 0 170 39 170 141s-66 141 -170 141z" />
    <glyph glyph-name="Racute" unicode="&#x154;" horiz-adv-x="554" 
d="M255 305h-104v-296c0 -7 -10 -9 -32 -9h-8c-21 0 -29 2 -29 9v711h152c110 0 179 -20 224 -64c33 -32 50 -77 50 -136c0 -64 -21 -113 -56 -148c-27 -27 -62 -45 -103 -56c61 -132 103 -213 169 -303c4 -6 3 -13 -27 -13h-10c-26 0 -32 1 -40 11
c-53 67 -118 196 -158 295c-9 -1 -19 -1 -28 -1zM151 665v-306h96c66 0 116 16 147 46c26 26 41 63 41 111c0 45 -11 78 -33 101c-32 34 -84 48 -164 48h-87zM339 913h15c23 0 26 -3 21 -10l-88 -119c-4 -5 -8 -6 -27 -6h-4c-16 0 -23 2 -20 7l67 118c4 7 9 10 36 10z" />
    <glyph glyph-name="Rcaron" unicode="&#x158;" horiz-adv-x="554" 
d="M255 305h-104v-296c0 -7 -10 -9 -32 -9h-8c-21 0 -29 2 -29 9v711h152c110 0 179 -20 224 -64c33 -32 50 -77 50 -136c0 -64 -21 -113 -56 -148c-27 -27 -62 -45 -103 -56c61 -132 103 -213 169 -303c4 -6 3 -13 -27 -13h-10c-26 0 -32 1 -40 11
c-53 67 -118 196 -158 295c-9 -1 -19 -1 -28 -1zM151 665v-306h96c66 0 116 16 147 46c26 26 41 63 41 111c0 45 -11 78 -33 101c-32 34 -84 48 -164 48h-87zM254 798l-94 100c-4 5 -4 7 4 16l5 6c8 9 11 10 16 6l116 -97l116 97c5 4 8 3 16 -6l5 -6c8 -9 8 -11 4 -16
l-94 -100c-7 -7 -14 -10 -34 -10h-26c-20 0 -27 3 -34 10z" />
    <glyph glyph-name="Rcommaaccent" unicode="&#x156;" horiz-adv-x="554" 
d="M255 305h-104v-296c0 -7 -10 -9 -32 -9h-8c-21 0 -29 2 -29 9v711h152c110 0 179 -20 224 -64c33 -32 50 -77 50 -136c0 -64 -21 -113 -56 -148c-27 -27 -62 -45 -103 -56c61 -132 103 -213 169 -303c4 -6 3 -13 -27 -13h-10c-26 0 -32 1 -40 11
c-53 67 -118 196 -158 295c-9 -1 -19 -1 -28 -1zM151 665v-306h96c66 0 116 16 147 46c26 26 41 63 41 111c0 45 -11 78 -33 101c-32 34 -84 48 -164 48h-87zM248 -270l-5 5c-6 6 -5 9 -1 13c22 23 49 59 49 87c0 36 -34 41 -34 74c0 23 19 38 41 38c31 0 49 -25 49 -54
c0 -62 -31 -124 -85 -167c-5 -4 -8 -2 -14 4z" />
    <glyph glyph-name="Sacute" unicode="&#x15a;" horiz-adv-x="513" 
d="M49 47c-7 5 -6 11 4 29l3 5c10 16 14 20 21 16c53 -34 110 -50 160 -50c99 0 166 57 166 136c0 83 -82 120 -164 163c-84 43 -168 93 -168 203s96 181 204 181c61 0 123 -20 166 -49c8 -5 6 -10 -3 -26l-3 -5c-10 -18 -14 -20 -21 -16c-40 22 -85 39 -135 39
c-80 0 -140 -45 -140 -121c0 -77 69 -114 144 -153c90 -46 188 -94 188 -213c0 -116 -92 -196 -228 -196c-78 0 -152 25 -194 57zM313 913h15c23 0 26 -3 21 -10l-88 -119c-4 -5 -8 -6 -27 -6h-4c-16 0 -23 2 -20 7l67 118c4 7 9 10 36 10z" />
    <glyph glyph-name="Scircumflex" unicode="&#x15c;" horiz-adv-x="513" 
d="M49 47c-7 5 -6 11 4 29l3 5c10 16 14 20 21 16c53 -34 110 -50 160 -50c99 0 166 57 166 136c0 83 -82 120 -164 163c-84 43 -168 93 -168 203s96 181 204 181c61 0 123 -20 166 -49c8 -5 6 -10 -3 -26l-3 -5c-10 -18 -14 -20 -21 -16c-40 22 -85 39 -135 39
c-80 0 -140 -45 -140 -121c0 -77 69 -114 144 -153c90 -46 188 -94 188 -213c0 -116 -92 -196 -228 -196c-78 0 -152 25 -194 57zM263 921h26c20 0 27 -3 34 -10l94 -100c4 -4 3 -8 -4 -16l-5 -6c-7 -8 -11 -10 -16 -6l-116 97l-116 -97c-5 -4 -9 -2 -16 6l-5 6
c-7 8 -8 12 -4 16l94 100c7 7 14 10 34 10z" />
    <glyph glyph-name="Scaron" unicode="&#x160;" horiz-adv-x="513" 
d="M49 47c-7 5 -6 11 4 29l3 5c10 16 14 20 21 16c53 -34 110 -50 160 -50c99 0 166 57 166 136c0 83 -82 120 -164 163c-84 43 -168 93 -168 203s96 181 204 181c61 0 123 -20 166 -49c8 -5 6 -10 -3 -26l-3 -5c-10 -18 -14 -20 -21 -16c-40 22 -85 39 -135 39
c-80 0 -140 -45 -140 -121c0 -77 69 -114 144 -153c90 -46 188 -94 188 -213c0 -116 -92 -196 -228 -196c-78 0 -152 25 -194 57zM229 785l-94 100c-4 5 -4 7 4 16l5 6c8 9 11 10 16 6l116 -97l116 97c5 4 8 3 16 -6l5 -6c8 -9 8 -11 4 -16l-94 -100c-7 -7 -14 -10 -34 -10
h-26c-20 0 -27 3 -34 10z" />
    <glyph glyph-name="Scedilla" unicode="&#x15e;" horiz-adv-x="513" 
d="M206 -109l12 100c-69 4 -132 27 -169 56c-7 5 -6 11 4 29l3 5c10 16 14 20 21 16c53 -34 110 -50 160 -50c99 0 166 57 166 136c0 83 -82 120 -164 163c-84 43 -168 93 -168 203s96 181 204 181c61 0 123 -20 166 -49c8 -5 6 -10 -3 -26l-3 -5c-10 -18 -14 -20 -21 -16
c-40 22 -85 39 -135 39c-80 0 -140 -45 -140 -121c0 -77 69 -114 144 -153c90 -46 188 -94 188 -213c0 -109 -82 -186 -205 -195l-7 -58c9 1 18 2 27 2c53 0 90 -31 90 -78s-33 -90 -110 -90c-28 0 -59 6 -72 12c-4 2 -4 6 -2 18l1 5c3 13 5 15 10 14c18 -4 38 -7 55 -7
c38 0 62 13 62 44c0 30 -24 43 -61 43c-14 0 -39 -2 -53 -5z" />
    <glyph glyph-name="Scommaaccent" unicode="&#x218;" horiz-adv-x="513" 
d="M49 47c-7 5 -6 11 4 29l3 5c10 16 14 20 21 16c53 -34 110 -50 160 -50c99 0 166 57 166 136c0 83 -82 120 -164 163c-84 43 -168 93 -168 203s96 181 204 181c61 0 123 -20 166 -49c8 -5 6 -10 -3 -26l-3 -5c-10 -18 -14 -20 -21 -16c-40 22 -85 39 -135 39
c-80 0 -140 -45 -140 -121c0 -77 69 -114 144 -153c90 -46 188 -94 188 -213c0 -116 -92 -196 -228 -196c-78 0 -152 25 -194 57zM217 -270l-5 5c-6 6 -5 9 -1 13c22 23 49 59 49 87c0 36 -34 41 -34 74c0 23 19 38 41 38c31 0 49 -25 49 -54c0 -62 -31 -124 -85 -167
c-5 -4 -8 -2 -14 4z" />
    <glyph glyph-name="Tcaron" unicode="&#x164;" horiz-adv-x="516" 
d="M227 663h-202c-7 0 -9 7 -9 27v4c0 19 2 26 9 26h466c7 0 9 -7 9 -27v-4c0 -19 -2 -26 -9 -26h-195v-654c0 -7 -10 -9 -32 -9h-8c-21 0 -29 2 -29 9v654zM211 798l-94 100c-4 5 -4 7 4 16l5 6c8 9 11 10 16 6l116 -97l116 97c5 4 8 3 16 -6l5 -6c8 -9 8 -11 4 -16
l-94 -100c-7 -7 -14 -10 -34 -10h-26c-20 0 -27 3 -34 10z" />
    <glyph glyph-name="Tcommaaccent" unicode="&#x162;" horiz-adv-x="516" 
d="M227 663h-202c-7 0 -9 7 -9 27v4c0 19 2 26 9 26h466c7 0 9 -7 9 -27v-4c0 -19 -2 -26 -9 -26h-195v-654c0 -7 -10 -9 -32 -9h-8c-21 0 -29 2 -29 9v654zM208 -270l-5 5c-6 6 -5 9 -1 13c22 23 49 59 49 87c0 36 -34 41 -34 74c0 23 19 38 41 38c31 0 49 -25 49 -54
c0 -62 -31 -124 -85 -167c-5 -4 -8 -2 -14 4z" />
    <glyph glyph-name="uni021A" unicode="&#x21a;" horiz-adv-x="516" 
d="M227 663h-202c-7 0 -9 7 -9 27v4c0 19 2 26 9 26h466c7 0 9 -7 9 -27v-4c0 -19 -2 -26 -9 -26h-195v-654c0 -7 -10 -9 -32 -9h-8c-21 0 -29 2 -29 9v654zM208 -270l-5 5c-6 6 -5 9 -1 13c22 23 49 59 49 87c0 36 -34 41 -34 74c0 23 19 38 41 38c31 0 49 -25 49 -54
c0 -62 -31 -124 -85 -167c-5 -4 -8 -2 -14 4z" />
    <glyph glyph-name="Tbar" unicode="&#x166;" horiz-adv-x="516" 
d="M105 390h122v273h-202c-7 0 -9 7 -9 27v4c0 19 2 26 9 26h466c7 0 9 -7 9 -27v-4c0 -19 -2 -26 -9 -26h-195v-273h115c7 0 8 -4 8 -23v-3c0 -18 -1 -25 -8 -25h-115v-330c0 -7 -10 -9 -32 -9h-8c-21 0 -29 2 -29 9v330h-122c-7 0 -8 7 -8 25v3c0 19 1 23 8 23z" />
    <glyph glyph-name="Ugrave" unicode="&#xd9;" horiz-adv-x="670" 
d="M595 711v-444c0 -102 -23 -168 -69 -212c-44 -42 -109 -65 -190 -65c-82 0 -148 22 -192 64c-46 44 -69 110 -69 212v445c0 7 8 9 29 9h8c22 0 32 -2 32 -9v-436c0 -86 18 -143 52 -178c32 -33 81 -49 140 -49s107 16 139 49c34 35 52 92 52 178v436c0 7 8 9 29 9h7
c22 0 32 -2 32 -9zM287 913h15c27 0 32 -3 36 -10l67 -118c3 -5 -4 -7 -20 -7h-4c-19 0 -23 1 -27 6l-88 119c-5 7 -2 10 21 10z" />
    <glyph glyph-name="Uacute" unicode="&#xda;" horiz-adv-x="670" 
d="M595 711v-444c0 -102 -23 -168 -69 -212c-44 -42 -109 -65 -190 -65c-82 0 -148 22 -192 64c-46 44 -69 110 -69 212v445c0 7 8 9 29 9h8c22 0 32 -2 32 -9v-436c0 -86 18 -143 52 -178c32 -33 81 -49 140 -49s107 16 139 49c34 35 52 92 52 178v436c0 7 8 9 29 9h7
c22 0 32 -2 32 -9zM383 913h15c23 0 26 -3 21 -10l-88 -119c-4 -5 -8 -6 -27 -6h-4c-16 0 -23 2 -20 7l67 118c4 7 9 10 36 10z" />
    <glyph glyph-name="Ucircumflex" unicode="&#xdb;" horiz-adv-x="670" 
d="M595 711v-444c0 -102 -23 -168 -69 -212c-44 -42 -109 -65 -190 -65c-82 0 -148 22 -192 64c-46 44 -69 110 -69 212v445c0 7 8 9 29 9h8c22 0 32 -2 32 -9v-436c0 -86 18 -143 52 -178c32 -33 81 -49 140 -49s107 16 139 49c34 35 52 92 52 178v436c0 7 8 9 29 9h7
c22 0 32 -2 32 -9zM322 921h26c20 0 27 -3 34 -10l94 -100c4 -4 3 -8 -4 -16l-5 -6c-7 -8 -11 -10 -16 -6l-116 97l-116 -97c-5 -4 -9 -2 -16 6l-5 6c-7 8 -8 12 -4 16l94 100c7 7 14 10 34 10z" />
    <glyph glyph-name="Utilde" unicode="&#x168;" horiz-adv-x="670" 
d="M595 711v-444c0 -102 -23 -168 -69 -212c-44 -42 -109 -65 -190 -65c-82 0 -148 22 -192 64c-46 44 -69 110 -69 212v445c0 7 8 9 29 9h8c22 0 32 -2 32 -9v-436c0 -86 18 -143 52 -178c32 -33 81 -49 140 -49s107 16 139 49c34 35 52 92 52 178v436c0 7 8 9 29 9h7
c22 0 32 -2 32 -9zM485 857c-18 -23 -54 -44 -88 -44c-55 0 -83 38 -128 38c-21 0 -36 -9 -58 -30c-4 -3 -8 -2 -16 8l-8 10c-5 7 -6 11 -2 16c18 23 54 44 88 44c55 0 83 -38 128 -38c21 0 36 9 58 30c4 3 8 2 16 -8l8 -10c5 -7 6 -11 2 -16z" />
    <glyph glyph-name="Udieresis" unicode="&#xdc;" horiz-adv-x="670" 
d="M595 711v-444c0 -102 -23 -168 -69 -212c-44 -42 -109 -65 -190 -65c-82 0 -148 22 -192 64c-46 44 -69 110 -69 212v445c0 7 8 9 29 9h8c22 0 32 -2 32 -9v-436c0 -86 18 -143 52 -178c32 -33 81 -49 140 -49s107 16 139 49c34 35 52 92 52 178v436c0 7 8 9 29 9h7
c22 0 32 -2 32 -9zM188 846c0 26 21 48 47 48s48 -22 48 -48s-22 -47 -48 -47s-47 21 -47 47zM390 846c0 26 21 48 47 48s48 -22 48 -48s-22 -47 -48 -47s-47 21 -47 47z" />
    <glyph glyph-name="Umacron" unicode="&#x16a;" horiz-adv-x="670" 
d="M595 711v-444c0 -102 -23 -168 -69 -212c-44 -42 -109 -65 -190 -65c-82 0 -148 22 -192 64c-46 44 -69 110 -69 212v445c0 7 8 9 29 9h8c22 0 32 -2 32 -9v-436c0 -86 18 -143 52 -178c32 -33 81 -49 140 -49s107 16 139 49c34 35 52 92 52 178v436c0 7 8 9 29 9h7
c22 0 32 -2 32 -9zM204 874h262c7 0 8 -4 8 -23v-3c0 -18 -1 -25 -8 -25h-262c-7 0 -8 7 -8 25v3c0 19 1 23 8 23z" />
    <glyph glyph-name="Ubreve" unicode="&#x16c;" horiz-adv-x="670" 
d="M595 711v-444c0 -102 -23 -168 -69 -212c-44 -42 -109 -65 -190 -65c-82 0 -148 22 -192 64c-46 44 -69 110 -69 212v445c0 7 8 9 29 9h8c22 0 32 -2 32 -9v-436c0 -86 18 -143 52 -178c32 -33 81 -49 140 -49s107 16 139 49c34 35 52 92 52 178v436c0 7 8 9 29 9h7
c22 0 32 -2 32 -9zM335 795c-76 0 -136 42 -136 111c0 4 1 6 19 6h12c17 0 18 -1 19 -10c5 -42 35 -66 86 -66s81 24 86 66c1 9 2 10 19 10h12c18 0 19 -2 19 -6c0 -69 -60 -111 -136 -111z" />
    <glyph glyph-name="Uring" unicode="&#x16e;" horiz-adv-x="670" 
d="M595 711v-444c0 -102 -23 -168 -69 -212c-44 -42 -109 -65 -190 -65c-82 0 -148 22 -192 64c-46 44 -69 110 -69 212v445c0 7 8 9 29 9h8c22 0 32 -2 32 -9v-436c0 -86 18 -143 52 -178c32 -33 81 -49 140 -49s107 16 139 49c34 35 52 92 52 178v436c0 7 8 9 29 9h7
c22 0 32 -2 32 -9zM241 868c0 50 43 90 94 90s94 -39 94 -90s-43 -90 -94 -90s-94 40 -94 90zM284 868c0 -31 23 -51 51 -51c30 0 49 23 49 51s-19 51 -49 51c-28 0 -51 -20 -51 -51z" />
    <glyph glyph-name="Uhungarumlaut" unicode="&#x170;" horiz-adv-x="670" 
d="M595 711v-444c0 -102 -23 -168 -69 -212c-44 -42 -109 -65 -190 -65c-82 0 -148 22 -192 64c-46 44 -69 110 -69 212v445c0 7 8 9 29 9h8c22 0 32 -2 32 -9v-436c0 -86 18 -143 52 -178c32 -33 81 -49 140 -49s107 16 139 49c34 35 52 92 52 178v436c0 7 8 9 29 9h7
c22 0 32 -2 32 -9zM309 913h15c23 0 26 -3 21 -10l-88 -119c-4 -5 -8 -6 -27 -6h-4c-16 0 -23 2 -20 7l67 118c4 7 9 10 36 10zM466 913h15c23 0 26 -3 21 -10l-88 -119c-4 -5 -8 -6 -27 -6h-4c-16 0 -23 2 -20 7l67 118c4 7 9 10 36 10z" />
    <glyph glyph-name="Uogonek" unicode="&#x172;" horiz-adv-x="670" 
d="M476 -213c-22 -10 -47 -16 -73 -16c-54 0 -102 35 -102 93c0 53 37 97 82 130c-12 -3 -33 -4 -47 -4c-82 0 -148 22 -192 64c-46 44 -69 110 -69 212v445c0 7 8 9 29 9h8c22 0 32 -2 32 -9v-436c0 -86 18 -143 52 -178c32 -33 81 -49 140 -49s107 16 139 49
c34 35 52 92 52 178v436c0 7 8 9 29 9h7c22 0 32 -2 32 -9v-444c0 -102 -23 -168 -69 -212c-41 -39 -95 -70 -130 -106c-22 -22 -36 -47 -36 -77c0 -34 22 -57 58 -57c17 0 34 5 49 9c4 1 7 -1 10 -14l1 -5c2 -12 2 -16 -2 -18z" />
    <glyph glyph-name="Wgrave" unicode="&#x1e80;" horiz-adv-x="956" 
d="M928 709l-193 -695c-3 -12 -14 -14 -45 -14h-5c-31 0 -43 2 -46 14l-158 577l-158 -577c-3 -12 -14 -14 -45 -14h-5c-31 0 -41 2 -45 14l-198 693c-3 11 1 13 29 13h11c24 0 32 -3 34 -11l174 -642l173 643c2 7 6 10 29 10h8c23 0 27 -3 29 -10l175 -644l170 644
c2 8 6 10 31 10h7c26 0 30 -4 28 -11zM435 913h15c27 0 32 -3 36 -10l67 -118c3 -5 -4 -7 -20 -7h-4c-19 0 -23 1 -27 6l-88 119c-5 7 -2 10 21 10z" />
    <glyph glyph-name="Wacute" unicode="&#x1e82;" horiz-adv-x="956" 
d="M928 709l-193 -695c-3 -12 -14 -14 -45 -14h-5c-31 0 -43 2 -46 14l-158 577l-158 -577c-3 -12 -14 -14 -45 -14h-5c-31 0 -41 2 -45 14l-198 693c-3 11 1 13 29 13h11c24 0 32 -3 34 -11l174 -642l173 643c2 7 6 10 29 10h8c23 0 27 -3 29 -10l175 -644l170 644
c2 8 6 10 31 10h7c26 0 30 -4 28 -11zM514 913h15c23 0 26 -3 21 -10l-88 -119c-4 -5 -8 -6 -27 -6h-4c-16 0 -23 2 -20 7l67 118c4 7 9 10 36 10z" />
    <glyph glyph-name="Wcircumflex" unicode="&#x174;" horiz-adv-x="956" 
d="M928 709l-193 -695c-3 -12 -14 -14 -45 -14h-5c-31 0 -43 2 -46 14l-158 577l-158 -577c-3 -12 -14 -14 -45 -14h-5c-31 0 -41 2 -45 14l-198 693c-3 11 1 13 29 13h11c24 0 32 -3 34 -11l174 -642l173 643c2 7 6 10 29 10h8c23 0 27 -3 29 -10l175 -644l170 644
c2 8 6 10 31 10h7c26 0 30 -4 28 -11zM469 921h26c20 0 27 -3 34 -10l94 -100c4 -4 3 -8 -4 -16l-5 -6c-7 -8 -11 -10 -16 -6l-116 97l-116 -97c-5 -4 -9 -2 -16 6l-5 6c-7 8 -8 12 -4 16l94 100c7 7 14 10 34 10z" />
    <glyph glyph-name="Wdieresis" unicode="&#x1e84;" horiz-adv-x="956" 
d="M928 709l-193 -695c-3 -12 -14 -14 -45 -14h-5c-31 0 -43 2 -46 14l-158 577l-158 -577c-3 -12 -14 -14 -45 -14h-5c-31 0 -41 2 -45 14l-198 693c-3 11 1 13 29 13h11c24 0 32 -3 34 -11l174 -642l173 643c2 7 6 10 29 10h8c23 0 27 -3 29 -10l175 -644l170 644
c2 8 6 10 31 10h7c26 0 30 -4 28 -11zM333 846c0 26 21 48 47 48s48 -22 48 -48s-22 -47 -48 -47s-47 21 -47 47zM535 846c0 26 21 48 47 48s48 -22 48 -48s-22 -47 -48 -47s-47 21 -47 47z" />
    <glyph glyph-name="Ygrave" unicode="&#x1ef2;" horiz-adv-x="523" 
d="M254 0c-21 0 -29 2 -29 9v269l-211 430c-3 7 0 12 29 12h8c28 0 34 -3 38 -11l177 -369l175 371c4 8 9 9 34 9h9c23 0 28 -4 24 -12l-214 -430v-269c0 -7 -10 -9 -32 -9h-8zM218 913h15c27 0 32 -3 36 -10l67 -118c3 -5 -4 -7 -20 -7h-4c-19 0 -23 1 -27 6l-88 119
c-5 7 -2 10 21 10z" />
    <glyph glyph-name="Yacute" unicode="&#xdd;" horiz-adv-x="523" 
d="M254 0c-21 0 -29 2 -29 9v269l-211 430c-3 7 0 12 29 12h8c28 0 34 -3 38 -11l177 -369l175 371c4 8 9 9 34 9h9c23 0 28 -4 24 -12l-214 -430v-269c0 -7 -10 -9 -32 -9h-8zM318 913h15c23 0 26 -3 21 -10l-88 -119c-4 -5 -8 -6 -27 -6h-4c-16 0 -23 2 -20 7l67 118
c4 7 9 10 36 10z" />
    <glyph glyph-name="Ycircumflex" unicode="&#x176;" horiz-adv-x="523" 
d="M254 0c-21 0 -29 2 -29 9v269l-211 430c-3 7 0 12 29 12h8c28 0 34 -3 38 -11l177 -369l175 371c4 8 9 9 34 9h9c23 0 28 -4 24 -12l-214 -430v-269c0 -7 -10 -9 -32 -9h-8zM250 921h26c20 0 27 -3 34 -10l94 -100c4 -4 3 -8 -4 -16l-5 -6c-7 -8 -11 -10 -16 -6l-116 97
l-116 -97c-5 -4 -9 -2 -16 6l-5 6c-7 8 -8 12 -4 16l94 100c7 7 14 10 34 10z" />
    <glyph glyph-name="Ydieresis" unicode="&#x178;" horiz-adv-x="523" 
d="M254 0c-21 0 -29 2 -29 9v269l-211 430c-3 7 0 12 29 12h8c28 0 34 -3 38 -11l177 -369l175 371c4 8 9 9 34 9h9c23 0 28 -4 24 -12l-214 -430v-269c0 -7 -10 -9 -32 -9h-8zM113 846c0 26 21 48 47 48s48 -22 48 -48s-22 -47 -48 -47s-47 21 -47 47zM315 846
c0 26 21 48 47 48s48 -22 48 -48s-22 -47 -48 -47s-47 21 -47 47z" />
    <glyph glyph-name="Zacute" unicode="&#x179;" horiz-adv-x="538" 
d="M474 642l-352 -585h369c7 0 9 -7 9 -27v-4c0 -19 -2 -26 -9 -26h-426c-19 0 -22 2 -22 10v20c0 21 5 31 18 53l351 580h-341c-7 0 -9 7 -9 27v4c0 19 2 26 9 26h399c19 0 22 -2 22 -10v-15c0 -21 -5 -31 -18 -53zM331 913h15c23 0 26 -3 21 -10l-88 -119
c-4 -5 -8 -6 -27 -6h-4c-16 0 -23 2 -20 7l67 118c4 7 9 10 36 10z" />
    <glyph glyph-name="Zcaron" unicode="&#x17d;" horiz-adv-x="538" 
d="M474 642l-352 -585h369c7 0 9 -7 9 -27v-4c0 -19 -2 -26 -9 -26h-426c-19 0 -22 2 -22 10v20c0 21 5 31 18 53l351 580h-341c-7 0 -9 7 -9 27v4c0 19 2 26 9 26h399c19 0 22 -2 22 -10v-15c0 -21 -5 -31 -18 -53zM230 785l-94 100c-4 5 -4 7 4 16l5 6c8 9 11 10 16 6
l116 -97l116 97c5 4 8 3 16 -6l5 -6c8 -9 8 -11 4 -16l-94 -100c-7 -7 -14 -10 -34 -10h-26c-20 0 -27 3 -34 10z" />
    <glyph glyph-name="Zdotaccent" unicode="&#x17b;" horiz-adv-x="538" 
d="M474 642l-352 -585h369c7 0 9 -7 9 -27v-4c0 -19 -2 -26 -9 -26h-426c-19 0 -22 2 -22 10v20c0 21 5 31 18 53l351 580h-341c-7 0 -9 7 -9 27v4c0 19 2 26 9 26h399c19 0 22 -2 22 -10v-15c0 -21 -5 -31 -18 -53zM238 840c0 26 20 47 46 47s47 -21 47 -47
s-21 -46 -47 -46s-46 20 -46 46z" />
    <glyph glyph-name="agrave" unicode="&#xe0;" horiz-adv-x="563" 
d="M484 369v-146c0 -87 2 -144 7 -215c0 -6 -5 -8 -25 -8h-3c-23 0 -26 2 -27 9l-8 62c-31 -52 -91 -81 -161 -81c-152 0 -220 120 -220 265c0 171 96 283 229 283c69 0 118 -29 148 -73l5 53c1 8 7 10 28 10h7c21 0 22 -2 22 -12c0 -9 -1 -22 -1 -32c-1 -31 -1 -74 -1 -115
zM419 246v150c-33 51 -76 82 -139 82c-101 0 -163 -85 -163 -218c0 -105 37 -211 156 -211c48 0 85 13 110 41c28 32 36 62 36 156zM234 721h15c27 0 32 -3 36 -10l67 -118c3 -5 -4 -7 -20 -7h-4c-19 0 -23 1 -27 6l-88 119c-5 7 -2 10 21 10z" />
    <glyph glyph-name="aacute" unicode="&#xe1;" horiz-adv-x="563" 
d="M484 369v-146c0 -87 2 -144 7 -215c0 -6 -5 -8 -25 -8h-3c-23 0 -26 2 -27 9l-8 62c-31 -52 -91 -81 -161 -81c-152 0 -220 120 -220 265c0 171 96 283 229 283c69 0 118 -29 148 -73l5 53c1 8 7 10 28 10h7c21 0 22 -2 22 -12c0 -9 -1 -22 -1 -32c-1 -31 -1 -74 -1 -115
zM419 246v150c-33 51 -76 82 -139 82c-101 0 -163 -85 -163 -218c0 -105 37 -211 156 -211c48 0 85 13 110 41c28 32 36 62 36 156zM334 721h15c23 0 26 -3 21 -10l-88 -119c-4 -5 -8 -6 -27 -6h-4c-16 0 -23 2 -20 7l67 118c4 7 9 10 36 10z" />
    <glyph glyph-name="acircumflex" unicode="&#xe2;" horiz-adv-x="563" 
d="M484 369v-146c0 -87 2 -144 7 -215c0 -6 -5 -8 -25 -8h-3c-23 0 -26 2 -27 9l-8 62c-31 -52 -91 -81 -161 -81c-152 0 -220 120 -220 265c0 171 96 283 229 283c69 0 118 -29 148 -73l5 53c1 8 7 10 28 10h7c21 0 22 -2 22 -12c0 -9 -1 -22 -1 -32c-1 -31 -1 -74 -1 -115
zM419 246v150c-33 51 -76 82 -139 82c-101 0 -163 -85 -163 -218c0 -105 37 -211 156 -211c48 0 85 13 110 41c28 32 36 62 36 156zM268 729h26c20 0 27 -3 34 -10l94 -100c4 -4 3 -8 -4 -16l-5 -6c-7 -8 -11 -10 -16 -6l-116 97l-116 -97c-5 -4 -9 -2 -16 6l-5 6
c-7 8 -8 12 -4 16l94 100c7 7 14 10 34 10z" />
    <glyph glyph-name="atilde" unicode="&#xe3;" horiz-adv-x="563" 
d="M484 369v-146c0 -87 2 -144 7 -215c0 -6 -5 -8 -25 -8h-3c-23 0 -26 2 -27 9l-8 62c-31 -52 -91 -81 -161 -81c-152 0 -220 120 -220 265c0 171 96 283 229 283c69 0 118 -29 148 -73l5 53c1 8 7 10 28 10h7c21 0 22 -2 22 -12c0 -9 -1 -22 -1 -32c-1 -31 -1 -74 -1 -115
zM419 246v150c-33 51 -76 82 -139 82c-101 0 -163 -85 -163 -218c0 -105 37 -211 156 -211c48 0 85 13 110 41c28 32 36 62 36 156zM431 665c-18 -23 -54 -44 -88 -44c-55 0 -83 38 -128 38c-21 0 -36 -9 -58 -30c-4 -3 -8 -2 -16 8l-8 10c-5 7 -6 11 -2 16
c18 23 54 44 88 44c55 0 83 -38 128 -38c21 0 36 9 58 30c4 3 8 2 16 -8l8 -10c5 -7 6 -11 2 -16z" />
    <glyph glyph-name="adieresis" unicode="&#xe4;" horiz-adv-x="563" 
d="M484 369v-146c0 -87 2 -144 7 -215c0 -6 -5 -8 -25 -8h-3c-23 0 -26 2 -27 9l-8 62c-31 -52 -91 -81 -161 -81c-152 0 -220 120 -220 265c0 171 96 283 229 283c69 0 118 -29 148 -73l5 53c1 8 7 10 28 10h7c21 0 22 -2 22 -12c0 -9 -1 -22 -1 -32c-1 -31 -1 -74 -1 -115
zM419 246v150c-33 51 -76 82 -139 82c-101 0 -163 -85 -163 -218c0 -105 37 -211 156 -211c48 0 85 13 110 41c28 32 36 62 36 156zM133 654c0 26 21 48 47 48s48 -22 48 -48s-22 -47 -48 -47s-47 21 -47 47zM335 654c0 26 21 48 47 48s48 -22 48 -48s-22 -47 -48 -47
s-47 21 -47 47z" />
    <glyph glyph-name="amacron" unicode="&#x101;" horiz-adv-x="563" 
d="M484 369v-146c0 -87 2 -144 7 -215c0 -6 -5 -8 -25 -8h-3c-23 0 -26 2 -27 9l-8 62c-31 -52 -91 -81 -161 -81c-152 0 -220 120 -220 265c0 171 96 283 229 283c69 0 118 -29 148 -73l5 53c1 8 7 10 28 10h7c21 0 22 -2 22 -12c0 -9 -1 -22 -1 -32c-1 -31 -1 -74 -1 -115
zM419 246v150c-33 51 -76 82 -139 82c-101 0 -163 -85 -163 -218c0 -105 37 -211 156 -211c48 0 85 13 110 41c28 32 36 62 36 156zM150 684h262c7 0 8 -4 8 -23v-3c0 -18 -1 -25 -8 -25h-262c-7 0 -8 7 -8 25v3c0 19 1 23 8 23z" />
    <glyph glyph-name="abreve" unicode="&#x103;" horiz-adv-x="563" 
d="M484 369v-146c0 -87 2 -144 7 -215c0 -6 -5 -8 -25 -8h-3c-23 0 -26 2 -27 9l-8 62c-31 -52 -91 -81 -161 -81c-152 0 -220 120 -220 265c0 171 96 283 229 283c69 0 118 -29 148 -73l5 53c1 8 7 10 28 10h7c21 0 22 -2 22 -12c0 -9 -1 -22 -1 -32c-1 -31 -1 -74 -1 -115
zM419 246v150c-33 51 -76 82 -139 82c-101 0 -163 -85 -163 -218c0 -105 37 -211 156 -211c48 0 85 13 110 41c28 32 36 62 36 156zM281 595c-76 0 -136 42 -136 111c0 4 1 6 19 6h12c17 0 18 -1 19 -10c5 -42 35 -66 86 -66s81 24 86 66c1 9 2 10 19 10h12
c18 0 19 -2 19 -6c0 -69 -60 -111 -136 -111z" />
    <glyph glyph-name="acaron" unicode="&#x1ce;" horiz-adv-x="563" 
d="M484 369v-146c0 -87 2 -144 7 -215c0 -6 -5 -8 -25 -8h-3c-23 0 -26 2 -27 9l-8 62c-31 -52 -91 -81 -161 -81c-152 0 -220 120 -220 265c0 171 96 283 229 283c69 0 118 -29 148 -73l5 53c1 8 7 10 28 10h7c21 0 22 -2 22 -12c0 -9 -1 -22 -1 -32c-1 -31 -1 -74 -1 -115
zM419 246v150c-33 51 -76 82 -139 82c-101 0 -163 -85 -163 -218c0 -105 37 -211 156 -211c48 0 85 13 110 41c28 32 36 62 36 156zM294 583h-26c-20 0 -27 3 -34 10l-94 100c-4 4 -3 8 4 16l5 6c7 8 11 10 16 6l116 -97l116 97c5 4 9 2 16 -6l5 -6c7 -8 8 -12 4 -16
l-94 -100c-7 -7 -14 -10 -34 -10z" />
    <glyph glyph-name="aring" unicode="&#xe5;" horiz-adv-x="563" 
d="M484 369v-146c0 -87 2 -144 7 -215c0 -6 -5 -8 -25 -8h-3c-23 0 -26 2 -27 9l-8 62c-31 -52 -91 -81 -161 -81c-152 0 -220 120 -220 265c0 171 96 283 229 283c69 0 118 -29 148 -73l5 53c1 8 7 10 28 10h7c21 0 22 -2 22 -12c0 -9 -1 -22 -1 -32c-1 -31 -1 -74 -1 -115
zM419 246v150c-33 51 -76 82 -139 82c-101 0 -163 -85 -163 -218c0 -105 37 -211 156 -211c48 0 85 13 110 41c28 32 36 62 36 156zM187 668c0 50 43 90 94 90s94 -39 94 -90s-43 -90 -94 -90s-94 40 -94 90zM230 668c0 -31 23 -51 51 -51c30 0 49 23 49 51s-19 51 -49 51
c-28 0 -51 -20 -51 -51z" />
    <glyph glyph-name="aringacute" unicode="&#x1fb;" horiz-adv-x="563" 
d="M484 369v-146c0 -87 2 -144 7 -215c0 -6 -5 -8 -25 -8h-3c-23 0 -26 2 -27 9l-8 62c-31 -52 -91 -81 -161 -81c-152 0 -220 120 -220 265c0 171 96 283 229 283c69 0 118 -29 148 -73l5 53c1 8 7 10 28 10h7c21 0 22 -2 22 -12c0 -9 -1 -22 -1 -32c-1 -31 -1 -74 -1 -115
zM419 246v150c-33 51 -76 82 -139 82c-101 0 -163 -85 -163 -218c0 -105 37 -211 156 -211c48 0 85 13 110 41c28 32 36 62 36 156zM187 658c0 50 43 90 94 90s94 -39 94 -90s-43 -90 -94 -90s-94 40 -94 90zM230 658c0 -31 23 -51 51 -51c30 0 49 23 49 51s-19 51 -49 51
c-28 0 -51 -20 -51 -51zM319 903h15c23 0 26 -3 21 -10l-88 -119c-4 -5 -8 -6 -27 -6h-4c-16 0 -23 2 -20 7l67 118c4 7 9 10 36 10z" />
    <glyph glyph-name="aogonek" unicode="&#x105;" horiz-adv-x="563" 
d="M484 369v-146c0 -87 2 -140 7 -211c0 -9 -1 -10 -9 -12c-36 -9 -70 -30 -89 -61c-14 -22 -21 -46 -21 -67c0 -37 22 -57 58 -57c17 0 34 5 49 9c4 1 7 -1 10 -14l1 -5c2 -12 2 -16 -2 -18c-22 -10 -47 -16 -73 -16c-54 0 -100 36 -100 96c0 67 51 122 121 148l-8 56
c-31 -52 -91 -81 -161 -81c-152 0 -220 120 -220 265c0 171 96 283 229 283c69 0 118 -29 148 -73l5 53c1 8 7 10 28 10h7c21 0 22 -2 22 -12c0 -9 -1 -22 -1 -32c-1 -31 -1 -74 -1 -115zM419 246v150c-33 51 -76 82 -139 82c-101 0 -163 -85 -163 -218
c0 -105 37 -211 156 -211c48 0 85 13 110 41c28 32 36 62 36 156z" />
    <glyph glyph-name="ae" unicode="&#xe6;" horiz-adv-x="863" 
d="M804 243h-349c3 -72 22 -123 51 -151s64 -41 116 -41c51 0 99 11 137 30c10 5 14 4 22 -16l4 -10c6 -15 6 -22 -1 -26c-50 -26 -108 -39 -173 -39c-87 0 -155 41 -184 97c-41 -52 -107 -97 -205 -97c-99 0 -177 56 -177 163c0 112 80 170 209 170c43 0 90 -9 133 -26
l1 33c3 108 -41 149 -144 149c-43 0 -91 -9 -138 -27c-8 -3 -12 0 -18 19l-2 6c-6 18 -7 25 0 28c48 21 113 33 167 33c88 0 162 -34 180 -105c33 65 93 105 178 105c79 0 140 -42 173 -108c23 -47 34 -102 34 -162c0 -23 -4 -25 -14 -25zM236 48c73 0 130 34 167 89
c-11 31 -17 66 -18 105c-34 16 -81 29 -129 29c-82 0 -141 -34 -141 -114c0 -71 46 -109 121 -109zM456 295h295c-2 92 -45 182 -142 182c-90 0 -145 -61 -153 -182z" />
    <glyph glyph-name="aeacute" unicode="&#x1fd;" horiz-adv-x="863" 
d="M804 243h-349c3 -72 22 -123 51 -151s64 -41 116 -41c51 0 99 11 137 30c10 5 14 4 22 -16l4 -10c6 -15 6 -22 -1 -26c-50 -26 -108 -39 -173 -39c-87 0 -155 41 -184 97c-41 -52 -107 -97 -205 -97c-99 0 -177 56 -177 163c0 112 80 170 209 170c43 0 90 -9 133 -26
l1 33c3 108 -41 149 -144 149c-43 0 -91 -9 -138 -27c-8 -3 -12 0 -18 19l-2 6c-6 18 -7 25 0 28c48 21 113 33 167 33c88 0 162 -34 180 -105c33 65 93 105 178 105c79 0 140 -42 173 -108c23 -47 34 -102 34 -162c0 -23 -4 -25 -14 -25zM236 48c73 0 130 34 167 89
c-11 31 -17 66 -18 105c-34 16 -81 29 -129 29c-82 0 -141 -34 -141 -114c0 -71 46 -109 121 -109zM456 295h295c-2 92 -45 182 -142 182c-90 0 -145 -61 -153 -182zM511 721h15c23 0 26 -3 21 -10l-88 -119c-4 -5 -8 -6 -27 -6h-4c-16 0 -23 2 -20 7l67 118c4 7 9 10 36 10
z" />
    <glyph glyph-name="cacute" unicode="&#x107;" horiz-adv-x="483" 
d="M446 493c7 -5 7 -9 -2 -28l-4 -8c-9 -18 -14 -20 -23 -15c-40 24 -81 35 -122 35c-106 0 -178 -77 -178 -215c0 -113 44 -213 167 -213c48 0 92 9 131 30c9 5 13 1 20 -17l4 -11c6 -16 6 -20 -1 -24c-42 -24 -100 -37 -161 -37c-155 0 -230 116 -230 266
c0 183 105 282 243 282c60 0 111 -15 156 -45zM338 721h15c23 0 26 -3 21 -10l-88 -119c-4 -5 -8 -6 -27 -6h-4c-16 0 -23 2 -20 7l67 118c4 7 9 10 36 10z" />
    </font>
</defs>
</svg>
