<?xml version="1.0" standalone="no"?>
<!DOCTYPE svg PUBLIC "-//W3C//DTD SVG 1.1//EN" "http://www.w3.org/Graphics/SVG/1.1/DTD/svg11.dtd" >
<svg xmlns="http://www.w3.org/2000/svg" xmlns:xlink="http://www.w3.org/1999/xlink" version="1.1">
<metadata>
Created by FontForge 20170924 at Mon Sep 12 11:25:24 2016
 By www-data
Copyright \(c\) 2011 by Fontsmith Ltd. All rights reserved.
</metadata>
<defs>
<font id="FSMePro-Heavy" horiz-adv-x="409" >
  <font-face 
    font-family="FS Me Pro Heavy"
    font-weight="900"
    font-stretch="normal"
    units-per-em="1000"
    panose-1="2 0 5 3 5 0 0 2 0 4"
    ascent="750"
    descent="-250"
    x-height="528"
    cap-height="720"
    bbox="-123 -332.229 1343 1148"
    underline-thickness="120"
    underline-position="-100"
    stemh="129"
    stemv="165"
    unicode-range="U+000D-FB04"
  />
<missing-glyph horiz-adv-x="694" 
d="M90 0v720h514v-720h-514zM348 406l174 263h-350zM378 360l175 -262v524zM172 52h350l-174 262zM142 622v-524l174 262z" />
    <glyph glyph-name="fi" unicode="fi" horiz-adv-x="663" 
d="M512 528h5c71 0 77 -6 77 -22v-484c0 -16 -6 -22 -77 -22h-5c-78 0 -80 6 -80 22v484c0 16 2 22 80 22zM91 528v13c0 72 19 125 59 164c43 43 109 65 203 65c69 0 138 -14 199 -42c13 -6 13 -16 -1 -54l-7 -19c-14 -39 -21 -45 -37 -39c-49 20 -97 29 -140 29
c-41 0 -70 -9 -88 -28c-19 -20 -26 -48 -26 -89h104c15 0 19 -3 19 -53v-7c0 -50 -4 -53 -19 -53h-104v-393c0 -16 -7 -22 -78 -22h-5c-77 0 -79 6 -79 22v393h-59c-15 0 -19 3 -19 53v7c0 50 4 53 19 53h59z" />
    <glyph glyph-name="fl" unicode="fl" horiz-adv-x="678" 
d="M91 528v6c0 82 22 136 65 175c47 42 115 61 203 61c86 0 158 -20 199 -45c20 -12 28 -20 29 -59c2 -55 3 -136 3 -216v-308c0 -18 6 -26 23 -26h14c15 0 16 -6 16 -51v-9c0 -39 -4 -46 -15 -51c-14 -6 -36 -10 -73 -10c-41 0 -73 12 -92 31c-26 26 -35 61 -35 108v337
c0 47 -2 113 -4 164c-19 7 -38 10 -63 10c-37 0 -62 -8 -80 -27c-19 -20 -28 -46 -28 -90h104c15 0 19 -3 19 -53v-7c0 -50 -4 -53 -19 -53h-104v-393c0 -16 -7 -22 -78 -22h-5c-77 0 -79 6 -79 22v393h-59c-15 0 -19 3 -19 53v7c0 50 4 53 19 53h59z" />
    <glyph glyph-name="f_f" unicode="ff" horiz-adv-x="749" 
d="M452 415h-199v-393c0 -16 -7 -22 -78 -22h-5c-77 0 -79 6 -79 22v393h-59c-15 0 -19 3 -19 53v7c0 50 4 53 19 53h59v23c0 71 21 128 58 166c34 35 84 53 150 53c43 0 90 -8 118 -19c13 -5 12 -18 3 -55l-4 -16c-11 -42 -14 -47 -29 -43c-21 5 -41 8 -61 8
c-29 0 -46 -7 -58 -23c-10 -14 -15 -40 -15 -75v-19h199v23c0 71 21 128 58 166c34 35 84 53 150 53c43 0 90 -8 118 -19c13 -5 12 -18 3 -55l-4 -16c-11 -42 -14 -47 -29 -43c-21 5 -41 8 -61 8c-29 0 -46 -7 -58 -23c-10 -14 -15 -40 -15 -75v-19h104c15 0 19 -3 19 -53
v-7c0 -50 -4 -53 -19 -53h-104v-393c0 -16 -7 -22 -78 -22h-5c-77 0 -79 6 -79 22v393z" />
    <glyph glyph-name="f_f_i" unicode="ffi" horiz-adv-x="1024" 
d="M452 528v13c0 72 19 125 59 164c43 43 109 65 203 65c69 0 138 -14 199 -42c13 -6 13 -16 -1 -54l-7 -19c-14 -39 -21 -45 -37 -39c-49 20 -97 29 -140 29c-41 0 -70 -9 -88 -28c-19 -20 -26 -48 -26 -89h104c15 0 19 -3 19 -53v-7c0 -50 -4 -53 -19 -53h-104v-393
c0 -16 -7 -22 -78 -22h-5c-77 0 -79 6 -79 22v393h-199v-393c0 -16 -7 -22 -78 -22h-5c-77 0 -79 6 -79 22v393h-59c-15 0 -19 3 -19 53v7c0 50 4 53 19 53h59v23c0 71 21 128 58 166c34 35 84 53 150 53c43 0 90 -8 118 -19c13 -5 12 -18 3 -55l-4 -16
c-11 -42 -14 -47 -29 -43c-21 5 -41 8 -61 8c-29 0 -46 -7 -58 -23c-10 -14 -15 -40 -15 -75v-19h199zM873 528h5c71 0 77 -6 77 -22v-484c0 -16 -6 -22 -77 -22h-5c-78 0 -80 6 -80 22v484c0 16 2 22 80 22z" />
    <glyph glyph-name="f_j" unicode="fj" horiz-adv-x="663" 
d="M91 528v13c0 72 19 125 59 164c43 43 109 65 203 65c69 0 138 -14 199 -42c13 -6 13 -16 -1 -54l-7 -19c-14 -39 -21 -45 -37 -39c-49 20 -97 29 -140 29c-41 0 -70 -9 -88 -28c-19 -20 -26 -48 -26 -89h104c15 0 19 -3 19 -53v-7c0 -50 -4 -53 -19 -53h-104v-393
c0 -16 -7 -22 -78 -22h-5c-77 0 -79 6 -79 22v393h-59c-15 0 -19 3 -19 53v7c0 50 4 53 19 53h59zM512 528h5c70 0 77 -6 77 -22v-500c0 -176 -80 -239 -201 -239c-40 0 -87 10 -106 19c-15 7 -15 14 -5 53l4 16c10 41 13 50 34 45c16 -4 35 -7 53 -7c22 0 38 7 47 20
c10 15 12 33 12 73v520c0 16 2 22 80 22z" />
    <glyph glyph-name="f_f_j" unicode="ffj" horiz-adv-x="1024" 
d="M452 528v13c0 72 19 125 59 164c43 43 109 65 203 65c69 0 138 -14 199 -42c13 -6 13 -16 -1 -54l-7 -19c-14 -39 -21 -45 -37 -39c-49 20 -97 29 -140 29c-41 0 -70 -9 -88 -28c-19 -20 -26 -48 -26 -89h104c15 0 19 -3 19 -53v-7c0 -50 -4 -53 -19 -53h-104v-393
c0 -16 -7 -22 -78 -22h-5c-77 0 -79 6 -79 22v393h-199v-393c0 -16 -7 -22 -78 -22h-5c-77 0 -79 6 -79 22v393h-59c-15 0 -19 3 -19 53v7c0 50 4 53 19 53h59v23c0 71 21 128 58 166c34 35 84 53 150 53c43 0 90 -8 118 -19c13 -5 12 -18 3 -55l-4 -16
c-11 -42 -14 -47 -29 -43c-21 5 -41 8 -61 8c-29 0 -46 -7 -58 -23c-10 -14 -15 -40 -15 -75v-19h199zM873 528h5c70 0 77 -6 77 -22v-500c0 -176 -80 -239 -201 -239c-40 0 -87 10 -106 19c-15 7 -15 14 -5 53l4 16c10 41 13 50 34 45c16 -4 35 -7 53 -7c22 0 38 7 47 20
c10 15 12 33 12 73v520c0 16 2 22 80 22z" />
    <glyph glyph-name="f_f_l" unicode="ffl" horiz-adv-x="1039" 
d="M452 415h-199v-393c0 -16 -7 -22 -78 -22h-5c-77 0 -79 6 -79 22v393h-59c-15 0 -19 3 -19 53v7c0 50 4 53 19 53h59v23c0 71 21 128 58 166c34 35 84 53 150 53c43 0 90 -8 118 -19c13 -5 12 -18 3 -55l-4 -16c-11 -42 -14 -47 -29 -43c-21 5 -41 8 -61 8
c-29 0 -46 -7 -58 -23c-10 -14 -15 -40 -15 -75v-19h199v6c0 82 22 136 65 175c47 42 115 61 203 61c86 0 158 -20 199 -45c20 -12 28 -20 29 -59c2 -55 3 -136 3 -216v-308c0 -18 6 -26 23 -26h14c15 0 16 -6 16 -51v-9c0 -39 -4 -46 -15 -51c-14 -6 -36 -10 -73 -10
c-41 0 -73 12 -92 31c-26 26 -35 61 -35 108v337c0 47 -2 113 -4 164c-19 7 -38 10 -63 10c-37 0 -62 -8 -80 -27c-19 -20 -28 -46 -28 -90h104c15 0 19 -3 19 -53v-7c0 -50 -4 -53 -19 -53h-104v-393c0 -16 -7 -22 -78 -22h-5c-77 0 -79 6 -79 22v393z" />
    <glyph glyph-name=".notdef" horiz-adv-x="694" 
d="M90 0v720h514v-720h-514zM348 406l174 263h-350zM378 360l175 -262v524zM172 52h350l-174 262zM142 622v-524l174 262z" />
    <glyph glyph-name=".null" horiz-adv-x="0" 
 />
    <glyph glyph-name=".null" horiz-adv-x="0" 
 />
    <glyph glyph-name="CR" unicode="&#xd;" horiz-adv-x="246" 
 />
    <glyph glyph-name="nbspace" unicode="&#xa0;" horiz-adv-x="246" 
 />
    <glyph glyph-name="space" unicode=" " horiz-adv-x="246" 
 />
    <glyph glyph-name="A" unicode="A" horiz-adv-x="668" 
d="M328 720h8c63 0 75 -4 81 -21l241 -671c7 -19 -3 -28 -74 -28h-12c-66 0 -83 7 -88 22l-54 157h-201l-52 -157c-5 -15 -18 -22 -85 -22h-12c-68 0 -78 6 -70 27l238 672c6 17 17 21 80 21zM284 346l-14 -44h119l-12 44c-14 53 -27 110 -45 202c-17 -92 -31 -149 -48 -202
z" />
    <glyph glyph-name="B" unicode="B" horiz-adv-x="624" 
d="M241 308v-181h42c47 0 75 5 94 20c18 14 28 36 28 73c0 34 -10 55 -28 68c-19 14 -43 20 -95 20h-41zM241 592v-161h28c34 0 56 4 75 18c17 13 27 34 27 66c0 28 -8 49 -23 61c-17 14 -41 16 -79 16h-28zM545 540c0 -73 -34 -125 -94 -156c74 -26 129 -77 129 -168
c0 -55 -15 -99 -52 -140c-47 -52 -125 -76 -247 -76h-152c-51 0 -59 3 -59 22v675c0 20 8 23 59 23h125c103 0 165 -10 216 -40c47 -28 75 -73 75 -140z" />
    <glyph glyph-name="C" unicode="C" horiz-adv-x="599" 
d="M551 608l-13 -22c-21 -35 -31 -43 -46 -33c-42 27 -75 42 -122 42c-99 0 -162 -82 -162 -238c0 -146 54 -231 159 -231c43 0 89 11 134 36c18 10 24 5 42 -36l10 -23c16 -36 19 -45 2 -56c-58 -36 -124 -57 -209 -57c-200 0 -313 138 -313 363s121 377 323 377
c84 0 153 -23 205 -63c16 -12 13 -20 -10 -59z" />
    <glyph glyph-name="D" unicode="D" horiz-adv-x="683" 
d="M241 591v-462h36c70 0 120 18 151 53c35 39 47 100 47 179c0 76 -10 132 -42 172c-31 38 -80 58 -157 58h-35zM128 720h142c139 0 223 -28 288 -92c59 -57 92 -146 92 -267c0 -115 -36 -213 -102 -278c-63 -61 -153 -83 -280 -83h-140c-51 0 -58 3 -58 22v675
c0 20 7 23 58 23z" />
    <glyph glyph-name="E" unicode="E" horiz-adv-x="576" 
d="M129 720h372c20 0 23 -2 23 -60v-8c0 -56 -4 -61 -23 -61h-260v-163h219c20 0 23 -2 23 -60v-8c0 -55 -4 -61 -23 -61h-219v-170h264c20 0 23 -2 23 -60v-7c0 -55 -5 -62 -23 -62h-376c-51 0 -59 3 -59 22v675c0 20 8 23 59 23z" />
    <glyph glyph-name="F" unicode="F" horiz-adv-x="548" 
d="M241 591v-163h218c20 0 24 -2 24 -60v-8c0 -55 -4 -61 -24 -61h-218v-278c0 -16 -18 -21 -81 -21h-11c-67 0 -79 3 -79 21v676c0 20 8 23 59 23h373c19 0 22 -3 22 -60v-8c0 -54 -3 -61 -22 -61h-261z" />
    <glyph glyph-name="G" unicode="G" horiz-adv-x="677" 
d="M343 411h220c46 0 50 -3 50 -23v-322c0 -11 -1 -19 -19 -28c-54 -28 -147 -48 -235 -48c-215 0 -326 137 -326 370c0 115 34 208 94 274c58 62 144 96 244 96c89 0 160 -25 216 -65c18 -13 19 -19 -8 -65l-12 -20c-27 -45 -35 -43 -53 -31c-43 29 -82 46 -133 46
c-113 0 -173 -81 -173 -234c0 -154 51 -237 165 -237c21 0 46 3 69 9v149h-99c-17 0 -21 4 -21 61v8c0 57 4 60 21 60z" />
    <glyph glyph-name="H" unicode="H" horiz-adv-x="700" 
d="M149 720h10c64 0 82 -5 82 -23v-269h218v269c0 18 12 23 79 23h11c63 0 81 -5 81 -23v-675c0 -17 -18 -22 -81 -22h-11c-67 0 -79 5 -79 22v277h-218v-277c0 -17 -18 -22 -82 -22h-10c-68 0 -79 5 -79 22v675c0 18 11 23 79 23z" />
    <glyph glyph-name="I" unicode="I" horiz-adv-x="429" 
d="M300 113h60c14 0 16 -4 16 -52v-5c0 -52 -2 -56 -16 -56h-291c-14 0 -16 4 -16 56v5c0 48 2 52 16 52h60v494h-60c-14 0 -16 4 -16 52v5c0 52 2 56 16 56h291c14 0 16 -3 16 -55v-5c0 -48 -2 -53 -16 -53h-60v-494z" />
    <glyph glyph-name="J" unicode="J" horiz-adv-x="486" 
d="M326 720h11c64 0 81 -6 81 -23v-453c0 -91 -20 -150 -57 -191c-40 -43 -99 -63 -176 -63c-48 0 -101 10 -144 28c-17 7 -16 22 -5 58l6 20c12 40 18 53 40 46c27 -9 63 -18 85 -18c27 0 47 8 60 22c18 21 20 52 20 100v451c0 17 12 23 79 23z" />
    <glyph glyph-name="K" unicode="K" horiz-adv-x="634" 
d="M149 720h10c64 0 82 -6 82 -23v-239l11 12c80 87 139 167 183 234c9 13 16 16 77 16h11c73 0 83 -4 74 -24c-31 -68 -99 -164 -214 -284l224 -383c12 -20 2 -29 -63 -29h-29c-73 0 -77 2 -86 18l-159 277l-29 -30v-243c0 -14 -18 -22 -82 -22h-10c-68 0 -79 5 -79 22v675
c0 17 11 23 79 23z" />
    <glyph glyph-name="L" unicode="L" horiz-adv-x="529" 
d="M149 720h11c63 0 81 -6 81 -23v-568h243c20 0 23 -4 23 -60v-7c0 -57 -3 -62 -23 -62h-356c-50 0 -58 3 -58 22v675c0 17 12 23 79 23z" />
    <glyph glyph-name="M" unicode="M" horiz-adv-x="846" 
d="M173 720h12c63 0 75 -4 83 -22l94 -225c26 -62 52 -129 66 -175c17 51 45 122 65 172l91 228c6 14 12 22 83 22h8c68 0 78 -4 79 -23l27 -672c1 -20 -6 -25 -79 -25h-7c-69 0 -76 5 -76 22l-4 223c-1 66 6 162 20 252c-24 -80 -65 -179 -87 -234l-52 -129
c-7 -16 -9 -22 -66 -22h-10c-58 0 -59 6 -66 22l-53 126c-24 58 -61 152 -85 238c11 -88 16 -180 14 -253l-7 -223c-1 -20 -9 -22 -75 -22h-5c-72 0 -79 3 -78 23l29 674c1 20 9 23 79 23z" />
    <glyph glyph-name="N" unicode="N" horiz-adv-x="716" 
d="M140 720h5c59 0 68 -7 77 -20l180 -268c35 -52 63 -103 91 -160c-6 64 -9 117 -9 185v240c0 17 11 23 78 23h6c66 0 78 -6 78 -23v-675c0 -17 -5 -22 -71 -22h-6c-53 0 -66 5 -76 20l-179 268c-45 69 -67 109 -94 166c8 -72 12 -132 12 -191v-241c0 -17 -15 -22 -77 -22
h-6c-67 0 -79 3 -79 22v675c0 20 4 23 70 23z" />
    <glyph glyph-name="O" unicode="O" horiz-adv-x="707" 
d="M361 596c-100 0 -153 -85 -153 -242c0 -163 51 -230 138 -230c100 0 153 85 153 242c0 163 -51 230 -138 230zM364 730c183 0 310 -106 310 -360c0 -230 -111 -380 -331 -380c-183 0 -310 106 -310 360c0 230 112 380 331 380z" />
    <glyph glyph-name="P" unicode="P" horiz-adv-x="587" 
d="M129 720h118c118 0 198 -13 254 -68c37 -38 56 -93 56 -162c0 -67 -23 -128 -66 -173c-42 -43 -116 -69 -210 -69c-12 0 -27 0 -40 1v-227c0 -17 -17 -22 -81 -22h-11c-67 0 -79 5 -79 22v675c0 20 8 23 59 23zM241 591v-213c9 -1 25 -1 33 -1c42 0 68 9 87 32
c16 19 21 46 21 81c0 29 -7 52 -19 68c-18 23 -44 33 -99 33h-23z" />
    <glyph glyph-name="Q" unicode="Q" horiz-adv-x="707" 
d="M607 -68l-16 -13c-41 -33 -47 -31 -62 -18c-31 28 -63 64 -90 99c-26 -6 -63 -10 -96 -10c-183 0 -310 106 -310 360c0 230 112 380 331 380c183 0 310 -106 310 -360c0 -125 -39 -237 -118 -310c20 -25 48 -53 78 -80c13 -12 13 -16 -27 -48zM351 250l16 8
c45 22 53 18 59 5c11 -23 28 -56 41 -77c27 46 32 107 32 180c0 163 -51 230 -138 230c-100 0 -153 -85 -153 -242c0 -158 47 -231 150 -231c-18 29 -35 62 -45 85c-6 15 -4 21 38 42z" />
    <glyph glyph-name="R" unicode="R" horiz-adv-x="627" 
d="M128 720h131c117 0 194 -14 246 -68c33 -36 53 -86 53 -148c0 -90 -42 -162 -122 -202l19 -35c50 -92 98 -165 150 -235c15 -20 10 -32 -49 -32h-54c-40 0 -56 1 -72 17c-25 27 -64 94 -119 197l-30 56h-40v-248c0 -17 -18 -22 -82 -22h-10c-68 0 -79 5 -79 22v675
c0 20 7 23 58 23zM241 591v-194h33c36 0 60 5 79 21c20 16 30 44 30 84c0 33 -8 55 -24 69c-18 15 -39 20 -86 20h-32z" />
    <glyph glyph-name="S" unicode="S" horiz-adv-x="563" 
d="M484 612l-10 -21c-20 -42 -30 -44 -42 -36c-37 25 -77 44 -122 44s-79 -25 -79 -69c0 -41 24 -59 104 -99c99 -49 183 -103 183 -223c0 -129 -87 -218 -252 -218c-90 0 -171 34 -223 70c-13 9 -13 17 7 57l12 24c23 46 34 52 51 40c49 -35 99 -57 146 -57
c60 0 88 29 88 76c0 53 -48 75 -105 105c-100 53 -182 92 -182 211c0 136 111 214 241 214c70 0 134 -19 189 -56c16 -11 14 -20 -6 -62z" />
    <glyph glyph-name="T" unicode="T" horiz-adv-x="546" 
d="M187 591h-151c-20 0 -23 5 -23 62v7c0 56 3 60 23 60h474c20 0 23 -4 23 -60v-7c0 -57 -3 -62 -23 -62h-152v-569c0 -17 -17 -22 -81 -22h-11c-67 0 -79 5 -79 22v569z" />
    <glyph glyph-name="U" unicode="U" horiz-adv-x="703" 
d="M145 720h11c67 0 81 -6 81 -23v-424c0 -64 12 -99 33 -120s49 -29 82 -29s61 9 82 29c23 21 35 56 35 120v424c0 17 11 23 79 23h8c63 0 81 -6 81 -23v-417c0 -106 -24 -166 -66 -213c-45 -51 -119 -77 -222 -77c-105 0 -179 26 -223 77c-41 47 -60 103 -60 210v420
c0 17 11 23 79 23z" />
    <glyph glyph-name="V" unicode="V" horiz-adv-x="662" 
d="M96 720h16c73 0 82 -7 87 -23l92 -311c16 -55 30 -122 47 -208c16 86 30 153 46 208l91 311c5 18 12 23 81 23h4c71 0 85 -8 80 -26l-205 -668c-6 -19 -23 -26 -93 -26h-5c-74 0 -92 7 -98 24l-216 669c-6 19 1 27 73 27z" />
    <glyph glyph-name="W" unicode="W" horiz-adv-x="989" 
d="M103 720h14c67 0 81 -6 85 -23l64 -295c14 -63 31 -148 43 -228c9 61 29 167 43 228l65 295c4 18 12 23 80 23h9c68 0 78 -7 82 -23l67 -296c13 -56 29 -135 43 -227c11 68 29 171 41 227l61 296c4 18 14 23 83 23h6c74 0 81 -10 77 -26l-182 -672
c-4 -15 -18 -22 -85 -22h-12c-70 0 -86 5 -90 22l-51 207c-18 72 -36 170 -46 265c-12 -92 -34 -200 -49 -265l-49 -207c-4 -15 -15 -22 -83 -22h-20c-70 0 -79 4 -84 22l-191 672c-5 19 5 26 79 26z" />
    <glyph glyph-name="X" unicode="X" horiz-adv-x="623" 
d="M93 720h40c57 0 70 -4 78 -17l65 -110c16 -27 30 -53 46 -85l46 85l59 110c7 13 12 17 76 17h41c63 0 66 -10 56 -27l-125 -206c-24 -40 -51 -83 -73 -117c21 -30 39 -59 60 -95l147 -249c11 -18 3 -26 -64 -26h-40c-57 0 -70 4 -78 17l-74 127c-19 33 -33 62 -49 98
c-17 -36 -35 -71 -50 -98l-69 -127c-7 -13 -14 -17 -76 -17h-41c-62 0 -66 11 -56 27l146 238c21 35 43 70 66 104c-21 31 -45 70 -66 106l-129 219c-11 19 -3 26 64 26z" />
    <glyph glyph-name="Y" unicode="Y" horiz-adv-x="600" 
d="M85 720h22c62 0 77 -5 85 -21l72 -155c17 -36 31 -68 46 -112c15 44 27 73 44 112l68 156c7 14 16 20 78 20h22c66 0 76 -9 68 -27l-205 -411v-260c0 -17 -18 -22 -81 -22h-11c-68 0 -79 5 -79 22v260l-204 410c-9 18 -1 28 75 28z" />
    <glyph glyph-name="Z" unicode="Z" horiz-adv-x="587" 
d="M526 0h-430c-51 0 -58 3 -58 22v51c0 24 5 44 23 72l278 446h-255c-20 0 -23 5 -23 62v7c0 60 4 60 23 60h396c51 0 58 -1 58 -21v-52c0 -22 -4 -43 -22 -72l-278 -446h288c18 0 23 0 23 -60v-7c0 -57 -3 -62 -23 -62z" />
    <glyph glyph-name="a" unicode="a" horiz-adv-x="586" 
d="M380 487l3 23c1 11 4 18 64 18h6c62 0 71 -5 71 -21c0 -52 -2 -121 -2 -210v-59c0 -69 3 -159 6 -212c2 -20 1 -26 -69 -26h-5c-58 0 -67 3 -72 17c-3 9 -5 20 -6 30c-31 -40 -69 -57 -125 -57c-132 0 -217 100 -217 264c0 182 105 284 229 284c50 0 94 -21 117 -51z
M360 204v167c-15 21 -42 36 -70 36c-61 0 -90 -54 -90 -149c0 -81 22 -141 88 -141c25 0 43 6 56 19c12 12 16 30 16 68z" />
    <glyph glyph-name="b" unicode="b" horiz-adv-x="587" 
d="M143 760h4c71 0 78 -6 78 -22v-236c31 23 69 36 113 36c131 0 215 -100 215 -266c0 -96 -27 -169 -76 -218c-43 -43 -117 -64 -204 -64c-71 0 -154 17 -192 41c-16 10 -18 18 -18 32v675c0 16 2 22 80 22zM225 340v-217c14 -4 30 -6 51 -6c33 0 64 11 81 33
c19 24 30 64 30 122c0 57 -11 92 -28 111c-16 19 -38 26 -62 26c-28 0 -49 -8 -60 -20c-8 -8 -12 -20 -12 -49z" />
    <glyph glyph-name="c" unicode="c" horiz-adv-x="502" 
d="M461 429l-10 -18c-24 -43 -30 -45 -44 -35c-31 21 -59 31 -97 31c-61 0 -110 -42 -110 -140c0 -93 38 -146 113 -146c39 0 74 10 98 24c21 12 26 9 44 -37l6 -15c15 -37 17 -48 5 -56c-49 -32 -103 -47 -171 -47c-75 0 -138 22 -179 60c-53 49 -82 122 -82 210
c0 85 26 156 75 207c44 44 108 71 193 71c65 0 126 -20 170 -54c12 -9 9 -19 -11 -55z" />
    <glyph glyph-name="d" unicode="d" horiz-adv-x="599" 
d="M442 760h5c71 0 78 -6 78 -22v-600c0 -16 8 -20 25 -20c15 0 16 -5 16 -47v-11c0 -37 -2 -46 -14 -51c-18 -8 -46 -13 -75 -13c-44 0 -81 20 -94 51c-29 -37 -72 -57 -130 -57c-136 0 -219 102 -219 266c0 177 92 282 228 282c39 0 74 -12 101 -34v234c0 16 2 22 79 22z
M363 200v175c-20 21 -44 33 -73 33c-61 0 -90 -54 -90 -152c0 -57 11 -92 29 -111c15 -19 39 -26 62 -26c28 0 50 8 60 20c9 10 12 26 12 61z" />
    <glyph glyph-name="e" unicode="e" horiz-adv-x="568" 
d="M506 211h-303c11 -62 52 -92 115 -92c48 0 91 11 144 34c11 5 21 0 33 -36l8 -24c12 -37 11 -46 -2 -53c-63 -35 -128 -50 -201 -50c-161 0 -266 99 -266 269c0 164 97 279 256 279c157 0 238 -113 238 -269c0 -52 -4 -58 -22 -58zM202 312h164c-2 55 -24 102 -78 102
c-46 0 -80 -35 -86 -102z" />
    <glyph glyph-name="f" unicode="f" horiz-adv-x="388" 
d="M357 415h-104v-393c0 -16 -7 -22 -78 -22h-5c-77 0 -79 6 -79 22v393h-59c-15 0 -19 3 -19 53v7c0 50 4 53 19 53h59v23c0 71 21 128 58 166c34 35 84 53 150 53c43 0 90 -8 118 -19c13 -5 12 -18 3 -55l-4 -16c-11 -42 -14 -47 -29 -43c-21 5 -41 8 -61 8
c-29 0 -46 -7 -58 -23c-10 -14 -15 -40 -15 -75v-19h104c15 0 19 -3 19 -53v-7c0 -50 -4 -53 -19 -53z" />
    <glyph glyph-name="g" unicode="g" horiz-adv-x="589" 
d="M449 528h10c47 0 52 -1 58 -17c9 -28 9 -123 9 -207v-262c0 -95 -20 -164 -62 -209c-41 -46 -105 -66 -189 -66c-62 0 -130 17 -170 41c-14 8 -16 16 2 57l7 16c19 43 25 50 40 43c31 -15 78 -29 113 -29c69 0 102 32 102 130v11c-31 -26 -67 -38 -114 -38
c-136 0 -221 98 -221 262c1 177 96 278 228 278c53 0 95 -20 129 -55c2 12 4 24 6 31c3 11 7 14 52 14zM364 211v160c-17 23 -39 37 -73 37c-57 0 -91 -48 -91 -148c0 -88 31 -134 93 -134c30 0 50 7 61 22c9 12 10 32 10 63z" />
    <glyph glyph-name="h" unicode="h" horiz-adv-x="596" 
d="M142 760h5c71 0 78 -6 78 -22v-243c30 26 75 43 119 43c64 0 113 -22 143 -56c34 -38 49 -87 49 -161v-299c0 -16 -6 -22 -77 -22h-5c-78 0 -80 6 -80 22v262c0 66 -3 86 -15 100c-11 13 -31 20 -54 20c-25 0 -43 -4 -56 -13s-20 -22 -22 -47c-2 -23 -2 -59 -2 -95v-227
c0 -16 -7 -22 -78 -22h-5c-77 0 -79 6 -79 22v716c0 16 2 22 79 22z" />
    <glyph glyph-name="i" unicode="i" horiz-adv-x="296" 
d="M49 678c0 50 41 94 96 94c56 0 97 -44 97 -94c0 -49 -41 -93 -97 -93c-55 0 -96 44 -96 93zM145 528h5c71 0 77 -6 77 -22v-484c0 -16 -6 -22 -77 -22h-5c-78 0 -80 6 -80 22v484c0 16 2 22 80 22z" />
    <glyph glyph-name="j" unicode="j" horiz-adv-x="305" 
d="M154 528h5c70 0 77 -6 77 -22v-500c0 -176 -80 -239 -201 -239c-40 0 -87 10 -106 19c-15 7 -15 14 -5 53l4 16c10 41 13 50 34 45c16 -4 35 -7 53 -7c22 0 38 7 47 20c10 15 12 33 12 73v520c0 16 2 22 80 22zM58 678c0 50 41 94 96 94c56 0 97 -44 97 -94
c0 -49 -41 -93 -97 -93c-55 0 -96 44 -96 93z" />
    <glyph glyph-name="k" unicode="k" horiz-adv-x="539" 
d="M142 760h5c71 0 78 -6 78 -22v-386c48 52 93 106 126 160c8 13 19 16 75 16h15c66 0 75 -8 66 -27c-24 -51 -96 -143 -165 -211l191 -257c12 -17 5 -33 -72 -33h-13c-70 0 -83 5 -91 17l-132 202v-197c0 -16 -7 -22 -78 -22h-5c-77 0 -79 6 -79 22v716c0 16 2 22 79 22z
" />
    <glyph glyph-name="l" unicode="l" horiz-adv-x="315" 
d="M135 760h5c66 0 75 -5 78 -18c6 -32 9 -163 9 -292v-308c0 -18 6 -26 23 -26h14c15 0 16 -6 16 -51v-9c0 -39 -4 -46 -15 -51c-14 -6 -36 -10 -73 -10c-41 0 -73 12 -92 31c-26 26 -35 61 -35 108v337c0 92 -6 234 -8 269c-1 15 1 20 78 20z" />
    <glyph glyph-name="m" unicode="m" horiz-adv-x="891" 
d="M131 528h5c56 0 63 -4 67 -16c2 -7 4 -19 5 -32c33 33 82 58 135 58c60 0 110 -22 145 -68c39 40 94 68 153 68c61 0 110 -22 140 -56c34 -38 50 -87 50 -161v-299c0 -16 -7 -22 -78 -22h-5c-77 0 -79 6 -79 22v262c0 66 -3 86 -16 100c-11 13 -29 20 -52 20
c-21 0 -38 -5 -48 -13c-13 -10 -20 -24 -22 -46c-2 -23 -2 -59 -2 -95v-228c0 -16 -7 -22 -78 -22h-5c-77 0 -79 6 -79 22v262c0 66 -5 86 -16 100c-10 13 -28 20 -51 20c-22 0 -38 -5 -49 -13c-13 -10 -20 -24 -22 -46c-2 -23 -2 -59 -2 -95v-228c0 -16 -7 -22 -78 -22h-4
c-78 0 -80 6 -80 22v268c0 76 -3 159 -7 212c-2 20 3 26 73 26z" />
    <glyph glyph-name="n" unicode="n" horiz-adv-x="598" 
d="M229 344c-2 -23 -2 -59 -2 -95v-227c0 -16 -7 -22 -78 -22h-5c-77 0 -79 6 -79 22v268c0 76 -3 159 -7 212c-2 20 3 26 73 26h5c56 0 63 -3 67 -16c2 -7 4 -21 5 -32c32 32 84 58 137 58c64 0 114 -22 144 -56c34 -38 49 -87 49 -161v-299c0 -16 -6 -22 -77 -22h-5
c-78 0 -80 6 -80 22v262c0 66 -3 86 -15 100c-11 13 -31 20 -54 20c-25 0 -43 -4 -56 -13s-20 -22 -22 -47z" />
    <glyph glyph-name="o" unicode="o" horiz-adv-x="579" 
d="M298 538c153 0 247 -92 247 -264c0 -181 -92 -284 -264 -284c-153 0 -247 92 -247 264c0 181 92 284 264 284zM295 408c-67 0 -95 -56 -95 -148c0 -89 26 -140 84 -140c67 0 95 56 95 148c0 89 -26 140 -84 140z" />
    <glyph glyph-name="p" unicode="p" horiz-adv-x="590" 
d="M131 528h5c57 0 63 -3 66 -14c2 -7 4 -18 5 -30c33 32 80 54 134 54c130 0 215 -103 215 -266c0 -177 -89 -282 -225 -282c-38 0 -75 13 -104 34v-225c0 -17 -7 -22 -78 -22h-5c-77 0 -79 5 -79 22v491c0 76 -3 159 -7 212c-2 20 3 26 73 26zM227 338v-189
c22 -20 48 -30 72 -30c61 0 91 55 91 153c0 57 -9 92 -26 111c-16 19 -41 26 -64 26c-24 0 -44 -6 -59 -19c-11 -10 -14 -23 -14 -52z" />
    <glyph glyph-name="q" unicode="q" horiz-adv-x="587" 
d="M523 464v-389c0 -104 9 -215 19 -275c2 -16 -3 -23 -75 -23h-7c-68 0 -76 2 -80 20c-7 31 -17 127 -18 230c-22 -23 -61 -37 -108 -37c-136 0 -220 102 -220 266c0 170 105 282 285 282c70 0 145 -19 184 -43c17 -11 20 -16 20 -31zM200 256c0 -57 12 -90 29 -110
c16 -18 36 -28 64 -28c25 0 42 8 54 21c10 11 14 25 14 70v196c-17 4 -32 6 -48 6c-79 0 -113 -71 -113 -155z" />
    <glyph glyph-name="r" unicode="r" 
d="M129 528h5c58 0 62 -3 65 -17c4 -21 8 -56 10 -91c29 76 73 118 132 118c16 0 26 -2 34 -6c12 -6 15 -11 15 -54v-14c0 -55 -5 -59 -19 -60c-53 -4 -87 -26 -111 -62c-23 -35 -33 -90 -33 -180v-140c0 -16 -7 -22 -78 -22h-5c-77 0 -79 6 -79 22v268c0 76 -3 159 -7 212
c-2 20 1 26 71 26z" />
    <glyph glyph-name="s" unicode="s" horiz-adv-x="487" 
d="M49 102l10 17c24 41 33 46 47 37c36 -25 85 -42 123 -42c48 0 69 16 69 37c0 24 -40 35 -77 46c-76 21 -177 53 -177 169c0 107 93 172 214 172c69 0 129 -19 171 -49c11 -8 12 -17 -9 -55l-10 -18c-20 -35 -31 -38 -43 -31c-35 21 -69 31 -104 31c-22 0 -39 -4 -50 -11
c-9 -6 -14 -15 -14 -26c0 -24 39 -35 79 -47c77 -23 176 -53 176 -163c0 -46 -18 -92 -52 -125c-37 -36 -94 -54 -170 -54s-149 25 -192 59c-12 10 -10 21 9 53z" />
    <glyph glyph-name="t" unicode="t" horiz-adv-x="412" 
d="M352 415h-101v-238c0 -28 3 -41 11 -49s20 -12 33 -12c19 0 35 3 52 9s23 -2 35 -44l3 -10c13 -45 9 -49 -7 -57c-33 -16 -77 -24 -118 -24c-60 0 -102 16 -128 42c-30 30 -43 73 -43 137v246h-59c-15 0 -19 3 -19 53v7c0 50 4 53 19 53h59v121c0 17 1 23 79 23h5
c71 0 78 -6 78 -23v-121h101c15 0 19 -3 19 -53v-7c0 -50 -4 -53 -19 -53z" />
    <glyph glyph-name="u" unicode="u" horiz-adv-x="596" 
d="M140 528h4c71 0 78 -6 78 -22v-262c0 -70 4 -85 16 -100c11 -13 28 -20 54 -20c25 0 46 6 59 17c11 10 15 22 17 51c1 20 2 51 2 87v227c0 16 1 22 79 22h5c71 0 78 -6 78 -22v-268c0 -76 3 -159 6 -212c2 -20 -2 -26 -72 -26h-5c-57 0 -66 3 -69 17c-2 8 -4 20 -5 30
c-30 -35 -77 -57 -133 -57c-64 0 -114 22 -145 56c-34 38 -49 87 -49 161v299c0 16 2 22 80 22z" />
    <glyph glyph-name="v" unicode="v" horiz-adv-x="532" 
d="M82 528h8c65 0 76 -5 81 -20l63 -198c18 -57 31 -115 40 -177c40 122 82 267 103 375c3 14 3 20 69 20h6c60 0 77 -6 74 -23c-27 -133 -92 -345 -166 -485c-9 -17 -19 -20 -77 -20h-23c-60 0 -71 4 -76 17l-180 483c-7 18 -4 28 78 28z" />
    <glyph glyph-name="w" unicode="w" horiz-adv-x="791" 
d="M82 528h3c64 0 77 -6 81 -21l47 -204c11 -48 19 -110 25 -178c7 66 15 119 27 169l52 213c5 17 16 21 80 21h9c63 0 76 -5 80 -21l46 -202c12 -55 22 -108 33 -179c20 107 47 285 59 380c2 17 10 22 78 22h4c61 0 73 -5 71 -24c-22 -137 -75 -335 -135 -486
c-7 -16 -18 -18 -83 -18h-8c-75 0 -76 4 -80 18l-40 151c-17 64 -26 126 -35 213c-7 -87 -20 -147 -38 -213l-41 -152c-3 -12 -14 -17 -83 -17h-10c-65 0 -78 4 -82 18l-137 482c-6 20 -2 28 77 28z" />
    <glyph glyph-name="x" unicode="x" horiz-adv-x="518" 
d="M78 528h16c68 0 84 -5 93 -19l39 -61c12 -19 24 -40 37 -65c10 23 22 47 35 69l33 57c9 16 14 19 77 19h9c77 0 87 -7 75 -25l-89 -134c-23 -35 -47 -70 -66 -96c20 -26 39 -51 62 -84l110 -161c15 -23 3 -28 -74 -28h-16c-64 0 -74 3 -84 18l-46 71
c-14 22 -26 42 -39 67c-11 -22 -19 -37 -32 -59l-46 -78c-9 -15 -18 -19 -81 -19h-11c-74 0 -82 12 -70 30l106 157c21 32 35 54 55 83c-20 26 -39 53 -58 81l-99 147c-16 23 -5 30 64 30z" />
    <glyph glyph-name="y" unicode="y" horiz-adv-x="536" 
d="M93 528h13c67 0 74 -5 79 -20l49 -160c17 -57 29 -114 43 -207c12 92 25 152 41 210l43 157c4 16 14 20 75 20h12c75 0 79 -10 73 -28l-166 -486c-57 -168 -118 -247 -259 -247c-46 0 -91 11 -113 25c-14 9 -11 20 -1 54l4 14c12 41 20 51 37 45s48 -12 66 -12
c55 0 88 42 106 102l-177 505c-6 18 -2 28 75 28z" />
    <glyph glyph-name="z" unicode="z" horiz-adv-x="489" 
d="M441 0h-369c-30 0 -38 5 -38 21v35c0 23 3 34 16 53l205 301h-181c-15 0 -19 2 -19 56v6c0 54 4 56 19 56h333c44 0 49 -2 49 -18v-38c0 -21 -3 -33 -17 -53l-203 -301h205c15 0 19 -2 19 -56v-6c0 -54 -4 -56 -19 -56z" />
    <glyph glyph-name="ampersand" unicode="&#x26;" horiz-adv-x="701" 
d="M491 635l-6 -15c-15 -38 -24 -45 -40 -37c-29 14 -57 22 -88 22c-52 0 -77 -30 -77 -73c0 -32 13 -66 50 -110c29 -35 98 -102 158 -159c14 47 20 94 21 133c0 18 6 25 65 25h11c55 0 64 -5 63 -24c-4 -78 -22 -161 -56 -228c29 -24 53 -43 73 -58c17 -12 9 -31 -19 -66
l-12 -15c-35 -44 -44 -44 -61 -32c-24 17 -50 37 -78 60c-54 -43 -121 -68 -213 -68c-134 0 -249 75 -249 215c0 82 48 158 123 193c-28 44 -42 89 -42 134c0 109 80 198 225 198c57 0 113 -15 155 -42c9 -6 11 -17 -3 -53zM395 147c-61 55 -121 113 -164 160
c-20 -22 -31 -52 -31 -86c0 -60 42 -101 107 -101c36 0 64 10 88 27z" />
    <glyph glyph-name="at" unicode="@" horiz-adv-x="854" 
d="M420 543c34 0 65 -11 84 -36l3 13c3 12 9 16 55 16h17c42 0 53 -8 50 -21c-9 -39 -21 -90 -28 -124l-9 -41c-7 -31 -11 -50 -11 -66c0 -21 11 -31 30 -31c43 0 85 62 85 163c0 139 -99 204 -237 204c-183 0 -293 -135 -293 -292c0 -156 89 -239 269 -239
c67 0 144 11 199 27c11 3 16 -2 23 -30l4 -16c6 -23 7 -31 -8 -37c-64 -27 -155 -43 -235 -43c-119 0 -209 27 -278 83c-68 56 -108 141 -108 250c0 242 197 407 426 407c232 0 367 -127 367 -308c0 -158 -94 -265 -232 -265c-64 0 -107 24 -123 56
c-28 -39 -65 -56 -109 -56c-88 0 -135 67 -135 151c0 119 77 235 194 235zM459 348l20 87c-8 7 -19 11 -34 11c-43 0 -82 -60 -82 -133c0 -33 13 -55 33 -55c36 0 50 34 63 90z" />
    <glyph glyph-name="exclam" unicode="!" horiz-adv-x="306" 
d="M145 720h11c69 0 81 -6 80 -24l-15 -440c-1 -16 -13 -19 -59 -19h-21c-45 0 -58 5 -59 19l-18 440c-1 18 12 24 81 24zM61 78c0 50 43 89 92 89c50 0 92 -39 92 -89c0 -49 -42 -88 -92 -88c-49 0 -92 39 -92 88z" />
    <glyph glyph-name="exclamdown" unicode="&#xa1;" horiz-adv-x="306" 
d="M156 -192h-11c-69 0 -82 6 -81 24l18 440c1 14 14 19 59 19h21c46 0 58 -3 59 -19l15 -440c1 -18 -11 -24 -80 -24zM61 450c0 49 43 88 92 88c50 0 92 -39 92 -88c0 -50 -42 -89 -92 -89c-49 0 -92 39 -92 89z" />
    <glyph glyph-name="question" unicode="?" horiz-adv-x="462" 
d="M56 596l-13 25c-16 31 -19 43 -4 54c43 32 105 55 177 55c129 0 216 -69 217 -183c0 -90 -55 -146 -103 -191c-34 -32 -68 -62 -68 -106c0 -15 -9 -20 -65 -20h-19c-52 0 -65 3 -65 21v4c0 84 50 134 92 175c29 28 61 65 61 109c0 36 -22 62 -66 62
c-33 0 -67 -16 -96 -34c-19 -12 -29 -7 -48 29zM94 78c0 50 43 89 92 89c50 0 92 -39 92 -89c0 -49 -42 -88 -92 -88c-49 0 -92 39 -92 88z" />
    <glyph glyph-name="questiondown" unicode="&#xbf;" horiz-adv-x="462" 
d="M410 -68l13 -25c16 -31 19 -43 4 -54c-43 -32 -105 -55 -177 -55c-129 0 -216 69 -217 183c0 90 55 146 103 191c34 32 68 62 68 106c0 15 9 20 65 20h19c52 0 65 -3 65 -21v-4c0 -84 -50 -134 -92 -175c-29 -28 -61 -65 -61 -109c0 -36 22 -62 66 -62c33 0 67 16 96 34
c19 12 29 7 48 -29zM372 450c0 -50 -43 -89 -92 -89c-50 0 -92 39 -92 89c0 49 42 88 92 88c49 0 92 -39 92 -88z" />
    <glyph glyph-name="asterisk" unicode="*" horiz-adv-x="431" 
d="M69 649l89 -37l-9 96c-2 20 13 22 57 22h13c44 0 59 -2 57 -22l-10 -97l97 39c17 7 24 5 38 -40l4 -13c14 -46 10 -52 -5 -56l-105 -27l70 -79c12 -14 5 -29 -28 -51l-12 -9c-37 -27 -50 -27 -62 -8l-50 82l-48 -82c-12 -20 -26 -17 -65 11l-11 8c-31 22 -39 33 -26 49
l66 79l-98 26c-13 3 -19 7 -5 52l4 13c15 48 20 52 39 44z" />
    <glyph glyph-name="period" unicode="." horiz-adv-x="247" 
d="M31 79c0 50 43 89 93 89s92 -39 92 -89s-42 -89 -92 -89s-93 39 -93 89z" />
    <glyph glyph-name="comma" unicode="," horiz-adv-x="257" 
d="M42 -179l-8 7c-22 20 -24 26 -18 34c39 49 59 86 59 118c0 17 -7 31 -24 49c-13 14 -23 30 -23 57c0 43 37 78 91 78c58 0 100 -41 100 -110c0 -82 -50 -173 -135 -242c-11 -9 -18 -12 -42 9z" />
    <glyph glyph-name="colon" unicode=":" horiz-adv-x="247" 
d="M31 79c0 50 43 89 93 89s92 -39 92 -89s-42 -89 -92 -89s-93 39 -93 89zM31 424c0 50 43 89 93 89s92 -39 92 -89s-42 -89 -92 -89s-93 39 -93 89z" />
    <glyph glyph-name="semicolon" unicode=";" horiz-adv-x="253" 
d="M56 -175l-8 7c-22 20 -24 26 -18 34c39 49 59 86 59 118c0 17 -7 31 -24 49c-13 14 -23 30 -23 57c0 43 37 78 91 78c58 0 100 -41 100 -110c0 -82 -50 -173 -135 -242c-11 -9 -18 -12 -42 9zM42 424c0 50 43 89 93 89s92 -39 92 -89s-42 -89 -92 -89s-93 39 -93 89z" />
    <glyph glyph-name="ellipsis" unicode="&#x2026;" horiz-adv-x="725" 
d="M31 79c0 50 43 89 93 89s92 -39 92 -89s-42 -89 -92 -89s-93 39 -93 89zM270 79c0 50 43 89 93 89s92 -39 92 -89s-42 -89 -92 -89s-93 39 -93 89zM509 79c0 50 43 89 93 89s92 -39 92 -89s-42 -89 -92 -89s-93 39 -93 89z" />
    <glyph glyph-name="periodcentered" unicode="&#xb7;" horiz-adv-x="247" 
d="M31 364c0 50 43 89 93 89s92 -39 92 -89s-42 -89 -92 -89s-93 39 -93 89z" />
    <glyph glyph-name="uni22C5" unicode="&#x22c5;" horiz-adv-x="247" 
d="M31 364c0 50 43 89 93 89s92 -39 92 -89s-42 -89 -92 -89s-93 39 -93 89z" />
    <glyph glyph-name="bullet" unicode="&#x2022;" horiz-adv-x="362" 
d="M181 513c83 0 144 -65 144 -144c0 -77 -61 -144 -144 -144c-80 0 -144 67 -144 144c0 79 64 144 144 144z" />
    <glyph glyph-name="slash" unicode="/" horiz-adv-x="382" 
d="M290 720h13c71 0 76 -7 70 -26l-204 -672c-5 -17 -20 -22 -78 -22h-12c-71 0 -76 8 -70 26l204 672c5 17 20 22 77 22z" />
    <glyph glyph-name="parenleft" unicode="(" horiz-adv-x="361" 
d="M291 752l14 -9c44 -28 42 -37 34 -49c-61 -92 -111 -229 -111 -385s42 -276 111 -386c6 -10 6 -20 -34 -46l-17 -11c-41 -26 -52 -23 -62 -13c-89 88 -175 259 -175 456c0 192 87 370 175 457c11 11 22 14 65 -14z" />
    <glyph glyph-name="brokenbar" unicode="&#xa6;" horiz-adv-x="293" 
d="M140 179h11c67 0 72 -8 72 -22v-357c0 -15 -5 -22 -72 -22h-11c-66 0 -70 5 -70 22v357c0 16 4 22 70 22zM140 766h11c67 0 72 -8 72 -22v-356c0 -15 -5 -23 -72 -23h-11c-66 0 -70 6 -70 23v356c0 16 4 22 70 22z" />
    <glyph glyph-name="parenright" unicode=")" horiz-adv-x="361" 
d="M56 743l14 9c43 28 54 25 65 14c88 -87 175 -265 175 -457c0 -197 -86 -368 -175 -456c-10 -10 -21 -13 -62 13l-17 11c-40 26 -40 36 -34 46c69 110 111 230 111 386s-50 293 -111 385c-8 12 -10 21 34 49z" />
    <glyph glyph-name="bracketleft" unicode="[" horiz-adv-x="355" 
d="M92 753h235c16 0 17 -6 17 -50v-9c0 -44 -1 -50 -17 -50h-104v-666h104c17 0 17 -7 17 -51v-9c0 -43 0 -50 -17 -50h-235c-14 0 -23 4 -23 14v857c0 10 9 14 23 14z" />
    <glyph glyph-name="backslash" unicode="\" horiz-adv-x="380" 
d="M77 720h12c58 0 73 -5 78 -22l204 -672c6 -18 1 -26 -70 -26h-13c-57 0 -72 5 -77 22l-204 672c-6 19 -1 26 70 26z" />
    <glyph glyph-name="bracketright" unicode="]" horiz-adv-x="355" 
d="M28 753h235c14 0 23 -4 23 -14v-857c0 -10 -9 -14 -23 -14h-235c-17 0 -17 7 -17 50v9c0 44 0 51 17 51h104v666h-104c-16 0 -17 6 -17 50v9c0 44 1 50 17 50z" />
    <glyph glyph-name="braceleft" unicode="{" horiz-adv-x="337" 
d="M265 753h46c14 0 15 -6 15 -50v-12c0 -43 -1 -50 -15 -50h-33c-29 0 -37 -17 -37 -54v-143c0 -65 -18 -106 -66 -135c48 -29 66 -71 66 -135v-141c0 -36 8 -53 37 -53h31c16 0 17 -6 17 -50v-12c0 -43 -1 -50 -15 -50h-46c-134 0 -178 61 -178 175v142
c0 47 -18 58 -45 63c-21 4 -23 12 -23 51v19c0 39 2 47 23 51c27 6 45 16 45 63v147c0 113 44 174 178 174z" />
    <glyph glyph-name="bar" unicode="|" horiz-adv-x="293" 
d="M140 817h11c67 0 72 -7 72 -22v-1046c0 -14 -5 -22 -72 -22h-11c-66 0 -70 6 -70 22v1046c0 17 4 22 70 22z" />
    <glyph glyph-name="braceright" unicode="}" horiz-adv-x="337" 
d="M26 753h46c134 0 178 -61 178 -174v-147c0 -47 18 -57 45 -63c21 -4 23 -12 23 -51v-19c0 -39 -2 -47 -23 -51c-27 -5 -45 -16 -45 -63v-142c0 -114 -44 -175 -178 -175h-46c-14 0 -15 7 -15 50v12c0 44 1 50 17 50h31c29 0 37 17 37 53v141c0 64 18 106 66 135
c-48 29 -66 70 -66 135v143c0 37 -8 54 -37 54h-33c-14 0 -15 7 -15 50v12c0 44 1 50 15 50z" />
    <glyph glyph-name="hyphen" unicode="-" horiz-adv-x="399" 
d="M51 350h298c12 0 19 -8 19 -58v-9c0 -49 -7 -59 -19 -59h-298c-16 0 -20 10 -20 59v9c0 50 5 58 20 58z" />
    <glyph glyph-name="uni00AD" unicode="&#xad;" horiz-adv-x="399" 
d="M51 350h298c12 0 19 -8 19 -58v-9c0 -49 -7 -59 -19 -59h-298c-16 0 -20 10 -20 59v9c0 50 5 58 20 58z" />
    <glyph glyph-name="endash" unicode="&#x2013;" horiz-adv-x="500" 
d="M480 224h-460c-16 0 -20 3 -20 56v6c0 53 4 57 20 57h460c16 0 20 -4 20 -57v-6c0 -53 -4 -56 -20 -56z" />
    <glyph glyph-name="emdash" unicode="&#x2014;" horiz-adv-x="1000" 
d="M980 224h-960c-16 0 -20 3 -20 56v6c0 53 4 57 20 57h960c16 0 20 -4 20 -57v-6c0 -53 -4 -56 -20 -56z" />
    <glyph glyph-name="underscore" unicode="_" horiz-adv-x="508" 
d="M5 -93h499c17 0 18 -7 18 -56v-6c0 -50 -1 -57 -18 -57h-499c-18 0 -19 7 -19 57v6c0 49 1 56 19 56z" />
    <glyph glyph-name="dagger" unicode="&#x2020;" horiz-adv-x="492" 
d="M240 720h10c67 0 72 -7 72 -22v-196h134c17 0 19 -7 19 -57v-13c0 -50 -2 -56 -19 -56h-134v-491c0 -14 -5 -22 -72 -22h-10c-66 0 -70 6 -70 22v491h-134c-15 0 -19 6 -19 56v13c0 50 4 57 19 57h134v196c0 17 4 22 70 22z" />
    <glyph glyph-name="daggerdbl" unicode="&#x2021;" horiz-adv-x="506" 
d="M457 80h-131v-193c0 -16 -5 -24 -72 -24h-11c-66 0 -69 6 -69 24v193h-127c-18 0 -20 4 -20 54v13c0 50 2 59 20 59h127v170h-125c-20 0 -22 6 -22 56v13c0 50 2 57 22 57h125v196c0 17 3 22 69 22h11c67 0 72 -7 72 -22v-196h131c20 0 22 -7 22 -57v-13
c0 -50 -2 -56 -22 -56h-131v-170h131c18 0 20 -9 20 -59v-13c0 -50 -2 -54 -20 -54z" />
    <glyph glyph-name="section" unicode="&#xa7;" horiz-adv-x="551" 
d="M453 627l-11 -17c-27 -41 -34 -41 -45 -34c-34 21 -67 33 -101 33c-20 0 -32 -3 -43 -9s-17 -16 -17 -27c0 -24 23 -31 92 -52c81 -25 176 -55 176 -166c0 -55 -26 -100 -64 -128c21 -24 34 -54 34 -95c0 -107 -94 -172 -215 -172c-66 0 -125 20 -171 52
c-13 9 -10 17 13 53l10 16c25 40 31 44 43 36c34 -23 67 -36 103 -36c21 0 36 4 46 11c8 6 12 15 12 25c0 24 -26 34 -111 58c-122 35 -157 84 -157 159c0 58 32 102 73 126c-29 28 -43 63 -43 98c0 107 93 172 214 172c70 0 125 -17 173 -51c13 -9 12 -16 -11 -52zM289 300
l36 -10c13 11 20 25 20 40c0 27 -24 38 -85 55l-33 9c-14 -10 -21 -23 -21 -38c0 -28 30 -41 83 -56z" />
    <glyph glyph-name="paragraph" unicode="&#xb6;" horiz-adv-x="661" 
d="M280 720h347c15 0 17 -5 17 -38v-33c0 -33 -2 -38 -17 -38h-47v-728c0 -16 -19 -20 -51 -20h-32c-34 0 -53 4 -53 20v728h-77v-728c0 -16 -19 -20 -52 -20h-32c-34 0 -52 4 -52 20v408c-121 10 -198 97 -198 209c0 129 88 220 247 220z" />
    <glyph glyph-name="registered" unicode="&#xae;" horiz-adv-x="822" 
d="M306 563h81c87 0 168 -21 168 -124c0 -50 -24 -91 -71 -113l11 -20c23 -43 57 -97 79 -127c11 -15 7 -24 -33 -24h-31c-25 0 -36 -1 -45 11c-17 21 -42 66 -66 110l-16 29h-6v-132c0 -14 -11 -16 -51 -16h-8c-43 0 -51 2 -51 16v374c0 14 5 16 39 16zM377 481v-97h9
c21 0 37 4 46 13c8 8 12 19 12 40c0 16 -4 27 -12 34c-10 8 -22 10 -45 10h-10zM412 72c168 0 271 114 271 288s-103 288 -271 288s-273 -114 -273 -288s105 -288 273 -288zM412 -22c-225 0 -379 166 -379 382s154 382 379 382s377 -166 377 -382s-152 -382 -377 -382z" />
    <glyph glyph-name="copyright" unicode="&#xa9;" horiz-adv-x="822" 
d="M533 496l-8 -14c-13 -23 -18 -24 -27 -18c-21 13 -39 21 -68 21c-53 0 -84 -42 -84 -127c0 -78 26 -123 81 -123c29 0 56 7 80 20c10 6 13 1 23 -22l7 -16c8 -19 9 -27 -6 -36c-30 -18 -74 -30 -116 -30c-117 0 -183 77 -183 205c0 127 71 213 189 213
c50 0 90 -16 117 -36c9 -7 8 -13 -5 -37zM412 72c168 0 271 114 271 288s-103 288 -271 288s-273 -114 -273 -288s105 -288 273 -288zM412 -22c-225 0 -379 166 -379 382s154 382 379 382s377 -166 377 -382s-152 -382 -377 -382z" />
    <glyph glyph-name="trademark" unicode="&#x2122;" horiz-adv-x="857" 
d="M27 720h299c10 0 13 -4 13 -37v-23c0 -35 -3 -38 -13 -38h-86v-290c0 -13 -13 -16 -51 -16h-26c-43 0 -50 3 -50 16v290h-86c-12 0 -14 3 -14 38v23c0 33 2 37 14 37zM418 720h44c38 0 47 -3 51 -14l42 -115c11 -31 19 -56 30 -97c11 43 17 65 29 97l42 115
c4 10 9 14 50 14h42c44 0 53 -4 53 -16l13 -373c0 -13 -3 -15 -50 -15h-24c-43 0 -49 2 -49 14l-1 90c0 38 2 80 10 138c-17 -54 -28 -84 -38 -110l-22 -55c-4 -10 -8 -13 -43 -13h-26c-35 0 -38 3 -42 13l-23 55c-12 29 -22 57 -37 110c6 -59 10 -102 8 -139l-4 -89
c0 -12 -5 -14 -48 -14h-23c-47 0 -51 2 -50 15l15 373c1 14 6 16 51 16z" />
    <glyph glyph-name="quotedblleft" unicode="&#x201c;" horiz-adv-x="517" 
d="M222 721l8 -7c22 -20 24 -26 18 -34c-39 -49 -59 -86 -59 -118c0 -17 7 -31 24 -49c13 -14 23 -30 23 -57c0 -43 -37 -78 -91 -78c-58 0 -100 41 -100 110c0 82 50 173 135 242c11 9 18 12 42 -9zM447 721l8 -7c22 -20 24 -26 18 -34c-39 -49 -59 -86 -59 -118
c0 -17 7 -31 24 -49c13 -14 23 -30 23 -57c0 -43 -37 -78 -91 -78c-58 0 -100 41 -100 110c0 82 50 173 135 242c11 9 18 12 42 -9z" />
    <glyph glyph-name="quotedblright" unicode="&#x201d;" horiz-adv-x="517" 
d="M74 397l-8 7c-22 20 -24 26 -18 34c39 49 59 86 59 118c0 17 -7 31 -24 49c-13 14 -23 30 -23 57c0 43 37 78 91 78c58 0 100 -41 100 -110c0 -82 -50 -173 -135 -242c-11 -9 -18 -12 -42 9zM299 397l-8 7c-22 20 -24 26 -18 34c39 49 59 86 59 118c0 17 -7 31 -24 49
c-13 14 -23 30 -23 57c0 43 37 78 91 78c58 0 100 -41 100 -110c0 -82 -50 -173 -135 -242c-11 -9 -18 -12 -42 9z" />
    <glyph glyph-name="quoteleft" unicode="&#x2018;" horiz-adv-x="292" 
d="M222 721l8 -7c22 -20 24 -26 18 -34c-39 -49 -59 -86 -59 -118c0 -17 7 -31 24 -49c13 -14 23 -30 23 -57c0 -43 -37 -78 -91 -78c-58 0 -100 41 -100 110c0 82 50 173 135 242c11 9 18 12 42 -9z" />
    <glyph glyph-name="quoteright" unicode="&#x2019;" horiz-adv-x="292" 
d="M74 397l-8 7c-22 20 -24 26 -18 34c39 49 59 86 59 118c0 17 -7 31 -24 49c-13 14 -23 30 -23 57c0 43 37 78 91 78c58 0 100 -41 100 -110c0 -82 -50 -173 -135 -242c-11 -9 -18 -12 -42 9z" />
    <glyph glyph-name="guillemotleft" unicode="&#xab;" horiz-adv-x="571" 
d="M481 518l15 -9c36 -21 43 -32 34 -47l-101 -160l101 -162c9 -15 5 -25 -35 -49l-15 -9c-37 -22 -51 -21 -63 -4l-127 183c-9 13 -13 22 -13 37v6c0 14 4 24 13 37l127 183c11 16 22 18 64 -6zM243 518l15 -9c36 -21 43 -32 34 -47l-101 -160l101 -162
c9 -15 5 -25 -35 -49l-15 -9c-37 -22 -51 -21 -63 -4l-127 183c-9 13 -13 22 -13 37v6c0 14 4 24 13 37l127 183c11 16 22 18 64 -6z" />
    <glyph glyph-name="guillemotright" unicode="&#xbb;" horiz-adv-x="571" 
d="M75 509l15 9c42 24 53 22 64 6l127 -183c9 -13 13 -23 13 -37v-6c0 -15 -4 -24 -13 -37l-127 -183c-12 -17 -26 -18 -63 4l-15 9c-40 24 -44 34 -35 49l101 162l-101 160c-9 15 -2 26 34 47zM313 509l15 9c42 24 53 22 64 6l127 -183c9 -13 13 -23 13 -37v-6
c0 -15 -4 -24 -13 -37l-127 -183c-12 -17 -26 -18 -63 4l-15 9c-40 24 -44 34 -35 49l101 162l-101 160c-9 15 -2 26 34 47z" />
    <glyph glyph-name="guilsinglleft" unicode="&#x2039;" horiz-adv-x="337" 
d="M245 518l15 -9c36 -21 43 -32 34 -47l-101 -160l101 -162c9 -15 5 -25 -35 -49l-15 -9c-37 -22 -51 -21 -63 -4l-127 183c-9 13 -13 22 -13 37v6c0 14 4 24 13 37l127 183c11 16 22 18 64 -6z" />
    <glyph glyph-name="guilsinglright" unicode="&#x203a;" horiz-adv-x="337" 
d="M77 509l15 9c42 24 53 22 64 6l127 -183c9 -13 13 -23 13 -37v-6c0 -15 -4 -24 -13 -37l-127 -183c-12 -17 -26 -18 -63 4l-15 9c-40 24 -44 34 -35 49l101 162l-101 160c-9 15 -2 26 34 47z" />
    <glyph glyph-name="quotesinglbase" unicode="&#x201a;" horiz-adv-x="292" 
d="M74 -243l-8 7c-22 20 -24 26 -18 34c39 49 59 86 59 118c0 17 -7 31 -24 49c-13 14 -23 30 -23 57c0 43 37 78 91 78c58 0 100 -41 100 -110c0 -82 -50 -173 -135 -242c-11 -9 -18 -12 -42 9z" />
    <glyph glyph-name="quotedblbase" unicode="&#x201e;" horiz-adv-x="517" 
d="M74 -243l-8 7c-22 20 -24 26 -18 34c39 49 59 86 59 118c0 17 -7 31 -24 49c-13 14 -23 30 -23 57c0 43 37 78 91 78c58 0 100 -41 100 -110c0 -82 -50 -173 -135 -242c-11 -9 -18 -12 -42 9zM299 -243l-8 7c-22 20 -24 26 -18 34c39 49 59 86 59 118c0 17 -7 31 -24 49
c-13 14 -23 30 -23 57c0 43 37 78 91 78c58 0 100 -41 100 -110c0 -82 -50 -173 -135 -242c-11 -9 -18 -12 -42 9z" />
    <glyph glyph-name="arrowleft" unicode="&#x2190;" horiz-adv-x="670" 
d="M46 257v8c0 9 2 13 22 33l181 181c13 13 17 13 52 -22l4 -4c35 -35 35 -40 23 -52l-84 -81h347c19 0 21 -4 21 -56v-6c0 -52 -2 -56 -21 -56h-347l84 -81c12 -12 12 -17 -23 -52l-4 -4c-35 -35 -39 -35 -52 -22l-181 181c-20 20 -22 24 -22 33z" />
    <glyph glyph-name="arrowup" unicode="&#x2191;" horiz-adv-x="670" 
d="M331 584h8c9 0 13 -2 33 -22l181 -181c13 -13 13 -17 -22 -52l-4 -4c-35 -35 -40 -35 -52 -23l-81 84v-365c0 -19 -4 -21 -56 -21h-6c-52 0 -56 2 -56 21v365l-81 -84c-12 -12 -17 -12 -52 23l-4 4c-35 35 -35 39 -22 52l181 181c20 20 24 22 33 22z" />
    <glyph glyph-name="arrowright" unicode="&#x2192;" horiz-adv-x="670" 
d="M624 265v-8c0 -9 -2 -13 -22 -33l-181 -181c-13 -13 -17 -13 -52 22l-4 4c-35 35 -35 40 -23 52l84 81h-347c-19 0 -21 4 -21 56v6c0 52 2 56 21 56h347l-84 81c-12 12 -12 17 23 52l4 4c35 35 39 35 52 22l181 -181c20 -20 22 -24 22 -33z" />
    <glyph glyph-name="arrowdown" unicode="&#x2193;" horiz-adv-x="670" 
d="M339 0h-8c-9 0 -13 2 -33 22l-181 181c-13 13 -13 17 22 52l4 4c35 35 40 35 52 23l81 -84v365c0 19 4 21 56 21h6c52 0 56 -2 56 -21v-365l81 84c12 12 17 12 52 -23l4 -4c35 -35 35 -39 22 -52l-181 -181c-20 -20 -24 -22 -33 -22z" />
    <glyph glyph-name="uni266A" unicode="&#x266a;" horiz-adv-x="690" 
d="M513 408c-4 -2 -6 -2 -14 10l-4 6c-8 12 -8 13 -4 16c20 14 32 33 32 50c0 44 -48 54 -99 73c-22 7 -43 17 -62 33v-472c0 -85 -52 -134 -146 -134c-74 0 -116 37 -116 80s42 80 112 80c32 0 70 -10 96 -27v588c0 7 2 9 23 9h8c21 0 23 -2 23 -9v-25
c32 -24 69 -37 104 -50c66 -24 124 -43 124 -117c0 -41 -28 -83 -77 -111z" />
    <glyph glyph-name="grave" unicode="`" horiz-adv-x="368" 
d="M91 792h47c47 0 53 -2 61 -15l103 -158c13 -20 2 -27 -36 -27h-37c-33 0 -44 3 -52 14l-125 157c-13 17 -8 29 39 29z" />
    <glyph glyph-name="acute" unicode="&#xb4;" horiz-adv-x="368" 
d="M230 792h47c53 0 52 -12 39 -29l-125 -157c-8 -11 -19 -14 -52 -14h-37c-38 0 -49 7 -36 27l103 158c8 13 14 15 61 15z" />
    <glyph glyph-name="dieresis" unicode="&#xa8;" horiz-adv-x="368" 
d="M-10 679c0 46 34 82 86 82c48 0 85 -36 85 -82s-37 -81 -85 -81c-52 0 -86 35 -86 81zM207 679c0 46 34 82 86 82c48 0 85 -36 85 -82s-37 -81 -85 -81c-52 0 -86 35 -86 81z" />
    <glyph glyph-name="circumflex" unicode="&#x2c6;" horiz-adv-x="368" 
d="M184 678l-89 -77c-12 -10 -22 -10 -50 18l-10 10c-23 23 -26 32 -17 41l88 92c18 18 27 21 72 21h12c45 0 54 -3 72 -21l88 -92c9 -9 6 -18 -17 -41l-10 -10c-28 -28 -38 -28 -50 -18z" />
    <glyph glyph-name="tilde" unicode="&#x2dc;" horiz-adv-x="368" 
d="M26 637l-4 4c-26 26 -28 31 -20 42c25 35 70 68 121 68c32 0 54 -9 72 -18c17 -8 30 -16 48 -16c17 0 34 13 52 30c10 10 16 10 45 -19l6 -6c23 -24 31 -30 19 -44c-34 -42 -76 -66 -117 -66c-27 0 -52 8 -72 18c-23 12 -35 18 -51 18c-18 0 -33 -14 -48 -32
c-10 -11 -20 -10 -51 21z" />
    <glyph glyph-name="macron" unicode="&#xaf;" horiz-adv-x="368" 
d="M43 735h280c9 0 15 -10 15 -51v-7c0 -40 -6 -51 -15 -51h-280c-11 0 -14 11 -14 51v7c0 41 3 51 14 51z" />
    <glyph glyph-name="breve" unicode="&#x2d8;" horiz-adv-x="368" 
d="M73 762h14c41 0 50 -7 51 -18c3 -34 20 -49 46 -49s44 15 47 49c1 11 11 18 51 18h14c45 0 54 -2 53 -21c-4 -92 -66 -145 -165 -145s-161 53 -165 145c-1 19 9 21 54 21z" />
    <glyph glyph-name="dotaccent" unicode="&#x2d9;" horiz-adv-x="368" 
d="M100 691c0 46 36 81 84 81c47 0 83 -35 83 -81s-36 -81 -83 -81c-48 0 -84 35 -84 81z" />
    <glyph glyph-name="ring" unicode="&#x2da;" horiz-adv-x="368" 
d="M61 701c0 63 55 117 123 117s123 -52 123 -117s-55 -117 -123 -117s-123 54 -123 117zM151 701c0 -19 14 -33 33 -33s32 14 32 33s-13 33 -32 33s-33 -14 -33 -33z" />
    <glyph glyph-name="cedilla" unicode="&#xb8;" horiz-adv-x="368" 
d="M144 23h6c40 0 40 -6 39 -19l-4 -42c61 1 114 -25 114 -92c0 -59 -41 -113 -134 -113c-34 0 -63 6 -85 14c-11 4 -14 5 -5 37l3 11c8 30 13 33 25 30c11 -3 33 -7 48 -7c24 0 34 10 34 28c0 20 -20 24 -41 24c-17 0 -39 -2 -59 -7l18 122c1 10 2 14 41 14z" />
    <glyph glyph-name="hungarumlaut" unicode="&#x2dd;" horiz-adv-x="368" 
d="M116 791h42c46 0 53 -9 39 -27l-113 -152c-8 -11 -18 -14 -49 -14h-32c-33 0 -46 7 -35 25l89 153c7 12 17 15 59 15zM316 791h42c46 0 53 -9 39 -27l-113 -152c-8 -11 -18 -14 -49 -14h-32c-33 0 -46 7 -35 25l89 153c7 12 17 15 59 15z" />
    <glyph glyph-name="ogonek" unicode="&#x2db;" horiz-adv-x="368" 
d="M230 27h43c19 0 19 -18 10 -24c-68 -45 -93 -77 -93 -114c0 -20 9 -33 31 -33c14 0 28 4 42 10c10 4 15 3 27 -32l3 -9c10 -30 11 -40 1 -46c-24 -14 -61 -25 -94 -25c-91 0 -134 50 -134 116c0 71 55 128 107 147c15 6 35 10 57 10z" />
    <glyph glyph-name="caron" unicode="&#x2c7;" horiz-adv-x="368" 
d="M92 776l91 -80l92 80c12 10 22 10 50 -18l10 -10c23 -23 26 -32 17 -41l-91 -95c-18 -18 -27 -21 -72 -21h-12c-45 0 -54 3 -72 21l-90 95c-9 9 -6 18 17 41l10 10c28 28 38 28 50 18z" />
    <glyph glyph-name="commaaccent" unicode="&#xf6c3;" horiz-adv-x="368" 
d="M124 -320l-6 5c-16 15 -18 21 -13 27c30 37 48 73 48 97c0 32 -35 45 -35 82c0 34 29 60 70 60c44 0 77 -32 77 -85c0 -63 -43 -140 -108 -193c-8 -7 -14 -9 -33 7z" />
    <glyph glyph-name="grave.sc" horiz-adv-x="368" 
d="M91 834h47c47 0 53 -2 61 -15l103 -158c13 -20 2 -27 -36 -27h-37c-33 0 -44 3 -52 14l-125 157c-13 17 -8 29 39 29z" />
    <glyph glyph-name="acute.sc" horiz-adv-x="368" 
d="M230 834h47c53 0 52 -12 39 -29l-125 -157c-8 -11 -19 -14 -52 -14h-37c-38 0 -49 7 -36 27l103 158c8 13 14 15 61 15z" />
    <glyph glyph-name="dieresis.sc" horiz-adv-x="368" 
d="M-10 721c0 46 34 82 86 82c48 0 85 -36 85 -82s-37 -81 -85 -81c-52 0 -86 35 -86 81zM207 721c0 46 34 82 86 82c48 0 85 -36 85 -82s-37 -81 -85 -81c-52 0 -86 35 -86 81z" />
    <glyph glyph-name="circumflex.sc" horiz-adv-x="368" 
d="M184 720l-89 -77c-12 -10 -22 -10 -50 18l-10 10c-23 23 -26 32 -17 41l88 92c18 18 27 21 72 21h12c45 0 54 -3 72 -21l88 -92c9 -9 6 -18 -17 -41l-10 -10c-28 -28 -38 -28 -50 -18z" />
    <glyph glyph-name="tilde.sc" horiz-adv-x="368" 
d="M26 679l-4 4c-26 26 -28 31 -20 42c25 35 70 68 121 68c32 0 54 -9 72 -18c17 -8 30 -16 48 -16c17 0 34 13 52 30c10 10 16 10 45 -19l6 -6c23 -24 31 -30 19 -44c-34 -42 -76 -66 -117 -66c-27 0 -52 8 -72 18c-23 12 -35 18 -51 18c-18 0 -33 -14 -48 -32
c-10 -11 -20 -10 -51 21z" />
    <glyph glyph-name="macron.sc" horiz-adv-x="368" 
d="M43 777h280c9 0 15 -10 15 -51v-7c0 -40 -6 -51 -15 -51h-280c-11 0 -14 11 -14 51v7c0 41 3 51 14 51z" />
    <glyph glyph-name="breve.sc" horiz-adv-x="368" 
d="M73 804h14c41 0 50 -7 51 -18c3 -34 20 -49 46 -49s44 15 47 49c1 11 11 18 51 18h14c45 0 54 -2 53 -21c-4 -92 -66 -145 -165 -145s-161 53 -165 145c-1 19 9 21 54 21z" />
    <glyph glyph-name="dotaccent.sc" horiz-adv-x="368" 
d="M100 733c0 46 36 81 84 81c47 0 83 -35 83 -81s-36 -81 -83 -81c-48 0 -84 35 -84 81z" />
    <glyph glyph-name="ring.sc" horiz-adv-x="368" 
d="M61 743c0 63 55 117 123 117s123 -52 123 -117s-55 -117 -123 -117s-123 54 -123 117zM151 743c0 -19 14 -33 33 -33s32 14 32 33s-13 33 -32 33s-33 -14 -33 -33z" />
    <glyph glyph-name="hungarumlaut.sc" horiz-adv-x="368" 
d="M116 833h42c46 0 53 -9 39 -27l-113 -152c-8 -11 -18 -14 -49 -14h-32c-33 0 -46 7 -35 25l89 153c7 12 17 15 59 15zM316 833h42c46 0 53 -9 39 -27l-113 -152c-8 -11 -18 -14 -49 -14h-32c-33 0 -46 7 -35 25l89 153c7 12 17 15 59 15z" />
    <glyph glyph-name="caron.sc" horiz-adv-x="368" 
d="M92 818l91 -80l92 80c12 10 22 10 50 -18l10 -10c23 -23 26 -32 17 -41l-91 -95c-18 -18 -27 -21 -72 -21h-12c-45 0 -54 3 -72 21l-90 95c-9 9 -6 18 17 41l10 10c28 28 38 28 50 18z" />
    <glyph glyph-name="grave.cap" horiz-adv-x="368" 
d="M91 984h47c47 0 53 -2 61 -15l103 -158c13 -20 2 -27 -36 -27h-37c-33 0 -44 3 -52 14l-125 157c-13 17 -8 29 39 29z" />
    <glyph glyph-name="acute.cap" horiz-adv-x="368" 
d="M230 984h47c53 0 52 -12 39 -29l-125 -157c-8 -11 -19 -14 -52 -14h-37c-38 0 -49 7 -36 27l103 158c8 13 14 15 61 15z" />
    <glyph glyph-name="dieresis.cap" horiz-adv-x="368" 
d="M-10 871c0 46 34 82 86 82c48 0 85 -36 85 -82s-37 -81 -85 -81c-52 0 -86 35 -86 81zM207 871c0 46 34 82 86 82c48 0 85 -36 85 -82s-37 -81 -85 -81c-52 0 -86 35 -86 81z" />
    <glyph glyph-name="circumflex.cap" horiz-adv-x="368" 
d="M184 870l-89 -77c-12 -10 -22 -10 -50 18l-10 10c-23 23 -26 32 -17 41l88 92c18 18 27 21 72 21h12c45 0 54 -3 72 -21l88 -92c9 -9 6 -18 -17 -41l-10 -10c-28 -28 -38 -28 -50 -18z" />
    <glyph glyph-name="tilde.cap" horiz-adv-x="368" 
d="M26 835l-4 4c-26 26 -28 31 -20 42c25 35 70 68 121 68c32 0 54 -9 72 -18c17 -8 30 -16 48 -16c17 0 34 13 52 30c10 10 16 10 45 -19l6 -6c23 -24 31 -30 19 -44c-34 -42 -76 -66 -117 -66c-27 0 -52 8 -72 18c-23 12 -35 18 -51 18c-18 0 -33 -14 -48 -32
c-10 -11 -20 -10 -51 21z" />
    <glyph glyph-name="macron.cap" horiz-adv-x="368" 
d="M43 927h280c9 0 15 -10 15 -51v-7c0 -40 -6 -51 -15 -51h-280c-11 0 -14 11 -14 51v7c0 41 3 51 14 51z" />
    <glyph glyph-name="breve.cap" horiz-adv-x="368" 
d="M73 942h14c41 0 50 -7 51 -18c3 -34 20 -49 46 -49s44 15 47 49c1 11 11 18 51 18h14c45 0 54 -2 53 -21c-4 -92 -66 -145 -165 -145s-161 53 -165 145c-1 19 9 21 54 21z" />
    <glyph glyph-name="dotaccent.cap" horiz-adv-x="368" 
d="M100 854c0 46 36 81 84 81c47 0 83 -35 83 -81s-36 -81 -83 -81c-48 0 -84 35 -84 81z" />
    <glyph glyph-name="ring.cap" horiz-adv-x="368" 
d="M61 871c0 63 55 117 123 117s123 -52 123 -117s-55 -117 -123 -117s-123 54 -123 117zM151 871c0 -19 14 -33 33 -33s32 14 32 33s-13 33 -32 33s-33 -14 -33 -33z" />
    <glyph glyph-name="hungarumlaut.cap" horiz-adv-x="368" 
d="M116 984h42c46 0 53 -9 39 -27l-113 -152c-8 -11 -18 -14 -49 -14h-32c-33 0 -46 7 -35 25l89 153c7 12 17 15 59 15zM316 984h42c46 0 53 -9 39 -27l-113 -152c-8 -11 -18 -14 -49 -14h-32c-33 0 -46 7 -35 25l89 153c7 12 17 15 59 15z" />
    <glyph glyph-name="caron.cap" horiz-adv-x="368" 
d="M92 966l91 -80l92 80c12 10 22 10 50 -18l10 -10c23 -23 26 -32 17 -41l-91 -95c-18 -18 -27 -21 -72 -21h-12c-45 0 -54 3 -72 21l-90 95c-9 9 -6 18 17 41l10 10c28 28 38 28 50 18z" />
    <glyph glyph-name="periodcentered.cap" horiz-adv-x="247" 
d="M31 364c0 50 43 89 93 89s92 -39 92 -89s-42 -89 -92 -89s-93 39 -93 89z" />
    <glyph glyph-name="bullet.cap" horiz-adv-x="362" 
d="M181 513c83 0 144 -65 144 -144c0 -77 -61 -144 -144 -144c-80 0 -144 67 -144 144c0 79 64 144 144 144z" />
    <glyph glyph-name="parenleft.cap" horiz-adv-x="361" 
d="M51 360c0 183 83 379 188 483c11 11 22 14 65 -14l14 -9c44 -28 42 -37 34 -49c-75 -111 -124 -256 -124 -411s49 -300 124 -411c8 -12 10 -21 -34 -49l-14 -9c-43 -28 -54 -25 -65 -14c-105 104 -188 300 -188 483z" />
    <glyph glyph-name="parenright.cap" horiz-adv-x="361" 
d="M310 360c0 -183 -83 -379 -188 -483c-11 -11 -22 -14 -65 14l-14 9c-44 28 -42 37 -34 49c75 111 124 256 124 411s-49 300 -124 411c-8 12 -10 21 34 49l14 9c43 28 54 25 65 14c105 -104 188 -300 188 -483z" />
    <glyph glyph-name="bracketleft.cap" horiz-adv-x="355" 
d="M69 -118v955c0 10 9 14 23 14h235c17 0 17 -7 17 -51v-8c0 -43 0 -50 -17 -50h-104v-764h104c17 0 17 -6 17 -50v-10c0 -43 0 -50 -17 -50h-235c-14 0 -23 4 -23 14z" />
    <glyph glyph-name="bracketright.cap" horiz-adv-x="355" 
d="M286 837v-955c0 -10 -9 -14 -23 -14h-235c-17 0 -17 7 -17 50v10c0 44 0 50 17 50h104v764h-104c-17 0 -17 7 -17 50v8c0 44 0 51 17 51h235c14 0 23 -4 23 -14z" />
    <glyph glyph-name="braceleft.cap" horiz-adv-x="337" 
d="M265 851h46c14 0 15 -6 15 -50v-12c0 -43 -1 -50 -15 -50h-33c-29 0 -37 -17 -37 -54v-192c0 -65 -18 -106 -66 -135c48 -29 66 -71 66 -135v-190c0 -36 8 -53 37 -53h31c16 0 17 -6 17 -50v-12c0 -43 -1 -50 -15 -50h-46c-134 0 -178 61 -178 175v191
c0 47 -18 58 -45 63c-21 4 -23 12 -23 51v19c0 39 2 47 23 51c27 6 45 16 45 63v196c0 113 44 174 178 174z" />
    <glyph glyph-name="braceright.cap" horiz-adv-x="337" 
d="M26 851h46c134 0 178 -61 178 -174v-196c0 -47 18 -57 45 -63c21 -4 23 -12 23 -51v-19c0 -39 -2 -47 -23 -51c-27 -5 -45 -16 -45 -63v-191c0 -114 -44 -175 -178 -175h-46c-14 0 -15 7 -15 50v12c0 44 1 50 17 50h31c29 0 37 17 37 53v190c0 64 18 106 66 135
c-48 29 -66 70 -66 135v192c0 37 -8 54 -37 54h-33c-14 0 -15 7 -15 50v12c0 44 1 50 15 50z" />
    <glyph glyph-name="questiondown.cap" horiz-adv-x="462" 
d="M410 124l13 -25c16 -31 19 -43 4 -54c-43 -32 -105 -55 -177 -55c-129 0 -216 69 -217 183c0 90 55 146 103 191c34 32 68 62 68 106c0 15 9 20 65 20h19c52 0 65 -3 65 -21v-4c0 -84 -50 -134 -92 -175c-29 -28 -61 -65 -61 -109c0 -36 22 -62 66 -62c33 0 67 16 96 34
c19 12 29 7 48 -29zM372 642c0 -50 -43 -89 -92 -89c-50 0 -92 39 -92 89c0 49 42 88 92 88c49 0 92 -39 92 -88z" />
    <glyph glyph-name="exclamdown.cap" horiz-adv-x="306" 
d="M156 0h-11c-69 0 -82 6 -81 24l18 440c1 14 14 19 59 19h21c46 0 58 -3 59 -19l15 -440c1 -18 -11 -24 -80 -24zM61 642c0 49 43 88 92 88c50 0 92 -39 92 -88c0 -50 -42 -89 -92 -89c-49 0 -92 39 -92 89z" />
    <glyph glyph-name="guillemotleft.cap" horiz-adv-x="571" 
d="M481 576l15 -9c36 -21 43 -32 34 -47l-101 -160l101 -162c9 -15 5 -25 -35 -49l-15 -9c-37 -22 -51 -21 -63 -4l-127 183c-9 13 -13 22 -13 37v6c0 14 4 24 13 37l127 183c11 16 22 18 64 -6zM243 576l15 -9c36 -21 43 -32 34 -47l-101 -160l101 -162
c9 -15 5 -25 -35 -49l-15 -9c-37 -22 -51 -21 -63 -4l-127 183c-9 13 -13 22 -13 37v6c0 14 4 24 13 37l127 183c11 16 22 18 64 -6z" />
    <glyph glyph-name="guillemotright.cap" horiz-adv-x="571" 
d="M75 567l15 9c42 24 53 22 64 6l127 -183c9 -13 13 -23 13 -37v-6c0 -15 -4 -24 -13 -37l-127 -183c-12 -17 -26 -18 -63 4l-15 9c-40 24 -44 34 -35 49l101 162l-101 160c-9 15 -2 26 34 47zM313 567l15 9c42 24 53 22 64 6l127 -183c9 -13 13 -23 13 -37v-6
c0 -15 -4 -24 -13 -37l-127 -183c-12 -17 -26 -18 -63 4l-15 9c-40 24 -44 34 -35 49l101 162l-101 160c-9 15 -2 26 34 47z" />
    <glyph glyph-name="guilsinglleft.cap" horiz-adv-x="337" 
d="M245 576l15 -9c36 -21 43 -32 34 -47l-101 -160l101 -162c9 -15 5 -25 -35 -49l-15 -9c-37 -22 -51 -21 -63 -4l-127 183c-9 13 -13 22 -13 37v6c0 14 4 24 13 37l127 183c11 16 22 18 64 -6z" />
    <glyph glyph-name="guilsinglright.cap" horiz-adv-x="337" 
d="M77 567l15 9c42 24 53 22 64 6l127 -183c9 -13 13 -23 13 -37v-6c0 -15 -4 -24 -13 -37l-127 -183c-12 -17 -26 -18 -63 4l-15 9c-40 24 -44 34 -35 49l101 162l-101 160c-9 15 -2 26 34 47z" />
    <glyph glyph-name="hyphen.cap" horiz-adv-x="399" 
d="M51 424h298c12 0 19 -8 19 -58v-9c0 -49 -7 -59 -19 -59h-298c-16 0 -20 10 -20 59v9c0 50 5 58 20 58z" />
    <glyph glyph-name="uni00AD.cap" horiz-adv-x="399" 
d="M51 424h298c12 0 19 -8 19 -58v-9c0 -49 -7 -59 -19 -59h-298c-16 0 -20 10 -20 59v9c0 50 5 58 20 58z" />
    <glyph glyph-name="endash.cap" horiz-adv-x="500" 
d="M480 305h-460c-16 0 -20 3 -20 56v6c0 53 4 57 20 57h460c16 0 20 -4 20 -57v-6c0 -53 -4 -56 -20 -56z" />
    <glyph glyph-name="emdash.cap" horiz-adv-x="1000" 
d="M980 305h-960c-16 0 -20 3 -20 56v6c0 53 4 57 20 57h960c16 0 20 -4 20 -57v-6c0 -53 -4 -56 -20 -56z" />
    <glyph glyph-name="afii00208.cap" horiz-adv-x="1000" 
d="M980 224h-960c-16 0 -20 3 -20 56v6c0 53 4 57 20 57h960c16 0 20 -4 20 -57v-6c0 -53 -4 -56 -20 -56z" />
    <glyph glyph-name="A.sc" horiz-adv-x="603" 
d="M516 0h-11c-64 0 -80 7 -85 21l-44 120h-155l-43 -120c-5 -14 -17 -21 -82 -21h-12c-65 0 -75 5 -67 26l204 537c6 15 15 19 75 19h8c60 0 71 -4 76 -19l207 -536c7 -19 -3 -27 -71 -27zM337 256c-16 56 -24 88 -37 158c-12 -70 -20 -102 -38 -158h75z" />
    <glyph glyph-name="B.sc" horiz-adv-x="564" 
d="M255 0h-137c-42 0 -50 5 -50 21v540c0 16 8 21 50 21h112c125 0 190 -18 226 -54c23 -23 33 -54 33 -91c0 -51 -24 -99 -79 -126c78 -25 108 -77 108 -133c0 -48 -16 -87 -48 -117c-43 -40 -111 -61 -215 -61zM233 119h25c69 0 91 10 91 63c0 40 -14 59 -86 59h-30v-122z
M233 356h14c43 0 74 9 74 57c0 37 -21 49 -67 49h-21v-106z" />
    <glyph glyph-name="C.sc" horiz-adv-x="540" 
d="M483 115l9 -22c14 -35 18 -43 2 -53c-53 -34 -118 -50 -180 -50c-177 0 -278 106 -278 296c0 176 102 306 281 306c77 0 137 -21 183 -56c15 -12 13 -19 -10 -57l-12 -20c-21 -35 -31 -45 -45 -34c-31 25 -65 38 -101 38c-80 0 -127 -61 -127 -174
c0 -119 49 -169 127 -169c36 0 74 12 110 32c17 9 23 6 41 -37z" />
    <glyph glyph-name="D.sc" horiz-adv-x="614" 
d="M233 123h22c120 0 154 58 154 169c0 107 -30 166 -155 166h-21v-335zM145 582h102c119 0 206 -25 261 -81c47 -47 70 -116 70 -210c0 -88 -24 -160 -75 -210c-54 -52 -137 -81 -259 -81h-99c-67 0 -77 5 -77 21v540c0 16 10 21 77 21z" />
    <glyph glyph-name="E.sc" horiz-adv-x="527" 
d="M233 121h221c20 0 23 -4 23 -57v-7c0 -53 -3 -57 -23 -57h-336c-42 0 -50 5 -50 21v540c0 16 8 21 50 21h332c20 0 23 -4 23 -57v-7c0 -53 -3 -57 -23 -57h-217v-107h183c20 0 23 -4 23 -57v-7c0 -53 -3 -57 -23 -57h-183v-112z" />
    <glyph glyph-name="F.sc" horiz-adv-x="499" 
d="M416 233h-183v-212c0 -16 -10 -21 -77 -21h-11c-67 0 -77 5 -77 21v540c0 16 8 21 50 21h332c20 0 23 -4 23 -57v-7c0 -53 -3 -57 -23 -57h-217v-107h183c20 0 23 -4 23 -57v-7c0 -53 -3 -57 -23 -57z" />
    <glyph glyph-name="G.sc" horiz-adv-x="606" 
d="M544 321v-255c0 -25 -6 -34 -25 -42c-52 -21 -125 -34 -201 -34c-176 0 -282 98 -282 303c0 173 104 299 296 299c68 0 136 -20 189 -55c18 -12 21 -19 -7 -63l-11 -19c-23 -40 -34 -42 -45 -34c-40 29 -80 42 -119 42c-80 0 -134 -49 -134 -170c0 -123 43 -175 129 -175
c14 0 29 1 45 3v97h-73c-18 0 -22 3 -22 59v7c0 57 4 59 22 59h197c29 0 41 -6 41 -22z" />
    <glyph glyph-name="H.sc" horiz-adv-x="630" 
d="M68 21v540c0 16 10 21 77 21h11c67 0 77 -5 77 -21v-207h164v207c0 16 10 21 77 21h11c67 0 77 -5 77 -21v-540c0 -16 -10 -21 -77 -21h-11c-67 0 -77 5 -77 21v212h-164v-212c0 -16 -10 -21 -77 -21h-11c-67 0 -77 5 -77 21z" />
    <glyph glyph-name="I.sc" horiz-adv-x="397" 
d="M330 0h-263c-13 0 -15 4 -15 50v5c0 50 2 54 15 54h49v364h-49c-13 0 -15 4 -15 50v5c0 50 2 54 15 54h263c13 0 15 -3 15 -53v-5c0 -46 -2 -51 -15 -51h-49v-364h49c13 0 15 -3 15 -53v-5c0 -46 -2 -51 -15 -51z" />
    <glyph glyph-name="J.sc" horiz-adv-x="444" 
d="M213 206v355c0 16 10 21 77 21h11c67 0 77 -5 77 -21v-353c0 -82 -19 -133 -56 -169c-34 -33 -85 -49 -149 -49c-42 0 -84 5 -127 19c-15 5 -14 21 -5 55l5 19c10 39 17 52 38 46c20 -5 51 -11 68 -11c21 0 35 5 45 14c15 15 16 38 16 74z" />
    <glyph glyph-name="K.sc" horiz-adv-x="575" 
d="M353 330l191 -302c12 -19 1 -28 -62 -28h-29c-70 0 -73 1 -82 16l-127 206l-11 -11v-190c0 -16 -10 -21 -77 -21h-11c-67 0 -77 5 -77 21v540c0 16 10 21 77 21h11c67 0 77 -5 77 -21v-167l11 11c47 47 75 81 137 162c9 12 15 15 75 15h9c72 0 81 -4 72 -23
c-25 -53 -85 -134 -184 -229z" />
    <glyph glyph-name="L.sc" horiz-adv-x="480" 
d="M233 561v-440h200c20 0 23 -4 23 -57v-7c0 -53 -3 -57 -23 -57h-315c-42 0 -50 5 -50 21v540c0 16 10 21 77 21h11c67 0 77 -5 77 -21z" />
    <glyph glyph-name="M.sc" horiz-adv-x="755" 
d="M615 0h-6c-67 0 -74 5 -74 22l-2 165c0 42 10 126 23 181c-19 -54 -51 -126 -63 -153l-47 -107c-7 -15 -8 -22 -63 -22h-9c-55 0 -55 6 -62 22l-47 103c-16 34 -41 97 -61 158c10 -51 16 -119 15 -183l-4 -164c0 -20 -8 -22 -72 -22h-4c-70 0 -77 3 -76 22l24 538
c1 19 8 22 75 22h12c59 0 70 -4 78 -21l81 -177c20 -44 37 -85 49 -116c12 32 35 85 49 116l77 177c6 13 11 21 78 21h8c65 0 74 -4 75 -23l23 -534c1 -20 -6 -25 -77 -25z" />
    <glyph glyph-name="N.sc" horiz-adv-x="642" 
d="M225 194v-173c0 -16 -15 -21 -75 -21h-7c-60 0 -75 5 -75 21v538c0 20 3 23 67 23h4c56 0 63 -7 72 -19l155 -205c23 -30 41 -57 60 -92c-6 42 -9 82 -9 128v167c0 16 15 21 75 21h7c60 0 75 -5 75 -21v-538c0 -20 -3 -23 -67 -23h-4c-56 0 -63 7 -72 19l-154 205
c-23 30 -44 63 -62 98c6 -42 10 -82 10 -128z" />
    <glyph glyph-name="O.sc" horiz-adv-x="631" 
d="M309 118c78 0 117 63 117 178c0 123 -38 168 -104 168c-78 0 -117 -63 -117 -178c0 -123 38 -168 104 -168zM306 -10c-160 0 -270 82 -270 293c0 187 95 309 289 309c160 0 270 -82 270 -293c0 -187 -95 -309 -289 -309z" />
    <glyph glyph-name="P.sc" horiz-adv-x="531" 
d="M156 0h-11c-67 0 -77 5 -77 21v540c0 16 10 21 77 21h80c198 0 273 -58 273 -191c0 -124 -86 -200 -237 -200c-7 0 -18 0 -28 1v-171c0 -16 -10 -21 -77 -21zM243 461h-10v-148c8 -1 14 -1 17 -1c51 0 79 15 79 81c0 45 -21 68 -86 68z" />
    <glyph glyph-name="Q.sc" horiz-adv-x="631" 
d="M306 -10c-160 0 -270 82 -270 293c0 187 95 309 289 309c160 0 270 -82 270 -293c0 -107 -32 -194 -95 -247c19 -21 40 -40 63 -59c13 -11 13 -14 -27 -45l-14 -11c-41 -32 -46 -30 -61 -18c-26 21 -51 47 -78 78c-24 -5 -49 -7 -77 -7zM377 233c10 -19 22 -39 34 -57
c13 29 15 72 15 120c0 123 -38 168 -104 168c-78 0 -117 -63 -117 -178c0 -120 37 -166 100 -168c-11 18 -22 37 -32 57c-7 13 -6 22 33 44l14 8c42 24 51 17 57 6z" />
    <glyph glyph-name="R.sc" horiz-adv-x="571" 
d="M145 582h92c167 0 262 -44 262 -179c0 -67 -29 -126 -96 -163l13 -23c32 -56 82 -126 129 -186c15 -19 10 -31 -45 -31h-55c-37 0 -52 2 -68 15c-18 15 -53 65 -104 158l-22 40h-18v-192c0 -16 -10 -21 -77 -21h-11c-67 0 -77 5 -77 21v540c0 16 10 21 77 21zM233 332h17
c59 0 80 18 80 71c0 40 -16 58 -79 58h-18v-129z" />
    <glyph glyph-name="S.sc" horiz-adv-x="513" 
d="M53 102l12 24c23 47 31 50 48 39c51 -34 91 -47 125 -47c44 0 61 21 61 46c0 26 -8 38 -80 72c-89 42 -159 76 -159 172c0 119 98 184 214 184c62 0 117 -15 166 -47c15 -10 13 -19 -5 -59l-10 -22c-19 -42 -29 -38 -40 -32c-42 24 -75 34 -102 34c-35 0 -58 -16 -58 -42
c0 -24 10 -33 83 -67c87 -40 156 -86 156 -183c0 -114 -83 -184 -216 -184c-66 0 -140 19 -202 59c-12 8 -12 15 7 53z" />
    <glyph glyph-name="T.sc" horiz-adv-x="497" 
d="M43 582h411c20 0 23 -4 23 -57v-7c0 -53 -3 -57 -23 -57h-123v-440c0 -16 -10 -21 -77 -21h-11c-67 0 -77 5 -77 21v440h-123c-20 0 -23 4 -23 57v7c0 53 3 57 23 57z" />
    <glyph glyph-name="U.sc" horiz-adv-x="628" 
d="M229 561v-343c0 -46 9 -69 25 -82c16 -14 37 -18 60 -18c24 0 45 6 61 18c18 14 27 36 27 82v343c0 16 9 21 76 21h10c67 0 76 -5 76 -21v-333c0 -87 -21 -134 -56 -173c-39 -43 -104 -65 -197 -65c-94 0 -159 22 -197 65c-34 39 -50 82 -50 170v336c0 16 10 21 77 21h11
c67 0 77 -5 77 -21z" />
    <glyph glyph-name="V.sc" horiz-adv-x="601" 
d="M310 0h-8c-67 0 -85 7 -90 22l-182 534c-6 18 1 26 70 26h15c71 0 79 -7 84 -22l70 -228c13 -41 26 -94 37 -159c11 71 23 121 35 158l71 229c5 17 11 22 75 22h10c65 0 80 -8 74 -26l-172 -532c-6 -17 -22 -24 -89 -24z" />
    <glyph glyph-name="W.sc" horiz-adv-x="877" 
d="M613 0h-12c-67 0 -81 5 -85 20l-42 165c-13 50 -27 137 -31 189c-9 -68 -24 -151 -33 -189l-40 -165c-3 -13 -13 -20 -78 -20h-20c-67 0 -75 4 -79 19l-163 538c-5 17 5 25 76 25h13c65 0 78 -6 82 -22l53 -241c8 -36 19 -96 27 -150c8 56 17 104 28 150l54 241
c4 17 11 22 77 22h8c67 0 77 -7 80 -22l55 -242c7 -29 18 -82 28 -149c6 42 20 120 26 148l50 243c4 17 14 22 81 22h5c72 0 79 -10 75 -25l-155 -537c-4 -13 -16 -20 -80 -20z" />
    <glyph glyph-name="X.sc" horiz-adv-x="568" 
d="M542 557l-116 -179c-19 -29 -38 -58 -55 -81c19 -25 33 -45 50 -71l127 -202c10 -17 3 -24 -62 -24h-39c-55 0 -68 3 -75 15l-56 91c-14 23 -24 41 -39 70l-39 -70l-52 -91c-6 -11 -13 -15 -72 -15h-42c-60 0 -63 11 -54 25l128 195c17 26 35 51 54 76
c-18 22 -39 53 -56 81l-112 181c-11 18 -3 24 61 24h47c54 0 63 -1 72 -16l51 -83c13 -22 28 -48 34 -60c8 16 23 44 33 61l45 82c7 12 10 16 72 16h41c61 0 64 -10 54 -25z" />
    <glyph glyph-name="Y.sc" horiz-adv-x="547" 
d="M191 21v207l-174 327c-9 17 -1 27 72 27h22c59 0 73 -5 81 -20l52 -105c13 -26 24 -49 39 -84c13 31 25 59 37 84l49 106c6 13 14 19 74 19h22c64 0 74 -9 65 -26l-174 -328v-207c0 -16 -10 -21 -77 -21h-11c-67 0 -77 5 -77 21z" />
    <glyph glyph-name="Z.sc" horiz-adv-x="533" 
d="M234 121h234c20 0 23 -4 23 -57v-7c0 -53 -3 -57 -23 -57h-380c-42 0 -46 5 -46 21v49c0 20 4 39 21 63l227 328h-205c-20 0 -23 4 -23 57v7c0 53 3 57 23 57h350c42 0 46 -5 46 -21v-49c0 -20 -3 -39 -20 -63z" />
    <glyph glyph-name="ampersand.sc" horiz-adv-x="619" 
d="M562 43l-10 -13c-34 -44 -42 -43 -59 -33c-18 11 -39 23 -62 39c-49 -31 -114 -46 -177 -46c-133 0 -218 74 -218 178c0 62 33 123 105 157c-24 35 -39 71 -39 106c0 97 81 161 195 161c54 0 103 -14 141 -38c8 -5 11 -17 -3 -50l-6 -14c-16 -36 -24 -44 -39 -36
c-23 12 -49 18 -71 18c-32 0 -57 -13 -57 -44c0 -44 50 -95 163 -193c8 35 8 69 8 87s5 24 63 24h11c53 0 61 -5 60 -23c-1 -60 -15 -126 -42 -179c23 -18 42 -29 55 -37c17 -10 8 -30 -18 -64zM335 123c-48 37 -88 78 -122 114c-11 -15 -16 -35 -16 -50
c0 -41 28 -73 85 -73c21 0 38 3 53 9z" />
    <glyph glyph-name="at.sc" horiz-adv-x="758" 
d="M518 124c-52 0 -90 19 -107 45c-25 -30 -61 -45 -95 -45c-58 0 -114 42 -114 128c0 90 64 188 164 188c28 0 53 -9 72 -29l2 8c3 11 9 15 52 15h16c41 0 51 -8 48 -20c-8 -30 -18 -72 -24 -97l-6 -26c-6 -27 -9 -46 -9 -51c0 -20 9 -26 23 -26c37 0 66 57 66 123
c0 110 -84 155 -200 155c-155 0 -246 -108 -246 -228s74 -185 229 -185c62 0 119 8 169 20c10 2 12 2 18 -26l3 -13c5 -23 8 -31 -7 -36c-65 -22 -133 -34 -199 -34c-210 0 -337 96 -337 269c0 196 171 333 369 333c206 0 320 -106 320 -250c0 -125 -82 -218 -207 -218z
M400 284l15 62c-5 3 -11 4 -18 4c-33 0 -64 -46 -64 -96c0 -22 9 -33 22 -33c21 0 33 15 45 63z" />
    <glyph glyph-name="exclam.sc" horiz-adv-x="282" 
d="M55 71c0 46 40 81 86 81s86 -35 86 -81s-40 -81 -86 -81s-86 35 -86 81zM152 202h-22c-44 0 -57 5 -58 18l-15 339c-1 17 12 23 77 23h14c65 0 78 -6 77 -23l-15 -339c-1 -13 -14 -18 -58 -18z" />
    <glyph glyph-name="exclamdown.sc" horiz-adv-x="282" 
d="M55 511c0 46 40 81 86 81s86 -35 86 -81s-40 -81 -86 -81s-86 35 -86 81zM130 380h22c44 0 57 -5 58 -18l15 -339c1 -17 -12 -23 -77 -23h-14c-65 0 -78 6 -77 23l15 339c1 13 14 18 58 18z" />
    <glyph glyph-name="question.sc" horiz-adv-x="417" 
d="M85 71c0 46 40 81 86 81s86 -35 86 -81s-40 -81 -86 -81s-86 35 -86 81zM102 216v7c0 48 44 89 75 121c30 30 48 52 48 81c0 25 -18 44 -51 44c-18 0 -42 -8 -70 -28c-18 -12 -27 -8 -46 27l-13 24c-18 33 -16 43 -4 52c43 31 102 48 158 48c118 0 187 -64 187 -152
c0 -45 -19 -91 -70 -138c-41 -38 -72 -67 -72 -88c0 -14 -8 -19 -62 -19h-19c-52 0 -61 3 -61 21z" />
    <glyph glyph-name="questiondown.sc" horiz-adv-x="417" 
d="M332 511c0 -46 -40 -81 -86 -81s-86 35 -86 81s40 81 86 81s86 -35 86 -81zM315 366v-7c0 -48 -44 -89 -75 -121c-30 -30 -48 -52 -48 -81c0 -25 18 -44 51 -44c18 0 42 8 70 28c18 12 27 8 46 -27l13 -24c18 -33 16 -43 4 -52c-43 -31 -102 -48 -158 -48
c-118 0 -187 64 -187 152c0 45 19 91 70 138c41 38 72 67 72 88c0 14 8 19 62 19h19c52 0 61 -3 61 -21z" />
    <glyph glyph-name="slash.sc" horiz-adv-x="350" 
d="M10 25l175 536c5 16 20 21 74 21h13c69 0 74 -8 68 -25l-175 -536c-5 -16 -20 -21 -74 -21h-13c-69 0 -74 8 -68 25z" />
    <glyph glyph-name="backslash.sc" horiz-adv-x="350" 
d="M165 561l175 -536c6 -17 1 -25 -68 -25h-13c-54 0 -69 5 -74 21l-175 536c-6 17 -1 25 68 25h13c54 0 69 -5 74 -21z" />
    <glyph glyph-name="parenleft.sc" horiz-adv-x="339" 
d="M221 294c0 -144 42 -254 111 -354c6 -10 6 -20 -34 -43l-17 -10c-41 -24 -52 -21 -62 -13c-92 79 -175 239 -175 420s83 341 175 420c10 8 21 11 62 -13l17 -10c40 -23 40 -33 34 -43c-69 -100 -111 -210 -111 -354z" />
    <glyph glyph-name="parenright.sc" horiz-adv-x="339" 
d="M118 294c0 144 -42 254 -111 354c-6 10 -6 20 34 43l17 10c41 24 52 21 62 13c92 -79 175 -239 175 -420s-83 -341 -175 -420c-10 -8 -21 -11 -62 13l-17 10c-40 23 -40 33 -34 43c69 100 111 210 111 354z" />
    <glyph glyph-name="bracketleft.sc" horiz-adv-x="342" 
d="M83 713h234c16 0 17 -6 17 -50v-9c0 -44 -1 -50 -17 -50h-103v-626h103c17 0 17 -7 17 -51v-9c0 -43 0 -50 -17 -50h-234c-14 0 -23 4 -23 14v817c0 10 9 14 23 14z" />
    <glyph glyph-name="bracketright.sc" horiz-adv-x="342" 
d="M25 713h234c14 0 23 -4 23 -14v-817c0 -10 -9 -14 -23 -14h-234c-17 0 -17 7 -17 50v9c0 44 0 51 17 51h103v626h-103c-16 0 -17 6 -17 50v9c0 44 1 50 17 50z" />
    <glyph glyph-name="braceleft.sc" horiz-adv-x="304" 
d="M20 283v15c0 43 2 53 22 58c19 5 34 9 34 41v140c0 109 35 173 158 173h44c13 0 14 -2 14 -50v-12c0 -48 -1 -50 -14 -50h-26c-19 0 -22 -13 -22 -35v-148c0 -57 -14 -96 -55 -125c41 -29 55 -67 55 -124v-148c0 -22 3 -35 22 -35h26c13 0 14 -2 14 -50v-12
c0 -48 -1 -50 -14 -50h-44c-123 0 -158 64 -158 173v140c0 32 -15 36 -34 41c-20 5 -22 15 -22 58z" />
    <glyph glyph-name="braceright.sc" horiz-adv-x="304" 
d="M284 298v-15c0 -43 -2 -53 -22 -58c-19 -5 -34 -9 -34 -41v-140c0 -109 -35 -173 -158 -173h-44c-13 0 -14 2 -14 50v12c0 48 1 50 14 50h26c19 0 22 13 22 35v148c0 57 14 95 55 124c-41 29 -55 68 -55 125v148c0 22 -3 35 -22 35h-26c-13 0 -14 2 -14 50v12
c0 48 1 50 14 50h44c123 0 158 -64 158 -173v-140c0 -32 15 -36 34 -41c20 -5 22 -15 22 -58z" />
    <glyph glyph-name="FI.sc" horiz-adv-x="896" 
d="M416 233h-183v-212c0 -16 -10 -21 -77 -21h-11c-67 0 -77 5 -77 21v540c0 16 8 21 50 21h332c20 0 23 -4 23 -57v-7c0 -53 -3 -57 -23 -57h-217v-107h183c20 0 23 -4 23 -57v-7c0 -53 -3 -57 -23 -57zM829 0h-263c-13 0 -15 4 -15 50v5c0 50 2 54 15 54h49v364h-49
c-13 0 -15 4 -15 50v5c0 50 2 54 15 54h263c13 0 15 -3 15 -53v-5c0 -46 -2 -51 -15 -51h-49v-364h49c13 0 15 -3 15 -53v-5c0 -46 -2 -51 -15 -51z" />
    <glyph glyph-name="FL.sc" horiz-adv-x="979" 
d="M416 233h-183v-212c0 -16 -10 -21 -77 -21h-11c-67 0 -77 5 -77 21v540c0 16 8 21 50 21h332c20 0 23 -4 23 -57v-7c0 -53 -3 -57 -23 -57h-217v-107h183c20 0 23 -4 23 -57v-7c0 -53 -3 -57 -23 -57zM732 561v-440h200c20 0 23 -4 23 -57v-7c0 -53 -3 -57 -23 -57h-315
c-42 0 -50 5 -50 21v540c0 16 10 21 77 21h11c67 0 77 -5 77 -21z" />
    <glyph glyph-name="zero.slash" horiz-adv-x="588" 
d="M301 730c163 0 261 -119 261 -357c0 -248 -101 -383 -277 -383c-162 0 -259 120 -259 358c0 247 100 382 275 382zM298 602c-71 0 -102 -91 -102 -248c0 -50 3 -91 9 -125l143 349c-13 16 -30 24 -50 24zM392 366c0 48 -3 88 -9 121l-143 -347c14 -15 30 -22 49 -22
c71 0 103 92 103 248z" />
    <glyph glyph-name="zero" unicode="0" horiz-adv-x="588" 
d="M298 602c-71 0 -102 -91 -102 -248c0 -161 31 -236 93 -236c71 0 103 92 103 248c0 161 -32 236 -94 236zM301 730c163 0 261 -119 261 -357c0 -248 -101 -383 -277 -383c-162 0 -259 120 -259 358c0 247 100 382 275 382z" />
    <glyph glyph-name="one" unicode="1" horiz-adv-x="588" 
d="M79 623l166 78c34 16 56 19 81 19h24c44 0 50 -5 50 -22v-578h107c11 0 15 -5 15 -55v-10c0 -49 -3 -55 -15 -55h-387c-15 0 -19 6 -19 55v10c0 50 5 55 19 55h116v436l-103 -45c-19 -8 -27 -5 -47 39l-6 13c-19 42 -19 52 -1 60z" />
    <glyph glyph-name="two" unicode="2" horiz-adv-x="588" 
d="M102 588l-14 24c-18 32 -22 45 -5 56c53 35 129 62 205 62c153 0 226 -81 226 -193c0 -100 -47 -183 -197 -350l-52 -58h234c17 0 19 -7 19 -56v-19c0 -49 -4 -54 -19 -54h-378c-50 0 -56 3 -56 22v32c0 27 2 41 23 67l130 159c99 121 130 181 130 237
c0 59 -34 85 -87 85c-37 0 -76 -18 -114 -42c-15 -9 -25 -6 -45 28z" />
    <glyph glyph-name="three" unicode="3" horiz-adv-x="588" 
d="M118 610l-8 16c-18 36 -20 47 -5 56c46 28 114 48 176 48c139 0 223 -72 223 -190c0 -67 -32 -124 -100 -155c71 -26 120 -83 120 -171c0 -61 -22 -114 -59 -154c-43 -44 -117 -70 -203 -70c-76 0 -155 27 -203 58c-12 8 -9 19 8 52l9 18c20 41 26 48 45 37
c39 -22 91 -40 133 -40c63 0 102 32 102 98c0 34 -9 56 -26 71c-24 21 -56 31 -116 31h-26c-16 0 -18 5 -18 55v9c0 49 3 55 18 55h30c46 0 78 9 96 25c17 14 26 36 26 70c0 50 -30 77 -76 77c-32 0 -67 -12 -103 -32c-15 -8 -23 -4 -43 36z" />
    <glyph glyph-name="four" unicode="4" horiz-adv-x="588" 
d="M288 720h10c69 0 79 -8 72 -25l-169 -413h104v107c0 18 11 22 78 22h5c63 0 79 -4 79 -22v-107h69c13 0 16 -4 16 -56v-14c0 -52 -4 -57 -16 -57h-69v-133c0 -17 -16 -22 -79 -22h-5c-67 0 -78 5 -78 22v133h-221c-50 0 -56 3 -56 23v43c0 24 1 38 9 56l173 424
c6 15 18 19 78 19z" />
    <glyph glyph-name="five" unicode="5" horiz-adv-x="588" 
d="M154 720h316c16 0 18 -5 18 -55v-18c0 -50 -2 -56 -18 -56h-223v-125h27c151 0 245 -77 245 -227c0 -71 -25 -131 -66 -174c-47 -49 -116 -75 -203 -75c-71 0 -147 25 -190 53c-12 8 -17 18 4 58l9 17c23 43 29 45 42 37c35 -21 83 -40 130 -40c72 0 107 42 107 118
c0 78 -41 115 -119 115c-33 0 -70 -5 -97 -11c-25 -6 -41 0 -41 24v337c0 19 8 22 59 22z" />
    <glyph glyph-name="six" unicode="6" horiz-adv-x="588" 
d="M490 638l-13 -24c-19 -35 -25 -37 -38 -30c-29 16 -57 23 -85 23c-36 0 -58 -13 -79 -38c-21 -27 -39 -79 -46 -141c32 20 76 35 116 35c129 0 207 -87 207 -217c0 -135 -97 -256 -250 -256c-174 0 -247 128 -247 318c0 252 110 422 294 422c59 0 115 -18 148 -43
c13 -10 8 -21 -7 -49zM222 313v-10c0 -126 31 -188 85 -188c51 0 82 51 82 124c0 68 -29 102 -82 102c-26 0 -59 -12 -85 -28z" />
    <glyph glyph-name="seven" unicode="7" horiz-adv-x="588" 
d="M81 720h393c50 0 56 -6 56 -27v-41c0 -18 -5 -37 -19 -71l-230 -562c-6 -15 -14 -19 -74 -19h-35c-55 0 -70 5 -61 25l247 566h-277c-19 0 -20 6 -20 56v18c0 50 1 55 20 55z" />
    <glyph glyph-name="eight" unicode="8" horiz-adv-x="588" 
d="M47 188c0 75 51 142 121 178c-51 38 -83 91 -83 166c0 112 89 198 229 198c129 0 217 -67 217 -182c0 -72 -42 -122 -101 -157c80 -44 122 -100 122 -188c0 -141 -114 -213 -257 -213c-139 0 -248 67 -248 198zM269 305c-38 -30 -57 -66 -57 -108c0 -52 38 -81 88 -81
c55 0 87 31 87 79c0 55 -52 81 -118 110zM244 541c0 -41 21 -69 78 -97c36 30 53 58 53 98c0 43 -26 67 -65 67c-37 0 -66 -27 -66 -68z" />
    <glyph glyph-name="nine" unicode="9" horiz-adv-x="588" 
d="M95 84l13 25c19 37 26 38 40 30c27 -15 57 -25 93 -25c47 0 78 22 99 61c15 29 27 72 32 124c-35 -22 -71 -31 -114 -31c-127 0 -212 86 -212 210c0 132 88 252 243 252c191 0 255 -139 255 -323c0 -135 -30 -245 -86 -320c-47 -62 -116 -97 -204 -97
c-69 0 -124 18 -161 43c-15 10 -16 17 2 51zM295 391c29 0 57 8 82 22c1 137 -28 193 -87 193c-44 0 -79 -45 -79 -113c0 -65 29 -102 84 -102z" />
    <glyph glyph-name="dollar" unicode="$" horiz-adv-x="588" 
d="M313 834h3c71 0 75 -6 75 -22v-89c40 -8 81 -23 112 -45c21 -15 18 -25 0 -64l-9 -19c-23 -48 -34 -48 -56 -34c-42 25 -74 39 -112 39c-47 0 -77 -28 -77 -69c0 -37 23 -62 98 -98c95 -46 188 -99 188 -224c0 -109 -61 -188 -180 -211v-89c0 -17 -3 -23 -76 -23h-3
c-73 0 -76 6 -76 23v90c-57 12 -103 33 -135 60c-17 15 -14 24 4 61l12 23c20 39 33 49 53 34c44 -32 96 -54 140 -54c60 0 92 25 92 72c0 49 -24 74 -107 113c-127 60 -179 121 -179 213c0 103 68 175 156 197v94c0 16 4 22 77 22z" />
    <glyph glyph-name="cent" unicode="&#xa2;" horiz-adv-x="588" 
d="M409 0v-97c0 -17 -3 -21 -73 -21h-6c-73 0 -75 4 -75 21v94c-45 10 -80 27 -108 53c-52 49 -81 122 -81 210c0 85 26 156 74 207c28 29 66 49 115 61v97c0 17 2 21 75 21h6c70 0 73 -4 73 -21v-95c42 -10 80 -29 106 -51c14 -12 7 -23 -10 -57l-9 -18
c-21 -43 -32 -45 -49 -34c-43 28 -66 37 -108 37c-59 0 -107 -42 -107 -140c0 -93 37 -146 112 -146c39 0 69 9 105 27c24 12 31 8 49 -38l6 -15c15 -39 14 -46 0 -55c-23 -16 -57 -31 -95 -40z" />
    <glyph glyph-name="Euro" unicode="&#x20ac;" horiz-adv-x="588" 
d="M419 230h-152c15 -60 56 -108 126 -108c48 0 81 10 123 31c14 7 22 6 40 -33l9 -19c19 -40 17 -47 1 -57c-62 -37 -120 -54 -195 -54c-159 0 -249 90 -279 240h-58c-15 0 -17 4 -17 49v4c0 48 2 51 17 51h48v43h-49c-15 0 -17 3 -17 48v4c0 48 2 51 17 51h62
c33 152 130 250 285 250c81 0 136 -18 192 -55c12 -8 15 -14 -9 -57l-10 -18c-26 -47 -37 -44 -55 -33c-36 22 -63 32 -105 32c-62 0 -106 -44 -126 -119h153c15 0 17 -3 17 -51v-4c0 -45 -2 -48 -17 -48h-167v-43h166c15 0 17 -3 17 -51v-4c0 -45 -2 -49 -17 -49z" />
    <glyph glyph-name="florin" unicode="&#x192;" horiz-adv-x="588" 
d="M164 457h65l7 55c19 149 92 218 234 218c40 0 76 -7 103 -15c16 -5 18 -14 5 -57l-5 -16c-14 -44 -19 -48 -34 -44c-19 5 -39 8 -60 8c-49 0 -72 -26 -81 -100l-6 -49h100c20 0 22 -4 14 -57l-1 -7c-8 -53 -12 -55 -27 -55h-103l-29 -229c-18 -138 -88 -219 -233 -219
c-35 0 -75 8 -101 17c-16 6 -14 19 -2 61l2 7c14 49 19 54 36 49c21 -6 41 -9 55 -9c49 0 68 23 79 99l31 224h-62c-16 0 -19 5 -12 57l1 7c7 50 11 55 24 55z" />
    <glyph glyph-name="sterling" unicode="&#xa3;" horiz-adv-x="588" 
d="M84 431h62v51c0 149 72 248 229 248c53 0 104 -11 139 -30c18 -11 17 -23 4 -57l-7 -18c-16 -41 -24 -45 -42 -37c-24 11 -47 17 -75 17c-59 0 -81 -43 -81 -113v-61h149c14 0 17 -2 17 -56v-7c0 -55 -6 -56 -17 -56h-150v-36c0 -62 -11 -117 -41 -149h244
c19 0 21 -2 21 -59v-7c0 -54 -2 -61 -21 -61h-422c-20 0 -25 1 -25 55v8c0 37 5 50 24 60c44 24 54 68 54 148v41h-62c-12 0 -17 1 -17 56v7c0 54 5 56 17 56z" />
    <glyph glyph-name="yen" unicode="&#xa5;" horiz-adv-x="588" 
d="M486 231h-108v-28h108c20 0 23 -4 23 -48v-7c0 -45 -3 -49 -23 -49h-108v-77c0 -17 -18 -22 -81 -22h-10c-67 0 -79 5 -79 22v77h-108c-20 0 -23 4 -23 49v7c0 44 3 48 23 48h108v28h-108c-20 0 -23 4 -23 49v7c0 44 3 48 23 48h80l-177 357c-9 19 -1 28 74 28h22
c61 0 78 -5 85 -20l66 -135c18 -36 38 -83 54 -137c16 54 34 101 51 137l63 136c7 14 15 19 77 19h22c66 0 77 -8 68 -27l-180 -358h81c20 0 23 -4 23 -48v-7c0 -45 -3 -49 -23 -49z" />
    <glyph glyph-name="numbersign" unicode="#" horiz-adv-x="601" 
d="M255 720h21c42 0 47 -4 46 -11l-35 -173h99l36 173c2 7 6 11 48 11h21c42 0 47 -4 46 -11l-35 -173h60c14 0 18 3 18 -50v-3c0 -51 -5 -55 -18 -55h-81l-27 -132h58c14 0 18 3 18 -50v-3c0 -51 -5 -55 -18 -55h-81l-37 -177c-2 -7 -6 -11 -48 -11h-21c-42 0 -47 4 -46 11
l36 177h-99l-37 -177c-2 -7 -6 -11 -48 -11h-21c-42 0 -47 4 -46 11l36 177h-60c-13 0 -18 4 -18 55v3c0 53 4 50 18 50h82l27 132h-59c-13 0 -18 4 -18 55v3c0 53 4 50 18 50h81l36 173c2 7 6 11 48 11zM265 428l-27 -132h99l27 132h-99z" />
    <glyph glyph-name="percent" unicode="%" horiz-adv-x="981" 
d="M239 630c-36 0 -53 -36 -53 -107c0 -74 16 -104 48 -104c37 0 53 35 53 109s-18 102 -48 102zM240 730c105 0 182 -64 182 -198c0 -140 -80 -213 -189 -213c-104 0 -182 67 -182 201c0 139 77 210 189 210zM712 720h2c75 0 75 -7 62 -28l-428 -672
c-11 -17 -28 -20 -82 -20h-6c-60 0 -71 8 -58 28l429 672c10 16 24 20 81 20zM747 301c-36 0 -53 -36 -53 -107c0 -74 16 -104 48 -104c37 0 53 35 53 109s-18 102 -48 102zM748 401c105 0 182 -64 182 -198c0 -140 -80 -213 -189 -213c-104 0 -182 67 -182 201
c0 139 77 210 189 210z" />
    <glyph glyph-name="perthousand" unicode="&#x2030;" horiz-adv-x="1394" 
d="M239 630c-36 0 -53 -36 -53 -107c0 -74 16 -104 48 -104c37 0 53 35 53 109s-18 102 -48 102zM240 730c105 0 182 -64 182 -198c0 -140 -80 -213 -189 -213c-104 0 -182 67 -182 201c0 139 77 210 189 210zM712 720h2c75 0 75 -7 62 -28l-428 -672
c-11 -17 -28 -20 -82 -20h-6c-60 0 -71 8 -58 28l429 672c10 16 24 20 81 20zM747 301c-36 0 -53 -36 -53 -107c0 -74 16 -104 48 -104c37 0 53 35 53 109s-18 102 -48 102zM748 401c105 0 182 -64 182 -198c0 -140 -80 -213 -189 -213c-104 0 -182 67 -182 201
c0 139 77 210 189 210zM1160 301c-36 0 -53 -36 -53 -107c0 -74 16 -104 48 -104c37 0 53 35 53 109s-18 102 -48 102zM1161 401c105 0 182 -64 182 -198c0 -140 -80 -213 -189 -213c-104 0 -182 67 -182 201c0 139 77 210 189 210z" />
    <glyph glyph-name="plus" unicode="+" horiz-adv-x="588" 
d="M526 282h-162v-160c0 -15 -8 -21 -64 -21h-13c-55 0 -63 6 -63 21v160h-162c-13 0 -18 7 -18 57v13c0 50 4 57 18 57h162v164c0 15 8 21 63 21h13c56 0 64 -6 64 -21v-164h162c14 0 18 -7 18 -57v-13c0 -50 -5 -57 -18 -57z" />
    <glyph glyph-name="minus" unicode="&#x2212;" horiz-adv-x="588" 
d="M526 282h-464c-13 0 -18 7 -18 57v13c0 50 4 57 18 57h464c14 0 18 -7 18 -57v-13c0 -50 -5 -57 -18 -57z" />
    <glyph glyph-name="multiply" unicode="&#xd7;" horiz-adv-x="588" 
d="M109 513l10 10c41 41 47 42 64 26l110 -109l111 112c16 16 26 14 65 -25l10 -10c36 -36 36 -44 25 -55l-117 -117l115 -115c12 -12 13 -17 -27 -57l-10 -10c-40 -40 -48 -38 -63 -23l-109 110l-110 -109c-15 -15 -24 -16 -65 25l-10 10c-35 35 -36 44 -25 55l115 114
l-115 114c-12 12 -10 18 26 54z" />
    <glyph glyph-name="less" unicode="&#x3c;" horiz-adv-x="588" 
d="M71 404l390 230c16 9 23 6 50 -42l4 -7c23 -40 27 -53 15 -60l-306 -179l300 -176c13 -8 11 -21 -12 -62l-4 -7c-27 -48 -38 -49 -53 -40l-384 226c-16 9 -18 19 -18 54v9c0 33 2 45 18 54z" />
    <glyph glyph-name="divide" unicode="&#xf7;" horiz-adv-x="588" 
d="M527 282h-466c-18 0 -20 7 -20 57v13c0 50 2 57 20 57h466c18 0 20 -7 20 -57v-13c0 -50 -2 -57 -20 -57zM207 129c0 50 43 89 93 89s92 -39 92 -89s-42 -89 -92 -89s-93 39 -93 89zM207 567c0 50 43 89 93 89s92 -39 92 -89s-42 -89 -92 -89s-93 39 -93 89z" />
    <glyph glyph-name="equal" unicode="=" horiz-adv-x="588" 
d="M504 397h-420c-18 0 -20 7 -20 57v13c0 50 2 57 20 57h420c18 0 20 -7 20 -57v-13c0 -50 -2 -57 -20 -57zM504 166h-420c-18 0 -20 7 -20 57v13c0 50 2 57 20 57h420c18 0 20 -7 20 -57v-13c0 -50 -2 -57 -20 -57z" />
    <glyph glyph-name="logicalnot" unicode="&#xac;" horiz-adv-x="588" 
d="M88 524h419c20 0 25 -2 25 -16v-316c0 -15 -8 -21 -64 -21h-13c-55 0 -63 6 -63 21v206h-304c-17 0 -22 7 -22 56v14c0 49 5 56 22 56z" />
    <glyph glyph-name="greater" unicode="&#x3e;" horiz-adv-x="588" 
d="M126 637l390 -230c16 -9 18 -21 18 -54v-9c0 -35 -2 -45 -18 -54l-384 -226c-15 -9 -26 -8 -53 40l-4 7c-23 41 -25 54 -12 62l300 176l-306 179c-12 7 -8 20 15 60l4 7c27 48 34 51 50 42z" />
    <glyph glyph-name="notequal" unicode="&#x2260;" horiz-adv-x="588" 
d="M504 166h-240l-47 -96c-6 -12 -14 -16 -62 -16h-9c-53 0 -64 9 -56 26l43 86h-49c-18 0 -20 7 -20 57v13c0 50 2 57 20 57h112l52 104h-164c-18 0 -20 7 -20 57v13c0 50 2 57 20 57h227l50 100c7 13 14 17 63 17h8c53 0 64 -9 56 -26l-46 -91h62c18 0 20 -7 20 -57v-13
c0 -50 -2 -57 -20 -57h-125l-52 -104h177c18 0 20 -7 20 -57v-13c0 -50 -2 -57 -20 -57z" />
    <glyph glyph-name="approxequal" unicode="&#x2248;" horiz-adv-x="588" 
d="M100 392l-16 4c-36 9 -43 12 -39 28c24 88 78 136 153 136c40 0 74 -12 122 -40c26 -15 57 -37 85 -37c23 0 41 16 50 54c3 13 8 16 52 6l13 -3c41 -9 46 -14 43 -27c-23 -90 -76 -140 -158 -140c-47 0 -85 18 -128 44c-28 17 -49 33 -78 33c-22 0 -35 -13 -47 -52
c-4 -14 -10 -16 -52 -6zM100 158l-16 4c-36 9 -43 12 -39 28c24 88 78 136 153 136c40 0 74 -12 122 -40c26 -15 57 -37 85 -37c23 0 41 16 50 54c3 13 8 16 52 6l13 -3c41 -9 46 -14 43 -27c-23 -90 -76 -140 -158 -140c-47 0 -85 18 -128 44c-28 17 -49 33 -78 33
c-22 0 -35 -13 -47 -52c-4 -14 -10 -16 -52 -6z" />
    <glyph glyph-name="plusminus" unicode="&#xb1;" horiz-adv-x="588" 
d="M70 520h156v162c0 16 8 22 63 22h13c56 0 64 -6 64 -22v-162h156c20 0 24 -6 24 -56v-14c0 -49 -4 -56 -24 -56h-156v-162c0 -15 -8 -21 -64 -21h-13c-55 0 -63 6 -63 21v162h-156c-20 0 -24 7 -24 56v14c0 50 4 56 24 56zM69 126h454c20 0 24 -7 24 -56v-14
c0 -49 -4 -56 -24 -56h-454c-20 0 -24 7 -24 56v14c0 49 4 56 24 56z" />
    <glyph glyph-name="lessequal" unicode="&#x2264;" horiz-adv-x="588" 
d="M64 514l385 226c22 13 31 13 55 -32l7 -13c23 -43 22 -55 5 -65l-296 -174l297 -175c13 -8 17 -16 -7 -58l-9 -15c-25 -42 -36 -44 -49 -36l-388 226c-16 10 -19 18 -19 53v10c0 33 3 44 19 53zM73 126h454c20 0 24 -7 24 -56v-14c0 -49 -4 -56 -24 -56h-454
c-20 0 -24 7 -24 56v14c0 49 4 56 24 56z" />
    <glyph glyph-name="greaterequal" unicode="&#x2265;" horiz-adv-x="588" 
d="M147 740l385 -226c16 -9 19 -20 19 -53v-10c0 -35 -3 -43 -19 -53l-388 -226c-13 -8 -24 -6 -49 36l-9 15c-24 42 -20 50 -7 58l297 175l-296 174c-17 10 -18 22 5 65l7 13c24 45 33 45 55 32zM69 126h454c20 0 24 -7 24 -56v-14c0 -49 -4 -56 -24 -56h-454
c-20 0 -24 7 -24 56v14c0 49 4 56 24 56z" />
    <glyph glyph-name="asciicircum" unicode="^" horiz-adv-x="588" 
d="M288 720h23c41 0 53 -5 60 -20l171 -352c12 -24 9 -33 -63 -33h-10c-47 0 -63 3 -69 15l-100 220l-101 -220c-6 -12 -23 -15 -68 -15h-11c-72 0 -74 10 -63 33c56 118 114 234 170 352c7 15 18 20 61 20z" />
    <glyph glyph-name="asciitilde" unicode="~" horiz-adv-x="588" 
d="M88 291l-14 3c-36 8 -46 14 -43 31c15 82 79 147 163 147c54 0 85 -18 130 -44c27 -16 56 -36 83 -36c28 0 41 25 51 56c4 12 13 12 53 3l14 -3c37 -8 51 -8 47 -26c-16 -78 -70 -149 -166 -149c-60 0 -106 28 -142 49c-27 16 -47 31 -69 31s-39 -17 -51 -56
c-4 -14 -19 -14 -56 -6z" />
    <glyph glyph-name="lozenge" unicode="&#x25ca;" horiz-adv-x="585" 
d="M295 544l-103 -181l103 -182l101 185zM234 -5l-181 318c-7 12 -9 25 -9 43v10c0 19 2 31 9 44l187 325c8 15 17 18 49 18h15c32 0 39 -4 47 -18l181 -323c7 -13 9 -25 9 -44v-10c0 -18 -2 -31 -9 -43l-187 -320c-9 -15 -16 -18 -46 -18h-16c-32 0 -41 3 -49 18z" />
    <glyph glyph-name="degree" unicode="&#xb0;" horiz-adv-x="368" 
d="M184 650c-30 0 -48 -26 -48 -64c0 -36 16 -60 45 -60c31 0 51 24 51 63c0 37 -18 61 -48 61zM29 585c0 90 64 148 158 148c89 0 152 -49 152 -143c0 -90 -64 -147 -159 -147c-88 0 -151 49 -151 142z" />
    <glyph glyph-name="quotesingle" unicode="'" horiz-adv-x="251" 
d="M123 720h6c68 0 75 -3 74 -22l-13 -239c-1 -12 -13 -18 -59 -18h-9c-50 0 -60 7 -61 18l-13 240c-1 18 8 21 75 21z" />
    <glyph glyph-name="quotedbl" unicode="&#x22;" horiz-adv-x="452" 
d="M123 720h6c68 0 75 -3 74 -22l-13 -239c-1 -12 -13 -18 -59 -18h-9c-50 0 -60 7 -61 18l-13 240c-1 18 8 21 75 21zM324 720h6c68 0 75 -3 74 -22l-13 -239c-1 -12 -13 -18 -59 -18h-9c-50 0 -60 7 -61 18l-13 240c-1 18 8 21 75 21z" />
    <glyph glyph-name="radical" unicode="&#x221a;" horiz-adv-x="667" 
d="M76 488h133c34 0 39 -4 47 -29l97 -299l180 615c5 17 8 22 76 22h5c74 0 80 -8 74 -26l-263 -827c-4 -11 -13 -17 -75 -17h-6c-61 0 -70 4 -75 18l-143 424h-50c-14 0 -19 2 -19 56v7c0 54 5 56 19 56z" />
    <glyph glyph-name="currency" unicode="&#xa4;" horiz-adv-x="590" 
d="M492 367c0 -58 -13 -106 -38 -142l76 -131c5 -9 0 -14 -34 -14h-59c-27 0 -32 2 -38 12l-39 67c-21 -6 -45 -9 -71 -9c-23 0 -45 3 -65 9l-40 -67c-6 -10 -11 -12 -38 -12h-59c-34 0 -39 5 -34 14l77 132c-20 32 -32 74 -32 125c0 58 13 106 38 142l-76 131
c-5 9 0 14 34 14h59c27 0 32 -2 38 -12l39 -67c21 6 45 9 71 9c23 0 45 -3 65 -9l40 67c6 10 11 12 38 12h59c34 0 39 -5 34 -14l-77 -132c20 -32 32 -74 32 -125zM355 362c0 56 -21 89 -56 89c-42 0 -64 -36 -64 -95c0 -56 21 -89 56 -89c42 0 64 36 64 95z" />
    <glyph glyph-name="infinity" unicode="&#x221e;" horiz-adv-x="813" 
d="M227 491c70 0 122 -27 182 -87c52 50 106 85 177 85c103 0 180 -61 180 -167c0 -112 -87 -169 -183 -169c-68 0 -116 25 -175 84c-47 -50 -107 -86 -182 -86c-97 0 -179 61 -179 169c0 102 75 171 180 171zM234 266c33 0 62 24 90 56c-30 31 -57 57 -93 57
c-33 0 -53 -22 -53 -56c0 -37 24 -57 56 -57zM576 378c-32 0 -62 -27 -87 -57c35 -40 58 -55 85 -55c38 0 59 25 59 59s-24 53 -57 53z" />
    <glyph glyph-name="uni00B5" unicode="&#xb5;" horiz-adv-x="605" 
d="M141 528h5c70 0 77 -6 77 -22v-262c0 -66 3 -86 16 -100c10 -13 31 -20 54 -20c24 0 42 5 55 15s19 23 21 45c2 23 2 59 2 95v227c0 16 2 22 79 22h5c71 0 78 -6 78 -22v-365c0 -16 7 -23 25 -23c14 0 16 -5 16 -47v-11c0 -37 -2 -47 -15 -52c-18 -7 -44 -12 -73 -12
c-46 0 -81 20 -96 50c-33 -36 -81 -56 -132 -56c-11 0 -24 0 -35 1c3 -75 10 -147 17 -191c3 -18 0 -23 -75 -23h-8c-68 0 -77 2 -80 20c-9 62 -16 158 -16 248v461c0 16 2 22 80 22z" />
    <glyph glyph-name="partialdiff" unicode="&#x2202;" horiz-adv-x="591" 
d="M132 615l-12 23c-16 31 -17 40 -4 49c32 22 91 43 152 43c177 0 268 -146 268 -396c0 -169 -62 -344 -261 -344c-147 0 -239 99 -239 241c0 136 93 231 214 231c39 0 80 -10 114 -28c-9 99 -29 173 -109 173c-27 0 -54 -7 -86 -23c-10 -5 -17 -7 -37 31zM278 115
c55 0 88 58 90 200c-24 15 -57 24 -82 24c-54 0 -89 -38 -89 -110c0 -77 35 -114 81 -114z" />
    <glyph glyph-name="summation" unicode="&#x2211;" horiz-adv-x="591" 
d="M81 720h466c16 0 20 -4 20 -59v-8c0 -54 -4 -61 -20 -61h-299l216 -263c6 -8 10 -14 10 -35v-26c0 -21 -3 -27 -11 -38l-216 -269h300c16 0 20 -2 20 -59v-8c0 -54 -4 -61 -20 -61h-469c-36 0 -48 5 -48 21v54c0 18 5 26 22 47l260 316l-257 310c-14 18 -22 29 -22 47v71
c0 16 12 21 48 21z" />
    <glyph glyph-name="product" unicode="&#x220f;" horiz-adv-x="791" 
d="M44 720h703c15 0 21 -3 21 -59v-8c0 -57 -6 -61 -21 -61h-80v-737c0 -17 -12 -22 -79 -22h-13c-63 0 -78 5 -78 22v737h-203v-737c0 -17 -17 -22 -80 -22h-11c-67 0 -79 5 -79 22v737h-80c-16 0 -21 4 -21 61v8c0 56 5 59 21 59z" />
    <glyph glyph-name="integral" unicode="&#x222b;" horiz-adv-x="380" 
d="M344 662l-3 -16c-8 -43 -13 -50 -28 -46c-12 3 -26 5 -43 5c-33 0 -51 -23 -51 -77c0 -63 22 -137 44 -208c25 -82 50 -175 50 -257c0 -125 -64 -210 -194 -210c-30 0 -56 5 -76 14c-13 6 -15 13 -7 54l3 15c9 44 15 48 29 46s30 -3 43 -3c33 0 46 26 46 76
c0 63 -21 135 -44 206c-25 83 -50 179 -50 261c0 126 70 208 194 208c30 0 59 -5 77 -12c16 -6 18 -11 10 -56z" />
    <glyph glyph-name="Ohm" unicode="&#x2126;" horiz-adv-x="768" 
d="M384 596c-97 0 -162 -80 -162 -221c0 -138 55 -213 122 -267c17 -14 22 -21 22 -54v-5c0 -45 -4 -49 -20 -49h-269c-16 0 -21 7 -21 62v5c0 58 5 60 21 60h76c-63 64 -102 153 -102 252c0 226 151 351 333 351s333 -125 333 -351c0 -99 -39 -188 -102 -252h76
c16 0 21 -2 21 -60v-5c0 -55 -5 -62 -21 -62h-269c-16 0 -20 4 -20 49v5c0 33 5 40 22 54c67 54 122 129 122 267c0 141 -65 221 -162 221z" />
    <glyph glyph-name="increment" unicode="&#x2206;" horiz-adv-x="683" 
d="M322 720h35c51 0 64 -4 69 -17l224 -587c7 -18 9 -35 9 -51v-38c0 -20 -5 -27 -49 -27h-537c-44 0 -49 7 -49 27v38c0 19 2 31 10 51l220 587c5 13 12 17 68 17zM338 505l-125 -367h252z" />
    <glyph glyph-name="litre" unicode="&#x2113;" horiz-adv-x="315" 
d="M135 760h5c66 0 75 -5 78 -18c6 -32 9 -163 9 -292v-308c0 -18 6 -26 23 -26h14c15 0 16 -6 16 -51v-9c0 -39 -4 -46 -15 -51c-14 -6 -36 -10 -73 -10c-41 0 -73 12 -92 31c-26 26 -35 61 -35 108v337c0 92 -6 234 -8 269c-1 15 1 20 78 20z" />
    <glyph glyph-name="estimated" unicode="&#x212e;" horiz-adv-x="922" 
d="M872 352h-666c-4 0 -5 -1 -5 -6v-202c0 -8 3 -16 9 -24c64 -64 154 -108 253 -108c106 0 201 47 264 122h60c-75 -87 -193 -144 -325 -144c-227 0 -412 166 -412 370c0 205 185 370 412 370c226 0 410 -165 410 -370v-8zM721 377v203c0 9 -4 18 -10 25
c-64 63 -152 103 -248 103c-99 0 -187 -42 -252 -106c-7 -7 -10 -17 -10 -26v-199c0 -3 1 -6 5 -6h510c4 0 5 3 5 6z" />
    <glyph glyph-name="numero" unicode="&#x2116;" horiz-adv-x="1140" 
d="M909 668c117 0 191 -70 191 -201c0 -138 -72 -217 -204 -217c-116 0 -190 70 -190 201c0 138 72 217 203 217zM907 551c-42 0 -64 -36 -64 -95c0 -56 20 -89 56 -89c42 0 64 36 64 95c0 56 -21 89 -56 89zM140 720h5c59 0 68 -7 77 -20l180 -268c35 -52 63 -103 91 -160
c-6 64 -9 117 -9 185v240c0 17 11 23 78 23h6c66 0 78 -6 78 -23v-675c0 -17 -5 -22 -71 -22h-6c-53 0 -66 5 -76 20l-179 268c-45 69 -67 109 -94 166c8 -72 12 -132 12 -191v-241c0 -17 -15 -22 -77 -22h-6c-67 0 -79 3 -79 22v675c0 20 4 23 70 23z" />
    <glyph glyph-name="zero.otab" horiz-adv-x="579" 
d="M283 118c70 0 104 63 104 178c0 123 -33 168 -91 168c-70 0 -104 -63 -104 -178c0 -123 33 -168 91 -168zM280 -10c-152 0 -258 82 -258 293c0 187 91 309 277 309c152 0 258 -82 258 -293c0 -187 -91 -309 -277 -309z" />
    <glyph glyph-name="one.otab" horiz-adv-x="579" 
d="M480 0h-347c-13 0 -17 4 -17 47v20c0 43 4 47 17 47h100v318l-87 -32c-19 -7 -26 -6 -45 36l-6 13c-18 39 -18 49 -1 56l149 60c33 13 55 17 77 17h15c50 0 56 -3 56 -22v-446h89c13 0 17 -4 17 -47v-20c0 -43 -4 -47 -17 -47z" />
    <glyph glyph-name="two.otab" horiz-adv-x="579" 
d="M90 456l-13 21c-17 30 -21 43 -5 53c66 42 138 62 206 62c114 0 203 -63 203 -164c0 -116 -117 -209 -196 -278l-31 -27h215c16 0 20 -4 20 -51v-21c0 -47 -4 -51 -20 -51h-367c-54 0 -60 3 -60 22v28c0 25 0 40 24 64l123 119c96 93 126 143 126 179c0 28 -19 52 -64 52
c-34 0 -73 -11 -120 -35c-14 -8 -23 -4 -41 27z" />
    <glyph glyph-name="three.otab" horiz-adv-x="579" 
d="M104 472l-9 16c-18 36 -20 47 -5 56c47 28 117 48 180 48c143 0 229 -72 229 -190c0 -67 -33 -124 -103 -155c73 -26 123 -83 123 -171c0 -137 -100 -224 -268 -224c-78 0 -159 27 -208 58c-12 8 -9 19 8 52l10 18c20 41 26 48 46 37c41 -22 96 -40 139 -40
c65 0 105 32 105 98c0 72 -43 102 -147 102h-29c-16 0 -18 5 -18 55v9c0 49 3 55 18 55h33c89 0 127 29 127 92c0 54 -33 80 -83 80c-31 0 -67 -11 -103 -31c-17 -8 -25 -5 -45 35z" />
    <glyph glyph-name="four.otab" horiz-adv-x="578" 
d="M284 582h11c69 0 75 -8 68 -25l-171 -436h109v113c0 18 8 22 75 22h5c63 0 76 -4 76 -22v-113h69c13 0 16 -1 16 -53v-14c0 -52 -4 -54 -16 -54h-69v-116c0 -17 -13 -22 -76 -22h-5c-67 0 -75 5 -75 22v116h-217c-50 0 -56 3 -56 23v43c0 24 1 38 9 56l173 441
c6 15 14 19 74 19z" />
    <glyph glyph-name="five.otab" horiz-adv-x="579" 
d="M465 459h-229v-131h33c151 0 245 -77 245 -227c0 -71 -25 -131 -66 -174c-47 -49 -116 -75 -203 -75c-71 0 -147 25 -190 53c-12 8 -17 18 4 58l9 17c23 43 29 45 42 37c35 -21 83 -40 130 -40c72 0 106 42 106 118c0 78 -40 115 -118 115c-33 0 -70 -5 -97 -11
c-25 -6 -41 0 -41 24v337c0 19 8 22 59 22h316c14 0 18 -4 18 -51v-21c0 -47 -4 -51 -18 -51z" />
    <glyph glyph-name="six.otab" horiz-adv-x="579" 
d="M485 638l-13 -24c-19 -35 -25 -37 -38 -30c-29 16 -57 23 -85 23c-36 0 -58 -13 -79 -38c-21 -27 -39 -79 -46 -141c32 20 76 35 116 35c129 0 207 -87 207 -217c0 -135 -97 -256 -250 -256c-174 0 -247 128 -247 318c0 252 110 422 294 422c59 0 115 -18 148 -43
c13 -10 8 -21 -7 -49zM217 313v-10c0 -126 31 -188 85 -188c51 0 82 51 82 124c0 68 -29 102 -82 102c-26 0 -59 -12 -85 -28z" />
    <glyph glyph-name="seven.otab" horiz-adv-x="579" 
d="M356 459h-276c-14 0 -18 4 -18 51v21c0 47 4 51 18 51h385c50 0 56 -6 56 -27v-39c0 -18 -4 -39 -18 -73l-223 -562c-6 -15 -14 -19 -74 -19h-27c-55 0 -70 5 -61 25z" />
    <glyph glyph-name="eight.otab" horiz-adv-x="579" 
d="M42 188c0 75 51 142 121 178c-51 38 -83 91 -83 166c0 112 89 198 229 198c129 0 217 -67 217 -182c0 -72 -42 -122 -101 -157c80 -44 122 -100 122 -188c0 -141 -114 -213 -257 -213c-139 0 -248 67 -248 198zM264 305c-38 -30 -57 -66 -57 -108c0 -52 38 -81 88 -81
c55 0 87 31 87 79c0 55 -52 81 -118 110zM239 541c0 -41 21 -69 78 -97c36 30 53 58 53 98c0 43 -26 67 -65 67c-37 0 -66 -27 -66 -68z" />
    <glyph glyph-name="nine.otab" horiz-adv-x="579" 
d="M80 -54l13 25c19 37 26 38 40 30c27 -15 57 -25 93 -25c47 0 78 22 99 61c15 29 27 72 32 124c-35 -22 -71 -31 -114 -31c-127 0 -212 86 -212 210c0 132 88 252 243 252c191 0 255 -139 255 -323c0 -135 -30 -245 -86 -320c-47 -62 -116 -97 -204 -97
c-69 0 -124 18 -161 43c-15 10 -16 17 2 51zM280 253c29 0 57 8 82 22c1 137 -28 193 -87 193c-44 0 -79 -45 -79 -113c0 -65 29 -102 84 -102z" />
    <glyph glyph-name="dollar.otab" horiz-adv-x="579" 
d="M379 658v-73c35 -7 67 -20 98 -40c15 -10 13 -19 -5 -59l-10 -22c-19 -42 -29 -38 -40 -32c-42 24 -75 34 -102 34c-35 0 -58 -16 -58 -42c0 -24 10 -33 83 -67c87 -40 156 -86 156 -183c0 -95 -57 -159 -152 -178v-73c0 -14 -9 -19 -70 -19h-10c-62 0 -71 5 -71 19v77
c-40 9 -80 26 -115 49c-12 8 -12 15 7 53l12 24c23 47 31 50 48 39c51 -34 91 -47 125 -47c44 0 61 21 61 46c0 26 -8 38 -80 72c-89 42 -159 76 -159 172c0 89 54 148 131 172v78c0 14 9 19 71 19h10c61 0 70 -5 70 -19z" />
    <glyph glyph-name="cent.otab" horiz-adv-x="579" 
d="M403 28v-105c0 -14 -9 -19 -70 -19h-10c-62 0 -71 5 -71 19v102c-45 9 -81 27 -109 53c-52 49 -81 122 -81 210c0 85 26 156 74 207c28 29 68 50 116 61v102c0 14 9 19 71 19h10c61 0 70 -5 70 -19v-100c41 -8 82 -29 108 -51c14 -12 7 -23 -10 -57l-9 -18
c-21 -43 -32 -45 -49 -34c-43 28 -66 37 -108 37c-59 0 -107 -42 -107 -140c0 -93 37 -146 112 -146c39 0 69 9 105 27c24 12 31 8 49 -38l6 -15c15 -39 14 -46 0 -55c-23 -16 -62 -33 -97 -40z" />
    <glyph glyph-name="Euro.otab" horiz-adv-x="579" 
d="M266 269h132c14 0 16 -4 16 -44v-3c0 -40 -2 -44 -16 -44h-117c16 -39 45 -61 96 -61c36 0 70 8 105 26c13 7 20 5 39 -31l10 -19c20 -37 16 -44 1 -54c-52 -32 -115 -49 -180 -49c-111 0 -210 57 -242 188h-52c-14 0 -16 4 -16 44v3c0 40 2 44 16 44h41v34h-41
c-14 0 -16 4 -16 44v3c0 40 2 44 16 44h52c34 138 141 198 250 198c61 0 124 -16 175 -49c13 -8 12 -20 -8 -54l-10 -17c-26 -44 -35 -42 -53 -32c-31 18 -59 27 -86 27c-48 0 -81 -26 -98 -73h118c14 0 16 -4 16 -44v-3c0 -40 -2 -44 -16 -44h-132v-34z" />
    <glyph glyph-name="florin.otab" horiz-adv-x="579" 
d="M208 262h-42c-20 0 -20 3 -13 55l1 7c7 52 12 52 26 52h44l7 45c16 113 81 171 205 171c29 0 62 -3 98 -12c15 -4 17 -13 5 -54l-5 -17c-13 -43 -18 -46 -32 -43c-22 5 -40 7 -53 7c-43 0 -55 -22 -61 -61l-5 -36h80c20 0 20 -3 13 -55l-1 -7c-7 -52 -12 -52 -26 -52h-83
l-26 -183c-17 -120 -93 -172 -201 -172c-31 0 -64 5 -97 15c-15 4 -10 17 -1 61l1 5c10 49 18 52 34 48c20 -5 38 -8 50 -8c38 0 51 17 57 60z" />
    <glyph glyph-name="sterling.otab" horiz-adv-x="579" 
d="M485 564c18 -10 15 -20 5 -51l-7 -18c-12 -37 -22 -39 -40 -33c-20 7 -42 11 -58 11c-37 0 -65 -16 -65 -74v-44h125c13 0 16 -1 16 -53v-7c0 -52 -3 -53 -16 -53h-125v-13c0 -39 -9 -87 -30 -108h199c14 0 18 -1 18 -56v-9c0 -55 -4 -56 -18 -56h-372
c-23 0 -25 4 -25 52v7c0 37 5 48 25 56c34 15 43 47 43 111v16h-52c-13 0 -16 1 -16 53v7c0 52 3 53 16 53h52v34c0 160 102 203 199 203c52 0 100 -13 126 -28z" />
    <glyph glyph-name="yen.otab" horiz-adv-x="579" 
d="M401 283h64c14 0 16 -4 16 -44v-3c0 -40 -2 -44 -16 -44h-93v-30h93c14 0 16 -4 16 -44v-3c0 -40 -2 -44 -16 -44h-93v-50c0 -16 -10 -21 -77 -21h-11c-67 0 -77 5 -77 21v50h-93c-14 0 -16 4 -16 44v3c0 40 2 44 16 44h93v30h-93c-14 0 -16 4 -16 44v3c0 40 2 44 16 44
h63l-144 272c-9 17 -1 27 72 27h22c59 0 73 -5 81 -20l52 -105c13 -26 24 -49 39 -84c13 31 25 59 37 84l49 106c6 13 14 19 74 19h22c64 0 74 -9 65 -26z" />
    <glyph glyph-name="numbersign.otab" horiz-adv-x="579" 
d="M313 573l-30 -137h76l30 137c1 5 5 9 46 9h20c40 0 45 -3 44 -9l-30 -137h47c15 0 17 -4 17 -49v-4c0 -48 -2 -51 -17 -51h-69l-18 -82h44c15 0 17 -3 17 -51v-4c0 -45 -2 -49 -17 -49h-67l-29 -137c-1 -5 -5 -9 -46 -9h-20c-40 0 -45 3 -44 9l29 137h-76l-29 -137
c-1 -5 -5 -9 -46 -9h-20c-40 0 -45 3 -44 9l29 137h-46c-15 0 -17 4 -17 49v4c0 48 2 51 17 51h69l18 82h-44c-15 0 -17 3 -17 51v4c0 45 2 49 17 49h66l30 137c1 5 5 9 46 9h20c40 0 45 -3 44 -9zM261 332l-18 -82h76l18 82h-76z" />
    <glyph glyph-name="percent.otab" horiz-adv-x="874" 
d="M702 556l-388 -538c-11 -16 -28 -18 -80 -18h-4c-59 0 -71 8 -58 26l388 538c11 16 28 18 80 18h4c59 0 71 -8 58 -26zM208 256c-92 0 -162 54 -162 164c0 115 69 172 166 172c92 0 162 -54 162 -164c0 -115 -69 -172 -166 -172zM208 351c29 0 43 27 43 75
c0 52 -15 71 -39 71c-29 0 -43 -27 -43 -75c0 -52 15 -71 39 -71zM662 -10c-92 0 -162 54 -162 164c0 115 69 172 166 172c92 0 162 -54 162 -164c0 -115 -69 -172 -166 -172zM662 85c29 0 43 27 43 75c0 52 -15 71 -39 71c-29 0 -43 -27 -43 -75c0 -52 15 -71 39 -71z" />
    <glyph glyph-name="perthousand.otab" horiz-adv-x="1241" 
d="M702 556l-388 -538c-11 -16 -28 -18 -80 -18h-4c-59 0 -71 8 -58 26l388 538c11 16 28 18 80 18h4c59 0 71 -8 58 -26zM208 256c-92 0 -162 54 -162 164c0 115 69 172 166 172c92 0 162 -54 162 -164c0 -115 -69 -172 -166 -172zM208 351c29 0 43 27 43 75
c0 52 -15 71 -39 71c-29 0 -43 -27 -43 -75c0 -52 15 -71 39 -71zM662 -10c-92 0 -162 54 -162 164c0 115 69 172 166 172c92 0 162 -54 162 -164c0 -115 -69 -172 -166 -172zM662 85c29 0 43 27 43 75c0 52 -15 71 -39 71c-29 0 -43 -27 -43 -75c0 -52 15 -71 39 -71z
M1029 -10c-92 0 -162 54 -162 164c0 115 69 172 166 172c92 0 162 -54 162 -164c0 -115 -69 -172 -166 -172zM1029 85c29 0 43 27 43 75c0 52 -15 71 -39 71c-29 0 -43 -27 -43 -75c0 -52 15 -71 39 -71z" />
    <glyph glyph-name="zero.lprop" horiz-adv-x="608" 
d="M308 602c-71 0 -102 -91 -102 -248c0 -161 31 -236 93 -236c71 0 103 92 103 248c0 161 -32 236 -94 236zM311 730c163 0 261 -119 261 -357c0 -248 -101 -383 -277 -383c-162 0 -259 120 -259 358c0 247 100 382 275 382z" />
    <glyph glyph-name="one.lprop" horiz-adv-x="537" 
d="M32 623l166 78c34 16 56 19 81 19h24c44 0 50 -5 50 -22v-578h107c11 0 15 -5 15 -55v-10c0 -49 -3 -55 -15 -55h-387c-15 0 -19 6 -19 55v10c0 50 5 55 19 55h116v436l-103 -45c-19 -8 -27 -5 -47 39l-6 13c-19 42 -19 52 -1 60z" />
    <glyph glyph-name="two.lprop" horiz-adv-x="517" 
d="M68 588l-14 24c-18 32 -22 45 -5 56c53 35 129 62 205 62c153 0 226 -81 226 -193c0 -100 -47 -183 -197 -350l-52 -58h234c17 0 19 -7 19 -56v-19c0 -49 -4 -54 -19 -54h-378c-50 0 -56 3 -56 22v32c0 27 2 41 23 67l130 159c99 121 130 181 130 237c0 59 -34 85 -87 85
c-37 0 -76 -18 -114 -42c-15 -9 -25 -6 -45 28z" />
    <glyph glyph-name="three.lprop" horiz-adv-x="539" 
d="M94 610l-8 16c-18 36 -20 47 -5 56c46 28 114 48 176 48c139 0 223 -72 223 -190c0 -67 -32 -124 -100 -155c71 -26 120 -83 120 -171c0 -61 -22 -114 -59 -154c-43 -44 -117 -70 -203 -70c-76 0 -155 27 -203 58c-12 8 -9 19 8 52l9 18c20 41 26 48 45 37
c39 -22 91 -40 133 -40c63 0 102 32 102 98c0 34 -9 56 -26 71c-24 21 -56 31 -116 31h-26c-16 0 -18 5 -18 55v9c0 49 3 55 18 55h30c46 0 78 9 96 25c17 14 26 36 26 70c0 50 -30 77 -76 77c-32 0 -67 -12 -103 -32c-15 -8 -23 -4 -43 36z" />
    <glyph glyph-name="four.lprop" horiz-adv-x="600" 
d="M297 720h10c69 0 79 -8 72 -25l-169 -413h104v107c0 18 11 22 78 22h5c63 0 79 -4 79 -22v-107h69c13 0 16 -4 16 -56v-14c0 -52 -4 -57 -16 -57h-69v-133c0 -17 -16 -22 -79 -22h-5c-67 0 -78 5 -78 22v133h-221c-50 0 -56 3 -56 23v43c0 24 1 38 9 56l173 424
c6 15 18 19 78 19z" />
    <glyph glyph-name="five.lprop" horiz-adv-x="530" 
d="M130 720h316c16 0 18 -5 18 -55v-18c0 -50 -2 -56 -18 -56h-223v-125h27c151 0 245 -77 245 -227c0 -71 -25 -131 -66 -174c-47 -49 -116 -75 -203 -75c-71 0 -147 25 -190 53c-12 8 -17 18 4 58l9 17c23 43 29 45 42 37c35 -21 83 -40 130 -40c72 0 107 42 107 118
c0 78 -41 115 -119 115c-33 0 -70 -5 -97 -11c-25 -6 -41 0 -41 24v337c0 19 8 22 59 22z" />
    <glyph glyph-name="six.lprop" horiz-adv-x="564" 
d="M471 638l-13 -24c-19 -35 -25 -37 -38 -30c-29 16 -57 23 -85 23c-36 0 -58 -13 -79 -38c-21 -27 -39 -79 -46 -141c32 20 76 35 116 35c129 0 207 -87 207 -217c0 -135 -97 -256 -250 -256c-174 0 -247 128 -247 318c0 252 110 422 294 422c59 0 115 -18 148 -43
c13 -10 8 -21 -7 -49zM203 313v-10c0 -126 31 -188 85 -188c51 0 82 51 82 124c0 68 -29 102 -82 102c-26 0 -59 -12 -85 -28z" />
    <glyph glyph-name="seven.lprop" horiz-adv-x="509" 
d="M45 720h393c50 0 56 -6 56 -27v-41c0 -18 -5 -37 -19 -71l-230 -562c-6 -15 -14 -19 -74 -19h-35c-55 0 -70 5 -61 25l247 566h-277c-19 0 -20 6 -20 56v18c0 50 1 55 20 55z" />
    <glyph glyph-name="eight.lprop" horiz-adv-x="559" 
d="M27 188c0 75 51 142 121 178c-51 38 -83 91 -83 166c0 112 89 198 229 198c129 0 217 -67 217 -182c0 -72 -42 -122 -101 -157c80 -44 122 -100 122 -188c0 -141 -114 -213 -257 -213c-139 0 -248 67 -248 198zM249 305c-38 -30 -57 -66 -57 -108c0 -52 38 -81 88 -81
c55 0 87 31 87 79c0 55 -52 81 -118 110zM224 541c0 -41 21 -69 78 -97c36 30 53 58 53 98c0 43 -26 67 -65 67c-37 0 -66 -27 -66 -68z" />
    <glyph glyph-name="nine.lprop" horiz-adv-x="565" 
d="M80 84l13 25c19 37 26 38 40 30c27 -15 57 -25 93 -25c47 0 78 22 99 61c15 29 27 72 32 124c-35 -22 -71 -31 -114 -31c-127 0 -212 86 -212 210c0 132 88 252 243 252c191 0 255 -139 255 -323c0 -135 -30 -245 -86 -320c-47 -62 -116 -97 -204 -97
c-69 0 -124 18 -161 43c-15 10 -16 17 2 51zM280 391c29 0 57 8 82 22c1 137 -28 193 -87 193c-44 0 -79 -45 -79 -113c0 -65 29 -102 84 -102z" />
    <glyph glyph-name="dollar.lprop" horiz-adv-x="572" 
d="M305 834h3c71 0 75 -6 75 -22v-89c40 -8 81 -23 112 -45c21 -15 18 -25 0 -64l-9 -19c-23 -48 -34 -48 -56 -34c-42 25 -74 39 -112 39c-47 0 -77 -28 -77 -69c0 -37 23 -62 98 -98c95 -46 188 -99 188 -224c0 -109 -61 -188 -180 -211v-89c0 -17 -3 -23 -76 -23h-3
c-73 0 -76 6 -76 23v90c-57 12 -103 33 -135 60c-17 15 -14 24 4 61l12 23c20 39 33 49 53 34c44 -32 96 -54 140 -54c60 0 92 25 92 72c0 49 -24 74 -107 113c-127 60 -179 121 -179 213c0 103 68 175 156 197v94c0 16 4 22 77 22z" />
    <glyph glyph-name="cent.lprop" horiz-adv-x="537" 
d="M388 0v-97c0 -17 -3 -21 -73 -21h-6c-73 0 -75 4 -75 21v94c-45 10 -80 27 -108 53c-52 49 -81 122 -81 210c0 85 26 156 74 207c28 29 66 49 115 61v97c0 17 2 21 75 21h6c70 0 73 -4 73 -21v-95c42 -10 80 -29 106 -51c14 -12 7 -23 -10 -57l-9 -18
c-21 -43 -32 -45 -49 -34c-43 28 -66 37 -108 37c-59 0 -107 -42 -107 -140c0 -93 37 -146 112 -146c39 0 69 9 105 27c24 12 31 8 49 -38l6 -15c15 -39 14 -46 0 -55c-23 -16 -57 -31 -95 -40z" />
    <glyph glyph-name="Euro.lprop" horiz-adv-x="588" 
d="M419 230h-152c15 -60 56 -108 126 -108c48 0 81 10 123 31c14 7 22 6 40 -33l9 -19c19 -40 17 -47 1 -57c-62 -37 -120 -54 -195 -54c-159 0 -249 90 -279 240h-58c-15 0 -17 4 -17 49v4c0 48 2 51 17 51h48v43h-49c-15 0 -17 3 -17 48v4c0 48 2 51 17 51h62
c33 152 130 250 285 250c81 0 136 -18 192 -55c12 -8 15 -14 -9 -57l-10 -18c-26 -47 -37 -44 -55 -33c-36 22 -63 32 -105 32c-62 0 -106 -44 -126 -119h153c15 0 17 -3 17 -51v-4c0 -45 -2 -48 -17 -48h-167v-43h166c15 0 17 -3 17 -51v-4c0 -45 -2 -49 -17 -49z" />
    <glyph glyph-name="florin.lprop" horiz-adv-x="588" 
d="M164 457h65l7 55c19 149 92 218 234 218c40 0 76 -7 103 -15c16 -5 18 -14 5 -57l-5 -16c-14 -44 -19 -48 -34 -44c-19 5 -39 8 -60 8c-49 0 -72 -26 -81 -100l-6 -49h100c20 0 22 -4 14 -57l-1 -7c-8 -53 -12 -55 -27 -55h-103l-29 -229c-18 -138 -88 -219 -233 -219
c-35 0 -75 8 -101 17c-16 6 -14 19 -2 61l2 7c14 49 19 54 36 49c21 -6 41 -9 55 -9c49 0 68 23 79 99l31 224h-62c-16 0 -19 5 -12 57l1 7c7 50 11 55 24 55z" />
    <glyph glyph-name="sterling.lprop" horiz-adv-x="588" 
d="M84 431h62v51c0 149 72 248 229 248c53 0 104 -11 139 -30c18 -11 17 -23 4 -57l-7 -18c-16 -41 -24 -45 -42 -37c-24 11 -47 17 -75 17c-59 0 -81 -43 -81 -113v-61h149c14 0 17 -2 17 -56v-7c0 -55 -6 -56 -17 -56h-150v-36c0 -62 -11 -117 -41 -149h244
c19 0 21 -2 21 -59v-7c0 -54 -2 -61 -21 -61h-422c-20 0 -25 1 -25 55v8c0 37 5 50 24 60c44 24 54 68 54 148v41h-62c-12 0 -17 1 -17 56v7c0 54 5 56 17 56z" />
    <glyph glyph-name="yen.lprop" horiz-adv-x="588" 
d="M486 231h-108v-28h108c20 0 23 -4 23 -48v-7c0 -45 -3 -49 -23 -49h-108v-77c0 -17 -18 -22 -81 -22h-10c-67 0 -79 5 -79 22v77h-108c-20 0 -23 4 -23 49v7c0 44 3 48 23 48h108v28h-108c-20 0 -23 4 -23 49v7c0 44 3 48 23 48h80l-177 357c-9 19 -1 28 74 28h22
c61 0 78 -5 85 -20l66 -135c18 -36 38 -83 54 -137c16 54 34 101 51 137l63 136c7 14 15 19 77 19h22c66 0 77 -8 68 -27l-180 -358h81c20 0 23 -4 23 -48v-7c0 -45 -3 -49 -23 -49z" />
    <glyph glyph-name="numbersign.lprop" horiz-adv-x="601" 
d="M255 720h21c42 0 47 -4 46 -11l-35 -173h99l36 173c2 7 6 11 48 11h21c42 0 47 -4 46 -11l-35 -173h60c14 0 18 3 18 -50v-3c0 -51 -5 -55 -18 -55h-81l-27 -132h58c14 0 18 3 18 -50v-3c0 -51 -5 -55 -18 -55h-81l-37 -177c-2 -7 -6 -11 -48 -11h-21c-42 0 -47 4 -46 11
l36 177h-99l-37 -177c-2 -7 -6 -11 -48 -11h-21c-42 0 -47 4 -46 11l36 177h-60c-13 0 -18 4 -18 55v3c0 53 4 50 18 50h82l27 132h-59c-13 0 -18 4 -18 55v3c0 53 4 50 18 50h81l36 173c2 7 6 11 48 11zM265 428l-27 -132h99l27 132h-99z" />
    <glyph glyph-name="percent.lprop" horiz-adv-x="981" 
d="M239 630c-36 0 -53 -36 -53 -107c0 -74 16 -104 48 -104c37 0 53 35 53 109s-18 102 -48 102zM240 730c105 0 182 -64 182 -198c0 -140 -80 -213 -189 -213c-104 0 -182 67 -182 201c0 139 77 210 189 210zM712 720h2c75 0 75 -7 62 -28l-428 -672
c-11 -17 -28 -20 -82 -20h-6c-60 0 -71 8 -58 28l429 672c10 16 24 20 81 20zM747 301c-36 0 -53 -36 -53 -107c0 -74 16 -104 48 -104c37 0 53 35 53 109s-18 102 -48 102zM748 401c105 0 182 -64 182 -198c0 -140 -80 -213 -189 -213c-104 0 -182 67 -182 201
c0 139 77 210 189 210z" />
    <glyph glyph-name="perthousand.lprop" horiz-adv-x="1394" 
d="M239 630c-36 0 -53 -36 -53 -107c0 -74 16 -104 48 -104c37 0 53 35 53 109s-18 102 -48 102zM240 730c105 0 182 -64 182 -198c0 -140 -80 -213 -189 -213c-104 0 -182 67 -182 201c0 139 77 210 189 210zM712 720h2c75 0 75 -7 62 -28l-428 -672
c-11 -17 -28 -20 -82 -20h-6c-60 0 -71 8 -58 28l429 672c10 16 24 20 81 20zM747 301c-36 0 -53 -36 -53 -107c0 -74 16 -104 48 -104c37 0 53 35 53 109s-18 102 -48 102zM748 401c105 0 182 -64 182 -198c0 -140 -80 -213 -189 -213c-104 0 -182 67 -182 201
c0 139 77 210 189 210zM1160 301c-36 0 -53 -36 -53 -107c0 -74 16 -104 48 -104c37 0 53 35 53 109s-18 102 -48 102zM1161 401c105 0 182 -64 182 -198c0 -140 -80 -213 -189 -213c-104 0 -182 67 -182 201c0 139 77 210 189 210z" />
    <glyph glyph-name="zero.oprop" horiz-adv-x="611" 
d="M299 118c70 0 104 63 104 178c0 123 -33 168 -91 168c-70 0 -104 -63 -104 -178c0 -123 33 -168 91 -168zM296 -10c-152 0 -258 82 -258 293c0 187 91 309 277 309c152 0 258 -82 258 -293c0 -187 -91 -309 -277 -309z" />
    <glyph glyph-name="one.oprop" horiz-adv-x="501" 
d="M423 0h-347c-13 0 -17 4 -17 47v20c0 43 4 47 17 47h100v318l-87 -32c-19 -7 -26 -6 -45 36l-6 13c-18 39 -18 49 -1 56l149 60c33 13 55 17 77 17h15c50 0 56 -3 56 -22v-446h89c13 0 17 -4 17 -47v-20c0 -43 -4 -47 -17 -47z" />
    <glyph glyph-name="two.oprop" horiz-adv-x="510" 
d="M78 456l-13 21c-17 30 -21 43 -5 53c66 42 138 62 206 62c114 0 203 -63 203 -164c0 -116 -117 -209 -196 -278l-31 -27h215c16 0 20 -4 20 -51v-21c0 -47 -4 -51 -20 -51h-367c-54 0 -60 3 -60 22v28c0 25 0 40 24 64l123 119c96 93 126 143 126 179c0 28 -19 52 -64 52
c-34 0 -73 -11 -120 -35c-14 -8 -23 -4 -41 27z" />
    <glyph glyph-name="three.oprop" horiz-adv-x="545" 
d="M92 472l-9 16c-18 36 -20 47 -5 56c47 28 117 48 180 48c143 0 229 -72 229 -190c0 -67 -33 -124 -103 -155c73 -26 123 -83 123 -171c0 -137 -100 -224 -268 -224c-78 0 -159 27 -208 58c-12 8 -9 19 8 52l10 18c20 41 26 48 46 37c41 -22 96 -40 139 -40
c65 0 105 32 105 98c0 72 -43 102 -147 102h-29c-16 0 -18 5 -18 55v9c0 49 3 55 18 55h33c89 0 127 29 127 92c0 54 -33 80 -83 80c-31 0 -67 -11 -103 -31c-17 -8 -25 -5 -45 35z" />
    <glyph glyph-name="four.oprop" horiz-adv-x="583" 
d="M290 582h11c69 0 75 -8 68 -25l-171 -436h109v113c0 18 8 22 75 22h5c63 0 76 -4 76 -22v-113h69c13 0 16 -1 16 -53v-14c0 -52 -4 -54 -16 -54h-69v-116c0 -17 -13 -22 -76 -22h-5c-67 0 -75 5 -75 22v116h-217c-50 0 -56 3 -56 23v43c0 24 1 38 9 56l173 441
c6 15 14 19 74 19z" />
    <glyph glyph-name="five.oprop" horiz-adv-x="533" 
d="M446 459h-229v-131h33c151 0 245 -77 245 -227c0 -71 -25 -131 -66 -174c-47 -49 -116 -75 -203 -75c-71 0 -147 25 -190 53c-12 8 -17 18 4 58l9 17c23 43 29 45 42 37c35 -21 83 -40 130 -40c72 0 106 42 106 118c0 78 -40 115 -118 115c-33 0 -70 -5 -97 -11
c-25 -6 -41 0 -41 24v337c0 19 8 22 59 22h316c14 0 18 -4 18 -51v-21c0 -47 -4 -51 -18 -51z" />
    <glyph glyph-name="six.oprop" horiz-adv-x="569" 
d="M473 638l-13 -24c-19 -35 -25 -37 -38 -30c-29 16 -57 23 -85 23c-36 0 -58 -13 -79 -38c-21 -27 -39 -79 -46 -141c32 20 76 35 116 35c129 0 207 -87 207 -217c0 -135 -97 -256 -250 -256c-174 0 -247 128 -247 318c0 252 110 422 294 422c59 0 115 -18 148 -43
c13 -10 8 -21 -7 -49zM205 313v-10c0 -126 31 -188 85 -188c51 0 82 51 82 124c0 68 -29 102 -82 102c-26 0 -59 -12 -85 -28z" />
    <glyph glyph-name="seven.oprop" horiz-adv-x="513" 
d="M316 459h-276c-14 0 -18 4 -18 51v21c0 47 4 51 18 51h385c50 0 56 -6 56 -27v-39c0 -18 -4 -39 -18 -73l-223 -562c-6 -15 -14 -19 -74 -19h-27c-55 0 -70 5 -61 25z" />
    <glyph glyph-name="eight.oprop" horiz-adv-x="569" 
d="M32 188c0 75 51 142 121 178c-51 38 -83 91 -83 166c0 112 89 198 229 198c129 0 217 -67 217 -182c0 -72 -42 -122 -101 -157c80 -44 122 -100 122 -188c0 -141 -114 -213 -257 -213c-139 0 -248 67 -248 198zM254 305c-38 -30 -57 -66 -57 -108c0 -52 38 -81 88 -81
c55 0 87 31 87 79c0 55 -52 81 -118 110zM229 541c0 -41 21 -69 78 -97c36 30 53 58 53 98c0 43 -26 67 -65 67c-37 0 -66 -27 -66 -68z" />
    <glyph glyph-name="nine.oprop" horiz-adv-x="570" 
d="M83 -54l13 25c19 37 26 38 40 30c27 -15 57 -25 93 -25c47 0 78 22 99 61c15 29 27 72 32 124c-35 -22 -71 -31 -114 -31c-127 0 -212 86 -212 210c0 132 88 252 243 252c191 0 255 -139 255 -323c0 -135 -30 -245 -86 -320c-47 -62 -116 -97 -204 -97
c-69 0 -124 18 -161 43c-15 10 -16 17 2 51zM283 253c29 0 57 8 82 22c1 137 -28 193 -87 193c-44 0 -79 -45 -79 -113c0 -65 29 -102 84 -102z" />
    <glyph glyph-name="dollar.oprop" horiz-adv-x="523" 
d="M345 658v-73c35 -7 67 -20 98 -40c15 -10 13 -19 -5 -59l-10 -22c-19 -42 -29 -38 -40 -32c-42 24 -75 34 -102 34c-35 0 -58 -16 -58 -42c0 -24 10 -33 83 -67c87 -40 156 -86 156 -183c0 -95 -57 -159 -152 -178v-73c0 -14 -9 -19 -70 -19h-10c-62 0 -71 5 -71 19v77
c-40 9 -80 26 -115 49c-12 8 -12 15 7 53l12 24c23 47 31 50 48 39c51 -34 91 -47 125 -47c44 0 61 21 61 46c0 26 -8 38 -80 72c-89 42 -159 76 -159 172c0 89 54 148 131 172v78c0 14 9 19 71 19h10c61 0 70 -5 70 -19z" />
    <glyph glyph-name="cent.oprop" horiz-adv-x="540" 
d="M387 28v-105c0 -14 -9 -19 -70 -19h-10c-62 0 -71 5 -71 19v102c-45 9 -81 27 -109 53c-52 49 -81 122 -81 210c0 85 26 156 74 207c28 29 68 50 116 61v102c0 14 9 19 71 19h10c61 0 70 -5 70 -19v-100c41 -8 82 -29 108 -51c14 -12 7 -23 -10 -57l-9 -18
c-21 -43 -32 -45 -49 -34c-43 28 -66 37 -108 37c-59 0 -107 -42 -107 -140c0 -93 37 -146 112 -146c39 0 69 9 105 27c24 12 31 8 49 -38l6 -15c15 -39 14 -46 0 -55c-23 -16 -62 -33 -97 -40z" />
    <glyph glyph-name="Euro.oprop" horiz-adv-x="533" 
d="M242 269h132c14 0 16 -4 16 -44v-3c0 -40 -2 -44 -16 -44h-117c16 -39 45 -61 96 -61c36 0 70 8 105 26c13 7 20 5 39 -31l10 -19c20 -37 16 -44 1 -54c-52 -32 -115 -49 -180 -49c-111 0 -210 57 -242 188h-52c-14 0 -16 4 -16 44v3c0 40 2 44 16 44h41v34h-41
c-14 0 -16 4 -16 44v3c0 40 2 44 16 44h52c34 138 141 198 250 198c61 0 124 -16 175 -49c13 -8 12 -20 -8 -54l-10 -17c-26 -44 -35 -42 -53 -32c-31 18 -59 27 -86 27c-48 0 -81 -26 -98 -73h118c14 0 16 -4 16 -44v-3c0 -40 -2 -44 -16 -44h-132v-34z" />
    <glyph glyph-name="florin.oprop" horiz-adv-x="543" 
d="M194 262h-42c-20 0 -20 3 -13 55l1 7c7 52 12 52 26 52h44l7 45c16 113 81 171 205 171c29 0 62 -3 98 -12c15 -4 17 -13 5 -54l-5 -17c-13 -43 -18 -46 -32 -43c-22 5 -40 7 -53 7c-43 0 -55 -22 -61 -61l-5 -36h80c20 0 20 -3 13 -55l-1 -7c-7 -52 -12 -52 -26 -52h-83
l-26 -183c-17 -120 -93 -172 -201 -172c-31 0 -64 5 -97 15c-15 4 -10 17 -1 61l1 5c10 49 18 52 34 48c20 -5 38 -8 50 -8c38 0 51 17 57 60z" />
    <glyph glyph-name="sterling.oprop" horiz-adv-x="540" 
d="M463 564c18 -10 15 -20 5 -51l-7 -18c-12 -37 -22 -39 -40 -33c-20 7 -42 11 -58 11c-37 0 -65 -16 -65 -74v-44h125c13 0 16 -1 16 -53v-7c0 -52 -3 -53 -16 -53h-125v-13c0 -39 -9 -87 -30 -108h199c14 0 18 -1 18 -56v-9c0 -55 -4 -56 -18 -56h-372
c-23 0 -25 4 -25 52v7c0 37 5 48 25 56c34 15 43 47 43 111v16h-52c-13 0 -16 1 -16 53v7c0 52 3 53 16 53h52v34c0 160 102 203 199 203c52 0 100 -13 126 -28z" />
    <glyph glyph-name="yen.oprop" horiz-adv-x="526" 
d="M374 283h64c14 0 16 -4 16 -44v-3c0 -40 -2 -44 -16 -44h-93v-30h93c14 0 16 -4 16 -44v-3c0 -40 -2 -44 -16 -44h-93v-50c0 -16 -10 -21 -77 -21h-11c-67 0 -77 5 -77 21v50h-93c-14 0 -16 4 -16 44v3c0 40 2 44 16 44h93v30h-93c-14 0 -16 4 -16 44v3c0 40 2 44 16 44
h63l-144 272c-9 17 -1 27 72 27h22c59 0 73 -5 81 -20l52 -105c13 -26 24 -49 39 -84c13 31 25 59 37 84l49 106c6 13 14 19 74 19h22c64 0 74 -9 65 -26z" />
    <glyph glyph-name="numbersign.oprop" horiz-adv-x="579" 
d="M313 573l-30 -137h76l30 137c1 5 5 9 46 9h20c40 0 45 -3 44 -9l-30 -137h47c15 0 17 -4 17 -49v-4c0 -48 -2 -51 -17 -51h-69l-18 -82h44c15 0 17 -3 17 -51v-4c0 -45 -2 -49 -17 -49h-67l-29 -137c-1 -5 -5 -9 -46 -9h-20c-40 0 -45 3 -44 9l29 137h-76l-29 -137
c-1 -5 -5 -9 -46 -9h-20c-40 0 -45 3 -44 9l29 137h-46c-15 0 -17 4 -17 49v4c0 48 2 51 17 51h69l18 82h-44c-15 0 -17 3 -17 51v4c0 45 2 49 17 49h66l30 137c1 5 5 9 46 9h20c40 0 45 -3 44 -9zM261 332l-18 -82h76l18 82h-76z" />
    <glyph glyph-name="percent.oprop" horiz-adv-x="874" 
d="M702 556l-388 -538c-11 -16 -28 -18 -80 -18h-4c-59 0 -71 8 -58 26l388 538c11 16 28 18 80 18h4c59 0 71 -8 58 -26zM208 256c-92 0 -162 54 -162 164c0 115 69 172 166 172c92 0 162 -54 162 -164c0 -115 -69 -172 -166 -172zM208 351c29 0 43 27 43 75
c0 52 -15 71 -39 71c-29 0 -43 -27 -43 -75c0 -52 15 -71 39 -71zM662 -10c-92 0 -162 54 -162 164c0 115 69 172 166 172c92 0 162 -54 162 -164c0 -115 -69 -172 -166 -172zM662 85c29 0 43 27 43 75c0 52 -15 71 -39 71c-29 0 -43 -27 -43 -75c0 -52 15 -71 39 -71z" />
    <glyph glyph-name="perthousand.oprop" horiz-adv-x="1241" 
d="M702 556l-388 -538c-11 -16 -28 -18 -80 -18h-4c-59 0 -71 8 -58 26l388 538c11 16 28 18 80 18h4c59 0 71 -8 58 -26zM208 256c-92 0 -162 54 -162 164c0 115 69 172 166 172c92 0 162 -54 162 -164c0 -115 -69 -172 -166 -172zM208 351c29 0 43 27 43 75
c0 52 -15 71 -39 71c-29 0 -43 -27 -43 -75c0 -52 15 -71 39 -71zM662 -10c-92 0 -162 54 -162 164c0 115 69 172 166 172c92 0 162 -54 162 -164c0 -115 -69 -172 -166 -172zM662 85c29 0 43 27 43 75c0 52 -15 71 -39 71c-29 0 -43 -27 -43 -75c0 -52 15 -71 39 -71z
M1029 -10c-92 0 -162 54 -162 164c0 115 69 172 166 172c92 0 162 -54 162 -164c0 -115 -69 -172 -166 -172zM1029 85c29 0 43 27 43 75c0 52 -15 71 -39 71c-29 0 -43 -27 -43 -75c0 -52 15 -71 39 -71z" />
    <glyph glyph-name="a.sup" horiz-adv-x="403" 
d="M176 665c33 0 60 -12 74 -36l2 15c1 11 10 14 48 14h12c45 0 52 -4 52 -16c-1 -68 -1 -106 -1 -139v-39c0 -49 1 -106 4 -141c1 -14 7 -18 -45 -18h-12c-52 0 -55 3 -57 13l-4 18c-16 -23 -45 -38 -80 -38c-90 0 -149 67 -149 177c0 122 72 190 156 190zM237 449v103
c-9 10 -21 16 -36 16c-35 0 -50 -29 -50 -90c0 -53 12 -86 47 -86c15 0 24 4 30 12c7 9 9 24 9 45z" />
    <glyph glyph-name="b.sup" horiz-adv-x="401" 
d="M166 647c21 11 45 18 69 18c96 0 146 -78 146 -177c0 -132 -68 -190 -195 -190c-48 0 -101 10 -128 28c-11 7 -18 16 -18 32v438c0 13 0 17 63 17h2c57 0 61 -4 61 -17v-149zM166 527v-132c8 -3 17 -4 27 -4c17 0 35 7 43 20c10 16 16 40 16 75c0 34 -6 57 -14 68
c-9 12 -21 16 -34 16c-15 0 -26 -4 -32 -13c-3 -4 -6 -11 -6 -30z" />
    <glyph glyph-name="c.sup" horiz-adv-x="341" 
d="M318 331c-34 -21 -76 -33 -118 -33c-112 0 -180 68 -180 182c0 101 57 185 185 185c45 0 87 -15 117 -38c9 -7 9 -9 -6 -36l-8 -14c-20 -35 -24 -37 -35 -30c-19 14 -36 22 -61 22c-34 0 -63 -23 -63 -84c0 -63 24 -91 68 -91c24 0 46 8 61 16c15 9 21 7 33 -27l4 -11
c10 -28 12 -35 3 -41z" />
    <glyph glyph-name="d.sup" 
d="M250 333c-19 -22 -46 -35 -83 -35c-90 0 -147 68 -147 178c0 122 66 189 148 189c25 0 47 -6 68 -20v151c0 13 0 17 61 17h4c61 0 61 -4 61 -17v-388c0 -10 1 -12 11 -12h4c11 0 12 -3 12 -40v-9c0 -28 -8 -36 -22 -40c-11 -3 -23 -5 -42 -5c-35 0 -63 13 -75 31z
M236 443v107c-11 12 -24 19 -40 19c-32 0 -47 -33 -47 -92c0 -35 6 -56 15 -68c8 -12 21 -16 33 -16c15 0 27 5 32 12c5 6 7 17 7 38z" />
    <glyph glyph-name="e.sup" horiz-adv-x="386" 
d="M206 298c-128 0 -186 82 -186 182c0 109 67 185 176 185s164 -75 164 -180c0 -40 -2 -39 -16 -39h-196c9 -35 35 -53 74 -53c35 0 64 7 94 22c8 4 14 0 24 -26l7 -19c9 -25 7 -32 -2 -37c-44 -25 -89 -35 -139 -35zM149 513h86c-1 38 -12 62 -40 62
c-26 0 -43 -21 -46 -62z" />
    <glyph glyph-name="f.sup" horiz-adv-x="272" 
d="M251 572h-67v-250c0 -13 0 -17 -61 -17h-4c-61 0 -61 4 -61 17v250h-37c-12 0 -15 3 -15 41v4c0 38 3 41 15 41h37v12c0 92 52 148 146 148c31 0 66 -6 85 -13c10 -4 11 -14 2 -42l-4 -13c-10 -32 -10 -35 -21 -33c-18 4 -29 5 -38 5c-34 0 -44 -17 -44 -55v-9h67
c12 0 15 -3 15 -41v-4c0 -38 -3 -41 -15 -41z" />
    <glyph glyph-name="g.sup" horiz-adv-x="401" 
d="M71 225l6 12c16 32 19 37 30 32c37 -16 57 -20 76 -20c37 0 57 16 56 75c-17 -14 -42 -21 -67 -21c-97 0 -152 68 -152 176c0 120 68 186 150 186c30 0 60 -10 88 -35l5 18c3 8 5 10 39 10h8c35 0 38 0 44 -12c7 -14 7 -76 7 -131v-188c0 -123 -55 -176 -169 -176
c-44 0 -95 13 -123 30c-11 7 -13 13 2 44zM235 451v93c-9 14 -20 22 -38 22c-29 0 -47 -28 -47 -87c0 -51 16 -78 48 -78c16 0 26 4 31 13c5 7 6 19 6 37z" />
    <glyph glyph-name="h.sup" horiz-adv-x="404" 
d="M166 796v-156c22 16 50 25 77 25c34 0 64 -10 87 -34c24 -25 37 -62 37 -111v-198c0 -13 0 -17 -61 -17h-4c-61 0 -61 4 -61 17v181c0 33 -2 43 -8 50c-5 6 -15 10 -27 10s-21 -2 -28 -7c-6 -4 -10 -11 -11 -23c-1 -14 -1 -74 -1 -54v-157c0 -13 0 -17 -61 -17h-4
c-61 0 -61 4 -61 17v474c0 13 0 17 61 17h4c61 0 61 -4 61 -17z" />
    <glyph glyph-name="i.sup" horiz-adv-x="205" 
d="M31 754c0 37 31 69 72 69s72 -32 72 -69s-31 -69 -72 -69s-72 32 -72 69zM166 641v-319c0 -13 0 -17 -61 -17h-4c-61 0 -61 4 -61 17v319c0 13 0 17 61 17h4c61 0 61 -4 61 -17z" />
    <glyph glyph-name="j.sup" horiz-adv-x="209" 
d="M35 754c0 37 31 69 72 69s72 -32 72 -69s-31 -69 -72 -69s-72 32 -72 69zM-22 253c15 -3 26 -4 35 -4c29 0 31 16 31 46v346c0 13 0 17 61 17h4c61 0 61 -4 61 -17v-329c0 -119 -57 -161 -139 -161c-27 0 -65 7 -79 14c-12 6 -12 11 -4 42l3 11c9 32 11 38 27 35z" />
    <glyph glyph-name="k.sup" horiz-adv-x="377" 
d="M244 317l-78 117v-112c0 -13 0 -17 -61 -17h-4c-61 0 -61 4 -61 17v474c0 13 0 17 61 17h4c61 0 61 -4 61 -17v-254c27 28 62 75 79 104c6 10 10 12 47 12h10c51 0 57 -5 51 -20c-15 -35 -62 -99 -107 -143l130 -165c11 -14 4 -25 -49 -25h-18c-50 0 -59 4 -65 12z" />
    <glyph glyph-name="l.sup" horiz-adv-x="221" 
d="M201 354v-7c0 -29 -4 -35 -15 -40c-10 -4 -26 -6 -52 -6c-59 0 -93 32 -93 94v223c0 57 -5 165 -6 180c-1 11 -1 15 61 15h3c52 0 59 -3 61 -13c4 -22 7 -105 7 -196v-199c0 -7 4 -11 13 -11h9c11 0 12 -3 12 -40z" />
    <glyph glyph-name="m.sup" horiz-adv-x="590" 
d="M360 488v-166c0 -13 0 -17 -61 -17h-4c-61 0 -61 4 -61 17v187c0 34 -4 41 -9 46s-14 8 -23 8c-13 0 -21 -3 -27 -9c-4 -4 -6 -10 -7 -18c-1 -12 -1 -66 -1 -48v-166c0 -13 0 -17 -61 -17h-4c-61 0 -61 4 -61 17v153c0 58 -2 123 -5 163c-1 16 1 20 57 20h10
c35 0 39 -2 42 -10l5 -20c26 25 58 37 88 37c33 0 63 -11 85 -34l6 -7c26 26 64 41 102 41c31 0 62 -10 85 -34c24 -25 37 -62 37 -111v-198c0 -13 0 -17 -61 -17h-4c-61 0 -61 4 -61 17v187c0 34 -4 41 -9 46s-14 8 -23 8c-13 0 -21 -3 -27 -9c-4 -4 -6 -10 -7 -18z" />
    <glyph glyph-name="n.sup" horiz-adv-x="405" 
d="M36 638c-1 16 1 20 57 20h10c35 0 39 -2 42 -10l5 -20c27 25 61 37 93 37c37 0 67 -12 88 -34c24 -25 37 -62 37 -111v-198c0 -13 0 -17 -61 -17h-4c-61 0 -61 4 -61 17v181c0 33 -2 43 -8 50c-5 6 -15 10 -27 10s-21 -2 -28 -7c-6 -4 -10 -11 -11 -23
c-1 -14 -1 -74 -1 -54v-157c0 -13 0 -17 -61 -17h-4c-61 0 -61 4 -61 17v153c0 58 -2 123 -5 163z" />
    <glyph glyph-name="o.sup" horiz-adv-x="389" 
d="M198 569c-31 0 -49 -28 -49 -90c0 -54 13 -85 42 -85c31 0 49 28 49 91c0 53 -13 84 -42 84zM200 665c105 0 169 -61 169 -177c0 -121 -63 -190 -180 -190c-105 0 -169 61 -169 177c0 121 63 190 180 190z" />
    <glyph glyph-name="p.sup" horiz-adv-x="402" 
d="M145 648l4 -16c30 23 59 33 91 33c78 0 142 -63 142 -177c0 -125 -66 -190 -141 -190c-24 0 -50 7 -74 21v-144c0 -13 0 -17 -61 -17h-4c-61 0 -61 4 -61 17v300c0 58 -2 123 -5 163c-1 16 1 20 57 20h10c35 0 39 -2 42 -10zM167 530v-123c13 -11 26 -16 37 -16
c34 0 49 32 49 93c0 28 -3 58 -17 74c-7 8 -18 12 -31 12s-22 -3 -29 -10c-6 -6 -9 -16 -9 -30z" />
    <glyph glyph-name="q.sup" horiz-adv-x="400" 
d="M360 604v-245c0 -70 8 -143 15 -183c2 -12 -1 -18 -58 -18h-5c-54 0 -59 1 -63 15c-5 15 -13 77 -14 142c-23 -12 -45 -17 -69 -17c-76 0 -146 54 -146 178c0 121 81 189 191 189c55 0 99 -12 123 -25c17 -9 26 -19 26 -36zM149 477c0 -36 7 -55 16 -68
c8 -10 19 -17 33 -17c13 0 22 4 29 12c5 7 7 17 7 44v121c-9 2 -17 3 -25 3c-41 0 -60 -44 -60 -95z" />
    <glyph glyph-name="r.sup" horiz-adv-x="286" 
d="M167 410v-88c0 -13 0 -17 -61 -17h-4c-61 0 -61 4 -61 17v153c0 58 -2 123 -5 163c-1 16 1 20 57 20h10c33 0 39 -3 41 -11c5 -19 7 -36 8 -58c21 52 48 76 87 76c13 0 22 -1 27 -6c6 -6 8 -18 8 -41v-10c0 -38 -2 -44 -14 -45c-79 -7 -93 -69 -93 -153z" />
    <glyph glyph-name="s.sup" horiz-adv-x="334" 
d="M31 378l8 14c17 29 20 31 31 24c30 -19 69 -28 93 -28c21 0 32 6 32 16c0 4 -3 9 -10 13c-9 5 -21 9 -31 13c-52 18 -83 34 -101 53c-15 16 -24 40 -24 65c0 66 58 117 148 117c48 0 92 -12 120 -32c8 -6 7 -14 -3 -34l-8 -16c-16 -31 -24 -31 -33 -26
c-26 14 -52 20 -73 20c-20 0 -33 -5 -33 -16c0 -9 5 -15 47 -29c54 -19 120 -39 120 -117c0 -79 -72 -117 -149 -117c-53 0 -102 14 -140 42c-10 7 -9 12 6 38z" />
    <glyph glyph-name="t.sup" horiz-adv-x="288" 
d="M56 422v150h-37c-12 0 -15 3 -15 41v4c0 38 3 41 15 41h37v78c0 13 0 17 61 17h4c61 0 61 -4 61 -17v-78h64c12 0 15 -3 15 -41v-4c0 -38 -3 -41 -15 -41h-64v-150c0 -23 7 -32 27 -32c6 0 15 1 28 5c13 5 19 2 27 -31l2 -8c8 -31 8 -35 -5 -41c-22 -11 -53 -17 -82 -17
c-86 0 -123 40 -123 124z" />
    <glyph glyph-name="u.sup" horiz-adv-x="405" 
d="M369 325c1 -16 -1 -20 -57 -20h-10c-35 0 -39 2 -42 10l-5 20c-23 -25 -56 -37 -93 -37c-33 0 -66 11 -88 34c-24 25 -37 62 -37 111v198c0 13 0 17 61 17h4c61 0 61 -4 61 -17v-181c0 -33 2 -43 8 -50c5 -6 15 -10 27 -10s21 2 28 7c6 4 10 11 11 23c1 14 1 74 1 54v157
c0 13 0 17 61 17h4c61 0 61 -4 61 -17v-153c0 -58 2 -123 5 -163z" />
    <glyph glyph-name="v.sup" horiz-adv-x="365" 
d="M195 305h-18c-45 0 -54 3 -57 12l-122 320c-5 14 -3 21 62 21h5c51 0 59 -4 63 -15l39 -131c12 -41 19 -76 21 -103c25 76 49 170 61 234c2 10 1 15 54 15h3c47 0 60 -4 58 -17c-16 -94 -66 -241 -111 -322c-7 -12 -15 -14 -58 -14z" />
    <glyph glyph-name="w.sup" horiz-adv-x="539" 
d="M378 305h-6c-58 0 -57 2 -60 12l-27 103c-10 37 -14 72 -16 121c-2 -50 -9 -87 -18 -122l-28 -103c-2 -8 -10 -11 -63 -11h-7c-50 0 -59 3 -62 12l-91 320c-4 15 0 21 60 21h3c50 0 60 -4 62 -16l28 -136c5 -25 10 -60 11 -101c2 38 6 67 12 94l34 143c3 13 12 16 61 16
h6c48 0 58 -4 61 -16l28 -134c7 -31 12 -61 17 -105c6 60 23 188 28 239c1 13 8 16 60 16h4c47 0 57 -4 55 -19c-10 -76 -47 -223 -90 -322c-5 -11 -13 -12 -62 -12z" />
    <glyph glyph-name="x.sup" horiz-adv-x="355" 
d="M294 305h-12c-49 0 -58 2 -65 13l-25 38c-9 13 -16 25 -24 44c-6 -14 -14 -30 -22 -44l-22 -39c-7 -12 -12 -12 -59 -12h-9c-55 0 -64 9 -55 23l72 104c14 21 23 34 37 53c-14 16 -28 34 -41 52l-67 98c-13 18 -4 23 48 23h13c52 0 65 -3 72 -14l22 -35
c6 -10 15 -25 23 -41c5 14 13 31 20 44l17 32c7 12 11 14 60 14h6c59 0 68 -4 59 -18l-61 -91c-16 -24 -32 -47 -45 -63c14 -16 26 -31 42 -54l74 -106c12 -18 3 -21 -58 -21z" />
    <glyph glyph-name="y.sup" horiz-adv-x="367" 
d="M127 298l-117 339c-5 14 -2 21 59 21h9c53 0 58 -4 61 -15l26 -98c9 -35 18 -68 24 -130c6 48 9 83 21 134l22 94c3 12 11 15 59 15h9c60 0 61 -8 57 -22l-110 -324c-39 -115 -96 -161 -182 -161c-29 0 -58 7 -79 20c-10 7 -9 12 -1 38l3 10c10 32 16 38 29 33
c18 -6 33 -9 47 -9c29 0 51 18 63 55z" />
    <glyph glyph-name="z.sup" horiz-adv-x="333" 
d="M165 572h-114c-12 0 -15 4 -15 41v4c0 37 3 41 15 41h225c36 0 39 -3 39 -13v-30c0 -12 0 -20 -9 -33l-134 -191h130c12 0 15 -4 15 -41v-4c0 -37 -3 -41 -15 -41h-251c-24 0 -31 4 -31 14v13c0 31 1 37 9 49z" />
    <glyph glyph-name="ordfeminine" unicode="&#xaa;" horiz-adv-x="439" 
d="M194 665c33 0 60 -12 74 -36l2 15c1 11 10 14 48 14h12c45 0 52 -4 52 -16c-1 -68 -1 -106 -1 -139v-39c0 -49 1 -106 4 -141c1 -14 7 -18 -45 -18h-12c-52 0 -55 3 -57 13l-4 18c-16 -23 -45 -38 -80 -38c-90 0 -149 67 -149 177c0 122 72 190 156 190zM255 449v103
c-9 10 -21 16 -36 16c-35 0 -50 -29 -50 -90c0 -53 12 -86 47 -86c15 0 24 4 30 12c7 9 9 24 9 45z" />
    <glyph glyph-name="ordmasculine" unicode="&#xba;" horiz-adv-x="425" 
d="M216 569c-31 0 -49 -28 -49 -90c0 -54 13 -85 42 -85c31 0 49 28 49 91c0 53 -13 84 -42 84zM218 665c105 0 169 -61 169 -177c0 -121 -63 -190 -180 -190c-105 0 -169 61 -169 177c0 121 63 190 180 190z" />
    <glyph glyph-name="zero.sup" 
d="M201 476c37 0 51 46 51 114c0 78 -15 112 -45 112c-37 0 -51 -46 -51 -116c0 -77 15 -110 45 -110zM199 378c-110 0 -175 72 -175 205c0 139 67 217 185 217c110 0 176 -72 176 -205c0 -140 -68 -217 -186 -217z" />
    <glyph glyph-name="onesuperior" unicode="&#xb9;" 
d="M102 478h59v179l-47 -25c-14 -7 -19 -6 -40 30l-7 12c-19 33 -22 38 -7 46l108 58c13 7 29 12 51 12h35c27 0 34 -5 34 -16v-296h44c11 0 15 -4 15 -39v-12c0 -35 -4 -39 -15 -39h-230c-11 0 -15 4 -15 39v12c0 35 4 39 15 39z" />
    <glyph glyph-name="twosuperior" unicode="&#xb2;" 
d="M233 487h106c12 0 16 -4 16 -43v-13c0 -39 -4 -43 -16 -43h-258c-16 0 -19 7 -19 43v7c0 23 8 34 27 52l54 53c44 44 76 80 76 117c0 27 -15 42 -39 42c-18 0 -36 -7 -61 -23c-16 -10 -24 -9 -45 26l-3 5c-20 33 -18 36 1 49c42 28 88 41 134 41c80 0 142 -46 142 -130
c0 -50 -26 -97 -91 -160z" />
    <glyph glyph-name="threesuperior" unicode="&#xb3;" 
d="M147 638h17c37 0 53 12 53 38c0 20 -16 30 -38 30c-23 0 -47 -9 -68 -22c-14 -9 -20 -9 -40 25l-3 5c-18 30 -18 38 -3 48c39 25 88 38 133 38c92 0 146 -45 146 -118c0 -32 -16 -62 -47 -78c37 -14 61 -49 61 -92c0 -79 -62 -134 -167 -134c-41 0 -87 8 -127 25
c-12 5 -15 12 -1 45l3 7c17 39 21 42 35 36c28 -12 55 -18 76 -18c31 0 50 13 50 40c0 19 -9 39 -58 39h-22c-14 0 -18 -2 -18 41v4c0 43 4 41 18 41z" />
    <glyph glyph-name="four.sup" 
d="M360 458h-27v-53c0 -14 -7 -17 -61 -17h-3c-54 0 -61 3 -61 17v53h-140c-38 0 -42 2 -42 18v33c0 15 1 21 6 34l83 234c4 11 13 13 60 13h7c54 0 59 -6 55 -18l-77 -217h48v57c0 14 7 17 61 17h3c54 0 61 -3 61 -17v-57h27c12 0 16 -4 16 -42v-13c0 -38 -4 -42 -16 -42z
" />
    <glyph glyph-name="five.sup" 
d="M165 569c-20 0 -43 -3 -58 -7c-15 -3 -25 0 -25 15v197c0 16 3 20 40 20h194c12 0 16 -4 16 -43v-13c0 -39 -4 -43 -16 -43h-123v-38h6c97 0 154 -43 154 -135c0 -93 -73 -144 -176 -144c-42 0 -85 9 -118 25c-10 5 -14 14 -1 45l3 7c16 38 23 41 35 36
c30 -13 58 -18 77 -18c36 0 50 18 50 46c0 34 -19 50 -58 50z" />
    <glyph glyph-name="six.sup" 
d="M331 733l-11 -19c-15 -27 -19 -27 -27 -22c-19 11 -37 15 -52 15c-36 0 -54 -16 -60 -66c18 7 42 13 63 13c43 0 78 -13 101 -38c21 -22 31 -53 31 -85c0 -86 -67 -153 -164 -153c-109 0 -166 74 -166 184c0 160 78 238 187 238c34 0 71 -9 103 -30c11 -7 7 -17 -5 -37z
M175 551v-4c0 -49 12 -74 38 -74c24 0 37 20 37 48c0 27 -12 41 -37 41c-13 0 -26 -4 -38 -11z" />
    <glyph glyph-name="seven.sup" 
d="M229 691h-163c-12 0 -16 4 -16 43v13c0 39 4 43 16 43h253c38 0 44 -5 44 -23v-25c0 -12 -4 -26 -15 -52l-122 -288c-5 -11 -12 -14 -59 -14h-27c-48 0 -52 6 -46 18z" />
    <glyph glyph-name="eight.sup" 
d="M44 491c0 43 27 82 72 101c-32 26 -46 54 -46 90c0 68 58 119 149 119c65 0 144 -27 144 -106c0 -37 -21 -73 -62 -88c53 -23 74 -57 74 -107c0 -80 -73 -122 -168 -122c-92 0 -163 38 -163 113zM196 539c-16 -10 -25 -23 -25 -37c0 -18 16 -28 38 -28c24 0 38 10 38 27
c0 19 -22 28 -51 38zM191 685c0 -15 9 -25 31 -35c15 11 22 21 22 35c0 15 -10 24 -26 24s-27 -10 -27 -24z" />
    <glyph glyph-name="nine.sup" 
d="M206 628c15 0 27 3 38 8c0 50 -12 70 -40 70c-19 0 -34 -16 -34 -42c0 -23 12 -36 36 -36zM74 445l10 19c16 30 21 30 31 24c16 -9 34 -15 57 -15c42 0 61 35 68 74c-18 -8 -39 -12 -61 -12c-65 0 -136 31 -136 119c0 72 55 146 160 146c118 0 171 -73 171 -188
c0 -146 -81 -234 -195 -234c-39 0 -78 10 -107 29c-12 8 -12 12 2 38z" />
    <glyph glyph-name="plus.sup" 
d="M149 625v94c0 13 5 18 47 18h16c43 0 48 -5 48 -18v-94h92c12 0 16 -4 16 -42v-13c0 -38 -4 -42 -16 -42h-92v-90c0 -13 -5 -18 -48 -18h-16c-42 0 -47 5 -47 18v90h-92c-12 0 -16 4 -16 42v13c0 38 4 42 16 42h92z" />
    <glyph glyph-name="minus.sup" 
d="M57 625h295c12 0 16 -4 16 -42v-13c0 -38 -4 -42 -16 -42h-295c-12 0 -16 4 -16 42v13c0 38 4 42 16 42z" />
    <glyph glyph-name="equal.sup" 
d="M73 702h263c12 0 16 -4 16 -42v-13c0 -38 -4 -42 -16 -42h-263c-12 0 -16 4 -16 42v13c0 38 4 42 16 42zM73 548h263c12 0 16 -4 16 -42v-13c0 -38 -4 -42 -16 -42h-263c-12 0 -16 4 -16 42v13c0 38 4 42 16 42z" />
    <glyph glyph-name="parenleft.sup" horiz-adv-x="261" 
d="M36 586c0 109 54 212 115 263c8 7 17 11 50 -11l12 -8c32 -21 32 -28 27 -35c-45 -64 -70 -126 -70 -209s25 -145 70 -209c5 -7 5 -14 -27 -35l-12 -8c-33 -22 -42 -18 -50 -11c-61 51 -115 154 -115 263z" />
    <glyph glyph-name="parenright.sup" horiz-adv-x="261" 
d="M225 586c0 -109 -54 -212 -115 -263c-8 -7 -17 -11 -50 11l-12 8c-32 21 -32 28 -27 35c45 64 70 126 70 209s-25 145 -70 209c-5 7 -5 14 27 35l12 8c33 22 42 18 50 11c61 -51 115 -154 115 -263z" />
    <glyph glyph-name="period.sup" horiz-adv-x="182" 
d="M158 440c0 -35 -31 -62 -67 -62s-67 27 -67 62s31 62 67 62s67 -27 67 -62z" />
    <glyph glyph-name="comma.sup" horiz-adv-x="182" 
d="M32 279l-6 5c-18 15 -19 19 -15 25c29 37 38 56 38 69c0 22 -31 26 -31 65c0 30 26 55 68 55c40 0 72 -27 72 -77c0 -48 -33 -103 -93 -149c-9 -7 -14 -9 -33 7z" />
    <glyph glyph-name="zero.sub" 
d="M201 18c37 0 51 46 51 114c0 78 -15 112 -45 112c-37 0 -51 -46 -51 -116c0 -77 15 -110 45 -110zM199 -80c-110 0 -175 72 -175 205c0 139 67 217 185 217c110 0 176 -72 176 -205c0 -140 -68 -217 -186 -217z" />
    <glyph glyph-name="one.sub" 
d="M102 20h59v179l-47 -25c-14 -7 -19 -6 -40 30l-7 12c-19 33 -22 38 -7 46l108 58c13 7 29 12 51 12h35c27 0 34 -5 34 -16v-296h44c11 0 15 -4 15 -39v-12c0 -35 -4 -39 -15 -39h-230c-11 0 -15 4 -15 39v12c0 35 4 39 15 39z" />
    <glyph glyph-name="two.sub" 
d="M233 29h106c12 0 16 -4 16 -43v-13c0 -39 -4 -43 -16 -43h-258c-16 0 -19 7 -19 43v7c0 23 8 34 27 52l54 53c44 44 76 80 76 117c0 27 -15 42 -39 42c-18 0 -36 -7 -61 -23c-16 -10 -24 -9 -45 26l-3 5c-20 33 -18 36 1 49c42 28 88 41 134 41c80 0 142 -46 142 -130
c0 -50 -26 -97 -91 -160z" />
    <glyph glyph-name="three.sub" 
d="M147 180h17c37 0 53 12 53 38c0 20 -16 30 -38 30c-23 0 -47 -9 -68 -22c-14 -9 -20 -9 -40 25l-3 5c-18 30 -18 38 -3 48c39 25 88 38 133 38c92 0 146 -45 146 -118c0 -32 -16 -62 -47 -78c37 -14 61 -49 61 -92c0 -79 -62 -134 -167 -134c-41 0 -87 8 -127 25
c-12 5 -15 12 -1 45l3 7c17 39 21 42 35 36c28 -12 55 -18 76 -18c31 0 50 13 50 40c0 19 -9 39 -58 39h-22c-14 0 -18 -2 -18 41v4c0 43 4 41 18 41z" />
    <glyph glyph-name="four.sub" 
d="M360 0h-27v-53c0 -14 -7 -17 -61 -17h-3c-54 0 -61 3 -61 17v53h-140c-38 0 -42 2 -42 18v33c0 15 1 21 6 34l83 234c4 11 13 13 60 13h7c54 0 59 -6 55 -18l-77 -217h48v57c0 14 7 17 61 17h3c54 0 61 -3 61 -17v-57h27c12 0 16 -4 16 -42v-13c0 -38 -4 -42 -16 -42z
" />
    <glyph glyph-name="five.sub" 
d="M165 111c-20 0 -43 -3 -58 -7c-15 -3 -25 0 -25 15v197c0 16 3 20 40 20h194c12 0 16 -4 16 -43v-13c0 -39 -4 -43 -16 -43h-123v-38h6c97 0 154 -43 154 -135c0 -93 -73 -144 -176 -144c-42 0 -85 9 -118 25c-10 5 -14 14 -1 45l3 7c16 38 23 41 35 36
c30 -13 58 -18 77 -18c36 0 50 18 50 46c0 34 -19 50 -58 50z" />
    <glyph glyph-name="six.sub" 
d="M331 275l-11 -19c-15 -27 -19 -27 -27 -22c-19 11 -37 15 -52 15c-36 0 -54 -16 -60 -66c18 7 42 13 63 13c43 0 78 -13 101 -38c21 -22 31 -53 31 -85c0 -86 -67 -153 -164 -153c-109 0 -166 74 -166 184c0 160 78 238 187 238c34 0 71 -9 103 -30c11 -7 7 -17 -5 -37z
M175 93v-4c0 -49 12 -74 38 -74c24 0 37 20 37 48c0 27 -12 41 -37 41c-13 0 -26 -4 -38 -11z" />
    <glyph glyph-name="seven.sub" 
d="M229 233h-163c-12 0 -16 4 -16 43v13c0 39 4 43 16 43h253c38 0 44 -5 44 -23v-25c0 -12 -4 -26 -15 -52l-122 -288c-5 -11 -12 -14 -59 -14h-27c-48 0 -52 6 -46 18z" />
    <glyph glyph-name="eight.sub" 
d="M44 33c0 43 27 82 72 101c-32 26 -46 54 -46 90c0 68 58 119 149 119c65 0 144 -27 144 -106c0 -37 -21 -73 -62 -88c53 -23 74 -57 74 -107c0 -80 -73 -122 -168 -122c-92 0 -163 38 -163 113zM196 81c-16 -10 -25 -23 -25 -37c0 -18 16 -28 38 -28c24 0 38 10 38 27
c0 19 -22 28 -51 38zM191 227c0 -15 9 -25 31 -35c15 11 22 21 22 35c0 15 -10 24 -26 24s-27 -10 -27 -24z" />
    <glyph glyph-name="nine.sub" 
d="M206 170c15 0 27 3 38 8c0 50 -12 70 -40 70c-19 0 -34 -16 -34 -42c0 -23 12 -36 36 -36zM74 -13l10 19c16 30 21 30 31 24c16 -9 34 -15 57 -15c42 0 61 35 68 74c-18 -8 -39 -12 -61 -12c-65 0 -136 31 -136 119c0 72 55 146 160 146c118 0 171 -73 171 -188
c0 -146 -81 -234 -195 -234c-39 0 -78 10 -107 29c-12 8 -12 12 2 38z" />
    <glyph glyph-name="plus.sub" 
d="M149 167v94c0 13 5 18 47 18h16c43 0 48 -5 48 -18v-94h92c12 0 16 -4 16 -42v-13c0 -38 -4 -42 -16 -42h-92v-90c0 -13 -5 -18 -48 -18h-16c-42 0 -47 5 -47 18v90h-92c-12 0 -16 4 -16 42v13c0 38 4 42 16 42h92z" />
    <glyph glyph-name="minus.sub" 
d="M57 167h295c12 0 16 -4 16 -42v-13c0 -38 -4 -42 -16 -42h-295c-12 0 -16 4 -16 42v13c0 38 4 42 16 42z" />
    <glyph glyph-name="equal.sub" 
d="M73 244h263c12 0 16 -4 16 -42v-13c0 -38 -4 -42 -16 -42h-263c-12 0 -16 4 -16 42v13c0 38 4 42 16 42zM73 90h263c12 0 16 -4 16 -42v-13c0 -38 -4 -42 -16 -42h-263c-12 0 -16 4 -16 42v13c0 38 4 42 16 42z" />
    <glyph glyph-name="parenleft.sub" horiz-adv-x="261" 
d="M36 128c0 109 54 212 115 263c8 7 17 11 50 -11l12 -8c32 -21 32 -28 27 -35c-45 -64 -70 -126 -70 -209s25 -145 70 -209c5 -7 5 -14 -27 -35l-12 -8c-33 -22 -42 -18 -50 -11c-61 51 -115 154 -115 263z" />
    <glyph glyph-name="parenright.sub" horiz-adv-x="261" 
d="M225 128c0 -109 -54 -212 -115 -263c-8 -7 -17 -11 -50 11l-12 8c-32 21 -32 28 -27 35c45 64 70 126 70 209s-25 145 -70 209c-5 7 -5 14 27 35l12 8c33 22 42 18 50 11c61 -51 115 -154 115 -263z" />
    <glyph glyph-name="period.sub" horiz-adv-x="182" 
d="M158 -18c0 -35 -31 -62 -67 -62s-67 27 -67 62s31 62 67 62s67 -27 67 -62z" />
    <glyph glyph-name="comma.sub" horiz-adv-x="182" 
d="M32 -179l-6 5c-18 15 -19 19 -15 25c29 37 38 56 38 69c0 22 -31 26 -31 65c0 30 26 55 68 55c40 0 72 -27 72 -77c0 -48 -33 -103 -93 -149c-9 -7 -14 -9 -33 7z" />
    <glyph glyph-name="zero.num" 
d="M201 406c37 0 51 46 51 114c0 78 -15 112 -45 112c-37 0 -51 -46 -51 -116c0 -77 15 -110 45 -110zM199 308c-110 0 -175 72 -175 205c0 139 67 217 185 217c110 0 176 -72 176 -205c0 -140 -68 -217 -186 -217z" />
    <glyph glyph-name="one.num" 
d="M102 408h59v179l-47 -25c-14 -7 -19 -6 -40 30l-7 12c-19 33 -22 38 -7 46l108 58c13 7 29 12 51 12h35c27 0 34 -5 34 -16v-296h44c11 0 15 -4 15 -39v-12c0 -35 -4 -39 -15 -39h-230c-11 0 -15 4 -15 39v12c0 35 4 39 15 39z" />
    <glyph glyph-name="two.num" 
d="M233 417h106c12 0 16 -4 16 -43v-13c0 -39 -4 -43 -16 -43h-258c-16 0 -19 7 -19 43v7c0 23 8 34 27 52l54 53c44 44 76 80 76 117c0 27 -15 42 -39 42c-18 0 -36 -7 -61 -23c-16 -10 -24 -9 -45 26l-3 5c-20 33 -18 36 1 49c42 28 88 41 134 41c80 0 142 -46 142 -130
c0 -50 -26 -97 -91 -160z" />
    <glyph glyph-name="three.num" 
d="M147 568h17c37 0 53 12 53 38c0 20 -16 30 -38 30c-23 0 -47 -9 -68 -22c-14 -9 -20 -9 -40 25l-3 5c-18 30 -18 38 -3 48c39 25 88 38 133 38c92 0 146 -45 146 -118c0 -32 -16 -62 -47 -78c37 -14 61 -49 61 -92c0 -79 -62 -134 -167 -134c-41 0 -87 8 -127 25
c-12 5 -15 12 -1 45l3 7c17 39 21 42 35 36c28 -12 55 -18 76 -18c31 0 50 13 50 40c0 19 -9 39 -58 39h-22c-14 0 -18 -2 -18 41v4c0 43 4 41 18 41z" />
    <glyph glyph-name="four.num" 
d="M360 388h-27v-53c0 -14 -7 -17 -61 -17h-3c-54 0 -61 3 -61 17v53h-140c-38 0 -42 2 -42 18v33c0 15 1 21 6 34l83 234c4 11 13 13 60 13h7c54 0 59 -6 55 -18l-77 -217h48v57c0 14 7 17 61 17h3c54 0 61 -3 61 -17v-57h27c12 0 16 -4 16 -42v-13c0 -38 -4 -42 -16 -42z
" />
    <glyph glyph-name="five.num" 
d="M165 499c-20 0 -43 -3 -58 -7c-15 -3 -25 0 -25 15v197c0 16 3 20 40 20h194c12 0 16 -4 16 -43v-13c0 -39 -4 -43 -16 -43h-123v-38h6c97 0 154 -43 154 -135c0 -93 -73 -144 -176 -144c-42 0 -85 9 -118 25c-10 5 -14 14 -1 45l3 7c16 38 23 41 35 36
c30 -13 58 -18 77 -18c36 0 50 18 50 46c0 34 -19 50 -58 50z" />
    <glyph glyph-name="six.num" 
d="M331 663l-11 -19c-15 -27 -19 -27 -27 -22c-19 11 -37 15 -52 15c-36 0 -54 -16 -60 -66c18 7 42 13 63 13c43 0 78 -13 101 -38c21 -22 31 -53 31 -85c0 -86 -67 -153 -164 -153c-109 0 -166 74 -166 184c0 160 78 238 187 238c34 0 71 -9 103 -30c11 -7 7 -17 -5 -37z
M175 481v-4c0 -49 12 -74 38 -74c24 0 37 20 37 48c0 27 -12 41 -37 41c-13 0 -26 -4 -38 -11z" />
    <glyph glyph-name="seven.num" 
d="M229 621h-163c-12 0 -16 4 -16 43v13c0 39 4 43 16 43h253c38 0 44 -5 44 -23v-25c0 -12 -4 -26 -15 -52l-122 -288c-5 -11 -12 -14 -59 -14h-27c-48 0 -52 6 -46 18z" />
    <glyph glyph-name="eight.num" 
d="M44 421c0 43 27 82 72 101c-32 26 -46 54 -46 90c0 68 58 119 149 119c65 0 144 -27 144 -106c0 -37 -21 -73 -62 -88c53 -23 74 -57 74 -107c0 -80 -73 -122 -168 -122c-92 0 -163 38 -163 113zM196 469c-16 -10 -25 -23 -25 -37c0 -18 16 -28 38 -28c24 0 38 10 38 27
c0 19 -22 28 -51 38zM191 615c0 -15 9 -25 31 -35c15 11 22 21 22 35c0 15 -10 24 -26 24s-27 -10 -27 -24z" />
    <glyph glyph-name="nine.num" 
d="M206 558c15 0 27 3 38 8c0 50 -12 70 -40 70c-19 0 -34 -16 -34 -42c0 -23 12 -36 36 -36zM74 375l10 19c16 30 21 30 31 24c16 -9 34 -15 57 -15c42 0 61 35 68 74c-18 -8 -39 -12 -61 -12c-65 0 -136 31 -136 119c0 72 55 146 160 146c118 0 171 -73 171 -188
c0 -146 -81 -234 -195 -234c-39 0 -78 10 -107 29c-12 8 -12 12 2 38z" />
    <glyph glyph-name="plus.num" 
d="M149 555v94c0 13 5 18 47 18h16c43 0 48 -5 48 -18v-94h92c12 0 16 -4 16 -42v-13c0 -38 -4 -42 -16 -42h-92v-90c0 -13 -5 -18 -48 -18h-16c-42 0 -47 5 -47 18v90h-92c-12 0 -16 4 -16 42v13c0 38 4 42 16 42h92z" />
    <glyph glyph-name="minus.num" 
d="M57 555h295c12 0 16 -4 16 -42v-13c0 -38 -4 -42 -16 -42h-295c-12 0 -16 4 -16 42v13c0 38 4 42 16 42z" />
    <glyph glyph-name="equal.num" 
d="M73 632h263c12 0 16 -4 16 -42v-13c0 -38 -4 -42 -16 -42h-263c-12 0 -16 4 -16 42v13c0 38 4 42 16 42zM73 478h263c12 0 16 -4 16 -42v-13c0 -38 -4 -42 -16 -42h-263c-12 0 -16 4 -16 42v13c0 38 4 42 16 42z" />
    <glyph glyph-name="parenleft.num" horiz-adv-x="261" 
d="M36 516c0 109 54 212 115 263c8 7 17 11 50 -11l12 -8c32 -21 32 -28 27 -35c-45 -64 -70 -126 -70 -209s25 -145 70 -209c5 -7 5 -14 -27 -35l-12 -8c-33 -22 -42 -18 -50 -11c-61 51 -115 154 -115 263z" />
    <glyph glyph-name="parenright.num" horiz-adv-x="261" 
d="M225 516c0 -109 -54 -212 -115 -263c-8 -7 -17 -11 -50 11l-12 8c-32 21 -32 28 -27 35c45 64 70 126 70 209s-25 145 -70 209c-5 7 -5 14 27 35l12 8c33 22 42 18 50 11c61 -51 115 -154 115 -263z" />
    <glyph glyph-name="period.num" horiz-adv-x="182" 
d="M158 370c0 -35 -31 -62 -67 -62s-67 27 -67 62s31 62 67 62s67 -27 67 -62z" />
    <glyph glyph-name="comma.num" horiz-adv-x="182" 
d="M32 209l-6 5c-18 15 -19 19 -15 25c29 37 38 56 38 69c0 22 -31 26 -31 65c0 30 26 55 68 55c40 0 72 -27 72 -77c0 -48 -33 -103 -93 -149c-9 -7 -14 -9 -33 7z" />
    <glyph glyph-name="zero.den" 
d="M201 88c37 0 51 46 51 114c0 78 -15 112 -45 112c-37 0 -51 -46 -51 -116c0 -77 15 -110 45 -110zM199 -10c-110 0 -175 72 -175 205c0 139 67 217 185 217c110 0 176 -72 176 -205c0 -140 -68 -217 -186 -217z" />
    <glyph glyph-name="one.den" 
d="M102 90h59v179l-47 -25c-14 -7 -19 -6 -40 30l-7 12c-19 33 -22 38 -7 46l108 58c13 7 29 12 51 12h35c27 0 34 -5 34 -16v-296h44c11 0 15 -4 15 -39v-12c0 -35 -4 -39 -15 -39h-230c-11 0 -15 4 -15 39v12c0 35 4 39 15 39z" />
    <glyph glyph-name="two.den" 
d="M233 99h106c12 0 16 -4 16 -43v-13c0 -39 -4 -43 -16 -43h-258c-16 0 -19 7 -19 43v7c0 23 8 34 27 52l54 53c44 44 76 80 76 117c0 27 -15 42 -39 42c-18 0 -36 -7 -61 -23c-16 -10 -24 -9 -45 26l-3 5c-20 33 -18 36 1 49c42 28 88 41 134 41c80 0 142 -46 142 -130
c0 -50 -26 -97 -91 -160z" />
    <glyph glyph-name="three.den" 
d="M147 250h17c37 0 53 12 53 38c0 20 -16 30 -38 30c-23 0 -47 -9 -68 -22c-14 -9 -20 -9 -40 25l-3 5c-18 30 -18 38 -3 48c39 25 88 38 133 38c92 0 146 -45 146 -118c0 -32 -16 -62 -47 -78c37 -14 61 -49 61 -92c0 -79 -62 -134 -167 -134c-41 0 -87 8 -127 25
c-12 5 -15 12 -1 45l3 7c17 39 21 42 35 36c28 -12 55 -18 76 -18c31 0 50 13 50 40c0 19 -9 39 -58 39h-22c-14 0 -18 -2 -18 41v4c0 43 4 41 18 41z" />
    <glyph glyph-name="four.den" 
d="M360 70h-27v-53c0 -14 -7 -17 -61 -17h-3c-54 0 -61 3 -61 17v53h-140c-38 0 -42 2 -42 18v33c0 15 1 21 6 34l83 234c4 11 13 13 60 13h7c54 0 59 -6 55 -18l-77 -217h48v57c0 14 7 17 61 17h3c54 0 61 -3 61 -17v-57h27c12 0 16 -4 16 -42v-13c0 -38 -4 -42 -16 -42z
" />
    <glyph glyph-name="five.den" 
d="M165 181c-20 0 -43 -3 -58 -7c-15 -3 -25 0 -25 15v197c0 16 3 20 40 20h194c12 0 16 -4 16 -43v-13c0 -39 -4 -43 -16 -43h-123v-38h6c97 0 154 -43 154 -135c0 -93 -73 -144 -176 -144c-42 0 -85 9 -118 25c-10 5 -14 14 -1 45l3 7c16 38 23 41 35 36
c30 -13 58 -18 77 -18c36 0 50 18 50 46c0 34 -19 50 -58 50z" />
    <glyph glyph-name="six.den" 
d="M331 345l-11 -19c-15 -27 -19 -27 -27 -22c-19 11 -37 15 -52 15c-36 0 -54 -16 -60 -66c18 7 42 13 63 13c43 0 78 -13 101 -38c21 -22 31 -53 31 -85c0 -86 -67 -153 -164 -153c-109 0 -166 74 -166 184c0 160 78 238 187 238c34 0 71 -9 103 -30c11 -7 7 -17 -5 -37z
M175 163v-4c0 -49 12 -74 38 -74c24 0 37 20 37 48c0 27 -12 41 -37 41c-13 0 -26 -4 -38 -11z" />
    <glyph glyph-name="seven.den" 
d="M229 303h-163c-12 0 -16 4 -16 43v13c0 39 4 43 16 43h253c38 0 44 -5 44 -23v-25c0 -12 -4 -26 -15 -52l-122 -288c-5 -11 -12 -14 -59 -14h-27c-48 0 -52 6 -46 18z" />
    <glyph glyph-name="eight.den" 
d="M44 103c0 43 27 82 72 101c-32 26 -46 54 -46 90c0 68 58 119 149 119c65 0 144 -27 144 -106c0 -37 -21 -73 -62 -88c53 -23 74 -57 74 -107c0 -80 -73 -122 -168 -122c-92 0 -163 38 -163 113zM196 151c-16 -10 -25 -23 -25 -37c0 -18 16 -28 38 -28c24 0 38 10 38 27
c0 19 -22 28 -51 38zM191 297c0 -15 9 -25 31 -35c15 11 22 21 22 35c0 15 -10 24 -26 24s-27 -10 -27 -24z" />
    <glyph glyph-name="nine.den" 
d="M206 240c15 0 27 3 38 8c0 50 -12 70 -40 70c-19 0 -34 -16 -34 -42c0 -23 12 -36 36 -36zM74 57l10 19c16 30 21 30 31 24c16 -9 34 -15 57 -15c42 0 61 35 68 74c-18 -8 -39 -12 -61 -12c-65 0 -136 31 -136 119c0 72 55 146 160 146c118 0 171 -73 171 -188
c0 -146 -81 -234 -195 -234c-39 0 -78 10 -107 29c-12 8 -12 12 2 38z" />
    <glyph glyph-name="plus.den" 
d="M149 237v94c0 13 5 18 47 18h16c43 0 48 -5 48 -18v-94h92c12 0 16 -4 16 -42v-13c0 -38 -4 -42 -16 -42h-92v-90c0 -13 -5 -18 -48 -18h-16c-42 0 -47 5 -47 18v90h-92c-12 0 -16 4 -16 42v13c0 38 4 42 16 42h92z" />
    <glyph glyph-name="minus.den" 
d="M57 237h295c12 0 16 -4 16 -42v-13c0 -38 -4 -42 -16 -42h-295c-12 0 -16 4 -16 42v13c0 38 4 42 16 42z" />
    <glyph glyph-name="equal.den" 
d="M73 314h263c12 0 16 -4 16 -42v-13c0 -38 -4 -42 -16 -42h-263c-12 0 -16 4 -16 42v13c0 38 4 42 16 42zM73 160h263c12 0 16 -4 16 -42v-13c0 -38 -4 -42 -16 -42h-263c-12 0 -16 4 -16 42v13c0 38 4 42 16 42z" />
    <glyph glyph-name="parenleft.den" horiz-adv-x="261" 
d="M36 198c0 109 54 212 115 263c8 7 17 11 50 -11l12 -8c32 -21 32 -28 27 -35c-45 -64 -70 -126 -70 -209s25 -145 70 -209c5 -7 5 -14 -27 -35l-12 -8c-33 -22 -42 -18 -50 -11c-61 51 -115 154 -115 263z" />
    <glyph glyph-name="parenright.den" horiz-adv-x="261" 
d="M225 198c0 -109 -54 -212 -115 -263c-8 -7 -17 -11 -50 11l-12 8c-32 21 -32 28 -27 35c45 64 70 126 70 209s-25 145 -70 209c-5 7 -5 14 27 35l12 8c33 22 42 18 50 11c61 -51 115 -154 115 -263z" />
    <glyph glyph-name="period.den" horiz-adv-x="182" 
d="M158 52c0 -35 -31 -62 -67 -62s-67 27 -67 62s31 62 67 62s67 -27 67 -62z" />
    <glyph glyph-name="comma.den" horiz-adv-x="182" 
d="M32 -109l-6 5c-18 15 -19 19 -15 25c29 37 38 56 38 69c0 22 -31 26 -31 65c0 30 26 55 68 55c40 0 72 -27 72 -77c0 -48 -33 -103 -93 -149c-9 -7 -14 -9 -33 7z" />
    <glyph glyph-name="fraction" unicode="&#x2044;" horiz-adv-x="397" 
d="M357 720h8c68 0 70 -7 61 -26l-308 -673c-7 -16 -15 -21 -77 -21h-9c-68 0 -69 8 -61 26l309 673c8 17 15 21 77 21z" />
    <glyph glyph-name="onehalf" unicode="&#xbd;" horiz-adv-x="980" 
d="M117 408h59v179l-47 -25c-14 -7 -19 -6 -40 30l-7 12c-19 33 -22 38 -7 46l108 58c13 7 29 12 51 12h35c27 0 34 -5 34 -16v-296h44c11 0 15 -4 15 -39v-12c0 -35 -4 -39 -15 -39h-230c-11 0 -15 4 -15 39v12c0 35 4 39 15 39zM656 720h8c68 0 70 -7 61 -26l-308 -673
c-7 -16 -15 -21 -77 -21h-9c-68 0 -69 8 -61 26l309 673c8 17 15 21 77 21zM794 99h106c12 0 16 -4 16 -43v-13c0 -39 -4 -43 -16 -43h-258c-16 0 -19 7 -19 43v7c0 23 8 34 27 52l54 53c44 44 76 80 76 117c0 27 -15 42 -39 42c-18 0 -36 -7 -61 -23c-16 -10 -24 -9 -45 26
l-3 5c-20 33 -18 36 1 49c42 28 88 41 134 41c80 0 142 -46 142 -130c0 -50 -26 -97 -91 -160z" />
    <glyph glyph-name="onequarter" unicode="&#xbc;" horiz-adv-x="980" 
d="M906 70h-27v-53c0 -14 -7 -17 -61 -17h-3c-54 0 -61 3 -61 17v53h-140c-38 0 -42 2 -42 18v33c0 15 1 21 6 34l83 234c4 11 13 13 60 13h7c54 0 59 -6 55 -18l-77 -217h48v57c0 14 7 17 61 17h3c54 0 61 -3 61 -17v-57h27c12 0 16 -4 16 -42v-13c0 -38 -4 -42 -16 -42z
M656 720h8c68 0 70 -7 61 -26l-308 -673c-7 -16 -15 -21 -77 -21h-9c-68 0 -69 8 -61 26l309 673c8 17 15 21 77 21zM117 408h59v179l-47 -25c-14 -7 -19 -6 -40 30l-7 12c-19 33 -22 38 -7 46l108 58c13 7 29 12 51 12h35c27 0 34 -5 34 -16v-296h44c11 0 15 -4 15 -39v-12
c0 -35 -4 -39 -15 -39h-230c-11 0 -15 4 -15 39v12c0 35 4 39 15 39z" />
    <glyph glyph-name="threequarters" unicode="&#xbe;" horiz-adv-x="980" 
d="M167 568h17c37 0 53 12 53 38c0 20 -16 30 -38 30c-23 0 -47 -9 -68 -22c-14 -9 -20 -9 -40 25l-3 5c-18 30 -18 38 -3 48c39 25 88 38 133 38c92 0 146 -45 146 -118c0 -32 -16 -62 -47 -78c37 -14 61 -49 61 -92c0 -79 -62 -134 -167 -134c-41 0 -87 8 -127 25
c-12 5 -15 12 -1 45l3 7c17 39 21 42 35 36c28 -12 55 -18 76 -18c31 0 50 13 50 40c0 19 -9 39 -58 39h-22c-14 0 -18 -2 -18 41v4c0 43 4 41 18 41zM656 720h8c68 0 70 -7 61 -26l-308 -673c-7 -16 -15 -21 -77 -21h-9c-68 0 -69 8 -61 26l309 673c8 17 15 21 77 21z
M906 70h-27v-53c0 -14 -7 -17 -61 -17h-3c-54 0 -61 3 -61 17v53h-140c-38 0 -42 2 -42 18v33c0 15 1 21 6 34l83 234c4 11 13 13 60 13h7c54 0 59 -6 55 -18l-77 -217h48v57c0 14 7 17 61 17h3c54 0 61 -3 61 -17v-57h27c12 0 16 -4 16 -42v-13c0 -38 -4 -42 -16 -42z" />
    <glyph glyph-name="onethird" unicode="&#x2153;" horiz-adv-x="980" 
d="M656 720h8c68 0 70 -7 61 -26l-308 -673c-7 -16 -15 -21 -77 -21h-9c-68 0 -69 8 -61 26l309 673c8 17 15 21 77 21zM117 408h59v179l-47 -25c-14 -7 -19 -6 -40 30l-7 12c-19 33 -22 38 -7 46l108 58c13 7 29 12 51 12h35c27 0 34 -5 34 -16v-296h44c11 0 15 -4 15 -39
v-12c0 -35 -4 -39 -15 -39h-230c-11 0 -15 4 -15 39v12c0 35 4 39 15 39zM709 250h17c37 0 53 12 53 38c0 20 -16 30 -38 30c-23 0 -47 -9 -68 -22c-14 -9 -20 -9 -40 25l-3 5c-18 30 -18 38 -3 48c39 25 88 38 133 38c92 0 146 -45 146 -118c0 -32 -16 -62 -47 -78
c37 -14 61 -49 61 -92c0 -79 -62 -134 -167 -134c-41 0 -87 8 -127 25c-12 5 -15 12 -1 45l3 7c17 39 21 42 35 36c28 -12 55 -18 76 -18c31 0 50 13 50 40c0 19 -9 39 -58 39h-22c-14 0 -18 -2 -18 41v4c0 43 4 41 18 41z" />
    <glyph glyph-name="twothirds" unicode="&#x2154;" horiz-adv-x="980" 
d="M656 720h8c68 0 70 -7 61 -26l-308 -673c-7 -16 -15 -21 -77 -21h-9c-68 0 -69 8 -61 26l309 673c8 17 15 21 77 21zM709 250h17c37 0 53 12 53 38c0 20 -16 30 -38 30c-23 0 -47 -9 -68 -22c-14 -9 -20 -9 -40 25l-3 5c-18 30 -18 38 -3 48c39 25 88 38 133 38
c92 0 146 -45 146 -118c0 -32 -16 -62 -47 -78c37 -14 61 -49 61 -92c0 -79 -62 -134 -167 -134c-41 0 -87 8 -127 25c-12 5 -15 12 -1 45l3 7c17 39 21 42 35 36c28 -12 55 -18 76 -18c31 0 50 13 50 40c0 19 -9 39 -58 39h-22c-14 0 -18 -2 -18 41v4c0 43 4 41 18 41z
M233 417h106c12 0 16 -4 16 -43v-13c0 -39 -4 -43 -16 -43h-258c-16 0 -19 7 -19 43v7c0 23 8 34 27 52l54 53c44 44 76 80 76 117c0 27 -15 42 -39 42c-18 0 -36 -7 -61 -23c-16 -10 -24 -9 -45 26l-3 5c-20 33 -18 36 1 49c42 28 88 41 134 41c80 0 142 -46 142 -130
c0 -50 -26 -97 -91 -160z" />
    <glyph glyph-name="uni2155" unicode="&#x2155;" horiz-adv-x="980" 
d="M728 181c-20 0 -43 -3 -58 -7c-15 -3 -25 0 -25 15v197c0 16 3 20 40 20h194c12 0 16 -4 16 -43v-13c0 -39 -4 -43 -16 -43h-123v-38h6c97 0 154 -43 154 -135c0 -93 -73 -144 -176 -144c-42 0 -85 9 -118 25c-10 5 -14 14 -1 45l3 7c16 38 23 41 35 36
c30 -13 58 -18 77 -18c36 0 50 18 50 46c0 34 -19 50 -58 50zM117 408h59v179l-47 -25c-14 -7 -19 -6 -40 30l-7 12c-19 33 -22 38 -7 46l108 58c13 7 29 12 51 12h35c27 0 34 -5 34 -16v-296h44c11 0 15 -4 15 -39v-12c0 -35 -4 -39 -15 -39h-230c-11 0 -15 4 -15 39v12
c0 35 4 39 15 39zM656 720h8c68 0 70 -7 61 -26l-308 -673c-7 -16 -15 -21 -77 -21h-9c-68 0 -69 8 -61 26l309 673c8 17 15 21 77 21z" />
    <glyph glyph-name="uni2156" unicode="&#x2156;" horiz-adv-x="980" 
d="M233 417h106c12 0 16 -4 16 -43v-13c0 -39 -4 -43 -16 -43h-258c-16 0 -19 7 -19 43v7c0 23 8 34 27 52l54 53c44 44 76 80 76 117c0 27 -15 42 -39 42c-18 0 -36 -7 -61 -23c-16 -10 -24 -9 -45 26l-3 5c-20 33 -18 36 1 49c42 28 88 41 134 41c80 0 142 -46 142 -130
c0 -50 -26 -97 -91 -160zM728 181c-20 0 -43 -3 -58 -7c-15 -3 -25 0 -25 15v197c0 16 3 20 40 20h194c12 0 16 -4 16 -43v-13c0 -39 -4 -43 -16 -43h-123v-38h6c97 0 154 -43 154 -135c0 -93 -73 -144 -176 -144c-42 0 -85 9 -118 25c-10 5 -14 14 -1 45l3 7
c16 38 23 41 35 36c30 -13 58 -18 77 -18c36 0 50 18 50 46c0 34 -19 50 -58 50zM656 720h8c68 0 70 -7 61 -26l-308 -673c-7 -16 -15 -21 -77 -21h-9c-68 0 -69 8 -61 26l309 673c8 17 15 21 77 21z" />
    <glyph glyph-name="uni2157" unicode="&#x2157;" horiz-adv-x="980" 
d="M728 181c-20 0 -43 -3 -58 -7c-15 -3 -25 0 -25 15v197c0 16 3 20 40 20h194c12 0 16 -4 16 -43v-13c0 -39 -4 -43 -16 -43h-123v-38h6c97 0 154 -43 154 -135c0 -93 -73 -144 -176 -144c-42 0 -85 9 -118 25c-10 5 -14 14 -1 45l3 7c16 38 23 41 35 36
c30 -13 58 -18 77 -18c36 0 50 18 50 46c0 34 -19 50 -58 50zM656 720h8c68 0 70 -7 61 -26l-308 -673c-7 -16 -15 -21 -77 -21h-9c-68 0 -69 8 -61 26l309 673c8 17 15 21 77 21zM167 568h17c37 0 53 12 53 38c0 20 -16 30 -38 30c-23 0 -47 -9 -68 -22
c-14 -9 -20 -9 -40 25l-3 5c-18 30 -18 38 -3 48c39 25 88 38 133 38c92 0 146 -45 146 -118c0 -32 -16 -62 -47 -78c37 -14 61 -49 61 -92c0 -79 -62 -134 -167 -134c-41 0 -87 8 -127 25c-12 5 -15 12 -1 45l3 7c17 39 21 42 35 36c28 -12 55 -18 76 -18c31 0 50 13 50 40
c0 19 -9 39 -58 39h-22c-14 0 -18 -2 -18 41v4c0 43 4 41 18 41z" />
    <glyph glyph-name="uni2158" unicode="&#x2158;" horiz-adv-x="980" 
d="M728 181c-20 0 -43 -3 -58 -7c-15 -3 -25 0 -25 15v197c0 16 3 20 40 20h194c12 0 16 -4 16 -43v-13c0 -39 -4 -43 -16 -43h-123v-38h6c97 0 154 -43 154 -135c0 -93 -73 -144 -176 -144c-42 0 -85 9 -118 25c-10 5 -14 14 -1 45l3 7c16 38 23 41 35 36
c30 -13 58 -18 77 -18c36 0 50 18 50 46c0 34 -19 50 -58 50zM656 720h8c68 0 70 -7 61 -26l-308 -673c-7 -16 -15 -21 -77 -21h-9c-68 0 -69 8 -61 26l309 673c8 17 15 21 77 21zM360 388h-27v-53c0 -14 -7 -17 -61 -17h-3c-54 0 -61 3 -61 17v53h-140c-38 0 -42 2 -42 18
v33c0 15 1 21 6 34l83 234c4 11 13 13 60 13h7c54 0 59 -6 55 -18l-77 -217h48v57c0 14 7 17 61 17h3c54 0 61 -3 61 -17v-57h27c12 0 16 -4 16 -42v-13c0 -38 -4 -42 -16 -42z" />
    <glyph glyph-name="uni2159" unicode="&#x2159;" horiz-adv-x="980" 
d="M875 345l-11 -19c-15 -27 -19 -27 -27 -22c-19 11 -37 15 -52 15c-36 0 -54 -16 -60 -66c18 7 42 13 63 13c43 0 78 -13 101 -38c21 -22 31 -53 31 -85c0 -86 -67 -153 -164 -153c-109 0 -166 74 -166 184c0 160 78 238 187 238c34 0 71 -9 103 -30c11 -7 7 -17 -5 -37z
M719 163v-4c0 -49 12 -74 38 -74c24 0 37 20 37 48c0 27 -12 41 -37 41c-13 0 -26 -4 -38 -11zM656 720h8c68 0 70 -7 61 -26l-308 -673c-7 -16 -15 -21 -77 -21h-9c-68 0 -69 8 -61 26l309 673c8 17 15 21 77 21zM117 408h59v179l-47 -25c-14 -7 -19 -6 -40 30l-7 12
c-19 33 -22 38 -7 46l108 58c13 7 29 12 51 12h35c27 0 34 -5 34 -16v-296h44c11 0 15 -4 15 -39v-12c0 -35 -4 -39 -15 -39h-230c-11 0 -15 4 -15 39v12c0 35 4 39 15 39z" />
    <glyph glyph-name="uni215A" unicode="&#x215a;" horiz-adv-x="980" 
d="M875 345l-11 -19c-15 -27 -19 -27 -27 -22c-19 11 -37 15 -52 15c-36 0 -54 -16 -60 -66c18 7 42 13 63 13c43 0 78 -13 101 -38c21 -22 31 -53 31 -85c0 -86 -67 -153 -164 -153c-109 0 -166 74 -166 184c0 160 78 238 187 238c34 0 71 -9 103 -30c11 -7 7 -17 -5 -37z
M719 163v-4c0 -49 12 -74 38 -74c24 0 37 20 37 48c0 27 -12 41 -37 41c-13 0 -26 -4 -38 -11zM656 720h8c68 0 70 -7 61 -26l-308 -673c-7 -16 -15 -21 -77 -21h-9c-68 0 -69 8 -61 26l309 673c8 17 15 21 77 21zM195 499c-20 0 -43 -3 -58 -7c-15 -3 -25 0 -25 15v197
c0 16 3 20 40 20h194c12 0 16 -4 16 -43v-13c0 -39 -4 -43 -16 -43h-123v-38h6c97 0 154 -43 154 -135c0 -93 -73 -144 -176 -144c-42 0 -85 9 -118 25c-10 5 -14 14 -1 45l3 7c16 38 23 41 35 36c30 -13 58 -18 77 -18c36 0 50 18 50 46c0 34 -19 50 -58 50z" />
    <glyph glyph-name="oneeighth" unicode="&#x215b;" horiz-adv-x="980" 
d="M593 103c0 43 27 82 72 101c-32 26 -46 54 -46 90c0 68 58 119 149 119c65 0 144 -27 144 -106c0 -37 -21 -73 -62 -88c53 -23 74 -57 74 -107c0 -80 -73 -122 -168 -122c-92 0 -163 38 -163 113zM745 151c-16 -10 -25 -23 -25 -37c0 -18 16 -28 38 -28c24 0 38 10 38 27
c0 19 -22 28 -51 38zM740 297c0 -15 9 -25 31 -35c15 11 22 21 22 35c0 15 -10 24 -26 24s-27 -10 -27 -24zM656 720h8c68 0 70 -7 61 -26l-308 -673c-7 -16 -15 -21 -77 -21h-9c-68 0 -69 8 -61 26l309 673c8 17 15 21 77 21zM117 408h59v179l-47 -25c-14 -7 -19 -6 -40 30
l-7 12c-19 33 -22 38 -7 46l108 58c13 7 29 12 51 12h35c27 0 34 -5 34 -16v-296h44c11 0 15 -4 15 -39v-12c0 -35 -4 -39 -15 -39h-230c-11 0 -15 4 -15 39v12c0 35 4 39 15 39z" />
    <glyph glyph-name="threeeighths" unicode="&#x215c;" horiz-adv-x="980" 
d="M593 103c0 43 27 82 72 101c-32 26 -46 54 -46 90c0 68 58 119 149 119c65 0 144 -27 144 -106c0 -37 -21 -73 -62 -88c53 -23 74 -57 74 -107c0 -80 -73 -122 -168 -122c-92 0 -163 38 -163 113zM745 151c-16 -10 -25 -23 -25 -37c0 -18 16 -28 38 -28c24 0 38 10 38 27
c0 19 -22 28 -51 38zM740 297c0 -15 9 -25 31 -35c15 11 22 21 22 35c0 15 -10 24 -26 24s-27 -10 -27 -24zM656 720h8c68 0 70 -7 61 -26l-308 -673c-7 -16 -15 -21 -77 -21h-9c-68 0 -69 8 -61 26l309 673c8 17 15 21 77 21zM167 568h17c37 0 53 12 53 38
c0 20 -16 30 -38 30c-23 0 -47 -9 -68 -22c-14 -9 -20 -9 -40 25l-3 5c-18 30 -18 38 -3 48c39 25 88 38 133 38c92 0 146 -45 146 -118c0 -32 -16 -62 -47 -78c37 -14 61 -49 61 -92c0 -79 -62 -134 -167 -134c-41 0 -87 8 -127 25c-12 5 -15 12 -1 45l3 7
c17 39 21 42 35 36c28 -12 55 -18 76 -18c31 0 50 13 50 40c0 19 -9 39 -58 39h-22c-14 0 -18 -2 -18 41v4c0 43 4 41 18 41z" />
    <glyph glyph-name="fiveeighths" unicode="&#x215d;" horiz-adv-x="980" 
d="M593 103c0 43 27 82 72 101c-32 26 -46 54 -46 90c0 68 58 119 149 119c65 0 144 -27 144 -106c0 -37 -21 -73 -62 -88c53 -23 74 -57 74 -107c0 -80 -73 -122 -168 -122c-92 0 -163 38 -163 113zM745 151c-16 -10 -25 -23 -25 -37c0 -18 16 -28 38 -28c24 0 38 10 38 27
c0 19 -22 28 -51 38zM740 297c0 -15 9 -25 31 -35c15 11 22 21 22 35c0 15 -10 24 -26 24s-27 -10 -27 -24zM195 499c-20 0 -43 -3 -58 -7c-15 -3 -25 0 -25 15v197c0 16 3 20 40 20h194c12 0 16 -4 16 -43v-13c0 -39 -4 -43 -16 -43h-123v-38h6c97 0 154 -43 154 -135
c0 -93 -73 -144 -176 -144c-42 0 -85 9 -118 25c-10 5 -14 14 -1 45l3 7c16 38 23 41 35 36c30 -13 58 -18 77 -18c36 0 50 18 50 46c0 34 -19 50 -58 50zM656 720h8c68 0 70 -7 61 -26l-308 -673c-7 -16 -15 -21 -77 -21h-9c-68 0 -69 8 -61 26l309 673c8 17 15 21 77 21z
" />
    <glyph glyph-name="seveneighths" unicode="&#x215e;" horiz-adv-x="980" 
d="M573 103c0 43 27 82 72 101c-32 26 -46 54 -46 90c0 68 58 119 149 119c65 0 144 -27 144 -106c0 -37 -21 -73 -62 -88c53 -23 74 -57 74 -107c0 -80 -73 -122 -168 -122c-92 0 -163 38 -163 113zM725 151c-16 -10 -25 -23 -25 -37c0 -18 16 -28 38 -28c24 0 38 10 38 27
c0 19 -22 28 -51 38zM720 297c0 -15 9 -25 31 -35c15 11 22 21 22 35c0 15 -10 24 -26 24s-27 -10 -27 -24zM636 720h8c68 0 70 -7 61 -26l-308 -673c-7 -16 -15 -21 -77 -21h-9c-68 0 -69 8 -61 26l309 673c8 17 15 21 77 21zM259 621h-163c-12 0 -16 4 -16 43v13
c0 39 4 43 16 43h253c38 0 44 -5 44 -23v-25c0 -12 -4 -26 -15 -52l-122 -288c-5 -11 -12 -14 -59 -14h-27c-48 0 -52 6 -46 18z" />
    <glyph glyph-name="Agrave" unicode="&#xc0;" horiz-adv-x="668" 
d="M328 720h8c63 0 75 -4 81 -21l241 -671c7 -19 -3 -28 -74 -28h-12c-66 0 -83 7 -88 22l-54 157h-201l-52 -157c-5 -15 -18 -22 -85 -22h-12c-68 0 -78 6 -70 27l238 672c6 17 17 21 80 21zM284 346l-14 -44h119l-12 44c-14 53 -27 110 -45 202c-17 -92 -31 -149 -48 -202
zM221 984h47c47 0 53 -2 61 -15l103 -158c13 -20 2 -27 -36 -27h-37c-33 0 -44 3 -52 14l-125 157c-13 17 -8 29 39 29z" />
    <glyph glyph-name="Aacute" unicode="&#xc1;" horiz-adv-x="668" 
d="M412 984h47c53 0 52 -12 39 -29l-125 -157c-8 -11 -19 -14 -52 -14h-37c-38 0 -49 7 -36 27l103 158c8 13 14 15 61 15zM328 720h8c63 0 75 -4 81 -21l241 -671c7 -19 -3 -28 -74 -28h-12c-66 0 -83 7 -88 22l-54 157h-201l-52 -157c-5 -15 -18 -22 -85 -22h-12
c-68 0 -78 6 -70 27l238 672c6 17 17 21 80 21zM284 346l-14 -44h119l-12 44c-14 53 -27 110 -45 202c-17 -92 -31 -149 -48 -202z" />
    <glyph glyph-name="Acircumflex" unicode="&#xc2;" horiz-adv-x="668" 
d="M328 720h8c63 0 75 -4 81 -21l241 -671c7 -19 -3 -28 -74 -28h-12c-66 0 -83 7 -88 22l-54 157h-201l-52 -157c-5 -15 -18 -22 -85 -22h-12c-68 0 -78 6 -70 27l238 672c6 17 17 21 80 21zM284 346l-14 -44h119l-12 44c-14 53 -27 110 -45 202c-17 -92 -31 -149 -48 -202
zM329 870l-89 -77c-12 -10 -22 -10 -50 18l-10 10c-23 23 -26 32 -17 41l88 92c18 18 27 21 72 21h12c45 0 54 -3 72 -21l88 -92c9 -9 6 -18 -17 -41l-10 -10c-28 -28 -38 -28 -50 -18z" />
    <glyph glyph-name="Atilde" unicode="&#xc3;" horiz-adv-x="668" 
d="M328 720h8c63 0 75 -4 81 -21l241 -671c7 -19 -3 -28 -74 -28h-12c-66 0 -83 7 -88 22l-54 157h-201l-52 -157c-5 -15 -18 -22 -85 -22h-12c-68 0 -78 6 -70 27l238 672c6 17 17 21 80 21zM284 346l-14 -44h119l-12 44c-14 53 -27 110 -45 202c-17 -92 -31 -149 -48 -202
zM329 870l-89 -77c-12 -10 -22 -10 -50 18l-10 10c-23 23 -26 32 -17 41l88 92c18 18 27 21 72 21h12c45 0 54 -3 72 -21l88 -92c9 -9 6 -18 -17 -41l-10 -10c-28 -28 -38 -28 -50 -18z" />
    <glyph glyph-name="Adieresis" unicode="&#xc4;" horiz-adv-x="668" 
d="M328 720h8c63 0 75 -4 81 -21l241 -671c7 -19 -3 -28 -74 -28h-12c-66 0 -83 7 -88 22l-54 157h-201l-52 -157c-5 -15 -18 -22 -85 -22h-12c-68 0 -78 6 -70 27l238 672c6 17 17 21 80 21zM284 346l-14 -44h119l-12 44c-14 53 -27 110 -45 202c-17 -92 -31 -149 -48 -202
zM138 871c0 46 34 82 86 82c48 0 85 -36 85 -82s-37 -81 -85 -81c-52 0 -86 35 -86 81zM355 871c0 46 34 82 86 82c48 0 85 -36 85 -82s-37 -81 -85 -81c-52 0 -86 35 -86 81z" />
    <glyph glyph-name="Amacron" unicode="&#x100;" horiz-adv-x="668" 
d="M328 720h8c63 0 75 -4 81 -21l241 -671c7 -19 -3 -28 -74 -28h-12c-66 0 -83 7 -88 22l-54 157h-201l-52 -157c-5 -15 -18 -22 -85 -22h-12c-68 0 -78 6 -70 27l238 672c6 17 17 21 80 21zM284 346l-14 -44h119l-12 44c-14 53 -27 110 -45 202c-17 -92 -31 -149 -48 -202
zM193 927h280c9 0 15 -10 15 -51v-7c0 -40 -6 -51 -15 -51h-280c-11 0 -14 11 -14 51v7c0 41 3 51 14 51z" />
    <glyph glyph-name="Abreve" unicode="&#x102;" horiz-adv-x="668" 
d="M328 720h8c63 0 75 -4 81 -21l241 -671c7 -19 -3 -28 -74 -28h-12c-66 0 -83 7 -88 22l-54 157h-201l-52 -157c-5 -15 -18 -22 -85 -22h-12c-68 0 -78 6 -70 27l238 672c6 17 17 21 80 21zM284 346l-14 -44h119l-12 44c-14 53 -27 110 -45 202c-17 -92 -31 -149 -48 -202
zM223 942h14c41 0 50 -7 51 -18c3 -34 20 -49 46 -49s44 15 47 49c1 11 11 18 51 18h14c45 0 54 -2 53 -21c-4 -92 -66 -145 -165 -145s-161 53 -165 145c-1 19 9 21 54 21z" />
    <glyph glyph-name="Acaron" unicode="&#x1cd;" horiz-adv-x="668" 
d="M328 720h8c63 0 75 -4 81 -21l241 -671c7 -19 -3 -28 -74 -28h-12c-66 0 -83 7 -88 22l-54 157h-201l-52 -157c-5 -15 -18 -22 -85 -22h-12c-68 0 -78 6 -70 27l238 672c6 17 17 21 80 21zM284 346l-14 -44h119l-12 44c-14 53 -27 110 -45 202c-17 -92 -31 -149 -48 -202
zM241 966l91 -80l92 80c12 10 22 10 50 -18l10 -10c23 -23 26 -32 17 -41l-91 -95c-18 -18 -27 -21 -72 -21h-12c-45 0 -54 3 -72 21l-90 95c-9 9 -6 18 17 41l10 10c28 28 38 28 50 18z" />
    <glyph glyph-name="Aring" unicode="&#xc5;" horiz-adv-x="668" 
d="M211 804c0 63 55 117 123 117s123 -52 123 -117c0 -38 -19 -72 -48 -93l249 -683c7 -19 -3 -28 -74 -28h-12c-66 0 -83 7 -88 22l-54 157h-201l-52 -157c-5 -15 -18 -22 -85 -22h-12c-68 0 -78 6 -70 27l247 686c-28 22 -46 55 -46 91zM301 804c0 -19 14 -33 33 -33
s32 14 32 33s-13 33 -32 33s-33 -14 -33 -33zM284 346l-14 -44h119l-12 44c-14 53 -27 110 -45 202c-17 -92 -31 -149 -48 -202z" />
    <glyph glyph-name="Aringacute" unicode="&#x1fa;" horiz-adv-x="668" 
d="M211 804c0 63 55 117 123 117s123 -52 123 -117c0 -38 -19 -72 -48 -93l249 -683c7 -19 -3 -28 -74 -28h-12c-66 0 -83 7 -88 22l-54 157h-201l-52 -157c-5 -15 -18 -22 -85 -22h-12c-68 0 -78 6 -70 27l247 686c-28 22 -46 55 -46 91zM301 804c0 -19 14 -33 33 -33
s32 14 32 33s-13 33 -32 33s-33 -14 -33 -33zM284 346l-14 -44h119l-12 44c-14 53 -27 110 -45 202c-17 -92 -31 -149 -48 -202zM382 1148h47c53 0 52 -12 39 -29l-125 -157c-8 -11 -19 -14 -52 -14h-37c-38 0 -49 7 -36 27l103 158c8 13 14 15 61 15z" />
    <glyph glyph-name="Aogonek" unicode="&#x104;" horiz-adv-x="668" 
d="M328 720h8c63 0 75 -4 81 -21l241 -671c4 -11 2 -18 -14 -23c-62 -19 -113 -59 -113 -111c0 -22 11 -38 34 -38c14 0 25 4 39 10c10 4 15 3 27 -32l3 -9c10 -30 11 -40 1 -46c-24 -14 -61 -25 -94 -25c-91 0 -134 50 -134 116c0 58 37 111 83 140l-60 169h-201l-52 -157
c-5 -15 -18 -22 -85 -22h-12c-68 0 -78 6 -70 27l238 672c6 17 17 21 80 21zM284 346l-14 -44h119l-12 44c-14 53 -27 110 -45 202c-17 -92 -31 -149 -48 -202z" />
    <glyph glyph-name="AE" unicode="&#xc6;" horiz-adv-x="979" 
d="M473 22v148h-208l-88 -149c-9 -15 -28 -21 -85 -21h-24c-73 0 -77 8 -65 28l414 672c9 15 17 20 69 20h418c20 0 23 -2 23 -60v-8c0 -56 -4 -61 -23 -61h-260v-163h219c20 0 23 -2 23 -60v-8c0 -55 -4 -61 -23 -61h-219v-170h264c20 0 23 -2 23 -60v-7
c0 -55 -5 -62 -23 -62h-376c-51 0 -59 3 -59 22zM340 292h133v253c-24 -56 -45 -98 -65 -133z" />
    <glyph glyph-name="AEacute" unicode="&#x1fc;" horiz-adv-x="979" 
d="M473 22v148h-208l-88 -149c-9 -15 -28 -21 -85 -21h-24c-73 0 -77 8 -65 28l414 672c9 15 17 20 69 20h418c20 0 23 -2 23 -60v-8c0 -56 -4 -61 -23 -61h-260v-163h219c20 0 23 -2 23 -60v-8c0 -55 -4 -61 -23 -61h-219v-170h264c20 0 23 -2 23 -60v-7
c0 -55 -5 -62 -23 -62h-376c-51 0 -59 3 -59 22zM340 292h133v253c-24 -56 -45 -98 -65 -133zM728 984h47c53 0 52 -12 39 -29l-125 -157c-8 -11 -19 -14 -52 -14h-37c-38 0 -49 7 -36 27l103 158c8 13 14 15 61 15z" />
    <glyph glyph-name="Cacute" unicode="&#x106;" horiz-adv-x="599" 
d="M551 608l-13 -22c-21 -35 -31 -43 -46 -33c-42 27 -75 42 -122 42c-99 0 -162 -82 -162 -238c0 -146 54 -231 159 -231c43 0 89 11 134 36c18 10 24 5 42 -36l10 -23c16 -36 19 -45 2 -56c-58 -36 -124 -57 -209 -57c-200 0 -313 138 -313 363s121 377 323 377
c84 0 153 -23 205 -63c16 -12 13 -20 -10 -59zM418 984h47c53 0 52 -12 39 -29l-125 -157c-8 -11 -19 -14 -52 -14h-37c-38 0 -49 7 -36 27l103 158c8 13 14 15 61 15z" />
    <glyph glyph-name="Ccedilla" unicode="&#xc7;" horiz-adv-x="599" 
d="M551 608l-13 -22c-21 -35 -31 -43 -46 -33c-42 27 -75 42 -122 42c-99 0 -162 -82 -162 -238c0 -146 54 -231 159 -231c43 0 89 11 134 36c18 10 24 5 42 -36l10 -23c16 -36 19 -45 2 -56c-55 -34 -116 -54 -194 -57l-2 -28c61 1 114 -25 114 -92
c0 -59 -41 -113 -134 -113c-34 0 -63 6 -85 14c-11 4 -14 5 -5 37l3 11c8 30 13 33 25 30c11 -3 33 -7 48 -7c24 0 34 10 34 28c0 20 -20 24 -41 24c-17 0 -39 -2 -59 -7l16 110c-156 29 -242 159 -242 356c0 225 121 377 323 377c84 0 153 -23 205 -63
c16 -12 13 -20 -10 -59z" />
    <glyph glyph-name="Ccircumflex" unicode="&#x108;" horiz-adv-x="599" 
d="M551 608l-13 -22c-21 -35 -31 -43 -46 -33c-42 27 -75 42 -122 42c-99 0 -162 -82 -162 -238c0 -146 54 -231 159 -231c43 0 89 11 134 36c18 10 24 5 42 -36l10 -23c16 -36 19 -45 2 -56c-58 -36 -124 -57 -209 -57c-200 0 -313 138 -313 363s121 377 323 377
c84 0 153 -23 205 -63c16 -12 13 -20 -10 -59zM359 870l-89 -77c-12 -10 -22 -10 -50 18l-10 10c-23 23 -26 32 -17 41l88 92c18 18 27 21 72 21h12c45 0 54 -3 72 -21l88 -92c9 -9 6 -18 -17 -41l-10 -10c-28 -28 -38 -28 -50 -18z" />
    <glyph glyph-name="Ccaron" unicode="&#x10c;" horiz-adv-x="599" 
d="M551 608l-13 -22c-21 -35 -31 -43 -46 -33c-42 27 -75 42 -122 42c-99 0 -162 -82 -162 -238c0 -146 54 -231 159 -231c43 0 89 11 134 36c18 10 24 5 42 -36l10 -23c16 -36 19 -45 2 -56c-58 -36 -124 -57 -209 -57c-200 0 -313 138 -313 363s121 377 323 377
c84 0 153 -23 205 -63c16 -12 13 -20 -10 -59zM268 966l91 -80l92 80c12 10 22 10 50 -18l10 -10c23 -23 26 -32 17 -41l-91 -95c-18 -18 -27 -21 -72 -21h-12c-45 0 -54 3 -72 21l-90 95c-9 9 -6 18 17 41l10 10c28 28 38 28 50 18z" />
    <glyph glyph-name="Cdotaccent" unicode="&#x10a;" horiz-adv-x="599" 
d="M551 608l-13 -22c-21 -35 -31 -43 -46 -33c-42 27 -75 42 -122 42c-99 0 -162 -82 -162 -238c0 -146 54 -231 159 -231c43 0 89 11 134 36c18 10 24 5 42 -36l10 -23c16 -36 19 -45 2 -56c-58 -36 -124 -57 -209 -57c-200 0 -313 138 -313 363s121 377 323 377
c84 0 153 -23 205 -63c16 -12 13 -20 -10 -59zM276 854c0 46 36 81 84 81c47 0 83 -35 83 -81s-36 -81 -83 -81c-48 0 -84 35 -84 81z" />
    <glyph glyph-name="Dcaron" unicode="&#x10e;" horiz-adv-x="683" 
d="M241 591v-462h36c70 0 120 18 151 53c35 39 47 100 47 179c0 76 -10 132 -42 172c-31 38 -80 58 -157 58h-35zM128 720h142c139 0 223 -28 288 -92c59 -57 92 -146 92 -267c0 -115 -36 -213 -102 -278c-63 -61 -153 -83 -280 -83h-140c-51 0 -58 3 -58 22v675
c0 20 7 23 58 23zM250 966l91 -80l92 80c12 10 22 10 50 -18l10 -10c23 -23 26 -32 17 -41l-91 -95c-18 -18 -27 -21 -72 -21h-12c-45 0 -54 3 -72 21l-90 95c-9 9 -6 18 17 41l10 10c28 28 38 28 50 18z" />
    <glyph glyph-name="Dcroat" unicode="&#x110;" horiz-adv-x="693" 
d="M138 720h142c139 0 223 -28 288 -92c59 -57 92 -146 92 -267c0 -115 -36 -213 -102 -278c-63 -61 -153 -83 -280 -83h-140c-51 0 -58 3 -58 22v280h-49c-20 0 -28 7 -28 57v10c0 50 8 57 28 57h49v271c0 20 7 23 58 23zM251 591v-165h79c21 0 29 -7 29 -57v-10
c0 -50 -8 -57 -29 -57h-79v-173h36c70 0 120 18 151 53c35 39 47 100 47 179c0 76 -10 132 -42 172c-31 38 -80 58 -157 58h-35z" />
    <glyph glyph-name="Eth" unicode="&#xd0;" horiz-adv-x="693" 
d="M138 720h142c139 0 223 -28 288 -92c59 -57 92 -146 92 -267c0 -115 -36 -213 -102 -278c-63 -61 -153 -83 -280 -83h-140c-51 0 -58 3 -58 22v280h-49c-20 0 -28 7 -28 57v10c0 50 8 57 28 57h49v271c0 20 7 23 58 23zM251 591v-165h79c21 0 29 -7 29 -57v-10
c0 -50 -8 -57 -29 -57h-79v-173h36c70 0 120 18 151 53c35 39 47 100 47 179c0 76 -10 132 -42 172c-31 38 -80 58 -157 58h-35z" />
    <glyph glyph-name="Egrave" unicode="&#xc8;" horiz-adv-x="576" 
d="M129 720h372c20 0 23 -2 23 -60v-8c0 -56 -4 -61 -23 -61h-260v-163h219c20 0 23 -2 23 -60v-8c0 -55 -4 -61 -23 -61h-219v-170h264c20 0 23 -2 23 -60v-7c0 -55 -5 -62 -23 -62h-376c-51 0 -59 3 -59 22v675c0 20 8 23 59 23zM198 984h47c47 0 53 -2 61 -15l103 -158
c13 -20 2 -27 -36 -27h-37c-33 0 -44 3 -52 14l-125 157c-13 17 -8 29 39 29z" />
    <glyph glyph-name="Eacute" unicode="&#xc9;" horiz-adv-x="576" 
d="M129 720h372c20 0 23 -2 23 -60v-8c0 -56 -4 -61 -23 -61h-260v-163h219c20 0 23 -2 23 -60v-8c0 -55 -4 -61 -23 -61h-219v-170h264c20 0 23 -2 23 -60v-7c0 -55 -5 -62 -23 -62h-376c-51 0 -59 3 -59 22v675c0 20 8 23 59 23zM384 984h47c53 0 52 -12 39 -29l-125 -157
c-8 -11 -19 -14 -52 -14h-37c-38 0 -49 7 -36 27l103 158c8 13 14 15 61 15z" />
    <glyph glyph-name="Ecircumflex" unicode="&#xca;" horiz-adv-x="576" 
d="M129 720h372c20 0 23 -2 23 -60v-8c0 -56 -4 -61 -23 -61h-260v-163h219c20 0 23 -2 23 -60v-8c0 -55 -4 -61 -23 -61h-219v-170h264c20 0 23 -2 23 -60v-7c0 -55 -5 -62 -23 -62h-376c-51 0 -59 3 -59 22v675c0 20 8 23 59 23zM303 870l-89 -77c-12 -10 -22 -10 -50 18
l-10 10c-23 23 -26 32 -17 41l88 92c18 18 27 21 72 21h12c45 0 54 -3 72 -21l88 -92c9 -9 6 -18 -17 -41l-10 -10c-28 -28 -38 -28 -50 -18z" />
    <glyph glyph-name="Ecaron" unicode="&#x11a;" horiz-adv-x="576" 
d="M129 720h372c20 0 23 -2 23 -60v-8c0 -56 -4 -61 -23 -61h-260v-163h219c20 0 23 -2 23 -60v-8c0 -55 -4 -61 -23 -61h-219v-170h264c20 0 23 -2 23 -60v-7c0 -55 -5 -62 -23 -62h-376c-51 0 -59 3 -59 22v675c0 20 8 23 59 23zM216 966l91 -80l92 80c12 10 22 10 50 -18
l10 -10c23 -23 26 -32 17 -41l-91 -95c-18 -18 -27 -21 -72 -21h-12c-45 0 -54 3 -72 21l-90 95c-9 9 -6 18 17 41l10 10c28 28 38 28 50 18z" />
    <glyph glyph-name="Edieresis" unicode="&#xcb;" horiz-adv-x="576" 
d="M129 720h372c20 0 23 -2 23 -60v-8c0 -56 -4 -61 -23 -61h-260v-163h219c20 0 23 -2 23 -60v-8c0 -55 -4 -61 -23 -61h-219v-170h264c20 0 23 -2 23 -60v-7c0 -55 -5 -62 -23 -62h-376c-51 0 -59 3 -59 22v675c0 20 8 23 59 23zM104 871c0 46 34 82 86 82
c48 0 85 -36 85 -82s-37 -81 -85 -81c-52 0 -86 35 -86 81zM321 871c0 46 34 82 86 82c48 0 85 -36 85 -82s-37 -81 -85 -81c-52 0 -86 35 -86 81z" />
    <glyph glyph-name="Emacron" unicode="&#x112;" horiz-adv-x="576" 
d="M129 720h372c20 0 23 -2 23 -60v-8c0 -56 -4 -61 -23 -61h-260v-163h219c20 0 23 -2 23 -60v-8c0 -55 -4 -61 -23 -61h-219v-170h264c20 0 23 -2 23 -60v-7c0 -55 -5 -62 -23 -62h-376c-51 0 -59 3 -59 22v675c0 20 8 23 59 23zM158 927h280c9 0 15 -10 15 -51v-7
c0 -40 -6 -51 -15 -51h-280c-11 0 -14 11 -14 51v7c0 41 3 51 14 51z" />
    <glyph glyph-name="Ebreve" unicode="&#x114;" horiz-adv-x="576" 
d="M129 720h372c20 0 23 -2 23 -60v-8c0 -56 -4 -61 -23 -61h-260v-163h219c20 0 23 -2 23 -60v-8c0 -55 -4 -61 -23 -61h-219v-170h264c20 0 23 -2 23 -60v-7c0 -55 -5 -62 -23 -62h-376c-51 0 -59 3 -59 22v675c0 20 8 23 59 23zM195 942h14c41 0 50 -7 51 -18
c3 -34 20 -49 46 -49s44 15 47 49c1 11 11 18 51 18h14c45 0 54 -2 53 -21c-4 -92 -66 -145 -165 -145s-161 53 -165 145c-1 19 9 21 54 21z" />
    <glyph glyph-name="Edotaccent" unicode="&#x116;" horiz-adv-x="576" 
d="M129 720h372c20 0 23 -2 23 -60v-8c0 -56 -4 -61 -23 -61h-260v-163h219c20 0 23 -2 23 -60v-8c0 -55 -4 -61 -23 -61h-219v-170h264c20 0 23 -2 23 -60v-7c0 -55 -5 -62 -23 -62h-376c-51 0 -59 3 -59 22v675c0 20 8 23 59 23zM224 854c0 46 36 81 84 81
c47 0 83 -35 83 -81s-36 -81 -83 -81c-48 0 -84 35 -84 81z" />
    <glyph glyph-name="Eogonek" unicode="&#x118;" horiz-adv-x="576" 
d="M129 720h372c20 0 23 -6 23 -60v-8c0 -56 -4 -61 -23 -61h-260v-163h219c20 0 23 -2 23 -60v-8c0 -55 -4 -61 -23 -61h-219v-170h264c20 0 23 -2 23 -60v-7c0 -48 -5 -54 -25 -62c-72 -27 -103 -63 -103 -103c0 -25 12 -41 36 -41c12 0 24 4 37 9c10 4 16 1 27 -31l3 -9
c10 -31 11 -40 1 -46c-24 -14 -62 -25 -94 -25c-82 0 -134 45 -134 116c0 52 30 101 71 130h-218c-51 0 -59 3 -59 22v675c0 20 8 23 59 23z" />
    <glyph glyph-name="Gcircumflex" unicode="&#x11c;" horiz-adv-x="677" 
d="M343 411h220c46 0 50 -3 50 -23v-322c0 -11 -1 -19 -19 -28c-54 -28 -147 -48 -235 -48c-215 0 -326 137 -326 370c0 115 34 208 94 274c58 62 144 96 244 96c89 0 160 -25 216 -65c18 -13 19 -19 -8 -65l-12 -20c-27 -45 -35 -43 -53 -31c-43 29 -82 46 -133 46
c-113 0 -173 -81 -173 -234c0 -154 51 -237 165 -237c21 0 46 3 69 9v149h-99c-17 0 -21 4 -21 61v8c0 57 4 60 21 60zM372 870l-89 -77c-12 -10 -22 -10 -50 18l-10 10c-23 23 -26 32 -17 41l88 92c18 18 27 21 72 21h12c45 0 54 -3 72 -21l88 -92c9 -9 6 -18 -17 -41
l-10 -10c-28 -28 -38 -28 -50 -18z" />
    <glyph glyph-name="Gbreve" unicode="&#x11e;" horiz-adv-x="677" 
d="M343 411h220c46 0 50 -3 50 -23v-322c0 -11 -1 -19 -19 -28c-54 -28 -147 -48 -235 -48c-215 0 -326 137 -326 370c0 115 34 208 94 274c58 62 144 96 244 96c89 0 160 -25 216 -65c18 -13 19 -19 -8 -65l-12 -20c-27 -45 -35 -43 -53 -31c-43 29 -82 46 -133 46
c-113 0 -173 -81 -173 -234c0 -154 51 -237 165 -237c21 0 46 3 69 9v149h-99c-17 0 -21 4 -21 61v8c0 57 4 60 21 60zM261 942h14c41 0 50 -7 51 -18c3 -34 20 -49 46 -49s44 15 47 49c1 11 11 18 51 18h14c45 0 54 -2 53 -21c-4 -92 -66 -145 -165 -145s-161 53 -165 145
c-1 19 9 21 54 21z" />
    <glyph glyph-name="Gdotaccent" unicode="&#x120;" horiz-adv-x="677" 
d="M343 411h220c46 0 50 -3 50 -23v-322c0 -11 -1 -19 -19 -28c-54 -28 -147 -48 -235 -48c-215 0 -326 137 -326 370c0 115 34 208 94 274c58 62 144 96 244 96c89 0 160 -25 216 -65c18 -13 19 -19 -8 -65l-12 -20c-27 -45 -35 -43 -53 -31c-43 29 -82 46 -133 46
c-113 0 -173 -81 -173 -234c0 -154 51 -237 165 -237c21 0 46 3 69 9v149h-99c-17 0 -21 4 -21 61v8c0 57 4 60 21 60zM290 854c0 46 36 81 84 81c47 0 83 -35 83 -81s-36 -81 -83 -81c-48 0 -84 35 -84 81z" />
    <glyph glyph-name="Gcommaaccent" unicode="&#x122;" horiz-adv-x="677" 
d="M343 411h220c46 0 50 -3 50 -23v-322c0 -11 -1 -19 -19 -28c-54 -28 -147 -48 -235 -48c-215 0 -326 137 -326 370c0 115 34 208 94 274c58 62 144 96 244 96c89 0 160 -25 216 -65c18 -13 19 -19 -8 -65l-12 -20c-27 -45 -35 -43 -53 -31c-43 29 -82 46 -133 46
c-113 0 -173 -81 -173 -234c0 -154 51 -237 165 -237c21 0 46 3 69 9v149h-99c-17 0 -21 4 -21 61v8c0 57 4 60 21 60zM296 -320l-6 5c-16 15 -18 21 -13 27c30 37 48 73 48 97c0 32 -35 45 -35 82c0 34 29 60 70 60c44 0 77 -32 77 -85c0 -63 -43 -140 -108 -193
c-8 -7 -14 -9 -33 7z" />
    <glyph glyph-name="Hcircumflex" unicode="&#x124;" horiz-adv-x="700" 
d="M149 720h10c64 0 82 -5 82 -23v-269h218v269c0 18 12 23 79 23h11c63 0 81 -5 81 -23v-675c0 -17 -18 -22 -81 -22h-11c-67 0 -79 5 -79 22v277h-218v-277c0 -17 -18 -22 -82 -22h-10c-68 0 -79 5 -79 22v675c0 18 11 23 79 23zM350 870l-89 -77c-12 -10 -22 -10 -50 18
l-10 10c-23 23 -26 32 -17 41l88 92c18 18 27 21 72 21h12c45 0 54 -3 72 -21l88 -92c9 -9 6 -18 -17 -41l-10 -10c-28 -28 -38 -28 -50 -18z" />
    <glyph glyph-name="Hbar" unicode="&#x126;" horiz-adv-x="720" 
d="M80 635v62c0 18 11 23 79 23h10c64 0 82 -5 82 -23v-62h218v62c0 18 12 23 79 23h11c63 0 81 -5 81 -23v-62h49c20 0 28 -7 28 -57v-10c0 -50 -8 -57 -28 -57h-49v-489c0 -17 -18 -22 -81 -22h-11c-67 0 -79 5 -79 22v277h-218v-277c0 -17 -18 -22 -82 -22h-10
c-68 0 -79 5 -79 22v489h-49c-20 0 -28 7 -28 57v10c0 50 8 57 28 57h49zM251 428h218v83h-218v-83z" />
    <glyph glyph-name="Igrave" unicode="&#xcc;" horiz-adv-x="429" 
d="M300 113h60c14 0 16 -4 16 -52v-5c0 -52 -2 -56 -16 -56h-291c-14 0 -16 4 -16 56v5c0 48 2 52 16 52h60v494h-60c-14 0 -16 4 -16 52v5c0 52 2 56 16 56h291c14 0 16 -3 16 -55v-5c0 -48 -2 -53 -16 -53h-60v-494zM99 984h47c47 0 53 -2 61 -15l103 -158
c13 -20 2 -27 -36 -27h-37c-33 0 -44 3 -52 14l-125 157c-13 17 -8 29 39 29z" />
    <glyph glyph-name="Iacute" unicode="&#xcd;" horiz-adv-x="429" 
d="M300 113h60c14 0 16 -4 16 -52v-5c0 -52 -2 -56 -16 -56h-291c-14 0 -16 4 -16 56v5c0 48 2 52 16 52h60v494h-60c-14 0 -16 4 -16 52v5c0 52 2 56 16 56h291c14 0 16 -3 16 -55v-5c0 -48 -2 -53 -16 -53h-60v-494zM300 984h47c53 0 52 -12 39 -29l-125 -157
c-8 -11 -19 -14 -52 -14h-37c-38 0 -49 7 -36 27l103 158c8 13 14 15 61 15z" />
    <glyph glyph-name="Icircumflex" unicode="&#xce;" horiz-adv-x="429" 
d="M300 113h60c14 0 16 -4 16 -52v-5c0 -52 -2 -56 -16 -56h-291c-14 0 -16 4 -16 56v5c0 48 2 52 16 52h60v494h-60c-14 0 -16 4 -16 52v5c0 52 2 56 16 56h291c14 0 16 -3 16 -55v-5c0 -48 -2 -53 -16 -53h-60v-494zM215 870l-89 -77c-12 -10 -22 -10 -50 18l-10 10
c-23 23 -26 32 -17 41l88 92c18 18 27 21 72 21h12c45 0 54 -3 72 -21l88 -92c9 -9 6 -18 -17 -41l-10 -10c-28 -28 -38 -28 -50 -18z" />
    <glyph glyph-name="Itilde" unicode="&#x128;" horiz-adv-x="429" 
d="M300 113h60c14 0 16 -4 16 -52v-5c0 -52 -2 -56 -16 -56h-291c-14 0 -16 4 -16 56v5c0 48 2 52 16 52h60v494h-60c-14 0 -16 4 -16 52v5c0 52 2 56 16 56h291c14 0 16 -3 16 -55v-5c0 -48 -2 -53 -16 -53h-60v-494zM55 835l-4 4c-26 26 -28 31 -20 42c25 35 70 68 121 68
c32 0 54 -9 72 -18c17 -8 30 -16 48 -16c17 0 34 13 52 30c10 10 16 10 45 -19l6 -6c23 -24 31 -30 19 -44c-34 -42 -76 -66 -117 -66c-27 0 -52 8 -72 18c-23 12 -35 18 -51 18c-18 0 -33 -14 -48 -32c-10 -11 -20 -10 -51 21z" />
    <glyph glyph-name="Idieresis" unicode="&#xcf;" horiz-adv-x="429" 
d="M300 113h60c14 0 16 -4 16 -52v-5c0 -52 -2 -56 -16 -56h-291c-14 0 -16 4 -16 56v5c0 48 2 52 16 52h60v494h-60c-14 0 -16 4 -16 52v5c0 52 2 56 16 56h291c14 0 16 -3 16 -55v-5c0 -48 -2 -53 -16 -53h-60v-494zM22 871c0 46 34 82 86 82c48 0 85 -36 85 -82
s-37 -81 -85 -81c-52 0 -86 35 -86 81zM239 871c0 46 34 82 86 82c48 0 85 -36 85 -82s-37 -81 -85 -81c-52 0 -86 35 -86 81z" />
    <glyph glyph-name="Imacron" unicode="&#x12a;" horiz-adv-x="429" 
d="M300 113h60c14 0 16 -4 16 -52v-5c0 -52 -2 -56 -16 -56h-291c-14 0 -16 4 -16 56v5c0 48 2 52 16 52h60v494h-60c-14 0 -16 4 -16 52v5c0 52 2 56 16 56h291c14 0 16 -3 16 -55v-5c0 -48 -2 -53 -16 -53h-60v-494zM74 927h280c9 0 15 -10 15 -51v-7
c0 -40 -6 -51 -15 -51h-280c-11 0 -14 11 -14 51v7c0 41 3 51 14 51z" />
    <glyph glyph-name="Ibreve" unicode="&#x12c;" horiz-adv-x="429" 
d="M300 113h60c14 0 16 -4 16 -52v-5c0 -52 -2 -56 -16 -56h-291c-14 0 -16 4 -16 56v5c0 48 2 52 16 52h60v494h-60c-14 0 -16 4 -16 52v5c0 52 2 56 16 56h291c14 0 16 -3 16 -55v-5c0 -48 -2 -53 -16 -53h-60v-494zM103 942h14c41 0 50 -7 51 -18c3 -34 20 -49 46 -49
s44 15 47 49c1 11 11 18 51 18h14c45 0 54 -2 53 -21c-4 -92 -66 -145 -165 -145s-161 53 -165 145c-1 19 9 21 54 21z" />
    <glyph glyph-name="Idotaccent" unicode="&#x130;" horiz-adv-x="429" 
d="M300 113h60c14 0 16 -4 16 -52v-5c0 -52 -2 -56 -16 -56h-291c-14 0 -16 4 -16 56v5c0 48 2 52 16 52h60v494h-60c-14 0 -16 4 -16 52v5c0 52 2 56 16 56h291c14 0 16 -3 16 -55v-5c0 -48 -2 -53 -16 -53h-60v-494zM131 854c0 46 36 81 84 81c47 0 83 -35 83 -81
s-36 -81 -83 -81c-48 0 -84 35 -84 81z" />
    <glyph glyph-name="Iogonek" unicode="&#x12e;" horiz-adv-x="429" 
d="M300 113h60c14 0 16 -4 16 -52v-5c0 -52 -2 -56 -16 -56h-13c-45 0 -78 -14 -98 -35c-19 -20 -29 -47 -29 -68c0 -25 12 -41 36 -41c12 0 24 4 37 9c10 4 16 1 27 -31l3 -9c10 -31 11 -40 1 -46c-24 -14 -62 -25 -94 -25c-82 0 -134 50 -134 119c0 52 30 100 70 127h-97
c-14 0 -16 4 -16 56v5c0 48 2 52 16 52h60v494h-60c-14 0 -16 4 -16 52v5c0 52 2 56 16 56h291c14 0 16 -3 16 -55v-5c0 -48 -2 -53 -16 -53h-60v-494z" />
    <glyph glyph-name="IJ" unicode="&#x132;" horiz-adv-x="915" 
d="M300 113h60c14 0 16 -4 16 -52v-5c0 -52 -2 -56 -16 -56h-291c-14 0 -16 4 -16 56v5c0 48 2 52 16 52h60v494h-60c-14 0 -16 4 -16 52v5c0 52 2 56 16 56h291c14 0 16 -3 16 -55v-5c0 -48 -2 -53 -16 -53h-60v-494zM755 720h11c64 0 81 -6 81 -23v-453
c0 -91 -20 -150 -57 -191c-40 -43 -99 -63 -176 -63c-48 0 -101 10 -144 28c-17 7 -16 22 -5 58l6 20c12 40 18 53 40 46c27 -9 63 -18 85 -18c27 0 47 8 60 22c18 21 20 52 20 100v451c0 17 12 23 79 23z" />
    <glyph glyph-name="Jcircumflex" unicode="&#x134;" horiz-adv-x="486" 
d="M326 720h11c64 0 81 -6 81 -23v-453c0 -91 -20 -150 -57 -191c-40 -43 -99 -63 -176 -63c-48 0 -101 10 -144 28c-17 7 -16 22 -5 58l6 20c12 40 18 53 40 46c27 -9 63 -18 85 -18c27 0 47 8 60 22c18 21 20 52 20 100v451c0 17 12 23 79 23zM334 870l-89 -77
c-12 -10 -22 -10 -50 18l-10 10c-23 23 -26 32 -17 41l88 92c18 18 27 21 72 21h12c45 0 54 -3 72 -21l88 -92c9 -9 6 -18 -17 -41l-10 -10c-28 -28 -38 -28 -50 -18z" />
    <glyph glyph-name="Kcommaaccent" unicode="&#x136;" horiz-adv-x="634" 
d="M149 720h10c64 0 82 -6 82 -23v-239l11 12c80 87 139 167 183 234c9 13 16 16 77 16h11c73 0 83 -4 74 -24c-31 -68 -99 -164 -214 -284l224 -383c12 -20 2 -29 -63 -29h-29c-73 0 -77 2 -86 18l-159 277l-29 -30v-243c0 -14 -18 -22 -82 -22h-10c-68 0 -79 5 -79 22v675
c0 17 11 23 79 23zM278 -320l-6 5c-16 15 -18 21 -13 27c30 37 48 73 48 97c0 32 -35 45 -35 82c0 34 29 60 70 60c44 0 77 -32 77 -85c0 -63 -43 -140 -108 -193c-8 -7 -14 -9 -33 7z" />
    <glyph glyph-name="Lacute" unicode="&#x139;" horiz-adv-x="529" 
d="M149 720h11c63 0 81 -6 81 -23v-568h243c20 0 23 -4 23 -60v-7c0 -57 -3 -62 -23 -62h-356c-50 0 -58 3 -58 22v675c0 17 12 23 79 23zM248 984h47c53 0 52 -12 39 -29l-125 -157c-8 -11 -19 -14 -52 -14h-37c-38 0 -49 7 -36 27l103 158c8 13 14 15 61 15z" />
    <glyph glyph-name="Lcaron" unicode="&#x13d;" horiz-adv-x="529" 
d="M149 720h11c63 0 81 -6 81 -23v-568h243c20 0 23 -4 23 -60v-7c0 -57 -3 -62 -23 -62h-356c-50 0 -58 3 -58 22v675c0 17 12 23 79 23zM332 469l-6 5c-16 15 -18 21 -13 27c30 37 48 73 48 97c0 32 -35 45 -35 82c0 34 29 60 70 60c44 0 77 -32 77 -85
c0 -63 -43 -140 -108 -193c-8 -7 -14 -9 -33 7z" />
    <glyph glyph-name="Lcommaaccent" unicode="&#x13b;" horiz-adv-x="529" 
d="M149 720h11c63 0 81 -6 81 -23v-568h243c20 0 23 -4 23 -60v-7c0 -57 -3 -62 -23 -62h-356c-50 0 -58 3 -58 22v675c0 17 12 23 79 23zM236 -320l-6 5c-16 15 -18 21 -13 27c30 37 48 73 48 97c0 32 -35 45 -35 82c0 34 29 60 70 60c44 0 77 -32 77 -85
c0 -63 -43 -140 -108 -193c-8 -7 -14 -9 -33 7z" />
    <glyph glyph-name="Lslash" unicode="&#x141;" horiz-adv-x="529" 
d="M149 720h11c63 0 81 -6 81 -23v-203l110 61c20 11 29 9 29 -48v-28c0 -45 -1 -52 -19 -62l-120 -66v-222h243c20 0 23 -4 23 -60v-7c0 -57 -3 -62 -23 -62h-356c-50 0 -58 3 -58 22v235l-41 -22c-24 -13 -36 -10 -36 43v26c0 45 3 56 18 64l59 32v297c0 17 12 23 79 23z
" />
    <glyph glyph-name="Ldot" unicode="&#x13f;" horiz-adv-x="529" 
d="M149 720h11c63 0 81 -6 81 -23v-568h243c20 0 23 -4 23 -60v-7c0 -57 -3 -62 -23 -62h-356c-50 0 -58 3 -58 22v675c0 17 12 23 79 23zM322 419c0 46 36 81 84 81c47 0 83 -35 83 -81s-36 -81 -83 -81c-48 0 -84 35 -84 81z" />
    <glyph glyph-name="Nacute" unicode="&#x143;" horiz-adv-x="716" 
d="M140 720h5c59 0 68 -7 77 -20l180 -268c35 -52 63 -103 91 -160c-6 64 -9 117 -9 185v240c0 17 11 23 78 23h6c66 0 78 -6 78 -23v-675c0 -17 -5 -22 -71 -22h-6c-53 0 -66 5 -76 20l-179 268c-45 69 -67 109 -94 166c8 -72 12 -132 12 -191v-241c0 -17 -15 -22 -77 -22
h-6c-67 0 -79 3 -79 22v675c0 20 4 23 70 23zM416 984h47c53 0 52 -12 39 -29l-125 -157c-8 -11 -19 -14 -52 -14h-37c-38 0 -49 7 -36 27l103 158c8 13 14 15 61 15z" />
    <glyph glyph-name="Ncaron" unicode="&#x147;" horiz-adv-x="716" 
d="M140 720h5c59 0 68 -7 77 -20l180 -268c35 -52 63 -103 91 -160c-6 64 -9 117 -9 185v240c0 17 11 23 78 23h6c66 0 78 -6 78 -23v-675c0 -17 -5 -22 -71 -22h-6c-53 0 -66 5 -76 20l-179 268c-45 69 -67 109 -94 166c8 -72 12 -132 12 -191v-241c0 -17 -15 -22 -77 -22
h-6c-67 0 -79 3 -79 22v675c0 20 4 23 70 23zM276 966l91 -80l92 80c12 10 22 10 50 -18l10 -10c23 -23 26 -32 17 -41l-91 -95c-18 -18 -27 -21 -72 -21h-12c-45 0 -54 3 -72 21l-90 95c-9 9 -6 18 17 41l10 10c28 28 38 28 50 18z" />
    <glyph glyph-name="Ntilde" unicode="&#xd1;" horiz-adv-x="716" 
d="M140 720h5c59 0 68 -7 77 -20l180 -268c35 -52 63 -103 91 -160c-6 64 -9 117 -9 185v240c0 17 11 23 78 23h6c66 0 78 -6 78 -23v-675c0 -17 -5 -22 -71 -22h-6c-53 0 -66 5 -76 20l-179 268c-45 69 -67 109 -94 166c8 -72 12 -132 12 -191v-241c0 -17 -15 -22 -77 -22
h-6c-67 0 -79 3 -79 22v675c0 20 4 23 70 23zM193 829l-4 4c-26 26 -28 31 -20 42c25 35 70 68 121 68c32 0 54 -9 72 -18c17 -8 30 -16 48 -16c17 0 34 13 52 30c10 10 16 10 45 -19l6 -6c23 -24 31 -30 19 -44c-34 -42 -76 -66 -117 -66c-27 0 -52 8 -72 18
c-23 12 -35 18 -51 18c-18 0 -33 -14 -48 -32c-10 -11 -20 -10 -51 21z" />
    <glyph glyph-name="Ncommaaccent" unicode="&#x145;" horiz-adv-x="716" 
d="M140 720h5c59 0 68 -7 77 -20l180 -268c35 -52 63 -103 91 -160c-6 64 -9 117 -9 185v240c0 17 11 23 78 23h6c66 0 78 -6 78 -23v-675c0 -17 -5 -22 -71 -22h-6c-53 0 -66 5 -76 20l-179 268c-45 69 -67 109 -94 166c8 -72 12 -132 12 -191v-241c0 -17 -15 -22 -77 -22
h-6c-67 0 -79 3 -79 22v675c0 20 4 23 70 23zM299 -320l-6 5c-16 15 -18 21 -13 27c30 37 48 73 48 97c0 32 -35 45 -35 82c0 34 29 60 70 60c44 0 77 -32 77 -85c0 -63 -43 -140 -108 -193c-8 -7 -14 -9 -33 7z" />
    <glyph glyph-name="Eng" unicode="&#x14a;" horiz-adv-x="716" 
d="M472 -37c10 15 12 33 12 70l-170 255c-45 69 -67 109 -94 166c8 -72 12 -132 12 -191v-241c0 -17 -15 -22 -77 -22h-6c-67 0 -79 3 -79 22v675c0 20 4 23 70 23h5c59 0 68 -7 77 -20l180 -268c35 -52 63 -103 91 -160c-6 64 -9 117 -9 185v240c0 17 11 23 78 23h6
c66 0 78 -6 78 -23v-641c0 -176 -80 -239 -201 -239c-40 0 -87 10 -106 19c-15 7 -15 14 -5 53l4 16c10 41 13 50 34 45c16 -4 35 -7 53 -7c22 0 38 7 47 20z" />
    <glyph glyph-name="Ograve" unicode="&#xd2;" horiz-adv-x="708" 
d="M361 596c-100 0 -153 -85 -153 -242c0 -163 51 -230 138 -230c100 0 153 85 153 242c0 163 -51 230 -138 230zM364 730c183 0 310 -106 310 -360c0 -230 -111 -380 -331 -380c-183 0 -310 106 -310 360c0 230 112 380 331 380zM258 984h47c47 0 53 -2 61 -15l103 -158
c13 -20 2 -27 -36 -27h-37c-33 0 -44 3 -52 14l-125 157c-13 17 -8 29 39 29z" />
    <glyph glyph-name="Oacute" unicode="&#xd3;" horiz-adv-x="708" 
d="M361 596c-100 0 -153 -85 -153 -242c0 -163 51 -230 138 -230c100 0 153 85 153 242c0 163 -51 230 -138 230zM364 730c183 0 310 -106 310 -360c0 -230 -111 -380 -331 -380c-183 0 -310 106 -310 360c0 230 112 380 331 380zM445 984h47c53 0 52 -12 39 -29l-125 -157
c-8 -11 -19 -14 -52 -14h-37c-38 0 -49 7 -36 27l103 158c8 13 14 15 61 15z" />
    <glyph glyph-name="Ocircumflex" unicode="&#xd4;" horiz-adv-x="708" 
d="M361 596c-100 0 -153 -85 -153 -242c0 -163 51 -230 138 -230c100 0 153 85 153 242c0 163 -51 230 -138 230zM364 730c183 0 310 -106 310 -360c0 -230 -111 -380 -331 -380c-183 0 -310 106 -310 360c0 230 112 380 331 380zM354 870l-89 -77c-12 -10 -22 -10 -50 18
l-10 10c-23 23 -26 32 -17 41l88 92c18 18 27 21 72 21h12c45 0 54 -3 72 -21l88 -92c9 -9 6 -18 -17 -41l-10 -10c-28 -28 -38 -28 -50 -18z" />
    <glyph glyph-name="Otilde" unicode="&#xd5;" horiz-adv-x="708" 
d="M361 596c-100 0 -153 -85 -153 -242c0 -163 51 -230 138 -230c100 0 153 85 153 242c0 163 -51 230 -138 230zM364 730c183 0 310 -106 310 -360c0 -230 -111 -380 -331 -380c-183 0 -310 106 -310 360c0 230 112 380 331 380zM198 829l-4 4c-26 26 -28 31 -20 42
c25 35 70 68 121 68c32 0 54 -9 72 -18c17 -8 30 -16 48 -16c17 0 34 13 52 30c10 10 16 10 45 -19l6 -6c23 -24 31 -30 19 -44c-34 -42 -76 -66 -117 -66c-27 0 -52 8 -72 18c-23 12 -35 18 -51 18c-18 0 -33 -14 -48 -32c-10 -11 -20 -10 -51 21z" />
    <glyph glyph-name="Odieresis" unicode="&#xd6;" horiz-adv-x="708" 
d="M361 596c-100 0 -153 -85 -153 -242c0 -163 51 -230 138 -230c100 0 153 85 153 242c0 163 -51 230 -138 230zM364 730c183 0 310 -106 310 -360c0 -230 -111 -380 -331 -380c-183 0 -310 106 -310 360c0 230 112 380 331 380zM172 871c0 46 34 82 86 82
c48 0 85 -36 85 -82s-37 -81 -85 -81c-52 0 -86 35 -86 81zM389 871c0 46 34 82 86 82c48 0 85 -36 85 -82s-37 -81 -85 -81c-52 0 -86 35 -86 81z" />
    <glyph glyph-name="Omacron" unicode="&#x14c;" horiz-adv-x="707" 
d="M361 596c-100 0 -153 -85 -153 -242c0 -163 51 -230 138 -230c100 0 153 85 153 242c0 163 -51 230 -138 230zM364 730c183 0 310 -106 310 -360c0 -230 -111 -380 -331 -380c-183 0 -310 106 -310 360c0 230 112 380 331 380zM213 927h280c9 0 15 -10 15 -51v-7
c0 -40 -6 -51 -15 -51h-280c-11 0 -14 11 -14 51v7c0 41 3 51 14 51z" />
    <glyph glyph-name="Obreve" unicode="&#x14e;" horiz-adv-x="707" 
d="M361 596c-100 0 -153 -85 -153 -242c0 -163 51 -230 138 -230c100 0 153 85 153 242c0 163 -51 230 -138 230zM364 730c183 0 310 -106 310 -360c0 -230 -111 -380 -331 -380c-183 0 -310 106 -310 360c0 230 112 380 331 380zM242 942h14c41 0 50 -7 51 -18
c3 -34 20 -49 46 -49s44 15 47 49c1 11 11 18 51 18h14c45 0 54 -2 53 -21c-4 -92 -66 -145 -165 -145s-161 53 -165 145c-1 19 9 21 54 21z" />
    <glyph glyph-name="Ohungarumlaut" unicode="&#x150;" horiz-adv-x="707" 
d="M361 596c-100 0 -153 -85 -153 -242c0 -163 51 -230 138 -230c100 0 153 85 153 242c0 163 -51 230 -138 230zM364 730c183 0 310 -106 310 -360c0 -230 -111 -380 -331 -380c-183 0 -310 106 -310 360c0 230 112 380 331 380zM307 984h42c46 0 53 -9 39 -27l-113 -152
c-8 -11 -18 -14 -49 -14h-32c-33 0 -46 7 -35 25l89 153c7 12 17 15 59 15zM507 984h42c46 0 53 -9 39 -27l-113 -152c-8 -11 -18 -14 -49 -14h-32c-33 0 -46 7 -35 25l89 153c7 12 17 15 59 15z" />
    <glyph glyph-name="Oslash" unicode="&#xd8;" horiz-adv-x="707" 
d="M364 730c47 0 91 -7 129 -22l38 69c5 9 8 9 41 -6l11 -5c35 -16 37 -19 32 -29l-42 -77c63 -58 101 -152 101 -290c0 -230 -111 -380 -331 -380c-45 0 -87 7 -124 20l-36 -67c-7 -13 -11 -13 -47 3l-10 5c-35 16 -34 20 -28 31l40 74c-66 57 -105 153 -105 294
c0 230 112 380 331 380zM361 596c-100 0 -153 -85 -153 -242c0 -57 6 -102 18 -137l198 363c-18 11 -40 16 -63 16zM499 366c0 53 -5 96 -16 129l-195 -359c17 -8 36 -12 58 -12c100 0 153 85 153 242z" />
    <glyph glyph-name="Oslashacute" unicode="&#x1fe;" horiz-adv-x="707" 
d="M364 730c47 0 91 -7 129 -22l38 69c5 9 8 9 41 -6l11 -5c35 -16 37 -19 32 -29l-42 -77c63 -58 101 -152 101 -290c0 -230 -111 -380 -331 -380c-45 0 -87 7 -124 20l-36 -67c-7 -13 -11 -13 -47 3l-10 5c-35 16 -34 20 -28 31l40 74c-66 57 -105 153 -105 294
c0 230 112 380 331 380zM361 596c-100 0 -153 -85 -153 -242c0 -57 6 -102 18 -137l198 363c-18 11 -40 16 -63 16zM499 366c0 53 -5 96 -16 129l-195 -359c17 -8 36 -12 58 -12c100 0 153 85 153 242zM412 984h47c53 0 52 -12 39 -29l-125 -157c-8 -11 -19 -14 -52 -14h-37
c-38 0 -49 7 -36 27l103 158c8 13 14 15 61 15z" />
    <glyph glyph-name="OE" unicode="&#x152;" horiz-adv-x="986" 
d="M480 127v466c-31 3 -65 5 -102 5c-108 0 -170 -87 -170 -244c0 -163 62 -232 156 -232c45 0 79 2 116 5zM915 0h-315c-26 0 -59 -2 -98 -4c-45 -3 -106 -6 -150 -6c-196 0 -319 106 -319 360c0 230 120 380 339 380c34 0 79 -2 113 -5c34 -2 70 -5 103 -5h323
c20 0 23 -2 23 -60v-8c0 -56 -4 -61 -23 -61h-260v-163h219c20 0 23 -2 23 -60v-8c0 -55 -4 -61 -23 -61h-219v-170h264c20 0 23 -2 23 -60v-7c0 -55 -5 -62 -23 -62z" />
    <glyph glyph-name="Thorn" unicode="&#xde;" horiz-adv-x="588" 
d="M276 247c42 0 68 9 87 32c16 19 21 47 21 82c0 29 -7 52 -19 68c-18 23 -44 33 -99 33h-26v-214c12 -1 26 -1 36 -1zM283 119c-19 0 -28 0 -43 1v-98c0 -17 -17 -22 -81 -22h-11c-67 0 -79 5 -79 22v675c0 18 12 23 79 23h11c64 0 81 -5 81 -23v-106h9
c118 0 199 -12 254 -68c37 -38 56 -93 56 -162c0 -67 -23 -128 -66 -173c-42 -43 -116 -69 -210 -69z" />
    <glyph glyph-name="Racute" unicode="&#x154;" horiz-adv-x="627" 
d="M128 720h131c117 0 194 -14 246 -68c33 -36 53 -86 53 -148c0 -90 -42 -162 -122 -202l19 -35c50 -92 98 -165 150 -235c15 -20 10 -32 -49 -32h-54c-40 0 -56 1 -72 17c-25 27 -64 94 -119 197l-30 56h-40v-248c0 -17 -18 -22 -82 -22h-10c-68 0 -79 5 -79 22v675
c0 20 7 23 58 23zM241 591v-194h33c36 0 60 5 79 21c20 16 30 44 30 84c0 33 -8 55 -24 69c-18 15 -39 20 -86 20h-32zM376 984h47c53 0 52 -12 39 -29l-125 -157c-8 -11 -19 -14 -52 -14h-37c-38 0 -49 7 -36 27l103 158c8 13 14 15 61 15z" />
    <glyph glyph-name="Rcaron" unicode="&#x158;" horiz-adv-x="627" 
d="M128 720h131c117 0 194 -14 246 -68c33 -36 53 -86 53 -148c0 -90 -42 -162 -122 -202l19 -35c50 -92 98 -165 150 -235c15 -20 10 -32 -49 -32h-54c-40 0 -56 1 -72 17c-25 27 -64 94 -119 197l-30 56h-40v-248c0 -17 -18 -22 -82 -22h-10c-68 0 -79 5 -79 22v675
c0 20 7 23 58 23zM241 591v-194h33c36 0 60 5 79 21c20 16 30 44 30 84c0 33 -8 55 -24 69c-18 15 -39 20 -86 20h-32zM228 966l91 -80l92 80c12 10 22 10 50 -18l10 -10c23 -23 26 -32 17 -41l-91 -95c-18 -18 -27 -21 -72 -21h-12c-45 0 -54 3 -72 21l-90 95
c-9 9 -6 18 17 41l10 10c28 28 38 28 50 18z" />
    <glyph glyph-name="Rcommaaccent" unicode="&#x156;" horiz-adv-x="627" 
d="M128 720h131c117 0 194 -14 246 -68c33 -36 53 -86 53 -148c0 -90 -42 -162 -122 -202l19 -35c50 -92 98 -165 150 -235c15 -20 10 -32 -49 -32h-54c-40 0 -56 1 -72 17c-25 27 -64 94 -119 197l-30 56h-40v-248c0 -17 -18 -22 -82 -22h-10c-68 0 -79 5 -79 22v675
c0 20 7 23 58 23zM241 591v-194h33c36 0 60 5 79 21c20 16 30 44 30 84c0 33 -8 55 -24 69c-18 15 -39 20 -86 20h-32zM274 -320l-6 5c-16 15 -18 21 -13 27c30 37 48 73 48 97c0 32 -35 45 -35 82c0 34 29 60 70 60c44 0 77 -32 77 -85c0 -63 -43 -140 -108 -193
c-8 -7 -14 -9 -33 7z" />
    <glyph glyph-name="Sacute" unicode="&#x15a;" horiz-adv-x="563" 
d="M484 612l-10 -21c-20 -42 -30 -44 -42 -36c-37 25 -77 44 -122 44s-79 -25 -79 -69c0 -41 24 -59 104 -99c99 -49 183 -103 183 -223c0 -129 -87 -218 -252 -218c-90 0 -171 34 -223 70c-13 9 -13 17 7 57l12 24c23 46 34 52 51 40c49 -35 99 -57 146 -57
c60 0 88 29 88 76c0 53 -48 75 -105 105c-100 53 -182 92 -182 211c0 136 111 214 241 214c70 0 134 -19 189 -56c16 -11 14 -20 -6 -62zM343 984h47c53 0 52 -12 39 -29l-125 -157c-8 -11 -19 -14 -52 -14h-37c-38 0 -49 7 -36 27l103 158c8 13 14 15 61 15z" />
    <glyph glyph-name="Scircumflex" unicode="&#x15c;" horiz-adv-x="563" 
d="M484 612l-10 -21c-20 -42 -30 -44 -42 -36c-37 25 -77 44 -122 44s-79 -25 -79 -69c0 -41 24 -59 104 -99c99 -49 183 -103 183 -223c0 -129 -87 -218 -252 -218c-90 0 -171 34 -223 70c-13 9 -13 17 7 57l12 24c23 46 34 52 51 40c49 -35 99 -57 146 -57
c60 0 88 29 88 76c0 53 -48 75 -105 105c-100 53 -182 92 -182 211c0 136 111 214 241 214c70 0 134 -19 189 -56c16 -11 14 -20 -6 -62zM296 870l-89 -77c-12 -10 -22 -10 -50 18l-10 10c-23 23 -26 32 -17 41l88 92c18 18 27 21 72 21h12c45 0 54 -3 72 -21l88 -92
c9 -9 6 -18 -17 -41l-10 -10c-28 -28 -38 -28 -50 -18z" />
    <glyph glyph-name="Scaron" unicode="&#x160;" horiz-adv-x="563" 
d="M484 612l-10 -21c-20 -42 -30 -44 -42 -36c-37 25 -77 44 -122 44s-79 -25 -79 -69c0 -41 24 -59 104 -99c99 -49 183 -103 183 -223c0 -129 -87 -218 -252 -218c-90 0 -171 34 -223 70c-13 9 -13 17 7 57l12 24c23 46 34 52 51 40c49 -35 99 -57 146 -57
c60 0 88 29 88 76c0 53 -48 75 -105 105c-100 53 -182 92 -182 211c0 136 111 214 241 214c70 0 134 -19 189 -56c16 -11 14 -20 -6 -62zM204 968l91 -80l92 80c12 10 22 10 50 -18l10 -10c23 -23 26 -32 17 -41l-91 -95c-18 -18 -27 -21 -72 -21h-12c-45 0 -54 3 -72 21
l-90 95c-9 9 -6 18 17 41l10 10c28 28 38 28 50 18z" />
    <glyph glyph-name="Scedilla" unicode="&#x15e;" horiz-adv-x="563" 
d="M484 612l-10 -21c-20 -42 -30 -44 -42 -36c-37 25 -77 44 -122 44s-79 -25 -79 -69c0 -41 24 -59 104 -99c99 -49 183 -103 183 -223c0 -121 -77 -207 -222 -217l-3 -29c61 1 114 -25 114 -92c0 -59 -41 -113 -134 -113c-34 0 -63 6 -85 14c-11 4 -14 5 -5 37l3 11
c8 30 13 33 25 30c11 -3 33 -7 48 -7c24 0 34 10 34 28c0 20 -20 24 -41 24c-17 0 -39 -2 -59 -7l16 108c-67 10 -125 37 -166 65c-13 9 -13 17 7 57l12 24c23 46 34 52 51 40c49 -35 99 -57 146 -57c60 0 88 29 88 76c0 53 -48 75 -105 105c-100 53 -182 92 -182 211
c0 136 111 214 241 214c70 0 134 -19 189 -56c16 -11 14 -20 -6 -62z" />
    <glyph glyph-name="Scommaaccent" unicode="&#x218;" horiz-adv-x="563" 
d="M484 612l-10 -21c-20 -42 -30 -44 -42 -36c-37 25 -77 44 -122 44s-79 -25 -79 -69c0 -41 24 -59 104 -99c99 -49 183 -103 183 -223c0 -129 -87 -218 -252 -218c-90 0 -171 34 -223 70c-13 9 -13 17 7 57l12 24c23 46 34 52 51 40c49 -35 99 -57 146 -57
c60 0 88 29 88 76c0 53 -48 75 -105 105c-100 53 -182 92 -182 211c0 136 111 214 241 214c70 0 134 -19 189 -56c16 -11 14 -20 -6 -62zM212 -320l-6 5c-16 15 -18 21 -13 27c30 37 48 73 48 97c0 32 -35 45 -35 82c0 34 29 60 70 60c44 0 77 -32 77 -85
c0 -63 -43 -140 -108 -193c-8 -7 -14 -9 -33 7z" />
    <glyph glyph-name="Tcaron" unicode="&#x164;" horiz-adv-x="546" 
d="M187 591h-151c-20 0 -23 5 -23 62v7c0 56 3 60 23 60h474c20 0 23 -4 23 -60v-7c0 -57 -3 -62 -23 -62h-152v-569c0 -17 -17 -22 -81 -22h-11c-67 0 -79 5 -79 22v569zM181 966l91 -80l92 80c12 10 22 10 50 -18l10 -10c23 -23 26 -32 17 -41l-91 -95
c-18 -18 -27 -21 -72 -21h-12c-45 0 -54 3 -72 21l-90 95c-9 9 -6 18 17 41l10 10c28 28 38 28 50 18z" />
    <glyph glyph-name="Tcommaaccent" unicode="&#x162;" horiz-adv-x="546" 
d="M187 591h-151c-20 0 -23 5 -23 62v7c0 56 3 60 23 60h474c20 0 23 -4 23 -60v-7c0 -57 -3 -62 -23 -62h-152v-569c0 -17 -17 -22 -81 -22h-11c-67 0 -79 5 -79 22v569zM204 -320l-6 5c-16 15 -18 21 -13 27c30 37 48 73 48 97c0 32 -35 45 -35 82c0 34 29 60 70 60
c44 0 77 -32 77 -85c0 -63 -43 -140 -108 -193c-8 -7 -14 -9 -33 7z" />
    <glyph glyph-name="uni021A" unicode="&#x21a;" horiz-adv-x="546" 
d="M187 591h-151c-20 0 -23 5 -23 62v7c0 56 3 60 23 60h474c20 0 23 -4 23 -60v-7c0 -57 -3 -62 -23 -62h-152v-569c0 -17 -17 -22 -81 -22h-11c-67 0 -79 5 -79 22v569zM204 -320l-6 5c-16 15 -18 21 -13 27c30 37 48 73 48 97c0 32 -35 45 -35 82c0 34 29 60 70 60
c44 0 77 -32 77 -85c0 -63 -43 -140 -108 -193c-8 -7 -14 -9 -33 7z" />
    <glyph glyph-name="Tbar" unicode="&#x166;" horiz-adv-x="546" 
d="M187 591h-151c-20 0 -23 5 -23 62v7c0 56 3 60 23 60h474c20 0 23 -4 23 -60v-7c0 -57 -3 -62 -23 -62h-152v-216h92c20 0 28 -7 28 -57v-10c0 -50 -8 -57 -28 -57h-92v-229c0 -17 -17 -22 -81 -22h-11c-67 0 -79 5 -79 22v229h-92c-20 0 -28 7 -28 57v10
c0 50 8 57 28 57h92v216z" />
    <glyph glyph-name="Ugrave" unicode="&#xd9;" horiz-adv-x="703" 
d="M145 720h11c67 0 81 -6 81 -23v-424c0 -64 12 -99 33 -120s49 -29 82 -29s61 9 82 29c23 21 35 56 35 120v424c0 17 11 23 79 23h8c63 0 81 -6 81 -23v-417c0 -106 -24 -166 -66 -213c-45 -51 -119 -77 -222 -77c-105 0 -179 26 -223 77c-41 47 -60 103 -60 210v420
c0 17 11 23 79 23zM239 984h47c47 0 53 -2 61 -15l103 -158c13 -20 2 -27 -36 -27h-37c-33 0 -44 3 -52 14l-125 157c-13 17 -8 29 39 29z" />
    <glyph glyph-name="Uacute" unicode="&#xda;" horiz-adv-x="703" 
d="M145 720h11c67 0 81 -6 81 -23v-424c0 -64 12 -99 33 -120s49 -29 82 -29s61 9 82 29c23 21 35 56 35 120v424c0 17 11 23 79 23h8c63 0 81 -6 81 -23v-417c0 -106 -24 -166 -66 -213c-45 -51 -119 -77 -222 -77c-105 0 -179 26 -223 77c-41 47 -60 103 -60 210v420
c0 17 11 23 79 23zM427 984h47c53 0 52 -12 39 -29l-125 -157c-8 -11 -19 -14 -52 -14h-37c-38 0 -49 7 -36 27l103 158c8 13 14 15 61 15z" />
    <glyph glyph-name="Ucircumflex" unicode="&#xdb;" horiz-adv-x="703" 
d="M145 720h11c67 0 81 -6 81 -23v-424c0 -64 12 -99 33 -120s49 -29 82 -29s61 9 82 29c23 21 35 56 35 120v424c0 17 11 23 79 23h8c63 0 81 -6 81 -23v-417c0 -106 -24 -166 -66 -213c-45 -51 -119 -77 -222 -77c-105 0 -179 26 -223 77c-41 47 -60 103 -60 210v420
c0 17 11 23 79 23zM353 870l-89 -77c-12 -10 -22 -10 -50 18l-10 10c-23 23 -26 32 -17 41l88 92c18 18 27 21 72 21h12c45 0 54 -3 72 -21l88 -92c9 -9 6 -18 -17 -41l-10 -10c-28 -28 -38 -28 -50 -18z" />
    <glyph glyph-name="Utilde" unicode="&#x168;" horiz-adv-x="703" 
d="M145 720h11c67 0 81 -6 81 -23v-424c0 -64 12 -99 33 -120s49 -29 82 -29s61 9 82 29c23 21 35 56 35 120v424c0 17 11 23 79 23h8c63 0 81 -6 81 -23v-417c0 -106 -24 -166 -66 -213c-45 -51 -119 -77 -222 -77c-105 0 -179 26 -223 77c-41 47 -60 103 -60 210v420
c0 17 11 23 79 23zM192 835l-4 4c-26 26 -28 31 -20 42c25 35 70 68 121 68c32 0 54 -9 72 -18c17 -8 30 -16 48 -16c17 0 34 13 52 30c10 10 16 10 45 -19l6 -6c23 -24 31 -30 19 -44c-34 -42 -76 -66 -117 -66c-27 0 -52 8 -72 18c-23 12 -35 18 -51 18
c-18 0 -33 -14 -48 -32c-10 -11 -20 -10 -51 21z" />
    <glyph glyph-name="Udieresis" unicode="&#xdc;" horiz-adv-x="703" 
d="M145 720h11c67 0 81 -6 81 -23v-424c0 -64 12 -99 33 -120s49 -29 82 -29s61 9 82 29c23 21 35 56 35 120v424c0 17 11 23 79 23h8c63 0 81 -6 81 -23v-417c0 -106 -24 -166 -66 -213c-45 -51 -119 -77 -222 -77c-105 0 -179 26 -223 77c-41 47 -60 103 -60 210v420
c0 17 11 23 79 23zM161 871c0 46 34 82 86 82c48 0 85 -36 85 -82s-37 -81 -85 -81c-52 0 -86 35 -86 81zM378 871c0 46 34 82 86 82c48 0 85 -36 85 -82s-37 -81 -85 -81c-52 0 -86 35 -86 81z" />
    <glyph glyph-name="Umacron" unicode="&#x16a;" horiz-adv-x="703" 
d="M145 720h11c67 0 81 -6 81 -23v-424c0 -64 12 -99 33 -120s49 -29 82 -29s61 9 82 29c23 21 35 56 35 120v424c0 17 11 23 79 23h8c63 0 81 -6 81 -23v-417c0 -106 -24 -166 -66 -213c-45 -51 -119 -77 -222 -77c-105 0 -179 26 -223 77c-41 47 -60 103 -60 210v420
c0 17 11 23 79 23zM211 927h280c9 0 15 -10 15 -51v-7c0 -40 -6 -51 -15 -51h-280c-11 0 -14 11 -14 51v7c0 41 3 51 14 51z" />
    <glyph glyph-name="Ubreve" unicode="&#x16c;" horiz-adv-x="703" 
d="M145 720h11c67 0 81 -6 81 -23v-424c0 -64 12 -99 33 -120s49 -29 82 -29s61 9 82 29c23 21 35 56 35 120v424c0 17 11 23 79 23h8c63 0 81 -6 81 -23v-417c0 -106 -24 -166 -66 -213c-45 -51 -119 -77 -222 -77c-105 0 -179 26 -223 77c-41 47 -60 103 -60 210v420
c0 17 11 23 79 23zM240 942h14c41 0 50 -7 51 -18c3 -34 20 -49 46 -49s44 15 47 49c1 11 11 18 51 18h14c45 0 54 -2 53 -21c-4 -92 -66 -145 -165 -145s-161 53 -165 145c-1 19 9 21 54 21z" />
    <glyph glyph-name="Uring" unicode="&#x16e;" horiz-adv-x="703" 
d="M145 720h11c67 0 81 -6 81 -23v-424c0 -64 12 -99 33 -120s49 -29 82 -29s61 9 82 29c23 21 35 56 35 120v424c0 17 11 23 79 23h8c63 0 81 -6 81 -23v-417c0 -106 -24 -166 -66 -213c-45 -51 -119 -77 -222 -77c-105 0 -179 26 -223 77c-41 47 -60 103 -60 210v420
c0 17 11 23 79 23zM228 871c0 63 55 117 123 117s123 -52 123 -117s-55 -117 -123 -117s-123 54 -123 117zM318 871c0 -19 14 -33 33 -33s32 14 32 33s-13 33 -32 33s-33 -14 -33 -33z" />
    <glyph glyph-name="Uhungarumlaut" unicode="&#x170;" horiz-adv-x="703" 
d="M145 720h11c67 0 81 -6 81 -23v-424c0 -64 12 -99 33 -120s49 -29 82 -29s61 9 82 29c23 21 35 56 35 120v424c0 17 11 23 79 23h8c63 0 81 -6 81 -23v-417c0 -106 -24 -166 -66 -213c-45 -51 -119 -77 -222 -77c-105 0 -179 26 -223 77c-41 47 -60 103 -60 210v420
c0 17 11 23 79 23zM323 984h42c46 0 53 -9 39 -27l-113 -152c-8 -11 -18 -14 -49 -14h-32c-33 0 -46 7 -35 25l89 153c7 12 17 15 59 15zM523 984h42c46 0 53 -9 39 -27l-113 -152c-8 -11 -18 -14 -49 -14h-32c-33 0 -46 7 -35 25l89 153c7 12 17 15 59 15z" />
    <glyph glyph-name="Uogonek" unicode="&#x172;" horiz-adv-x="703" 
d="M146 719h11c66 0 80 -6 81 -23l-1 -424c0 -64 12 -99 33 -120s49 -29 82 -29s61 9 82 29c23 21 35 56 35 120l-1 424c-1 17 10 23 78 23h8c63 0 81 -6 82 -23l1 -417c0 -105 -24 -165 -66 -213c-33 -37 -95 -68 -134 -108c-21 -21 -34 -43 -34 -67c0 -23 14 -36 36 -36
c9 0 24 3 39 8c10 3 15 0 25 -30l3 -9c10 -29 11 -40 1 -46c-23 -14 -60 -25 -93 -25c-88 0 -135 50 -135 116c0 47 27 90 69 120c-104 1 -178 26 -222 77c-41 47 -60 103 -60 209l1 420c0 17 11 23 79 24z" />
    <glyph glyph-name="Wgrave" unicode="&#x1e80;" horiz-adv-x="989" 
d="M103 720h14c67 0 81 -6 85 -23l64 -295c14 -63 31 -148 43 -228c9 61 29 167 43 228l65 295c4 18 12 23 80 23h9c68 0 78 -7 82 -23l67 -296c13 -56 29 -135 43 -227c11 68 29 171 41 227l61 296c4 18 14 23 83 23h6c74 0 81 -10 77 -26l-182 -672
c-4 -15 -18 -22 -85 -22h-12c-70 0 -86 5 -90 22l-51 207c-18 72 -36 170 -46 265c-12 -92 -34 -200 -49 -265l-49 -207c-4 -15 -15 -22 -83 -22h-20c-70 0 -79 4 -84 22l-191 672c-5 19 5 26 79 26zM406 984h47c47 0 53 -2 61 -15l103 -158c13 -20 2 -27 -36 -27h-37
c-33 0 -44 3 -52 14l-125 157c-13 17 -8 29 39 29z" />
    <glyph glyph-name="Wacute" unicode="&#x1e82;" horiz-adv-x="989" 
d="M103 720h14c67 0 81 -6 85 -23l64 -295c14 -63 31 -148 43 -228c9 61 29 167 43 228l65 295c4 18 12 23 80 23h9c68 0 78 -7 82 -23l67 -296c13 -56 29 -135 43 -227c11 68 29 171 41 227l61 296c4 18 14 23 83 23h6c74 0 81 -10 77 -26l-182 -672
c-4 -15 -18 -22 -85 -22h-12c-70 0 -86 5 -90 22l-51 207c-18 72 -36 170 -46 265c-12 -92 -34 -200 -49 -265l-49 -207c-4 -15 -15 -22 -83 -22h-20c-70 0 -79 4 -84 22l-191 672c-5 19 5 26 79 26zM567 984h47c53 0 52 -12 39 -29l-125 -157c-8 -11 -19 -14 -52 -14h-37
c-38 0 -49 7 -36 27l103 158c8 13 14 15 61 15z" />
    <glyph glyph-name="Wcircumflex" unicode="&#x174;" horiz-adv-x="989" 
d="M103 720h14c67 0 81 -6 85 -23l64 -295c14 -63 31 -148 43 -228c9 61 29 167 43 228l65 295c4 18 12 23 80 23h9c68 0 78 -7 82 -23l67 -296c13 -56 29 -135 43 -227c11 68 29 171 41 227l61 296c4 18 14 23 83 23h6c74 0 81 -10 77 -26l-182 -672
c-4 -15 -18 -22 -85 -22h-12c-70 0 -86 5 -90 22l-51 207c-18 72 -36 170 -46 265c-12 -92 -34 -200 -49 -265l-49 -207c-4 -15 -15 -22 -83 -22h-20c-70 0 -79 4 -84 22l-191 672c-5 19 5 26 79 26zM500 870l-89 -77c-12 -10 -22 -10 -50 18l-10 10c-23 23 -26 32 -17 41
l88 92c18 18 27 21 72 21h12c45 0 54 -3 72 -21l88 -92c9 -9 6 -18 -17 -41l-10 -10c-28 -28 -38 -28 -50 -18z" />
    </font>
</defs>
</svg>
