<?xml version="1.0" standalone="no"?>
<!DOCTYPE svg PUBLIC "-//W3C//DTD SVG 1.1//EN" "http://www.w3.org/Graphics/SVG/1.1/DTD/svg11.dtd" >
<svg xmlns="http://www.w3.org/2000/svg" xmlns:xlink="http://www.w3.org/1999/xlink" version="1.1">
<metadata>
Created by FontForge 20170924 at Tue May 19 12:49:20 2015
 By www-data
Copyright (c) 2011 by Fontsmith Ltd. All rights reserved.
</metadata>
<defs>
<font id="FSMePro-HeavyItalic" horiz-adv-x="576" >
  <font-face 
    font-family="FS Me Pro Heavy"
    font-weight="900"
    font-style="italic"
    font-stretch="normal"
    units-per-em="1000"
    panose-1="2 0 5 3 5 0 0 9 0 4"
    ascent="750"
    descent="-250"
    x-height="528"
    cap-height="720"
    bbox="-147.263 -329.888 1303 1149"
    underline-thickness="120"
    underline-position="-100"
    slope="-8"
    stemh="129"
    stemv="164"
    unicode-range="U+000D-FB04"
  />
<missing-glyph horiz-adv-x="694" 
d="M90 0v720h514v-720h-514zM348 406l174 263h-350zM378 360l175 -262v524zM172 52h350l-174 262zM142 622v-524l174 262z" />
    <glyph glyph-name="fi" unicode="fi" horiz-adv-x="638" 
d="M276 528h99c15 0 19 -2 11 -56l-1 -7c-8 -54 -10 -50 -25 -50h-99l-88 -626c-3 -16 -11 -22 -80 -22h-5c-76 0 -77 6 -74 22l88 626h-61c-14 0 -19 2 -12 53l1 7c8 53 12 53 26 53h61l1 13c11 72 37 125 82 164c48 43 116 65 208 65c68 0 133 -14 189 -42
c12 -6 11 -12 -9 -54l-9 -19c-20 -42 -27 -45 -42 -39c-45 20 -91 29 -133 29c-41 0 -70 -9 -91 -28c-21 -20 -32 -48 -37 -89zM527 528h5c69 0 74 -6 72 -22l-68 -484c-3 -16 -10 -22 -79 -22h-5c-77 0 -78 6 -75 22l68 484c2 16 5 22 82 22z" />
    <glyph glyph-name="fl" unicode="fl" horiz-adv-x="663" 
d="M397 163l43 308c6 47 14 113 19 164c-18 7 -36 10 -61 10c-36 0 -61 -8 -81 -27c-22 -20 -35 -46 -41 -90h99c15 0 19 -2 11 -56l-1 -7c-8 -54 -11 -50 -26 -50h-99l-87 -626c-3 -16 -9 -22 -79 -22h-5c-75 0 -77 6 -74 22l87 626h-61c-15 0 -19 3 -12 50l1 7
c8 54 12 56 27 56h61l1 6c11 82 40 136 87 175c52 42 122 61 208 61c77 0 152 -21 189 -46c18 -12 25 -20 20 -59c-5 -55 -16 -135 -27 -215l-42 -298c-1 -7 -2 -15 -2 -17c0 -13 5 -19 19 -19h14c15 0 15 -6 9 -51l-1 -9c-6 -39 -11 -46 -22 -51c-15 -6 -37 -10 -73 -10
c-41 0 -70 12 -86 31c-16 18 -22 42 -22 70c0 12 2 34 7 67z" />
    <glyph glyph-name="f_f" unicode="ff" horiz-adv-x="711" 
d="M276 528h171l4 23c12 71 38 128 79 166c39 35 91 53 155 53c43 0 88 -8 113 -19c12 -5 9 -18 -5 -55l-6 -16c-17 -42 -21 -47 -34 -43c-20 5 -40 8 -59 8c-29 0 -46 -7 -60 -23c-12 -14 -21 -40 -26 -75l-2 -19h102c15 0 18 -3 11 -53l-1 -7c-7 -50 -11 -53 -26 -53h-102
l-88 -626c-3 -16 -11 -22 -80 -22h-5c-75 0 -76 6 -73 22l88 626h-172l-88 -626c-3 -16 -11 -22 -80 -22h-5c-75 0 -76 6 -73 22l88 626h-58c-17 0 -19 4 -12 54l1 7c7 50 10 52 27 52h57l4 23c12 71 38 128 79 166c39 35 91 53 155 53c43 0 88 -8 113 -19
c12 -5 9 -18 -5 -55l-6 -16c-17 -42 -21 -47 -34 -43c-20 5 -40 8 -59 8c-29 0 -46 -7 -60 -23c-12 -14 -21 -40 -26 -75z" />
    <glyph glyph-name="f_f_i" unicode="ffi" horiz-adv-x="967" 
d="M446 528l1 13c11 72 37 125 82 164c48 43 116 65 208 65c68 0 133 -14 189 -42c12 -6 11 -12 -9 -54l-9 -19c-20 -42 -27 -45 -42 -39c-45 20 -91 29 -133 29c-41 0 -70 -9 -91 -28c-21 -20 -32 -48 -37 -89h99c15 0 19 -2 11 -56l-1 -7c-8 -54 -10 -50 -25 -50h-99
l-88 -626c-3 -16 -11 -22 -80 -22h-5c-76 0 -77 6 -74 22l88 626h-171l-88 -626c-3 -16 -11 -22 -80 -22h-5c-75 0 -76 6 -73 22l88 626h-58c-17 0 -19 4 -12 54l1 7c7 50 10 52 27 52h57l4 23c12 71 38 128 79 166c39 35 91 53 155 53c43 0 88 -8 113 -19
c12 -5 9 -18 -5 -55l-6 -16c-17 -42 -21 -47 -34 -43c-20 5 -40 8 -59 8c-29 0 -46 -7 -60 -23c-12 -14 -21 -40 -26 -75l-2 -19h170zM856 528h5c69 0 74 -6 72 -22l-68 -484c-3 -16 -10 -22 -79 -22h-5c-77 0 -78 6 -75 22l68 484c2 16 5 22 82 22z" />
    <glyph glyph-name="f_j" unicode="fj" horiz-adv-x="637" 
d="M276 528h99c15 0 19 -2 11 -56l-1 -7c-8 -54 -12 -56 -27 -56h-99l-86 -620c-3 -16 -11 -22 -80 -22h-5c-76 0 -77 6 -74 22l86 620h-61c-14 0 -18 4 -10 59l1 7c8 53 12 53 26 53h61l1 13c11 72 37 125 82 164c48 43 116 65 208 65c68 0 133 -14 189 -42
c12 -6 11 -12 -9 -54l-9 -19c-20 -42 -27 -45 -42 -39c-45 20 -91 29 -133 29c-41 0 -70 -9 -91 -28c-21 -20 -32 -48 -37 -89zM522 528h9c69 0 75 -6 73 -22l-71 -500c-25 -176 -101 -239 -209 -239c-35 0 -76 10 -91 19c-14 7 -14 14 2 53l6 16c16 41 20 50 40 45
c12 -4 26 -7 37 -7c16 0 27 6 34 18c9 16 14 35 20 75l73 520c2 16 7 22 77 22z" />
    <glyph glyph-name="f_f_j" unicode="ffj" horiz-adv-x="967" 
d="M447 528l1 13c11 72 37 125 82 164c48 43 116 65 208 65c68 0 133 -14 189 -42c12 -6 11 -12 -9 -54l-9 -19c-20 -42 -27 -45 -42 -39c-45 20 -91 29 -133 29c-41 0 -70 -9 -91 -28c-21 -20 -32 -48 -37 -89h99c15 0 19 -2 11 -56l-1 -7c-8 -54 -11 -50 -26 -50h-99
l-87 -626c-3 -16 -11 -22 -80 -22h-5c-76 0 -77 6 -74 22l88 626h-172l-88 -626c-3 -16 -11 -22 -80 -22h-5c-75 0 -76 6 -73 22l88 626h-58c-17 0 -19 4 -12 54l1 7c7 50 10 52 27 52h57l4 23c12 71 38 128 79 166c39 35 91 53 155 53c43 0 88 -8 113 -19
c12 -5 9 -18 -5 -55l-6 -16c-17 -42 -21 -47 -34 -43c-20 5 -40 8 -59 8c-29 0 -46 -7 -60 -23c-12 -14 -21 -40 -26 -75l-2 -19h171zM852 528h9c69 0 75 -6 73 -22l-71 -500c-25 -176 -101 -239 -209 -239c-35 0 -76 10 -91 19c-14 7 -14 14 2 53l6 16c16 41 20 50 40 45
c12 -4 26 -7 37 -7c16 0 27 6 34 18c9 16 14 35 20 75l73 520c2 16 7 22 77 22z" />
    <glyph glyph-name="f_f_l" unicode="ffl" horiz-adv-x="993" 
d="M432 415h-172l-88 -626c-3 -16 -11 -22 -80 -22h-5c-75 0 -76 6 -73 22l88 626h-58c-17 0 -19 4 -12 54l1 7c7 50 10 52 27 52h57l4 23c12 71 38 128 79 166c39 35 91 53 155 53c43 0 88 -8 113 -19c12 -5 9 -18 -5 -55l-6 -16c-17 -42 -21 -47 -34 -43
c-20 5 -40 8 -59 8c-29 0 -46 -7 -60 -23c-12 -14 -21 -40 -26 -75l-2 -19h172l1 6c11 82 40 136 87 175c52 42 122 61 208 61c77 0 152 -21 189 -46c18 -12 25 -20 20 -59c-5 -55 -16 -135 -27 -215l-42 -298c-1 -7 -2 -15 -2 -17c0 -13 5 -19 19 -19h14c15 0 15 -6 9 -51
l-1 -9c-6 -39 -11 -46 -22 -51c-15 -6 -37 -10 -73 -10c-41 0 -70 12 -86 31c-16 18 -22 42 -22 70c0 12 2 34 7 67l43 308c6 47 14 113 19 164c-18 7 -36 10 -61 10c-36 0 -61 -8 -81 -27c-22 -20 -35 -46 -41 -90h99c15 0 19 -2 11 -56l-1 -7c-8 -54 -11 -50 -26 -50h-99
l-87 -626c-3 -16 -9 -22 -79 -22h-5c-75 0 -77 6 -74 22z" />
    <glyph glyph-name=".notdef" horiz-adv-x="694" 
d="M90 0v720h514v-720h-514zM348 406l174 263h-350zM378 360l175 -262v524zM172 52h350l-174 262zM142 622v-524l174 262z" />
    <glyph glyph-name=".null" horiz-adv-x="0" 
 />
    <glyph glyph-name=".null" horiz-adv-x="0" 
 />
    <glyph glyph-name="CR" unicode="&#xd;" horiz-adv-x="241" 
 />
    <glyph glyph-name="space" unicode=" " horiz-adv-x="241" 
 />
    <glyph glyph-name="nbspace" unicode="&#xa0;" horiz-adv-x="241" 
 />
    <glyph glyph-name="A" unicode="A" horiz-adv-x="654" 
d="M377 720h8c62 0 73 -4 76 -21l143 -671c3 -19 -7 -28 -77 -28h-12c-69 0 -80 7 -83 22l-31 157h-197l-73 -157c-7 -15 -21 -22 -86 -22h-12c-66 0 -74 6 -64 27l327 672c9 17 19 21 81 21zM282 346l-20 -44h117l-6 44c-7 53 -11 110 -16 202c-30 -92 -52 -152 -75 -202z
" />
    <glyph glyph-name="B" unicode="B" horiz-adv-x="612" 
d="M235 308l-25 -181h45c46 0 72 5 93 20c27 19 37 51 37 92c0 22 -7 39 -19 49c-17 14 -40 20 -91 20h-40zM275 592l-22 -161h27c36 0 58 4 79 18c25 17 34 48 34 82c0 22 -5 35 -15 45c-15 14 -39 16 -76 16h-27zM568 571c0 -85 -45 -152 -117 -187
c60 -21 106 -64 106 -149c0 -63 -24 -118 -72 -162c-52 -47 -131 -73 -266 -73h-137c-50 0 -58 3 -55 22l95 675c3 20 11 23 61 23h122c101 0 161 -10 207 -40c35 -23 56 -59 56 -109z" />
    <glyph glyph-name="C" unicode="C" horiz-adv-x="587" 
d="M574 608l-16 -22c-27 -37 -36 -43 -50 -33c-37 27 -67 42 -113 42c-147 0 -198 -181 -198 -305c0 -113 43 -164 129 -164c42 0 88 11 136 36c19 10 25 5 36 -36l7 -23c11 -36 12 -45 -6 -56c-62 -36 -130 -57 -213 -57c-170 0 -262 105 -262 280c0 223 122 460 376 460
c82 0 147 -23 192 -63c14 -12 12 -18 -18 -59z" />
    <glyph glyph-name="D" unicode="D" horiz-adv-x="673" 
d="M274 591l-65 -462h36c68 0 124 17 159 54c49 52 74 140 74 252c0 40 -7 72 -23 98c-26 38 -71 58 -146 58h-35zM182 720h132c136 0 221 -28 276 -92c38 -44 59 -106 59 -187c0 -138 -38 -271 -143 -360c-68 -58 -160 -81 -288 -81h-137c-50 0 -56 3 -54 22l95 675
c3 20 10 23 60 23z" />
    <glyph glyph-name="E" unicode="E" horiz-adv-x="564" 
d="M182 720h365c20 0 22 -2 14 -60l-1 -8c-8 -56 -12 -61 -31 -61h-255l-23 -163h215c19 0 22 -2 14 -60l-1 -8c-8 -55 -13 -61 -31 -61h-215l-24 -170h259c19 0 22 -2 14 -60l-1 -7c-8 -55 -13 -62 -31 -62h-369c-50 0 -56 3 -54 22l95 675c3 20 10 23 60 23z" />
    <glyph glyph-name="F" unicode="F" horiz-adv-x="537" 
d="M274 591l-23 -163h214c19 0 23 -2 15 -60l-1 -8c-8 -55 -13 -61 -32 -61h-214l-39 -278c-2 -16 -21 -21 -82 -21h-11c-66 0 -76 3 -74 21l95 676c3 20 10 23 60 23h366c19 0 21 -3 13 -60l-1 -8c-8 -54 -11 -61 -30 -61h-256z" />
    <glyph glyph-name="G" unicode="G" horiz-adv-x="660" 
d="M341 411h227c32 0 38 -3 35 -23l-46 -322c-1 -11 -5 -21 -23 -29c-57 -26 -143 -47 -229 -47c-189 0 -281 106 -281 285c0 140 46 274 138 361c57 54 146 94 244 94c92 0 156 -22 211 -65c16 -12 15 -19 -17 -65l-15 -20c-33 -45 -41 -44 -57 -31c-35 28 -73 46 -126 46
c-155 0 -206 -165 -206 -307c0 -106 43 -164 135 -164c21 0 45 3 69 9l21 149h-97c-17 0 -19 5 -12 62l1 8c7 57 11 59 28 59z" />
    <glyph glyph-name="H" unicode="H" horiz-adv-x="686" 
d="M201 720h10c63 0 81 -5 78 -23l-38 -269h214l38 269c3 18 15 23 80 23h11c62 0 79 -5 76 -23l-95 -675c-2 -17 -20 -22 -82 -22h-11c-65 0 -76 5 -74 22l39 277h-214l-39 -277c-2 -17 -16 -22 -83 -22h-10c-67 0 -76 5 -74 22l95 675c3 18 12 23 79 23z" />
    <glyph glyph-name="I" unicode="I" horiz-adv-x="421" 
d="M259 113h59c14 0 16 -1 9 -52l-1 -7c-7 -49 -10 -54 -24 -54h-285c-14 0 -15 3 -8 55l1 7c7 48 9 51 23 51h59l70 494h-59c-14 0 -16 8 -8 57l1 6c8 49 9 50 27 50h280c14 0 17 -2 9 -53l-1 -6c-8 -49 -10 -54 -23 -54h-59z" />
    <glyph glyph-name="J" unicode="J" horiz-adv-x="477" 
d="M377 720h11c62 0 78 -6 76 -23l-64 -453c-13 -91 -41 -150 -83 -191c-45 -43 -106 -63 -181 -63c-47 0 -100 12 -136 30c-16 8 -16 16 2 56l9 20c21 47 24 54 46 46c25 -9 55 -18 83 -18c24 0 44 8 59 22c21 21 27 52 34 100l64 451c2 17 14 23 80 23z" />
    <glyph glyph-name="K" unicode="K" horiz-adv-x="621" 
d="M200 720h13c65 0 79 -6 77 -23l-33 -239l12 12c90 87 160 167 212 234c11 13 18 16 78 16h10c73 0 82 -4 70 -24c-41 -68 -120 -164 -250 -284l166 -383c9 -21 0 -29 -64 -29h-28c-72 0 -78 2 -84 18l-117 277l-33 -30l-34 -243c-2 -16 -20 -22 -86 -22h-13
c-67 0 -71 5 -69 22l95 675c3 18 8 23 78 23z" />
    <glyph glyph-name="L" unicode="L" horiz-adv-x="518" 
d="M203 720h11c65 0 79 -6 76 -23l-80 -568h238c20 0 23 -4 15 -60l-1 -7c-8 -57 -12 -62 -32 -62h-349c-49 0 -56 3 -54 22l95 675c3 17 12 23 81 23z" />
    <glyph glyph-name="M" unicode="M" horiz-adv-x="830" 
d="M224 720h12c61 0 73 -4 78 -22l61 -225c17 -62 28 -110 40 -175c32 64 61 122 88 172l121 228c9 17 15 22 84 22h8c67 0 76 -4 74 -23l-67 -672c-2 -20 -6 -25 -78 -25h-11c-68 0 -73 5 -71 22l28 223c9 73 27 156 55 252c-35 -80 -89 -179 -119 -234l-68 -129
c-9 -16 -13 -22 -66 -22h-12c-52 0 -57 6 -62 22l-34 126c-15 58 -33 136 -50 238c-1 -88 -9 -180 -21 -253l-39 -223c-4 -20 -12 -22 -77 -22h-9c-71 0 -72 3 -69 23l124 674c4 20 11 23 80 23z" />
    <glyph glyph-name="N" unicode="N" horiz-adv-x="702" 
d="M191 720h8c58 0 65 -7 73 -20l138 -268c27 -52 45 -99 66 -160c3 69 8 119 17 185l34 240c3 17 14 23 80 23h6c64 0 76 -6 73 -23l-95 -675c-2 -17 -8 -22 -72 -22h-9c-52 0 -61 5 -69 20l-137 268c-35 69 -51 109 -69 166c-3 -77 -7 -132 -15 -191l-34 -241
c-2 -17 -18 -22 -79 -22h-8c-65 0 -74 3 -72 22l95 675c3 20 5 23 69 23z" />
    <glyph glyph-name="O" unicode="O" horiz-adv-x="693" 
d="M387 596c-149 0 -190 -200 -190 -323c0 -105 40 -149 109 -149c149 0 190 200 190 323c0 105 -40 149 -109 149zM405 730c160 0 264 -84 264 -273c0 -229 -117 -467 -385 -467c-157 0 -260 88 -260 275c0 231 118 465 381 465z" />
    <glyph glyph-name="P" unicode="P" horiz-adv-x="582" 
d="M183 720h115c119 0 191 -13 238 -68c24 -29 38 -69 38 -122c0 -88 -24 -157 -86 -214c-47 -43 -120 -68 -222 -68c-12 0 -27 0 -40 1l-32 -227c-2 -17 -19 -22 -82 -22h-11c-65 0 -76 5 -74 22l95 675c3 20 11 23 61 23zM274 591l-30 -213c9 -1 23 -1 33 -1
c38 0 69 9 92 32c24 25 32 57 32 102c0 19 -4 35 -11 47c-15 23 -39 33 -93 33h-23z" />
    <glyph glyph-name="Q" unicode="Q" horiz-adv-x="693" 
d="M405 730c160 0 264 -84 264 -273c0 -153 -52 -309 -166 -397c17 -25 40 -53 65 -80c11 -12 11 -16 -33 -48l-18 -13c-44 -33 -50 -31 -63 -18c-26 28 -53 66 -75 100c-30 -7 -61 -11 -95 -11c-157 0 -260 88 -260 275c0 231 118 465 381 465zM387 596
c-149 0 -190 -200 -190 -323c0 -105 40 -149 109 -149h11c-14 29 -24 61 -31 84c-4 15 0 23 47 44l9 4c42 20 59 21 64 4c6 -21 15 -46 24 -67c49 69 66 176 66 254c0 105 -40 149 -109 149z" />
    <glyph glyph-name="R" unicode="R" horiz-adv-x="614" 
d="M182 720h129c119 0 187 -13 232 -68c23 -28 34 -65 34 -110c0 -98 -48 -189 -151 -240l14 -35c36 -92 73 -165 114 -235c11 -20 5 -32 -53 -32h-53c-39 0 -55 1 -68 17c-21 27 -49 94 -89 197l-22 56h-39l-35 -248c-2 -17 -21 -22 -83 -22h-10c-67 0 -77 5 -75 22l95 675
c3 20 10 23 60 23zM275 591l-27 -194h32c39 0 68 7 87 24c27 24 36 57 36 97c0 26 -5 42 -15 53c-15 15 -36 20 -79 20h-34z" />
    <glyph glyph-name="S" unicode="S" horiz-adv-x="551" 
d="M515 612l-13 -21c-26 -42 -35 -44 -46 -36c-35 28 -68 44 -113 44c-50 0 -88 -30 -88 -75c0 -40 23 -57 89 -93c88 -48 149 -102 149 -194c0 -158 -105 -247 -267 -247c-92 0 -170 33 -219 72c-12 10 -9 16 17 60l10 17c30 50 41 54 55 43c42 -33 91 -58 142 -58
c56 0 93 29 93 80c0 54 -41 73 -89 101c-94 55 -151 98 -151 199c0 127 103 226 262 226c72 0 135 -19 184 -56c13 -11 10 -20 -15 -62z" />
    <glyph glyph-name="T" unicode="T" horiz-adv-x="536" 
d="M222 591h-148c-20 0 -22 5 -14 62l1 7c8 56 11 60 31 60h464c20 0 23 -4 15 -60l-1 -7c-8 -57 -12 -62 -32 -62h-149l-80 -569c-2 -17 -19 -22 -82 -22h-11c-66 0 -76 5 -74 22z" />
    <glyph glyph-name="U" unicode="U" horiz-adv-x="689" 
d="M199 720h11c66 0 78 -6 76 -23l-60 -424c-3 -22 -4 -36 -4 -50c0 -32 6 -55 18 -70c17 -21 43 -29 77 -29c38 0 67 10 88 28c25 22 40 57 49 121l60 424c2 17 13 23 80 23h8c62 0 78 -6 76 -23l-59 -417c-15 -106 -42 -168 -90 -215c-47 -46 -123 -75 -230 -75
c-111 0 -174 26 -210 77c-24 34 -37 74 -37 130c0 22 3 51 7 80l60 420c2 17 13 23 80 23z" />
    <glyph glyph-name="V" unicode="V" horiz-adv-x="648" 
d="M150 720h15c72 0 80 -7 83 -23l46 -311c8 -55 14 -119 17 -208c28 86 51 153 74 208l133 311c8 18 13 23 80 23h16c63 0 73 -8 66 -26l-295 -668c-9 -19 -26 -26 -94 -26h-8c-73 0 -87 7 -90 24l-118 669c-4 19 4 27 75 27z" />
    <glyph glyph-name="W" unicode="W" horiz-adv-x="969" 
d="M157 720h14c65 0 79 -6 80 -23l22 -295c4 -63 9 -139 10 -228c25 87 49 158 74 228l105 295c6 18 14 23 81 23h9c66 0 75 -7 77 -23l25 -296c5 -56 9 -135 10 -227c22 79 49 159 72 227l101 296c7 18 17 23 84 23h6c73 0 78 -10 73 -26l-271 -672c-6 -15 -23 -22 -89 -22
h-12c-68 0 -83 5 -85 22l-21 207c-7 72 -11 170 -7 265c-25 -92 -59 -191 -86 -265l-77 -207c-6 -15 -19 -22 -88 -22h-16c-69 0 -77 4 -79 22l-93 672c-2 19 8 26 81 26z" />
    <glyph glyph-name="X" unicode="X" horiz-adv-x="611" 
d="M147 720h40c55 0 68 -4 74 -17l46 -104c14 -33 24 -59 36 -91c20 32 38 58 57 85l73 110c9 13 13 17 76 17h40c62 0 64 -10 52 -27l-151 -206c-30 -40 -62 -83 -89 -117c17 -32 31 -61 46 -95l109 -249c8 -18 -1 -26 -67 -26h-29c-61 0 -77 4 -83 17l-56 127
c-13 33 -23 62 -34 98c-22 -36 -43 -67 -63 -98l-84 -127c-9 -13 -25 -17 -86 -17h-29c-60 0 -65 11 -53 27l175 238c26 35 52 70 80 104c-18 36 -34 70 -50 106l-95 219c-9 19 0 26 65 26z" />
    <glyph glyph-name="Y" unicode="Y" horiz-adv-x="588" 
d="M137 720h22c61 0 77 -5 82 -21l50 -155c11 -36 20 -68 29 -112c20 44 36 73 59 112l89 156c8 14 17 20 78 20h22c64 0 74 -10 63 -27l-259 -411l-37 -260c-2 -17 -20 -22 -82 -22h-11c-67 0 -76 5 -74 22l37 260l-143 410c-6 18 1 28 75 28z" />
    <glyph glyph-name="Z" unicode="Z" horiz-adv-x="575" 
d="M470 0h-421c-50 0 -56 3 -54 22l7 51c4 24 12 44 34 72l334 446h-250c-19 0 -21 5 -13 62l1 7c8 60 12 60 30 60h388c50 0 57 -1 54 -21l-7 -52c-3 -22 -10 -43 -31 -72l-336 -446h282c18 0 23 0 15 -60l-1 -7c-8 -57 -12 -62 -32 -62z" />
    <glyph glyph-name="a" unicode="a" horiz-adv-x="574" 
d="M337 47c-35 -40 -75 -57 -130 -57c-114 0 -181 76 -181 204c0 219 139 344 268 344c50 0 86 -19 108 -51l7 23c3 11 6 18 65 18h6c57 0 68 -5 66 -21l-40 -269c-10 -69 -19 -159 -23 -212c-1 -20 -3 -26 -72 -26h-4c-67 0 -70 2 -70 38v9zM343 204l23 167
c-11 21 -36 36 -63 36c-63 0 -113 -74 -113 -198c0 -56 19 -92 70 -92c47 0 74 25 83 87z" />
    <glyph glyph-name="b" unicode="b" horiz-adv-x="575" 
d="M194 760h12c64 0 78 -4 75 -22l-33 -236c33 23 72 36 115 36c112 0 178 -75 178 -203c0 -223 -117 -345 -318 -345c-72 0 -156 18 -186 44c-9 7 -12 14 -10 29l95 675c2 16 8 22 72 22zM225 340l-31 -217c13 -4 29 -6 50 -6c75 0 133 59 133 204c0 69 -32 88 -72 88
c-20 0 -40 -5 -51 -12c-16 -10 -24 -21 -29 -57z" />
    <glyph glyph-name="c" unicode="c" horiz-adv-x="492" 
d="M468 433l-12 -18c-29 -43 -36 -44 -48 -35c-19 15 -49 27 -86 27c-32 0 -62 -11 -85 -37c-33 -36 -46 -91 -46 -144c1 -67 32 -105 94 -105c38 0 73 10 99 24c22 12 27 9 38 -37l4 -15c10 -37 10 -48 -3 -56c-52 -32 -107 -47 -174 -47c-73 0 -132 22 -167 60
c-37 40 -56 97 -55 165c0 90 35 187 107 252c49 44 116 71 199 71c64 0 117 -19 154 -50c10 -9 6 -19 -19 -55z" />
    <glyph glyph-name="d" unicode="d" horiz-adv-x="587" 
d="M502 760h5c70 0 75 -6 73 -22l-84 -600c-2 -16 5 -20 22 -20c15 0 14 -5 9 -47l-1 -8c-5 -37 -9 -49 -22 -54c-19 -8 -46 -13 -75 -13c-43 0 -77 20 -85 51c-33 -37 -78 -57 -135 -57c-113 0 -177 74 -182 197c-4 90 26 202 94 275c46 49 106 76 174 76
c38 0 70 -12 94 -34l33 234c2 16 5 22 80 22zM346 200l25 175c-17 21 -39 33 -68 33c-78 0 -113 -105 -113 -196c0 -62 18 -93 74 -93c28 0 50 8 62 20c10 10 15 26 20 61z" />
    <glyph glyph-name="e" unicode="e" horiz-adv-x="556" 
d="M487 211h-296c1 -62 38 -92 99 -92c47 0 90 11 145 34c12 5 21 0 28 -36l5 -24c8 -37 4 -46 -9 -53c-67 -35 -133 -50 -204 -50c-142 0 -229 79 -228 219c0 84 29 175 90 241c51 55 122 88 205 88c133 0 198 -85 199 -208c0 -20 -1 -41 -4 -62c-8 -52 -12 -57 -30 -57z
M204 312h160c1 5 2 15 2 21c0 44 -15 81 -64 81c-45 0 -84 -35 -98 -102z" />
    <glyph glyph-name="f" unicode="f" horiz-adv-x="381" 
d="M362 415h-102l-88 -626c-3 -16 -11 -22 -80 -22h-5c-75 0 -76 6 -73 22l88 626h-58c-17 0 -19 4 -12 54l1 7c7 50 10 52 27 52h57l4 23c12 71 38 128 79 166c39 35 91 53 155 53c43 0 88 -8 113 -19c12 -5 9 -18 -5 -55l-6 -16c-17 -42 -21 -47 -34 -43
c-20 5 -40 8 -59 8c-29 0 -46 -7 -60 -23c-12 -14 -21 -40 -26 -75l-2 -19h102c15 0 18 -3 11 -53l-1 -7c-7 -50 -11 -53 -26 -53z" />
    <glyph glyph-name="g" unicode="g" horiz-adv-x="577" 
d="M478 528h10c45 0 55 -7 55 -26c0 -27 -4 -59 -14 -129l-46 -331c-13 -95 -44 -163 -91 -209c-47 -45 -112 -66 -194 -66c-61 0 -125 17 -161 41c-12 8 -13 16 10 57l9 16c25 43 32 50 46 43c28 -15 72 -29 106 -29c68 0 105 32 118 130l2 11c-34 -26 -70 -38 -117 -38
c-117 0 -185 76 -184 207c0 84 26 181 89 252c47 53 109 81 177 81c52 0 97 -22 121 -55l9 31c4 11 11 14 55 14zM347 211l23 160c-13 23 -33 37 -66 37c-30 0 -54 -13 -74 -41c-24 -34 -39 -94 -39 -147c0 -62 25 -94 76 -94c29 0 50 6 63 22c9 11 12 27 17 63z" />
    <glyph glyph-name="h" unicode="h" horiz-adv-x="584" 
d="M201 760h8c36 0 55 -2 64 -4c11 -2 14 -9 13 -18l-35 -243c32 26 83 43 126 43c110 0 159 -67 159 -160c0 -17 -1 -36 -4 -57l-42 -299c-2 -16 -9 -22 -78 -22h-5c-34 0 -53 1 -64 4c-9 3 -13 5 -11 18l37 262c4 32 7 53 7 68c0 38 -23 53 -58 53c-34 0 -55 -9 -67 -22
c-14 -16 -19 -29 -34 -134l-32 -227c-2 -16 -9 -22 -79 -22h-5c-38 0 -58 1 -67 5c-7 3 -8 9 -7 17l101 716c2 17 10 22 73 22z" />
    <glyph glyph-name="i" unicode="i" horiz-adv-x="290" 
d="M106 665c0 54 49 107 108 107c50 0 83 -37 83 -81c0 -54 -49 -106 -109 -106c-49 0 -82 36 -82 80zM180 528h5c69 0 73 -6 71 -22l-68 -484c-2 -16 -9 -22 -78 -22h-5c-76 0 -77 6 -75 22l68 484c3 16 6 22 82 22z" />
    <glyph glyph-name="j" unicode="j" horiz-adv-x="299" 
d="M182 528h9c69 0 75 -6 73 -22l-71 -500c-24 -176 -111 -239 -229 -239c-39 0 -84 10 -101 19c-14 7 -14 14 2 53l6 16c16 41 20 50 40 45c15 -4 33 -7 50 -7c21 0 39 7 48 20c11 15 17 33 23 73l73 520c2 16 7 22 77 22zM113 665c0 54 49 107 108 107c50 0 83 -37 83 -81
c0 -54 -49 -106 -109 -106c-49 0 -82 36 -82 80z" />
    <glyph glyph-name="k" unicode="k" horiz-adv-x="528" 
d="M196 760h9c68 0 76 -6 74 -22l-55 -386c55 52 106 106 146 160c10 13 21 16 75 16h15c65 0 73 -8 61 -27c-31 -51 -114 -143 -191 -211l150 -257c10 -17 1 -33 -74 -33h-13c-69 0 -81 5 -87 17l-100 202l-28 -197c-2 -16 -10 -22 -80 -22h-8c-70 0 -73 6 -71 22l101 716
c2 16 6 22 76 22z" />
    <glyph glyph-name="l" unicode="l" horiz-adv-x="307" 
d="M188 760h8c67 0 76 -5 76 -22c0 -42 -15 -164 -32 -288l-42 -298c-1 -7 -2 -15 -2 -17c0 -13 5 -19 19 -19h14c15 0 15 -6 9 -51l-1 -9c-6 -39 -11 -46 -22 -51c-15 -6 -37 -10 -73 -10c-41 0 -70 12 -86 31c-16 18 -22 42 -22 70c0 12 2 34 7 67l43 308
c13 92 27 234 30 269c1 15 4 20 74 20z" />
    <glyph glyph-name="m" unicode="m" horiz-adv-x="873" 
d="M158 528h9c53 0 67 -4 67 -19l-1 -29c35 33 88 58 140 58c59 0 105 -22 133 -68c41 40 101 68 159 68c60 0 104 -22 129 -56c20 -28 31 -61 31 -105c0 -17 -1 -35 -4 -56l-42 -299c-2 -16 -7 -22 -76 -22h-10c-76 0 -75 6 -73 22l37 262c5 33 7 55 7 70s-3 23 -8 30
c-10 13 -27 20 -49 20c-20 0 -37 -5 -48 -13c-15 -10 -24 -24 -29 -46c-5 -23 -10 -59 -15 -95l-32 -228c-2 -16 -10 -22 -79 -22h-8c-76 0 -73 6 -71 22l37 262c4 29 6 50 6 65c0 30 -11 55 -54 55c-21 0 -39 -5 -51 -13c-15 -10 -24 -24 -29 -46c-5 -23 -10 -59 -15 -95
l-32 -228c-2 -16 -10 -22 -79 -22h-9c-76 0 -72 6 -70 22l37 268c11 76 20 159 23 212c1 20 5 26 69 26z" />
    <glyph glyph-name="n" unicode="n" horiz-adv-x="586" 
d="M157 528h9c64 0 69 -8 68 -29l-1 -19c36 32 90 58 142 58c63 0 109 -22 133 -56c20 -27 30 -62 30 -102c0 -20 -2 -45 -6 -71l-40 -287c-2 -16 -9 -22 -78 -22h-5c-77 0 -78 6 -76 22l37 262c4 31 7 51 7 66c0 17 -2 26 -7 34c-9 13 -30 20 -51 20c-29 0 -59 -7 -76 -35
c-9 -15 -13 -38 -22 -105l-34 -242c-2 -16 -9 -22 -79 -22h-5c-75 0 -76 6 -74 22l37 268c11 76 20 159 23 212c1 20 5 26 68 26z" />
    <glyph glyph-name="o" unicode="o" horiz-adv-x="567" 
d="M330 538c133 0 211 -72 210 -208c0 -95 -34 -194 -89 -254c-51 -56 -124 -86 -214 -86c-133 0 -211 72 -210 208c0 95 34 194 89 254c51 56 124 86 214 86zM258 120c32 0 57 13 75 37c27 34 43 98 43 159c0 59 -21 92 -67 92c-32 0 -57 -13 -75 -37
c-27 -34 -43 -98 -43 -159c0 -59 21 -92 67 -92z" />
    <glyph glyph-name="p" unicode="p" horiz-adv-x="578" 
d="M168 528h4c53 0 65 -6 64 -20l-1 -24c37 32 86 54 139 54c112 0 178 -79 178 -207c0 -87 -27 -198 -96 -270c-45 -47 -102 -71 -167 -71c-35 0 -73 14 -98 34l-32 -225c-2 -17 -10 -22 -80 -22h-5c-75 0 -76 5 -74 22l69 491c11 76 20 159 23 212c1 20 7 26 76 26z
M235 338l-27 -189c19 -20 43 -30 66 -30c60 0 97 55 111 153c3 21 4 39 4 54c0 53 -26 84 -74 84c-26 0 -47 -8 -60 -20c-11 -10 -16 -22 -20 -52z" />
    <glyph glyph-name="q" unicode="q" horiz-adv-x="575" 
d="M350 538c69 0 137 -19 175 -43c15 -9 17 -16 15 -31l-55 -389c-15 -104 -21 -215 -20 -275c0 -16 -6 -23 -77 -23h-6c-67 0 -75 2 -76 20c-3 31 2 127 15 230c-25 -23 -65 -37 -111 -37c-114 0 -180 74 -183 197c-4 96 29 203 106 273c55 50 129 78 217 78zM373 405
c-16 4 -31 6 -46 6c-98 0 -136 -112 -136 -199c0 -31 7 -52 16 -66c13 -18 31 -28 59 -28c37 0 60 19 69 41c6 16 9 37 12 59z" />
    <glyph glyph-name="r" unicode="r" horiz-adv-x="401" 
d="M155 528h9c57 0 63 -4 64 -17c1 -8 1 -19 1 -30c0 -18 -1 -39 -3 -61c39 76 88 118 146 118c14 0 26 -3 32 -6c12 -6 14 -11 8 -54l-2 -14c-8 -55 -13 -59 -28 -60c-52 -4 -88 -26 -117 -62c-27 -35 -45 -90 -58 -180l-19 -140c-2 -16 -10 -22 -80 -22h-7
c-74 0 -74 6 -72 22l37 268c11 76 20 159 23 212c1 20 3 26 66 26z" />
    <glyph glyph-name="s" unicode="s" horiz-adv-x="477" 
d="M24 102l13 17c30 39 39 46 51 37c32 -24 77 -42 114 -42c47 0 70 16 73 37c4 24 -34 35 -69 46c-66 20 -152 52 -152 150c0 44 18 92 52 124c47 45 114 67 185 67c67 0 123 -19 160 -49c10 -8 9 -17 -17 -55l-12 -18c-25 -35 -36 -38 -46 -31c-30 20 -64 31 -98 31
c-27 0 -41 -4 -50 -10c-12 -8 -18 -17 -18 -30c0 -22 32 -32 71 -44c67 -21 152 -47 152 -146c0 -47 -16 -99 -65 -141c-46 -39 -105 -55 -180 -55c-71 0 -143 25 -180 59c-11 10 -7 21 16 53z" />
    <glyph glyph-name="t" unicode="t" horiz-adv-x="404" 
d="M361 415h-99l-34 -236c-2 -13 -3 -23 -3 -33c0 -21 13 -30 38 -30c19 0 34 3 52 9s24 -2 28 -44l1 -10c5 -45 2 -49 -15 -57c-34 -16 -78 -24 -118 -24c-59 0 -98 16 -120 42c-19 22 -26 52 -26 92c0 21 3 42 7 73l31 218h-58c-14 0 -18 3 -11 53l1 7c7 50 11 53 25 53
h58l17 121c3 17 7 23 77 23h8c69 0 77 -6 74 -23l-17 -121h99c15 0 19 -3 12 -53l-1 -7c-7 -50 -11 -53 -26 -53z" />
    <glyph glyph-name="u" unicode="u" horiz-adv-x="584" 
d="M165 528h8c70 0 80 -6 78 -22l-36 -262c-5 -34 -7 -55 -7 -69c0 -33 21 -52 58 -52c25 0 45 5 59 16c13 10 19 24 25 53c4 20 11 61 15 87l31 227c2 16 6 22 78 22h8c69 0 75 -6 72 -22l-37 -268c-11 -76 -20 -159 -24 -212c-1 -20 -3 -26 -71 -26h-8c-22 0 -36 1 -46 2
c-15 2 -17 9 -18 18l-2 27c-34 -35 -83 -57 -138 -57c-63 0 -109 22 -134 56c-21 27 -30 61 -30 105c0 21 3 51 7 78l39 277c2 16 4 22 73 22z" />
    <glyph glyph-name="v" unicode="v" horiz-adv-x="522" 
d="M111 528h10c64 0 77 -5 80 -20l35 -198c9 -57 13 -115 14 -177c56 122 117 267 153 375c5 14 10 20 70 20h10c61 0 71 -6 66 -23c-46 -133 -139 -345 -231 -485c-12 -17 -22 -20 -78 -20h-23c-59 0 -69 4 -72 17l-109 483c-4 18 1 28 75 28z" />
    <glyph glyph-name="w" unicode="w" horiz-adv-x="775" 
d="M109 528h7c63 0 78 -6 79 -21l18 -194c2 -23 3 -59 3 -88c0 -30 0 -63 -3 -100c16 66 31 119 50 169l80 213c7 18 19 21 82 21h9c61 0 74 -5 75 -21l17 -202c4 -55 7 -108 8 -179c34 107 86 285 110 380c4 17 10 22 77 22h7c59 0 71 -5 66 -24
c-30 -113 -126 -350 -201 -486c-9 -16 -18 -18 -81 -18h-10c-74 0 -75 4 -77 18l-17 151c-7 64 -8 126 -4 213c-20 -87 -40 -147 -67 -213l-63 -152c-5 -11 -15 -17 -83 -17h-10c-63 0 -76 4 -78 18l-66 482c-3 20 -1 28 72 28z" />
    <glyph glyph-name="x" unicode="x" horiz-adv-x="508" 
d="M118 528h15c67 0 76 -5 83 -19l58 -126l84 126c11 16 16 19 78 19h9c75 0 84 -7 70 -25l-185 -230l135 -245c13 -23 -1 -28 -77 -28h-15c-63 0 -74 2 -81 18l-63 140l-95 -139c-10 -15 -21 -19 -83 -19h-10c-72 0 -78 12 -64 30l192 240l-123 228c-12 23 4 30 72 30z" />
    <glyph glyph-name="y" unicode="y" horiz-adv-x="525" 
d="M134 528h13c65 0 72 -5 75 -20l23 -160c8 -57 12 -112 15 -207c29 93 54 161 73 210l62 157c6 16 15 20 75 20h12c73 0 76 -10 68 -28l-231 -486c-79 -168 -151 -247 -289 -247c-45 0 -86 11 -106 25c-12 9 -7 20 7 54l5 14c18 41 28 51 43 45s45 -12 62 -12
c54 0 92 42 118 102l-102 505c-3 18 2 28 77 28z" />
    <glyph glyph-name="z" unicode="z" horiz-adv-x="479" 
d="M394 0h-362c-29 0 -36 5 -34 21l5 35c3 23 8 34 23 53l244 301h-178c-14 0 -20 4 -11 58l1 6c9 53 12 54 26 54h327c43 0 48 -2 46 -18l-6 -38c-3 -21 -7 -33 -24 -53l-241 -301h201c15 0 20 -2 11 -56l-1 -6c-9 -54 -12 -56 -27 -56z" />
    <glyph glyph-name="ampersand" unicode="&#x26;" horiz-adv-x="687" 
d="M525 635l-8 -15c-24 -45 -30 -47 -48 -36c-22 13 -44 21 -77 21c-55 0 -92 -34 -92 -89c0 -27 10 -55 38 -94c25 -34 82 -102 132 -159c19 43 33 87 40 133c3 18 9 25 67 25h10c54 0 63 -5 59 -24c-16 -78 -44 -161 -87 -228c26 -25 47 -42 64 -58c13 -12 4 -32 -29 -67
l-12 -13c-40 -44 -51 -46 -65 -34c-22 18 -44 38 -69 61c-59 -43 -127 -68 -218 -68c-120 0 -217 63 -216 182c0 96 59 183 151 228c-17 32 -27 65 -27 107c0 123 99 223 244 223c58 0 112 -15 154 -42c8 -5 10 -13 -11 -53zM363 147c-52 55 -102 113 -139 160
c-26 -24 -43 -56 -43 -102c0 -51 34 -85 88 -85c36 0 68 10 94 27z" />
    <glyph glyph-name="at" unicode="@" horiz-adv-x="836" 
d="M443 543c33 0 62 -11 76 -36l5 13c5 12 9 16 54 16h17c43 0 53 -8 49 -21c-15 -39 -29 -81 -45 -124l-15 -41c-11 -31 -18 -50 -20 -66c-3 -21 7 -31 25 -31c73 0 110 116 110 199c0 114 -84 168 -208 168c-183 0 -332 -149 -332 -342c0 -124 78 -189 231 -189
c70 0 146 11 203 27c11 3 14 -2 17 -30l2 -18c3 -24 3 -31 -12 -37c-67 -27 -155 -41 -237 -41c-116 0 -201 27 -261 83c-48 45 -75 109 -75 190c0 256 219 467 486 467c201 0 313 -105 313 -260c0 -144 -97 -313 -268 -313c-63 0 -101 24 -113 56c-32 -39 -70 -56 -115 -56
c-76 0 -113 52 -113 122c0 116 95 264 226 264zM453 348l32 87c-7 7 -17 11 -31 11c-57 0 -101 -88 -101 -148c0 -24 9 -40 26 -40c35 0 54 34 74 90z" />
    <glyph glyph-name="exclam" unicode="!" horiz-adv-x="300" 
d="M26 66c0 51 48 101 103 101c45 0 79 -33 79 -77c0 -54 -51 -100 -104 -100c-44 0 -78 33 -78 76zM194 720h16c68 0 77 -6 74 -24l-75 -440c-3 -16 -16 -19 -61 -19h-21c-44 0 -56 5 -55 19l44 440c2 18 11 24 78 24z" />
    <glyph glyph-name="exclamdown" unicode="&#xa1;" horiz-adv-x="300" 
d="M267 462c0 -51 -48 -101 -103 -101c-45 0 -79 33 -79 77c0 54 51 100 104 100c44 0 78 -33 78 -76zM99 -192h-16c-68 0 -77 6 -74 24l75 440c3 16 16 19 61 19h21c44 0 56 -5 55 -19l-44 -440c-2 -18 -11 -24 -78 -24z" />
    <glyph glyph-name="question" unicode="?" horiz-adv-x="452" 
d="M90 603l-6 18c-11 31 -12 43 4 54c41 30 113 55 181 55c116 0 189 -58 189 -155c0 -91 -50 -155 -127 -212c-46 -34 -78 -69 -85 -113c-2 -15 -10 -20 -65 -20h-19c-51 0 -64 3 -62 21l1 6c12 84 67 133 116 173c35 29 75 69 75 120c0 30 -18 51 -56 51
c-33 0 -69 -16 -99 -34c-21 -12 -33 -5 -47 36zM57 66c0 55 49 101 104 101c45 0 78 -32 78 -76c0 -55 -47 -101 -103 -101c-44 0 -79 33 -79 76z" />
    <glyph glyph-name="questiondown" unicode="&#xbf;" horiz-adv-x="452" 
d="M359 -75l6 -18c11 -31 12 -43 -4 -54c-41 -30 -113 -55 -181 -55c-116 0 -189 58 -189 155c0 91 50 155 127 212c46 34 78 69 85 113c2 15 10 20 65 20h19c51 0 64 -3 62 -21l-1 -6c-12 -84 -67 -133 -116 -173c-35 -29 -75 -69 -75 -120c0 -30 18 -51 56 -51
c33 0 69 16 99 34c21 12 33 5 47 -36zM392 462c0 -55 -49 -101 -104 -101c-45 0 -78 32 -78 76c0 55 47 101 103 101c44 0 79 -33 79 -76z" />
    <glyph glyph-name="asterisk" unicode="*" horiz-adv-x="423" 
d="M102 649l81 -37l5 96c1 20 16 22 59 22h13c43 0 58 -2 53 -22l-24 -97l101 39c18 7 24 5 31 -40l2 -13c7 -46 3 -52 -12 -56l-107 -27l58 -79c10 -14 0 -27 -35 -51l-13 -9c-40 -27 -53 -27 -62 -8l-37 82l-59 -82c-15 -20 -28 -19 -62 11l-9 8c-27 24 -35 33 -19 49
l76 79l-93 26c-13 4 -18 7 3 52l6 13c22 47 26 52 44 44z" />
    <glyph glyph-name="period" unicode="." horiz-adv-x="243" 
d="M16 67c0 52 49 101 105 101c45 0 78 -33 78 -77c0 -55 -50 -101 -103 -101c-45 0 -80 33 -80 77z" />
    <glyph glyph-name="comma" unicode="," horiz-adv-x="252" 
d="M-3 -178l-6 6c-19 19 -19 26 -12 34c23 25 75 80 75 125c0 14 -6 26 -18 42c-8 11 -15 24 -15 42c0 53 42 93 97 93c56 0 88 -36 88 -90c0 -57 -33 -122 -76 -174c-25 -31 -56 -61 -92 -88c-12 -9 -20 -11 -41 10z" />
    <glyph glyph-name="colon" unicode=":" horiz-adv-x="243" 
d="M4 67c0 52 49 101 105 101c45 0 78 -33 78 -77c0 -55 -50 -101 -103 -101c-45 0 -80 33 -80 77zM52 412c0 52 49 101 105 101c45 0 78 -33 78 -77c0 -55 -50 -101 -103 -101c-45 0 -80 33 -80 77z" />
    <glyph glyph-name="semicolon" unicode=";" horiz-adv-x="248" 
d="M69 412c0 52 49 101 105 101c45 0 78 -33 78 -77c0 -55 -50 -101 -103 -101c-45 0 -80 33 -80 77zM-2 -174l-6 6c-19 19 -19 26 -12 34c23 25 75 80 75 125c0 14 -6 26 -18 42c-8 11 -15 24 -15 42c0 53 42 93 97 93c56 0 88 -36 88 -90c0 -57 -33 -122 -76 -174
c-25 -31 -56 -61 -92 -88c-12 -9 -20 -11 -41 10z" />
    <glyph glyph-name="ellipsis" unicode="&#x2026;" horiz-adv-x="711" 
d="M16 67c0 52 49 101 105 101c45 0 78 -33 78 -77c0 -55 -50 -101 -103 -101c-45 0 -80 33 -80 77zM250 67c0 52 49 101 105 101c45 0 78 -33 78 -77c0 -55 -50 -101 -103 -101c-45 0 -80 33 -80 77zM484 67c0 52 49 101 105 101c45 0 78 -33 78 -77
c0 -55 -50 -101 -103 -101c-45 0 -80 33 -80 77z" />
    <glyph glyph-name="periodcentered" unicode="&#xb7;" horiz-adv-x="243" 
d="M36 352c0 52 49 101 105 101c45 0 78 -33 78 -77c0 -55 -50 -101 -103 -101c-45 0 -80 33 -80 77z" />
    <glyph glyph-name="uni22C5" unicode="&#x22c5;" horiz-adv-x="243" 
d="M36 352c0 52 49 101 105 101c45 0 78 -33 78 -77c0 -55 -50 -101 -103 -101c-45 0 -80 33 -80 77z" />
    <glyph glyph-name="bullet" unicode="&#x2022;" horiz-adv-x="354" 
d="M204 513c73 0 122 -53 122 -121c0 -83 -66 -167 -163 -167c-74 0 -122 56 -122 125c0 81 71 163 163 163z" />
    <glyph glyph-name="slash" unicode="/" horiz-adv-x="374" 
d="M340 720h13c69 0 73 -7 65 -26l-295 -672c-7 -17 -22 -22 -79 -22h-12c-68 0 -71 8 -63 26l293 672c7 17 22 22 78 22z" />
    <glyph glyph-name="parenleft" unicode="(" horiz-adv-x="354" 
d="M349 752l13 -9c39 -27 36 -37 26 -49c-112 -140 -176 -325 -171 -506c2 -100 22 -180 63 -265c5 -10 3 -20 -40 -46l-18 -11c-44 -27 -55 -24 -63 -13c-66 88 -114 216 -114 359c0 191 87 408 242 554c12 12 23 13 62 -14z" />
    <glyph glyph-name="brokenbar" unicode="&#xa6;" horiz-adv-x="287" 
d="M124 179h11c66 0 68 -8 66 -22l-50 -357c-2 -15 -7 -22 -73 -22h-11c-65 0 -67 5 -65 22l50 357c3 16 7 22 72 22zM206 766h11c66 0 69 -8 67 -22l-50 -356c-2 -15 -7 -23 -73 -23h-11c-65 0 -67 6 -65 23l50 356c2 16 6 22 71 22z" />
    <glyph glyph-name="parenright" unicode=")" horiz-adv-x="354" 
d="M8 -133l-13 9c-39 27 -36 37 -26 49c112 140 171 311 171 500c0 105 -22 186 -63 271c-5 10 -3 20 40 46l18 11c44 27 55 24 63 13c73 -99 114 -219 114 -359c0 -204 -87 -408 -242 -554c-12 -12 -23 -13 -62 14z" />
    <glyph glyph-name="bracketleft" unicode="[" horiz-adv-x="348" 
d="M155 753h231c15 0 15 -5 9 -49l-2 -12c-7 -44 -9 -48 -23 -48h-102l-93 -666h102c16 0 15 -7 8 -51l-2 -12c-7 -42 -8 -47 -22 -47h-231c-13 0 -21 4 -20 14l121 857c1 10 11 14 24 14z" />
    <glyph glyph-name="backslash" unicode="\" horiz-adv-x="372" 
d="M131 720h12c63 0 72 -5 73 -22l106 -672c3 -18 -3 -26 -72 -26h-13c-56 0 -70 5 -72 22l-105 672c-4 19 2 26 71 26z" />
    <glyph glyph-name="bracketright" unicode="]" horiz-adv-x="348" 
d="M198 -132h-231c-15 0 -15 5 -9 49l2 12c7 44 9 48 23 48h102l93 666h-102c-16 0 -15 7 -8 51l2 12c7 42 8 47 22 47h231c13 0 21 -4 20 -14l-121 -857c-1 -10 -11 -14 -24 -14z" />
    <glyph glyph-name="braceleft" unicode="{" horiz-adv-x="331" 
d="M325 753h45c14 0 16 -4 8 -50l-2 -12c-8 -46 -10 -50 -24 -50h-30c-29 0 -39 -17 -44 -54l-20 -143c-9 -65 -33 -106 -84 -135c43 -29 55 -71 46 -135l-20 -141c-5 -36 0 -53 29 -53h30c16 0 17 -5 10 -50l-2 -12c-8 -48 -11 -50 -25 -50h-42c-131 0 -165 61 -149 175
l20 142c6 47 -10 58 -35 63c-21 4 -22 12 -16 51l3 21c6 39 8 45 30 49c26 6 46 16 52 63l21 147c16 113 68 174 199 174z" />
    <glyph glyph-name="bar" unicode="|" horiz-adv-x="287" 
d="M213 817h11c66 0 69 -7 67 -22l-147 -1046c-2 -14 -7 -22 -73 -22h-11c-65 0 -67 6 -65 22l147 1046c3 17 6 22 71 22z" />
    <glyph glyph-name="braceright" unicode="}" horiz-adv-x="331" 
d="M10 -132h-45c-14 0 -15 6 -8 50l2 12c7 44 8 50 22 50h32c29 0 39 17 44 54l20 143c9 65 33 106 84 135c-43 29 -55 71 -46 135l20 141c5 36 0 53 -29 53h-30c-16 0 -17 6 -10 51l2 12c7 43 9 49 23 49h44c131 0 165 -61 149 -175l-20 -142c-6 -47 10 -58 35 -63
c21 -4 22 -12 16 -51l-3 -21c-6 -39 -8 -45 -30 -49c-26 -6 -46 -16 -52 -63l-21 -147c-16 -113 -68 -174 -199 -174z" />
    <glyph glyph-name="hyphen" unicode="-" horiz-adv-x="391" 
d="M60 350h289c14 0 19 -3 13 -58l-1 -9c-6 -53 -13 -59 -30 -59h-289c-16 0 -18 7 -12 59l1 9c6 53 14 58 29 58z" />
    <glyph glyph-name="uni00AD" unicode="&#xad;" horiz-adv-x="391" 
d="M60 350h289c14 0 19 -3 13 -58l-1 -9c-6 -53 -13 -59 -30 -59h-289c-16 0 -18 7 -12 59l1 9c6 53 14 58 29 58z" />
    <glyph glyph-name="endash" unicode="&#x2013;" horiz-adv-x="490" 
d="M462 224h-450c-16 0 -19 4 -12 57l1 6c7 53 12 56 28 56h450c16 0 19 -3 12 -56l-1 -6c-7 -53 -12 -57 -28 -57z" />
    <glyph glyph-name="emdash" unicode="&#x2014;" horiz-adv-x="980" 
d="M952 224h-940c-16 0 -19 4 -12 57l1 6c7 53 12 56 28 56h940c16 0 19 -3 12 -56l-1 -6c-7 -53 -12 -57 -28 -57z" />
    <glyph glyph-name="underscore" unicode="_" horiz-adv-x="498" 
d="M-17 -93h489c17 0 17 -7 10 -56l-1 -6c-7 -50 -9 -57 -26 -57h-488c-18 0 -18 7 -11 57l1 6c7 49 9 56 26 56z" />
    <glyph glyph-name="dagger" unicode="&#x2020;" horiz-adv-x="482" 
d="M296 720h10c66 0 69 -7 67 -22l-27 -196h132c16 0 17 -7 10 -57l-2 -13c-7 -50 -10 -56 -26 -56h-132l-69 -491c-2 -14 -7 -22 -73 -22h-10c-65 0 -67 6 -65 22l69 491h-132c-15 0 -17 7 -10 57l2 13c7 50 11 56 26 56h132l27 196c3 17 6 22 71 22z" />
    <glyph glyph-name="daggerdbl" unicode="&#x2021;" horiz-adv-x="496" 
d="M419 80h-128l-27 -193c-2 -16 -8 -24 -74 -24h-11c-64 0 -66 6 -64 24l27 193h-125c-18 0 -18 6 -11 56l2 13c7 50 9 57 27 57h125l24 170h-123c-20 0 -20 6 -13 56l2 13c7 50 9 57 29 57h123l27 196c3 17 6 22 70 22h11c66 0 70 -7 68 -22l-27 -196h128
c20 0 21 -5 13 -57l-2 -13c-7 -50 -9 -56 -29 -56h-128l-24 -170h128c18 0 20 -7 12 -59l-2 -13c-8 -50 -10 -54 -28 -54z" />
    <glyph glyph-name="section" unicode="&#xa7;" horiz-adv-x="539" 
d="M487 627l-12 -17c-30 -42 -40 -41 -49 -34c-31 21 -61 33 -94 33c-20 0 -33 -3 -44 -9c-9 -5 -20 -15 -20 -33c0 -20 22 -27 82 -46c70 -23 152 -50 151 -142c0 -59 -29 -115 -82 -152c13 -17 22 -41 22 -79c0 -111 -83 -188 -229 -188c-58 0 -126 24 -162 55
c-11 10 -13 20 13 56l11 15c30 41 37 42 49 33c30 -23 63 -38 96 -38c21 0 36 4 46 11c9 6 14 15 16 25c3 24 -22 31 -101 58c-95 32 -133 71 -133 143c0 56 33 105 93 139c-22 22 -32 50 -32 84c0 119 101 189 231 189c68 0 124 -17 167 -51c11 -9 8 -13 -19 -52zM281 300
l34 -10c15 11 24 25 26 40c3 27 -19 38 -77 55l-33 10c-15 -9 -24 -23 -24 -42c0 -28 28 -39 74 -53z" />
    <glyph glyph-name="paragraph" unicode="&#xb6;" horiz-adv-x="648" 
d="M341 720h334c15 0 17 -7 11 -46l-3 -19c-6 -38 -8 -44 -23 -44h-46l-102 -728c-3 -16 -18 -20 -59 -20h-19c-44 0 -58 4 -55 20l102 728h-76l-102 -728c-3 -16 -20 -20 -62 -20h-22c-40 0 -51 4 -49 20l57 408c-101 10 -167 83 -167 185c0 137 114 244 281 244z" />
    <glyph glyph-name="registered" unicode="&#xae;" horiz-adv-x="806" 
d="M369 72c188 0 311 152 311 345c0 142 -83 231 -232 231c-188 0 -310 -154 -310 -345c0 -142 85 -231 231 -231zM334 563h79c86 0 149 -23 150 -105c0 -57 -28 -106 -87 -132l7 -20c17 -43 43 -97 60 -127c9 -15 4 -24 -36 -24h-30c-24 0 -35 -1 -42 11
c-19 32 -36 73 -50 110l-11 29h-6l-18 -132c-2 -14 -14 -16 -53 -16h-11c-42 0 -46 2 -44 16l52 374c2 14 7 16 40 16zM393 481l-14 -97h8c24 0 38 4 48 13c12 11 17 28 17 49c0 11 -3 19 -8 25c-8 8 -19 10 -42 10h-9zM360 -22c-200 0 -326 135 -326 319
c0 242 183 445 422 445c204 0 328 -135 328 -319c0 -247 -188 -445 -424 -445z" />
    <glyph glyph-name="copyright" unicode="&#xa9;" horiz-adv-x="806" 
d="M548 496l-10 -14c-16 -23 -21 -24 -30 -18c-19 14 -35 21 -63 21c-79 0 -104 -91 -104 -166c0 -54 22 -84 66 -84c30 0 58 9 79 21c8 4 13 1 22 -24l3 -9c8 -25 6 -33 -4 -39c-33 -21 -76 -33 -121 -33c-103 0 -156 59 -156 163c0 131 73 255 218 255
c49 0 86 -16 109 -36c8 -7 6 -13 -9 -37zM369 72c188 0 311 152 311 345c0 142 -83 231 -232 231c-188 0 -310 -154 -310 -345c0 -142 85 -231 231 -231zM360 -22c-200 0 -326 135 -326 319c0 242 183 445 422 445c204 0 328 -135 328 -319c0 -247 -188 -445 -424 -445z" />
    <glyph glyph-name="trademark" unicode="&#x2122;" horiz-adv-x="840" 
d="M71 720h294c10 0 11 -3 7 -37l-3 -23c-5 -36 -7 -38 -17 -38h-85l-41 -290c-2 -13 -14 -16 -52 -16h-25c-42 0 -49 3 -47 16l41 290h-85c-12 0 -13 6 -8 42l2 15c5 36 7 41 19 41zM455 720h43c37 0 46 -3 48 -14l25 -115c7 -31 11 -56 17 -97c15 41 27 70 41 97l60 115
c6 10 11 14 51 14h38c43 0 51 -4 50 -16l-39 -373c-1 -13 -5 -15 -51 -15h-24c-42 0 -49 2 -47 14l14 90c7 42 15 84 28 138c-24 -54 -39 -84 -53 -110l-30 -55c-5 -9 -8 -13 -43 -13h-25c-34 0 -37 3 -40 13l-12 43c-9 33 -15 65 -23 122c-3 -59 -7 -97 -14 -139l-15 -89
c-1 -12 -6 -14 -48 -14h-23c-46 0 -50 2 -47 15l67 373c3 14 8 16 52 16z" />
    <glyph glyph-name="quotedblleft" unicode="&#x201c;" horiz-adv-x="507" 
d="M261 720l6 -6c19 -19 19 -26 12 -34c-23 -25 -75 -80 -75 -125c0 -14 6 -26 18 -42c8 -11 15 -24 15 -42c0 -53 -42 -93 -97 -93c-56 0 -88 36 -88 90c0 57 33 122 76 174c25 31 56 61 92 88c12 9 20 11 41 -10zM482 720l6 -6c19 -19 19 -26 12 -34
c-23 -25 -75 -80 -75 -125c0 -14 6 -26 18 -42c8 -11 15 -24 15 -42c0 -53 -42 -93 -97 -93c-56 0 -88 36 -88 90c0 57 33 122 76 174c25 31 56 61 92 88c12 9 20 11 41 -10z" />
    <glyph glyph-name="quotedblright" unicode="&#x201d;" horiz-adv-x="507" 
d="M289 398l-6 6c-19 19 -19 26 -12 34c23 25 75 80 75 125c0 14 -6 26 -18 42c-8 11 -15 24 -15 42c0 53 42 93 97 93c56 0 88 -36 88 -90c0 -57 -33 -122 -76 -174c-25 -31 -56 -61 -92 -88c-12 -9 -20 -11 -41 10zM68 398l-6 6c-19 19 -19 26 -12 34c23 25 75 80 75 125
c0 14 -6 26 -18 42c-8 11 -15 24 -15 42c0 53 42 93 97 93c56 0 88 -36 88 -90c0 -57 -33 -122 -76 -174c-25 -31 -56 -61 -92 -88c-12 -9 -20 -11 -41 10z" />
    <glyph glyph-name="quoteleft" unicode="&#x2018;" horiz-adv-x="286" 
d="M261 720l6 -6c19 -19 19 -26 12 -34c-23 -25 -75 -80 -75 -125c0 -14 6 -26 18 -42c8 -11 15 -24 15 -42c0 -53 -42 -93 -97 -93c-56 0 -88 36 -88 90c0 57 33 122 76 174c25 31 56 61 92 88c12 9 20 11 41 -10z" />
    <glyph glyph-name="quoteright" unicode="&#x2019;" horiz-adv-x="286" 
d="M68 398l-6 6c-19 19 -19 26 -12 34c23 25 75 80 75 125c0 14 -6 26 -18 42c-8 11 -15 24 -15 42c0 53 42 93 97 93c56 0 88 -36 88 -90c0 -57 -33 -122 -76 -174c-25 -31 -56 -61 -92 -88c-12 -9 -20 -11 -41 10z" />
    <glyph glyph-name="guillemotleft" unicode="&#xab;" horiz-adv-x="559" 
d="M510 519l14 -9c36 -23 39 -33 28 -48l-121 -166l76 -156c7 -15 2 -25 -41 -49l-16 -9c-39 -22 -53 -21 -63 -4l-98 183c-7 13 -10 22 -8 37l1 6c2 14 7 24 18 37l150 183c13 16 23 19 60 -5zM268 519l14 -9c32 -21 39 -33 28 -48l-121 -166l76 -156c7 -15 2 -25 -41 -49
l-16 -9c-39 -22 -53 -21 -63 -4l-98 183c-7 13 -10 22 -8 37l1 6c2 14 7 24 18 37l150 183c13 16 21 20 60 -5z" />
    <glyph glyph-name="guillemotright" unicode="&#xbb;" horiz-adv-x="559" 
d="M63 82l-14 9c-36 23 -39 33 -28 48l121 166l-76 156c-7 15 -2 25 41 49l16 9c39 22 54 21 63 4l98 -183c7 -13 10 -22 8 -37l-1 -6c-2 -14 -7 -24 -18 -37l-150 -183c-13 -16 -23 -19 -60 5zM305 82l-14 9c-32 21 -39 33 -28 48l121 166l-76 156c-7 15 -2 25 41 49l16 9
c39 22 54 21 63 4l98 -183c7 -13 10 -22 8 -37l-1 -6c-2 -14 -7 -24 -18 -37l-150 -183c-13 -16 -21 -20 -60 5z" />
    <glyph glyph-name="guilsinglleft" unicode="&#x2039;" horiz-adv-x="331" 
d="M271 519l14 -9c32 -21 39 -33 28 -48l-121 -166l76 -156c7 -15 2 -25 -41 -49l-16 -9c-39 -22 -53 -21 -63 -4l-98 183c-7 13 -10 22 -8 37l1 6c2 14 7 24 18 37l150 183c13 16 21 20 60 -5z" />
    <glyph glyph-name="guilsinglright" unicode="&#x203a;" horiz-adv-x="331" 
d="M107 509l16 9c45 24 54 22 63 6l99 -183c7 -13 9 -23 7 -37l-1 -6c-2 -15 -6 -24 -17 -37l-151 -183c-14 -17 -27 -18 -61 4l-13 9c-35 24 -38 34 -28 49l122 162l-77 160c-6 15 3 26 41 47z" />
    <glyph glyph-name="quotesinglbase" unicode="&#x201a;" horiz-adv-x="286" 
d="M23 -242l-6 6c-19 19 -19 26 -12 34c23 25 75 80 75 125c0 14 -6 26 -18 42c-8 11 -15 24 -15 42c0 53 42 93 97 93c56 0 88 -36 88 -90c0 -57 -33 -122 -76 -174c-25 -31 -56 -61 -92 -88c-12 -9 -20 -11 -41 10z" />
    <glyph glyph-name="quotedblbase" unicode="&#x201e;" horiz-adv-x="507" 
d="M23 -242l-6 6c-19 19 -19 26 -12 34c23 25 75 80 75 125c0 14 -6 26 -18 42c-8 11 -15 24 -15 42c0 53 42 93 97 93c56 0 88 -36 88 -90c0 -57 -33 -122 -76 -174c-25 -31 -56 -61 -92 -88c-12 -9 -20 -11 -41 10zM244 -242l-6 6c-19 19 -19 26 -12 34
c23 25 75 80 75 125c0 14 -6 26 -18 42c-8 11 -15 24 -15 42c0 53 42 93 97 93c56 0 88 -36 88 -90c0 -57 -33 -122 -76 -174c-25 -31 -56 -61 -92 -88c-12 -9 -20 -11 -41 10z" />
    <glyph glyph-name="arrowleft" unicode="&#x2190;" horiz-adv-x="670" 
d="M31 257l1 6c1 6 5 15 26 33l212 183c15 13 19 13 49 -22l5 -6c30 -35 30 -40 16 -52l-95 -79h338c19 0 23 -4 14 -56l-1 -6c-9 -52 -10 -56 -29 -56h-357l73 -83c10 -12 9 -17 -31 -52l-4 -4c-40 -35 -42 -33 -53 -20l-148 180c-17 20 -17 25 -16 34z" />
    <glyph glyph-name="arrowup" unicode="&#x2191;" horiz-adv-x="670" 
d="M285 0c-52 0 -60 2 -58 21l51 362l-93 -85c-12 -11 -16 -10 -42 22l-8 10c-30 37 -29 39 -18 49l208 183c23 20 28 22 37 22h8c9 0 12 -2 29 -22l156 -181c11 -13 13 -19 -29 -52l-5 -4c-40 -32 -44 -31 -51 -23l-73 87l-52 -368c-2 -19 -2 -21 -54 -21h-6z" />
    <glyph glyph-name="arrowright" unicode="&#x2192;" horiz-adv-x="670" 
d="M601 265l-1 -6c-1 -6 -5 -15 -26 -33l-212 -183c-15 -13 -19 -13 -49 22l-5 6c-30 35 -30 40 -16 52l95 79h-338c-19 0 -23 4 -14 56l1 6c9 52 10 56 29 56h357l-73 83c-10 12 -9 17 31 52l4 4c40 35 42 33 53 20l148 -180c17 -20 17 -25 16 -34z" />
    <glyph glyph-name="arrowdown" unicode="&#x2193;" horiz-adv-x="670" 
d="M443 563l-52 -362l94 85c12 11 16 10 42 -22l8 -10c30 -37 29 -39 18 -49l-208 -183c-23 -20 -28 -22 -37 -22h-8c-9 0 -12 2 -29 22l-156 181c-11 13 -13 19 29 52l5 4c40 32 44 31 51 23l72 -88l53 369c2 19 2 21 54 21h6c52 0 60 -2 58 -21z" />
    <glyph glyph-name="uni266A" unicode="&#x266a;" horiz-adv-x="690" 
d="M513 408c-4 -2 -6 -2 -14 10l-4 6c-8 12 -8 13 -4 16c20 14 32 33 32 50c0 44 -48 54 -99 73c-22 7 -43 17 -62 33v-472c0 -85 -52 -134 -146 -134c-74 0 -116 37 -116 80s42 80 112 80c32 0 70 -10 96 -27v588c0 7 2 9 23 9h8c21 0 23 -2 23 -9v-25
c32 -24 69 -37 104 -50c66 -24 124 -43 124 -117c0 -41 -28 -83 -77 -111z" />
    <glyph glyph-name="grave" unicode="`" horiz-adv-x="359" 
d="M136 792h36c46 0 60 -7 66 -20l76 -153c10 -20 -2 -27 -39 -27h-32c-32 0 -47 3 -53 14l-101 157c-10 17 -6 29 47 29z" />
    <glyph glyph-name="acute" unicode="&#xb4;" horiz-adv-x="359" 
d="M267 792h40c50 0 60 -9 41 -29l-145 -157c-10 -11 -23 -14 -57 -14h-32c-37 0 -47 7 -31 27l122 158c10 13 16 15 62 15z" />
    <glyph glyph-name="dieresis" unicode="&#xa8;" horiz-adv-x="360" 
d="M17 666c0 50 42 95 97 95c43 0 72 -29 72 -69c0 -49 -42 -94 -95 -94c-46 0 -74 28 -74 68zM230 666c0 50 42 95 97 95c43 0 72 -29 72 -69c0 -49 -42 -94 -95 -94c-46 0 -74 28 -74 68z" />
    <glyph glyph-name="circumflex" unicode="&#x2c6;" horiz-adv-x="346" 
d="M203 678l-102 -79c-14 -10 -22 -8 -45 20l-8 10c-19 24 -22 32 -12 41l100 92c20 18 29 21 73 21h12c44 0 53 -3 67 -21l74 -92c8 -10 6 -18 -22 -41l-12 -10c-33 -28 -41 -28 -51 -18z" />
    <glyph glyph-name="tilde" unicode="&#x2dc;" horiz-adv-x="357" 
d="M48 635l-5 6c-22 26 -23 31 -13 42c35 42 78 68 118 68c31 0 49 -10 66 -19c16 -9 28 -15 50 -15s42 12 64 32c8 7 14 8 39 -21l5 -6c19 -24 21 -33 12 -44c-31 -39 -73 -66 -117 -66c-34 0 -54 10 -71 19c-16 9 -29 17 -50 17c-16 0 -35 -11 -55 -34
c-8 -9 -19 -8 -43 21z" />
    <glyph glyph-name="macron" unicode="&#xaf;" horiz-adv-x="349" 
d="M73 735h274c11 0 15 -4 8 -51l-1 -7c-7 -48 -11 -51 -22 -51h-274c-11 0 -14 5 -7 54l1 7c6 44 10 48 21 48z" />
    <glyph glyph-name="breve" unicode="&#x2d8;" horiz-adv-x="358" 
d="M110 762h14c40 0 48 -5 47 -18c-2 -31 11 -49 38 -49c28 0 45 15 53 49c3 13 11 18 53 18h14c44 0 53 -2 49 -21c-17 -92 -85 -145 -178 -145c-94 0 -147 46 -147 122c0 7 0 16 1 23c2 19 12 21 56 21z" />
    <glyph glyph-name="dotaccent" unicode="&#x2d9;" horiz-adv-x="357" 
d="M125 681c0 51 42 91 94 91c42 0 71 -31 71 -71c0 -52 -41 -91 -93 -91c-43 0 -72 31 -72 71z" />
    <glyph glyph-name="ring" unicode="&#x2da;" horiz-adv-x="355" 
d="M85 685c0 68 57 133 138 133c62 0 106 -41 106 -102c0 -69 -65 -132 -139 -132c-61 0 -105 45 -105 101zM209 734c-18 0 -35 -13 -35 -39c0 -16 11 -27 28 -27s36 14 36 37c0 17 -10 29 -29 29z" />
    <glyph glyph-name="cedilla" unicode="&#xb8;" horiz-adv-x="353" 
d="M128 23h6c36 0 40 -4 36 -19l-10 -42h6c52 0 94 -23 94 -76c0 -86 -69 -129 -149 -129c-33 0 -60 6 -81 14c-10 4 -12 10 1 39l5 11c13 29 16 31 28 28c10 -3 31 -7 46 -7c20 0 37 6 37 30c0 17 -14 22 -37 22c-17 0 -38 -2 -59 -7l35 122c3 10 4 14 42 14z" />
    <glyph glyph-name="hungarumlaut" unicode="&#x2dd;" horiz-adv-x="359" 
d="M156 791h39c52 0 53 -9 37 -27l-132 -152c-10 -11 -20 -14 -50 -14h-31c-33 0 -43 7 -32 25l110 153c7 12 15 15 59 15zM352 791h38c50 0 54 -9 38 -27l-132 -152c-10 -11 -20 -14 -50 -14h-31c-33 0 -44 7 -32 25l110 153c7 12 18 15 59 15z" />
    <glyph glyph-name="ogonek" unicode="&#x2db;" horiz-adv-x="355" 
d="M214 27h42c19 0 22 -15 7 -24c-42 -25 -108 -63 -108 -121c0 -17 8 -26 26 -26c14 0 28 4 42 10c11 4 16 3 23 -32l2 -9c5 -30 5 -40 -6 -46c-31 -16 -63 -25 -97 -25c-77 0 -115 40 -115 96c0 72 56 142 127 167c15 6 36 10 57 10z" />
    <glyph glyph-name="caron" unicode="&#x2c7;" horiz-adv-x="351" 
d="M127 776l78 -80l101 80c14 10 23 12 47 -18l8 -10c21 -26 21 -32 12 -41l-104 -95c-19 -18 -32 -21 -73 -21h-12c-42 0 -52 3 -67 21l-75 95c-7 9 -7 18 24 43l12 10c31 25 39 26 49 16z" />
    <glyph glyph-name="commaaccent" unicode="&#xf6c3;" horiz-adv-x="366" 
d="M30 -317l-4 5c-13 17 -14 21 -6 29c23 23 56 60 56 96c0 27 -28 34 -28 65c0 40 38 73 81 73c41 0 65 -27 65 -70c0 -45 -26 -96 -59 -137c-20 -24 -44 -47 -72 -68c-15 -10 -22 -7 -33 7z" />
    <glyph glyph-name="grave.sc" horiz-adv-x="359" 
d="M136 834h36c46 0 60 -7 66 -20l76 -153c10 -20 -2 -27 -39 -27h-32c-32 0 -47 3 -53 14l-101 157c-10 17 -6 29 47 29z" />
    <glyph glyph-name="acute.sc" horiz-adv-x="359" 
d="M267 834h40c50 0 60 -9 41 -29l-145 -157c-10 -11 -23 -14 -57 -14h-32c-37 0 -47 7 -31 27l122 158c10 13 16 15 62 15z" />
    <glyph glyph-name="dieresis.sc" horiz-adv-x="360" 
d="M17 708c0 50 42 95 97 95c43 0 72 -29 72 -69c0 -49 -42 -94 -95 -94c-46 0 -74 28 -74 68zM230 708c0 50 42 95 97 95c43 0 72 -29 72 -69c0 -49 -42 -94 -95 -94c-46 0 -74 28 -74 68z" />
    <glyph glyph-name="circumflex.sc" horiz-adv-x="346" 
d="M203 720l-102 -79c-14 -10 -22 -8 -45 20l-8 10c-19 24 -22 32 -12 41l100 92c20 18 29 21 73 21h12c44 0 53 -3 67 -21l74 -92c8 -10 6 -18 -22 -41l-12 -10c-33 -28 -41 -28 -51 -18z" />
    <glyph glyph-name="tilde.sc" horiz-adv-x="357" 
d="M48 677l-5 6c-22 26 -23 31 -13 42c35 42 78 68 118 68c31 0 49 -10 66 -19c16 -9 28 -15 50 -15s42 12 64 32c8 7 14 8 39 -21l5 -6c19 -24 21 -33 12 -44c-31 -39 -73 -66 -117 -66c-34 0 -54 10 -71 19c-16 9 -29 17 -50 17c-16 0 -35 -11 -55 -34
c-8 -9 -19 -8 -43 21z" />
    <glyph glyph-name="macron.sc" horiz-adv-x="349" 
d="M73 777h274c11 0 15 -4 8 -51l-1 -7c-7 -48 -11 -51 -22 -51h-274c-11 0 -14 5 -7 54l1 7c6 44 10 48 21 48z" />
    <glyph glyph-name="breve.sc" horiz-adv-x="358" 
d="M110 804h14c40 0 48 -5 47 -18c-2 -31 11 -49 38 -49c28 0 45 15 53 49c3 13 11 18 53 18h14c44 0 53 -2 49 -21c-17 -92 -85 -145 -178 -145c-94 0 -147 46 -147 122c0 7 0 16 1 23c2 19 12 21 56 21z" />
    <glyph glyph-name="dotaccent.sc" horiz-adv-x="357" 
d="M125 723c0 51 42 91 94 91c42 0 71 -31 71 -71c0 -52 -41 -91 -93 -91c-43 0 -72 31 -72 71z" />
    <glyph glyph-name="ring.sc" horiz-adv-x="355" 
d="M85 727c0 68 57 133 138 133c62 0 106 -41 106 -102c0 -69 -65 -132 -139 -132c-61 0 -105 45 -105 101zM209 776c-18 0 -35 -13 -35 -39c0 -16 11 -27 28 -27s36 14 36 37c0 17 -10 29 -29 29z" />
    <glyph glyph-name="hungarumlaut.sc" horiz-adv-x="359" 
d="M156 833h39c52 0 53 -9 37 -27l-132 -152c-10 -11 -20 -14 -50 -14h-31c-33 0 -43 7 -32 25l110 153c7 12 15 15 59 15zM352 833h38c50 0 54 -9 38 -27l-132 -152c-10 -11 -20 -14 -50 -14h-31c-33 0 -44 7 -32 25l110 153c7 12 18 15 59 15z" />
    <glyph glyph-name="caron.sc" horiz-adv-x="351" 
d="M127 818l78 -80l101 80c14 10 23 12 47 -18l8 -10c21 -26 21 -32 12 -41l-104 -95c-19 -18 -32 -21 -73 -21h-12c-42 0 -52 3 -67 21l-75 95c-7 9 -7 18 24 43l12 10c31 25 39 26 49 16z" />
    <glyph glyph-name="grave.cap" horiz-adv-x="359" 
d="M156 984h36c46 0 60 -7 66 -20l76 -153c10 -20 -2 -27 -39 -27h-32c-32 0 -47 3 -53 14l-101 157c-10 17 -6 29 47 29z" />
    <glyph glyph-name="acute.cap" horiz-adv-x="359" 
d="M317 984h40c50 0 60 -9 41 -29l-145 -157c-10 -11 -23 -14 -57 -14h-32c-37 0 -47 7 -31 27l122 158c10 13 16 15 62 15z" />
    <glyph glyph-name="dieresis.cap" horiz-adv-x="360" 
d="M67 857c0 50 42 95 97 95c43 0 72 -29 72 -69c0 -49 -42 -94 -95 -94c-46 0 -74 28 -74 68zM280 857c0 50 42 95 97 95c43 0 72 -29 72 -69c0 -49 -42 -94 -95 -94c-46 0 -74 28 -74 68z" />
    <glyph glyph-name="circumflex.cap" horiz-adv-x="346" 
d="M253 870l-102 -79c-14 -10 -22 -8 -45 20l-8 10c-19 24 -22 32 -12 41l100 92c20 18 29 21 73 21h12c44 0 53 -3 67 -21l74 -92c8 -10 6 -18 -22 -41l-12 -10c-33 -28 -41 -28 -51 -18z" />
    <glyph glyph-name="tilde.cap" horiz-adv-x="357" 
d="M98 833l-5 6c-22 26 -23 31 -13 42c35 42 78 68 118 68c31 0 49 -10 66 -19c16 -9 28 -15 50 -15s42 12 64 32c8 7 14 8 39 -21l5 -6c19 -24 21 -33 12 -44c-31 -39 -73 -66 -117 -66c-34 0 -54 10 -71 19c-16 9 -29 17 -50 17c-16 0 -35 -11 -55 -34
c-8 -9 -19 -8 -43 21z" />
    <glyph glyph-name="macron.cap" horiz-adv-x="349" 
d="M123 927h274c11 0 15 -4 8 -51l-1 -7c-7 -48 -11 -51 -22 -51h-274c-11 0 -14 5 -7 54l1 7c6 44 10 48 21 48z" />
    <glyph glyph-name="breve.cap" horiz-adv-x="358" 
d="M160 942h14c40 0 48 -5 47 -18c-2 -31 11 -49 38 -49c28 0 45 15 53 49c3 13 11 18 53 18h14c44 0 53 -2 49 -21c-17 -92 -85 -145 -178 -145c-94 0 -147 46 -147 122c0 7 0 16 1 23c2 19 12 21 56 21z" />
    <glyph glyph-name="dotaccent.cap" horiz-adv-x="357" 
d="M175 844c0 51 42 91 94 91c42 0 71 -31 71 -71c0 -52 -41 -91 -93 -91c-43 0 -72 31 -72 71z" />
    <glyph glyph-name="ring.cap" horiz-adv-x="355" 
d="M135 855c0 68 57 133 138 133c62 0 106 -41 106 -102c0 -69 -65 -132 -139 -132c-61 0 -105 45 -105 101zM259 904c-18 0 -35 -13 -35 -39c0 -16 11 -27 28 -27s36 14 36 37c0 17 -10 29 -29 29z" />
    <glyph glyph-name="hungarumlaut.cap" horiz-adv-x="359" 
d="M206 984h39c52 0 53 -9 37 -27l-132 -152c-10 -11 -20 -14 -50 -14h-31c-33 0 -43 7 -32 25l110 153c7 12 15 15 59 15zM402 984h38c50 0 54 -9 38 -27l-132 -152c-10 -11 -20 -14 -50 -14h-31c-33 0 -44 7 -32 25l110 153c7 12 18 15 59 15z" />
    <glyph glyph-name="caron.cap" horiz-adv-x="351" 
d="M177 966l78 -80l101 80c14 10 23 12 47 -18l8 -10c21 -26 21 -32 12 -41l-104 -95c-19 -18 -32 -21 -73 -21h-12c-42 0 -52 3 -67 21l-75 95c-7 9 -7 18 24 43l12 10c31 25 39 26 49 16z" />
    <glyph glyph-name="periodcentered.cap" horiz-adv-x="247" 
d="M36 352c0 52 49 101 105 101c45 0 78 -33 78 -77c0 -55 -50 -101 -103 -101c-45 0 -80 33 -80 77z" />
    <glyph glyph-name="bullet.cap" horiz-adv-x="362" 
d="M204 513c73 0 122 -53 122 -121c0 -83 -66 -167 -163 -167c-74 0 -122 56 -122 125c0 81 71 163 163 163z" />
    <glyph glyph-name="parenleft.cap" horiz-adv-x="354" 
d="M363 830l14 -10c40 -29 38 -39 27 -52c-120 -146 -188 -343 -183 -535c2 -105 23 -193 69 -281c6 -11 3 -21 -42 -49l-19 -12c-46 -29 -59 -25 -67 -13c-66 96 -118 229 -118 380c0 202 95 425 254 586c12 13 25 15 65 -14z" />
    <glyph glyph-name="parenright.cap" horiz-adv-x="354" 
d="M-21 -109l-14 10c-40 29 -38 39 -27 52c120 146 188 343 183 535c-2 105 -24 192 -69 281c-6 11 -3 21 42 49l19 12c46 29 59 25 67 13c67 -95 118 -229 118 -380c0 -202 -95 -425 -254 -586c-12 -13 -25 -15 -65 14z" />
    <glyph glyph-name="bracketleft.cap" horiz-adv-x="355" 
d="M165 851h231c15 0 16 -5 9 -49l-2 -12c-7 -44 -9 -48 -23 -48h-102l-107 -764h102c16 0 15 -7 8 -51l-2 -12c-7 -42 -8 -47 -22 -47h-231c-13 0 -21 4 -20 14l135 955c1 10 11 14 24 14z" />
    <glyph glyph-name="bracketright.cap" horiz-adv-x="355" 
d="M198 -132h-231c-15 0 -16 5 -9 49l2 12c7 44 9 48 23 48h102l107 764h-102c-16 0 -15 7 -8 51l2 12c7 42 8 47 22 47h231c13 0 21 -4 20 -14l-135 -955c-1 -10 -11 -14 -24 -14z" />
    <glyph glyph-name="braceleft.cap" horiz-adv-x="337" 
d="M335 851h45c14 0 16 -4 8 -50l-2 -12c-8 -46 -10 -50 -24 -50h-30c-29 0 -39 -17 -44 -54l-27 -192c-9 -65 -33 -106 -84 -135c43 -29 55 -71 46 -135l-27 -190c-5 -36 0 -53 29 -53h30c16 0 17 -5 10 -50l-2 -12c-8 -48 -11 -50 -25 -50h-42c-131 0 -165 61 -149 175
l27 191c6 47 -10 58 -35 63c-21 4 -22 12 -16 51l3 21c6 39 8 45 30 49c26 6 46 16 52 63l28 196c16 113 68 174 199 174z" />
    <glyph glyph-name="braceright.cap" horiz-adv-x="337" 
d="M10 -132h-45c-14 0 -16 4 -8 50l2 12c8 46 10 50 24 50h30c29 0 39 17 44 54l27 192c9 65 33 106 84 135c-43 29 -55 71 -46 135l27 190c5 36 0 53 -29 53h-30c-16 0 -17 5 -10 50l2 12c8 48 11 50 25 50h42c131 0 165 -61 149 -175l-27 -191c-6 -47 10 -58 35 -63
c21 -4 22 -12 16 -51l-3 -21c-6 -39 -8 -45 -30 -49c-26 -6 -45 -16 -52 -63l-28 -196c-16 -113 -68 -174 -199 -174z" />
    <glyph glyph-name="questiondown.cap" horiz-adv-x="452" 
d="M381 116l6 -18c11 -31 12 -43 -4 -54c-41 -30 -113 -55 -181 -55c-116 0 -189 58 -189 155c0 91 50 155 127 212c46 34 78 69 85 113c2 15 10 20 65 20h19c51 0 64 -3 62 -21l-1 -6c-12 -84 -67 -133 -116 -173c-35 -29 -75 -69 -75 -120c0 -30 18 -51 56 -51
c33 0 69 16 99 34c21 12 33 5 47 -36zM414 653c0 -55 -49 -101 -104 -101c-45 0 -78 32 -78 76c0 55 47 101 103 101c44 0 79 -33 79 -76z" />
    <glyph glyph-name="exclamdown.cap" horiz-adv-x="300" 
d="M289 653c0 -51 -48 -101 -103 -101c-45 0 -79 33 -79 77c0 54 51 100 104 100c44 0 78 -33 78 -76zM121 -1h-16c-68 0 -77 6 -74 24l75 440c3 16 16 19 61 19h21c44 0 56 -5 55 -19l-44 -440c-2 -18 -11 -24 -78 -24z" />
    <glyph glyph-name="guillemotleft.cap" horiz-adv-x="559" 
d="M510 577l14 -9c36 -23 39 -33 28 -48l-121 -166l76 -156c7 -15 2 -25 -41 -49l-16 -9c-39 -22 -53 -21 -63 -4l-98 183c-7 13 -10 22 -8 37l1 6c2 14 7 24 18 37l150 183c13 16 23 19 60 -5zM268 577l14 -9c32 -21 39 -33 28 -48l-121 -166l76 -156c7 -15 2 -25 -41 -49
l-16 -9c-39 -22 -53 -21 -63 -4l-98 183c-7 13 -10 22 -8 37l1 6c2 14 7 24 18 37l150 183c13 16 21 20 60 -5z" />
    <glyph glyph-name="guillemotright.cap" horiz-adv-x="559" 
d="M63 140l-14 9c-36 23 -39 33 -28 48l121 166l-76 156c-7 15 -2 25 41 49l16 9c39 22 54 21 63 4l98 -183c7 -13 10 -22 8 -37l-1 -6c-2 -14 -7 -24 -18 -37l-150 -183c-13 -16 -23 -19 -60 5zM305 140l-14 9c-32 21 -39 33 -28 48l121 166l-76 156c-7 15 -2 25 41 49
l16 9c39 22 54 21 63 4l98 -183c7 -13 10 -22 8 -37l-1 -6c-2 -14 -7 -24 -18 -37l-150 -183c-13 -16 -21 -20 -60 5z" />
    <glyph glyph-name="guilsinglleft.cap" horiz-adv-x="331" 
d="M271 577l14 -9c32 -21 39 -33 28 -48l-121 -166l76 -156c7 -15 2 -25 -41 -49l-16 -9c-39 -22 -53 -21 -63 -4l-98 183c-7 13 -10 22 -8 37l1 6c2 14 7 24 18 37l150 183c13 16 21 20 60 -5z" />
    <glyph glyph-name="guilsinglright.cap" horiz-adv-x="331" 
d="M107 567l16 9c45 24 54 22 63 6l99 -183c7 -13 9 -23 7 -37l-1 -6c-2 -15 -6 -24 -17 -37l-151 -183c-14 -17 -27 -18 -61 4l-13 9c-35 24 -38 34 -28 49l122 162l-77 160c-6 15 3 26 41 47z" />
    <glyph glyph-name="hyphen.cap" horiz-adv-x="391" 
d="M64 424h289c14 0 19 -3 13 -58l-1 -9c-6 -53 -13 -59 -30 -59h-289c-16 0 -18 7 -12 59l1 9c6 53 14 58 29 58z" />
    <glyph glyph-name="uni00AD.cap" horiz-adv-x="391" 
d="M64 424h289c14 0 19 -3 13 -58l-1 -9c-6 -53 -13 -59 -30 -59h-289c-16 0 -18 7 -12 59l1 9c6 53 14 58 29 58z" />
    <glyph glyph-name="endash.cap" horiz-adv-x="490" 
d="M466 305h-450c-16 0 -19 4 -12 57l1 6c7 53 12 56 28 56h450c16 0 19 -3 12 -56l-1 -6c-7 -53 -12 -57 -28 -57z" />
    <glyph glyph-name="emdash.cap" horiz-adv-x="980" 
d="M956 305h-940c-16 0 -19 4 -12 57l1 6c7 53 12 56 28 56h940c16 0 19 -3 12 -56l-1 -6c-7 -53 -12 -57 -28 -57z" />
    <glyph glyph-name="afii00208.cap" horiz-adv-x="980" 
d="M956 305h-940c-16 0 -19 4 -12 57l1 6c7 53 12 56 28 56h940c16 0 19 -3 12 -56l-1 -6c-7 -53 -12 -57 -28 -57z" />
    <glyph glyph-name="A.sc" horiz-adv-x="589" 
d="M337 582h6c59 0 71 -5 75 -22l123 -526c5 -22 -5 -34 -75 -34h-13c-69 0 -79 8 -81 24l-16 105h-166l-49 -106c-8 -15 -21 -23 -83 -23h-10c-64 0 -73 9 -61 33l269 526c11 20 23 23 81 23zM242 243h97c-6 71 -15 139 -19 211c-18 -69 -42 -127 -78 -211z" />
    <glyph glyph-name="B.sc" horiz-adv-x="560" 
d="M227 245l-18 -132h31c75 0 98 36 98 79c0 37 -25 53 -79 53h-32zM259 468l-15 -117h25c53 0 72 32 72 65c0 40 -24 52 -54 52h-28zM513 448c0 -53 -27 -102 -92 -137c49 -21 85 -56 85 -122c0 -83 -56 -189 -311 -189h-106c-52 0 -61 4 -58 25l75 529c3 24 12 28 65 28
h104c167 0 238 -46 238 -134z" />
    <glyph glyph-name="C.sc" horiz-adv-x="531" 
d="M512 476l-14 -18c-27 -35 -36 -45 -50 -31c-26 25 -51 41 -90 41c-108 0 -157 -104 -157 -251c0 -61 37 -102 94 -102c38 0 73 8 119 34c21 12 24 4 36 -37l5 -17c10 -34 11 -42 -4 -52c-59 -38 -113 -53 -188 -53c-138 0 -232 98 -232 238c0 189 107 364 331 364
c76 0 136 -28 171 -62c12 -11 11 -13 -21 -54z" />
    <glyph glyph-name="D.sc" horiz-adv-x="609" 
d="M257 463l-50 -344h21c136 0 182 100 182 215c0 108 -59 129 -128 129h-25zM169 582h106c185 0 303 -85 303 -241c0 -97 -27 -202 -123 -273c-58 -43 -134 -68 -261 -68h-106c-52 0 -60 4 -57 25l75 529c3 24 11 28 63 28z" />
    <glyph glyph-name="E.sc" horiz-adv-x="509" 
d="M399 234h-174l-18 -115h212c22 0 25 -2 16 -57l-1 -6c-9 -53 -10 -56 -31 -56h-316c-52 0 -59 4 -56 25l76 529c3 24 10 28 62 28h312c22 0 25 -2 16 -57l-1 -6c-9 -53 -10 -56 -31 -56h-208l-17 -110h175c22 0 25 -2 16 -57l-1 -6c-9 -53 -10 -56 -31 -56z" />
    <glyph glyph-name="F.sc" horiz-adv-x="492" 
d="M399 234h-174l-30 -208c-3 -20 -22 -26 -81 -26h-10c-65 0 -74 4 -73 26l76 528c3 24 10 28 62 28h312c22 0 25 -2 16 -57l-1 -6c-9 -53 -10 -56 -31 -56h-207l-17 -110h174c22 0 25 -2 16 -57l-1 -6c-9 -53 -10 -56 -31 -56z" />
    <glyph glyph-name="G.sc" horiz-adv-x="595" 
d="M311 340h206c23 0 28 -4 25 -28l-37 -252c-2 -36 -128 -70 -224 -70c-151 0 -250 82 -250 238c0 188 105 364 332 364c79 0 136 -19 184 -54c18 -13 18 -19 -15 -62l-14 -18c-34 -43 -39 -44 -62 -27c-25 18 -59 37 -101 37c-111 0 -157 -112 -157 -242
c0 -70 34 -113 101 -113c15 0 34 1 50 6l15 102h-69c-22 0 -25 2 -16 57l1 6c9 53 10 56 31 56z" />
    <glyph glyph-name="H.sc" horiz-adv-x="618" 
d="M183 582h8c63 0 81 -7 78 -28l-30 -201h157l30 201c3 21 15 28 79 28h10c61 0 77 -7 74 -28l-75 -528c-3 -19 -19 -26 -81 -26h-9c-64 0 -76 7 -73 26l30 208h-157l-30 -208c-3 -19 -13 -26 -83 -26h-8c-67 0 -75 6 -72 26l75 528c3 21 10 28 77 28z" />
    <glyph glyph-name="I.sc" horiz-adv-x="405" 
d="M146 479h-48c-17 0 -16 15 -12 42l2 12c7 42 8 49 24 49h258c17 0 16 -15 12 -42l-2 -12c-7 -43 -8 -49 -24 -49h-47l-55 -376h48c17 0 16 -15 12 -42l-2 -12c-7 -42 -8 -49 -24 -49h-258c-17 0 -16 15 -12 42l2 12c7 43 8 49 24 49h47z" />
    <glyph glyph-name="J.sc" horiz-adv-x="441" 
d="M334 582h9c62 0 79 -7 76 -28l-51 -353c-21 -146 -107 -211 -236 -211c-39 0 -84 10 -120 29c-16 9 -18 12 1 50l9 18c27 55 31 56 47 47c19 -10 37 -19 62 -19c43 0 63 31 77 124l46 315c3 20 14 28 80 28z" />
    <glyph glyph-name="K.sc" horiz-adv-x="557" 
d="M223 216l-27 -190c-3 -20 -20 -26 -88 -26h-13c-67 0 -67 6 -64 26l75 528c3 23 4 28 76 28h13c66 0 79 -8 76 -28l-23 -158l21 19c67 62 113 110 147 151c11 13 17 16 76 16h10c71 0 81 -4 66 -28c-25 -40 -94 -118 -219 -230l157 -288c13 -24 4 -36 -43 -36h-45
c-64 0 -74 2 -83 19l-104 203z" />
    <glyph glyph-name="L.sc" horiz-adv-x="469" 
d="M389 0h-302c-51 0 -59 4 -56 26l75 528c3 21 10 28 81 28h9c66 0 78 -7 75 -28l-63 -435h197c22 0 25 -2 16 -57l-1 -6c-9 -53 -10 -56 -31 -56z" />
    <glyph glyph-name="M.sc" horiz-adv-x="742" 
d="M195 582h18c58 0 71 -5 77 -24l43 -139c25 -80 30 -113 39 -157c23 46 39 81 83 157l81 139c11 20 18 24 84 24h10c66 0 74 -5 72 -26l-54 -524c-2 -25 -4 -32 -76 -32h-9c-69 0 -73 6 -70 26l24 152c9 62 25 135 53 230c-34 -81 -47 -108 -98 -200l-57 -97
c-9 -16 -17 -24 -65 -24h-11c-45 0 -52 6 -58 23l-27 88c-6 22 -27 98 -42 204c-2 -105 -8 -157 -16 -212l-25 -163c-4 -24 -11 -27 -76 -27h-6c-70 0 -68 3 -64 27l93 528c4 23 10 27 77 27z" />
    <glyph glyph-name="N.sc" horiz-adv-x="634" 
d="M176 582h9c53 0 60 -8 68 -21l98 -180c34 -61 47 -90 63 -126c1 45 4 94 10 134l23 165c3 21 14 28 81 28h5c65 0 75 -7 72 -28l-75 -528c-3 -19 -7 -26 -73 -26h-10c-49 0 -56 6 -64 20l-90 173c-49 93 -61 115 -74 142c0 -47 -2 -95 -9 -147l-22 -162
c-3 -19 -18 -26 -79 -26h-8c-65 0 -73 4 -70 25l75 529c3 24 5 28 70 28z" />
    <glyph glyph-name="O.sc" horiz-adv-x="623" 
d="M347 468c-137 0 -147 -211 -147 -252c0 -71 30 -104 82 -104c135 0 145 209 145 252c0 71 -27 104 -80 104zM358 591c131 0 237 -68 237 -234c0 -149 -87 -368 -326 -368c-133 0 -238 74 -238 242c0 154 89 360 327 360z" />
    <glyph glyph-name="P.sc" horiz-adv-x="531" 
d="M171 582h101c153 0 241 -55 241 -176c0 -69 -29 -129 -84 -166c-48 -33 -118 -47 -192 -47h-18l-24 -167c-4 -20 -18 -26 -81 -26h-9c-64 0 -78 6 -74 25l75 529c3 24 12 28 65 28zM258 467l-24 -159h13c29 0 57 6 73 24c16 17 22 42 22 63c0 60 -26 72 -78 72h-6z" />
    <glyph glyph-name="Q.sc" horiz-adv-x="623" 
d="M358 591c131 0 237 -68 237 -234c0 -101 -40 -232 -139 -306c18 -26 36 -50 53 -67c11 -11 9 -15 -27 -41l-16 -11c-41 -28 -44 -31 -59 -15c-21 23 -42 52 -63 83c-23 -5 -48 -8 -75 -8c-133 0 -238 71 -238 239c0 154 89 360 327 360zM347 468
c-137 0 -147 -211 -147 -252c0 -71 29 -101 80 -101c-8 18 -15 35 -19 50c-7 21 -1 27 34 40l22 8c35 13 44 12 50 -1c4 -10 9 -22 16 -36c39 65 44 160 44 188c0 71 -27 104 -80 104z" />
    <glyph glyph-name="R.sc" horiz-adv-x="553" 
d="M169 582h113c159 0 233 -60 233 -158c0 -60 -21 -135 -128 -179c35 -75 70 -138 114 -206c15 -24 6 -39 -55 -39h-44c-38 0 -55 0 -66 16c-27 38 -61 114 -98 195h-15l-27 -185c-3 -20 -21 -26 -83 -26h-8c-67 0 -77 6 -74 25l75 529c3 24 10 28 63 28zM259 467l-21 -144
h24c55 0 79 34 79 86c0 37 -22 58 -59 58h-23z" />
    <glyph glyph-name="S.sc" horiz-adv-x="502" 
d="M452 479l-13 -22c-22 -37 -32 -39 -43 -31c-25 20 -58 44 -95 44c-40 0 -60 -23 -60 -43c0 -39 36 -51 77 -74c94 -52 125 -104 125 -172c0 -114 -105 -191 -222 -191c-89 0 -157 37 -194 64c-16 12 -18 18 -1 45l34 52c17 27 22 28 35 18c34 -27 77 -56 123 -56
c40 0 59 25 59 53c0 25 -17 40 -77 76c-56 34 -128 75 -128 173c0 94 78 176 222 176c61 0 127 -20 174 -52c11 -8 11 -14 -16 -60z" />
    <glyph glyph-name="T.sc" horiz-adv-x="488" 
d="M192 463h-117c-22 0 -25 2 -16 57l1 6c9 53 10 56 31 56h400c22 0 25 -2 16 -57l-1 -6c-9 -53 -10 -56 -31 -56h-120l-62 -437c-3 -19 -18 -26 -81 -26h-9c-66 0 -76 7 -73 26z" />
    <glyph glyph-name="U.sc" horiz-adv-x="617" 
d="M182 582h10c66 0 77 -8 74 -28l-43 -302c-14 -101 3 -139 70 -139c55 0 84 31 95 108l47 333c3 20 12 28 80 28h6c62 0 78 -8 75 -28l-46 -322c-22 -159 -99 -242 -268 -242c-156 0 -253 74 -227 252l47 312c3 20 13 28 80 28z" />
    <glyph glyph-name="V.sc" horiz-adv-x="585" 
d="M145 582h13c70 0 78 -8 81 -25l37 -225c10 -58 12 -89 15 -145c17 56 25 78 54 145l99 224c9 20 12 26 77 26h22c59 0 67 -11 57 -31l-243 -524c-9 -19 -24 -27 -90 -27h-9c-66 0 -81 10 -84 26l-105 522c-5 24 3 34 76 34z" />
    <glyph glyph-name="W.sc" horiz-adv-x="873" 
d="M142 582h16c62 0 77 -7 78 -26l12 -223c3 -48 6 -84 9 -172c29 78 42 109 64 171l82 224c6 19 11 26 77 26h8c63 0 70 -8 72 -25l21 -224c6 -65 11 -101 14 -166c25 68 37 105 57 167l73 222c7 19 18 26 83 26h3c73 0 79 -14 71 -32l-224 -527c-7 -15 -25 -23 -89 -23
h-10c-65 0 -79 6 -81 24l-15 145c-5 51 -9 111 -11 201c-24 -86 -50 -162 -69 -207l-58 -140c-6 -15 -18 -23 -87 -23h-10c-67 0 -75 5 -78 23l-87 528c-3 22 7 31 79 31z" />
    <glyph glyph-name="X.sc" horiz-adv-x="560" 
d="M141 582h38c52 0 65 -5 71 -18l25 -50c16 -31 30 -63 42 -90c13 22 20 33 33 53l58 87c11 14 13 18 75 18h30c66 0 68 -14 53 -34l-125 -160c-25 -31 -49 -59 -72 -85c15 -24 38 -67 66 -125l69 -145c10 -22 0 -33 -68 -33h-21c-62 0 -80 4 -87 19l-31 65
c-18 38 -31 71 -40 92c-12 -19 -20 -32 -39 -59l-68 -99c-11 -14 -30 -18 -90 -18h-12c-65 0 -70 16 -56 35l144 183c19 25 39 49 67 78c-20 34 -50 91 -69 131l-58 121c-11 25 -3 34 65 34z" />
    <glyph glyph-name="Y.sc" horiz-adv-x="533" 
d="M121 582h32c58 0 74 -6 79 -22l38 -112c11 -33 14 -43 23 -86c17 38 22 49 44 87l65 111c8 14 17 22 76 22h36c44 0 55 -15 42 -34l-214 -318l-28 -204c-3 -19 -20 -26 -82 -26h-9c-67 0 -75 7 -72 26l28 204l-123 317c-8 21 0 35 65 35z" />
    <glyph glyph-name="Z.sc" horiz-adv-x="524" 
d="M204 119h237c22 0 25 -2 16 -57l-1 -6c-9 -53 -10 -56 -31 -56h-364c-53 0 -60 4 -57 25l6 41c3 21 11 37 31 61l273 336h-197c-22 0 -25 2 -16 57l1 6c9 53 10 56 31 56h326c53 0 60 0 57 -24l-6 -42c-2 -18 -7 -36 -27 -61z" />
    <glyph glyph-name="ampersand.sc" horiz-adv-x="615" 
d="M572 312c-15 -64 -37 -122 -69 -171c17 -15 33 -28 48 -39c14 -12 16 -26 -24 -66l-13 -13c-38 -38 -52 -41 -64 -31c-17 13 -35 27 -54 43c-49 -29 -109 -45 -180 -45c-108 0 -197 61 -197 163c0 77 55 131 127 162c-17 35 -27 69 -27 102c0 104 86 173 214 173
c55 0 102 -17 137 -40c10 -7 11 -18 -4 -38l-25 -35c-18 -23 -26 -28 -41 -19c-14 8 -31 17 -61 17c-38 0 -61 -24 -61 -60c0 -51 61 -124 132 -192c17 31 28 63 32 91c2 19 9 26 66 26h9c55 0 60 -5 55 -28zM303 119c-35 33 -70 69 -99 107c-14 -14 -23 -31 -23 -52
c0 -43 25 -65 74 -65c16 0 32 3 48 10z" />
    <glyph glyph-name="at.sc" horiz-adv-x="755" 
d="M539 79l1 -20c1 -21 2 -28 -15 -35c-60 -24 -134 -34 -208 -34c-152 0 -293 59 -293 223c0 197 160 378 422 378c193 0 291 -108 291 -233c0 -121 -91 -236 -233 -236c-68 0 -99 21 -109 48c-31 -36 -65 -48 -104 -48c-60 0 -99 41 -99 104c0 103 80 214 191 214
c30 0 50 -9 61 -19l2 4c4 8 9 9 43 9h60c21 0 25 -9 20 -21l-43 -113c-23 -58 -24 -86 1 -86c43 0 81 81 81 143c0 94 -85 129 -168 129c-190 0 -284 -134 -284 -266c0 -75 41 -137 184 -137c60 0 136 10 184 22c12 3 14 -2 15 -26zM382 253l34 95c-2 1 -4 2 -12 2
c-34 0 -74 -55 -74 -106c0 -18 9 -25 19 -25c12 0 25 11 33 34z" />
    <glyph glyph-name="exclam.sc" horiz-adv-x="284" 
d="M138 191h-18c-45 0 -59 8 -58 23l34 340c2 21 8 28 74 28h18c67 0 75 -6 72 -27l-59 -340c-3 -20 -17 -24 -63 -24zM32 57c0 45 42 90 91 90c40 0 70 -30 70 -69c0 -47 -45 -88 -92 -88c-39 0 -69 29 -69 67z" />
    <glyph glyph-name="exclamdown.sc" horiz-adv-x="284" 
d="M152 390h18c45 0 59 -8 58 -23l-34 -340c-2 -21 -8 -28 -74 -28h-18c-67 0 -75 6 -72 27l59 340c3 20 17 24 63 24zM258 524c0 -45 -42 -90 -91 -90c-40 0 -70 30 -70 69c0 47 45 88 92 88c39 0 69 -29 69 -67z" />
    <glyph glyph-name="question.sc" horiz-adv-x="412" 
d="M160 179h-17c-47 0 -67 1 -61 23l2 8c15 62 39 95 91 130c27 18 64 52 64 90c0 24 -10 41 -38 41c-21 0 -46 -14 -73 -30c-28 -17 -42 -3 -53 38l-4 15c-7 26 -6 36 12 50c27 21 86 47 159 47c99 0 159 -57 159 -132c0 -68 -38 -114 -96 -155c-53 -38 -60 -47 -80 -102
c-6 -18 -9 -23 -65 -23zM50 57c0 45 42 90 91 90c40 0 70 -30 70 -69c0 -47 -45 -88 -92 -88c-39 0 -69 29 -69 67z" />
    <glyph glyph-name="questiondown.sc" horiz-adv-x="413" 
d="M262 403h17c47 0 67 -1 61 -23l-2 -8c-15 -62 -39 -95 -91 -130c-27 -18 -64 -52 -64 -90c0 -24 10 -41 38 -41c21 0 46 14 73 30c28 17 42 3 53 -38l4 -15c7 -26 6 -36 -12 -50c-27 -21 -86 -47 -159 -47c-99 0 -159 57 -159 132c0 68 38 114 96 155c53 38 60 47 80 102
c6 18 9 23 65 23zM372 525c0 -45 -42 -90 -91 -90c-40 0 -70 30 -70 69c0 47 45 88 92 88c39 0 69 -29 69 -67z" />
    <glyph glyph-name="slash.sc" horiz-adv-x="351" 
d="M51 0h-7c-69 0 -73 9 -63 31l242 527c7 17 22 24 76 24h9c69 0 74 -8 64 -31l-244 -528c-8 -18 -23 -23 -77 -23z" />
    <glyph glyph-name="backslash.sc" horiz-adv-x="348" 
d="M227 0h-14c-54 0 -68 6 -71 23l-92 527c-5 24 2 32 71 32h12c65 0 70 -7 73 -24l92 -527c4 -21 -2 -31 -71 -31z" />
    <glyph glyph-name="parenleft.sc" horiz-adv-x="350" 
d="M236 -91l-21 -12c-48 -28 -62 -26 -73 -10c-68 103 -113 216 -113 328c0 157 78 336 228 488c17 17 28 13 75 -13l12 -7c45 -26 47 -37 27 -60c-102 -117 -165 -288 -165 -428c0 -83 29 -143 71 -234c9 -16 0 -29 -41 -52z" />
    <glyph glyph-name="parenright.sc" horiz-adv-x="350" 
d="M106 680l21 12c48 28 62 26 73 10c68 -103 113 -216 113 -328c0 -157 -78 -336 -228 -488c-17 -17 -28 -13 -75 13l-12 7c-45 26 -47 37 -27 60c102 117 165 288 165 428c0 83 -29 143 -71 234c-9 16 0 29 41 52z" />
    <glyph glyph-name="bracketleft.sc" horiz-adv-x="350" 
d="M161 714h196c20 0 20 -8 14 -49l-2 -13c-6 -36 -11 -42 -26 -42h-77l-89 -638h75c20 0 20 -8 14 -49l-2 -13c-6 -36 -11 -42 -26 -42h-196c-17 0 -30 6 -28 19l114 808c2 13 16 19 33 19z" />
    <glyph glyph-name="bracketright.sc" horiz-adv-x="350" 
d="M178 -132h-196c-20 0 -20 8 -14 49l2 13c6 36 11 42 26 42h77l89 638h-75c-20 0 -20 8 -14 49l2 13c6 36 11 42 26 42h196c17 0 30 -6 28 -19l-114 -808c-2 -13 -16 -19 -33 -19z" />
    <glyph glyph-name="braceleft.sc" horiz-adv-x="350" 
d="M251 -129h-42c-100 0 -139 36 -139 105c0 13 2 27 3 40l19 176v5c0 25 -10 33 -22 35c-27 4 -27 15 -22 47l3 18c6 37 6 41 34 47c12 3 28 7 32 39l25 185c13 92 59 142 177 142h46c16 0 20 -2 10 -48l-2 -9c-10 -46 -9 -47 -25 -47h-32c-15 0 -21 -15 -24 -33l-23 -180
c-6 -47 -24 -78 -63 -104c25 -23 35 -45 35 -75c0 -9 -1 -20 -2 -30l-18 -176c-1 -7 -2 -13 -2 -18c0 -8 3 -14 15 -14h32c19 0 18 -4 13 -48l-1 -9c-6 -50 -12 -48 -27 -48z" />
    <glyph glyph-name="braceright.sc" horiz-adv-x="316" 
d="M88 708h42c100 0 139 -36 139 -105c0 -13 -2 -27 -3 -40l-19 -176v-5c0 -25 10 -33 22 -35c27 -4 27 -15 22 -47l-3 -18c-6 -37 -6 -41 -34 -47c-12 -3 -28 -7 -32 -39l-25 -185c-13 -92 -59 -142 -177 -142h-46c-16 0 -20 2 -10 48l2 9c10 46 9 47 25 47h32
c15 0 21 15 24 33l23 180c6 47 24 78 63 104c-25 23 -35 45 -35 75c0 9 1 20 2 30l18 176c1 7 2 13 2 18c0 8 -3 14 -15 14h-32c-19 0 -18 4 -13 48l1 9c6 50 12 48 27 48z" />
    <glyph glyph-name="FI.sc" horiz-adv-x="896" 
d="M402 234h-174l-30 -208c-3 -20 -22 -26 -81 -26h-10c-65 0 -74 4 -73 26l76 528c3 24 10 28 62 28h312c22 0 25 -2 16 -57l-1 -6c-9 -53 -10 -56 -31 -56h-207l-17 -110h174c22 0 25 -2 16 -57l-1 -6c-9 -53 -10 -56 -31 -56zM637 479h-48c-17 0 -16 15 -12 42l2 12
c7 42 8 49 24 49h258c17 0 16 -15 12 -42l-2 -12c-7 -43 -8 -49 -24 -49h-47l-55 -376h48c17 0 16 -15 12 -42l-2 -12c-7 -42 -8 -49 -24 -49h-258c-17 0 -16 15 -12 42l2 12c7 43 8 49 24 49h47z" />
    <glyph glyph-name="FL.sc" horiz-adv-x="970" 
d="M402 234h-174l-30 -208c-3 -20 -22 -26 -81 -26h-10c-65 0 -74 4 -73 26l76 528c3 24 10 28 62 28h312c22 0 25 -2 16 -57l-1 -6c-9 -53 -10 -56 -31 -56h-207l-17 -110h174c22 0 25 -2 16 -57l-1 -6c-9 -53 -10 -56 -31 -56zM890 0h-302c-51 0 -59 4 -56 26l75 528
c3 21 10 28 81 28h9c66 0 78 -7 75 -28l-63 -435h197c22 0 25 -2 16 -57l-1 -6c-9 -53 -10 -56 -31 -56z" />
    <glyph glyph-name="zero.slash" 
d="M353 730c137 0 215 -88 213 -263c0 -191 -87 -477 -333 -477c-135 0 -211 87 -211 259c0 190 83 481 331 481zM332 602c-93 0 -144 -212 -144 -354v-18l191 347c-11 17 -27 25 -47 25zM255 118c94 0 145 213 145 354v12l-190 -344c11 -15 26 -22 45 -22z" />
    <glyph glyph-name="zero" unicode="0" 
d="M332 602c-93 0 -144 -212 -144 -354c-1 -88 22 -130 67 -130c94 0 145 213 145 354c1 88 -22 130 -68 130zM353 730c137 0 215 -88 213 -263c0 -191 -87 -477 -333 -477c-135 0 -211 87 -211 259c0 190 83 481 331 481z" />
    <glyph glyph-name="one" unicode="1" 
d="M120 623l174 78c35 16 53 19 84 19h21c43 0 49 -5 46 -22l-81 -578h101c13 0 15 -3 10 -55l-1 -10c-5 -48 -10 -55 -22 -55h-381c-14 0 -17 6 -9 55l2 12c8 49 11 53 26 53h113l61 436l-107 -45c-19 -8 -26 -3 -40 38l-5 15c-13 38 -10 51 8 59z" />
    <glyph glyph-name="two" unicode="2" 
d="M135 594l-7 15c-18 38 -16 48 2 59c54 33 135 62 209 62c135 0 197 -66 197 -160c0 -146 -123 -264 -245 -383l-58 -58h229c17 0 18 -5 10 -58l-3 -19c-7 -46 -10 -52 -25 -52h-371c-49 0 -54 3 -51 22l4 32c4 33 12 45 32 67l149 159c72 77 163 161 163 254
c0 47 -28 68 -75 68c-37 0 -84 -21 -117 -42c-16 -10 -25 -4 -43 34z" />
    <glyph glyph-name="three" unicode="3" 
d="M156 610l-5 16c-13 36 -13 47 3 56c49 28 118 48 179 48c123 0 194 -58 194 -157c0 -81 -40 -153 -122 -188c58 -23 95 -69 95 -139c0 -69 -24 -136 -77 -187c-48 -45 -121 -69 -199 -69c-72 0 -149 24 -202 61c-11 8 -6 19 14 52l12 18c26 41 31 45 47 34
c35 -23 84 -40 125 -40c68 0 116 44 116 114c0 27 -6 43 -20 57c-21 21 -49 29 -108 29h-25c-16 0 -17 5 -10 55l1 9c7 49 11 55 26 55h29c45 0 79 8 99 24c23 17 36 47 36 85c0 41 -25 63 -66 63c-31 0 -66 -12 -104 -32c-16 -8 -24 -4 -38 36z" />
    <glyph glyph-name="four" unicode="4" 
d="M336 720h10c67 0 76 -8 67 -25l-221 -413h102l19 107c3 19 8 22 72 22h11c62 0 73 -4 71 -22l-15 -107h68c13 0 16 -3 8 -56l-2 -14c-8 -53 -12 -57 -24 -57h-68l-19 -133c-2 -17 -15 -22 -77 -22h-13c-66 0 -70 5 -68 22l19 133h-217c-49 0 -55 4 -52 24l6 42
c4 24 7 38 17 56l230 424c7 15 17 19 76 19z" />
    <glyph glyph-name="five" unicode="5" 
d="M208 720h309c16 0 19 -3 10 -55l-3 -18c-9 -52 -9 -56 -25 -56h-218l-18 -125h26c132 0 211 -61 211 -182c0 -77 -26 -161 -90 -221c-53 -49 -126 -73 -211 -73c-72 0 -140 25 -179 53c-10 8 -14 18 12 58l11 17c29 43 34 45 48 36c32 -21 75 -39 121 -39
c79 0 123 58 123 140c0 63 -36 93 -103 93c-32 0 -69 -5 -96 -11c-26 -6 -40 0 -37 24l48 337c3 19 11 22 61 22z" />
    <glyph glyph-name="six" unicode="6" 
d="M525 638l-16 -24c-23 -35 -30 -37 -42 -30c-25 16 -52 23 -79 23c-35 0 -59 -13 -83 -38c-25 -27 -50 -79 -66 -141c35 20 80 35 119 35c113 0 176 -68 176 -175c0 -146 -118 -298 -284 -298c-143 0 -204 91 -204 233c0 198 108 507 354 507c58 0 110 -18 139 -43
c11 -10 5 -21 -14 -49zM217 313c-4 -27 -7 -58 -7 -88c0 -73 21 -110 62 -110c70 0 100 82 100 148c0 55 -23 78 -68 78c-26 0 -60 -12 -87 -28z" />
    <glyph glyph-name="seven" unicode="7" 
d="M135 720h385c49 0 55 -6 52 -27l-5 -36c-3 -24 -11 -42 -29 -76l-305 -562c-8 -15 -20 -19 -81 -19h-29c-58 0 -67 5 -55 25l321 566h-272c-18 0 -18 6 -11 56l3 18c7 50 8 55 26 55z" />
    <glyph glyph-name="eight" unicode="8" 
d="M26 157c0 90 59 161 146 209c-38 32 -62 79 -62 136c0 132 117 228 254 228c117 0 190 -56 190 -153c0 -82 -50 -143 -123 -186c63 -38 96 -85 96 -154c0 -149 -131 -247 -284 -247c-125 0 -217 57 -217 167zM262 305c-36 -26 -72 -69 -72 -121c0 -44 30 -68 75 -68
c51 0 98 29 98 90c0 48 -45 72 -101 99zM345 609c-41 0 -76 -36 -76 -82c0 -33 18 -58 65 -83c33 25 65 62 65 111c0 35 -20 54 -54 54z" />
    <glyph glyph-name="nine" unicode="9" 
d="M60 84l17 25c23 37 30 38 43 30c24 -15 52 -25 87 -25c46 0 80 22 106 61c19 29 37 72 48 124c-37 -22 -73 -31 -115 -31c-113 0 -181 74 -181 179c0 150 116 283 276 283c155 0 211 -95 211 -232s-39 -300 -136 -411c-54 -62 -127 -97 -213 -97c-68 0 -120 18 -152 43
c-14 10 -14 17 9 51zM299 391c28 0 57 8 83 22c5 35 8 61 8 89c0 73 -23 104 -66 104c-63 0 -95 -79 -95 -139c0 -49 23 -76 70 -76z" />
    <glyph glyph-name="dollar" unicode="$" 
d="M373 834h7c69 0 74 -6 72 -22l-12 -89c38 -8 76 -23 103 -45c18 -15 14 -25 -9 -64l-11 -19c-28 -49 -40 -48 -60 -34c-37 25 -66 39 -104 39c-46 0 -86 -29 -86 -78c0 -100 240 -107 238 -293c-1 -120 -89 -206 -208 -231l-13 -89c-2 -17 -6 -23 -78 -23h-7
c-71 0 -69 6 -67 23l13 90c-54 12 -96 33 -124 60c-14 15 -12 25 12 61l15 23c26 39 40 49 57 34c39 -32 86 -54 129 -54c50 0 104 24 104 85c0 105 -240 119 -240 289c0 109 75 197 183 221l13 94c2 16 5 22 73 22z" />
    <glyph glyph-name="cent" unicode="&#xa2;" 
d="M363 0l-14 -97c-2 -17 -6 -21 -75 -21h-9c-71 0 -69 4 -67 21l14 94c-43 10 -76 27 -99 53c-35 39 -54 93 -54 161c0 92 33 189 106 256c32 29 71 49 121 61l14 97c2 17 2 21 73 21h9c69 0 71 -4 69 -21l-14 -95c40 -10 74 -29 97 -51c12 -12 3 -23 -18 -57l-11 -18
c-27 -43 -38 -45 -53 -34c-38 28 -60 37 -101 37c-90 0 -128 -98 -128 -179c0 -68 31 -107 93 -107c38 0 69 9 107 27c24 12 31 8 42 -38l4 -15c10 -39 8 -46 -7 -55c-26 -16 -61 -31 -99 -40z" />
    <glyph glyph-name="Euro" unicode="&#x20ac;" 
d="M88 377h-48c-13 0 -16 3 -9 49l1 7c6 45 9 47 23 47h61c53 152 162 250 314 250c80 0 131 -18 181 -55c10 -8 11 -15 -19 -59l-12 -18c-33 -47 -41 -42 -57 -31c-30 21 -58 32 -99 32c-61 0 -110 -44 -139 -119h150c14 0 14 -2 9 -46l-1 -9c-5 -45 -9 -48 -23 -48h-164
c-3 -14 -5 -26 -6 -43h163c14 0 14 -2 9 -48l-1 -9c-5 -44 -8 -47 -22 -47h-149c5 -60 39 -108 107 -108c47 0 81 10 126 31c14 7 21 7 34 -33l6 -19c13 -41 10 -47 -7 -57c-61 -35 -117 -54 -190 -54c-164 0 -240 90 -248 240h-57c-14 0 -17 4 -10 50l1 7c6 45 9 47 23 47
h47c1 13 4 32 6 43z" />
    <glyph glyph-name="florin" unicode="&#x192;" 
d="M184 457h63l15 55c40 149 120 218 259 218c40 0 74 -7 99 -15c16 -5 16 -14 -3 -57l-7 -16c-19 -44 -25 -48 -39 -44c-19 5 -37 8 -58 8c-48 0 -74 -26 -93 -100l-13 -49h98c20 0 21 -4 6 -57l-2 -7c-15 -53 -20 -55 -35 -55h-101l-60 -229c-37 -138 -117 -219 -259 -219
c-35 0 -73 8 -95 17c-16 6 -14 15 6 61l3 7c19 49 25 54 41 49c19 -6 39 -9 53 -9c48 0 69 23 91 99l62 224h-61c-16 0 -18 6 -3 60l2 7c14 50 18 52 31 52z" />
    <glyph glyph-name="sterling" unicode="&#xa3;" 
d="M97 431h61l8 51c21 149 105 248 259 248c51 0 100 -11 132 -30c16 -11 13 -23 -4 -57l-9 -18c-22 -41 -31 -45 -47 -37c-22 11 -43 17 -71 17c-58 0 -85 -43 -95 -113l-9 -61h146c14 0 16 -2 9 -56l-1 -7c-8 -55 -13 -56 -24 -56h-147l-5 -36c-9 -67 -28 -117 -61 -149
h239c18 0 19 -2 11 -59l-1 -7c-7 -54 -10 -61 -28 -61h-414c-19 0 -23 -1 -16 53l1 8c5 41 12 52 31 62c47 24 63 68 74 148l6 41h-61c-11 0 -16 3 -8 58l1 7c8 54 12 54 23 54z" />
    <glyph glyph-name="yen" unicode="&#xa5;" 
d="M464 231h-106l-4 -28h106c20 0 23 -4 16 -50l-1 -7c-6 -45 -10 -47 -30 -47h-106l-11 -77c-2 -17 -20 -22 -82 -22h-10c-66 0 -76 5 -74 22l11 77h-106c-20 0 -23 3 -16 49l1 7c6 45 10 48 30 48h106l4 28h-106c-20 0 -22 4 -16 49l1 7c6 45 9 48 29 48h78l-123 357
c-6 19 3 28 76 28h22c60 0 76 -5 81 -20l46 -135c14 -42 25 -83 33 -137c23 54 45 95 70 137l81 136c8 14 16 19 77 19h22c64 0 74 -8 63 -27l-227 -358h79c20 0 23 -3 17 -48l-1 -7c-7 -46 -10 -49 -30 -49z" />
    <glyph glyph-name="numbersign" unicode="#" horiz-adv-x="589" 
d="M275 428l-45 -132h97l45 132h-97zM442 296h54c17 0 21 -4 13 -53l-1 -6c-8 -47 -14 -49 -27 -49h-76h-1l-61 -177c-2 -7 -8 -11 -49 -11h-20c-42 0 -46 4 -44 11l61 177h-97l-62 -177c-3 -7 -7 -11 -49 -11h-20c-41 0 -45 4 -43 11l60 177h-56c-13 0 -19 3 -13 50l1 8
c6 48 10 50 27 50h78l44 132h-54c-13 0 -18 5 -12 52l1 8c6 48 10 48 27 48h76l58 170c3 10 8 14 49 14h20c42 0 47 -4 44 -14l-58 -170h97l60 173c2 7 6 11 48 11h20c41 0 46 -4 43 -14l-57 -170h57c14 0 19 -5 11 -51l-1 -6c-8 -50 -13 -51 -26 -51h-78z" />
    <glyph glyph-name="percent" unicode="%" horiz-adv-x="961" 
d="M730 301c-56 0 -71 -100 -71 -145c-2 -46 11 -66 36 -66c58 0 71 105 71 151c1 43 -13 60 -36 60zM745 401c91 0 153 -51 153 -155c0 -121 -75 -256 -218 -256c-90 0 -153 51 -153 155c0 123 73 256 218 256zM754 720h2c73 0 72 -7 56 -28l-513 -672
c-13 -17 -31 -20 -84 -20h-5c-59 0 -69 8 -53 28l515 672c12 16 26 20 82 20zM280 630c-56 0 -71 -100 -71 -145c0 -46 11 -66 36 -66c58 0 71 105 71 151c0 43 -13 60 -36 60zM295 730c91 0 153 -51 153 -155c0 -121 -75 -256 -218 -256c-90 0 -153 51 -153 155
c0 123 73 256 218 256z" />
    <glyph glyph-name="perthousand" unicode="&#x2030;" horiz-adv-x="1366" 
d="M730 301c-56 0 -71 -100 -71 -145c0 -46 11 -66 36 -66c58 0 71 105 71 151c0 43 -13 60 -36 60zM745 401c91 0 153 -51 153 -155c0 -121 -75 -256 -218 -256c-90 0 -153 51 -153 155c0 123 73 256 218 256zM754 720h2c73 0 72 -7 56 -28l-513 -672
c-13 -17 -31 -20 -84 -20h-5c-59 0 -69 8 -53 28l515 672c12 16 26 20 82 20zM280 630c-56 0 -71 -100 -71 -145c0 -46 11 -66 36 -66c58 0 71 105 71 151c0 43 -13 60 -36 60zM295 730c91 0 153 -51 153 -155c0 -121 -75 -256 -218 -256c-90 0 -153 51 -153 155
c0 123 73 256 218 256zM1135 301c-56 0 -71 -100 -71 -145c0 -46 11 -66 36 -66c58 0 71 105 71 151c0 43 -13 60 -36 60zM1150 401c91 0 153 -51 153 -155c0 -121 -75 -256 -218 -256c-90 0 -153 51 -153 155c0 123 73 256 218 256z" />
    <glyph glyph-name="plus" unicode="+" 
d="M508 282h-155l-23 -160c-2 -15 -11 -21 -66 -21h-13c-54 0 -61 6 -59 21l23 160h-155c-13 0 -21 7 -13 57l2 13c8 50 15 57 29 57h155l23 164c2 15 11 21 65 21h13c55 0 62 -6 60 -21l-23 -164h155c14 0 21 -7 13 -57l-2 -13c-8 -50 -16 -57 -29 -57z" />
    <glyph glyph-name="minus" unicode="&#x2212;" 
d="M508 282h-448c-13 0 -21 6 -13 57l2 13c8 52 15 57 29 57h448c14 0 21 -5 13 -57l-2 -13c-8 -52 -16 -57 -29 -57z" />
    <glyph glyph-name="multiply" unicode="&#xd7;" 
d="M135 513l11 10c46 41 53 42 66 26l93 -109l125 112c17 16 27 14 59 -25l9 -10c31 -36 30 -44 17 -55l-131 -117l97 -115c10 -12 10 -17 -35 -57l-11 -10c-46 -40 -52 -38 -65 -23l-92 110l-123 -109c-16 -15 -25 -16 -59 25l-9 10c-30 35 -30 44 -17 55l129 114l-97 114
c-11 12 -8 18 33 54z" />
    <glyph glyph-name="less" unicode="&#x3c;" 
d="M82 404l415 230c16 9 25 3 45 -45l3 -7c17 -40 19 -55 6 -62l-330 -183l265 -171c15 -10 10 -23 -18 -64l-5 -7c-33 -48 -40 -43 -52 -34l-346 226c-13 9 -16 15 -9 55l2 11c6 34 10 43 24 51z" />
    <glyph glyph-name="divide" unicode="&#xf7;" 
d="M512 282h-456c-18 0 -20 6 -12 57l2 13c8 53 10 57 28 57h456c18 0 20 -5 12 -57l-2 -13c-8 -52 -10 -57 -28 -57zM238 555c0 52 48 101 104 101c45 0 79 -32 79 -76c0 -52 -47 -102 -104 -102c-45 0 -79 33 -79 77zM176 117c0 52 48 101 104 101c45 0 79 -32 79 -76
c0 -52 -47 -102 -104 -102c-45 0 -79 33 -79 77z" />
    <glyph glyph-name="equal" unicode="=" 
d="M506 397h-412c-17 0 -19 4 -11 57l2 13c8 52 10 57 27 57h412c17 0 19 -4 11 -57l-2 -13c-8 -54 -10 -57 -27 -57zM473 166h-412c-17 0 -19 4 -11 57l2 13c8 52 10 57 27 57h412c17 0 19 -4 11 -57l-2 -13c-8 -54 -10 -57 -27 -57z" />
    <glyph glyph-name="logicalnot" unicode="&#xac;" 
d="M116 524h411c19 0 23 -2 22 -16l-45 -316c-2 -15 -11 -21 -65 -21h-13c-54 0 -61 6 -59 21l29 206h-298c-16 0 -20 8 -13 58l2 14c7 49 13 54 29 54z" />
    <glyph glyph-name="greater" unicode="&#x3e;" 
d="M500 290l-415 -230c-16 -9 -25 -3 -45 45l-3 7c-17 40 -19 55 -6 62l330 183l-265 171c-15 10 -10 23 18 64l5 7c33 48 40 43 52 34l346 -226c13 -9 16 -15 9 -55l-2 -11c-6 -34 -10 -43 -24 -51z" />
    <glyph glyph-name="notequal" unicode="&#x2260;" 
d="M473 166h-227l-60 -96c-8 -12 -22 -16 -69 -16h-9c-52 0 -57 9 -46 26l54 86h-55c-17 0 -19 4 -11 57l2 13c8 52 10 57 27 57h117l65 104h-167c-17 0 -19 4 -11 57l2 13c8 52 10 57 27 57h230l63 100c9 13 15 17 63 17h10c56 0 61 -9 50 -26l-57 -91h53
c17 0 19 -4 11 -57l-2 -13c-8 -54 -10 -57 -27 -57h-115l-65 -104h165c17 0 19 -4 11 -57l-2 -13c-8 -54 -10 -57 -27 -57z" />
    <glyph glyph-name="approxequal" unicode="&#x2248;" 
d="M109 392l-15 4c-34 9 -41 12 -34 28c36 88 96 136 169 136c39 0 71 -12 114 -40c23 -15 51 -37 79 -37c24 0 41 16 55 54c5 13 11 16 52 6l13 -3c39 -9 43 -14 38 -27c-34 -89 -95 -140 -166 -140c-51 0 -89 18 -127 44c-26 17 -44 33 -70 33c-22 0 -38 -13 -56 -52
c-6 -14 -12 -16 -52 -6zM76 158l-15 4c-34 9 -41 12 -34 28c36 88 96 136 169 136c39 0 71 -12 114 -40c23 -15 51 -37 79 -37c24 0 41 16 55 54c5 13 11 16 52 6l13 -3c39 -9 43 -14 38 -27c-34 -89 -95 -140 -166 -140c-51 0 -89 18 -127 44c-26 17 -44 33 -70 33
c-22 0 -38 -13 -56 -52c-6 -14 -12 -16 -52 -6z" />
    <glyph glyph-name="plusminus" unicode="&#xb1;" 
d="M41 126h444c20 0 23 -7 17 -56l-2 -14c-7 -49 -12 -56 -32 -56h-444c-20 0 -23 7 -16 56l2 14c6 49 11 56 31 56zM522 394h-152l-23 -162c-2 -15 -11 -21 -66 -21h-13c-54 0 -61 6 -59 21l23 162h-152c-20 0 -23 5 -16 57l2 14c8 53 12 55 32 55h152l23 162
c2 16 11 22 65 22h13c55 0 62 -6 60 -22l-23 -162h152c20 0 23 -5 16 -57l-2 -14c-8 -53 -12 -55 -32 -55z" />
    <glyph glyph-name="lessequal" unicode="&#x2264;" 
d="M43 126h445c20 0 23 -6 16 -56l-2 -14c-7 -50 -12 -56 -32 -56h-445c-19 0 -22 5 -15 56l2 14c7 50 12 56 31 56zM88 514l415 230c16 9 25 3 45 -45l3 -7c17 -40 19 -55 6 -62l-330 -183l265 -171c15 -10 10 -23 -18 -64l-5 -7c-33 -48 -39 -42 -52 -34l-346 226
c-13 9 -16 15 -9 55l2 11c6 34 10 43 24 51z" />
    <glyph glyph-name="greaterequal" unicode="&#x2265;" 
d="M40 126h444c20 0 23 -5 16 -56l-2 -14c-7 -50 -12 -56 -32 -56h-444c-20 0 -25 6 -15 59l3 16c9 48 11 51 30 51zM532 399l-415 -230c-16 -9 -25 -3 -45 45l-3 7c-17 40 -19 55 -6 62l330 183l-265 171c-15 10 -10 23 18 64l5 7c33 48 39 42 52 34l346 -226
c13 -9 16 -15 9 -55l-2 -11c-6 -34 -10 -43 -24 -51z" />
    <glyph glyph-name="asciicircum" unicode="^" 
d="M327 720h23c40 0 52 -5 57 -20l117 -352c9 -24 1 -33 -62 -33h-9c-52 0 -66 3 -70 15l-66 220l-131 -220c-8 -13 -26 -15 -75 -15h-10c-64 0 -66 10 -52 33l216 352c9 15 20 20 62 20z" />
    <glyph glyph-name="asciitilde" unicode="~" 
d="M81 291l-12 3c-39 10 -44 14 -39 31c27 82 93 147 175 147c55 0 82 -15 125 -42c24 -15 49 -38 78 -38c27 0 45 23 58 56c5 12 14 12 53 3l13 -3c40 -9 48 -12 43 -26c-31 -84 -90 -149 -184 -149c-59 0 -97 27 -129 48c-24 16 -45 32 -67 32c-21 0 -40 -17 -58 -56
c-6 -14 -17 -16 -56 -6z" />
    <glyph glyph-name="lozenge" unicode="&#x25ca;" horiz-adv-x="573" 
d="M320 544l-126 -181l75 -182l125 185zM183 -5l-132 318c-6 14 -6 26 -3 44l2 12c3 21 6 28 14 41l229 325c10 15 17 18 48 18h15c31 0 40 -4 46 -18l132 -323c5 -13 6 -23 3 -42l-2 -11c-3 -18 -6 -32 -15 -44l-228 -320c-11 -15 -22 -18 -51 -18h-16c-31 0 -36 3 -42 18z
" />
    <glyph glyph-name="degree" unicode="&#xb0;" horiz-adv-x="360" 
d="M211 650c-37 0 -57 -40 -57 -78c0 -27 12 -46 36 -46c37 0 60 37 60 75c0 29 -14 49 -39 49zM47 561c0 94 77 172 178 172c78 0 131 -40 131 -117c0 -95 -76 -173 -179 -173c-78 0 -131 41 -130 118z" />
    <glyph glyph-name="quotesingle" unicode="'" horiz-adv-x="245" 
d="M161 720h6c67 0 73 -3 69 -22l-46 -239c-2 -12 -15 -18 -60 -18h-9c-49 0 -59 7 -58 18l22 240c2 18 10 21 76 21z" />
    <glyph glyph-name="quotedbl" unicode="&#x22;" horiz-adv-x="442" 
d="M161 720h6c67 0 73 -3 69 -22l-46 -239c-2 -12 -15 -18 -60 -18h-9c-49 0 -59 7 -58 18l22 240c2 18 10 21 76 21zM358 720h6c67 0 73 -3 69 -22l-46 -239c-2 -12 -15 -18 -60 -18h-9c-49 0 -59 7 -58 18l22 240c2 18 10 21 76 21z" />
    <glyph glyph-name="radical" unicode="&#x221a;" horiz-adv-x="654" 
d="M99 488h130c34 0 38 -4 42 -29l53 -299l263 615c7 17 11 22 74 22h8c71 0 78 -8 69 -26l-374 -827c-5 -11 -15 -17 -76 -17h-8c-60 0 -66 4 -69 18l-80 424h-49c-14 0 -19 3 -11 58l1 7c8 53 13 54 27 54z" />
    <glyph glyph-name="currency" unicode="&#xa4;" 
d="M489 399c0 -68 -20 -130 -58 -175l56 -130c4 -9 -2 -14 -36 -14h-53c-27 0 -31 2 -36 12l-30 68c-21 -7 -44 -10 -69 -10c-24 0 -46 4 -66 11l-50 -69c-7 -10 -13 -12 -40 -12h-59c-34 0 -38 5 -32 14l101 138c-12 24 -19 53 -19 87c0 67 20 130 58 175l-56 130
c-4 9 2 14 36 14h53c27 0 31 -2 36 -12l30 -68c21 6 44 10 69 10c24 0 46 -4 65 -11l51 69c7 10 13 12 40 12h59c34 0 38 -5 32 -14l-101 -138c12 -25 19 -54 19 -87zM353 392c0 38 -14 59 -43 59c-20 0 -37 -8 -48 -23c-18 -22 -28 -63 -28 -102c0 -38 14 -59 43 -59
c20 0 37 8 48 23c18 22 28 63 28 102z" />
    <glyph glyph-name="infinity" unicode="&#x221e;" horiz-adv-x="797" 
d="M250 491c68 0 115 -27 166 -87c57 49 116 85 185 85c92 0 155 -50 155 -138c0 -114 -89 -198 -206 -198c-66 0 -109 25 -159 84c-62 -58 -117 -86 -190 -86c-86 0 -154 55 -154 145c0 106 87 195 203 195zM224 266c33 0 65 24 97 56c-25 31 -48 57 -83 57
c-34 0 -61 -27 -61 -65c0 -30 18 -48 47 -48zM576 378c-32 0 -65 -27 -94 -57c29 -40 49 -55 76 -55c39 0 67 26 67 64c0 31 -20 48 -49 48z" />
    <glyph glyph-name="uni00B5" unicode="&#xb5;" horiz-adv-x="581" 
d="M166 528h9c72 0 79 -6 77 -22l-37 -262c-9 -66 -10 -86 1 -100c8 -13 28 -20 50 -20c24 0 42 5 56 15s22 23 27 45c6 23 11 59 16 95l32 227c2 16 4 22 74 22h10c69 0 76 -6 74 -22l-52 -365c-2 -16 4 -23 22 -23c14 0 16 -6 9 -47l-2 -12c-7 -39 -8 -46 -21 -51
c-19 -7 -45 -12 -74 -12c-45 0 -76 20 -87 50c-37 -36 -87 -56 -137 -56c-11 0 -24 0 -34 1c-8 -75 -11 -141 -11 -191c0 -18 -1 -23 -74 -23h-13c-67 0 -73 2 -73 20c1 62 5 144 20 248l65 461c2 16 4 22 73 22z" />
    <glyph glyph-name="partialdiff" unicode="&#x2202;" horiz-adv-x="579" 
d="M168 622l-6 15c-14 34 -11 41 3 50c35 22 96 43 155 43c146 0 216 -102 216 -282c0 -199 -75 -458 -313 -458c-123 0 -203 79 -203 197c0 143 94 275 241 275c45 0 81 -10 111 -28c6 99 -3 173 -81 173c-27 0 -55 -7 -89 -23c-9 -4 -18 -1 -34 38zM243 115
c54 0 95 58 116 200c-20 15 -52 24 -76 24c-71 0 -105 -73 -105 -139c0 -58 26 -85 65 -85z" />
    <glyph glyph-name="summation" unicode="&#x2211;" horiz-adv-x="579" 
d="M141 720h457c16 0 20 -2 12 -57l-1 -8c-7 -56 -13 -63 -29 -63h-293l175 -263c5 -8 6 -16 3 -41l-2 -18c-2 -22 -6 -29 -16 -40l-249 -269h294c16 0 18 -3 11 -59l-1 -8c-7 -55 -12 -61 -28 -61h-460c-34 0 -45 5 -43 23l6 46c3 22 8 30 29 53l299 316l-208 310
c-14 21 -18 32 -15 53l9 65c3 16 12 21 50 21z" />
    <glyph glyph-name="product" unicode="&#x220f;" horiz-adv-x="775" 
d="M165 592h-78c-16 0 -19 5 -12 63l1 8c7 55 13 57 29 57h689c15 0 19 -2 12 -59l-1 -8c-7 -58 -14 -61 -29 -61h-78l-103 -737c-3 -17 -13 -22 -81 -22h-13c-64 0 -76 5 -73 22l103 737h-199l-103 -737c-3 -17 -20 -22 -84 -22h-11c-68 0 -75 5 -72 22z" />
    <glyph glyph-name="integral" unicode="&#x222b;" horiz-adv-x="372" 
d="M390 662l-5 -16c-14 -43 -20 -50 -34 -46c-11 3 -25 5 -42 5c-57 0 -64 -76 -64 -125c0 -51 9 -106 18 -160c9 -58 18 -123 18 -190c0 -142 -55 -277 -218 -277c-33 0 -61 5 -80 14c-11 6 -12 13 1 54l5 15c15 44 22 48 35 46s29 -3 42 -3c54 0 60 59 60 124
c0 50 -9 104 -18 158c-10 60 -18 131 -18 194c0 149 60 275 225 275c29 0 56 -5 73 -12c15 -6 16 -11 2 -56z" />
    <glyph glyph-name="Ohm" unicode="&#x2126;" horiz-adv-x="736" 
d="M613 0h-264c-18 0 -22 3 -15 43l2 11c6 33 15 38 34 53c106 83 156 191 156 324c0 106 -50 165 -129 165c-143 0 -197 -164 -197 -285c0 -99 38 -158 87 -203c15 -14 19 -21 14 -54l-2 -11c-7 -40 -9 -43 -25 -43h-264c-17 0 -22 7 -13 60l2 12c9 52 13 55 28 55h75
c-43 52 -68 124 -68 201c0 213 152 402 379 402c161 0 283 -101 283 -285c0 -119 -51 -230 -141 -318h75c17 0 22 -5 13 -58l-2 -12c-9 -52 -13 -57 -28 -57z" />
    <glyph glyph-name="increment" unicode="&#x2206;" horiz-adv-x="655" 
d="M364 720h29c52 0 64 -3 68 -20l134 -584c3 -18 4 -34 3 -52l-6 -38c-1 -20 -11 -26 -53 -26h-517c-36 0 -42 11 -39 31l4 34c1 20 4 31 16 51l294 587c7 13 14 17 67 17zM353 508l-179 -379h254z" />
    <glyph glyph-name="litre" unicode="&#x2113;" horiz-adv-x="307" 
d="M188 760h8c67 0 76 -5 76 -22c0 -42 -15 -164 -32 -288l-42 -298c-1 -7 -2 -15 -2 -17c0 -13 5 -19 19 -19h14c15 0 15 -6 9 -51l-1 -9c-6 -39 -11 -46 -22 -51c-15 -6 -37 -10 -73 -10c-41 0 -70 12 -86 31c-16 18 -22 42 -22 70c0 12 2 34 7 67l43 308
c13 92 27 234 30 269c1 15 4 20 74 20z" />
    <glyph glyph-name="estimated" unicode="&#x212e;" horiz-adv-x="922" 
d="M872 352h-666c-4 0 -5 -1 -5 -6v-202c0 -8 3 -16 9 -24c64 -64 154 -108 253 -108c106 0 201 47 264 122h60c-75 -87 -193 -144 -325 -144c-227 0 -412 166 -412 370c0 205 185 370 412 370c226 0 410 -165 410 -370v-8zM721 377v203c0 9 -4 18 -10 25
c-64 63 -152 103 -248 103c-99 0 -187 -42 -252 -106c-7 -7 -10 -17 -10 -26v-199c0 -3 1 -6 5 -6h510c4 0 5 3 5 6z" />
    <glyph glyph-name="numero" unicode="&#x2116;" horiz-adv-x="1117" 
d="M1093 499c0 -136 -81 -249 -226 -249c-101 0 -166 65 -165 169c0 136 81 249 226 249c101 0 165 -65 165 -169zM957 492c0 38 -14 59 -43 59c-20 0 -37 -8 -48 -23c-18 -22 -28 -63 -28 -102c0 -38 14 -59 43 -59c20 0 37 8 48 23c18 22 28 63 28 102zM191 720h8
c58 0 65 -7 73 -20l138 -268c27 -52 45 -99 66 -160c3 69 8 119 17 185l34 240c3 17 14 23 80 23h6c64 0 76 -6 73 -23l-95 -675c-2 -17 -8 -22 -72 -22h-9c-52 0 -61 5 -69 20l-137 268c-35 69 -51 109 -69 166c-3 -77 -7 -132 -15 -191l-34 -241c-2 -17 -18 -22 -79 -22
h-8c-65 0 -74 3 -72 22l95 675c3 20 5 23 69 23z" />
    <glyph glyph-name="zero.otab" 
d="M260 110c101 0 126 178 126 254c0 59 -18 108 -68 108c-108 0 -131 -188 -131 -262c0 -58 18 -100 73 -100zM253 -10c-127 0 -232 73 -232 232c0 117 59 369 302 369c129 0 228 -70 228 -230c0 -129 -64 -371 -298 -371z" />
    <glyph glyph-name="one.otab" 
d="M90 112h109l51 325l-106 -31c-19 -6 -22 -4 -41 33l-4 7c-23 40 -14 55 4 61l172 60c35 12 53 15 84 15h21c43 0 49 -6 46 -27l-65 -443h97c21 0 24 -8 15 -54l-1 -5c-8 -50 -9 -53 -29 -53h-368c-21 0 -24 8 -15 54l1 5c8 50 9 53 29 53z" />
    <glyph glyph-name="two.otab" 
d="M444 0h-371c-49 0 -55 1 -52 25l3 25c4 35 12 44 31 59l210 162c58 45 90 85 90 131c0 45 -27 68 -71 68c-42 0 -89 -22 -120 -40c-17 -10 -22 -7 -45 36l-4 7c-27 48 -21 54 -3 64c59 33 129 54 207 54c137 0 201 -75 201 -157c0 -89 -46 -158 -153 -238l-102 -77h193
c17 0 21 -5 12 -59l-2 -10c-8 -39 -9 -50 -24 -50z" />
    <glyph glyph-name="three.otab" 
d="M121 472l-5 16c-13 36 -13 47 3 56c49 28 118 48 179 48c123 0 194 -58 194 -157c0 -81 -40 -153 -122 -188c58 -23 95 -69 95 -139c0 -69 -24 -136 -77 -187c-48 -45 -121 -69 -199 -69c-72 0 -149 24 -202 61c-11 8 -6 19 14 52l12 18c26 41 31 45 47 34
c35 -23 84 -40 125 -40c68 0 116 44 116 114c0 27 -6 43 -20 57c-21 21 -49 29 -108 29h-25c-16 0 -17 5 -10 55l1 9c7 49 11 55 26 55h29c45 0 79 8 99 24c23 17 36 47 36 85c0 41 -25 63 -66 63c-31 0 -66 -12 -104 -32c-16 -8 -24 -4 -38 36z" />
    <glyph glyph-name="four.otab" 
d="M326 582h10c67 0 76 -8 67 -25l-221 -413h102l19 107c3 19 8 22 72 22h11c62 0 73 -4 71 -22l-15 -107h68c13 0 16 -3 8 -56l-2 -14c-8 -53 -12 -57 -24 -57h-68l-19 -133c-2 -17 -15 -22 -77 -22h-13c-66 0 -70 5 -68 22l19 133h-217c-49 0 -55 4 -52 24l6 42
c4 24 7 38 17 56l230 424c7 15 17 19 76 19z" />
    <glyph glyph-name="five.otab" 
d="M193 582h309c16 0 19 -3 10 -55l-3 -18c-9 -52 -9 -56 -25 -56h-218l-18 -125h26c132 0 211 -61 211 -182c0 -77 -26 -161 -90 -221c-53 -49 -126 -73 -211 -73c-72 0 -140 25 -179 53c-10 8 -14 18 12 58l11 17c29 43 34 45 48 36c32 -21 75 -39 121 -39
c79 0 123 58 123 140c0 63 -36 93 -103 93c-32 0 -69 -5 -96 -11c-26 -6 -40 0 -37 24l48 337c3 19 11 22 61 22z" />
    <glyph glyph-name="six.otab" 
d="M519 638l-16 -24c-23 -35 -30 -37 -42 -30c-25 16 -52 23 -79 23c-35 0 -59 -13 -83 -38c-25 -27 -50 -79 -66 -141c35 20 80 35 119 35c113 0 176 -68 176 -175c0 -146 -118 -298 -284 -298c-143 0 -204 91 -204 233c0 198 108 507 354 507c58 0 110 -18 139 -43
c11 -10 5 -21 -14 -49zM211 313c-4 -27 -7 -58 -7 -88c0 -73 21 -110 62 -110c70 0 100 82 100 148c0 55 -23 78 -68 78c-26 0 -60 -12 -87 -28z" />
    <glyph glyph-name="seven.otab" 
d="M116 582h385c49 0 55 -6 52 -27l-5 -36c-3 -24 -11 -42 -29 -76l-305 -562c-8 -15 -20 -19 -81 -19h-29c-58 0 -67 5 -55 25l321 566h-272c-18 0 -18 6 -11 56l3 18c7 50 8 55 26 55z" />
    <glyph glyph-name="eight.otab" 
d="M20 157c0 90 59 161 146 209c-38 32 -62 79 -62 136c0 132 117 228 254 228c117 0 190 -56 190 -153c0 -82 -50 -143 -123 -186c63 -38 96 -85 96 -154c0 -149 -131 -247 -284 -247c-125 0 -217 57 -217 167zM256 305c-36 -26 -72 -69 -72 -121c0 -44 30 -68 75 -68
c51 0 98 29 98 90c0 48 -45 72 -101 99zM339 609c-41 0 -76 -36 -76 -82c0 -33 18 -58 65 -83c33 25 65 62 65 111c0 35 -20 54 -54 54z" />
    <glyph glyph-name="nine.otab" 
d="M30 -54l17 25c23 37 30 38 43 30c24 -15 52 -25 87 -25c46 0 80 22 106 61c19 29 37 72 48 124c-37 -22 -73 -31 -115 -31c-113 0 -181 74 -181 179c0 150 116 283 276 283c155 0 211 -95 211 -232s-39 -300 -136 -411c-54 -62 -127 -97 -213 -97c-68 0 -120 18 -152 43
c-14 10 -14 17 9 51zM269 253c28 0 57 8 83 22c5 35 8 61 8 89c0 73 -23 104 -66 104c-63 0 -95 -79 -95 -139c0 -49 23 -76 70 -76z" />
    <glyph glyph-name="dollar.otab" horiz-adv-x="510" 
d="M389 655l-10 -73c28 -6 62 -18 83 -35c19 -15 16 -23 -6 -63l-8 -13c-30 -49 -34 -48 -65 -28c-24 16 -54 29 -82 29c-41 0 -60 -21 -60 -43c0 -80 203 -98 203 -247c0 -84 -57 -162 -174 -181l-12 -74c-3 -20 -4 -24 -78 -24h-6c-63 0 -67 0 -64 24l10 75
c-44 13 -76 29 -97 51c-16 16 -17 20 10 57l13 18c33 46 41 47 58 33c39 -33 68 -49 105 -49c45 0 75 22 75 54c0 78 -205 85 -205 247c0 83 61 148 153 167l9 76c3 20 4 23 78 23h6c63 0 67 0 64 -24z" />
    <glyph glyph-name="cent.otab" horiz-adv-x="510" 
d="M239 -20h-12c-59 0 -66 0 -62 23l11 70c-75 18 -129 72 -129 177c0 122 59 218 188 251l10 73c3 21 4 23 69 23h12c67 0 69 -3 67 -23l-11 -71c36 -8 69 -31 81 -45c10 -12 9 -14 -17 -54l-7 -11c-24 -38 -36 -40 -55 -27c-29 19 -50 25 -81 25c-76 0 -99 -73 -99 -127
c0 -52 21 -79 75 -79c36 0 63 12 85 22c34 15 35 16 45 -36l2 -11c7 -38 7 -41 -8 -49c-14 -8 -48 -24 -81 -33l-10 -75c-2 -20 -6 -23 -73 -23z" />
    <glyph glyph-name="Euro.otab" horiz-adv-x="510" 
d="M35 302c-11 0 -14 1 -8 41l1 7c6 44 4 49 20 49h47c42 105 128 192 280 192c61 0 108 -14 151 -45c11 -7 8 -22 -16 -55l-8 -11c-30 -41 -40 -36 -63 -23c-19 11 -42 19 -71 19c-48 0 -86 -29 -112 -77h125c12 0 15 -1 9 -41l-1 -7c-6 -44 -4 -49 -20 -49h-143l-4 -32
h140c12 0 15 -1 9 -41l-1 -7c-6 -44 -4 -49 -20 -49h-125c8 -49 32 -67 77 -67c47 0 78 10 113 25c14 6 23 8 35 -31l3 -10c13 -43 8 -44 -6 -53c-51 -32 -107 -47 -164 -47c-142 0 -208 62 -220 183h-47c-11 0 -14 1 -8 41l1 7c6 44 4 49 20 49h35c1 10 2 21 4 32h-33z" />
    <glyph glyph-name="florin.otab" horiz-adv-x="510" 
d="M196 263h-41c-25 0 -25 1 -11 50l2 7c14 50 19 51 36 51h44l12 43c38 135 105 177 229 177c38 0 55 -4 80 -12c15 -5 16 -11 4 -53l-9 -30c-7 -25 -14 -28 -36 -23c-17 4 -30 6 -44 6c-35 0 -59 -17 -73 -72l-9 -36h74c25 0 25 -1 11 -50l-2 -7c-14 -50 -19 -51 -36 -51
h-77l-47 -174c-30 -116 -102 -178 -230 -178c-31 0 -67 9 -78 13c-13 5 -13 16 -1 54l8 28c9 29 15 28 36 23c16 -4 25 -4 39 -4c30 0 60 14 75 72z" />
    <glyph glyph-name="sterling.otab" horiz-adv-x="510" 
d="M84 351h48l6 39c17 114 90 201 229 201c44 0 93 -8 116 -23c19 -12 15 -27 -2 -57l-8 -14c-21 -37 -31 -39 -49 -31c-16 7 -33 11 -55 11c-37 0 -63 -23 -71 -72l-8 -54h120c15 0 17 -5 10 -54l-2 -14c-5 -36 -8 -40 -21 -40h-122l-3 -20c-6 -36 -17 -77 -42 -108h192
c16 0 20 -5 11 -57l-2 -10c-8 -37 -9 -48 -23 -48h-369c-16 0 -18 10 -13 43l3 19c6 39 5 38 30 48c35 13 46 57 55 109l4 24h-47c-15 0 -17 5 -10 54l2 14c5 36 8 40 21 40z" />
    <glyph glyph-name="yen.otab" horiz-adv-x="510" 
d="M79 199c-11 0 -14 1 -8 41l1 7c6 44 4 49 20 49h46l-97 252c-8 22 3 34 74 34h17c56 0 71 -6 77 -21l29 -75c14 -37 22 -72 32 -120c21 44 38 80 66 122l50 75c9 14 16 19 74 19h22c62 0 73 -12 59 -33l-172 -253h56c12 0 15 -1 9 -41l-1 -7c-6 -44 -4 -49 -20 -49h-96
l-3 -24h96c12 0 15 -1 9 -41l-1 -7c-6 -44 -4 -49 -20 -49h-96l-6 -53c-2 -19 -20 -25 -80 -25h-8c-64 0 -74 6 -71 25l7 53h-80c-11 0 -14 1 -8 41l1 7c6 44 4 49 20 49h81l4 24h-83z" />
    <glyph glyph-name="numbersign.otab" horiz-adv-x="538" 
d="M115 431h67l49 137c4 11 8 14 44 14h17c36 0 41 -4 37 -15l-49 -136h84l50 142c2 5 6 9 42 9h17c35 0 40 -4 36 -15l-48 -136h52c8 0 13 -5 9 -28l-5 -28c-4 -26 -9 -31 -20 -31h-67l-37 -105h53c8 0 13 -5 9 -28l-5 -28c-4 -26 -9 -31 -20 -31h-68l-50 -143
c-2 -5 -7 -9 -43 -9h-17c-36 0 -40 3 -38 9l50 143h-83l-51 -143c-2 -6 -6 -9 -42 -9h-17c-35 0 -39 3 -37 9l50 143h-52c-8 0 -13 5 -9 28l5 28c4 26 9 31 20 31h67l37 105h-53c-8 0 -13 5 -9 28l5 28c4 26 9 31 20 31zM249 344l-37 -105h83l38 105h-84z" />
    <glyph glyph-name="percent.otab" horiz-adv-x="819" 
d="M195 352c38 0 46 69 46 98c0 28 -5 46 -20 46c-39 0 -47 -69 -47 -98c0 -28 5 -46 21 -46zM679 547l-427 -523c-16 -20 -29 -24 -89 -24h28c-71 0 -95 6 -71 35l427 523c16 20 29 24 89 24h-28c71 0 95 -6 71 -35zM178 258c-78 0 -135 42 -135 128c0 105 56 204 194 204
c78 0 135 -42 135 -128c0 -105 -56 -204 -194 -204zM584 86c38 0 46 69 46 98c0 28 -5 46 -20 46c-39 0 -47 -69 -47 -98c0 -28 5 -46 21 -46zM567 -8c-78 0 -135 42 -135 128c0 105 56 204 194 204c78 0 135 -42 135 -128c0 -105 -56 -204 -194 -204z" />
    <glyph glyph-name="perthousand.otab" horiz-adv-x="1179" 
d="M195 352c38 0 46 69 46 98c0 28 -5 46 -20 46c-39 0 -47 -69 -47 -98c0 -28 5 -46 21 -46zM679 547l-427 -523c-16 -20 -29 -24 -89 -24h28c-71 0 -95 6 -71 35l427 523c16 20 29 24 89 24h-28c71 0 95 -6 71 -35zM178 258c-78 0 -135 42 -135 128c0 105 56 204 194 204
c78 0 135 -42 135 -128c0 -105 -56 -204 -194 -204zM584 86c38 0 46 69 46 98c0 28 -5 46 -20 46c-39 0 -47 -69 -47 -98c0 -28 5 -46 21 -46zM567 -8c-78 0 -135 42 -135 128c0 105 56 204 194 204c78 0 135 -42 135 -128c0 -105 -56 -204 -194 -204zM944 86
c38 0 46 69 46 98c0 28 -5 46 -20 46c-39 0 -47 -69 -47 -98c0 -28 5 -46 21 -46zM927 -8c-78 0 -135 42 -135 128c0 105 56 204 194 204c78 0 135 -42 135 -128c0 -105 -56 -204 -194 -204z" />
    <glyph glyph-name="zero.lprop" horiz-adv-x="593" 
d="M334 602c-93 0 -144 -212 -144 -354c-1 -88 22 -130 67 -130c94 0 145 213 145 354c1 88 -22 130 -68 130zM355 730c137 0 215 -88 213 -263c0 -191 -87 -477 -333 -477c-135 0 -211 87 -211 259c0 190 83 481 331 481z" />
    <glyph glyph-name="one.lprop" horiz-adv-x="528" 
d="M95 623l174 78c35 16 53 19 84 19h21c43 0 49 -5 46 -22l-81 -578h101c13 0 15 -3 10 -55l-1 -10c-5 -48 -10 -55 -22 -55h-381c-14 0 -17 6 -9 55l2 12c8 49 11 53 26 53h113l61 436l-107 -45c-19 -8 -26 -3 -40 38l-5 15c-13 38 -10 51 8 59z" />
    <glyph glyph-name="two.lprop" horiz-adv-x="521" 
d="M103 594l-7 15c-18 38 -16 48 2 59c54 33 135 62 209 62c135 0 197 -66 197 -160c0 -146 -123 -264 -245 -383l-58 -58h229c17 0 18 -5 10 -58l-3 -19c-7 -46 -10 -52 -25 -52h-371c-49 0 -54 3 -51 22l4 32c4 33 12 45 32 67l149 159c72 77 163 161 163 254
c0 47 -28 68 -75 68c-37 0 -84 -21 -117 -42c-16 -10 -25 -4 -43 34z" />
    <glyph glyph-name="three.lprop" horiz-adv-x="543" 
d="M135 610l-5 16c-13 36 -13 47 3 56c49 28 118 48 179 48c123 0 194 -58 194 -157c0 -81 -40 -153 -122 -188c58 -23 95 -69 95 -139c0 -69 -24 -136 -77 -187c-48 -45 -121 -69 -199 -69c-72 0 -149 24 -202 61c-11 8 -6 19 14 52l12 18c26 41 31 45 47 34
c35 -23 84 -40 125 -40c68 0 116 44 116 114c0 27 -6 43 -20 57c-21 21 -49 29 -108 29h-25c-16 0 -17 5 -10 55l1 9c7 49 11 55 26 55h29c45 0 79 8 99 24c23 17 36 47 36 85c0 41 -25 63 -66 63c-31 0 -66 -12 -104 -32c-16 -8 -24 -4 -38 36z" />
    <glyph glyph-name="four.lprop" horiz-adv-x="595" 
d="M344 720h10c67 0 76 -8 67 -25l-221 -413h102l19 107c3 19 8 22 72 22h11c62 0 73 -4 71 -22l-15 -107h68c13 0 16 -3 8 -56l-2 -14c-8 -53 -12 -57 -24 -57h-68l-19 -133c-2 -17 -15 -22 -77 -22h-13c-66 0 -70 5 -68 22l19 133h-217c-49 0 -55 4 -52 24l6 42
c4 24 7 38 17 56l230 424c7 15 17 19 76 19z" />
    <glyph glyph-name="five.lprop" horiz-adv-x="530" 
d="M180 720h309c16 0 19 -3 10 -55l-3 -18c-9 -52 -9 -56 -25 -56h-218l-18 -125h26c132 0 211 -61 211 -182c0 -77 -26 -161 -90 -221c-53 -49 -126 -73 -211 -73c-72 0 -140 25 -179 53c-10 8 -14 18 12 58l11 17c29 43 34 45 48 36c32 -21 75 -39 121 -39
c79 0 123 58 123 140c0 63 -36 93 -103 93c-32 0 -69 -5 -96 -11c-26 -6 -40 0 -37 24l48 337c3 19 11 22 61 22z" />
    <glyph glyph-name="six.lprop" horiz-adv-x="549" 
d="M503 638l-16 -24c-23 -35 -30 -37 -42 -30c-25 16 -52 23 -79 23c-35 0 -59 -13 -83 -38c-25 -27 -50 -79 -66 -141c35 20 80 35 119 35c113 0 176 -68 176 -175c0 -146 -118 -298 -284 -298c-143 0 -204 91 -204 233c0 198 108 507 354 507c58 0 110 -18 139 -43
c11 -10 5 -21 -14 -49zM195 313c-4 -27 -7 -58 -7 -88c0 -73 21 -110 62 -110c70 0 100 82 100 148c0 55 -23 78 -68 78c-26 0 -60 -12 -87 -28z" />
    <glyph glyph-name="seven.lprop" horiz-adv-x="499" 
d="M97 720h385c49 0 55 -6 52 -27l-5 -36c-3 -24 -11 -42 -29 -76l-305 -562c-8 -15 -20 -19 -81 -19h-29c-58 0 -67 5 -55 25l321 566h-272c-18 0 -18 6 -11 56l3 18c7 50 8 55 26 55z" />
    <glyph glyph-name="eight.lprop" horiz-adv-x="559" 
d="M13 157c0 90 59 161 146 209c-38 32 -62 79 -62 136c0 132 117 228 254 228c117 0 190 -56 190 -153c0 -82 -50 -143 -123 -186c63 -38 96 -85 96 -154c0 -149 -131 -247 -284 -247c-125 0 -217 57 -217 167zM249 305c-36 -26 -72 -69 -72 -121c0 -44 30 -68 75 -68
c51 0 98 29 98 90c0 48 -45 72 -101 99zM332 609c-41 0 -76 -36 -76 -82c0 -33 18 -58 65 -83c33 25 65 62 65 111c0 35 -20 54 -54 54z" />
    <glyph glyph-name="nine.lprop" horiz-adv-x="563" 
d="M47 84l17 25c23 37 30 38 43 30c24 -15 52 -25 87 -25c46 0 80 22 106 61c19 29 37 72 48 124c-37 -22 -73 -31 -115 -31c-113 0 -181 74 -181 179c0 150 116 283 276 283c155 0 211 -95 211 -232s-39 -300 -136 -411c-54 -62 -127 -97 -213 -97c-68 0 -120 18 -152 43
c-14 10 -14 17 9 51zM286 391c28 0 57 8 83 22c5 35 8 61 8 89c0 73 -23 104 -66 104c-63 0 -95 -79 -95 -139c0 -49 23 -76 70 -76z" />
    <glyph glyph-name="dollar.lprop" horiz-adv-x="557" 
d="M365 834h7c69 0 74 -6 72 -22l-12 -89c38 -8 76 -23 103 -45c18 -15 14 -25 -9 -64l-11 -19c-28 -49 -40 -48 -60 -34c-37 25 -66 39 -104 39c-46 0 -86 -29 -86 -78c0 -100 240 -107 238 -293c-1 -120 -89 -206 -208 -231l-13 -89c-2 -17 -6 -23 -78 -23h-7
c-71 0 -69 6 -67 23l13 90c-54 12 -96 33 -124 60c-14 15 -12 25 12 61l15 23c26 39 40 49 57 34c39 -32 86 -54 129 -54c50 0 104 24 104 85c0 105 -240 119 -240 289c0 109 75 197 183 221l13 94c2 16 5 22 73 22z" />
    <glyph glyph-name="cent.lprop" horiz-adv-x="529" 
d="M342 0l-14 -97c-2 -17 -6 -21 -75 -21h-9c-71 0 -69 4 -67 21l14 94c-43 10 -76 27 -99 53c-35 39 -54 93 -54 161c0 92 33 189 106 256c32 29 71 49 121 61l14 97c2 17 2 21 73 21h9c69 0 71 -4 69 -21l-14 -95c40 -10 74 -29 97 -51c12 -12 3 -23 -18 -57l-11 -18
c-27 -43 -38 -45 -53 -34c-38 28 -60 37 -101 37c-90 0 -128 -98 -128 -179c0 -68 31 -107 93 -107c38 0 69 9 107 27c24 12 31 8 42 -38l4 -15c10 -39 8 -46 -7 -55c-26 -16 -61 -31 -99 -40z" />
    <glyph glyph-name="Euro.lprop" 
d="M88 377h-48c-13 0 -16 3 -9 49l1 7c6 45 9 47 23 47h61c53 152 162 250 314 250c80 0 131 -18 181 -55c10 -8 11 -15 -19 -59l-12 -18c-33 -47 -41 -42 -57 -31c-30 21 -58 32 -99 32c-61 0 -110 -44 -139 -119h150c14 0 14 -2 9 -46l-1 -9c-5 -45 -9 -48 -23 -48h-164
c-3 -14 -5 -26 -6 -43h163c14 0 14 -2 9 -48l-1 -9c-5 -44 -8 -47 -22 -47h-149c5 -60 39 -108 107 -108c47 0 81 10 126 31c14 7 21 7 34 -33l6 -19c13 -41 10 -47 -7 -57c-61 -35 -117 -54 -190 -54c-164 0 -240 90 -248 240h-57c-14 0 -17 4 -10 50l1 7c6 45 9 47 23 47
h47c1 13 4 32 6 43z" />
    <glyph glyph-name="florin.lprop" 
d="M184 457h63l15 55c40 149 120 218 259 218c40 0 74 -7 99 -15c16 -5 16 -14 -3 -57l-7 -16c-19 -44 -25 -48 -39 -44c-19 5 -37 8 -58 8c-48 0 -74 -26 -93 -100l-13 -49h98c20 0 21 -4 6 -57l-2 -7c-15 -53 -20 -55 -35 -55h-101l-60 -229c-37 -138 -117 -219 -259 -219
c-35 0 -73 8 -95 17c-16 6 -14 15 6 61l3 7c19 49 25 54 41 49c19 -6 39 -9 53 -9c48 0 69 23 91 99l62 224h-61c-16 0 -18 6 -3 60l2 7c14 50 18 52 31 52z" />
    <glyph glyph-name="sterling.lprop" 
d="M97 431h61l8 51c21 149 105 248 259 248c51 0 100 -11 132 -30c16 -11 13 -23 -4 -57l-9 -18c-22 -41 -31 -45 -47 -37c-22 11 -43 17 -71 17c-58 0 -85 -43 -95 -113l-9 -61h146c14 0 16 -2 9 -56l-1 -7c-8 -55 -13 -56 -24 -56h-147l-5 -36c-9 -67 -28 -117 -61 -149
h239c18 0 19 -2 11 -59l-1 -7c-7 -54 -10 -61 -28 -61h-414c-19 0 -23 -1 -16 53l1 8c5 41 12 52 31 62c47 24 63 68 74 148l6 41h-61c-11 0 -16 3 -8 58l1 7c8 54 12 54 23 54z" />
    <glyph glyph-name="yen.lprop" 
d="M464 231h-106l-4 -28h106c20 0 23 -4 16 -50l-1 -7c-6 -45 -10 -47 -30 -47h-106l-11 -77c-2 -17 -20 -22 -82 -22h-10c-66 0 -76 5 -74 22l11 77h-106c-20 0 -23 3 -16 49l1 7c6 45 10 48 30 48h106l4 28h-106c-20 0 -22 4 -16 49l1 7c6 45 9 48 29 48h78l-123 357
c-6 19 3 28 76 28h22c60 0 76 -5 81 -20l46 -135c14 -42 25 -83 33 -137c23 54 45 95 70 137l81 136c8 14 16 19 77 19h22c64 0 74 -8 63 -27l-227 -358h79c20 0 23 -3 17 -48l-1 -7c-7 -46 -10 -49 -30 -49z" />
    <glyph glyph-name="numbersign.lprop" horiz-adv-x="589" 
d="M275 428l-45 -132h97l45 132h-97zM442 296h54c17 0 21 -4 13 -53l-1 -6c-8 -47 -14 -49 -27 -49h-76h-1l-61 -177c-2 -7 -8 -11 -49 -11h-20c-42 0 -46 4 -44 11l61 177h-97l-62 -177c-3 -7 -7 -11 -49 -11h-20c-41 0 -45 4 -43 11l60 177h-56c-13 0 -19 3 -13 50l1 8
c6 48 10 50 27 50h78l44 132h-54c-13 0 -18 5 -12 52l1 8c6 48 10 48 27 48h76l58 170c3 10 8 14 49 14h20c42 0 47 -4 44 -14l-58 -170h97l60 173c2 7 6 11 48 11h20c41 0 46 -4 43 -14l-57 -170h57c14 0 19 -5 11 -51l-1 -6c-8 -50 -13 -51 -26 -51h-78z" />
    <glyph glyph-name="percent.lprop" horiz-adv-x="961" 
d="M730 301c-56 0 -71 -100 -71 -145c-2 -46 11 -66 36 -66c58 0 71 105 71 151c1 43 -13 60 -36 60zM745 401c91 0 153 -51 153 -155c0 -121 -75 -256 -218 -256c-90 0 -153 51 -153 155c0 123 73 256 218 256zM754 720h2c73 0 72 -7 56 -28l-513 -672
c-13 -17 -31 -20 -84 -20h-5c-59 0 -69 8 -53 28l515 672c12 16 26 20 82 20zM280 630c-56 0 -71 -100 -71 -145c0 -46 11 -66 36 -66c58 0 71 105 71 151c0 43 -13 60 -36 60zM295 730c91 0 153 -51 153 -155c0 -121 -75 -256 -218 -256c-90 0 -153 51 -153 155
c0 123 73 256 218 256z" />
    <glyph glyph-name="perthousand.lprop" horiz-adv-x="1366" 
d="M730 301c-56 0 -71 -100 -71 -145c0 -46 11 -66 36 -66c58 0 71 105 71 151c0 43 -13 60 -36 60zM745 401c91 0 153 -51 153 -155c0 -121 -75 -256 -218 -256c-90 0 -153 51 -153 155c0 123 73 256 218 256zM754 720h2c73 0 72 -7 56 -28l-513 -672
c-13 -17 -31 -20 -84 -20h-5c-59 0 -69 8 -53 28l515 672c12 16 26 20 82 20zM280 630c-56 0 -71 -100 -71 -145c0 -46 11 -66 36 -66c58 0 71 105 71 151c0 43 -13 60 -36 60zM295 730c91 0 153 -51 153 -155c0 -121 -75 -256 -218 -256c-90 0 -153 51 -153 155
c0 123 73 256 218 256zM1135 301c-56 0 -71 -100 -71 -145c0 -46 11 -66 36 -66c58 0 71 105 71 151c0 43 -13 60 -36 60zM1150 401c91 0 153 -51 153 -155c0 -121 -75 -256 -218 -256c-90 0 -153 51 -153 155c0 123 73 256 218 256z" />
    <glyph glyph-name="zero.oprop" horiz-adv-x="566" 
d="M310 472c-100 -1 -124 -172 -124 -251c0 -61 19 -111 72 -111c98 0 122 171 122 250c0 61 -19 112 -70 112zM244 -10c-121 0 -223 71 -223 236c0 129 67 365 308 365c114 0 216 -71 216 -236c0 -129 -67 -365 -301 -365z" />
    <glyph glyph-name="one.oprop" horiz-adv-x="580" 
d="M97 112h109l51 325l-106 -31c-19 -6 -22 -4 -41 33l-4 7c-23 40 -14 55 4 61l172 60c35 12 53 15 84 15h21c43 0 49 -6 46 -27l-65 -443h97c21 0 24 -8 15 -54l-1 -5c-8 -50 -9 -53 -29 -53h-368c-21 0 -24 8 -15 54l1 5c8 50 9 53 29 53z" />
    <glyph glyph-name="two.oprop" 
d="M433 0h-371c-49 0 -55 1 -52 25l3 25c4 35 12 44 31 59l210 162c58 45 90 85 90 131c0 45 -27 68 -71 68c-42 0 -89 -22 -120 -40c-17 -10 -22 -7 -45 36l-4 7c-27 48 -21 54 -3 64c59 33 129 54 207 54c137 0 201 -75 201 -157c0 -89 -46 -158 -153 -238l-102 -77h193
c17 0 21 -5 12 -59l-2 -10c-8 -39 -9 -50 -24 -50z" />
    <glyph glyph-name="three.oprop" horiz-adv-x="543" 
d="M104 472l-5 16c-13 36 -13 47 3 56c49 28 118 48 179 48c123 0 194 -58 194 -157c0 -81 -40 -153 -122 -188c58 -23 95 -69 95 -139c0 -69 -24 -136 -77 -187c-48 -45 -121 -69 -199 -69c-72 0 -149 24 -202 61c-11 8 -6 19 14 52l12 18c26 41 31 45 47 34
c35 -23 84 -40 125 -40c68 0 116 44 116 114c0 27 -6 43 -20 57c-21 21 -49 29 -108 29h-25c-16 0 -17 5 -10 55l1 9c7 49 11 55 26 55h29c45 0 79 8 99 24c23 17 36 47 36 85c0 41 -25 63 -66 63c-31 0 -66 -12 -104 -32c-16 -8 -24 -4 -38 36z" />
    <glyph glyph-name="four.oprop" horiz-adv-x="595" 
d="M344 582h10c67 0 76 -8 67 -25l-221 -413h102l19 107c3 19 8 22 72 22h11c62 0 73 -4 71 -22l-15 -107h68c13 0 16 -3 8 -56l-2 -14c-8 -53 -12 -57 -24 -57h-68l-19 -133c-2 -17 -15 -22 -77 -22h-13c-66 0 -70 5 -68 22l19 133h-217c-49 0 -55 4 -52 24l6 42
c4 24 7 38 17 56l230 424c7 15 17 19 76 19z" />
    <glyph glyph-name="five.oprop" horiz-adv-x="530" 
d="M168 582h309c16 0 19 -3 10 -55l-3 -18c-9 -52 -9 -56 -25 -56h-218l-18 -125h26c132 0 211 -61 211 -182c0 -77 -26 -161 -90 -221c-53 -49 -126 -73 -211 -73c-72 0 -140 25 -179 53c-10 8 -14 18 12 58l11 17c29 43 34 45 48 36c32 -21 75 -39 121 -39
c79 0 123 58 123 140c0 63 -36 93 -103 93c-32 0 -69 -5 -96 -11c-26 -6 -40 0 -37 24l48 337c3 19 11 22 61 22z" />
    <glyph glyph-name="six.oprop" horiz-adv-x="549" 
d="M503 638l-16 -24c-23 -35 -30 -37 -42 -30c-25 16 -52 23 -79 23c-35 0 -59 -13 -83 -38c-25 -27 -50 -79 -66 -141c35 20 80 35 119 35c113 0 176 -68 176 -175c0 -146 -118 -298 -284 -298c-143 0 -204 91 -204 233c0 198 108 507 354 507c58 0 110 -18 139 -43
c11 -10 5 -21 -14 -49zM195 313c-4 -27 -7 -58 -7 -88c0 -73 21 -110 62 -110c70 0 100 82 100 148c0 55 -23 78 -68 78c-26 0 -60 -12 -87 -28z" />
    <glyph glyph-name="seven.oprop" horiz-adv-x="499" 
d="M77 582h385c49 0 55 -6 52 -27l-5 -36c-3 -24 -11 -42 -29 -76l-305 -562c-8 -15 -20 -19 -81 -19h-29c-58 0 -67 5 -55 25l321 566h-272c-18 0 -18 6 -11 56l3 18c7 50 8 55 26 55z" />
    <glyph glyph-name="eight.oprop" horiz-adv-x="559" 
d="M13 157c0 90 59 161 146 209c-38 32 -62 79 -62 136c0 132 117 228 254 228c117 0 190 -56 190 -153c0 -82 -50 -143 -123 -186c63 -38 96 -85 96 -154c0 -149 -131 -247 -284 -247c-125 0 -217 57 -217 167zM249 305c-36 -26 -72 -69 -72 -121c0 -44 30 -68 75 -68
c51 0 98 29 98 90c0 48 -45 72 -101 99zM332 609c-41 0 -76 -36 -76 -82c0 -33 18 -58 65 -83c33 25 65 62 65 111c0 35 -20 54 -54 54z" />
    <glyph glyph-name="nine.oprop" horiz-adv-x="563" 
d="M37 -54l17 25c23 37 30 38 43 30c24 -15 52 -25 87 -25c46 0 80 22 106 61c19 29 37 72 48 124c-37 -22 -73 -31 -115 -31c-113 0 -181 74 -181 179c0 150 116 283 276 283c155 0 211 -95 211 -232s-39 -300 -136 -411c-54 -62 -127 -97 -213 -97c-68 0 -120 18 -152 43
c-14 10 -14 17 9 51zM276 253c28 0 57 8 83 22c5 35 8 61 8 89c0 73 -23 104 -66 104c-63 0 -95 -79 -95 -139c0 -49 23 -76 70 -76z" />
    <glyph glyph-name="dollar.oprop" horiz-adv-x="542" 
d="M399 655l-10 -73c28 -6 62 -18 83 -35c19 -15 16 -23 -6 -63l-8 -13c-30 -49 -34 -48 -65 -28c-24 16 -54 29 -82 29c-41 0 -60 -21 -60 -43c0 -80 203 -98 203 -247c0 -84 -57 -162 -174 -181l-12 -74c-3 -20 -4 -24 -78 -24h-6c-63 0 -67 0 -64 24l10 75
c-44 13 -76 29 -97 51c-16 16 -17 20 10 57l13 18c33 46 41 47 58 33c39 -33 68 -49 105 -49c45 0 75 22 75 54c0 78 -205 85 -205 247c0 83 61 148 153 167l9 76c3 20 4 23 78 23h6c63 0 67 0 64 -24z" />
    <glyph glyph-name="cent.oprop" horiz-adv-x="557" 
d="M259 -20h-12c-59 0 -66 0 -62 23l11 70c-75 18 -129 72 -129 177c0 122 59 218 188 251l10 73c3 21 4 23 69 23h12c67 0 69 -3 67 -23l-11 -71c36 -8 69 -31 81 -45c10 -12 9 -14 -17 -54l-7 -11c-24 -38 -36 -40 -55 -27c-29 19 -50 25 -81 25c-76 0 -99 -73 -99 -127
c0 -52 21 -79 75 -79c36 0 63 12 85 22c34 15 35 16 45 -36l2 -11c7 -38 7 -41 -8 -49c-14 -8 -48 -24 -81 -33l-10 -75c-2 -20 -6 -23 -73 -23z" />
    <glyph glyph-name="Euro.oprop" horiz-adv-x="517" 
d="M43 302c-11 0 -14 1 -8 41l1 7c6 44 4 49 20 49h47c42 105 128 192 280 192c61 0 108 -14 151 -45c11 -7 8 -22 -16 -55l-8 -11c-30 -41 -40 -36 -63 -23c-19 11 -42 19 -71 19c-48 0 -86 -29 -112 -77h125c12 0 15 -1 9 -41l-1 -7c-6 -44 -4 -49 -20 -49h-143l-4 -32
h140c12 0 15 -1 9 -41l-1 -7c-6 -44 -4 -49 -20 -49h-125c8 -49 32 -67 77 -67c47 0 78 10 113 25c14 6 23 8 35 -31l3 -10c13 -43 8 -44 -6 -53c-51 -32 -107 -47 -164 -47c-142 0 -208 62 -220 183h-47c-11 0 -14 1 -8 41l1 7c6 44 4 49 20 49h35c1 10 2 21 4 32h-33z" />
    <glyph glyph-name="florin.oprop" horiz-adv-x="510" 
d="M181 263h-41c-25 0 -25 1 -11 50l2 7c14 50 19 51 36 51h44l12 43c38 135 105 177 229 177c38 0 55 -4 80 -12c15 -5 16 -11 4 -53l-9 -30c-7 -25 -14 -28 -36 -23c-17 4 -30 6 -44 6c-35 0 -59 -17 -73 -72l-9 -36h74c25 0 25 -1 11 -50l-2 -7c-14 -50 -19 -51 -36 -51
h-77l-47 -174c-30 -116 -102 -178 -230 -178c-31 0 -67 9 -78 13c-13 5 -13 16 -1 54l8 28c9 29 15 28 36 23c16 -4 25 -4 39 -4c30 0 60 14 75 72z" />
    <glyph glyph-name="sterling.oprop" horiz-adv-x="529" 
d="M97 351h48l6 39c17 114 90 201 229 201c44 0 93 -8 116 -23c19 -12 15 -27 -2 -57l-8 -14c-21 -37 -31 -39 -49 -31c-16 7 -33 11 -55 11c-37 0 -63 -23 -71 -72l-8 -54h120c15 0 17 -5 10 -54l-2 -14c-5 -36 -8 -40 -21 -40h-122l-3 -20c-6 -36 -17 -77 -42 -108h192
c16 0 20 -5 11 -57l-2 -10c-8 -37 -9 -48 -23 -48h-369c-16 0 -18 10 -13 43l3 19c6 39 5 38 30 48c35 13 46 57 55 109l4 24h-47c-15 0 -17 5 -10 54l2 14c5 36 8 40 21 40z" />
    <glyph glyph-name="yen.oprop" horiz-adv-x="531" 
d="M89 199c-11 0 -14 1 -8 41l1 7c6 44 4 49 20 49h46l-97 252c-8 22 3 34 74 34h17c56 0 71 -6 77 -21l29 -75c14 -37 22 -72 32 -120c21 44 38 80 66 122l50 75c9 14 16 19 74 19h22c62 0 73 -12 59 -33l-172 -253h56c12 0 15 -1 9 -41l-1 -7c-6 -44 -4 -49 -20 -49h-96
l-3 -24h96c12 0 15 -1 9 -41l-1 -7c-6 -44 -4 -49 -20 -49h-96l-6 -53c-2 -19 -20 -25 -80 -25h-8c-64 0 -74 6 -71 25l7 53h-80c-11 0 -14 1 -8 41l1 7c6 44 4 49 20 49h81l4 24h-83z" />
    <glyph glyph-name="numbersign.oprop" horiz-adv-x="538" 
d="M114 431h67l49 137c4 11 8 14 44 14h17c36 0 41 -4 37 -15l-49 -136h84l50 142c2 5 6 9 42 9h17c35 0 40 -4 36 -15l-48 -136h52c8 0 13 -5 9 -28l-5 -28c-4 -26 -9 -31 -20 -31h-67l-37 -105h53c8 0 13 -5 9 -28l-5 -28c-4 -26 -9 -31 -20 -31h-68l-50 -143
c-2 -5 -7 -9 -43 -9h-17c-36 0 -40 3 -38 9l50 143h-83l-51 -143c-2 -6 -6 -9 -42 -9h-17c-35 0 -39 3 -37 9l50 143h-52c-8 0 -13 5 -9 28l5 28c4 26 9 31 20 31h67l37 105h-53c-8 0 -13 5 -9 28l5 28c4 26 9 31 20 31zM248 344l-37 -105h83l38 105h-84z" />
    <glyph glyph-name="percent.oprop" horiz-adv-x="819" 
d="M195 352c38 0 46 69 46 98c0 28 -5 46 -20 46c-39 0 -47 -69 -47 -98c0 -28 5 -46 21 -46zM679 547l-427 -523c-16 -20 -29 -24 -89 -24h28c-71 0 -95 6 -71 35l427 523c16 20 29 24 89 24h-28c71 0 95 -6 71 -35zM178 258c-78 0 -135 42 -135 128c0 105 56 204 194 204
c78 0 135 -42 135 -128c0 -105 -56 -204 -194 -204zM584 86c38 0 46 69 46 98c0 28 -5 46 -20 46c-39 0 -47 -69 -47 -98c0 -28 5 -46 21 -46zM567 -8c-78 0 -135 42 -135 128c0 105 56 204 194 204c78 0 135 -42 135 -128c0 -105 -56 -204 -194 -204z" />
    <glyph glyph-name="perthousand.oprop" horiz-adv-x="1179" 
d="M195 352c38 0 46 69 46 98c0 28 -5 46 -20 46c-39 0 -47 -69 -47 -98c0 -28 5 -46 21 -46zM679 547l-427 -523c-16 -20 -29 -24 -89 -24h28c-71 0 -95 6 -71 35l427 523c16 20 29 24 89 24h-28c71 0 95 -6 71 -35zM178 258c-78 0 -135 42 -135 128c0 105 56 204 194 204
c78 0 135 -42 135 -128c0 -105 -56 -204 -194 -204zM584 86c38 0 46 69 46 98c0 28 -5 46 -20 46c-39 0 -47 -69 -47 -98c0 -28 5 -46 21 -46zM567 -8c-78 0 -135 42 -135 128c0 105 56 204 194 204c78 0 135 -42 135 -128c0 -105 -56 -204 -194 -204zM944 86
c38 0 46 69 46 98c0 28 -5 46 -20 46c-39 0 -47 -69 -47 -98c0 -28 5 -46 21 -46zM927 -8c-78 0 -135 42 -135 128c0 105 56 204 194 204c78 0 135 -42 135 -128c0 -105 -56 -204 -194 -204z" />
    <glyph glyph-name="a.sup" horiz-adv-x="397" 
d="M298 305h-3c-50 0 -54 2 -54 21v7c-18 -22 -51 -35 -79 -35c-69 0 -123 35 -123 135c0 135 81 232 179 232c36 0 58 -12 73 -27l1 5c3 9 2 16 47 16h7c46 0 58 -4 55 -20l-18 -103l-11 -71c-3 -19 -13 -100 -16 -135c-2 -18 -1 -25 -58 -25zM242 433l16 120
c-4 6 -14 14 -28 14c-36 0 -61 -55 -61 -120c0 -32 9 -54 33 -54c21 0 36 12 40 40z" />
    <glyph glyph-name="b.sup" horiz-adv-x="391" 
d="M43 346l63 447c2 15 8 21 53 21h13c47 0 63 -2 61 -20l-22 -152c22 15 47 23 79 23c70 0 110 -52 110 -131c0 -153 -86 -236 -217 -236c-67 0 -120 17 -133 29c-8 7 -8 13 -7 19zM195 530l-20 -134c4 -2 12 -3 20 -3c39 0 75 22 75 125c0 36 -9 50 -34 50
c-11 0 -18 -2 -26 -7s-13 -15 -15 -31z" />
    <glyph glyph-name="c.sup" horiz-adv-x="325" 
d="M309 382l3 -10c8 -26 6 -36 -2 -42c-26 -21 -77 -32 -120 -32c-81 0 -151 40 -151 145c0 51 17 116 61 161c37 38 92 61 153 61c46 0 84 -13 100 -29c7 -7 5 -12 -17 -41l-9 -12c-22 -29 -29 -33 -37 -28c-9 6 -21 13 -44 13c-15 0 -33 -3 -49 -19
c-22 -23 -29 -65 -28 -91c1 -42 18 -62 53 -62c24 0 46 9 55 13c16 7 22 7 32 -27z" />
    <glyph glyph-name="d.sup" horiz-adv-x="397" 
d="M383 364l-3 -22c-3 -22 -5 -25 -18 -31c-14 -6 -33 -8 -50 -8c-32 0 -56 15 -62 34c-19 -23 -54 -39 -89 -39c-76 0 -122 47 -122 135c0 40 8 108 51 166c32 43 80 66 130 66c27 0 45 -8 56 -16l21 145c2 15 5 20 64 20h4c52 0 58 -5 56 -21l-54 -381
c-2 -13 -1 -16 9 -16c11 -1 11 -7 7 -32zM246 441l16 114c-7 8 -18 13 -31 13c-34 0 -64 -45 -64 -117c0 -39 10 -55 37 -55c14 0 25 5 31 12c7 9 9 19 11 33z" />
    <glyph glyph-name="e.sup" horiz-adv-x="381" 
d="M340 405l8 -35c7 -28 7 -32 -12 -41c-50 -23 -90 -31 -132 -31c-103 0 -165 58 -165 154c0 122 80 213 210 213c93 0 142 -58 142 -148c0 -62 -7 -76 -31 -76h-191c3 -29 23 -46 61 -46c28 0 54 5 93 23c8 4 14 0 17 -13zM177 512h91c2 27 -2 63 -32 63
c-23 0 -49 -21 -59 -63z" />
    <glyph glyph-name="f.sup" horiz-adv-x="243" 
d="M81 578h-30c-12 0 -16 4 -11 36l1 6c5 32 8 39 22 39h28l3 14c10 44 25 81 50 107c27 28 67 41 116 41c30 0 67 -7 78 -12c9 -5 5 -13 -7 -44l-3 -8c-15 -34 -19 -37 -28 -35c-12 3 -25 5 -36 5c-15 0 -23 -4 -30 -11s-13 -20 -16 -46l-1 -11h62c12 0 16 -4 11 -36l-1 -6
c-5 -32 -8 -39 -22 -39h-61l-60 -417c-2 -15 -9 -20 -65 -20h-3c-59 0 -59 4 -57 20z" />
    <glyph glyph-name="g.sup" horiz-adv-x="399" 
d="M234 319l2 11c-19 -11 -43 -20 -73 -20c-83 0 -124 44 -124 138c0 38 12 108 62 164c33 37 78 53 126 53c37 0 67 -15 80 -37l6 20c2 8 4 11 39 11h17c29 0 35 -4 35 -17c0 -11 -8 -39 -18 -106l-29 -203c-11 -77 -36 -115 -59 -137c-39 -37 -81 -47 -134 -47
c-56 0 -99 17 -117 30c-8 6 -6 11 10 42l12 22c14 28 18 27 34 19c14 -7 41 -17 65 -17c36 0 55 14 66 74zM245 434l16 119c-6 9 -17 15 -28 15c-15 0 -33 -7 -44 -28c-12 -22 -20 -53 -20 -89c0 -33 12 -50 40 -50c23 0 33 14 36 33z" />
    <glyph glyph-name="h.sup" horiz-adv-x="399" 
d="M299 305h-3c-39 0 -62 0 -59 21l24 165c4 30 6 42 6 48c0 18 -13 27 -31 27c-11 0 -25 -2 -35 -17c-8 -13 -9 -31 -16 -83l-20 -141c-2 -15 -6 -20 -64 -20h-3c-50 0 -60 2 -58 20l67 469c2 16 8 20 55 20h8c45 0 64 -9 62 -20l-23 -152c18 14 53 23 79 23
c38 0 71 -17 87 -43c12 -20 17 -43 17 -70c0 -9 -1 -17 -2 -26l-28 -201c-2 -15 -7 -20 -63 -20z" />
    <glyph glyph-name="i.sup" horiz-adv-x="210" 
d="M110 305h-4c-60 0 -61 5 -59 21l44 312c2 15 2 21 68 21h4c50 0 55 -5 53 -21l-44 -313c-1 -14 -6 -20 -62 -20zM96 740c0 41 38 82 83 82c39 0 64 -28 64 -62c0 -42 -38 -82 -84 -82c-38 0 -63 28 -63 62z" />
    <glyph glyph-name="j.sup" horiz-adv-x="251" 
d="M78 296l47 342c2 15 3 21 61 21h9c51 0 59 -5 57 -20l-47 -328c-8 -59 -28 -98 -62 -128c-29 -25 -65 -34 -99 -34c-33 0 -60 7 -71 12c-12 5 -8 14 2 41l8 22c7 21 13 25 29 22c10 -2 20 -3 30 -3c20 0 31 15 36 53zM131 740c0 41 38 82 83 82c39 0 64 -28 64 -62
c0 -42 -38 -82 -84 -82c-38 0 -63 28 -63 62z" />
    <glyph glyph-name="k.sup" horiz-adv-x="374" 
d="M304 305h-2c-50 0 -61 4 -65 13l-57 117l-14 -109c-2 -15 -7 -21 -65 -21h-7c-52 0 -56 5 -54 20l67 469c2 15 2 20 59 20h9c49 0 60 -4 58 -20l-34 -233c29 31 45 49 72 84c8 10 20 14 59 14c60 0 69 -7 56 -27c-16 -24 -72 -87 -116 -129l95 -166c9 -16 1 -32 -61 -32z
" />
    <glyph glyph-name="l.sup" horiz-adv-x="195" 
d="M196 354l-1 -8c-4 -30 -7 -34 -15 -37s-22 -7 -59 -7c-31 0 -54 10 -65 23c-11 14 -15 30 -15 47c0 12 2 25 4 38l29 206c7 47 17 156 19 179c1 13 0 19 58 19h6c54 0 63 -5 63 -17c0 -31 -13 -116 -23 -196l-23 -177c-4 -30 0 -31 10 -31h4c13 0 13 0 8 -39z" />
    <glyph glyph-name="m.sup" horiz-adv-x="591" 
d="M430 325l24 166c3 23 6 36 6 48c0 16 -9 27 -26 27c-13 0 -25 -2 -35 -17c-8 -13 -9 -31 -13 -59l-23 -165c-2 -15 -9 -20 -65 -20h-7c-61 0 -55 5 -53 20l24 166c3 23 6 36 6 48c0 16 -9 27 -26 27c-13 0 -25 -2 -35 -17c-8 -13 -9 -31 -13 -59l-23 -165
c-2 -15 -8 -20 -64 -20h-9c-61 0 -54 5 -52 21l24 172c6 44 12 103 14 137c1 18 2 24 53 24h10c45 0 51 -1 50 -9l-2 -19c21 19 58 34 91 34c32 0 62 -7 85 -36c24 19 67 36 104 36c44 0 77 -14 95 -43c13 -21 17 -44 17 -65c0 -16 -3 -40 -7 -67l-23 -165
c-2 -15 -6 -20 -62 -20h-10c-55 0 -57 4 -55 20z" />
    <glyph glyph-name="n.sup" horiz-adv-x="404" 
d="M305 305h-3c-62 0 -63 5 -60 21l23 165c3 22 6 36 6 48c0 18 -11 27 -29 27c-12 0 -25 -2 -35 -17c-8 -13 -9 -31 -13 -60l-23 -164c-2 -15 -6 -20 -64 -20h-3c-59 0 -60 5 -58 21l24 172c6 44 12 103 14 137c1 18 2 24 52 24h9c53 0 56 -7 53 -22l-1 -6
c23 17 55 34 97 34c39 0 73 -19 87 -43c12 -20 17 -44 17 -65c0 -13 -1 -22 -2 -31l-28 -201c-2 -15 -7 -20 -63 -20z" />
    <glyph glyph-name="o.sup" horiz-adv-x="385" 
d="M203 395c47 0 60 79 60 119c0 39 -12 54 -33 54c-47 0 -60 -79 -60 -119c0 -39 12 -54 33 -54zM189 298c-95 0 -150 52 -150 148c0 107 67 219 206 219c94 0 149 -52 149 -149c0 -106 -66 -218 -205 -218z" />
    <glyph glyph-name="p.sup" horiz-adv-x="395" 
d="M83 156h-3c-55 0 -61 2 -58 21l46 321c8 58 11 100 14 143c1 14 6 18 56 18h7c42 0 50 -6 49 -14l-1 -16c25 23 56 36 91 36c77 0 120 -50 120 -133c0 -46 -11 -128 -67 -185c-33 -34 -75 -49 -109 -49c-23 0 -45 7 -58 17l-21 -139c-2 -16 -8 -20 -66 -20zM198 532
l-17 -123c8 -10 20 -15 31 -15c23 0 47 22 60 96c2 13 3 24 3 33c0 24 -6 46 -33 46c-24 0 -39 -10 -44 -37z" />
    <glyph glyph-name="q.sup" horiz-adv-x="393" 
d="M291 156h-3c-54 0 -60 1 -63 14c-3 15 0 71 9 149c-12 -11 -39 -21 -70 -21c-65 0 -125 41 -125 139c0 53 18 123 71 172c41 38 93 56 153 56c52 0 101 -14 123 -29c12 -8 12 -14 11 -20l-38 -259c-9 -64 -10 -144 -10 -178c0 -16 -1 -23 -58 -23zM249 452l16 116
c-5 1 -9 2 -21 2c-19 0 -34 -9 -46 -24c-21 -27 -28 -68 -28 -98c0 -17 2 -29 7 -38c6 -11 15 -16 29 -16c13 0 27 5 34 17c6 11 7 28 9 41z" />
    <glyph glyph-name="r.sup" horiz-adv-x="284" 
d="M107 305h-6c-58 0 -57 5 -55 21l24 172c6 44 12 103 14 137c1 21 7 24 49 24h9c36 0 52 -2 52 -20c0 -10 -1 -25 -3 -46c23 47 53 72 93 72c0 0 16 0 27 -5c13 -6 12 -12 7 -37l-3 -15c-7 -39 -8 -41 -21 -42c-33 -2 -58 -14 -75 -37c-15 -21 -29 -57 -36 -113l-12 -91
c-2 -15 -6 -20 -64 -20z" />
    <glyph glyph-name="s.sup" horiz-adv-x="318" 
d="M314 593l-9 -13c-19 -27 -26 -29 -35 -24c-20 11 -43 18 -66 18c-27 0 -35 -7 -35 -16c0 -8 5 -13 40 -24c59 -18 111 -35 111 -100c0 -21 -6 -67 -49 -101c-35 -28 -81 -35 -119 -35c-54 0 -105 17 -127 40c-9 10 -6 16 12 41l5 7c26 36 35 37 43 32
c20 -14 46 -26 74 -26c26 0 38 7 38 18c0 7 -4 12 -42 24c-41 13 -107 31 -107 103c0 26 9 55 31 79c33 36 83 49 136 49c49 0 90 -14 111 -31c9 -8 6 -13 -12 -41z" />
    <glyph glyph-name="t.sup" horiz-adv-x="271" 
d="M214 578l-23 -152c-4 -25 2 -33 19 -33c11 0 18 2 28 5c14 4 18 6 23 -29l2 -15c4 -31 3 -35 -19 -43c-28 -10 -53 -13 -81 -13c-43 0 -69 13 -85 34c-10 14 -15 35 -15 55c0 15 1 25 4 47l21 144h-34c-12 0 -16 4 -11 36l1 6c5 32 8 39 22 39h32l11 75c2 16 3 22 60 22
h7c51 0 60 -5 57 -22l-10 -75h59c12 0 16 -4 11 -36l-1 -6c-5 -32 -8 -39 -22 -39h-56z" />
    <glyph glyph-name="u.sup" horiz-adv-x="398" 
d="M143 659h3c62 0 62 -5 60 -21l-23 -165c-3 -22 -6 -36 -6 -48c0 -18 11 -27 29 -27c12 0 25 2 35 17c8 13 9 31 13 60l23 164c2 15 6 20 64 20h3c59 0 60 -5 58 -21l-24 -172c-6 -44 -12 -103 -14 -137c-1 -18 -2 -24 -52 -24h-9c-53 0 -56 7 -53 22l1 6
c-23 -20 -50 -34 -97 -34c-39 0 -73 19 -87 43c-12 20 -17 44 -17 65c0 13 1 22 2 31l28 201c2 15 7 20 63 20z" />
    <glyph glyph-name="v.sup" horiz-adv-x="383" 
d="M208 305h-28c-45 0 -52 3 -55 15l-73 312c-4 15 -4 27 56 27h8c53 0 59 -4 61 -18l21 -124c5 -34 8 -68 9 -111c43 104 67 156 92 235c3 10 12 18 56 18h7c45 0 55 -6 49 -22c-24 -67 -77 -196 -143 -312c-12 -20 -20 -20 -60 -20z" />
    <glyph glyph-name="w.sup" horiz-adv-x="537" 
d="M375 305h-8c-57 0 -53 3 -55 17l-6 77c-4 40 -8 75 -3 149c-18 -74 -31 -109 -46 -147l-30 -81c-4 -8 -11 -15 -64 -15h-9c-51 0 -60 5 -61 17l-42 311c-2 18 -1 26 58 26h6c48 0 56 -6 57 -19l9 -103c3 -33 6 -66 2 -110c10 45 18 71 27 97l38 117c6 16 18 18 69 18h7
c48 0 60 -4 61 -21l5 -114l5 -101c17 64 43 173 52 216c3 13 6 20 59 20h5c46 0 59 -5 55 -23c-11 -49 -86 -239 -131 -316c-8 -13 -13 -15 -60 -15z" />
    <glyph glyph-name="x.sup" horiz-adv-x="346" 
d="M9 334l128 146l-84 150c-12 24 9 29 62 29h5c50 0 53 -5 59 -16l31 -70l50 71c9 12 12 14 51 15c72 0 83 -5 69 -22l-127 -149l92 -159c12 -22 -4 -24 -67 -24h-4c-49 0 -56 1 -61 13l-33 73l-51 -71c-8 -10 -21 -15 -71 -15c-54 1 -61 14 -49 29z" />
    <glyph glyph-name="y.sup" horiz-adv-x="364" 
d="M132 299l-67 333c-3 15 2 27 64 27h9c52 0 54 -4 56 -17l10 -73c5 -35 9 -74 10 -142c15 64 32 104 46 142l27 72c4 12 6 18 56 18h8c67 0 67 -9 58 -27l-151 -318c-56 -118 -104 -165 -205 -165c-28 0 -56 7 -72 18c-10 7 -3 17 7 41l10 25c10 25 17 24 31 18
c6 -3 20 -8 35 -8c27 0 53 24 68 56z" />
    <glyph glyph-name="z.sup" horiz-adv-x="328" 
d="M107 659h212c41 0 41 -1 40 -15l-3 -28c-2 -13 -4 -22 -17 -38l-150 -183h119c14 0 17 -4 13 -40l-1 -8c-4 -35 -9 -42 -25 -42h-247c-20 0 -26 4 -24 19l3 23c2 16 6 25 17 38l153 184h-103c-14 0 -17 4 -13 40l1 8c4 35 9 42 25 42z" />
    <glyph glyph-name="ordfeminine" unicode="&#xaa;" horiz-adv-x="417" 
d="M229 732c37 0 61 -13 73 -36l4 15c3 10 12 14 49 14h13c44 0 51 -4 49 -16c-11 -68 -16 -106 -21 -139l-5 -39c-7 -49 -14 -106 -16 -141c-1 -14 -3 -18 -48 -18h-12c-50 0 -53 3 -54 13l-1 18c-21 -25 -50 -38 -84 -38c-78 0 -125 55 -125 142c0 104 67 225 178 225z
M264 516l14 103c-8 10 -18 16 -33 16c-54 0 -64 -81 -64 -124c0 -34 11 -52 37 -52c15 0 23 4 30 12c8 9 13 24 16 45z" />
    <glyph glyph-name="ordmasculine" unicode="&#xba;" horiz-adv-x="415" 
d="M242 636c-50 0 -63 -79 -63 -122c0 -36 11 -53 34 -53c46 0 61 74 61 120c0 38 -10 55 -32 55zM258 732c91 0 144 -48 144 -139c0 -117 -66 -228 -204 -228c-94 0 -147 48 -147 139c0 117 66 228 207 228z" />
    <glyph glyph-name="zero.sup" horiz-adv-x="409" 
d="M220 470c45 0 62 151 62 187c0 37 -9 51 -27 51c-46 0 -62 -149 -62 -186c0 -39 9 -52 27 -52zM271 800c85 0 141 -57 141 -155c0 -70 -28 -267 -202 -267c-94 0 -147 58 -147 157c0 66 23 265 208 265z" />
    <glyph glyph-name="onesuperior" unicode="&#xb9;" horiz-adv-x="409" 
d="M303 474h49c15 0 16 -3 11 -38l-2 -14c-5 -33 -8 -34 -24 -34h-232c-15 0 -16 3 -11 38l2 14c5 33 8 34 24 34h54l27 189l-42 -16c-17 -7 -21 -3 -26 9l-18 59c-4 12 1 18 14 23l100 42c22 9 35 10 65 10h7c40 0 47 -4 44 -23z" />
    <glyph glyph-name="twosuperior" unicode="&#xb2;" horiz-adv-x="409" 
d="M320 388h-218c-43 0 -46 0 -44 20l2 18c3 29 13 36 22 45l137 137c32 32 45 54 45 75c0 14 -10 23 -26 23c-21 0 -46 -13 -65 -25c-10 -7 -15 -8 -22 3l-25 43c-10 17 -12 20 10 34c41 26 92 39 138 39c76 0 116 -50 116 -99c0 -46 -18 -83 -83 -148l-75 -75l101 1
c20 0 17 -4 10 -47l-1 -6c-5 -29 -6 -38 -22 -38z" />
    <glyph glyph-name="threesuperior" unicode="&#xb3;" horiz-adv-x="409" 
d="M163 640h25c53 0 70 19 70 46c0 20 -14 26 -30 26c-20 0 -38 -5 -61 -17c-12 -6 -18 0 -28 24l-4 9c-12 28 -14 35 1 42c39 19 81 30 129 30c64 0 112 -36 112 -88c0 -29 -20 -81 -72 -109c35 -14 58 -49 58 -92c0 -70 -62 -133 -163 -133c-68 0 -124 22 -140 45
c-6 8 -3 13 14 37l12 17c17 24 23 20 32 14c21 -14 41 -24 66 -24c34 0 51 19 51 48c0 16 -5 25 -15 31c-12 7 -23 9 -54 9h-15c-19 0 -16 6 -10 44l1 6c5 27 6 35 21 35z" />
    <glyph glyph-name="four.sup" horiz-adv-x="409" 
d="M365 559h23c17 0 16 -3 12 -33l-3 -20c-5 -34 -6 -37 -22 -37h-23l-8 -58c-2 -17 -8 -23 -58 -23h-17c-47 0 -47 6 -45 23l8 58h-122c-44 0 -49 5 -45 27l5 27c4 23 5 26 10 34l120 217c7 11 14 16 57 16c56 0 58 -9 47 -28l-105 -203h46l6 41c3 21 4 22 54 22h14
c50 0 55 -4 52 -23z" />
    <glyph glyph-name="five.sup" horiz-adv-x="408" 
d="M372 699h-123l-6 -45c93 0 139 -35 139 -114c0 -106 -84 -162 -191 -162c-51 0 -97 19 -120 36c-15 11 -14 17 2 38l23 31c15 21 21 20 32 12c23 -18 43 -27 71 -27c32 0 54 23 54 58c0 27 -18 40 -48 40c-20 0 -37 -3 -51 -6c-39 -8 -45 -1 -41 32l26 182
c2 13 10 16 38 16h208c20 0 17 -4 10 -47l-1 -6c-5 -31 -8 -38 -22 -38z" />
    <glyph glyph-name="six.sup" horiz-adv-x="409" 
d="M300 712c-14 0 -28 -2 -40 -14c-14 -14 -25 -34 -34 -59c30 11 56 12 65 12c73 0 110 -40 110 -105c0 -74 -47 -168 -184 -168c-87 0 -135 64 -135 153c0 133 63 269 229 269c37 0 73 -11 90 -27c6 -6 5 -8 -12 -36l-16 -25c-12 -19 -18 -21 -30 -13c-11 7 -26 13 -43 13
zM250 564c-11 0 -23 -3 -41 -12v-23c0 -42 6 -60 29 -60c25 0 38 33 38 58c0 27 -9 37 -26 37z" />
    <glyph glyph-name="seven.sup" horiz-adv-x="409" 
d="M141 790h225c47 0 51 -3 47 -26l-2 -11c-3 -21 -9 -35 -18 -50l-175 -298c-6 -11 -14 -17 -63 -17h-11c-63 0 -67 5 -52 29l176 282h-140c-20 0 -17 4 -10 47l1 6c5 29 6 38 22 38z" />
    <glyph glyph-name="eight.sup" horiz-adv-x="408" 
d="M72 476c0 54 31 90 81 118c-18 18 -31 42 -31 73c0 84 74 133 165 133c78 0 127 -41 127 -91c0 -46 -25 -78 -74 -105c32 -21 59 -48 59 -90c0 -59 -55 -136 -179 -136c-97 0 -148 43 -148 98zM273 499c0 17 -23 30 -50 46c-17 -14 -26 -30 -26 -49c0 -17 13 -27 37 -27
c25 0 39 16 39 30zM235 684c0 -14 12 -26 30 -37c21 13 34 29 34 44c0 10 -7 22 -28 22c-25 0 -36 -14 -36 -29z" />
    <glyph glyph-name="nine.sup" horiz-adv-x="409" 
d="M189 466c14 0 28 2 44 17c12 12 23 31 31 56c-31 -11 -57 -12 -66 -12c-76 0 -110 49 -110 105c0 74 47 168 178 168c89 0 141 -73 141 -153c0 -133 -63 -270 -229 -270c-41 0 -79 12 -100 33c-6 6 -6 8 12 36l16 25c13 21 18 21 30 13c16 -10 35 -18 53 -18zM239 614
c10 0 22 3 40 11c0 11 1 23 1 35c0 34 -6 49 -27 49c-27 0 -40 -33 -40 -58c0 -27 8 -37 26 -37z" />
    <glyph glyph-name="plus.sup" horiz-adv-x="409" 
d="M371 535h-81l-11 -67c-3 -16 -5 -22 -58 -22h-7c-51 0 -53 6 -50 22l11 67h-82c-20 0 -17 4 -10 48l1 6c5 29 6 38 22 38h81l12 77c2 16 4 23 55 23h7c53 0 55 -7 53 -23l-11 -77h81c20 0 17 -4 10 -48l-1 -6c-5 -29 -6 -38 -22 -38z" />
    <glyph glyph-name="minus.sup" horiz-adv-x="408" 
d="M101 627h278c20 0 17 -4 10 -48l-1 -6c-5 -29 -6 -38 -22 -38h-278c-20 0 -17 4 -10 48l1 6c5 29 6 38 22 38z" />
    <glyph glyph-name="equal.sup" horiz-adv-x="409" 
d="M121 687h253c20 0 17 -4 10 -48l-1 -6c-5 -29 -6 -38 -22 -38h-253c-20 0 -17 4 -10 48l1 6c5 29 6 38 22 38zM103 567h253c20 0 17 -4 10 -48l-1 -6c-5 -29 -6 -38 -22 -38h-253c-20 0 -17 4 -10 48l1 6c5 29 6 38 22 38z" />
    <glyph glyph-name="parenleft.sup" horiz-adv-x="306" 
d="M209 324l-14 -7c-38 -19 -45 -19 -56 -6c-53 64 -74 141 -74 196c0 123 46 208 155 312c15 14 22 11 58 -8l8 -4c35 -18 39 -24 18 -45c-90 -97 -106 -171 -106 -254c0 -56 16 -97 40 -146c7 -16 6 -20 -29 -38z" />
    <glyph glyph-name="parenright.sup" horiz-adv-x="306" 
d="M143 807l14 7c38 19 45 19 56 6c53 -64 74 -141 74 -196c0 -123 -46 -208 -155 -312c-15 -14 -22 -11 -58 8l-8 4c-35 18 -39 24 -18 45c90 97 106 171 106 254c0 56 -16 97 -40 146c-7 16 -6 20 29 38z" />
    <glyph glyph-name="period.sup" horiz-adv-x="228" 
d="M66 434c0 35 32 69 70 69c33 0 54 -23 54 -52c0 -35 -32 -69 -71 -69c-32 0 -53 24 -53 52z" />
    <glyph glyph-name="comma.sup" horiz-adv-x="245" 
d="M150 498c37 0 65 -22 65 -57c0 -27 -13 -61 -34 -88c-16 -20 -37 -45 -72 -69c-12 -8 -22 -12 -45 11l3 -3c-14 14 -16 18 -12 28c5 13 41 43 41 62c0 17 -21 26 -21 46c0 38 34 70 75 70z" />
    <glyph glyph-name="zero.sub" horiz-adv-x="409" 
d="M160 12c45 0 62 151 62 187c0 37 -9 51 -27 51c-46 0 -62 -149 -62 -186c0 -39 9 -52 27 -52zM211 342c85 0 141 -57 141 -155c0 -70 -28 -267 -202 -267c-94 0 -147 58 -147 157c0 66 23 265 208 265z" />
    <glyph glyph-name="one.sub" horiz-adv-x="409" 
d="M243 16h49c15 0 16 -3 11 -38l-2 -14c-5 -33 -8 -34 -24 -34h-232c-15 0 -16 3 -11 38l2 14c5 33 8 34 24 34h54l27 189l-42 -16c-17 -7 -21 -3 -26 9l-18 59c-4 12 1 18 14 23l100 42c22 9 35 10 65 10h7c40 0 47 -4 44 -23z" />
    <glyph glyph-name="two.sub" horiz-adv-x="409" 
d="M260 -70h-218c-43 0 -46 0 -44 20l2 18c3 29 13 36 22 45l137 137c32 32 45 54 45 75c0 14 -10 23 -26 23c-21 0 -46 -13 -65 -25c-10 -7 -15 -8 -22 3l-25 43c-10 17 -12 20 10 34c41 26 92 39 138 39c76 0 116 -50 116 -99c0 -46 -18 -83 -83 -148l-75 -75l101 1
c20 0 17 -4 10 -47l-1 -6c-5 -29 -6 -38 -22 -38z" />
    <glyph glyph-name="three.sub" horiz-adv-x="409" 
d="M103 182h25c53 0 70 19 70 46c0 20 -14 26 -30 26c-20 0 -38 -5 -61 -17c-12 -6 -18 0 -28 24l-4 9c-12 28 -14 35 1 42c39 19 81 30 129 30c64 0 112 -36 112 -88c0 -29 -20 -81 -72 -109c35 -14 58 -49 58 -92c0 -70 -62 -133 -163 -133c-68 0 -124 22 -140 45
c-6 8 -3 13 14 37l12 17c17 24 23 20 32 14c21 -14 41 -24 66 -24c34 0 51 19 51 48c0 16 -5 25 -15 31c-12 7 -23 9 -54 9h-15c-19 0 -16 6 -10 44l1 6c5 27 6 35 21 35z" />
    <glyph glyph-name="four.sub" horiz-adv-x="409" 
d="M305 101h23c17 0 16 -3 12 -33l-3 -20c-5 -34 -6 -37 -22 -37h-23l-8 -58c-2 -17 -8 -23 -58 -23h-17c-47 0 -47 6 -45 23l8 58h-122c-44 0 -49 5 -45 27l5 27c4 23 5 26 10 34l120 217c7 11 14 16 57 16c56 0 58 -9 47 -28l-105 -203h46l6 41c3 21 4 22 54 22h14
c50 0 55 -4 52 -23z" />
    <glyph glyph-name="five.sub" horiz-adv-x="408" 
d="M312 241h-123l-6 -45c93 0 139 -35 139 -114c0 -106 -84 -162 -191 -162c-51 0 -97 19 -120 36c-15 11 -14 17 2 38l23 31c15 21 21 20 32 12c23 -18 43 -27 71 -27c32 0 54 23 54 58c0 27 -18 40 -48 40c-20 0 -37 -3 -51 -6c-39 -8 -45 -1 -41 32l26 182
c2 13 10 16 38 16h208c20 0 17 -4 10 -47l-1 -6c-5 -31 -8 -38 -22 -38z" />
    <glyph glyph-name="six.sub" horiz-adv-x="409" 
d="M240 254c-14 0 -28 -2 -40 -14c-14 -14 -25 -34 -34 -59c30 11 56 12 65 12c73 0 110 -40 110 -105c0 -74 -47 -168 -184 -168c-87 0 -135 64 -135 153c0 133 63 269 229 269c37 0 73 -11 90 -27c6 -6 5 -8 -12 -36l-16 -25c-12 -19 -18 -21 -30 -13c-11 7 -26 13 -43 13
zM190 106c-11 0 -23 -3 -41 -12v-23c0 -42 6 -60 29 -60c25 0 38 33 38 58c0 27 -9 37 -26 37z" />
    <glyph glyph-name="seven.sub" horiz-adv-x="409" 
d="M81 332h225c47 0 51 -3 47 -26l-2 -11c-3 -21 -9 -35 -18 -50l-175 -298c-6 -11 -14 -17 -63 -17h-11c-63 0 -67 5 -52 29l176 282h-140c-20 0 -17 4 -10 47l1 6c5 29 6 38 22 38z" />
    <glyph glyph-name="eight.sub" horiz-adv-x="408" 
d="M12 18c0 54 31 90 81 118c-18 18 -31 42 -31 73c0 84 74 133 165 133c78 0 127 -41 127 -91c0 -46 -25 -78 -74 -105c32 -21 59 -48 59 -90c0 -59 -55 -136 -179 -136c-97 0 -148 43 -148 98zM213 41c0 17 -23 30 -50 46c-17 -14 -26 -30 -26 -49c0 -17 13 -27 37 -27
c25 0 39 16 39 30zM175 226c0 -14 12 -26 30 -37c21 13 34 29 34 44c0 10 -7 22 -28 22c-25 0 -36 -14 -36 -29z" />
    <glyph glyph-name="nine.sub" horiz-adv-x="409" 
d="M129 8c14 0 28 2 44 17c12 12 23 31 31 56c-31 -11 -57 -12 -66 -12c-76 0 -110 49 -110 105c0 74 47 168 178 168c89 0 141 -73 141 -153c0 -133 -63 -270 -229 -270c-41 0 -79 12 -100 33c-6 6 -6 8 12 36l16 25c13 21 18 21 30 13c16 -10 35 -18 53 -18zM179 156
c10 0 22 3 40 11c0 11 1 23 1 35c0 34 -6 49 -27 49c-27 0 -40 -33 -40 -58c0 -27 8 -37 26 -37z" />
    <glyph glyph-name="plus.sub" horiz-adv-x="409" 
d="M311 77h-81l-11 -67c-3 -16 -5 -22 -58 -22h-7c-51 0 -53 6 -50 22l11 67h-82c-20 0 -17 4 -10 48l1 6c5 29 6 38 22 38h81l12 77c2 16 4 23 55 23h7c53 0 55 -7 53 -23l-11 -77h81c20 0 17 -4 10 -48l-1 -6c-5 -29 -6 -38 -22 -38z" />
    <glyph glyph-name="minus.sub" horiz-adv-x="408" 
d="M41 169h278c20 0 17 -4 10 -48l-1 -6c-5 -29 -6 -38 -22 -38h-278c-20 0 -17 4 -10 48l1 6c5 29 6 38 22 38z" />
    <glyph glyph-name="equal.sub" horiz-adv-x="409" 
d="M61 229h253c20 0 17 -4 10 -48l-1 -6c-5 -29 -6 -38 -22 -38h-253c-20 0 -17 4 -10 48l1 6c5 29 6 38 22 38zM43 109h253c20 0 17 -4 10 -48l-1 -6c-5 -29 -6 -38 -22 -38h-253c-20 0 -17 4 -10 48l1 6c5 29 6 38 22 38z" />
    <glyph glyph-name="parenleft.sub" horiz-adv-x="306" 
d="M149 -134l-14 -7c-38 -19 -45 -19 -56 -6c-53 64 -74 141 -74 196c0 123 46 208 155 312c15 14 22 11 58 -8l8 -4c35 -18 39 -24 18 -45c-90 -97 -106 -171 -106 -254c0 -56 16 -97 40 -146c7 -16 6 -20 -29 -38z" />
    <glyph glyph-name="parenright.sub" horiz-adv-x="306" 
d="M83 349l14 7c38 19 45 19 56 6c53 -64 74 -141 74 -196c0 -123 -46 -208 -155 -312c-15 -14 -22 -11 -58 8l-8 4c-35 18 -39 24 -18 45c90 97 106 171 106 254c0 56 -16 97 -40 146c-7 16 -6 20 29 38z" />
    <glyph glyph-name="period.sub" horiz-adv-x="228" 
d="M6 -24c0 35 32 69 70 69c33 0 54 -23 54 -52c0 -35 -32 -69 -71 -69c-32 0 -53 24 -53 52z" />
    <glyph glyph-name="comma.sub" horiz-adv-x="245" 
d="M90 40c37 0 65 -22 65 -57c0 -27 -13 -61 -34 -88c-16 -20 -37 -45 -72 -69c-12 -8 -22 -12 -45 11l3 -3c-14 14 -16 18 -12 28c5 13 41 43 41 62c0 17 -21 26 -21 46c0 38 34 70 75 70z" />
    <glyph glyph-name="zero.num" horiz-adv-x="409" 
d="M215 400c45 0 62 151 62 187c0 37 -9 51 -27 51c-46 0 -62 -149 -62 -186c0 -39 9 -52 27 -52zM266 730c85 0 141 -57 141 -155c0 -70 -28 -267 -202 -267c-94 0 -147 58 -147 157c0 66 23 265 208 265z" />
    <glyph glyph-name="one.num" horiz-adv-x="409" 
d="M298 404h49c15 0 16 -3 11 -38l-2 -14c-5 -33 -8 -34 -24 -34h-232c-15 0 -16 3 -11 38l2 14c5 33 8 34 24 34h54l27 189l-42 -16c-17 -7 -21 -3 -26 9l-18 59c-4 12 1 18 14 23l100 42c22 9 35 10 65 10h7c40 0 47 -4 44 -23z" />
    <glyph glyph-name="two.num" horiz-adv-x="409" 
d="M315 318h-218c-43 0 -46 0 -44 20l2 18c3 29 13 36 22 45l137 137c32 32 45 54 45 75c0 14 -10 23 -26 23c-21 0 -46 -13 -65 -25c-10 -7 -15 -8 -22 3l-25 43c-10 17 -12 20 10 34c41 26 92 39 138 39c76 0 116 -50 116 -99c0 -46 -18 -83 -83 -148l-75 -75l101 1
c20 0 17 -4 10 -47l-1 -6c-5 -29 -6 -38 -22 -38z" />
    <glyph glyph-name="three.num" horiz-adv-x="409" 
d="M158 570h25c53 0 70 19 70 46c0 20 -14 26 -30 26c-20 0 -38 -5 -61 -17c-12 -6 -18 0 -28 24l-4 9c-12 28 -14 35 1 42c39 19 81 30 129 30c64 0 112 -36 112 -88c0 -29 -20 -81 -72 -109c35 -14 58 -49 58 -92c0 -70 -62 -133 -163 -133c-68 0 -124 22 -140 45
c-6 8 -3 13 14 37l12 17c17 24 23 20 32 14c21 -14 41 -24 66 -24c34 0 51 19 51 48c0 16 -5 25 -15 31c-12 7 -23 9 -54 9h-15c-19 0 -16 6 -10 44l1 6c5 27 6 35 21 35z" />
    <glyph glyph-name="four.num" horiz-adv-x="409" 
d="M360 489h23c17 0 16 -3 12 -33l-3 -20c-5 -34 -6 -37 -22 -37h-23l-8 -58c-2 -17 -8 -23 -58 -23h-17c-47 0 -47 6 -45 23l8 58h-122c-44 0 -49 5 -45 27l5 27c4 23 5 26 10 34l120 217c7 11 14 16 57 16c56 0 58 -9 47 -28l-105 -203h46l6 41c3 21 4 22 54 22h14
c50 0 55 -4 52 -23z" />
    <glyph glyph-name="five.num" horiz-adv-x="408" 
d="M367 629h-123l-6 -45c93 0 139 -35 139 -114c0 -106 -84 -162 -191 -162c-51 0 -97 19 -120 36c-15 11 -14 17 2 38l23 31c15 21 21 20 32 12c23 -18 43 -27 71 -27c32 0 54 23 54 58c0 27 -18 40 -48 40c-20 0 -37 -3 -51 -6c-39 -8 -45 -1 -41 32l26 182
c2 13 10 16 38 16h208c20 0 17 -4 10 -47l-1 -6c-5 -31 -8 -38 -22 -38z" />
    <glyph glyph-name="six.num" horiz-adv-x="409" 
d="M295 642c-14 0 -28 -2 -40 -14c-14 -14 -25 -34 -34 -59c30 11 56 12 65 12c73 0 110 -40 110 -105c0 -74 -47 -168 -184 -168c-87 0 -135 64 -135 153c0 133 63 269 229 269c37 0 73 -11 90 -27c6 -6 5 -8 -12 -36l-16 -25c-12 -19 -18 -21 -30 -13c-11 7 -26 13 -43 13
zM245 494c-11 0 -23 -3 -41 -12v-23c0 -42 6 -60 29 -60c25 0 38 33 38 58c0 27 -9 37 -26 37z" />
    <glyph glyph-name="seven.num" horiz-adv-x="409" 
d="M136 720h225c47 0 51 -3 47 -26l-2 -11c-3 -21 -9 -35 -18 -50l-175 -298c-6 -11 -14 -17 -63 -17h-11c-63 0 -67 5 -52 29l176 282h-140c-20 0 -17 4 -10 47l1 6c5 29 6 38 22 38z" />
    <glyph glyph-name="eight.num" horiz-adv-x="408" 
d="M67 406c0 54 31 90 81 118c-18 18 -31 42 -31 73c0 84 74 133 165 133c78 0 127 -41 127 -91c0 -46 -25 -78 -74 -105c32 -21 59 -48 59 -90c0 -59 -55 -136 -179 -136c-97 0 -148 43 -148 98zM268 429c0 17 -23 30 -50 46c-17 -14 -26 -30 -26 -49c0 -17 13 -27 37 -27
c25 0 39 16 39 30zM230 614c0 -14 12 -26 30 -37c21 13 34 29 34 44c0 10 -7 22 -28 22c-25 0 -36 -14 -36 -29z" />
    <glyph glyph-name="nine.num" horiz-adv-x="409" 
d="M184 396c14 0 28 2 44 17c12 12 23 31 31 56c-31 -11 -57 -12 -66 -12c-76 0 -110 49 -110 105c0 74 47 168 178 168c89 0 141 -73 141 -153c0 -133 -63 -270 -229 -270c-41 0 -79 12 -100 33c-6 6 -6 8 12 36l16 25c13 21 18 21 30 13c16 -10 35 -18 53 -18zM234 544
c10 0 22 3 40 11c0 11 1 23 1 35c0 34 -6 49 -27 49c-27 0 -40 -33 -40 -58c0 -27 8 -37 26 -37z" />
    <glyph glyph-name="plus.num" horiz-adv-x="409" 
d="M366 465h-81l-11 -67c-3 -16 -5 -22 -58 -22h-7c-51 0 -53 6 -50 22l11 67h-82c-20 0 -17 4 -10 48l1 6c5 29 6 38 22 38h81l12 77c2 16 4 23 55 23h7c53 0 55 -7 53 -23l-11 -77h81c20 0 17 -4 10 -48l-1 -6c-5 -29 -6 -38 -22 -38z" />
    <glyph glyph-name="minus.num" horiz-adv-x="408" 
d="M96 557h278c20 0 17 -4 10 -48l-1 -6c-5 -29 -6 -38 -22 -38h-278c-20 0 -17 4 -10 48l1 6c5 29 6 38 22 38z" />
    <glyph glyph-name="equal.num" horiz-adv-x="409" 
d="M116 617h253c20 0 17 -4 10 -48l-1 -6c-5 -29 -6 -38 -22 -38h-253c-20 0 -17 4 -10 48l1 6c5 29 6 38 22 38zM98 497h253c20 0 17 -4 10 -48l-1 -6c-5 -29 -6 -38 -22 -38h-253c-20 0 -17 4 -10 48l1 6c5 29 6 38 22 38z" />
    <glyph glyph-name="parenleft.num" horiz-adv-x="306" 
d="M204 254l-14 -7c-38 -19 -45 -19 -56 -6c-53 64 -74 141 -74 196c0 123 46 208 155 312c15 14 22 11 58 -8l8 -4c35 -18 39 -24 18 -45c-90 -97 -106 -171 -106 -254c0 -56 16 -97 40 -146c7 -16 6 -20 -29 -38z" />
    <glyph glyph-name="parenright.num" horiz-adv-x="306" 
d="M138 737l14 7c38 19 45 19 56 6c53 -64 74 -141 74 -196c0 -123 -46 -208 -155 -312c-15 -14 -22 -11 -58 8l-8 4c-35 18 -39 24 -18 45c90 97 106 171 106 254c0 56 -16 97 -40 146c-7 16 -6 20 29 38z" />
    <glyph glyph-name="period.num" horiz-adv-x="228" 
d="M61 364c0 35 32 69 70 69c33 0 54 -23 54 -52c0 -35 -32 -69 -71 -69c-32 0 -53 24 -53 52z" />
    <glyph glyph-name="comma.num" horiz-adv-x="245" 
d="M145 428c37 0 65 -22 65 -57c0 -27 -13 -61 -34 -88c-16 -20 -37 -45 -72 -69c-12 -8 -22 -12 -45 11l3 -3c-14 14 -16 18 -12 28c5 13 41 43 41 62c0 17 -21 26 -21 46c0 38 34 70 75 70z" />
    <glyph glyph-name="zero.den" horiz-adv-x="409" 
d="M170 82c45 0 62 151 62 187c0 37 -9 51 -27 51c-46 0 -62 -149 -62 -186c0 -39 9 -52 27 -52zM221 412c85 0 141 -57 141 -155c0 -70 -28 -267 -202 -267c-94 0 -147 58 -147 157c0 66 23 265 208 265z" />
    <glyph glyph-name="one.den" horiz-adv-x="409" 
d="M253 86h49c15 0 16 -3 11 -38l-2 -14c-5 -33 -8 -34 -24 -34h-232c-15 0 -16 3 -11 38l2 14c5 33 8 34 24 34h54l27 189l-42 -16c-17 -7 -21 -3 -26 9l-18 59c-4 12 1 18 14 23l100 42c22 9 35 10 65 10h7c40 0 47 -4 44 -23z" />
    <glyph glyph-name="two.den" horiz-adv-x="409" 
d="M270 0h-218c-43 0 -46 0 -44 20l2 18c3 29 13 36 22 45l137 137c32 32 45 54 45 75c0 14 -10 23 -26 23c-21 0 -46 -13 -65 -25c-10 -7 -15 -8 -22 3l-25 43c-10 17 -12 20 10 34c41 26 92 39 138 39c76 0 116 -50 116 -99c0 -46 -18 -83 -83 -148l-75 -75l101 1
c20 0 17 -4 10 -47l-1 -6c-5 -29 -6 -38 -22 -38z" />
    <glyph glyph-name="three.den" horiz-adv-x="409" 
d="M113 252h25c53 0 70 19 70 46c0 20 -14 26 -30 26c-20 0 -38 -5 -61 -17c-12 -6 -18 0 -28 24l-4 9c-12 28 -14 35 1 42c39 19 81 30 129 30c64 0 112 -36 112 -88c0 -29 -20 -81 -72 -109c35 -14 58 -49 58 -92c0 -70 -62 -133 -163 -133c-68 0 -124 22 -140 45
c-6 8 -3 13 14 37l12 17c17 24 23 20 32 14c21 -14 41 -24 66 -24c34 0 51 19 51 48c0 16 -5 25 -15 31c-12 7 -23 9 -54 9h-15c-19 0 -16 6 -10 44l1 6c5 27 6 35 21 35z" />
    <glyph glyph-name="four.den" horiz-adv-x="409" 
d="M315 171h23c17 0 16 -3 12 -33l-3 -20c-5 -34 -6 -37 -22 -37h-23l-8 -58c-2 -17 -8 -23 -58 -23h-17c-47 0 -47 6 -45 23l8 58h-122c-44 0 -49 5 -45 27l5 27c4 23 5 26 10 34l120 217c7 11 14 16 57 16c56 0 58 -9 47 -28l-105 -203h46l6 41c3 21 4 22 54 22h14
c50 0 55 -4 52 -23z" />
    <glyph glyph-name="five.den" horiz-adv-x="408" 
d="M322 311h-123l-6 -45c93 0 139 -35 139 -114c0 -106 -84 -162 -191 -162c-51 0 -97 19 -120 36c-15 11 -14 17 2 38l23 31c15 21 21 20 32 12c23 -18 43 -27 71 -27c32 0 54 23 54 58c0 27 -18 40 -48 40c-20 0 -37 -3 -51 -6c-39 -8 -45 -1 -41 32l26 182
c2 13 10 16 38 16h208c20 0 17 -4 10 -47l-1 -6c-5 -31 -8 -38 -22 -38z" />
    <glyph glyph-name="six.den" horiz-adv-x="409" 
d="M250 324c-14 0 -28 -2 -40 -14c-14 -14 -25 -34 -34 -59c30 11 56 12 65 12c73 0 110 -40 110 -105c0 -74 -47 -168 -184 -168c-87 0 -135 64 -135 153c0 133 63 269 229 269c37 0 73 -11 90 -27c6 -6 5 -8 -12 -36l-16 -25c-12 -19 -18 -21 -30 -13c-11 7 -26 13 -43 13
zM200 176c-11 0 -23 -3 -41 -12v-23c0 -42 6 -60 29 -60c25 0 38 33 38 58c0 27 -9 37 -26 37z" />
    <glyph glyph-name="seven.den" horiz-adv-x="409" 
d="M91 402h225c47 0 51 -3 47 -26l-2 -11c-3 -21 -9 -35 -18 -50l-175 -298c-6 -11 -14 -17 -63 -17h-11c-63 0 -67 5 -52 29l176 282h-140c-20 0 -17 4 -10 47l1 6c5 29 6 38 22 38z" />
    <glyph glyph-name="eight.den" horiz-adv-x="408" 
d="M22 88c0 54 31 90 81 118c-18 18 -31 42 -31 73c0 84 74 133 165 133c78 0 127 -41 127 -91c0 -46 -25 -78 -74 -105c32 -21 59 -48 59 -90c0 -59 -55 -136 -179 -136c-97 0 -148 43 -148 98zM223 111c0 17 -23 30 -50 46c-17 -14 -26 -30 -26 -49c0 -17 13 -27 37 -27
c25 0 39 16 39 30zM185 296c0 -14 12 -26 30 -37c21 13 34 29 34 44c0 10 -7 22 -28 22c-25 0 -36 -14 -36 -29z" />
    <glyph glyph-name="nine.den" horiz-adv-x="409" 
d="M139 78c14 0 28 2 44 17c12 12 23 31 31 56c-31 -11 -57 -12 -66 -12c-76 0 -110 49 -110 105c0 74 47 168 178 168c89 0 141 -73 141 -153c0 -133 -63 -270 -229 -270c-41 0 -79 12 -100 33c-6 6 -6 8 12 36l16 25c13 21 18 21 30 13c16 -10 35 -18 53 -18zM189 226
c10 0 22 3 40 11c0 11 1 23 1 35c0 34 -6 49 -27 49c-27 0 -40 -33 -40 -58c0 -27 8 -37 26 -37z" />
    <glyph glyph-name="plus.den" horiz-adv-x="409" 
d="M321 147h-81l-11 -67c-3 -16 -5 -22 -58 -22h-7c-51 0 -53 6 -50 22l11 67h-82c-20 0 -17 4 -10 48l1 6c5 29 6 38 22 38h81l12 77c2 16 4 23 55 23h7c53 0 55 -7 53 -23l-11 -77h81c20 0 17 -4 10 -48l-1 -6c-5 -29 -6 -38 -22 -38z" />
    <glyph glyph-name="minus.den" horiz-adv-x="408" 
d="M51 239h278c20 0 17 -4 10 -48l-1 -6c-5 -29 -6 -38 -22 -38h-278c-20 0 -17 4 -10 48l1 6c5 29 6 38 22 38z" />
    <glyph glyph-name="equal.den" horiz-adv-x="409" 
d="M71 299h253c20 0 17 -4 10 -48l-1 -6c-5 -29 -6 -38 -22 -38h-253c-20 0 -17 4 -10 48l1 6c5 29 6 38 22 38zM53 179h253c20 0 17 -4 10 -48l-1 -6c-5 -29 -6 -38 -22 -38h-253c-20 0 -17 4 -10 48l1 6c5 29 6 38 22 38z" />
    <glyph glyph-name="parenleft.den" horiz-adv-x="306" 
d="M159 -64l-14 -7c-38 -19 -45 -19 -56 -6c-53 64 -74 141 -74 196c0 123 46 208 155 312c15 14 22 11 58 -8l8 -4c35 -18 39 -24 18 -45c-90 -97 -106 -171 -106 -254c0 -56 16 -97 40 -146c7 -16 6 -20 -29 -38z" />
    <glyph glyph-name="parenright.den" horiz-adv-x="306" 
d="M93 419l14 7c38 19 45 19 56 6c53 -64 74 -141 74 -196c0 -123 -46 -208 -155 -312c-15 -14 -22 -11 -58 8l-8 4c-35 18 -39 24 -18 45c90 97 106 171 106 254c0 56 -16 97 -40 146c-7 16 -6 20 29 38z" />
    <glyph glyph-name="period.den" horiz-adv-x="228" 
d="M16 46c0 35 32 69 70 69c33 0 54 -23 54 -52c0 -35 -32 -69 -71 -69c-32 0 -53 24 -53 52z" />
    <glyph glyph-name="comma.den" horiz-adv-x="245" 
d="M100 110c37 0 65 -22 65 -57c0 -27 -13 -61 -34 -88c-16 -20 -37 -45 -72 -69c-12 -8 -22 -12 -45 11l3 -3c-14 14 -16 18 -12 28c5 13 41 43 41 62c0 17 -21 26 -21 46c0 38 34 70 75 70z" />
    <glyph glyph-name="fraction" unicode="&#x2044;" horiz-adv-x="391" 
d="M402 720h8c67 0 72 -7 61 -26l-396 -673c-9 -16 -21 -21 -79 -21h-9c-62 0 -65 8 -54 26l395 673c11 17 17 21 74 21z" />
    <glyph glyph-name="onehalf" unicode="&#xbd;" horiz-adv-x="980" 
d="M298 404h49c15 0 16 -3 11 -38l-2 -14c-5 -33 -8 -34 -24 -34h-232c-15 0 -16 3 -11 38l2 14c5 33 8 34 24 34h54l27 189l-42 -16c-17 -7 -21 -3 -26 9l-18 59c-4 12 1 18 14 23l100 42c22 9 35 10 65 10h7c40 0 47 -4 44 -23zM696 720h8c67 0 72 -7 61 -26l-396 -673
c-9 -16 -21 -21 -79 -21h-9c-62 0 -65 8 -54 26l395 673c11 17 17 21 74 21zM840 0h-218c-43 0 -46 0 -44 20l2 18c3 29 13 36 22 45l137 137c32 32 45 54 45 75c0 14 -10 23 -26 23c-21 0 -46 -13 -65 -25c-10 -7 -15 -8 -22 3l-25 43c-10 17 -12 20 10 34
c41 26 92 39 138 39c76 0 116 -50 116 -99c0 -46 -18 -83 -83 -148l-75 -75l101 1c20 0 17 -4 10 -47l-1 -6c-5 -29 -6 -38 -22 -38z" />
    <glyph glyph-name="onequarter" unicode="&#xbc;" horiz-adv-x="980" 
d="M298 404h49c15 0 16 -3 11 -38l-2 -14c-5 -33 -8 -34 -24 -34h-232c-15 0 -16 3 -11 38l2 14c5 33 8 34 24 34h54l27 189l-42 -16c-17 -7 -21 -3 -26 9l-18 59c-4 12 1 18 14 23l100 42c22 9 35 10 65 10h7c40 0 47 -4 44 -23zM696 720h8c67 0 72 -7 61 -26l-396 -673
c-9 -16 -21 -21 -79 -21h-9c-62 0 -65 8 -54 26l395 673c11 17 17 21 74 21zM885 171h23c17 0 16 -3 12 -33l-3 -20c-5 -34 -6 -37 -22 -37h-23l-8 -58c-2 -17 -8 -23 -58 -23h-17c-47 0 -47 6 -45 23l8 58h-122c-44 0 -49 5 -45 27l5 27c4 23 5 26 10 34l120 217
c7 11 14 16 57 16c56 0 58 -9 47 -28l-105 -203h46l6 41c3 21 4 22 54 22h14c50 0 55 -4 52 -23z" />
    <glyph glyph-name="threequarters" unicode="&#xbe;" horiz-adv-x="980" 
d="M158 570h25c53 0 70 19 70 46c0 20 -14 26 -30 26c-20 0 -38 -5 -61 -17c-12 -6 -18 0 -28 24l-4 9c-12 28 -14 35 1 42c39 19 81 30 129 30c64 0 112 -36 112 -88c0 -29 -20 -81 -72 -109c35 -14 58 -49 58 -92c0 -70 -62 -133 -163 -133c-68 0 -124 22 -140 45
c-6 8 -3 13 14 37l12 17c17 24 23 20 32 14c21 -14 41 -24 66 -24c34 0 51 19 51 48c0 16 -5 25 -15 31c-12 7 -23 9 -54 9h-15c-19 0 -16 6 -10 44l1 6c5 27 6 35 21 35zM696 720h8c67 0 72 -7 61 -26l-396 -673c-9 -16 -21 -21 -79 -21h-9c-62 0 -65 8 -54 26l395 673
c11 17 17 21 74 21zM885 171h23c17 0 16 -3 12 -33l-3 -20c-5 -34 -6 -37 -22 -37h-23l-8 -58c-2 -17 -8 -23 -58 -23h-17c-47 0 -47 6 -45 23l8 58h-122c-44 0 -49 5 -45 27l5 27c4 23 5 26 10 34l120 217c7 11 14 16 57 16c56 0 58 -9 47 -28l-105 -203h46l6 41
c3 21 4 22 54 22h14c50 0 55 -4 52 -23z" />
    <glyph glyph-name="onethird" unicode="&#x2153;" horiz-adv-x="980" 
d="M298 404h49c15 0 16 -3 11 -38l-2 -14c-5 -33 -8 -34 -24 -34h-232c-15 0 -16 3 -11 38l2 14c5 33 8 34 24 34h54l27 189l-42 -16c-17 -7 -21 -3 -26 9l-18 59c-4 12 1 18 14 23l100 42c22 9 35 10 65 10h7c40 0 47 -4 44 -23zM696 720h8c67 0 72 -7 61 -26l-396 -673
c-9 -16 -21 -21 -79 -21h-9c-62 0 -65 8 -54 26l395 673c11 17 17 21 74 21zM683 252h25c53 0 70 19 70 46c0 20 -14 26 -30 26c-20 0 -38 -5 -61 -17c-12 -6 -18 0 -28 24l-4 9c-12 28 -14 35 1 42c39 19 81 30 129 30c64 0 112 -36 112 -88c0 -29 -20 -81 -72 -109
c35 -14 58 -49 58 -92c0 -70 -62 -133 -163 -133c-68 0 -124 22 -140 45c-6 8 -3 13 14 37l12 17c17 24 23 20 32 14c21 -14 41 -24 66 -24c34 0 51 19 51 48c0 16 -5 25 -15 31c-12 7 -23 9 -54 9h-15c-19 0 -16 6 -10 44l1 6c5 27 6 35 21 35z" />
    <glyph glyph-name="twothirds" unicode="&#x2154;" horiz-adv-x="980" 
d="M315 318h-218c-43 0 -46 0 -44 20l2 18c3 29 13 36 22 45l137 137c32 32 45 54 45 75c0 14 -10 23 -26 23c-21 0 -46 -13 -65 -25c-10 -7 -15 -8 -22 3l-25 43c-10 17 -12 20 10 34c41 26 92 39 138 39c76 0 116 -50 116 -99c0 -46 -18 -83 -83 -148l-75 -75l101 1
c20 0 17 -4 10 -47l-1 -6c-5 -29 -6 -38 -22 -38zM696 720h8c67 0 72 -7 61 -26l-396 -673c-9 -16 -21 -21 -79 -21h-9c-62 0 -65 8 -54 26l395 673c11 17 17 21 74 21zM683 252h25c53 0 70 19 70 46c0 20 -14 26 -30 26c-20 0 -38 -5 -61 -17c-12 -6 -18 0 -28 24l-4 9
c-12 28 -14 35 1 42c39 19 81 30 129 30c64 0 112 -36 112 -88c0 -29 -20 -81 -72 -109c35 -14 58 -49 58 -92c0 -70 -62 -133 -163 -133c-68 0 -124 22 -140 45c-6 8 -3 13 14 37l12 17c17 24 23 20 32 14c21 -14 41 -24 66 -24c34 0 51 19 51 48c0 16 -5 25 -15 31
c-12 7 -23 9 -54 9h-15c-19 0 -16 6 -10 44l1 6c5 27 6 35 21 35z" />
    <glyph glyph-name="uni2155" unicode="&#x2155;" horiz-adv-x="980" 
d="M298 404h49c15 0 16 -3 11 -38l-2 -14c-5 -33 -8 -34 -24 -34h-232c-15 0 -16 3 -11 38l2 14c5 33 8 34 24 34h54l27 189l-42 -16c-17 -7 -21 -3 -26 9l-18 59c-4 12 1 18 14 23l100 42c22 9 35 10 65 10h7c40 0 47 -4 44 -23zM696 720h8c67 0 72 -7 61 -26l-396 -673
c-9 -16 -21 -21 -79 -21h-9c-62 0 -65 8 -54 26l395 673c11 17 17 21 74 21zM892 311h-123l-6 -45c93 0 139 -35 139 -114c0 -106 -84 -162 -191 -162c-51 0 -97 19 -120 36c-15 11 -14 17 2 38l23 31c15 21 21 20 32 12c23 -18 43 -27 71 -27c32 0 54 23 54 58
c0 27 -18 40 -48 40c-20 0 -37 -3 -51 -6c-39 -8 -45 -1 -41 32l26 182c2 13 10 16 38 16h208c20 0 17 -4 10 -47l-1 -6c-5 -31 -8 -38 -22 -38z" />
    <glyph glyph-name="uni2156" unicode="&#x2156;" horiz-adv-x="980" 
d="M315 318h-218c-43 0 -46 0 -44 20l2 18c3 29 13 36 22 45l137 137c32 32 45 54 45 75c0 14 -10 23 -26 23c-21 0 -46 -13 -65 -25c-10 -7 -15 -8 -22 3l-25 43c-10 17 -12 20 10 34c41 26 92 39 138 39c76 0 116 -50 116 -99c0 -46 -18 -83 -83 -148l-75 -75l101 1
c20 0 17 -4 10 -47l-1 -6c-5 -29 -6 -38 -22 -38zM696 720h8c67 0 72 -7 61 -26l-396 -673c-9 -16 -21 -21 -79 -21h-9c-62 0 -65 8 -54 26l395 673c11 17 17 21 74 21zM892 311h-123l-6 -45c93 0 139 -35 139 -114c0 -106 -84 -162 -191 -162c-51 0 -97 19 -120 36
c-15 11 -14 17 2 38l23 31c15 21 21 20 32 12c23 -18 43 -27 71 -27c32 0 54 23 54 58c0 27 -18 40 -48 40c-20 0 -37 -3 -51 -6c-39 -8 -45 -1 -41 32l26 182c2 13 10 16 38 16h208c20 0 17 -4 10 -47l-1 -6c-5 -31 -8 -38 -22 -38z" />
    <glyph glyph-name="uni2157" unicode="&#x2157;" horiz-adv-x="980" 
d="M158 570h25c53 0 70 19 70 46c0 20 -14 26 -30 26c-20 0 -38 -5 -61 -17c-12 -6 -18 0 -28 24l-4 9c-12 28 -14 35 1 42c39 19 81 30 129 30c64 0 112 -36 112 -88c0 -29 -20 -81 -72 -109c35 -14 58 -49 58 -92c0 -70 -62 -133 -163 -133c-68 0 -124 22 -140 45
c-6 8 -3 13 14 37l12 17c17 24 23 20 32 14c21 -14 41 -24 66 -24c34 0 51 19 51 48c0 16 -5 25 -15 31c-12 7 -23 9 -54 9h-15c-19 0 -16 6 -10 44l1 6c5 27 6 35 21 35zM696 720h8c67 0 72 -7 61 -26l-396 -673c-9 -16 -21 -21 -79 -21h-9c-62 0 -65 8 -54 26l395 673
c11 17 17 21 74 21zM892 311h-123l-6 -45c93 0 139 -35 139 -114c0 -106 -84 -162 -191 -162c-51 0 -97 19 -120 36c-15 11 -14 17 2 38l23 31c15 21 21 20 32 12c23 -18 43 -27 71 -27c32 0 54 23 54 58c0 27 -18 40 -48 40c-20 0 -37 -3 -51 -6c-39 -8 -45 -1 -41 32
l26 182c2 13 10 16 38 16h208c20 0 17 -4 10 -47l-1 -6c-5 -31 -8 -38 -22 -38z" />
    <glyph glyph-name="uni2158" unicode="&#x2158;" horiz-adv-x="980" 
d="M360 489h23c17 0 16 -3 12 -33l-3 -20c-5 -34 -6 -37 -22 -37h-23l-8 -58c-2 -17 -8 -23 -58 -23h-17c-47 0 -47 6 -45 23l8 58h-122c-44 0 -49 5 -45 27l5 27c4 23 5 26 10 34l120 217c7 11 14 16 57 16c56 0 58 -9 47 -28l-105 -203h46l6 41c3 21 4 22 54 22h14
c50 0 55 -4 52 -23zM696 720h8c67 0 72 -7 61 -26l-396 -673c-9 -16 -21 -21 -79 -21h-9c-62 0 -65 8 -54 26l395 673c11 17 17 21 74 21zM892 311h-123l-6 -45c93 0 139 -35 139 -114c0 -106 -84 -162 -191 -162c-51 0 -97 19 -120 36c-15 11 -14 17 2 38l23 31
c15 21 21 20 32 12c23 -18 43 -27 71 -27c32 0 54 23 54 58c0 27 -18 40 -48 40c-20 0 -37 -3 -51 -6c-39 -8 -45 -1 -41 32l26 182c2 13 10 16 38 16h208c20 0 17 -4 10 -47l-1 -6c-5 -31 -8 -38 -22 -38z" />
    <glyph glyph-name="uni2159" unicode="&#x2159;" horiz-adv-x="980" 
d="M298 404h49c15 0 16 -3 11 -38l-2 -14c-5 -33 -8 -34 -24 -34h-232c-15 0 -16 3 -11 38l2 14c5 33 8 34 24 34h54l27 189l-42 -16c-17 -7 -21 -3 -26 9l-18 59c-4 12 1 18 14 23l100 42c22 9 35 10 65 10h7c40 0 47 -4 44 -23zM696 720h8c67 0 72 -7 61 -26l-396 -673
c-9 -16 -21 -21 -79 -21h-9c-62 0 -65 8 -54 26l395 673c11 17 17 21 74 21zM820 324c-14 0 -28 -2 -40 -14c-14 -14 -25 -34 -34 -59c30 11 56 12 65 12c73 0 110 -40 110 -105c0 -74 -47 -168 -184 -168c-87 0 -135 64 -135 153c0 133 63 269 229 269c37 0 73 -11 90 -27
c6 -6 5 -8 -12 -36l-16 -25c-12 -19 -18 -21 -30 -13c-11 7 -26 13 -43 13zM770 176c-11 0 -23 -3 -41 -12v-23c0 -42 6 -60 29 -60c25 0 38 33 38 58c0 27 -9 37 -26 37z" />
    <glyph glyph-name="uni215A" unicode="&#x215a;" horiz-adv-x="980" 
d="M367 629h-123l-6 -45c93 0 139 -35 139 -114c0 -106 -84 -162 -191 -162c-51 0 -97 19 -120 36c-15 11 -14 17 2 38l23 31c15 21 21 20 32 12c23 -18 43 -27 71 -27c32 0 54 23 54 58c0 27 -18 40 -48 40c-20 0 -37 -3 -51 -6c-39 -8 -45 -1 -41 32l26 182
c2 13 10 16 38 16h208c20 0 17 -4 10 -47l-1 -6c-5 -31 -8 -38 -22 -38zM695 720h8c67 0 72 -7 61 -26l-396 -673c-9 -16 -21 -21 -79 -21h-9c-62 0 -65 8 -54 26l395 673c11 17 17 21 74 21zM819 324c-14 0 -28 -2 -40 -14c-14 -14 -25 -34 -34 -59c30 11 56 12 65 12
c73 0 110 -40 110 -105c0 -74 -47 -168 -184 -168c-87 0 -135 64 -135 153c0 133 63 269 229 269c37 0 73 -11 90 -27c6 -6 5 -8 -12 -36l-16 -25c-12 -19 -18 -21 -30 -13c-11 7 -26 13 -43 13zM769 176c-11 0 -23 -3 -41 -12v-23c0 -42 6 -60 29 -60c25 0 38 33 38 58
c0 27 -9 37 -26 37z" />
    <glyph glyph-name="oneeighth" unicode="&#x215b;" horiz-adv-x="980" 
d="M298 404h49c15 0 16 -3 11 -38l-2 -14c-5 -33 -8 -34 -24 -34h-232c-15 0 -16 3 -11 38l2 14c5 33 8 34 24 34h54l27 189l-42 -16c-17 -7 -21 -3 -26 9l-18 59c-4 12 1 18 14 23l100 42c22 9 35 10 65 10h7c40 0 47 -4 44 -23zM696 720h8c67 0 72 -7 61 -26l-396 -673
c-9 -16 -21 -21 -79 -21h-9c-62 0 -65 8 -54 26l395 673c11 17 17 21 74 21zM592 88c0 54 31 90 81 118c-18 18 -31 42 -31 73c0 84 74 133 165 133c78 0 127 -41 127 -91c0 -46 -25 -78 -74 -105c32 -21 59 -48 59 -90c0 -59 -55 -136 -179 -136c-97 0 -148 43 -148 98z
M793 111c0 17 -23 30 -50 46c-17 -14 -26 -30 -26 -49c0 -17 13 -27 37 -27c25 0 39 16 39 30zM755 296c0 -14 12 -26 30 -37c21 13 34 29 34 44c0 10 -7 22 -28 22c-25 0 -36 -14 -36 -29z" />
    <glyph glyph-name="threeeighths" unicode="&#x215c;" horiz-adv-x="980" 
d="M158 570h25c53 0 70 19 70 46c0 20 -14 26 -30 26c-20 0 -38 -5 -61 -17c-12 -6 -18 0 -28 24l-4 9c-12 28 -14 35 1 42c39 19 81 30 129 30c64 0 112 -36 112 -88c0 -29 -20 -81 -72 -109c35 -14 58 -49 58 -92c0 -70 -62 -133 -163 -133c-68 0 -124 22 -140 45
c-6 8 -3 13 14 37l12 17c17 24 23 20 32 14c21 -14 41 -24 66 -24c34 0 51 19 51 48c0 16 -5 25 -15 31c-12 7 -23 9 -54 9h-15c-19 0 -16 6 -10 44l1 6c5 27 6 35 21 35zM696 720h8c67 0 72 -7 61 -26l-396 -673c-9 -16 -21 -21 -79 -21h-9c-62 0 -65 8 -54 26l395 673
c11 17 17 21 74 21zM592 88c0 54 31 90 81 118c-18 18 -31 42 -31 73c0 84 74 133 165 133c78 0 127 -41 127 -91c0 -46 -25 -78 -74 -105c32 -21 59 -48 59 -90c0 -59 -55 -136 -179 -136c-97 0 -148 43 -148 98zM793 111c0 17 -23 30 -50 46c-17 -14 -26 -30 -26 -49
c0 -17 13 -27 37 -27c25 0 39 16 39 30zM755 296c0 -14 12 -26 30 -37c21 13 34 29 34 44c0 10 -7 22 -28 22c-25 0 -36 -14 -36 -29z" />
    <glyph glyph-name="fiveeighths" unicode="&#x215d;" horiz-adv-x="980" 
d="M367 629h-123l-6 -45c93 0 139 -35 139 -114c0 -106 -84 -162 -191 -162c-51 0 -97 19 -120 36c-15 11 -14 17 2 38l23 31c15 21 21 20 32 12c23 -18 43 -27 71 -27c32 0 54 23 54 58c0 27 -18 40 -48 40c-20 0 -37 -3 -51 -6c-39 -8 -45 -1 -41 32l26 182
c2 13 10 16 38 16h208c20 0 17 -4 10 -47l-1 -6c-5 -31 -8 -38 -22 -38zM695 720h8c67 0 72 -7 61 -26l-396 -673c-9 -16 -21 -21 -79 -21h-9c-62 0 -65 8 -54 26l395 673c11 17 17 21 74 21zM591 88c0 54 31 90 81 118c-18 18 -31 42 -31 73c0 84 74 133 165 133
c78 0 127 -41 127 -91c0 -46 -25 -78 -74 -105c32 -21 59 -48 59 -90c0 -59 -55 -136 -179 -136c-97 0 -148 43 -148 98zM792 111c0 17 -23 30 -50 46c-17 -14 -26 -30 -26 -49c0 -17 13 -27 37 -27c25 0 39 16 39 30zM754 296c0 -14 12 -26 30 -37c21 13 34 29 34 44
c0 10 -7 22 -28 22c-25 0 -36 -14 -36 -29z" />
    <glyph glyph-name="seveneighths" unicode="&#x215e;" horiz-adv-x="980" 
d="M136 720h225c47 0 51 -3 47 -26l-2 -11c-3 -21 -9 -35 -18 -50l-175 -298c-6 -11 -14 -17 -63 -17h-11c-63 0 -67 5 -52 29l176 282h-140c-20 0 -17 4 -10 47l1 6c5 29 6 38 22 38zM696 720h8c67 0 72 -7 61 -26l-396 -673c-9 -16 -21 -21 -79 -21h-9c-62 0 -65 8 -54 26
l395 673c11 17 17 21 74 21zM592 88c0 54 31 90 81 118c-18 18 -31 42 -31 73c0 84 74 133 165 133c78 0 127 -41 127 -91c0 -46 -25 -78 -74 -105c32 -21 59 -48 59 -90c0 -59 -55 -136 -179 -136c-97 0 -148 43 -148 98zM793 111c0 17 -23 30 -50 46
c-17 -14 -26 -30 -26 -49c0 -17 13 -27 37 -27c25 0 39 16 39 30zM755 296c0 -14 12 -26 30 -37c21 13 34 29 34 44c0 10 -7 22 -28 22c-25 0 -36 -14 -36 -29z" />
    <glyph glyph-name="Agrave" unicode="&#xc0;" horiz-adv-x="654" 
d="M377 720h8c62 0 73 -4 76 -21l143 -671c3 -19 -7 -28 -77 -28h-12c-69 0 -80 7 -83 22l-31 157h-197l-73 -157c-7 -15 -21 -22 -86 -22h-12c-66 0 -74 6 -64 27l327 672c9 17 19 21 81 21zM282 346l-20 -44h117l-6 44c-7 53 -11 110 -16 202c-30 -92 -52 -152 -75 -202z
M296 984h36c46 0 60 -7 66 -20l76 -153c10 -20 -2 -27 -39 -27h-32c-32 0 -47 3 -53 14l-101 157c-10 17 -6 29 47 29z" />
    <glyph glyph-name="Aacute" unicode="&#xc1;" horiz-adv-x="654" 
d="M377 720h8c62 0 73 -4 76 -21l143 -671c3 -19 -7 -28 -77 -28h-12c-69 0 -80 7 -83 22l-31 157h-197l-73 -157c-7 -15 -21 -22 -86 -22h-12c-66 0 -74 6 -64 27l327 672c9 17 19 21 81 21zM282 346l-20 -44h117l-6 44c-7 53 -11 110 -16 202c-30 -92 -52 -152 -75 -202z
M485 984h40c50 0 60 -9 41 -29l-145 -157c-10 -11 -23 -14 -57 -14h-32c-37 0 -47 7 -31 27l122 158c10 13 16 15 62 15z" />
    <glyph glyph-name="Acircumflex" unicode="&#xc2;" horiz-adv-x="654" 
d="M377 720h8c62 0 73 -4 76 -21l143 -671c3 -19 -7 -28 -77 -28h-12c-69 0 -80 7 -83 22l-31 157h-197l-73 -157c-7 -15 -21 -22 -86 -22h-12c-66 0 -74 6 -64 27l327 672c9 17 19 21 81 21zM282 346l-20 -44h117l-6 44c-7 53 -11 110 -16 202c-30 -92 -52 -152 -75 -202z
M395 870l-102 -79c-14 -10 -22 -8 -45 20l-8 10c-19 24 -22 32 -12 41l100 92c20 18 29 21 73 21h12c44 0 53 -3 67 -21l74 -92c8 -10 6 -18 -22 -41l-12 -10c-33 -28 -41 -28 -51 -18z" />
    <glyph glyph-name="Atilde" unicode="&#xc3;" horiz-adv-x="654" 
d="M377 720h8c62 0 73 -4 76 -21l143 -671c3 -19 -7 -28 -77 -28h-12c-69 0 -80 7 -83 22l-31 157h-197l-73 -157c-7 -15 -21 -22 -86 -22h-12c-66 0 -74 6 -64 27l327 672c9 17 19 21 81 21zM282 346l-20 -44h117l-6 44c-7 53 -11 110 -16 202c-30 -92 -52 -152 -75 -202z
M231 827l-5 6c-22 26 -23 31 -13 42c35 42 78 68 118 68c31 0 49 -10 66 -19c16 -9 28 -15 50 -15s42 12 64 32c8 7 14 8 39 -21l5 -6c19 -24 21 -33 12 -44c-31 -39 -73 -66 -117 -66c-34 0 -54 10 -71 19c-16 9 -29 17 -50 17c-16 0 -35 -11 -55 -34c-8 -9 -19 -8 -43 21z
" />
    <glyph glyph-name="Adieresis" unicode="&#xc4;" horiz-adv-x="654" 
d="M377 720h8c62 0 73 -4 76 -21l143 -671c3 -19 -7 -28 -77 -28h-12c-69 0 -80 7 -83 22l-31 157h-197l-73 -157c-7 -15 -21 -22 -86 -22h-12c-66 0 -74 6 -64 27l327 672c9 17 19 21 81 21zM282 346l-20 -44h117l-6 44c-7 53 -11 110 -16 202c-30 -92 -52 -152 -75 -202z
M208 858c0 50 42 95 97 95c43 0 72 -29 72 -69c0 -49 -42 -94 -95 -94c-46 0 -74 28 -74 68zM421 858c0 50 42 95 97 95c43 0 72 -29 72 -69c0 -49 -42 -94 -95 -94c-46 0 -74 28 -74 68z" />
    <glyph glyph-name="Amacron" unicode="&#x100;" horiz-adv-x="654" 
d="M377 720h8c62 0 73 -4 76 -21l143 -671c3 -19 -7 -28 -77 -28h-12c-69 0 -80 7 -83 22l-31 157h-197l-73 -157c-7 -15 -21 -22 -86 -22h-12c-66 0 -74 6 -64 27l327 672c9 17 19 21 81 21zM282 346l-20 -44h117l-6 44c-7 53 -11 110 -16 202c-30 -92 -52 -152 -75 -202z
M262 927h274c11 0 15 -4 8 -51l-1 -7c-7 -48 -11 -51 -22 -51h-274c-11 0 -14 5 -7 54l1 7c6 44 10 48 21 48z" />
    <glyph glyph-name="Abreve" unicode="&#x102;" horiz-adv-x="654" 
d="M377 720h8c62 0 73 -4 76 -21l143 -671c3 -19 -7 -28 -77 -28h-12c-69 0 -80 7 -83 22l-31 157h-197l-73 -157c-7 -15 -21 -22 -86 -22h-12c-66 0 -74 6 -64 27l327 672c9 17 19 21 81 21zM282 346l-20 -44h117l-6 44c-7 53 -11 110 -16 202c-30 -92 -52 -152 -75 -202z
M301 942h14c40 0 48 -5 47 -18c-2 -31 11 -49 38 -49c28 0 45 15 53 49c3 13 11 18 53 18h14c44 0 53 -2 49 -21c-17 -92 -85 -145 -178 -145c-94 0 -147 46 -147 122c0 7 0 16 1 23c2 19 12 21 56 21z" />
    <glyph glyph-name="Acaron" unicode="&#x1cd;" horiz-adv-x="654" 
d="M377 720h8c62 0 73 -4 76 -21l143 -671c3 -19 -7 -28 -77 -28h-12c-69 0 -80 7 -83 22l-31 157h-197l-73 -157c-7 -15 -21 -22 -86 -22h-12c-66 0 -74 6 -64 27l327 672c9 17 19 21 81 21zM282 346l-20 -44h117l-6 44c-7 53 -11 110 -16 202c-30 -92 -52 -152 -75 -202z
M324 966l78 -80l101 80c14 10 23 12 47 -18l8 -10c21 -26 21 -32 12 -41l-104 -95c-19 -18 -32 -21 -73 -21h-12c-42 0 -52 3 -67 21l-75 95c-7 9 -7 18 24 43l12 10c31 25 39 26 49 16z" />
    <glyph glyph-name="Aring" unicode="&#xc5;" horiz-adv-x="654" 
d="M273 788c0 73 65 133 139 133c62 0 106 -44 105 -102c0 -43 -25 -82 -62 -108l149 -683c3 -19 -7 -28 -77 -28h-12c-64 0 -80 7 -83 22l-31 157h-197l-73 -157c-7 -15 -21 -22 -86 -22h-12c-66 0 -74 6 -64 27l338 686c-21 19 -34 45 -34 75zM400 837
c-19 0 -37 -15 -37 -37c0 -17 10 -29 28 -29c21 0 36 19 36 40c0 15 -10 26 -27 26zM282 346l-20 -44h117l-6 44c-7 53 -11 110 -16 202c-30 -92 -51 -149 -75 -202z" />
    <glyph glyph-name="Aringacute" unicode="&#x1fa;" horiz-adv-x="654" 
d="M273 788c0 73 65 133 139 133c62 0 106 -44 105 -102c0 -43 -25 -82 -62 -108l149 -683c3 -19 -7 -28 -77 -28h-12c-64 0 -80 7 -83 22l-31 157h-197l-73 -157c-7 -15 -21 -22 -86 -22h-12c-66 0 -74 6 -64 27l338 686c-21 19 -34 45 -34 75zM400 837
c-19 0 -37 -15 -37 -37c0 -17 10 -29 28 -29c21 0 36 19 36 40c0 15 -10 26 -27 26zM282 346l-20 -44h117l-6 44c-7 53 -11 110 -16 202c-30 -92 -51 -149 -75 -202zM481 1149h40c50 0 60 -9 41 -29l-145 -157c-10 -11 -23 -14 -57 -14h-32c-37 0 -47 7 -31 27l122 158
c10 13 16 15 62 15z" />
    <glyph glyph-name="Aogonek" unicode="&#x104;" horiz-adv-x="654" 
d="M377 720h8c62 0 73 -4 76 -21l143 -671c3 -13 1 -18 -10 -21c-75 -23 -134 -70 -134 -122c0 -17 9 -29 28 -29c10 0 26 4 41 9c10 3 15 1 22 -31l2 -9c5 -30 5 -40 -6 -46c-31 -16 -63 -25 -97 -25c-75 0 -115 41 -115 98c0 62 45 122 103 156l-37 171h-197l-73 -157
c-7 -15 -21 -22 -86 -22h-12c-66 0 -74 6 -64 27l327 672c9 17 19 21 81 21zM282 346l-20 -44h117l-6 44c-7 53 -11 110 -16 202c-30 -92 -52 -152 -75 -202z" />
    <glyph glyph-name="AE" unicode="&#xc6;" horiz-adv-x="960" 
d="M422 22l21 148h-204l-107 -149c-11 -15 -31 -21 -87 -21h-23c-71 0 -74 8 -59 28l500 672c11 15 21 20 70 20h409c20 0 22 -2 15 -60l-1 -8c-7 -55 -13 -61 -32 -61h-255l-23 -163h215c20 0 22 -2 15 -60l-1 -8c-7 -57 -13 -61 -32 -61h-215l-24 -170h259
c20 0 23 -3 15 -60l-1 -7c-8 -56 -14 -62 -32 -62h-368c-50 0 -57 3 -55 22zM329 292h131l36 253c-32 -56 -58 -98 -83 -133z" />
    <glyph glyph-name="AEacute" unicode="&#x1fc;" horiz-adv-x="960" 
d="M422 22l21 148h-204l-107 -149c-11 -15 -31 -21 -87 -21h-23c-71 0 -74 8 -59 28l500 672c11 15 21 20 70 20h409c20 0 22 -2 15 -60l-1 -8c-7 -55 -13 -61 -32 -61h-255l-23 -163h215c20 0 22 -2 15 -60l-1 -8c-7 -57 -13 -61 -32 -61h-215l-24 -170h259
c20 0 23 -3 15 -60l-1 -7c-8 -56 -14 -62 -32 -62h-368c-50 0 -57 3 -55 22zM329 292h131l36 253c-32 -56 -58 -98 -83 -133zM790 984h40c50 0 60 -9 41 -29l-145 -157c-10 -11 -23 -14 -57 -14h-32c-37 0 -47 7 -31 27l122 158c10 13 16 15 62 15z" />
    <glyph glyph-name="Cacute" unicode="&#x106;" horiz-adv-x="587" 
d="M574 608l-16 -22c-27 -37 -36 -43 -50 -33c-37 27 -67 42 -113 42c-147 0 -198 -181 -198 -305c0 -113 43 -164 129 -164c42 0 88 11 136 36c19 10 25 5 36 -36l7 -23c11 -36 12 -45 -6 -56c-62 -36 -130 -57 -213 -57c-170 0 -262 105 -262 280c0 223 122 460 376 460
c82 0 147 -23 192 -63c14 -12 12 -18 -18 -59zM479 984h40c50 0 60 -9 41 -29l-145 -157c-10 -11 -23 -14 -57 -14h-32c-37 0 -47 7 -31 27l122 158c10 13 16 15 62 15z" />
    <glyph glyph-name="Ccedilla" unicode="&#xc7;" horiz-adv-x="587" 
d="M581 608l-16 -22c-27 -37 -36 -43 -50 -33c-37 27 -67 42 -113 42c-147 0 -198 -181 -198 -305c0 -113 43 -164 129 -164c42 0 88 11 136 36c19 10 25 5 36 -36l7 -23c11 -36 12 -45 -6 -56c-53 -31 -111 -50 -178 -55l-7 -30h6c52 0 94 -23 94 -76
c0 -86 -69 -129 -149 -129c-33 0 -60 6 -81 14c-10 4 -12 10 1 39l5 11c13 29 16 31 28 28c10 -3 31 -7 46 -7c20 0 37 6 37 30c0 17 -14 22 -37 22c-17 0 -38 -2 -59 -7l30 107c-137 19 -211 119 -211 276c0 223 122 460 376 460c82 0 147 -23 192 -63
c14 -12 12 -18 -18 -59z" />
    <glyph glyph-name="Ccircumflex" unicode="&#x108;" horiz-adv-x="587" 
d="M574 608l-16 -22c-27 -37 -36 -43 -50 -33c-37 27 -67 42 -113 42c-147 0 -198 -181 -198 -305c0 -113 43 -164 129 -164c42 0 88 11 136 36c19 10 25 5 36 -36l7 -23c11 -36 12 -45 -6 -56c-62 -36 -130 -57 -213 -57c-170 0 -262 105 -262 280c0 223 122 460 376 460
c82 0 147 -23 192 -63c14 -12 12 -18 -18 -59zM425 870l-102 -79c-14 -10 -22 -8 -45 20l-8 10c-19 24 -22 32 -12 41l100 92c20 18 29 21 73 21h12c44 0 53 -3 67 -21l74 -92c8 -10 6 -18 -22 -41l-12 -10c-33 -28 -41 -28 -51 -18z" />
    <glyph glyph-name="Ccaron" unicode="&#x10c;" horiz-adv-x="587" 
d="M574 608l-16 -22c-27 -37 -36 -43 -50 -33c-37 27 -67 42 -113 42c-147 0 -198 -181 -198 -305c0 -113 43 -164 129 -164c42 0 88 11 136 36c19 10 25 5 36 -36l7 -23c11 -36 12 -45 -6 -56c-62 -36 -130 -57 -213 -57c-170 0 -262 105 -262 280c0 223 122 460 376 460
c82 0 147 -23 192 -63c14 -12 12 -18 -18 -59zM340 966l78 -80l101 80c14 10 23 12 47 -18l8 -10c21 -26 21 -32 12 -41l-104 -95c-19 -18 -32 -21 -73 -21h-12c-42 0 -52 3 -67 21l-75 95c-7 9 -7 18 24 43l12 10c31 25 39 26 49 16z" />
    <glyph glyph-name="Cdotaccent" unicode="&#x10a;" horiz-adv-x="587" 
d="M574 608l-16 -22c-27 -37 -36 -43 -50 -33c-37 27 -67 42 -113 42c-147 0 -198 -181 -198 -305c0 -113 43 -164 129 -164c42 0 88 11 136 36c19 10 25 5 36 -36l7 -23c11 -36 12 -45 -6 -56c-62 -36 -130 -57 -213 -57c-170 0 -262 105 -262 280c0 223 122 460 376 460
c82 0 147 -23 192 -63c14 -12 12 -18 -18 -59zM340 844c0 51 42 91 94 91c42 0 71 -31 71 -71c0 -52 -41 -91 -93 -91c-43 0 -72 31 -72 71z" />
    <glyph glyph-name="Dcaron" unicode="&#x10e;" horiz-adv-x="670" 
d="M274 591l-65 -462h36c68 0 124 17 159 54c49 52 74 140 74 252c0 40 -7 72 -23 98c-26 38 -71 58 -146 58h-35zM182 720h132c136 0 221 -28 276 -92c38 -44 59 -106 59 -187c0 -138 -38 -271 -143 -360c-68 -58 -160 -81 -288 -81h-137c-50 0 -56 3 -54 22l95 675
c3 20 10 23 60 23zM344 966l78 -80l101 80c14 10 23 12 47 -18l8 -10c21 -26 21 -32 12 -41l-104 -95c-19 -18 -32 -21 -73 -21h-12c-42 0 -52 3 -67 21l-75 95c-7 9 -7 18 24 43l12 10c31 25 39 26 49 16z" />
    <glyph glyph-name="Dcroat" unicode="&#x110;" horiz-adv-x="670" 
d="M182 720h132c136 0 221 -28 276 -92c38 -44 59 -106 59 -187c0 -138 -38 -271 -143 -360c-68 -58 -160 -81 -288 -81h-137c-50 0 -56 3 -54 22l39 280h-35c-20 0 -29 7 -20 59l2 12c8 51 15 53 35 53h36l38 271c3 20 10 23 60 23zM274 591l-23 -165h90c23 0 29 -7 20 -59
l-2 -12c-8 -51 -15 -53 -35 -53h-91l-24 -173h36c68 0 124 17 159 54c49 52 74 140 74 252c0 40 -7 72 -23 98c-26 38 -71 58 -146 58h-35z" />
    <glyph glyph-name="Eth" unicode="&#xd0;" horiz-adv-x="670" 
d="M182 720h132c136 0 221 -28 276 -92c38 -44 59 -106 59 -187c0 -138 -38 -271 -143 -360c-68 -58 -160 -81 -288 -81h-137c-50 0 -56 3 -54 22l39 280h-35c-20 0 -29 7 -20 59l2 12c8 51 15 53 35 53h36l38 271c3 20 10 23 60 23zM274 591l-23 -165h90c23 0 29 -7 20 -59
l-2 -12c-8 -51 -15 -53 -35 -53h-91l-24 -173h36c68 0 124 17 159 54c49 52 74 140 74 252c0 40 -7 72 -23 98c-26 38 -71 58 -146 58h-35z" />
    <glyph glyph-name="Egrave" unicode="&#xc8;" horiz-adv-x="564" 
d="M182 720h365c20 0 22 -2 14 -60l-1 -8c-8 -56 -12 -61 -31 -61h-255l-23 -163h215c19 0 22 -2 14 -60l-1 -8c-8 -55 -13 -61 -31 -61h-215l-24 -170h259c19 0 22 -2 14 -60l-1 -7c-8 -55 -13 -62 -31 -62h-369c-50 0 -56 3 -54 22l95 675c3 20 10 23 60 23zM267 984h36
c46 0 60 -7 66 -20l76 -153c10 -20 -2 -27 -39 -27h-32c-32 0 -47 3 -53 14l-101 157c-10 17 -6 29 47 29z" />
    <glyph glyph-name="Eacute" unicode="&#xc9;" horiz-adv-x="564" 
d="M182 720h365c20 0 22 -2 14 -60l-1 -8c-8 -56 -12 -61 -31 -61h-255l-23 -163h215c19 0 22 -2 14 -60l-1 -8c-8 -55 -13 -61 -31 -61h-215l-24 -170h259c19 0 22 -2 14 -60l-1 -7c-8 -55 -13 -62 -31 -62h-369c-50 0 -56 3 -54 22l95 675c3 20 10 23 60 23zM445 984h40
c50 0 60 -9 41 -29l-145 -157c-10 -11 -23 -14 -57 -14h-32c-37 0 -47 7 -31 27l122 158c10 13 16 15 62 15z" />
    <glyph glyph-name="Ecircumflex" unicode="&#xca;" horiz-adv-x="564" 
d="M182 720h365c20 0 22 -2 14 -60l-1 -8c-8 -56 -12 -61 -31 -61h-255l-23 -163h215c19 0 22 -2 14 -60l-1 -8c-8 -55 -13 -61 -31 -61h-215l-24 -170h259c19 0 22 -2 14 -60l-1 -7c-8 -55 -13 -62 -31 -62h-369c-50 0 -56 3 -54 22l95 675c3 20 10 23 60 23zM367 870
l-102 -79c-14 -10 -22 -8 -45 20l-8 10c-19 24 -22 32 -12 41l100 92c20 18 29 21 73 21h12c44 0 53 -3 67 -21l74 -92c8 -10 6 -18 -22 -41l-12 -10c-33 -28 -41 -28 -51 -18z" />
    <glyph glyph-name="Ecaron" unicode="&#x11a;" horiz-adv-x="564" 
d="M182 720h365c20 0 22 -2 14 -60l-1 -8c-8 -56 -12 -61 -31 -61h-255l-23 -163h215c19 0 22 -2 14 -60l-1 -8c-8 -55 -13 -61 -31 -61h-215l-24 -170h259c19 0 22 -2 14 -60l-1 -7c-8 -55 -13 -62 -31 -62h-369c-50 0 -56 3 -54 22l95 675c3 20 10 23 60 23zM286 966
l78 -80l101 80c14 10 23 12 47 -18l8 -10c21 -26 21 -32 12 -41l-104 -95c-19 -18 -32 -21 -73 -21h-12c-42 0 -52 3 -67 21l-75 95c-7 9 -7 18 24 43l12 10c31 25 39 26 49 16z" />
    <glyph glyph-name="Edieresis" unicode="&#xcb;" horiz-adv-x="564" 
d="M182 720h365c20 0 22 -2 14 -60l-1 -8c-8 -56 -12 -61 -31 -61h-255l-23 -163h215c19 0 22 -2 14 -60l-1 -8c-8 -55 -13 -61 -31 -61h-215l-24 -170h259c19 0 22 -2 14 -60l-1 -7c-8 -55 -13 -62 -31 -62h-369c-50 0 -56 3 -54 22l95 675c3 20 10 23 60 23zM178 858
c0 50 42 95 97 95c43 0 72 -29 72 -69c0 -49 -42 -94 -95 -94c-46 0 -74 28 -74 68zM391 858c0 50 42 95 97 95c43 0 72 -29 72 -69c0 -49 -42 -94 -95 -94c-46 0 -74 28 -74 68z" />
    <glyph glyph-name="Emacron" unicode="&#x112;" horiz-adv-x="564" 
d="M182 720h365c20 0 22 -2 14 -60l-1 -8c-8 -56 -12 -61 -31 -61h-255l-23 -163h215c19 0 22 -2 14 -60l-1 -8c-8 -55 -13 -61 -31 -61h-215l-24 -170h259c19 0 22 -2 14 -60l-1 -7c-8 -55 -13 -62 -31 -62h-369c-50 0 -56 3 -54 22l95 675c3 20 10 23 60 23zM233 927h274
c11 0 15 -4 8 -51l-1 -7c-7 -48 -11 -51 -22 -51h-274c-11 0 -14 5 -7 54l1 7c6 44 10 48 21 48z" />
    <glyph glyph-name="Ebreve" unicode="&#x114;" horiz-adv-x="564" 
d="M182 720h365c20 0 22 -2 14 -60l-1 -8c-8 -56 -12 -61 -31 -61h-255l-23 -163h215c19 0 22 -2 14 -60l-1 -8c-8 -55 -13 -61 -31 -61h-215l-24 -170h259c19 0 22 -2 14 -60l-1 -7c-8 -55 -13 -62 -31 -62h-369c-50 0 -56 3 -54 22l95 675c3 20 10 23 60 23zM265 942h14
c40 0 48 -5 47 -18c-2 -31 11 -49 38 -49c28 0 45 15 53 49c3 13 11 18 53 18h14c44 0 53 -2 49 -21c-17 -92 -85 -145 -178 -145c-94 0 -147 46 -147 122c0 7 0 16 1 23c2 19 12 21 56 21z" />
    <glyph glyph-name="Edotaccent" unicode="&#x116;" horiz-adv-x="564" 
d="M182 720h365c20 0 22 -2 14 -60l-1 -8c-8 -56 -12 -61 -31 -61h-255l-23 -163h215c19 0 22 -2 14 -60l-1 -8c-8 -55 -13 -61 -31 -61h-215l-24 -170h259c19 0 22 -2 14 -60l-1 -7c-8 -55 -13 -62 -31 -62h-369c-50 0 -56 3 -54 22l95 675c3 20 10 23 60 23zM279 844
c0 51 42 91 94 91c42 0 71 -31 71 -71c0 -52 -41 -91 -93 -91c-43 0 -72 31 -72 71z" />
    <glyph glyph-name="Eogonek" unicode="&#x118;" horiz-adv-x="564" 
d="M182 720h365c20 0 22 -2 14 -60l-1 -8c-8 -56 -12 -61 -31 -61h-255l-23 -163h215c19 0 22 -2 14 -60l-1 -8c-8 -55 -13 -61 -31 -61h-215l-24 -170h259c19 0 22 -2 14 -60l-1 -7c-7 -48 -11 -55 -31 -61c-69 -20 -114 -61 -114 -111c0 -22 12 -34 31 -34c11 0 25 3 40 8
c10 3 14 0 21 -30l2 -9c5 -30 5 -40 -6 -46c-31 -16 -65 -25 -98 -25c-75 0 -115 45 -115 106c0 58 36 110 98 140h-228c-50 0 -56 3 -54 22l95 675c3 20 10 23 60 23z" />
    <glyph glyph-name="Gcircumflex" unicode="&#x11c;" horiz-adv-x="660" 
d="M341 411h227c32 0 38 -3 35 -23l-46 -322c-1 -11 -5 -21 -23 -29c-57 -26 -143 -47 -229 -47c-189 0 -281 106 -281 285c0 140 46 274 138 361c57 54 146 94 244 94c92 0 156 -22 211 -65c16 -12 15 -19 -17 -65l-15 -20c-33 -45 -41 -44 -57 -31c-35 28 -73 46 -126 46
c-155 0 -206 -165 -206 -307c0 -106 43 -164 135 -164c21 0 45 3 69 9l21 149h-97c-17 0 -19 5 -12 62l1 8c7 57 11 59 28 59zM433 870l-102 -79c-14 -10 -22 -8 -45 20l-8 10c-19 24 -22 32 -12 41l100 92c20 18 29 21 73 21h12c44 0 53 -3 67 -21l74 -92
c8 -10 6 -18 -22 -41l-12 -10c-33 -28 -41 -28 -51 -18z" />
    <glyph glyph-name="Gbreve" unicode="&#x11e;" horiz-adv-x="660" 
d="M341 411h227c32 0 38 -3 35 -23l-46 -322c-1 -11 -5 -21 -23 -29c-57 -26 -143 -47 -229 -47c-189 0 -281 106 -281 285c0 140 46 274 138 361c57 54 146 94 244 94c92 0 156 -22 211 -65c16 -12 15 -19 -17 -65l-15 -20c-33 -45 -41 -44 -57 -31c-35 28 -73 46 -126 46
c-155 0 -206 -165 -206 -307c0 -106 43 -164 135 -164c21 0 45 3 69 9l21 149h-97c-17 0 -19 5 -12 62l1 8c7 57 11 59 28 59zM327 942h14c40 0 48 -5 47 -18c-2 -31 11 -49 38 -49c28 0 45 15 53 49c3 13 11 18 53 18h14c44 0 53 -2 49 -21c-17 -92 -85 -145 -178 -145
c-94 0 -147 46 -147 122c0 7 0 16 1 23c2 19 12 21 56 21z" />
    <glyph glyph-name="Gdotaccent" unicode="&#x120;" horiz-adv-x="660" 
d="M341 411h227c32 0 38 -3 35 -23l-46 -322c-1 -11 -5 -21 -23 -29c-57 -26 -143 -47 -229 -47c-189 0 -281 106 -281 285c0 140 46 274 138 361c57 54 146 94 244 94c92 0 156 -22 211 -65c16 -12 15 -19 -17 -65l-15 -20c-33 -45 -41 -44 -57 -31c-35 28 -73 46 -126 46
c-155 0 -206 -165 -206 -307c0 -106 43 -164 135 -164c21 0 45 3 69 9l21 149h-97c-17 0 -19 5 -12 62l1 8c7 57 11 59 28 59zM348 844c0 51 42 91 94 91c42 0 71 -31 71 -71c0 -52 -41 -91 -93 -91c-43 0 -72 31 -72 71z" />
    <glyph glyph-name="Gcommaaccent" unicode="&#x122;" horiz-adv-x="660" 
d="M341 411h227c32 0 38 -3 35 -23l-46 -322c-1 -11 -5 -21 -23 -29c-57 -26 -143 -47 -229 -47c-189 0 -281 106 -281 285c0 140 46 274 138 361c57 54 146 94 244 94c92 0 156 -22 211 -65c16 -12 15 -19 -17 -65l-15 -20c-33 -45 -41 -44 -57 -31c-35 28 -73 46 -126 46
c-155 0 -206 -165 -206 -307c0 -106 43 -164 135 -164c21 0 45 3 69 9l21 149h-97c-17 0 -19 5 -12 62l1 8c7 57 11 59 28 59zM214 -317l-4 5c-13 17 -14 21 -6 29c23 23 56 60 56 96c0 27 -28 34 -28 65c0 40 38 73 81 73c41 0 65 -27 65 -70c0 -45 -26 -96 -59 -137
c-20 -24 -44 -47 -72 -68c-15 -10 -22 -7 -33 7z" />
    <glyph glyph-name="Hcircumflex" unicode="&#x124;" horiz-adv-x="686" 
d="M201 720h10c63 0 81 -5 78 -23l-38 -269h214l38 269c3 18 15 23 80 23h11c62 0 79 -5 76 -23l-95 -675c-2 -17 -20 -22 -82 -22h-11c-65 0 -76 5 -74 22l39 277h-214l-39 -277c-2 -17 -16 -22 -83 -22h-10c-67 0 -76 5 -74 22l95 675c3 18 12 23 79 23zM417 870l-102 -79
c-14 -10 -22 -8 -45 20l-8 10c-19 24 -22 32 -12 41l100 92c20 18 29 21 73 21h12c44 0 53 -3 67 -21l74 -92c8 -10 6 -18 -22 -41l-12 -10c-33 -28 -41 -28 -51 -18z" />
    <glyph glyph-name="Hbar" unicode="&#x126;" horiz-adv-x="740" 
d="M228 720h10c63 0 81 -5 78 -23l-9 -62h214l9 62c3 18 15 23 80 23h11c62 0 79 -5 76 -23l-9 -62h75c20 0 28 -9 20 -59l-2 -12c-8 -49 -15 -53 -35 -53h-75l-69 -489c-2 -17 -20 -22 -82 -22h-11c-65 0 -76 5 -74 22l39 277h-214l-39 -277c-2 -17 -16 -22 -83 -22h-10
c-67 0 -76 5 -74 22l69 489h-75c-20 0 -28 9 -20 59l2 12c8 49 15 53 35 53h75l9 62c3 18 12 23 79 23zM278 428h214l11 83h-214z" />
    <glyph glyph-name="Igrave" unicode="&#xcc;" horiz-adv-x="421" 
d="M259 113h59c14 0 16 -1 9 -52l-1 -7c-7 -49 -10 -54 -24 -54h-285c-14 0 -15 3 -8 55l1 7c7 48 9 51 23 51h59l70 494h-59c-14 0 -16 8 -8 57l1 6c8 49 9 50 27 50h280c14 0 17 -2 9 -53l-1 -6c-8 -49 -10 -54 -23 -54h-59zM171 984h36c46 0 60 -7 66 -20l76 -153
c10 -20 -2 -27 -39 -27h-32c-32 0 -47 3 -53 14l-101 157c-10 17 -6 29 47 29z" />
    <glyph glyph-name="Iacute" unicode="&#xcd;" horiz-adv-x="421" 
d="M259 113h59c14 0 16 -1 9 -52l-1 -7c-7 -49 -10 -54 -24 -54h-285c-14 0 -15 3 -8 55l1 7c7 48 9 51 23 51h59l70 494h-59c-14 0 -16 8 -8 57l1 6c8 49 9 50 27 50h280c14 0 17 -2 9 -53l-1 -6c-8 -49 -10 -54 -23 -54h-59zM357 984h40c50 0 60 -9 41 -29l-145 -157
c-10 -11 -23 -14 -57 -14h-32c-37 0 -47 7 -31 27l122 158c10 13 16 15 62 15z" />
    <glyph glyph-name="Icircumflex" unicode="&#xce;" horiz-adv-x="421" 
d="M259 113h59c14 0 16 -1 9 -52l-1 -7c-7 -49 -10 -54 -24 -54h-285c-14 0 -15 3 -8 55l1 7c7 48 9 51 23 51h59l70 494h-59c-14 0 -16 8 -8 57l1 6c8 49 9 50 27 50h280c14 0 17 -2 9 -53l-1 -6c-8 -49 -10 -54 -23 -54h-59zM282 870l-102 -79c-14 -10 -22 -8 -45 20
l-8 10c-19 24 -22 32 -12 41l100 92c20 18 29 21 73 21h12c44 0 53 -3 67 -21l74 -92c8 -10 6 -18 -22 -41l-12 -10c-33 -28 -41 -28 -51 -18z" />
    <glyph glyph-name="Itilde" unicode="&#x128;" horiz-adv-x="421" 
d="M259 113h59c14 0 16 -1 9 -52l-1 -7c-7 -49 -10 -54 -24 -54h-285c-14 0 -15 3 -8 55l1 7c7 48 9 51 23 51h59l70 494h-59c-14 0 -16 8 -8 57l1 6c8 49 9 50 27 50h280c14 0 17 -2 9 -53l-1 -6c-8 -49 -10 -54 -23 -54h-59zM126 833l-5 6c-22 26 -23 31 -13 42
c35 42 78 68 118 68c31 0 49 -10 66 -19c16 -9 28 -15 50 -15s42 12 64 32c8 7 14 8 39 -21l5 -6c19 -24 21 -33 12 -44c-31 -39 -73 -66 -117 -66c-34 0 -54 10 -71 19c-16 9 -29 17 -50 17c-16 0 -35 -11 -55 -34c-8 -9 -19 -8 -43 21z" />
    <glyph glyph-name="Idieresis" unicode="&#xcf;" horiz-adv-x="421" 
d="M259 113h59c14 0 16 -1 9 -52l-1 -7c-7 -49 -10 -54 -24 -54h-285c-14 0 -15 3 -8 55l1 7c7 48 9 51 23 51h59l70 494h-59c-14 0 -16 8 -8 57l1 6c8 49 9 50 27 50h280c14 0 17 -2 9 -53l-1 -6c-8 -49 -10 -54 -23 -54h-59zM97 858c0 50 42 95 97 95c43 0 72 -29 72 -69
c0 -49 -42 -94 -95 -94c-46 0 -74 28 -74 68zM310 858c0 50 42 95 97 95c43 0 72 -29 72 -69c0 -49 -42 -94 -95 -94c-46 0 -74 28 -74 68z" />
    <glyph glyph-name="Imacron" unicode="&#x12a;" horiz-adv-x="421" 
d="M259 113h59c14 0 16 -1 9 -52l-1 -7c-7 -49 -10 -54 -24 -54h-285c-14 0 -15 3 -8 55l1 7c7 48 9 51 23 51h59l70 494h-59c-14 0 -16 8 -8 57l1 6c8 49 9 50 27 50h280c14 0 17 -2 9 -53l-1 -6c-8 -49 -10 -54 -23 -54h-59zM151 927h274c11 0 15 -4 8 -51l-1 -7
c-7 -48 -11 -51 -22 -51h-274c-11 0 -14 5 -7 54l1 7c6 44 10 48 21 48z" />
    <glyph glyph-name="Ibreve" unicode="&#x12c;" horiz-adv-x="421" 
d="M259 113h59c14 0 16 -1 9 -52l-1 -7c-7 -49 -10 -54 -24 -54h-285c-14 0 -15 3 -8 55l1 7c7 48 9 51 23 51h59l70 494h-59c-14 0 -16 8 -8 57l1 6c8 49 9 50 27 50h280c14 0 17 -2 9 -53l-1 -6c-8 -49 -10 -54 -23 -54h-59zM173 942h14c40 0 48 -5 47 -18
c-2 -31 11 -49 38 -49c28 0 45 15 53 49c3 13 11 18 53 18h14c44 0 53 -2 49 -21c-17 -92 -85 -145 -178 -145c-94 0 -147 46 -147 122c0 7 0 16 1 23c2 19 12 21 56 21z" />
    <glyph glyph-name="Idotaccent" unicode="&#x130;" horiz-adv-x="421" 
d="M259 113h59c14 0 16 -1 9 -52l-1 -7c-7 -49 -10 -54 -24 -54h-285c-14 0 -15 3 -8 55l1 7c7 48 9 51 23 51h59l70 494h-59c-14 0 -16 8 -8 57l1 6c8 49 9 50 27 50h280c14 0 17 -2 9 -53l-1 -6c-8 -49 -10 -54 -23 -54h-59zM198 844c0 51 42 91 94 91c42 0 71 -31 71 -71
c0 -52 -41 -91 -93 -91c-43 0 -72 31 -72 71z" />
    <glyph glyph-name="Iogonek" unicode="&#x12e;" horiz-adv-x="421" 
d="M155 0h-138c-14 0 -15 3 -8 55l1 7c7 48 9 51 23 51h59l70 494h-59c-14 0 -16 8 -8 57l1 6c8 49 9 50 27 50h280c14 0 17 -2 9 -53l-1 -6c-8 -49 -10 -54 -23 -54h-59l-70 -494h59c14 0 16 0 9 -51c-7 -48 -11 -55 -31 -61c-69 -20 -114 -61 -114 -111
c0 -22 12 -34 31 -34c11 0 25 3 40 8c10 3 14 0 21 -30l2 -9c5 -30 5 -40 -6 -46c-31 -16 -65 -25 -98 -25c-75 0 -115 45 -115 106c0 58 36 110 98 140z" />
    <glyph glyph-name="IJ" unicode="&#x132;" horiz-adv-x="898" 
d="M259 113h59c14 0 16 -1 9 -52l-1 -7c-7 -49 -10 -54 -24 -54h-285c-14 0 -15 3 -8 55l1 7c7 48 9 51 23 51h59l70 494h-59c-14 0 -16 8 -8 57l1 6c8 49 9 50 27 50h280c14 0 17 -2 9 -53l-1 -6c-8 -49 -10 -54 -23 -54h-59zM798 720h11c62 0 78 -6 76 -23l-64 -453
c-13 -91 -41 -150 -83 -191c-45 -43 -106 -63 -181 -63c-47 0 -100 12 -136 30c-16 8 -16 16 2 56l9 20c21 47 24 54 46 46c25 -9 55 -18 83 -18c24 0 44 8 59 22c21 21 27 52 34 100l64 451c2 17 14 23 80 23z" />
    <glyph glyph-name="Jcircumflex" unicode="&#x134;" horiz-adv-x="477" 
d="M377 720h11c62 0 78 -6 76 -23l-64 -453c-13 -91 -41 -150 -83 -191c-45 -43 -106 -63 -181 -63c-47 0 -100 12 -136 30c-16 8 -16 16 2 56l9 20c21 47 24 54 46 46c25 -9 55 -18 83 -18c24 0 44 8 59 22c21 21 27 52 34 100l64 451c2 17 14 23 80 23zM404 870l-102 -79
c-14 -10 -22 -8 -45 20l-8 10c-19 24 -22 32 -12 41l100 92c20 18 29 21 73 21h12c44 0 53 -3 67 -21l74 -92c8 -10 6 -18 -22 -41l-12 -10c-33 -28 -41 -28 -51 -18z" />
    <glyph glyph-name="Kcommaaccent" unicode="&#x136;" horiz-adv-x="621" 
d="M200 720h13c65 0 79 -6 77 -23l-33 -239l12 12c90 87 160 167 212 234c11 13 18 16 78 16h10c73 0 82 -4 70 -24c-41 -68 -120 -164 -250 -284l166 -383c9 -21 0 -29 -64 -29h-28c-72 0 -78 2 -84 18l-117 277l-33 -30l-34 -243c-2 -16 -20 -22 -86 -22h-13
c-67 0 -71 5 -69 22l95 675c3 18 8 23 78 23zM179 -317l-4 5c-13 17 -14 21 -6 29c23 23 56 60 56 96c0 27 -28 34 -28 65c0 40 38 73 81 73c41 0 65 -27 65 -70c0 -45 -26 -96 -59 -137c-20 -24 -44 -47 -72 -68c-15 -10 -22 -7 -33 7z" />
    <glyph glyph-name="Lacute" unicode="&#x139;" horiz-adv-x="518" 
d="M203 720h11c65 0 79 -6 76 -23l-80 -568h238c20 0 23 -4 15 -60l-1 -7c-8 -57 -12 -62 -32 -62h-349c-49 0 -56 3 -54 22l95 675c3 17 12 23 81 23zM330 984h40c50 0 60 -9 41 -29l-145 -157c-10 -11 -23 -14 -57 -14h-32c-37 0 -47 7 -31 27l122 158c10 13 16 15 62 15z
" />
    <glyph glyph-name="Lcaron" unicode="&#x13d;" horiz-adv-x="518" 
d="M203 720h11c65 0 79 -6 76 -23l-80 -568h238c20 0 23 -4 15 -60l-1 -7c-8 -57 -12 -62 -32 -62h-349c-49 0 -56 3 -54 22l95 675c3 17 12 23 81 23zM346 462l-4 5c-13 17 -14 21 -6 29c23 23 56 60 56 96c0 27 -28 34 -28 65c0 40 38 73 81 73c41 0 65 -27 65 -70
c0 -45 -26 -96 -59 -137c-20 -24 -44 -47 -72 -68c-15 -10 -22 -7 -33 7z" />
    <glyph glyph-name="Lcommaaccent" unicode="&#x13b;" horiz-adv-x="518" 
d="M203 720h11c65 0 79 -6 76 -23l-80 -568h238c20 0 23 -4 15 -60l-1 -7c-8 -57 -12 -62 -32 -62h-349c-49 0 -56 3 -54 22l95 675c3 17 12 23 81 23zM141 -317l-4 5c-13 17 -14 21 -6 29c23 23 56 60 56 96c0 27 -28 34 -28 65c0 40 38 73 81 73c41 0 65 -27 65 -70
c0 -45 -26 -96 -59 -137c-20 -24 -44 -47 -72 -68c-15 -10 -22 -7 -33 7z" />
    <glyph glyph-name="Lslash" unicode="&#x141;" horiz-adv-x="518" 
d="M202 720h11c65 0 79 -6 76 -23l-27 -190l93 48c22 11 27 9 21 -48l-3 -28c-5 -44 -9 -53 -27 -62l-104 -54l-33 -234h238c20 0 23 -4 15 -60l-1 -7c-8 -57 -12 -62 -32 -62h-349c-49 0 -56 3 -54 22l35 247l-67 -34c-25 -13 -36 -6 -28 48l4 26c6 41 10 51 26 59l85 44
l40 285c3 17 12 23 81 23z" />
    <glyph glyph-name="Ldot" unicode="&#x13f;" horiz-adv-x="518" 
d="M203 720h11c65 0 79 -6 76 -23l-80 -568h238c20 0 23 -4 15 -60l-1 -7c-8 -57 -12 -62 -32 -62h-349c-49 0 -56 3 -54 22l95 675c3 17 12 23 81 23zM335 409c0 51 42 91 94 91c42 0 71 -31 71 -71c0 -52 -41 -91 -93 -91c-43 0 -72 31 -72 71z" />
    <glyph glyph-name="Nacute" unicode="&#x143;" horiz-adv-x="702" 
d="M191 720h8c58 0 65 -7 73 -20l138 -268c27 -52 45 -99 66 -160c3 69 8 119 17 185l34 240c3 17 14 23 80 23h6c64 0 76 -6 73 -23l-95 -675c-2 -17 -8 -22 -72 -22h-9c-52 0 -61 5 -69 20l-137 268c-35 69 -51 109 -69 166c-3 -77 -7 -132 -15 -191l-34 -241
c-2 -17 -18 -22 -79 -22h-8c-65 0 -74 3 -72 22l95 675c3 20 5 23 69 23zM508 984h40c50 0 60 -9 41 -29l-145 -157c-10 -11 -23 -14 -57 -14h-32c-37 0 -47 7 -31 27l122 158c10 13 16 15 62 15z" />
    <glyph glyph-name="Ncaron" unicode="&#x147;" horiz-adv-x="702" 
d="M191 720h8c58 0 65 -7 73 -20l138 -268c27 -52 45 -99 66 -160c3 69 8 119 17 185l34 240c3 17 14 23 80 23h6c64 0 76 -6 73 -23l-95 -675c-2 -17 -8 -22 -72 -22h-9c-52 0 -61 5 -69 20l-137 268c-35 69 -51 109 -69 166c-3 -77 -7 -132 -15 -191l-34 -241
c-2 -17 -18 -22 -79 -22h-8c-65 0 -74 3 -72 22l95 675c3 20 5 23 69 23zM353 966l78 -80l101 80c14 10 23 12 47 -18l8 -10c21 -26 21 -32 12 -41l-104 -95c-19 -18 -32 -21 -73 -21h-12c-42 0 -52 3 -67 21l-75 95c-7 9 -7 18 24 43l12 10c31 25 39 26 49 16z" />
    <glyph glyph-name="Ntilde" unicode="&#xd1;" horiz-adv-x="702" 
d="M191 720h8c58 0 65 -7 73 -20l138 -268c27 -52 45 -99 66 -160c3 69 8 119 17 185l34 240c3 17 14 23 80 23h6c64 0 76 -6 73 -23l-95 -675c-2 -17 -8 -22 -72 -22h-9c-52 0 -61 5 -69 20l-137 268c-35 69 -51 109 -69 166c-3 -77 -7 -132 -15 -191l-34 -241
c-2 -17 -18 -22 -79 -22h-8c-65 0 -74 3 -72 22l95 675c3 20 5 23 69 23zM253 827l-5 6c-22 26 -23 31 -13 42c35 42 78 68 118 68c31 0 49 -10 66 -19c16 -9 28 -15 50 -15s42 12 64 32c8 7 14 8 39 -21l5 -6c19 -24 21 -33 12 -44c-31 -39 -73 -66 -117 -66
c-34 0 -54 10 -71 19c-16 9 -29 17 -50 17c-16 0 -35 -11 -55 -34c-8 -9 -19 -8 -43 21z" />
    <glyph glyph-name="Ncommaaccent" unicode="&#x145;" horiz-adv-x="702" 
d="M191 720h8c58 0 65 -7 73 -20l138 -268c27 -52 45 -99 66 -160c3 69 8 119 17 185l34 240c3 17 14 23 80 23h6c64 0 76 -6 73 -23l-95 -675c-2 -17 -8 -22 -72 -22h-9c-52 0 -61 5 -69 20l-137 268c-35 69 -51 109 -69 166c-3 -77 -7 -132 -15 -191l-34 -241
c-2 -17 -18 -22 -79 -22h-8c-65 0 -74 3 -72 22l95 675c3 20 5 23 69 23zM223 -317l-4 5c-13 17 -14 21 -6 29c23 23 56 60 56 96c0 27 -28 34 -28 65c0 40 38 73 81 73c41 0 65 -27 65 -70c0 -45 -26 -96 -59 -137c-20 -24 -44 -47 -72 -68c-15 -10 -22 -7 -33 7z" />
    <glyph glyph-name="Eng" unicode="&#x14a;" horiz-adv-x="702" 
d="M412 -37c10 15 16 32 22 70l-130 255c-35 69 -51 109 -69 166c-3 -77 -7 -132 -15 -191l-34 -241c-2 -17 -18 -22 -79 -22h-8c-65 0 -74 3 -72 22l95 675c3 20 5 23 69 23h8c58 0 65 -7 73 -20l138 -268c27 -52 45 -99 66 -160c3 69 8 119 17 185l34 240
c3 17 14 23 80 23h6c64 0 75 -6 73 -23l-90 -641c-25 -176 -111 -239 -229 -239c-39 0 -84 10 -101 19c-14 7 -14 14 2 53l6 16c16 41 20 50 40 45c15 -4 33 -7 50 -7c21 0 39 7 48 20z" />
    <glyph glyph-name="Ograve" unicode="&#xd2;" horiz-adv-x="693" 
d="M387 596c-149 0 -190 -200 -190 -323c0 -105 40 -149 109 -149c149 0 190 200 190 323c0 105 -40 149 -109 149zM405 730c160 0 264 -84 264 -273c0 -229 -117 -467 -385 -467c-157 0 -260 88 -260 275c0 231 118 465 381 465zM328 984h36c46 0 60 -7 66 -20l76 -153
c10 -20 -2 -27 -39 -27h-32c-32 0 -47 3 -53 14l-101 157c-10 17 -6 29 47 29z" />
    <glyph glyph-name="Oacute" unicode="&#xd3;" horiz-adv-x="693" 
d="M387 596c-149 0 -190 -200 -190 -323c0 -105 40 -149 109 -149c149 0 190 200 190 323c0 105 -40 149 -109 149zM405 730c160 0 264 -84 264 -273c0 -229 -117 -467 -385 -467c-157 0 -260 88 -260 275c0 231 118 465 381 465zM516 984h40c50 0 60 -9 41 -29l-145 -157
c-10 -11 -23 -14 -57 -14h-32c-37 0 -47 7 -31 27l122 158c10 13 16 15 62 15z" />
    <glyph glyph-name="Ocircumflex" unicode="&#xd4;" horiz-adv-x="693" 
d="M387 596c-149 0 -190 -200 -190 -323c0 -105 40 -149 109 -149c149 0 190 200 190 323c0 105 -40 149 -109 149zM405 730c160 0 264 -84 264 -273c0 -229 -117 -467 -385 -467c-157 0 -260 88 -260 275c0 231 118 465 381 465zM427 870l-102 -79c-14 -10 -22 -8 -45 20
l-8 10c-19 24 -22 32 -12 41l100 92c20 18 29 21 73 21h12c44 0 53 -3 67 -21l74 -92c8 -10 6 -18 -22 -41l-12 -10c-33 -28 -41 -28 -51 -18z" />
    <glyph glyph-name="Otilde" unicode="&#xd5;" horiz-adv-x="693" 
d="M387 596c-149 0 -190 -200 -190 -323c0 -105 40 -149 109 -149c149 0 190 200 190 323c0 105 -40 149 -109 149zM405 730c160 0 264 -84 264 -273c0 -229 -117 -467 -385 -467c-157 0 -260 88 -260 275c0 231 118 465 381 465zM266 827l-5 6c-22 26 -23 31 -13 42
c35 42 78 68 118 68c31 0 49 -10 66 -19c16 -9 28 -15 50 -15s42 12 64 32c8 7 14 8 39 -21l5 -6c19 -24 21 -33 12 -44c-31 -39 -73 -66 -117 -66c-34 0 -54 10 -71 19c-16 9 -29 17 -50 17c-16 0 -35 -11 -55 -34c-8 -9 -19 -8 -43 21z" />
    <glyph glyph-name="Odieresis" unicode="&#xd6;" horiz-adv-x="693" 
d="M387 596c-149 0 -190 -200 -190 -323c0 -105 40 -149 109 -149c149 0 190 200 190 323c0 105 -40 149 -109 149zM405 730c160 0 264 -84 264 -273c0 -229 -117 -467 -385 -467c-157 0 -260 88 -260 275c0 231 118 465 381 465zM244 858c0 50 42 95 97 95
c43 0 72 -29 72 -69c0 -49 -42 -94 -95 -94c-46 0 -74 28 -74 68zM457 858c0 50 42 95 97 95c43 0 72 -29 72 -69c0 -49 -42 -94 -95 -94c-46 0 -74 28 -74 68z" />
    <glyph glyph-name="Omacron" unicode="&#x14c;" horiz-adv-x="693" 
d="M387 596c-149 0 -190 -200 -190 -323c0 -105 40 -149 109 -149c149 0 190 200 190 323c0 105 -40 149 -109 149zM405 730c160 0 264 -84 264 -273c0 -229 -117 -467 -385 -467c-157 0 -260 88 -260 275c0 231 118 465 381 465zM297 927h274c11 0 15 -4 8 -51l-1 -7
c-7 -48 -11 -51 -22 -51h-274c-11 0 -14 5 -7 54l1 7c6 44 10 48 21 48z" />
    <glyph glyph-name="Obreve" unicode="&#x14e;" horiz-adv-x="693" 
d="M387 596c-149 0 -190 -200 -190 -323c0 -105 40 -149 109 -149c149 0 190 200 190 323c0 105 -40 149 -109 149zM405 730c160 0 264 -84 264 -273c0 -229 -117 -467 -385 -467c-157 0 -260 88 -260 275c0 231 118 465 381 465zM327 942h14c40 0 48 -5 47 -18
c-2 -31 11 -49 38 -49c28 0 45 15 53 49c3 13 11 18 53 18h14c44 0 53 -2 49 -21c-17 -92 -85 -145 -178 -145c-94 0 -147 46 -147 122c0 7 0 16 1 23c2 19 12 21 56 21z" />
    <glyph glyph-name="Ohungarumlaut" unicode="&#x150;" horiz-adv-x="693" 
d="M387 596c-149 0 -190 -200 -190 -323c0 -105 40 -149 109 -149c149 0 190 200 190 323c0 105 -40 149 -109 149zM405 730c160 0 264 -84 264 -273c0 -229 -117 -467 -385 -467c-157 0 -260 88 -260 275c0 231 118 465 381 465zM394 984h39c52 0 53 -9 37 -27l-132 -152
c-10 -11 -20 -14 -50 -14h-31c-33 0 -43 7 -32 25l110 153c7 12 15 15 59 15zM590 984h38c50 0 54 -9 38 -27l-132 -152c-10 -11 -20 -14 -50 -14h-31c-33 0 -44 7 -32 25l110 153c7 12 18 15 59 15z" />
    <glyph glyph-name="Oslash" unicode="&#xd8;" horiz-adv-x="693" 
d="M405 730c48 0 90 -8 127 -23l47 70c6 9 12 9 40 -6l9 -5c32 -18 33 -23 27 -31l-52 -77c42 -45 66 -111 66 -201c0 -229 -117 -467 -385 -467c-44 0 -84 7 -118 21l-46 -68c-8 -11 -16 -13 -45 3l-9 5c-28 15 -31 20 -23 31l51 76c-45 45 -70 114 -70 207
c0 231 118 465 381 465zM387 596c-149 0 -190 -200 -190 -323c0 -21 1 -40 4 -56l245 363c-16 11 -36 16 -59 16zM496 447c0 18 -1 33 -3 48l-242 -358c15 -9 34 -13 55 -13c149 0 190 200 190 323z" />
    <glyph glyph-name="Oslashacute" unicode="&#x1fe;" horiz-adv-x="693" 
d="M405 730c48 0 90 -8 127 -23l47 70c6 9 12 9 40 -6l9 -5c32 -18 33 -23 27 -31l-52 -77c42 -45 66 -111 66 -201c0 -229 -117 -467 -385 -467c-44 0 -84 7 -118 21l-46 -68c-8 -11 -16 -13 -45 3l-9 5c-28 15 -31 20 -23 31l51 76c-45 45 -70 114 -70 207
c0 231 118 465 381 465zM387 596c-149 0 -190 -200 -190 -323c0 -21 1 -40 4 -56l245 363c-16 11 -36 16 -59 16zM496 447c0 18 -1 33 -3 48l-242 -358c15 -9 34 -13 55 -13c149 0 190 200 190 323zM499 984h40c50 0 60 -9 41 -29l-145 -157c-10 -11 -23 -14 -57 -14h-32
c-37 0 -47 7 -31 27l122 158c10 13 16 15 62 15z" />
    <glyph glyph-name="OE" unicode="&#x152;" horiz-adv-x="967" 
d="M444 127l66 466c-30 3 -64 5 -100 5c-154 0 -206 -185 -206 -316c0 -111 44 -160 125 -160c45 0 79 2 115 5zM633 720h317c20 0 22 -2 14 -60l-1 -8c-8 -56 -12 -61 -31 -61h-255l-23 -163h215c19 0 22 -2 14 -60l-1 -8c-8 -55 -13 -61 -31 -61h-215l-24 -170h259
c19 0 22 -2 14 -60l-1 -7c-8 -55 -13 -62 -31 -62h-309c-26 0 -58 -2 -96 -4c-45 -3 -100 -6 -148 -6c-168 0 -270 85 -270 274c0 225 125 466 393 466c38 0 78 -2 110 -5c31 -3 68 -5 100 -5z" />
    <glyph glyph-name="Thorn" unicode="&#xde;" horiz-adv-x="577" 
d="M261 247c41 0 70 11 90 30c24 24 34 59 34 101c0 22 -4 39 -12 51c-14 23 -38 33 -92 33h-26l-30 -214c12 -1 26 -1 36 -1zM250 119c-19 0 -28 0 -43 1l-14 -98c-2 -17 -16 -22 -82 -22h-11c-65 0 -76 5 -74 22l95 675c3 18 12 23 77 23h11c67 0 82 -5 79 -23l-15 -106h9
c116 0 194 -12 240 -68c23 -30 36 -69 36 -118c0 -86 -29 -161 -91 -218c-47 -43 -125 -68 -217 -68z" />
    <glyph glyph-name="Racute" unicode="&#x154;" horiz-adv-x="614" 
d="M182 720h129c119 0 187 -13 232 -68c23 -28 34 -65 34 -110c0 -98 -48 -189 -151 -240l14 -35c36 -92 73 -165 114 -235c11 -20 5 -32 -53 -32h-53c-39 0 -55 1 -68 17c-21 27 -49 94 -89 197l-22 56h-39l-35 -248c-2 -17 -21 -22 -83 -22h-10c-67 0 -77 5 -75 22l95 675
c3 20 10 23 60 23zM275 591l-27 -194h32c39 0 68 7 87 24c27 24 36 57 36 97c0 26 -5 42 -15 53c-15 15 -36 20 -79 20h-34zM457 984h40c50 0 60 -9 41 -29l-145 -157c-10 -11 -23 -14 -57 -14h-32c-37 0 -47 7 -31 27l122 158c10 13 16 15 62 15z" />
    <glyph glyph-name="Rcaron" unicode="&#x158;" horiz-adv-x="614" 
d="M182 720h129c119 0 187 -13 232 -68c23 -28 34 -65 34 -110c0 -98 -48 -189 -151 -240l14 -35c36 -92 73 -165 114 -235c11 -20 5 -32 -53 -32h-53c-39 0 -55 1 -68 17c-21 27 -49 94 -89 197l-22 56h-39l-35 -248c-2 -17 -21 -22 -83 -22h-10c-67 0 -77 5 -75 22l95 675
c3 20 10 23 60 23zM275 591l-27 -194h32c39 0 68 7 87 24c27 24 36 57 36 97c0 26 -5 42 -15 53c-15 15 -36 20 -79 20h-34zM301 966l78 -80l101 80c14 10 23 12 47 -18l8 -10c21 -26 21 -32 12 -41l-104 -95c-19 -18 -32 -21 -73 -21h-12c-42 0 -52 3 -67 21l-75 95
c-7 9 -7 18 24 43l12 10c31 25 39 26 49 16z" />
    <glyph glyph-name="Rcommaaccent" unicode="&#x156;" horiz-adv-x="614" 
d="M182 720h129c119 0 187 -13 232 -68c23 -28 34 -65 34 -110c0 -98 -48 -189 -151 -240l14 -35c36 -92 73 -165 114 -235c11 -20 5 -32 -53 -32h-53c-39 0 -55 1 -68 17c-21 27 -49 94 -89 197l-22 56h-39l-35 -248c-2 -17 -21 -22 -83 -22h-10c-67 0 -77 5 -75 22l95 675
c3 20 10 23 60 23zM275 591l-27 -194h32c39 0 68 7 87 24c27 24 36 57 36 97c0 26 -5 42 -15 53c-15 15 -36 20 -79 20h-34zM190 -317l-4 5c-13 17 -14 21 -6 29c23 23 56 60 56 96c0 27 -28 34 -28 65c0 40 38 73 81 73c41 0 65 -27 65 -70c0 -45 -26 -96 -59 -137
c-20 -24 -44 -47 -72 -68c-15 -10 -22 -7 -33 7z" />
    <glyph glyph-name="Sacute" unicode="&#x15a;" horiz-adv-x="551" 
d="M515 612l-13 -21c-26 -42 -35 -44 -46 -36c-35 28 -68 44 -113 44c-50 0 -88 -30 -88 -75c0 -40 23 -57 89 -93c88 -48 149 -102 149 -194c0 -158 -105 -247 -267 -247c-92 0 -170 33 -219 72c-12 10 -9 16 17 60l10 17c30 50 41 54 55 43c42 -33 91 -58 142 -58
c56 0 93 29 93 80c0 54 -41 73 -89 101c-94 55 -151 98 -151 199c0 127 103 226 262 226c72 0 135 -19 184 -56c13 -11 10 -20 -15 -62zM428 984h40c50 0 60 -9 41 -29l-145 -157c-10 -11 -23 -14 -57 -14h-32c-37 0 -47 7 -31 27l122 158c10 13 16 15 62 15z" />
    <glyph glyph-name="Scircumflex" unicode="&#x15c;" horiz-adv-x="551" 
d="M515 612l-13 -21c-26 -42 -35 -44 -46 -36c-35 28 -68 44 -113 44c-50 0 -88 -30 -88 -75c0 -40 23 -57 89 -93c88 -48 149 -102 149 -194c0 -158 -105 -247 -267 -247c-92 0 -170 33 -219 72c-12 10 -9 16 17 60l10 17c30 50 41 54 55 43c42 -33 91 -58 142 -58
c56 0 93 29 93 80c0 54 -41 73 -89 101c-94 55 -151 98 -151 199c0 127 103 226 262 226c72 0 135 -19 184 -56c13 -11 10 -20 -15 -62zM375 870l-102 -79c-14 -10 -22 -8 -45 20l-8 10c-19 24 -22 32 -12 41l100 92c20 18 29 21 73 21h12c44 0 53 -3 67 -21l74 -92
c8 -10 6 -18 -22 -41l-12 -10c-33 -28 -41 -28 -51 -18z" />
    <glyph glyph-name="Scaron" unicode="&#x160;" horiz-adv-x="551" 
d="M515 612l-13 -21c-26 -42 -35 -44 -46 -36c-35 28 -68 44 -113 44c-50 0 -88 -30 -88 -75c0 -40 23 -57 89 -93c88 -48 149 -102 149 -194c0 -158 -105 -247 -267 -247c-92 0 -170 33 -219 72c-12 10 -9 16 17 60l10 17c30 50 41 54 55 43c42 -33 91 -58 142 -58
c56 0 93 29 93 80c0 54 -41 73 -89 101c-94 55 -151 98 -151 199c0 127 103 226 262 226c72 0 135 -19 184 -56c13 -11 10 -20 -15 -62zM270 968l78 -80l101 80c14 10 23 12 47 -18l8 -10c21 -26 21 -32 12 -41l-104 -95c-19 -18 -32 -21 -73 -21h-12c-42 0 -52 3 -67 21
l-75 95c-7 9 -7 18 24 43l12 10c31 25 39 26 49 16z" />
    <glyph glyph-name="Scedilla" unicode="&#x15e;" horiz-adv-x="551" 
d="M515 612l-13 -21c-26 -42 -35 -44 -46 -36c-35 28 -68 44 -113 44c-50 0 -88 -30 -88 -75c0 -40 23 -57 89 -93c88 -48 149 -102 149 -194c0 -147 -91 -234 -234 -245l-7 -30h6c52 0 94 -23 94 -76c0 -86 -69 -129 -149 -129c-33 0 -60 6 -81 14c-10 4 -12 10 1 39l5 11
c13 29 16 31 28 28c10 -3 31 -7 46 -7c20 0 37 6 37 30c0 17 -14 22 -37 22c-17 0 -38 -2 -59 -7l30 107c-69 9 -127 36 -166 68c-12 10 -9 16 17 60l10 17c30 50 41 54 55 43c42 -33 91 -58 142 -58c56 0 93 29 93 80c0 54 -41 73 -89 101c-94 55 -151 98 -151 199
c0 127 103 226 262 226c72 0 135 -19 184 -56c13 -11 10 -20 -15 -62z" />
    <glyph glyph-name="Scommaaccent" unicode="&#x218;" horiz-adv-x="551" 
d="M515 612l-13 -21c-26 -42 -35 -44 -46 -36c-35 28 -68 44 -113 44c-50 0 -88 -30 -88 -75c0 -40 23 -57 89 -93c88 -48 149 -102 149 -194c0 -158 -105 -247 -267 -247c-92 0 -170 33 -219 72c-12 10 -9 16 17 60l10 17c30 50 41 54 55 43c42 -33 91 -58 142 -58
c56 0 93 29 93 80c0 54 -41 73 -89 101c-94 55 -151 98 -151 199c0 127 103 226 262 226c72 0 135 -19 184 -56c13 -11 10 -20 -15 -62zM122 -317l-4 5c-13 17 -14 21 -6 29c23 23 56 60 56 96c0 27 -28 34 -28 65c0 40 38 73 81 73c41 0 65 -27 65 -70
c0 -45 -26 -96 -59 -137c-20 -24 -44 -47 -72 -68c-15 -10 -22 -7 -33 7z" />
    <glyph glyph-name="Tcaron" unicode="&#x164;" horiz-adv-x="536" 
d="M222 591h-148c-20 0 -22 5 -14 62l1 7c8 56 11 60 31 60h464c20 0 23 -4 15 -60l-1 -7c-8 -57 -12 -62 -32 -62h-149l-80 -569c-2 -17 -19 -22 -82 -22h-11c-66 0 -76 5 -74 22zM266 966l78 -80l101 80c14 10 23 12 47 -18l8 -10c21 -26 21 -32 12 -41l-104 -95
c-19 -18 -32 -21 -73 -21h-12c-42 0 -52 3 -67 21l-75 95c-7 9 -7 18 24 43l12 10c31 25 39 26 49 16z" />
    <glyph glyph-name="Tcommaaccent" unicode="&#x162;" horiz-adv-x="536" 
d="M222 591h-148c-20 0 -22 5 -14 62l1 7c8 56 11 60 31 60h464c20 0 23 -4 15 -60l-1 -7c-8 -57 -12 -62 -32 -62h-149l-80 -569c-2 -17 -19 -22 -82 -22h-11c-66 0 -76 5 -74 22zM113 -317l-4 5c-13 17 -14 21 -6 29c23 23 56 60 56 96c0 27 -28 34 -28 65
c0 40 38 73 81 73c41 0 65 -27 65 -70c0 -45 -26 -96 -59 -137c-20 -24 -44 -47 -72 -68c-15 -10 -22 -7 -33 7z" />
    <glyph glyph-name="uni021A" unicode="&#x21a;" horiz-adv-x="536" 
d="M222 591h-148c-20 0 -22 5 -14 62l1 7c8 56 11 60 31 60h464c20 0 23 -4 15 -60l-1 -7c-8 -57 -12 -62 -32 -62h-149l-80 -569c-2 -17 -19 -22 -82 -22h-11c-66 0 -76 5 -74 22zM113 -317l-4 5c-13 17 -14 21 -6 29c23 23 56 60 56 96c0 27 -28 34 -28 65
c0 40 38 73 81 73c41 0 65 -27 65 -70c0 -45 -26 -96 -59 -137c-20 -24 -44 -47 -72 -68c-15 -10 -22 -7 -33 7z" />
    <glyph glyph-name="Tbar" unicode="&#x166;" horiz-adv-x="536" 
d="M222 591h-148c-20 0 -22 5 -14 62l1 7c8 56 11 60 31 60h464c20 0 23 -4 15 -60l-1 -7c-8 -57 -12 -62 -32 -62h-149l-31 -216h86c20 0 29 -7 20 -59l-2 -12c-9 -51 -15 -53 -35 -53h-86l-32 -229c-2 -17 -19 -22 -82 -22h-11c-66 0 -76 5 -74 22l32 229h-84
c-20 0 -29 7 -20 59l2 12c8 47 15 53 35 53h84z" />
    <glyph glyph-name="Ugrave" unicode="&#xd9;" horiz-adv-x="689" 
d="M199 720h11c66 0 78 -6 76 -23l-60 -424c-3 -22 -4 -36 -4 -50c0 -32 6 -55 18 -70c17 -21 43 -29 77 -29c38 0 67 10 88 28c25 22 40 57 49 121l60 424c2 17 13 23 80 23h8c62 0 78 -6 76 -23l-59 -417c-15 -106 -42 -168 -90 -215c-47 -46 -123 -75 -230 -75
c-111 0 -174 26 -210 77c-24 34 -37 74 -37 130c0 22 3 51 7 80l60 420c2 17 13 23 80 23zM307 984h36c46 0 60 -7 66 -20l76 -153c10 -20 -2 -27 -39 -27h-32c-32 0 -47 3 -53 14l-101 157c-10 17 -6 29 47 29z" />
    </font>
</defs>
</svg>
