<svg xmlns="http://www.w3.org/2000/svg" width="29.028" height="20.429" viewBox="0 0 29.028 20.429"><path d="M200.9,335.643c-1.047-1.245-2.982-1.753-6.677-1.753H180.808c-3.779,0-5.746.541-6.79,1.867C173,337.05,173,338.955,173,341.592v5.026c0,5.108,1.207,7.7,7.808,7.7H194.22c3.2,0,4.98-.448,6.128-1.548,1.178-1.127,1.68-2.967,1.68-6.154v-5.026c0-2.781-.079-4.7-1.132-5.948Zm-9.26,9.155-6.09,3.183a.936.936,0,0,1-1.37-.83v-6.345a.936.936,0,0,1,1.368-.831l6.09,3.163a.937.937,0,0,1,0,1.661Zm0,0" transform="translate(-173 -333.89)" fill="#d90016"/></svg>