<svg id="Capa_1" data-name="Capa 1" xmlns="http://www.w3.org/2000/svg" viewBox="0 0 32 32"><defs><style>.cls-1{fill:#d90016;}</style></defs><path id="Trazado_3301" data-name="Trazado 3301" class="cls-1" d="M18.05,21.92A4.36,4.36,0,0,1,14.32,20s-.89,3.52-1.08,4.2a16.33,16.33,0,0,1-2.76,5,.19.19,0,0,1-.28,0h0a.22.22,0,0,1-.08-.13,17.37,17.37,0,0,1,0-5.8c.3-1.24,2-8.33,2-8.33a5.92,5.92,0,0,1-.49-2.42c0-2.26,1.31-3.95,2.95-3.95a2,2,0,0,1,2.07,2h0a2.53,2.53,0,0,1,0,.28c0,1.4-.89,3.49-1.35,5.43a2.36,2.36,0,0,0,2.41,2.94c2.89,0,4.84-3.72,4.84-8.13,0-3.35-2.25-5.85-6.35-5.85a7.23,7.23,0,0,0-7.52,6.94h0c0,.13,0,.25,0,.38a4.37,4.37,0,0,0,1,3,.74.74,0,0,1,.22.85c-.08.28-.24,1-.32,1.22a.51.51,0,0,1-.76.38c-2.13-.86-3.13-3.2-3.13-5.84C5.7,7.91,9.36,2.7,16.62,2.7c5.84,0,9.68,4.22,9.68,8.76C26.3,17.44,23,21.92,18.05,21.92Z"/></svg>