<svg xmlns="http://www.w3.org/2000/svg" width="15.483" height="15.483" viewBox="0 0 15.483 15.483"><g transform="translate(-2 -2)"><path d="M9.741,2a7.741,7.741,0,1,0,7.741,7.741A7.741,7.741,0,0,0,9.741,2Zm0,14.377a6.636,6.636,0,1,1,6.636-6.636A6.636,6.636,0,0,1,9.741,16.377Z" transform="translate(0)" fill="#cb262a"/><path d="M19.639,12.68l-3.533-1.515V6.553a.553.553,0,0,0-1.106,0V11.53a.553.553,0,0,0,.337.509L19.208,13.7a.553.553,0,0,0,.431-1.017Z" transform="translate(-5.812 -1.788)" fill="#cb262a"/></g></svg>