<svg xmlns="http://www.w3.org/2000/svg" width="33.599" height="28.782" viewBox="0 0 33.599 28.782"><g transform="translate(-2.901 -7)"><g transform="translate(2.901 6.999)"><path d="M6.9,42.86,18.123,45.5a5.176,5.176,0,0,0,4.721-1.257l3.1.729a.576.576,0,0,0,.692-.429L32,45.805a2.3,2.3,0,1,0,2.728-2.911l-7.292-1.717h0A.576.576,0,0,0,27,40.486L24.523,39.9c-1.034-1.926-8.422-3.759-10.03-4.138a47.57,47.57,0,0,0-7.352-1.2C4.648,34.4,3.5,34.679,3.3,35.5h0l-.264,1.12A5.188,5.188,0,0,0,6.9,42.86Zm11.486,1.518L7.166,41.737A4.039,4.039,0,0,1,4.16,36.9c2.2,1.617,7.888,3.026,9.276,3.352a47.64,47.64,0,0,0,7.352,1.2q.68.045,1.229.045a8.009,8.009,0,0,0,1.21-.081A4.038,4.038,0,0,1,18.387,44.378Zm5.974-2.739.132-.561,1.683.4h0l-.4,1.716-.124.528-1.972-.461A5.173,5.173,0,0,0,24.361,41.64Zm10.1,2.379a1.153,1.153,0,1,1-1.4,1.248.576.576,0,0,0-.441-.5L26.9,43.422l.225-.957.04-.164Zm-20.232-7.13c5.446,1.28,8.461,2.708,9.143,3.334-.891.255-4.225.19-9.671-1.092s-8.46-2.709-9.143-3.336c.889-.255,4.222-.191,9.671,1.092Z" transform="translate(-2.901 -18.656)" fill="#fff"/><path d="M36.18,25.229a2.306,2.306,0,0,0-2.853,3.585l-.815.816a.576.576,0,0,0,0,.815l1.63,1.63a.576.576,0,0,0,.815,0l.816-.815a2.306,2.306,0,0,0,3.585-2.853,2.306,2.306,0,0,0-3.178-3.178Zm2.038,1.14a1.153,1.153,0,0,1,0,1.631.576.576,0,0,0,0,.815,1.153,1.153,0,1,1-1.85,1.308.576.576,0,0,0-.928-.16l-.891.89-.815-.815.889-.891a.576.576,0,0,0-.16-.928,1.15,1.15,0,1,1,1.308-1.85.576.576,0,0,0,.815,0,1.153,1.153,0,0,1,1.631,0Z" transform="translate(-15.372 -14.572)" fill="#fff"/><path d="M17.013,26.9l.408.408a.576.576,0,0,0,.815,0l.816-.816,1.223,1.223a.576.576,0,0,0,.815,0l1.631-1.631a.576.576,0,0,0,0-.815L21.5,24.051l.816-.816a.576.576,0,0,0,0-.815l-.408-.408A3.459,3.459,0,0,0,17.013,26.9ZM21.5,25.681l-.816.816-.815-.816.815-.815Zm-3.669-2.853a2.31,2.31,0,0,1,3.261,0l-.816.816-1.63,1.63-.816.816A2.31,2.31,0,0,1,17.828,22.828Z" transform="translate(-8.449 -12.93)" fill="#fff"/><path d="M31.85,13.719a.576.576,0,0,0,.815,0L33.887,12.5l.816.816a.576.576,0,0,0,.815,0l.408-.408a3.459,3.459,0,1,0-4.891-4.891l-.408.408a.576.576,0,0,0,0,.815l.816.816-1.223,1.223a.576.576,0,0,0,0,.815ZM35.11,8.828a2.31,2.31,0,0,1,0,3.261l-.816-.816-1.63-1.63-.816-.816a2.31,2.31,0,0,1,3.261,0Zm-2.853,2.038.815.815-.815.816-.816-.816Z" transform="translate(-14.401 -6.999)" fill="#fff"/><path d="M6.306,25.611A2.306,2.306,0,1,0,4,23.306,2.306,2.306,0,0,0,6.306,25.611Zm0-3.458a1.153,1.153,0,1,1-1.153,1.153A1.153,1.153,0,0,1,6.306,22.153Z" transform="translate(-3.367 -12.93)" fill="#fff"/><path d="M14.847,12.344a.576.576,0,0,0,.815,0l1.8-1.8a.576.576,0,0,0,0-.815l-1.8-1.8a.593.593,0,0,0-.815,0l-1.8,1.8a.576.576,0,0,0,0,.815Zm.408-3.19.984.984-.984.984-.984-.984Z" transform="translate(-7.128 -7.325)" fill="#fff"/><rect width="1" height="1" transform="translate(5.099 6)" fill="#fff"/><rect width="1" height="1" transform="translate(13.099 4)" fill="#fff"/><rect width="1" height="1" transform="translate(5.099 13)" fill="#fff"/><rect width="2" height="1" transform="translate(14.099 16)" fill="#fff"/><rect width="1" height="2" transform="translate(22.099 7)" fill="#fff"/><path d="M1.266,17.671,3.6,19l1.917.75L9.1,21.083s2.584.25,2.667.5,3.583.667,3.583.667h2.167s2-.417,2.166,0,1.667.417,1.667.417l-1.25,1.75-1.917,1.5-1.916.667L10.432,25l-3.75-.583L3.6,23.5l-1.417-.833-.916-1.083-.5-1.5L.349,19Z" fill="#fff"/></g></g></svg>