<svg xmlns="http://www.w3.org/2000/svg" width="40" height="25" viewBox="0 0 40 25"><g transform="translate(-4 -11)"><path d="M13.449,23.415a13.061,13.061,0,0,1,5.685-4.472,1,1,0,0,1,.752,1.854,11.059,11.059,0,0,0-4.815,3.788,1,1,0,1,1-1.622-1.17ZM43.893,31.45l-2,4A1,1,0,0,1,41,36H7a1,1,0,0,1-.895-.553l-2-4A1,1,0,0,1,5,30H7.048a16.887,16.887,0,0,1,4.737-10.826,1,1,0,1,1,1.436,1.392A14.9,14.9,0,0,0,9.048,30H36.113a1,1,0,0,1,0,2H6.618l1,2H40.382l1-2H40a1,1,0,0,1-1-1,15.019,15.019,0,0,0-8.9-13.707,15.2,15.2,0,0,0-13.78.815A1,1,0,1,1,15.3,16.391,16.926,16.926,0,0,1,21,14.274V13a2,2,0,0,1,2-2h2a2,2,0,0,1,2,2v1.282a16.748,16.748,0,0,1,3.918,1.185A17.017,17.017,0,0,1,40.963,30H43a1,1,0,0,1,.893,1.45ZM25,13H23v1h2Z" fill="#fff"/></g></svg>