<svg id="Capa_1" data-name="Capa 1" xmlns="http://www.w3.org/2000/svg" viewBox="0 0 26 26"><defs><style>.cls-1{fill:#3bc37b;}</style></defs><path class="cls-1" d="M24.69,9.12,17.22,8,13.88,1.24h0A.92.92,0,0,0,13.39.8a1,1,0,0,0-.71-.05.92.92,0,0,0-.57.49L8.72,8,1.27,9.12a.91.91,0,0,0-.58.26l0,0a1.06,1.06,0,0,0,.08,1.4l5.38,5.29L4.87,23.5a.91.91,0,0,0,.08.66,1.06,1.06,0,0,0,.58.5.84.84,0,0,0,.35.07.92.92,0,0,0,.43-.11L13,21.1l6.62,3.47a1.1,1.1,0,0,0,.63.15h.06a.93.93,0,0,0,.67-.43,1.08,1.08,0,0,0,.15-.75l-1.25-7.42,5.38-5.25a1,1,0,0,0,.31-.64A1,1,0,0,0,24.69,9.12Zm.06,1.06a.2.2,0,0,1-.07.11l-5.53,5.39A.41.41,0,0,0,19,16l1.29,7.63a.23.23,0,0,1,0,.18.12.12,0,0,1-.07.07.29.29,0,0,1-.17,0l0,0-6.82-3.58a.42.42,0,0,0-.38,0L5.94,23.9a.17.17,0,0,1-.14,0,.24.24,0,0,1-.12-.1l0-.07s0,0,0-.06L7,16a.38.38,0,0,0-.11-.35L1.31,10.24a.26.26,0,0,1,0-.29l0,0h.06L9.05,8.78a.4.4,0,0,0,.3-.22l3.48-7a.2.2,0,0,1,.08-.08.23.23,0,0,1,.14,0l0,0,.06,0,3.43,7a.4.4,0,0,0,.3.22l7.69,1.15a.19.19,0,0,1,.18.21A.06.06,0,0,0,24.75,10.18Z"/></svg>