<svg xmlns="http://www.w3.org/2000/svg" width="26.586" height="21.596" viewBox="0 0 26.586 21.596"><path d="M78.586,225.445a10.9,10.9,0,0,1-3.132.859,5.477,5.477,0,0,0,2.4-3.015,11,11,0,0,1-3.465,1.324,5.458,5.458,0,0,0-9.293,4.972,15.483,15.483,0,0,1-11.24-5.7,5.46,5.46,0,0,0,1.688,7.28,5.455,5.455,0,0,1-2.47-.684v.068a5.459,5.459,0,0,0,4.374,5.348,5.517,5.517,0,0,1-1.437.191,5.232,5.232,0,0,1-1.027-.1,5.457,5.457,0,0,0,5.093,3.788,10.943,10.943,0,0,1-6.773,2.331,11.581,11.581,0,0,1-1.3-.075,15.505,15.505,0,0,0,23.876-13.063l-.018-.706a10.9,10.9,0,0,0,2.728-2.818Zm0,0" transform="translate(-52 -222.89)" fill="#d90016"/></svg>