<svg xmlns="http://www.w3.org/2000/svg" width="35.962" height="38.782" viewBox="0 0 35.962 38.782"><g transform="translate(0.15 0.15)"><g transform="translate(3.412 10.265)"><path d="M-944.866,1647.709c-7.017.222-12.554,5.842-12.343,12.529s6.091,11.948,13.107,11.726,12.554-5.842,12.343-12.529S-937.85,1647.488-944.866,1647.709Zm.712,22.58c-6.121.193-11.248-4.339-11.43-10.1s4.65-10.609,10.77-10.8,11.248,4.339,11.429,10.1S-938.034,1670.1-944.154,1670.289Z" transform="translate(957.215 -1647.702)" fill="#fff" stroke="#fff" stroke-width="0.3"/><rect width="2.323" height="2.042" transform="matrix(1, -0.032, 0.032, 1, 11.273, 2.762)" fill="#fff" stroke="#fff" stroke-width="0.3"/><rect width="2.323" height="2.042" transform="matrix(1, -0.032, 0.032, 1, 11.802, 19.539)" fill="#fff" stroke="#fff" stroke-width="0.3"/><path d="M-882.659,1691.013l-.335.236.564.85.335-.236.335-.236-.564-.85Z" transform="translate(890.315 -1686.529)" fill="#fff" stroke="#fff" stroke-width="0.3"/><path d="M-784.892,1838.378l-.335.236.507.765.336-.236.336-.236-.508-.765Z" transform="translate(802.19 -1819.359)" fill="#fff" stroke="#fff" stroke-width="0.3"/><path d="M-914.874,1724.382l-.945-.471-.353.754.945.471Z" transform="translate(920.22 -1716.394)" fill="#fff" stroke="#fff" stroke-width="0.3"/><path d="M-752.128,1805.982l-.176.377.851.424.353-.754-.851-.424Z" transform="translate(772.515 -1790.031)" fill="#fff" stroke="#fff" stroke-width="0.3"/><path d="M-913.53,1810.53l.2.365.2.366.914-.53-.4-.73Z" transform="translate(917.838 -1793.992)" fill="#fff" stroke="#fff" stroke-width="0.3"/><path d="M-754.734,1719.89l.822-.477-.4-.73-.822.477.2.365Z" transform="translate(775.065 -1711.682)" fill="#fff" stroke="#fff" stroke-width="0.3"/><path d="M-878.151,1841.126l.7.428.509-.884-.7-.428Z" transform="translate(885.949 -1821.252)" fill="#fff" stroke="#fff" stroke-width="0.3"/><path d="M-789.161,1689.134l.458-.8-.349-.214-.35-.215-.458.8.35.215Z" transform="translate(806.367 -1683.944)" fill="#fff" stroke="#fff" stroke-width="0.3"/><path d="M-745.828,1755.438l.011.359.026.838.026.837.011.359,1.932-.061-.011-.359-.053-1.675-.011-.359Z" transform="translate(766.677 -1744.757)" fill="#fff" stroke="#fff" stroke-width="0.3"/><path d="M-928.8,1763.242l-.053-1.675-.011-.359-1.932.061.011.359.027.838.026.837.011.359,1.932-.061Z" transform="translate(933.403 -1750.013)" fill="#fff" stroke="#fff" stroke-width="0.3"/><path d="M-848.69,1707.3h0v0a2.6,2.6,0,0,0-.191-.553l-1.651-4.6a.816.816,0,0,0-.789-.548.816.816,0,0,0-.753.6l-1.358,4.7a2.6,2.6,0,0,0-.156.566s0,.008,0,.012a2.662,2.662,0,0,0-.029.477c0,.006,0,.013,0,.02a2.539,2.539,0,0,0,2.575,2.473,2.54,2.54,0,0,0,2.414-2.629c0-.007,0-.014,0-.021a2.647,2.647,0,0,0-.059-.47C-848.689,1707.312-848.689,1707.307-848.69,1707.3Zm-1.564.54a.886.886,0,0,1-.841.922.885.885,0,0,1-.9-.864s0-.009,0-.014a.858.858,0,0,1,.005-.116l.777-2.687.911,2.54.033.093a.911.911,0,0,1,.013.116S-850.255,1707.838-850.255,1707.841Z" transform="translate(863.838 -1696.281)" fill="#fff" stroke="#fff" stroke-width="0.3"/></g><path d="M-965.887,1577.013a14.129,14.129,0,0,1-9.738,3.71,14.824,14.824,0,0,1-14.808-14.808,14.764,14.764,0,0,1,4.527-10.647q.249-.24.508-.468t.531-.446q.114-.091.229-.18.276-.213.564-.413t.587-.389a14.718,14.718,0,0,1,4.98-1.983q.342-.067.69-.12t.691-.087a14.914,14.914,0,0,1,1.5-.075,14.92,14.92,0,0,1,1.5.075q.348.035.691.087t.69.12a14.715,14.715,0,0,1,4.98,1.983q.3.188.587.389t.563.413q.115.088.229.18.27.217.531.445t.508.468a14.835,14.835,0,0,1,3.849,6.212,5.921,5.921,0,0,1,.591-.424,6.031,6.031,0,0,1,.613-.337,16.226,16.226,0,0,0-4.077-6.427l.809-.809,1.467,1.467a.691.691,0,0,0,.488.2l.049,0a.689.689,0,0,0,.5-.274l.825-1.1c.89-.973.388-3.347-1.024-4.759a5.151,5.151,0,0,0-3.389-1.474,1.983,1.983,0,0,0-1.371.45l-1.1.824a.691.691,0,0,0-.274.5.691.691,0,0,0,.2.537l1.467,1.467-1.047,1.048a16.1,16.1,0,0,0-5.979-2.39v-1.537h2.232a.691.691,0,0,0,.534-.253.69.69,0,0,0,.143-.573,12.54,12.54,0,0,0-1.668-3.692.69.69,0,0,0-.574-.308h-7.1a.69.69,0,0,0-.574.308,12.552,12.552,0,0,0-1.668,3.692.691.691,0,0,0,.143.573.691.691,0,0,0,.534.252h2.232v1.537a16.1,16.1,0,0,0-5.979,2.39l-1.048-1.048,1.467-1.467a.691.691,0,0,0,.2-.537.691.691,0,0,0-.275-.5l-1.1-.824a1.982,1.982,0,0,0-1.371-.45,5.151,5.151,0,0,0-3.389,1.474c-1.412,1.412-1.915,3.786-1.024,4.759l.824,1.1a.69.69,0,0,0,.5.274l.049,0a.691.691,0,0,0,.488-.2l1.467-1.467.809.809a16.141,16.141,0,0,0-4.932,11.623,16.206,16.206,0,0,0,16.188,16.188,15.266,15.266,0,0,0,10.933-4.247m-23.779-25.545-1.1,1.1-.371-.495a.671.671,0,0,0-.064-.074,3.125,3.125,0,0,1,.984-2.849,3.787,3.787,0,0,1,2.412-1.069.782.782,0,0,1,.436.085.721.721,0,0,0,.074.064l.495.371-1.1,1.1Zm1.961-.008.888.887c-.076.06-.151.121-.226.183l-.866-.866Zm13.515-5.237h-6.825a12.854,12.854,0,0,1,1.028-2.063h6.334a12.832,12.832,0,0,1,1.028,2.063Zm-4.131,1.381h3v1.35c-.494-.046-1-.07-1.5-.07s-1.007.025-1.5.07Zm12.05.564a.779.779,0,0,1,.436-.086,3.787,3.787,0,0,1,2.412,1.069,3.127,3.127,0,0,1,.984,2.848.664.664,0,0,0-.064.074l-.371.495-1.1-1.1-1.766-1.766-1.1-1.1.495-.371A.763.763,0,0,0-965.077,1549.011Zm.54,3.5-.866.866q-.112-.092-.226-.183l.888-.887Z" transform="translate(991.814 -1543.622)" fill="#fff" stroke="#fff" stroke-width="0.3"/><path d="M-718.262,1880.483" transform="translate(745.242 -1847.259)" fill="#fff" stroke="#fff" stroke-miterlimit="10" stroke-width="0.3"/><path d="M-673.262,1727.483" transform="translate(704.681 -1709.349)" fill="#fff" stroke="#fff" stroke-miterlimit="10" stroke-width="0.3"/><path d="M9.677,49.89a.535.535,0,0,0,1.071,0,2.142,2.142,0,0,1,2.142-2.142.535.535,0,0,0,0-1.071,2.142,2.142,0,0,1-2.142-2.142.535.535,0,0,0-1.071,0,2.142,2.142,0,0,1-2.142,2.142.535.535,0,1,0,0,1.071A2.142,2.142,0,0,1,9.677,49.89Zm.535-3.582a3.236,3.236,0,0,0,.9.9,3.236,3.236,0,0,0-.9.9,3.236,3.236,0,0,0-.9-.9A3.236,3.236,0,0,0,10.213,46.308Z" transform="translate(22.387 -24.815)" fill="#fff"/></g></svg>