<svg xmlns="http://www.w3.org/2000/svg" width="29.602" height="35.083" viewBox="0 0 29.602 35.083"><g transform="translate(11634.625 1972)"><g transform="translate(-11634.625 -1972)"><path d="M68.916,0H42.878A2.881,2.881,0,0,0,40,2.878V32.205a2.881,2.881,0,0,0,2.878,2.878H68.916A.685.685,0,0,0,69.6,34.4V.685A.685.685,0,0,0,68.916,0ZM42.878,1.37h1.507v11.1a.685.685,0,0,0,1.37,0V1.37H68.231V29.327H45.756V18.638a.685.685,0,0,0-1.37,0V29.327H42.878a2.86,2.86,0,0,0-1.507.428V2.878A1.509,1.509,0,0,1,42.878,1.37ZM68.231,33.713H42.878a1.507,1.507,0,1,1,0-3.015H68.231Z" transform="translate(-40)" fill="#cb262a"/><path d="M160.741,103.957v7.173a.685.685,0,0,0,.685.685h10.964a.685.685,0,0,0,.685-.685v-7.173a3.652,3.652,0,1,0-2.036-7.011,4.369,4.369,0,0,0-8.262,0,3.652,3.652,0,1,0-2.036,7.011Zm1.37,6.488v-1.919H171.7v1.919Zm-.488-12.305a2.275,2.275,0,0,1,1.259.36A.685.685,0,0,0,163.932,98a3,3,0,0,1,5.951,0,.685.685,0,0,0,1.051.495,2.27,2.27,0,0,1,1.259-.36,2.281,2.281,0,0,1,.146,4.555h0a2.279,2.279,0,0,1-1.787-.661.685.685,0,0,0-.969.969,3.647,3.647,0,0,0,2.122,1.039v3.114h-9.593v-3.114A3.647,3.647,0,0,0,164.233,103a.685.685,0,1,0-.969-.969,2.278,2.278,0,0,1-1.787.661h0a2.281,2.281,0,0,1,.146-4.555Z" transform="translate(-149.914 -87.559)" fill="#cb262a"/><path d="M104.685,218.37a.685.685,0,1,0-.484-.2A.69.69,0,0,0,104.685,218.37Z" transform="translate(-99.615 -202.131)" fill="#cb262a"/></g></g></svg>