<svg xmlns="http://www.w3.org/2000/svg" width="24.25" height="23.237" viewBox="0 0 24.25 23.237"><path d="M17.651.067H2.182A2.146,2.146,0,0,0,.166,2.319V21.053A2.146,2.146,0,0,0,2.182,23.3H9.5c.033-.014,5.379-.074,5.492,0h2.66a2.146,2.146,0,0,0,2.017-2.251V15.122a.566.566,0,1,0-1.125,0v5.931a.949.949,0,0,1-.892.995H2.182a.949.949,0,0,1-.891-.995V2.319a.949.949,0,0,1,.891-1H17.651a.949.949,0,0,1,.892,1v4.4L11.437,14.65a.667.667,0,0,0-.165.444.131.131,0,0,0,0,.019l-.738,2.929a.682.682,0,0,0,.142.612.534.534,0,0,0,.4.186.51.51,0,0,0,.147-.021l2.646-.8a.077.077,0,0,0,.028.01.534.534,0,0,0,.4-.184l9.224-10.3h0l.461-.515a1.779,1.779,0,0,0,0-2.32L23.2,3.833a1.4,1.4,0,0,0-2.079,0l-.461.516h0l-.995,1.111V2.319A2.146,2.146,0,0,0,17.651.067Zm3.41,5.615L22.331,7.1,13.9,16.513,12.63,15.094ZM11.89,17.316l.25-.993.647.723Zm10.518-12.6.782.875a.416.416,0,0,1,0,.543l-.064.072-1.27-1.418.064-.072A.327.327,0,0,1,22.408,4.721Z" transform="translate(-0.166 -0.067)" fill="#cb262a"/><path d="M15.521,15.549h3.82a.632.632,0,0,0,0-1.256h-3.82a.632.632,0,0,0,0,1.256Z" transform="translate(-11.004 -10.047)" fill="#cb262a"/><path d="M40.424,15.549a.632.632,0,0,0,0-1.256H37.5a.632.632,0,0,0,0,1.256Z" transform="translate(-27.111 -10.047)" fill="#cb262a"/><path d="M15.521,30.243h1.806a.632.632,0,0,0,0-1.256H15.521a.632.632,0,0,0,0,1.256Z" transform="translate(-11.004 -20.355)" fill="#cb262a"/><path d="M31.191,44.308a.6.6,0,0,0-.562-.628H29a.632.632,0,0,0,0,1.256h1.631A.6.6,0,0,0,31.191,44.308Z" transform="translate(-20.878 -30.662)" fill="#cb262a"/><path d="M15.521,59.627h4.506a.632.632,0,0,0,0-1.256H15.521a.632.632,0,0,0,0,1.256Z" transform="translate(-11.004 -40.968)" fill="#cb262a"/><path d="M55.961,15.549a.632.632,0,0,0,0-1.256h-.9a.632.632,0,0,0,0,1.256Z" transform="translate(-39.974 -10.047)" fill="#cb262a"/><path d="M35.013,29.615a.6.6,0,0,0-.562-.628h-5.1a.632.632,0,0,0,0,1.256h5.1A.6.6,0,0,0,35.013,29.615Z" transform="translate(-21.137 -20.355)" fill="#cb262a"/><path d="M17.2,43.68a.632.632,0,0,0,0,1.256h1.01a.632.632,0,0,0,0-1.256Z" transform="translate(-12.237 -30.662)" fill="#cb262a"/></svg>