<svg xmlns="http://www.w3.org/2000/svg" width="24.341" height="20" viewBox="0 0 24.341 20"><g transform="translate(-17.416 -17.402)"><path d="M27.63,37.4a10.3,10.3,0,0,0,7.226-2.926.755.755,0,0,0,0-1.084.8.8,0,0,0-1.108,0,8.8,8.8,0,0,1-12.236,0,8.356,8.356,0,0,1,0-11.98,8.794,8.794,0,0,1,12.236,0,.8.8,0,0,0,1.108,0,.755.755,0,0,0,0-1.084,10.386,10.386,0,0,0-14.452,0,9.868,9.868,0,0,0,0,14.149A10.3,10.3,0,0,0,27.63,37.4Z" transform="translate(0 0)" fill="#636463"/><path d="M62.2,40.417h0l-3.335-3.335a.783.783,0,1,0-1.108,1.108l2,2H48.3a.783.783,0,0,0,0,1.567H59.752l-2,2a.783.783,0,0,0,1.108,1.108L62.2,41.526a.783.783,0,0,0,.1-.989A.763.763,0,0,0,62.2,40.417Z" transform="translate(-20.669 -13.57)" fill="#636463"/></g></svg>