<svg xmlns="http://www.w3.org/2000/svg" width="44.592" height="45.335" viewBox="0 0 44.592 45.335"><g transform="translate(-11 -10.3)"><g transform="translate(11 10.3)"><path d="M33.3,10.3A22.325,22.325,0,0,0,11,32.6,22.053,22.053,0,0,0,15.688,46.2l-3.03,7.089a1.683,1.683,0,0,0,.229,1.715,1.709,1.709,0,0,0,1.315.629h.286l11.491-2A22.622,22.622,0,0,0,33.3,54.892a22.3,22.3,0,1,0,0-44.592Zm0,41.162a18.58,18.58,0,0,1-6.574-1.2,1.633,1.633,0,0,0-.915-.057l-8.861,1.544L19.118,46.6a1.675,1.675,0,0,0-.286-1.772A18.858,18.858,0,1,1,33.3,51.462Z" transform="translate(-11 -10.3)" fill="#fff"/><circle cx="2.515" cy="2.515" r="2.515" transform="translate(11.434 20.181)" fill="#fff"/><circle cx="2.515" cy="2.515" r="2.515" transform="translate(19.781 20.181)" fill="#fff"/><circle cx="2.515" cy="2.515" r="2.515" transform="translate(28.127 20.181)" fill="#fff"/></g></g></svg>