<svg xmlns="http://www.w3.org/2000/svg" width="25.383" height="25.384" viewBox="0 0 25.383 25.384"><path d="M12.692,2.256a38.915,38.915,0,0,1,5.077.141,6.541,6.541,0,0,1,2.4.423,4.953,4.953,0,0,1,2.4,2.4,6.541,6.541,0,0,1,.423,2.4c0,1.269.141,1.692.141,5.077a38.916,38.916,0,0,1-.141,5.077,6.541,6.541,0,0,1-.423,2.4,4.953,4.953,0,0,1-2.4,2.4,6.541,6.541,0,0,1-2.4.423c-1.269,0-1.692.141-5.077.141a38.916,38.916,0,0,1-5.077-.141,6.541,6.541,0,0,1-2.4-.423,4.953,4.953,0,0,1-2.4-2.4,6.541,6.541,0,0,1-.423-2.4c0-1.269-.141-1.692-.141-5.077A38.915,38.915,0,0,1,2.4,7.615a6.541,6.541,0,0,1,.423-2.4,5.065,5.065,0,0,1,.987-1.41,2.384,2.384,0,0,1,1.41-.987,6.541,6.541,0,0,1,2.4-.423,38.915,38.915,0,0,1,5.077-.141m0-2.256A41.667,41.667,0,0,0,7.474.141a8.706,8.706,0,0,0-3.1.564,5.52,5.52,0,0,0-2.256,1.41A5.521,5.521,0,0,0,.705,4.372a6.425,6.425,0,0,0-.564,3.1A41.667,41.667,0,0,0,0,12.692a41.667,41.667,0,0,0,.141,5.218,8.706,8.706,0,0,0,.564,3.1,5.52,5.52,0,0,0,1.41,2.256,5.521,5.521,0,0,0,2.256,1.41,8.706,8.706,0,0,0,3.1.564,41.667,41.667,0,0,0,5.218.141,41.668,41.668,0,0,0,5.218-.141,8.706,8.706,0,0,0,3.1-.564,5.916,5.916,0,0,0,3.666-3.666,8.706,8.706,0,0,0,.564-3.1c0-1.41.141-1.833.141-5.218a41.667,41.667,0,0,0-.141-5.218,8.706,8.706,0,0,0-.564-3.1,5.521,5.521,0,0,0-1.41-2.256A5.52,5.52,0,0,0,21.012.705a8.706,8.706,0,0,0-3.1-.564A41.667,41.667,0,0,0,12.692,0m0,6.2A6.382,6.382,0,0,0,6.2,12.692,6.487,6.487,0,1,0,12.692,6.2m0,10.717a4.155,4.155,0,0,1-4.231-4.231,4.155,4.155,0,0,1,4.231-4.231,4.155,4.155,0,0,1,4.231,4.231,4.155,4.155,0,0,1-4.231,4.231M19.461,4.372a1.551,1.551,0,1,0,1.551,1.551,1.565,1.565,0,0,0-1.551-1.551" fill="#d90016" fill-rule="evenodd"/></svg>