<svg xmlns="http://www.w3.org/2000/svg" width="36.568" height="36.568" viewBox="0 0 36.568 36.568"><g transform="translate(0)"><path d="M34.608,169.48H31.979v-.966a1.951,1.951,0,0,0-.335-3.873h-3.92a4.325,4.325,0,0,0-5.1-3.067,4.327,4.327,0,0,0-1.632-1.96.537.537,0,1,0-.587.9,3.251,3.251,0,0,1,1.36,1.859.54.54,0,0,0,.7.363,3.252,3.252,0,0,1,4.132,1.906H10.672a3.252,3.252,0,0,1,4.132-1.906.54.54,0,0,0,.7-.363,3.257,3.257,0,0,1,3.132-2.384.537.537,0,1,0,0-1.073,4.336,4.336,0,0,0-3.99,2.66,4.325,4.325,0,0,0-5.1,3.067H4.923a1.951,1.951,0,0,0-.335,3.873v.966H1.959a1.96,1.96,0,0,0,0,3.919H4.588v7.854a2.882,2.882,0,0,0,2.879,2.879H29.1a2.882,2.882,0,0,0,2.879-2.879V173.4h2.629a1.96,1.96,0,0,0,0-3.919ZM1.959,172.326a.886.886,0,1,1,0-1.772H4.588v1.772ZM29.1,183.059H7.467a1.808,1.808,0,0,1-1.806-1.806v-12.71H8.9a.537.537,0,0,0,0-1.073H4.923a.878.878,0,0,1,0-1.755H31.645a.878.878,0,0,1,0,1.755h-20.6a.537.537,0,1,0,0,1.073H30.906v12.71a1.808,1.808,0,0,1-1.806,1.806Zm5.508-10.733H31.979v-1.772h2.629a.886.886,0,0,1,0,1.772Z" transform="translate(0 -147.565)" fill="#cb262a"/><path d="M94.7,140.62a2.071,2.071,0,1,0,2.071,2.071A2.073,2.073,0,0,0,94.7,140.62Zm0,3.068a1,1,0,1,1,1-1A1,1,0,0,1,94.7,143.688Z" transform="translate(-86.011 -130.577)" fill="#cb262a"/><path d="M167.985,94.3a2.071,2.071,0,1,0,2.071-2.071A2.073,2.073,0,0,0,167.985,94.3Zm3.068,0a1,1,0,1,1-1-1A1,1,0,0,1,171.053,94.3Z" transform="translate(-155.987 -85.639)" fill="#cb262a"/><path d="M372.766,154.4a2.071,2.071,0,1,0,2.071-2.071A2.073,2.073,0,0,0,372.766,154.4Zm3.068,0a1,1,0,1,1-1-1A1,1,0,0,1,375.834,154.4Z" transform="translate(-346.143 -141.451)" fill="#cb262a"/><path d="M69.407,3.526l3.221.791a.537.537,0,1,0,.256-1.042l-2.632-.646A2.11,2.11,0,0,1,72.6,1.589L93.03,6.6a2.11,2.11,0,0,1,1.6,2.009L74.969,3.785a.537.537,0,1,0-.256,1.042L94.967,9.8a.538.538,0,0,0,.649-.393,3.183,3.183,0,0,0-2.33-3.845l-6.72-1.649.3-1.242a1.254,1.254,0,0,0-.918-1.515L81.4.036a1.254,1.254,0,0,0-1.515.918L79.58,2.2,72.859.547a3.182,3.182,0,0,0-3.845,2.33.54.54,0,0,0,.393.649ZM80.927,1.21a.179.179,0,0,1,.216-.131L85.7,2.2a.179.179,0,0,1,.131.216l-.3,1.242-4.9-1.2Z" transform="translate(-64.07 0)" fill="#cb262a"/></g></svg>