<svg xmlns="http://www.w3.org/2000/svg" width="30.093" height="38.519" viewBox="0 0 30.093 38.519"><g transform="translate(0.25 0.25)"><path d="M21.311,14.014a.7.7,0,0,1-.445-.159A3.8,3.8,0,1,1,26.933,9.87a.7.7,0,0,1-1.356.384,2.389,2.389,0,1,0-3.819,2.51.7.7,0,0,1-.447,1.25Z" transform="translate(-13.508 -5.638)" fill="#fff" stroke="#fff" stroke-width="0.5"/><path d="M22.343,19.987a.7.7,0,0,1-.7-.6l-.564-3.67a.7.7,0,1,1,1.392-.215l.564,3.67a.705.705,0,0,1-.589.8A.7.7,0,0,1,22.343,19.987Z" transform="translate(-13.976 -7.941)" fill="#fff" stroke="#fff" stroke-width="0.5"/><path d="M39.557,14.017a.7.7,0,0,1-.446-1.25,2.426,2.426,0,0,0-.089-3.781,2.426,2.426,0,0,0-3.731,1.272.7.7,0,1,1-1.355-.385A3.8,3.8,0,1,1,40,13.86.708.708,0,0,1,39.557,14.017Z" transform="translate(-17.768 -5.641)" fill="#fff" stroke="#fff" stroke-width="0.5"/><path d="M40.829,19.987a.7.7,0,0,1-.108-.008.7.7,0,0,1-.589-.8L40.7,15.5a.7.7,0,1,1,1.392.215l-.564,3.67A.7.7,0,0,1,40.829,19.987Z" transform="translate(-19.604 -7.941)" fill="#fff" stroke="#fff" stroke-width="0.5"/><path d="M33.84,8.206a.706.706,0,0,1-.558-.273,3.907,3.907,0,0,0-3.122-1.5h0a3.9,3.9,0,0,0-3.117,1.5.7.7,0,0,1-1.115-.861A5.3,5.3,0,0,1,30.159,5.02h0A5.308,5.308,0,0,1,34.4,7.07a.7.7,0,0,1-.557,1.136Z" transform="translate(-15.366 -5.02)" fill="#fff" stroke="#fff" stroke-width="0.5"/><path d="M23.284,22.122a1.427,1.427,0,0,1-.728-.2,1.4,1.4,0,0,1-.671-.991.7.7,0,0,1,1.392-.223.708.708,0,0,1,.475,1.334A1.367,1.367,0,0,1,23.284,22.122Z" transform="translate(-14.213 -9.48)" fill="#fff" stroke="#fff" stroke-width="0.5"/><path d="M34.894,21.913a.692.692,0,0,1-.239-.042,15.54,15.54,0,0,0-10.509,0,.7.7,0,1,1-.478-1.325,16.923,16.923,0,0,1,11.464,0,.7.7,0,0,1-.239,1.368Z" transform="translate(-14.605 -9.311)" fill="#fff" stroke="#fff" stroke-width="0.5"/><path d="M39.734,22.123a1.392,1.392,0,0,1-.471-.082.7.7,0,0,1,.47-1.328.708.708,0,0,1,1.4.217,1.4,1.4,0,0,1-.675.993A1.421,1.421,0,0,1,39.734,22.123Z" transform="translate(-19.212 -9.48)" fill="#fff" stroke="#fff" stroke-width="0.5"/><path d="M34.626,45.765a.7.7,0,0,1-.5-.206l-2.922-2.922a.7.7,0,0,1,1-1l2.922,2.922a.7.7,0,0,1-.5,1.2Z" transform="translate(-16.909 -15.778)" fill="#fff" stroke="#fff" stroke-width="0.5"/><path d="M31.7,40.647a.7.7,0,0,1-.493-1.208L36.559,34.2a.7.7,0,1,1,.986,1.006L32.2,40.445A.7.7,0,0,1,31.7,40.647Z" transform="translate(-16.909 -13.581)" fill="#fff" stroke="#fff" stroke-width="0.5"/><path d="M35.851,45.342a.7.7,0,0,1-.326-.08.7.7,0,0,1-.3-.95l2.055-3.931a.7.7,0,0,1,1.249.652l-2.055,3.931A.7.7,0,0,1,35.851,45.342Z" transform="translate(-18.134 -15.354)" fill="#fff" stroke="#fff" stroke-width="0.5"/><path d="M22.685,37a.7.7,0,0,1-.6-1.081L23.1,34.328a.7.7,0,0,1,1.191.752l-1.008,1.594A.7.7,0,0,1,22.685,37Z" transform="translate(-14.244 -13.581)" fill="#fff" stroke="#fff" stroke-width="0.5"/><path d="M27.557,45.765a.7.7,0,0,1-.5-1.2l2.922-2.922a.7.7,0,0,1,1,1l-2.922,2.922A.705.705,0,0,1,27.557,45.765Z" transform="translate(-15.683 -15.778)" fill="#fff" stroke="#fff" stroke-width="0.5"/><path d="M29.463,40.647a.7.7,0,0,1-.493-.2l-5.346-5.238a.7.7,0,1,1,.986-1.006l5.347,5.238a.7.7,0,0,1-.493,1.208Z" transform="translate(-14.667 -13.581)" fill="#fff" stroke="#fff" stroke-width="0.5"/><path d="M26.7,45.342a.7.7,0,0,1-.625-.378l-2.055-3.931a.7.7,0,0,1,1.249-.652l2.055,3.931a.7.7,0,0,1-.624,1.031Z" transform="translate(-14.822 -15.354)" fill="#fff" stroke="#fff" stroke-width="0.5"/><path d="M43.72,38.272a.68.68,0,0,1-.14-.014l-2.994-.6a.7.7,0,1,1,.277-1.382l2.994.6a.7.7,0,0,1-.137,1.4Z" transform="translate(-19.573 -14.249)" fill="#fff" stroke="#fff" stroke-width="0.5"/><path d="M18.434,38.272a.7.7,0,0,1-.165-1.389c1.01-.244,2.036-.45,3.05-.612a.7.7,0,1,1,.222,1.392c-.977.156-1.966.354-2.939.59A.722.722,0,0,1,18.434,38.272Z" transform="translate(-12.988 -14.25)" fill="#fff" stroke="#fff" stroke-width="0.5"/><path d="M40.3,37a.7.7,0,0,1-.6-.328L38.7,35.081a.7.7,0,0,1,1.191-.752L40.9,35.923A.7.7,0,0,1,40.3,37Z" transform="translate(-19.15 -13.581)" fill="#fff" stroke="#fff" stroke-width="0.5"/><path d="M15.932,58.389H11.7a.7.7,0,1,1,0-1.409h4.227a.7.7,0,1,1,0,1.409Z" transform="translate(-11 -20.37)" fill="#fff" stroke="#fff" stroke-width="0.5"/><path d="M49.932,58.389H45.7a.7.7,0,0,1,0-1.409h4.227a.7.7,0,1,1,0,1.409Z" transform="translate(-21.045 -20.37)" fill="#fff" stroke="#fff" stroke-width="0.5"/><path d="M12.364,43.425c-.024,0-.048,0-.073,0a.7.7,0,0,1-.628-.774,6.351,6.351,0,0,1,4.813-5.513.7.7,0,1,1,.333,1.369,4.941,4.941,0,0,0-3.743,4.289A.705.705,0,0,1,12.364,43.425Z" transform="translate(-11.195 -14.501)" fill="#fff" stroke="#fff" stroke-width="0.5"/><path d="M11.7,54.575a.7.7,0,0,1-.7-.7,89.9,89.9,0,0,1,.468-9.167.7.7,0,1,1,1.4.143,88.53,88.53,0,0,0-.461,9.024A.7.7,0,0,1,11.7,54.575Z" transform="translate(-11 -16.557)" fill="#fff" stroke="#fff" stroke-width="0.5"/><path d="M49.251,43.425a.705.705,0,0,1-.7-.632A4.941,4.941,0,0,0,44.807,38.5a.7.7,0,1,1,.333-1.369,6.353,6.353,0,0,1,4.813,5.513.7.7,0,0,1-.628.774Z" transform="translate(-20.828 -14.502)" fill="#fff" stroke="#fff" stroke-width="0.5"/><path d="M51.51,54.575h0a.7.7,0,0,1-.7-.7,88.722,88.722,0,0,0-.46-9.024.7.7,0,1,1,1.4-.143,89.9,89.9,0,0,1,.468,9.167A.705.705,0,0,1,51.51,54.575Z" transform="translate(-22.623 -16.557)" fill="#fff" stroke="#fff" stroke-width="0.5"/><path d="M29.3,30.307a5.04,5.04,0,0,1-3.106-1.089c-1.98-1.534-3.145-4.275-3.2-7.523a.7.7,0,0,1,.693-.716.684.684,0,0,1,.716.693c.02,1.333.321,4.626,2.648,6.431a3.788,3.788,0,0,0,5.405-.821,9.05,9.05,0,0,0,1.81-5.611.7.7,0,0,1,.716-.693.7.7,0,0,1,.693.716,10.431,10.431,0,0,1-2.134,6.487A5.538,5.538,0,0,1,29.3,30.307Z" transform="translate(-14.545 -9.735)" fill="#fff" stroke="#fff" stroke-width="0.5"/><ellipse cx="0.705" cy="0.705" rx="0.705" ry="0.705" transform="translate(14.091 31.023)" fill="#fff" stroke="#fff" stroke-width="0.5"/></g></svg>