<svg xmlns="http://www.w3.org/2000/svg" xmlns:xlink="http://www.w3.org/1999/xlink" width="15.474" height="28.141" viewBox="0 0 15.474 28.141"><defs><clipPath id="a"><rect width="15.474" height="28.14" fill="#d90016"/></clipPath></defs><g clip-path="url(#a)"><path d="M291.14,382.8l-3.609-.005c-4.054,0-6.674,2.688-6.674,6.848V392.8h-3.629a.567.567,0,0,0-.568.567v4.576a.568.568,0,0,0,.568.567h3.629v11.545a.567.567,0,0,0,.567.567h4.734a.567.567,0,0,0,.567-.567V398.508h4.242a.568.568,0,0,0,.569-.567v-4.576a.567.567,0,0,0-.568-.567h-4.244v-2.677c0-1.287.307-1.94,1.983-1.94h2.43a.568.568,0,0,0,.568-.567v-4.248a.569.569,0,0,0-.567-.568Zm0,0" transform="translate(-276.421 -382.828)" fill="#d90016"/></g></svg>