<svg xmlns="http://www.w3.org/2000/svg" width="17.307" height="12.98" viewBox="0 0 17.307 12.98"><path d="M15.685,64H1.623A1.623,1.623,0,0,0,0,65.623v9.735A1.623,1.623,0,0,0,1.623,76.98H15.685a1.623,1.623,0,0,0,1.623-1.623V65.623A1.623,1.623,0,0,0,15.685,64Zm0,1.623V67c-.758.617-1.966,1.577-4.549,3.6-.569.448-1.7,1.524-2.482,1.511-.784.013-1.913-1.063-2.482-1.511C3.589,68.579,2.381,67.619,1.623,67V65.623ZM1.623,75.358V69.084C2.4,69.7,3.5,70.567,5.17,71.878c.739.582,2.033,1.865,3.484,1.858,1.444.008,2.721-1.257,3.483-1.857,1.674-1.311,2.773-2.177,3.548-2.794v6.274Z" transform="translate(0 -64)" fill="#fff"/></svg>