<svg xmlns="http://www.w3.org/2000/svg" width="28.94" height="33.433" viewBox="0 0 28.94 33.433"><g transform="translate(0 0)"><path d="M41.944,6H29.727V16.786a.371.371,0,0,1-.371.371H18.57v6.652H41.944Z" transform="translate(-15.761 -6)" fill="#cb262a"/><rect width="23.374" height="2.772" transform="translate(2.809 30.661)" fill="#cb262a"/><path d="M29.871,7.41l-4.946,4.946L19.98,17.3h9.891Z" transform="translate(-16.648 -6.887)" fill="#cb262a"/><path d="M38.667,56H12.273A1.276,1.276,0,0,0,11,57.273V66.1a1.276,1.276,0,0,0,1.273,1.273H38.667A1.276,1.276,0,0,0,39.94,66.1V57.273A1.276,1.276,0,0,0,38.667,56ZM20.075,62.678H19.018V64.9a.371.371,0,0,1-.371.371h-.827a.371.371,0,0,1-.371-.371V58.456a.371.371,0,0,1,.371-.371h2.256c1.6,0,2.482.813,2.482,2.293S21.674,62.678,20.075,62.678Zm5.506,2.6H23.437a.371.371,0,0,1-.371-.371V58.456a.371.371,0,0,1,.371-.371h2.145a3.243,3.243,0,0,1,3.588,3.6C29.169,64.01,27.93,65.276,25.581,65.276Zm8.9-6.081a.371.371,0,0,1-.371.371H31.406V61.05h2.282a.371.371,0,0,1,.371.371v.742a.371.371,0,0,1-.371.371H31.406V64.9a.371.371,0,0,1-.371.371h-.824a.371.371,0,0,1-.371-.371V58.456a.371.371,0,0,1,.371-.371h3.907a.371.371,0,0,1,.371.371Z" transform="translate(-11 -37.449)" fill="#cb262a"/><path d="M50.692,67.694a2.287,2.287,0,0,0-.5-1.658,2.007,2.007,0,0,0-1.484-.479H47.75v4.259H48.7C50.087,69.816,50.685,69.182,50.692,67.694Z" transform="translate(-34.115 -43.455)" fill="#cb262a"/><path d="M34.565,66.394c0-.608-.237-.824-.9-.824H32.61v1.644h1.057C34.406,67.214,34.558,66.883,34.565,66.394Z" transform="translate(-24.592 -43.468)" fill="#cb262a"/></g></svg>