<svg xmlns="http://www.w3.org/2000/svg" width="19.897" height="18.458" viewBox="0 0 19.897 18.458"><g transform="translate(151.847 -55.448)"><g transform="translate(-157.977 47.448)"><path d="M24.154,23.893v1.8a.769.769,0,0,1-1.538,0v-1.8a2.638,2.638,0,0,1,0-5.049V8.769a.769.769,0,0,1,1.538,0V18.844a2.638,2.638,0,0,1,0,5.049ZM9.541,14.614V8.769A.769.769,0,0,0,8,8.769v5.845a2.638,2.638,0,0,0,0,5.049v6.026a.769.769,0,0,0,1.538,0V19.663a2.638,2.638,0,0,0,0-5.049Zm7.306-3.845v-2a.769.769,0,0,0-1.538,0v2a2.638,2.638,0,0,0,0,5.049v9.871a.769.769,0,0,0,1.538,0V15.818a2.638,2.638,0,0,0,0-5.049Z" fill="#fff"/></g></g></svg>