<svg xmlns="http://www.w3.org/2000/svg" width="24.578" height="24.578" viewBox="0 0 24.578 24.578"><g transform="translate(-7 -7)"><g transform="translate(7 7)"><path d="M19.289,31.578A12.289,12.289,0,1,0,7,19.289,12.307,12.307,0,0,0,19.289,31.578Zm0-22.863A10.574,10.574,0,1,1,8.715,19.289,10.587,10.587,0,0,1,19.289,8.715Z" transform="translate(-7 -7)" fill="#cb262a"/><path d="M47.857,38.288a.842.842,0,0,0,.857-.857V30.857a.857.857,0,1,0-1.715,0v6.573A.842.842,0,0,0,47.857,38.288Z" transform="translate(-35.568 -23.427)" fill="#cb262a"/><path d="M47.143,64.286A1.143,1.143,0,1,0,46,63.143,1.147,1.147,0,0,0,47.143,64.286Z" transform="translate(-34.854 -46.281)" fill="#cb262a"/></g></g></svg>