<svg xmlns="http://www.w3.org/2000/svg" width="12.396" height="12.395" viewBox="0 0 12.396 12.395"><path d="M25.245,14.816l-.665-.665a2.207,2.207,0,0,0-3.12,0l-6.96,6.96a.509.509,0,0,0-.138.251l-.849,3.92a.509.509,0,0,0,.606.606l3.921-.849a.509.509,0,0,0,.251-.138l6.96-6.96a2.207,2.207,0,0,0-.007-3.125Zm-9.658,6.65,5.619-5.621,2.346,2.346L17.932,23.81Zm-.421,1.019,1.747,1.747-2.236.487Zm9.361-5.263-.246.248-2.353-2.353.253-.253a1.188,1.188,0,0,1,1.681,0l.665.665a1.188,1.188,0,0,1,0,1.689Z" transform="translate(-13.501 -13.505)" fill="#fff"/></svg>