<svg xmlns="http://www.w3.org/2000/svg" width="7.469" height="7.469" viewBox="0 0 7.469 7.469"><g transform="translate(2.716)"><path d="M190.6,0H187.88a.339.339,0,1,0,0,.679h1.9l-3.494,3.494a.339.339,0,1,0,.48.48l3.494-3.494v1.9a.339.339,0,1,0,.679,0V.339A.34.34,0,0,0,190.6,0Z" transform="translate(-186.182)" fill="#fff"/></g><g transform="translate(0 1.358)"><path d="M5.771,95.128a.34.34,0,0,0-.339.34v3.055H.679V93.77H3.734a.339.339,0,1,0,0-.679H.339a.34.34,0,0,0-.339.34v5.432a.34.34,0,0,0,.339.34H5.771a.34.34,0,0,0,.339-.34V95.467A.34.34,0,0,0,5.771,95.128Z" transform="translate(0 -93.091)" fill="#fff"/></g></svg>