<svg xmlns="http://www.w3.org/2000/svg" width="23.009" height="23.001" viewBox="0 0 23.009 23.001"><path d="M363.14,34.353H352.088V38.9h6.149a6.87,6.87,0,0,1-2.947,3.5h0a6.843,6.843,0,0,1-9.861-3.5h0A6.863,6.863,0,0,1,345,36.5a6.785,6.785,0,0,1,.371-2.22h0A6.837,6.837,0,0,1,355.452,30.7l3.728-3.047a11.506,11.506,0,0,0-17.471,14.308h0a11.512,11.512,0,0,0,17.332,3.519h0a11.532,11.532,0,0,0,4.053-6.566,11.688,11.688,0,0,0,.255-2.405A12.223,12.223,0,0,0,363.14,34.353Z" transform="translate(-340.34 -25.01)" fill="#fff"/></svg>