<svg xmlns="http://www.w3.org/2000/svg" width="22.533" height="26" viewBox="0 0 22.533 26"><g transform="translate(305.16 7)"><g transform="translate(-316 -964.362)"><path d="M18,957.362a.9.9,0,0,0-.774.867v2.311H11.661a.868.868,0,0,0,.09,1.733h.954l2.512,20.321a.9.9,0,0,0,.855.767h4.61a.867.867,0,1,0,0-1.733H16.838l-2.4-19.355H29.8l-2.4,19.355H23.565a.867.867,0,1,0,0,1.733h4.61a.9.9,0,0,0,.855-.767l2.512-20.321H32.5a.867.867,0,1,0,0-1.733H27.022v-2.311a.9.9,0,0,0-.864-.867H18Zm.954,1.733h6.339v1.444H18.954Zm-.3,6.626a.9.9,0,0,0-.855.885v10.978a.865.865,0,1,0,1.729,0V966.606A.9.9,0,0,0,18.657,965.722Zm3.458,0a.9.9,0,0,0-.855.885v10.978a.865.865,0,1,0,1.729,0V966.606a.9.9,0,0,0-.873-.885Zm3.458,0a.9.9,0,0,0-.855.885v10.978a.865.865,0,1,0,1.729,0V966.606a.9.9,0,0,0-.873-.885Z" transform="translate(0)" fill="#636463"/></g></g></svg>