<svg xmlns="http://www.w3.org/2000/svg" width="33.067" height="33.22" viewBox="0 0 33.067 33.22"><path d="M33.091,63.592H3.341A1.606,1.606,0,0,1,1.7,62.019V46.973A1.607,1.607,0,0,1,3.341,45.4a1.585,1.585,0,0,1,1.641,1.573V60.48h26.5V46.973A1.607,1.607,0,0,1,33.125,45.4a1.585,1.585,0,0,1,1.641,1.573V62.019A1.708,1.708,0,0,1,33.091,63.592Z" transform="translate(-1.7 -30.371)" fill="#cb262a"/><path d="M42.19,8.238,35.864,1.912a1.652,1.652,0,0,0-2.291,0L27.179,8.238A1.628,1.628,0,0,0,26.7,9.4a1.55,1.55,0,0,0,.479,1.128,1.609,1.609,0,0,0,1.128.479,1.628,1.628,0,0,0,1.163-.479l3.488-3.454V23.318a1.71,1.71,0,1,0,3.42,0V7.007L39.9,10.529a1.652,1.652,0,0,0,2.291,0A1.609,1.609,0,0,0,42.669,9.4,1.628,1.628,0,0,0,42.19,8.238Z" transform="translate(-18.151 -1.45)" fill="#cb262a"/></svg>