<svg xmlns="http://www.w3.org/2000/svg" xmlns:xlink="http://www.w3.org/1999/xlink" width="40.195" height="41.252" viewBox="0 0 40.195 41.252">
  <defs>
    <filter id="Trazado_11112" x="8.455" y="4.228" width="23.285" height="23.285" filterUnits="userSpaceOnUse">
      <feOffset dy="3" input="SourceAlpha"/>
      <feGaussianBlur stdDeviation="3" result="blur"/>
      <feFlood flood-opacity="0.161"/>
      <feComposite operator="in" in2="blur"/>
      <feComposite in="SourceGraphic"/>
    </filter>
    <filter id="Trazado_11113" x="0" y="0" width="40.195" height="41.252" filterUnits="userSpaceOnUse">
      <feOffset dy="3" input="SourceAlpha"/>
      <feGaussianBlur stdDeviation="3" result="blur-2"/>
      <feFlood flood-opacity="0.161"/>
      <feComposite operator="in" in2="blur-2"/>
      <feComposite in="SourceGraphic"/>
    </filter>
  </defs>
  <g id="noun_Location_2000393_1_" data-name="noun_Location_2000393 (1)" transform="translate(9 6)">
    <g id="Grupo_10630" data-name="Grupo 10630" transform="translate(0 0)">
      <g id="Grupo_10629" data-name="Grupo 10629">
        <g transform="matrix(1, 0, 0, 1, -9, -6)" filter="url(#Trazado_11112)">
          <path id="Trazado_11112-2" data-name="Trazado 11112" d="M21.642,15.285A2.642,2.642,0,1,0,19,12.642,2.645,2.645,0,0,0,21.642,15.285Zm0-4.228a1.585,1.585,0,1,1-1.585,1.585A1.587,1.587,0,0,1,21.642,11.057Z" transform="translate(-1.54 0.23)" fill="#fff"/>
        </g>
        <g transform="matrix(1, 0, 0, 1, -9, -6)" filter="url(#Trazado_11113)">
          <path id="Trazado_11113-2" data-name="Trazado 11113" d="M18.215,17.082A16.419,16.419,0,0,0,20.968,8.87a6.87,6.87,0,1,0-13.74,0A16.419,16.419,0,0,0,9.98,17.082C5.712,17.7,3,19.21,3,21.025c0,2.746,5.717,4.228,11.1,4.228s11.1-1.482,11.1-4.228C25.2,19.21,22.483,17.7,18.215,17.082ZM14.1,3.057A5.82,5.82,0,0,1,19.911,8.87c0,3.115-1.648,6.253-3.031,8.339A29.743,29.743,0,0,1,14.1,20.783a29.735,29.735,0,0,1-2.783-3.575c-1.382-2.084-3.03-5.223-3.03-8.338A5.82,5.82,0,0,1,14.1,3.057Zm0,21.139c-5.917,0-10.041-1.671-10.041-3.171,0-1.056,2.3-2.43,6.561-2.959a28.938,28.938,0,0,0,3.106,3.861.528.528,0,0,0,.748,0,28.9,28.9,0,0,0,3.105-3.861c4.26.53,6.561,1.9,6.561,2.959C24.139,22.524,20.015,24.2,14.1,24.2Z" transform="translate(6 4)" fill="#fff"/>
        </g>
      </g>
    </g>
  </g>
</svg>
