<svg xmlns="http://www.w3.org/2000/svg" width="43.694" height="50.588" viewBox="0 0 43.694 50.588"><g transform="translate(0 0)"><g transform="translate(0 0)"><path d="M75.292,19.456,45.413,1.039a6.909,6.909,0,0,0-10.53,5.883V43.589a6.981,6.981,0,0,0,6.894,7h.031a6.933,6.933,0,0,0,3.582-1.078,1.973,1.973,0,1,0-2.055-3.368,3.027,3.027,0,0,1-1.537.5,3.065,3.065,0,0,1-2.97-3.053V6.922A2.963,2.963,0,0,1,43.344,4.4L73.222,22.815a2.963,2.963,0,0,1-.013,5.055L51.607,41.1a1.973,1.973,0,0,0,2.06,3.365l21.6-13.225a6.909,6.909,0,0,0,.025-11.78Z" transform="translate(-34.883 0)" fill="#cb262a"/></g></g></svg>