<svg xmlns="http://www.w3.org/2000/svg" width="22.767" height="23.625" viewBox="0 0 22.767 23.625"><path d="M34.163,78.1H33.57l.064.59a4.553,4.553,0,0,0,9.055,0l.064-.59Zm4,3.589a3.482,3.482,0,0,1-3.354-2.515h6.708A3.482,3.482,0,0,1,38.162,81.689Z" transform="translate(-26.772 -59.139)" fill="#cb262a"/><path d="M28.694,19.122a.38.38,0,0,1-.377-.38V18.7a4.041,4.041,0,0,0-.587-8.041h-.307a6.683,6.683,0,0,0-5.006-3.3,1.7,1.7,0,0,0-.078-.634,2.412,2.412,0,0,0-1.42-1.414.8.8,0,0,0-.559,0,2.412,2.412,0,0,0-1.417,1.417,1.694,1.694,0,0,0-.078.632,6.674,6.674,0,0,0-5.9,6.652v4.732a.38.38,0,0,1-.112.279.375.375,0,0,1-.279.109A3.334,3.334,0,0,0,9.25,22.456v.307A2.437,2.437,0,0,0,11.7,25.2H29.583a2.437,2.437,0,0,0,2.434-2.434v-.307a3.3,3.3,0,0,0-.975-2.353,3.337,3.337,0,0,0-2.348-.981Zm-1.476-7.351a2.924,2.924,0,0,1,.509-.045,2.979,2.979,0,0,1,.587,5.9V17.6l-.587.081h0a2.982,2.982,0,0,1-2.977-2.979v-.279a2.968,2.968,0,0,1,2.457-2.666ZM19.932,7.112a1.311,1.311,0,0,1,.707-.766,1.311,1.311,0,0,1,.707.766,1.272,1.272,0,0,1,0,.2h-1.42a1.252,1.252,0,0,1,.006-.2ZM30.963,22.763a1.372,1.372,0,0,1-1.369,1.369H11.7a1.372,1.372,0,0,1-1.369-1.369v-.307a2.269,2.269,0,0,1,2.267-2.267,1.445,1.445,0,0,0,1.445-1.445V14.01a5.618,5.618,0,0,1,5.4-5.632h2.387A5.621,5.621,0,0,1,26.3,10.913q-.155.059-.3.126l-.084.042c-.073.036-.143.07-.212.109l-.106.064-.176.112-.106.075-.157.12-.1.084-.148.134-.092.089c-.05.05-.1.1-.145.159l-.075.084c-.061.073-.117.148-.173.226l-.025.034c-.061.089-.12.182-.176.279l-.05.092c-.036.064-.073.131-.1.2l-.053.115c-.028.061-.053.126-.078.187l-.045.126q-.034.1-.061.193a.619.619,0,0,1-.036.131c-.011.045-.031.134-.045.2s-.017.084-.025.129-.022.151-.031.226a.469.469,0,0,0,0,.112c0,.115-.014.229-.014.344a2.773,2.773,0,0,0,.02.4.289.289,0,0,0,.02.129,1.33,1.33,0,0,0,.039.257c.017.084.025.1.036.148s.036.151.059.226a1.563,1.563,0,0,0,.053.154c.02.05.048.14.075.207s.045.1.067.151.061.131.1.2.053.1.081.145.073.123.112.182l.092.137q.061.087.126.17l.1.126c.048.053.1.106.143.157l.115.117c.05.05.106.1.159.145l.12.1c.059.048.117.089.179.134l.126.089c.064.042.131.081.2.12l.123.073c.078.042.159.078.24.115l.1.048c.117.05.238.092.358.131h.042c.109.034.218.061.33.087l.131.022a2.135,2.135,0,0,1,.221.036v.02a1.445,1.445,0,0,0,1.442,1.445,2.267,2.267,0,0,1,1.6.668,2.236,2.236,0,0,1,.665,1.6Z" transform="translate(-9.25 -5.259)" fill="#cb262a"/><path d="M34.474,18.73a6,6,0,0,0-4.544,6.065.532.532,0,1,0,1.065,0,4.9,4.9,0,0,1,3.695-5.031.532.532,0,0,0-.215-1.042Z" transform="translate(-24.15 -14.951)" fill="#cb262a"/></svg>