<svg xmlns="http://www.w3.org/2000/svg" width="25.437" height="20.318" viewBox="0 0 25.437 20.318"><g transform="translate(-1041.781 -57.514)"><path d="M18.706,12.9a9.517,9.517,0,0,0-2.427-1.519.794.794,0,0,0-1.048.4c-.178.4.062.6.463.777a8.24,8.24,0,0,1,1.964,1.532,3.165,3.165,0,0,1,1.072,2.379v1.468a.8.8,0,0,1-.794.794H2.381a.8.8,0,0,1-.794-.794V16.468A3.165,3.165,0,0,1,2.659,14.09c.8-.7,3.138-2.344,7.5-2.344a5.88,5.88,0,1,0-3.577-1.219,11.034,11.034,0,0,0-4.97,2.37A4.752,4.752,0,0,0,0,16.468v1.468a2.384,2.384,0,0,0,2.381,2.381H17.937a2.384,2.384,0,0,0,2.381-2.381V16.468A4.752,4.752,0,0,0,18.706,12.9ZM5.873,5.873a4.286,4.286,0,1,1,4.286,4.286A4.291,4.291,0,0,1,5.873,5.873Zm0,0" transform="translate(1041.781 57.514)" fill="#fff"/><path d="M6.278,0a6.278,6.278,0,1,0,6.278,6.278A6.285,6.285,0,0,0,6.278,0ZM9.025,6.8H6.8V9.025a.523.523,0,0,1-1.046,0V6.8H3.532a.523.523,0,1,1,0-1.046H5.755V3.532a.523.523,0,1,1,1.046,0V5.755H9.025a.523.523,0,0,1,0,1.046Zm0,0" transform="translate(1054.662 59.595)" fill="#fff"/></g></svg>