<svg xmlns="http://www.w3.org/2000/svg" width="29" height="29" viewBox="0 0 29 29"><path d="M26.7,18.409a13.583,13.583,0,0,0-3.465-2.169,1.133,1.133,0,0,0-.92,2.07,11.329,11.329,0,0,1,2.889,1.8,4.517,4.517,0,0,1,1.53,3.4v2.1A1.134,1.134,0,0,1,25.6,26.734H3.4A1.134,1.134,0,0,1,2.266,25.6v-2.1a4.517,4.517,0,0,1,1.53-3.4C4.94,19.1,8.275,16.766,14.5,16.766a8.393,8.393,0,1,0-5.106-1.739A15.749,15.749,0,0,0,2.3,18.409a6.783,6.783,0,0,0-2.3,5.1v2.1A3.4,3.4,0,0,0,3.4,29H25.6A3.4,3.4,0,0,0,29,25.6v-2.1A6.783,6.783,0,0,0,26.7,18.409ZM8.383,8.383A6.117,6.117,0,1,1,14.5,14.5,6.124,6.124,0,0,1,8.383,8.383Zm0,0" fill="#fff"/></svg>