<svg xmlns="http://www.w3.org/2000/svg" width="31" height="34.587" viewBox="0 0 31 34.587"><g transform="translate(-31.737)"><g transform="translate(31.737)"><path d="M62.163,28.272c-3.676-1.66-3.815-8.785-3.818-8.965v-4.78A11.125,11.125,0,0,0,51.539,4.287a4.3,4.3,0,0,0-8.6,0,11.125,11.125,0,0,0-6.806,10.241v4.78c0,.18-.143,7.3-3.818,8.965a.975.975,0,0,0,.4,1.864h9.318a5.482,5.482,0,0,0,1.448,2.82,5.146,5.146,0,0,0,7.517,0,5.481,5.481,0,0,0,1.448-2.82h9.318a.975.975,0,0,0,.4-1.864Zm-4.842-3.413a10.817,10.817,0,0,0,1.709,3.327H35.444a10.816,10.816,0,0,0,1.709-3.327ZM47.237,1.951a2.355,2.355,0,0,1,2.259,1.7,11.156,11.156,0,0,0-4.518,0A2.356,2.356,0,0,1,47.237,1.951ZM38.08,19.313V14.527a9.157,9.157,0,0,1,18.315,0v4.794a20.355,20.355,0,0,0,.413,3.587H37.667A20.371,20.371,0,0,0,38.08,19.313Zm9.157,13.323a3.421,3.421,0,0,1-3.2-2.5h6.41A3.421,3.421,0,0,1,47.237,32.637Z" transform="translate(-31.737)" fill="#cb262a"/><path d="M178.954,119.235a7.619,7.619,0,0,0-7.61,7.61.975.975,0,1,0,1.951,0,5.666,5.666,0,0,1,5.66-5.659.975.975,0,1,0,0-1.951Z" transform="translate(-163.454 -112.496)" fill="#cb262a"/></g></g></svg>