<svg xmlns="http://www.w3.org/2000/svg" width="34.727" height="34.611" viewBox="0 0 34.727 34.611"><g transform="translate(11184.578 1635.794)"><g transform="translate(-11184.578 -1635.794)"><path d="M52.369,42.138a6.538,6.538,0,0,1-5.818.833.579.579,0,0,0-.529.073l-2.6,1.846.67.944,2.363-1.678A7.734,7.734,0,0,0,53.015,43.1a8.212,8.212,0,0,0,.967-.765l-.785-.851a6.973,6.973,0,0,1-.828.657Z" transform="translate(-19.439 -18.637)" fill="#cb262a"/><path d="M29.08,26.981A5.261,5.261,0,0,0,26.684,32l-7.335,4.7L12.013,32a5.238,5.238,0,0,0-2.4-5.017,5.532,5.532,0,0,0-3.773-.941,4.282,4.282,0,0,0-3.69,5.47,5.528,5.528,0,0,0,2.286,3.143A5.236,5.236,0,0,0,9.992,35l5.694,4.043-5.419,3.475A2.27,2.27,0,1,0,12.8,46.283l6.545-4.642,6.545,4.645a2.274,2.274,0,1,0,2.539-3.769l-5.425-3.472L28.706,35a5.237,5.237,0,0,0,5.555-.342,4.955,4.955,0,0,0,1.729-6.751c-1.425-2.118-4.527-2.532-6.91-.927ZM12.133,45.342a1.142,1.142,0,0,1-1.569-.286,1.112,1.112,0,0,1,.325-1.562L16.7,39.764l1.643,1.165ZM28.3,44.206a1.117,1.117,0,0,1-1.739,1.137L10.337,33.828a.579.579,0,0,0-.676,0A4.01,4.01,0,0,1,5.084,33.7,4.376,4.376,0,0,1,3.27,31.216a3.125,3.125,0,0,1,2.72-4.027,4.376,4.376,0,0,1,2.981.752,4.01,4.01,0,0,1,1.837,4.193.579.579,0,0,0,.249.629L27.809,43.493A1.106,1.106,0,0,1,28.3,44.206ZM33.612,33.7a4.01,4.01,0,0,1-4.577.134.579.579,0,0,0-.676,0l-6.4,4.544-1.535-.984,7.218-4.629a.579.579,0,0,0,.249-.628,4.03,4.03,0,0,1,1.839-4.193,3.8,3.8,0,0,1,5.3.612A3.807,3.807,0,0,1,33.612,33.7Z" transform="translate(-1.977 -12.115)" fill="#cb262a"/><path d="M10.008,3.131l-.641-.964A7.522,7.522,0,0,0,6.43,10.943l1.091-.387a6.365,6.365,0,0,1,2.488-7.425Z" transform="translate(-3.672 -2.07)" fill="#cb262a"/><path d="M9.484,19.523A6.437,6.437,0,0,1,8.747,18.5l-1,.579a7.589,7.589,0,0,0,.871,1.209Z" transform="translate(-4.407 -8.953)" fill="#cb262a"/><path d="M29.082,21.789l1.647-8.236a5.208,5.208,0,0,0-.479-10.4,5.143,5.143,0,0,0-3.222,1.12,5.2,5.2,0,0,0-8.6,0,5.143,5.143,0,0,0-3.222-1.12,5.208,5.208,0,0,0-.479,10.393l1.647,8.238,1.134-.227-.324-1.625H28.272l-.324,1.62ZM26.289,18.78l.484-3.39-1.146-.164-.507,3.554H23.308V12.415H22.151V18.78H20.338l-.507-3.554-1.146.164.484,3.39H16.955l-1.18-5.9a.579.579,0,0,0-.567-.463,4.05,4.05,0,1,1,2.941-6.828.579.579,0,0,0,.941-.145,4.042,4.042,0,0,1,7.28,0,.579.579,0,0,0,.941.145,4.048,4.048,0,1,1,2.941,6.828.579.579,0,0,0-.567.463l-1.18,5.9Z" transform="translate(-5.357 -2)" fill="#cb262a"/></g></g></svg>