<svg id="Capa_1" data-name="Capa 1" xmlns="http://www.w3.org/2000/svg" viewBox="0 0 26 26"><defs><style>.cls-1{fill:#3bc37b;}</style></defs><path class="cls-1" d="M24.69,9.12,17.22,8,13.88,1.24h0A.92.92,0,0,0,13.39.8a1,1,0,0,0-.71-.05.92.92,0,0,0-.57.49L8.72,8,1.27,9.12a.91.91,0,0,0-.58.26l0,0a1.06,1.06,0,0,0,.08,1.4l5.38,5.29L4.87,23.5a.91.91,0,0,0,.08.66,1.06,1.06,0,0,0,.58.5.84.84,0,0,0,.35.07.92.92,0,0,0,.43-.11L13,21.1l6.62,3.47a1.1,1.1,0,0,0,.63.15h.06a.93.93,0,0,0,.67-.43,1.08,1.08,0,0,0,.15-.75l-1.25-7.42,5.38-5.25a1,1,0,0,0,.31-.64A1,1,0,0,0,24.69,9.12Z"/></svg>