<svg xmlns="http://www.w3.org/2000/svg" width="13.83" height="19.669" viewBox="0 0 13.83 19.669"><g transform="translate(-76)"><g transform="translate(76)"><g transform="translate(0)"><path d="M82.915,0a6.916,6.916,0,0,0-5.883,10.551L82.521,19.4a.576.576,0,0,0,.49.272h0a.576.576,0,0,0,.49-.28l5.349-8.931A6.917,6.917,0,0,0,82.915,0Zm4.951,9.866L83,17.986,78.012,9.944a5.766,5.766,0,1,1,9.854-.078Z" transform="translate(-76 0)" fill="#cb262a"/></g></g><g transform="translate(79.458 3.458)"><path d="M169.458,90a3.458,3.458,0,1,0,3.458,3.458A3.461,3.461,0,0,0,169.458,90Zm0,5.77a2.313,2.313,0,1,1,2.309-2.313A2.314,2.314,0,0,1,169.458,95.77Z" transform="translate(-166 -90)" fill="#cb262a"/></g></g></svg>