<svg xmlns="http://www.w3.org/2000/svg" width="43.862" height="43.862" viewBox="0 0 43.862 43.862"><g transform="translate(0 0)"><path d="M46.362,24.431A21.931,21.931,0,1,0,24.431,46.362,21.951,21.951,0,0,0,46.362,24.431Zm-40.722,0A18.791,18.791,0,1,1,24.431,43.222,18.838,18.838,0,0,1,5.64,24.431Z" transform="translate(-2.5 -2.5)" fill="#cb262a"/><path d="M50.527,39.44a1.561,1.561,0,0,0,0-2.216l-8.449-8.449a1.567,1.567,0,1,0-2.216,2.216l7.295,7.341-7.295,7.295a1.5,1.5,0,0,0-.462,1.108,1.432,1.432,0,0,0,.462,1.108,1.589,1.589,0,0,0,2.216,0Z" transform="translate(-22.363 -16.402)" fill="#cb262a"/></g></svg>