<svg xmlns="http://www.w3.org/2000/svg" width="25.004" height="25.004" viewBox="0 0 25.004 25.004"><path d="M38.344,20.663a12.5,12.5,0,0,0-19,16.131l-1.077,2.424a.831.831,0,0,0,1.1,1.1L21.7,39.275a12.448,12.448,0,0,0,7.8,2.731q.481,0,.966-.036a12.5,12.5,0,0,0,7.87-21.307ZM30.7,34.624h-6a.758.758,0,1,1,0-1.515h6a.758.758,0,0,1,0,1.515Zm3.618,0H33.93a.758.758,0,1,1,0-1.515h.385a.758.758,0,1,1,0,1.515Zm0-4.362H24.693a.758.758,0,1,1,0-1.515h9.622a.758.758,0,1,1,0,1.515Zm0-4.362H27.836a.758.758,0,1,1,0-1.515h6.479a.758.758,0,1,1,0,1.515Z" transform="translate(-17.002 -17.002)" fill="#3bc37b"/></svg>