<svg xmlns="http://www.w3.org/2000/svg" width="23.538" height="35.614" viewBox="0 0 23.538 35.614"><path d="M355.335,279.789a5.7,5.7,0,0,1,.048-.69c-.028.186-.048.366-.076.552a5.367,5.367,0,0,1,.352-1.3l-.207.5a5.536,5.536,0,0,1,.448-.849c.041-.069.09-.131.138-.2.117-.179-.359.428-.117.152.1-.117.207-.242.324-.352s.235-.221.352-.324c.207-.179-.159.131-.193.145.062-.028.138-.1.2-.138a5.439,5.439,0,0,1,.9-.49l-.5.207a16.374,16.374,0,0,0,2.415-1.132,12.454,12.454,0,0,0,2.077-1.622,12.129,12.129,0,0,0,2.836-4.43A11.758,11.758,0,0,0,346.5,256.224a11.957,11.957,0,0,0-3.609,4.071,12.116,12.116,0,0,0-1.387,5.541,2.07,2.07,0,1,0,4.14,0,10.813,10.813,0,0,1,.09-1.339c-.028.186-.048.366-.076.552a9.882,9.882,0,0,1,.662-2.415l-.207.5a9.894,9.894,0,0,1,.856-1.6c.083-.124.172-.248.262-.373s.331-.373-.1.131c.041-.048.076-.1.11-.138.2-.242.414-.476.635-.7s.435-.414.669-.607a1.483,1.483,0,0,1,.173-.145c-.028,0-.469.345-.166.131.124-.09.241-.179.373-.262a9.906,9.906,0,0,1,1.642-.883l-.5.207a9.717,9.717,0,0,1,2.415-.662c-.186.028-.366.048-.552.076a10.228,10.228,0,0,1,2.677,0c-.186-.028-.366-.048-.552-.076a9.882,9.882,0,0,1,2.415.662l-.5-.207a9.933,9.933,0,0,1,1.6.863c.124.083.248.173.373.262s.373.331-.131-.1c.048.041.1.076.138.11.242.2.476.414.7.635s.414.435.607.669c.021.028.145.145.145.172,0-.028-.345-.469-.131-.166.09.124.179.242.262.373a9.9,9.9,0,0,1,.883,1.642l-.207-.5a9.718,9.718,0,0,1,.662,2.415c-.028-.186-.048-.366-.076-.552a10.071,10.071,0,0,1,0,2.657c.028-.186.048-.366.076-.552a9.809,9.809,0,0,1-.676,2.463l.207-.5a10.033,10.033,0,0,1-.869,1.608l-.248.352c-.207.276.09-.076.117-.152a.782.782,0,0,1-.152.186c-.193.235-.4.455-.614.669s-.414.393-.635.58c-.062.048-.124.1-.186.152-.186.152.421-.311.152-.117l-.352.248a9.576,9.576,0,0,1-1.656.89l.5-.207a10.326,10.326,0,0,0-2.029.966,7.932,7.932,0,0,0-1.884,1.835,7.148,7.148,0,0,0-1.352,4.2,2.07,2.07,0,1,0,4.14,0Z" transform="translate(-341.499 -254.084)" fill="#fff"/><g transform="translate(9.688 30.831)"><path d="M486.047,703.6v-.642a2.11,2.11,0,0,0-.607-1.463,1.532,1.532,0,0,0-.669-.428,1.588,1.588,0,0,0-.8-.179,2.068,2.068,0,0,0-1.463.607,2.154,2.154,0,0,0-.607,1.463v.642a2.11,2.11,0,0,0,.607,1.463,1.532,1.532,0,0,0,.669.428,1.587,1.587,0,0,0,.8.179,2.068,2.068,0,0,0,1.463-.607,2.128,2.128,0,0,0,.607-1.463Z" transform="translate(-481.9 -700.892)" fill="#fff"/></g></svg>