<svg xmlns="http://www.w3.org/2000/svg" width="43.862" height="43.862" viewBox="0 0 43.862 43.862"><path d="M2.5,24.431A21.931,21.931,0,1,1,24.431,46.362,21.951,21.951,0,0,1,2.5,24.431Zm40.722,0A18.791,18.791,0,1,0,24.431,43.222,18.838,18.838,0,0,0,43.222,24.431Z" transform="translate(-2.5 -2.5)" fill="#cb262a"/><path d="M39.862,39.44a1.561,1.561,0,0,1,0-2.216l8.449-8.449a1.567,1.567,0,1,1,2.216,2.216l-7.295,7.341,7.295,7.295a1.5,1.5,0,0,1,.462,1.108,1.432,1.432,0,0,1-.462,1.108,1.589,1.589,0,0,1-2.216,0Z" transform="translate(-24.164 -16.402)" fill="#cb262a"/></svg>