<svg xmlns="http://www.w3.org/2000/svg" width="14.33" height="17.669" viewBox="0 0 14.33 17.669"><g transform="translate(-21.871 -38.485)"><g transform="translate(21.871 38.485)"><path d="M68.887,41.213a1.95,1.95,0,0,1-.552,2.623l-1.173.9c-.966.621,3.589,7.109,4.555,6.419h0c.759-.552,1.587-1.38,2.692-1.173a1.7,1.7,0,0,1,1.242.828l1.173,1.518a2.391,2.391,0,0,1-.345,3.037c-2.347,1.657-5.315.552-7.937-1.795a18.308,18.308,0,0,1-4.762-6.626C62.537,43.835,62.4,40.8,64.47,39a2.132,2.132,0,0,1,.966-.483,2.353,2.353,0,0,1,1.933.621A9.44,9.44,0,0,1,68.887,41.213Zm-3.175-1.795c-.345,0-.621.276-.9.483-1.449,1.518-1.242,4.072-.138,6.7a16.946,16.946,0,0,0,4.486,6.281c2.278,2.071,4.9,3.106,6.764,1.726.483-.345.414-1.242.138-1.726L74.892,51.29a1.174,1.174,0,0,0-.69-.414c-.621-.138-1.449.69-1.933,1.035h0c-2,1.38-7.661-6.557-5.66-7.937l1.173-.9a.926.926,0,0,0,.345-1.311C67.714,40.936,66.748,39.418,65.712,39.418Z" transform="translate(-62.874 -38.485)" fill="#cb262a"/></g></g></svg>