<svg xmlns="http://www.w3.org/2000/svg" width="28.894" height="31.115" viewBox="0 0 28.894 31.115"><g transform="translate(-15.91 1.668)"><path d="M32.5-1.668a.971.971,0,0,0-.951.984V8.54L29.913,6.575a.97.97,0,1,0-1.491,1.242l3.35,4.04a.973.973,0,0,0,1.37.132,1.124,1.124,0,0,0,.132-.132l3.35-4.04A.972.972,0,1,0,35.2,6.494l-.07.081L33.494,8.547V-.684a.97.97,0,0,0-.962-.984Zm-15.666,5.5a.974.974,0,0,0,.092,1.947h2.979l1.546,12.125.011.1L22,21.671a.97.97,0,0,0,.962.83H41.616a.972.972,0,1,0,0-1.943H23.8l-.25-1.723H42.167a.972.972,0,0,0,.962-.83L44.793,6.582A.974.974,0,0,0,42.865,6.3h0l-1.535,10.59H23.287L21.729,4.679a.971.971,0,0,0-.962-.845h-3.93Zm10.7,19.494A3.06,3.06,0,1,0,30.6,26.384,3.074,3.074,0,0,0,27.54,23.328Zm9.951,0a3.06,3.06,0,1,0,3.063,3.056A3.068,3.068,0,0,0,37.491,23.328ZM27.54,25.271a1.117,1.117,0,0,1,0,2.233,1.117,1.117,0,1,1,0-2.233Zm9.951,0a1.117,1.117,0,1,1-1.113,1.113A1.1,1.1,0,0,1,37.491,25.271Z" transform="translate(0 0)" fill="#3bc37b"/></g></svg>