<svg xmlns="http://www.w3.org/2000/svg" width="35.297" height="32.042" viewBox="0 0 35.297 32.042"><g transform="translate(-3559.889 -1243.973)"><path d="M36.528,36.38h-2.4a3.7,3.7,0,0,0,.184-2.011.585.585,0,0,0-.459-.459,4.267,4.267,0,0,0-1.144-.043c.059-.21.1-.4.139-.581a3.022,3.022,0,0,0,1.334-2.174,3.138,3.138,0,0,0-1.429-2.241.585.585,0,0,0-.653,0,3.138,3.138,0,0,0-1.429,2.241,2.738,2.738,0,0,0,1.033,1.925,9.778,9.778,0,0,1-.41,1.409c-.01.011-.029.024-.037.033a1.767,1.767,0,0,0-.128.157,2.036,2.036,0,0,0-.458-.743,2.076,2.076,0,0,0-.949-.519,9.107,9.107,0,0,0,.949-4.018,8.947,8.947,0,0,0-.754-3.57,12.72,12.72,0,0,0,1.128-2.609,6.906,6.906,0,0,0,.293-3.219l2.774-2.769a.28.28,0,0,1,.2-.084.234.234,0,0,1,.21.088,1.5,1.5,0,0,0,2.072,0l.271-.277a1.463,1.463,0,0,0-.225-2.253l-1.437-.954a.369.369,0,0,1-.085-.09l-.963-1.441a1.463,1.463,0,0,0-2.254-.227l-.275.275a1.468,1.468,0,0,0,0,2.074.287.287,0,0,1,.08.207.3.3,0,0,1-.08.207l-2.773,2.77c-2.09-.387-4.993.7-6.964,2.152a12.2,12.2,0,0,0-6.906.665,7.817,7.817,0,0,0-3.623-.89,7.474,7.474,0,0,0-7.608,7.315A7.229,7.229,0,0,0,7.08,32.76c-.028.043-.059.084-.084.128a2.615,2.615,0,0,0-.314-.019,2.93,2.93,0,0,0-2.926,2.926,2.852,2.852,0,0,0,.067.585H2.585A.585.585,0,0,0,2,36.965v1.756a.585.585,0,0,0,.585.585h7.771l.452,1.355a.585.585,0,0,0,.555.4H27.75a.585.585,0,0,0,.555-.4l.452-1.355h7.771a.585.585,0,0,0,.585-.585V36.965A.585.585,0,0,0,36.528,36.38Zm-3.609-.244a1.022,1.022,0,0,1-.527.244h-.6a2.96,2.96,0,0,1,.013-.346v-.012a1.242,1.242,0,0,1,.3-.729.565.565,0,0,0,.091-.07,1.824,1.824,0,0,1,1.015-.207A1.605,1.605,0,0,1,32.919,36.136ZM14.586,35.53a3.709,3.709,0,0,1-.3-1.491,3.336,3.336,0,0,1,1.17-2.152,4.793,4.793,0,0,1,.819,1.018,3.145,3.145,0,0,0-.41.335A4.506,4.506,0,0,0,14.586,35.53Zm1.177.85a2.548,2.548,0,0,1,.93-2.308,2.014,2.014,0,0,1,.585-.4,4.2,4.2,0,0,1,1.769-.3,3.343,3.343,0,0,1-.692,2.351,3.866,3.866,0,0,1-.868.654Zm3.926-.511a1.756,1.756,0,0,0,.321.511h-.671a3.119,3.119,0,0,0,.35-.511Zm2.333.511a1.309,1.309,0,0,1-.059-.147.585.585,0,0,0-.568-.444.444.444,0,0,0-.084.006.585.585,0,1,1,.315-1.075.585.585,0,0,0,.737-.105,1.729,1.729,0,0,1,1.288-.575,1.756,1.756,0,0,1,1.683,1.287.585.585,0,0,0,.988.246,1.2,1.2,0,0,1,1.505-.157,1.16,1.16,0,0,1,.5.827q.008.068.009.137Zm10.409-6.268a1.618,1.618,0,0,1,.585,1,1.611,1.611,0,0,1-.585,1,1.618,1.618,0,0,1-.585-1,1.611,1.611,0,0,1,.585-1Zm-2.289,5.735a2.282,2.282,0,0,1-.729-.08,2.315,2.315,0,0,0-.676-1.1c0-.078-.012-.161-.011-.23a1.6,1.6,0,0,1,1.118.289,1.628,1.628,0,0,1,.3,1.125Zm2.319-20.315a1.471,1.471,0,0,0,.416-1.027,1.449,1.449,0,0,0-.423-1.034.293.293,0,0,1,0-.419l.275-.275a.3.3,0,0,1,.238-.085.289.289,0,0,1,.213.131l.971,1.453a1.561,1.561,0,0,0,.4.4l1.443.958a.293.293,0,0,1,.043.456l-.264.27a.264.264,0,0,1-.42.007,1.454,1.454,0,0,0-1.036-.431h-.006a1.438,1.438,0,0,0-1.025.43l-2.4,2.392a2.746,2.746,0,0,0-.365-.462,2.673,2.673,0,0,0-.46-.365ZM27.954,18.56a2.409,2.409,0,0,1,1.74.565c.66.66.746,2.015.234,3.717a11.383,11.383,0,0,1-.728,1.81,4.128,4.128,0,0,0-.607-1.781l-.973.65a3.294,3.294,0,0,1-.468,3.912,5.254,5.254,0,0,1-3,1.28A3.641,3.641,0,0,1,20.1,24.661a5.333,5.333,0,0,1,1.592-3.332,10.2,10.2,0,0,1,6.26-2.77ZM4.926,26.724a6.3,6.3,0,0,1,6.437-6.145,6.645,6.645,0,0,1,3.3.878.585.585,0,0,0,.523.029,10.944,10.944,0,0,1,4.373-.907,11.256,11.256,0,0,1,1.184.062,6.472,6.472,0,0,0-1.806,3.931A4.916,4.916,0,0,0,20.313,28.5,4.849,4.849,0,0,0,23.8,29.9q.219,0,.443-.018a6.443,6.443,0,0,0,3.766-1.651s.206-.182.3-.279A8.8,8.8,0,0,0,29.133,27a7.754,7.754,0,0,1,.373,2.36,7.967,7.967,0,0,1-1.05,3.916,3.756,3.756,0,0,0-.376.051.585.585,0,0,0-.459.458c-.005.025-.026.138-.043.3a2.363,2.363,0,0,0-1.433.191,2.926,2.926,0,0,0-2.492-1.407,2.868,2.868,0,0,0-1.841.661,1.717,1.717,0,0,0-.5-.075,1.74,1.74,0,0,0-1.1.4,6.238,6.238,0,0,0-.036-1.112.585.585,0,0,0-.5-.495,6.178,6.178,0,0,0-2.341.164,6.221,6.221,0,0,0-1.529-1.764.585.585,0,0,0-.7,0,5.593,5.593,0,0,0-1.879,2.61,2.313,2.313,0,0,0-2.107-.234,2.341,2.341,0,0,0-2.1-1.323A2.3,2.3,0,0,0,8,31.944,6.075,6.075,0,0,1,4.926,26.724Zm0,9.071a1.756,1.756,0,0,1,1.756-1.756,1.693,1.693,0,0,1,.491.08.585.585,0,0,0,.733-.4,1.16,1.16,0,0,1,2.277.242.585.585,0,0,0,.981.389,1.153,1.153,0,0,1,.785-.313,1.17,1.17,0,0,1,0,2.341H5.043A1.726,1.726,0,0,1,4.926,35.795Zm31.017,2.341H25.994v1.17h1.529l-.2.585H11.785l-.2-.585h1.529v-1.17H3.17v-.585H35.943Z" transform="translate(3557.889 1232.453)" fill="#cb262a"/><path d="M12.849,30.74l-.439-1.085a5.286,5.286,0,0,0-3.126,3.57l1.133.293a4.113,4.113,0,0,1,2.432-2.777Z" transform="translate(3554.868 1224.931)" fill="#cb262a"/><path d="M283,73h1.135v1.135H283V73Z" transform="translate(3297.514 1181.948)" fill="#cb262a"/><path d="M283,79h1.135v1.135H283V79Z" transform="translate(3297.514 1179.353)" fill="#cb262a"/><path d="M286,76h1.135v1.135H286V76Z" transform="translate(3292.812 1180.651)" fill="#cb262a"/><path d="M500.315,269.861H499.4v-.684a1.808,1.808,0,0,0-.768-1.491,2.691,2.691,0,0,1-1.055-2.155v-1.139h.911v1.139a1.807,1.807,0,0,0,.768,1.491,2.692,2.692,0,0,1,1.054,2.154Z" transform="translate(3073.752 981.57)" fill="#cb262a"/><path d="M506.315,266.861H505.4v-.684a1.808,1.808,0,0,0-.768-1.491,2.691,2.691,0,0,1-1.055-2.155v-1.139h.911v1.139a1.807,1.807,0,0,0,.768,1.491,2.692,2.692,0,0,1,1.054,2.154Z" transform="translate(3070.486 983.203)" fill="#cb262a"/><rect width="1" height="1" transform="translate(3570.545 1244.015)" fill="#cb262a"/><rect width="2" height="1" transform="translate(3571.545 1275.015)" fill="#cb262a"/><rect width="10" height="1" transform="translate(3575.545 1275.015)" fill="#cb262a"/><path d="M0,0H1.135V1.135H0V0Z" transform="translate(3567.754 1254.506) rotate(-22)" fill="#cb262a"/></g></svg>