<?xml version="1.0" standalone="no"?>
<!DOCTYPE svg PUBLIC "-//W3C//DTD SVG 1.1//EN" "http://www.w3.org/Graphics/SVG/1.1/DTD/svg11.dtd" >
<svg xmlns="http://www.w3.org/2000/svg" xmlns:xlink="http://www.w3.org/1999/xlink" version="1.1">
<metadata>
Created by FontForge 20170924 at Tue May 19 12:32:14 2015
 By www-data
Copyright (c) 2011 by Fontsmith Ltd. All rights reserved.
</metadata>
<defs>
<font id="FSMePro-LightItalic" horiz-adv-x="562" >
  <font-face 
    font-family="FS Me Pro Light"
    font-weight="300"
    font-style="italic"
    font-stretch="normal"
    units-per-em="1000"
    panose-1="2 0 5 6 3 0 0 9 0 4"
    ascent="750"
    descent="-250"
    x-height="528"
    cap-height="720"
    bbox="-147.634 -275.794 1184 1034"
    underline-thickness="44"
    underline-position="-100"
    slope="-8"
    stemh="57"
    stemv="68"
    unicode-range="U+000D-FB04"
  />
<missing-glyph horiz-adv-x="694" 
d="M90 0v720h514v-720h-514zM348 406l174 263h-350zM378 360l175 -262v524zM172 52h350l-174 262zM142 622v-524l174 262z" />
    <glyph glyph-name="fi" unicode="fi" horiz-adv-x="536" 
d="M313 472h-121l-96 -695c-1 -7 -8 -10 -29 -10h-8c-22 0 -27 3 -26 10l96 695h-69c-7 0 -9 5 -6 25l1 7c3 22 6 24 13 24h69l5 41c17 141 94 201 217 201c58 0 108 -15 148 -36c6 -3 6 -7 -5 -26l-3 -5c-10 -19 -12 -21 -20 -17c-39 20 -81 30 -124 30
c-87 0 -135 -35 -150 -149l-5 -39h121c7 0 8 -3 5 -25l-1 -7c-3 -20 -5 -24 -12 -24zM352 10l72 509c1 7 8 9 28 9h8c22 0 28 -2 27 -9l-72 -509c-1 -7 -7 -10 -28 -10h-8c-23 0 -28 3 -27 10z" />
    <glyph glyph-name="fl" unicode="fl" horiz-adv-x="567" 
d="M138 528l6 41c20 142 93 213 225 213c47 0 95 -12 131 -29c12 -6 17 -14 16 -25c-4 -66 -14 -164 -28 -268l-48 -348c-2 -12 -3 -23 -3 -31c0 -21 7 -30 27 -30c9 0 16 1 22 2c5 1 7 -1 7 -18v-7c0 -15 -1 -18 -9 -21c-12 -4 -29 -7 -44 -7c-47 0 -68 26 -68 66
c0 17 2 38 6 66l50 351c10 74 21 165 26 226c-27 13 -60 20 -93 20c-106 0 -141 -66 -154 -162l-6 -39h121c7 0 9 -4 6 -25l-1 -7c-3 -19 -6 -24 -13 -24h-121l-97 -695c-1 -7 -8 -10 -28 -10h-8c-23 0 -28 3 -27 10l97 695h-69c-7 0 -8 4 -5 25l1 7c3 20 5 24 12 24h69z
" />
    <glyph glyph-name="f_f" unicode="ff" horiz-adv-x="612" 
d="M601 472h-120l-96 -695c-1 -7 -9 -10 -30 -10h-8c-22 0 -27 3 -26 10l96 695h-224l-96 -695c-1 -7 -9 -10 -30 -10h-8c-22 0 -27 3 -26 10l96 695h-69c-7 0 -7 4 -4 26l1 7c3 22 4 23 11 23h69l6 41c21 141 80 213 203 213c33 0 61 -6 88 -17c7 -3 8 -6 -1 -26l-3 -7
c-9 -21 -11 -23 -20 -20c-20 7 -42 12 -69 12c-90 0 -120 -56 -134 -157l-6 -39h224l6 41c21 141 80 213 203 213c33 0 61 -6 88 -17c7 -3 8 -6 -1 -26l-3 -7c-9 -21 -11 -23 -20 -20c-20 7 -42 12 -69 12c-90 0 -120 -56 -134 -157l-6 -39h120c7 0 9 -2 6 -25l-1 -7
c-3 -21 -6 -24 -13 -24z" />
    <glyph glyph-name="f_f_i" unicode="ffi" horiz-adv-x="824" 
d="M201 528h224l5 41c17 141 94 201 217 201c58 0 108 -15 148 -36c6 -3 6 -7 -5 -26l-3 -5c-10 -19 -12 -21 -20 -17c-39 20 -81 30 -124 30c-87 0 -135 -35 -150 -149l-5 -39h121c7 0 8 -3 5 -25l-1 -7c-3 -20 -5 -24 -12 -24h-121l-96 -695c-1 -7 -8 -10 -29 -10h-8
c-22 0 -27 3 -26 10l96 695h-224l-96 -695c-1 -7 -9 -10 -30 -10h-8c-22 0 -27 3 -26 10l96 695h-69c-7 0 -7 4 -4 26l1 7c3 22 4 23 11 23h69l6 41c21 141 80 213 203 213c33 0 61 -6 88 -17c7 -3 8 -6 -1 -26l-3 -7c-9 -21 -11 -23 -20 -20c-20 7 -42 12 -69 12
c-90 0 -120 -56 -134 -157zM640 10l72 509c1 7 8 9 28 9h8c22 0 28 -2 27 -9l-72 -509c-1 -7 -7 -10 -28 -10h-8c-23 0 -28 3 -27 10z" />
    <glyph glyph-name="f_j" unicode="fj" horiz-adv-x="536" 
d="M313 472h-121l-96 -695c-1 -7 -8 -10 -29 -10h-8c-22 0 -27 3 -26 10l96 695h-69c-7 0 -9 5 -6 25l1 7c3 22 6 24 13 24h69l5 41c17 141 94 201 217 201c58 0 108 -15 148 -36c6 -3 6 -7 -5 -26l-3 -5c-10 -19 -12 -21 -20 -17c-39 20 -81 30 -124 30
c-87 0 -135 -35 -150 -149l-5 -39h121c7 0 8 -3 5 -25l-1 -7c-3 -20 -5 -24 -12 -24zM487 519l-75 -534c-23 -162 -86 -230 -187 -230c-23 0 -48 5 -62 11c-5 2 -5 8 1 25l2 6c7 21 8 23 14 21c13 -4 30 -8 47 -8c69 0 104 50 121 173l75 536c1 7 6 9 29 9h8
c23 0 28 -2 27 -9z" />
    <glyph glyph-name="f_f_j" unicode="ffj" horiz-adv-x="824" 
d="M417 472h-224l-96 -695c-1 -7 -9 -10 -30 -10h-8c-22 0 -27 3 -26 10l96 695h-69c-7 0 -7 4 -4 26l1 7c3 22 4 23 11 23h69l6 41c21 141 80 213 203 213c33 0 61 -6 88 -17c7 -3 8 -6 -1 -26l-3 -7c-9 -21 -11 -23 -20 -20c-20 7 -42 12 -69 12c-90 0 -120 -56 -134 -157
l-6 -39h224l5 41c17 141 94 201 217 201c58 0 108 -15 148 -36c6 -3 6 -7 -5 -26l-3 -5c-10 -19 -12 -21 -20 -17c-39 20 -81 30 -124 30c-87 0 -135 -35 -150 -149l-5 -39h121c7 0 8 -3 5 -25l-1 -7c-3 -20 -5 -24 -12 -24h-121l-96 -695c-1 -7 -8 -10 -29 -10h-8
c-22 0 -27 3 -26 10zM775 519l-75 -534c-23 -162 -86 -230 -187 -230c-23 0 -48 5 -62 11c-5 2 -5 8 1 25l2 6c7 21 8 23 14 21c13 -4 30 -8 47 -8c69 0 104 50 121 173l75 536c1 7 6 9 29 9h8c23 0 28 -2 27 -9z" />
    <glyph glyph-name="f_f_l" unicode="ffl" horiz-adv-x="855" 
d="M201 528h225l6 41c20 142 93 213 225 213c47 0 95 -12 131 -29c12 -6 17 -14 16 -25c-4 -66 -14 -164 -28 -268l-48 -348c-2 -12 -3 -23 -3 -31c0 -21 7 -30 27 -30c9 0 16 1 22 2c5 1 7 -1 7 -18v-7c0 -15 -1 -18 -9 -21c-12 -4 -29 -7 -44 -7c-47 0 -68 26 -68 66
c0 17 2 38 6 66l50 351c10 74 21 165 26 226c-27 13 -60 20 -93 20c-106 0 -141 -66 -154 -162l-6 -39h121c7 0 9 -4 6 -25l-1 -7c-3 -19 -6 -24 -13 -24h-121l-97 -695c-1 -7 -8 -10 -28 -10h-8c-23 0 -28 3 -27 10l97 695h-225l-96 -695c-1 -7 -9 -10 -30 -10h-8
c-22 0 -27 3 -26 10l96 695h-69c-7 0 -7 4 -4 26l1 7c3 22 4 23 11 23h69l6 41c21 141 80 213 203 213c33 0 61 -6 88 -17c7 -3 8 -6 -1 -26l-3 -7c-9 -21 -11 -23 -20 -20c-20 7 -42 12 -69 12c-90 0 -120 -56 -134 -157z" />
    <glyph glyph-name=".notdef" horiz-adv-x="694" 
d="M90 0v720h514v-720h-514zM348 406l174 263h-350zM378 360l175 -262v524zM172 52h350l-174 262zM142 622v-524l174 262z" />
    <glyph glyph-name=".null" horiz-adv-x="0" 
 />
    <glyph glyph-name=".null" horiz-adv-x="0" 
 />
    <glyph glyph-name="CR" unicode="&#xd;" horiz-adv-x="245" 
 />
    <glyph glyph-name="nbspace" unicode="&#xa0;" horiz-adv-x="245" 
 />
    <glyph glyph-name="space" unicode=" " horiz-adv-x="245" 
 />
    <glyph glyph-name="A" unicode="A" horiz-adv-x="614" 
d="M472 10l-35 184h-302l-85 -184c-4 -8 -12 -10 -36 -10h-5c-27 0 -29 4 -26 11l333 696c5 11 10 13 41 13h6c29 0 39 -2 41 -13l143 -696c2 -9 -3 -11 -31 -11h-10c-28 0 -33 2 -34 10zM353 657l-192 -407h266z" />
    <glyph glyph-name="B" unicode="B" horiz-adv-x="554" 
d="M137 720h158c91 0 148 -18 182 -57c21 -23 33 -56 33 -94c0 -84 -51 -162 -135 -193c70 -17 125 -68 125 -151c0 -59 -26 -115 -70 -157c-53 -48 -123 -68 -223 -68h-171zM153 345l-41 -289h95c78 0 131 15 168 45c36 28 54 76 54 124c0 29 -8 53 -23 71
c-29 33 -69 49 -153 49h-100zM198 664l-38 -267h81c69 0 117 15 149 44s50 72 50 118c0 30 -9 53 -25 69c-24 25 -60 36 -129 36h-88z" />
    <glyph glyph-name="C" unicode="C" horiz-adv-x="552" 
d="M399 671c-204 0 -282 -224 -282 -403c0 -142 62 -219 192 -219c48 0 100 12 144 33c8 4 12 -2 15 -19l2 -10c3 -16 4 -21 -4 -25c-56 -27 -114 -38 -179 -38c-159 0 -241 111 -241 280c0 209 110 460 357 460c58 0 112 -15 157 -44c6 -4 5 -6 -5 -24l-7 -13
c-9 -16 -12 -18 -19 -14c-48 25 -85 36 -130 36z" />
    <glyph glyph-name="D" unicode="D" horiz-adv-x="633" 
d="M137 720h159c128 0 202 -31 252 -94c34 -44 52 -106 52 -182c0 -133 -35 -269 -135 -362c-65 -60 -147 -82 -269 -82h-160zM198 664l-86 -608h86c105 0 164 19 218 66c83 73 113 199 113 318c0 65 -15 118 -46 156c-39 47 -93 68 -201 68h-84z" />
    <glyph glyph-name="E" unicode="E" horiz-adv-x="523" 
d="M507 663h-310l-38 -270h263c7 0 10 -3 6 -26l-1 -6c-4 -22 -6 -25 -13 -25h-263l-39 -279h314c7 0 10 -3 6 -26l-1 -6c-4 -22 -6 -25 -13 -25h-382l101 720h378c8 0 10 -3 6 -26l-1 -6c-4 -22 -6 -25 -13 -25z" />
    <glyph glyph-name="F" unicode="F" horiz-adv-x="468" 
d="M387 336h-238l-45 -325c-1 -8 -8 -11 -33 -11h-5c-27 0 -30 3 -29 11l99 709h352c7 0 9 -1 5 -24l-1 -6c-4 -23 -5 -27 -12 -27h-285l-38 -270h238c7 0 9 -1 5 -24l-1 -6c-4 -23 -5 -27 -12 -27z" />
    <glyph glyph-name="G" unicode="G" horiz-adv-x="623" 
d="M559 625c-49 31 -97 46 -157 46c-203 0 -284 -210 -284 -398c0 -136 59 -225 203 -225c48 0 102 11 141 27l34 243h-160c-7 0 -8 5 -4 27l1 5c4 22 5 25 12 25h225l-47 -337c-70 -31 -142 -48 -214 -48c-94 0 -161 30 -203 81c-40 49 -60 121 -60 204
c0 225 115 455 364 455c75 0 137 -22 180 -56c5 -4 4 -8 -6 -25l-4 -7c-10 -16 -15 -21 -21 -17z" />
    <glyph glyph-name="H" unicode="H" horiz-adv-x="642" 
d="M618 711l-99 -702c-1 -7 -10 -9 -32 -9h-8c-23 0 -29 2 -28 9l46 327h-346l-46 -327c-1 -7 -9 -9 -33 -9h-8c-22 0 -28 2 -27 9l99 702c1 7 5 9 29 9h8c25 0 32 -1 31 -9l-45 -318h346l45 318c1 7 5 9 29 9h8c25 0 32 -1 31 -9z" />
    <glyph glyph-name="I" unicode="I" horiz-adv-x="357" 
d="M241 0h-215c-6 0 -8 3 -4 22l1 5c4 20 4 20 11 20h74l88 626h-75c-6 0 -8 3 -4 22l1 5c4 20 5 20 11 20h214c6 0 8 -1 4 -22l-1 -5c-4 -20 -4 -20 -11 -20h-72l-88 -626h74c6 0 8 -1 4 -22l-1 -5c-4 -20 -4 -20 -11 -20z" />
    <glyph glyph-name="J" unicode="J" horiz-adv-x="429" 
d="M375 720h8c24 0 31 -2 30 -9l-72 -516c-11 -77 -29 -119 -67 -155c-34 -32 -89 -50 -142 -50c-52 0 -102 16 -141 42c-8 6 -7 7 4 26l6 10c10 17 14 18 23 13c35 -21 74 -33 108 -33c44 0 76 13 100 38c25 26 34 61 43 125l70 500c1 7 6 9 30 9z" />
    <glyph glyph-name="K" unicode="K" horiz-adv-x="559" 
d="M37 9l99 702c1 7 9 9 29 9h8c21 0 31 -2 30 -9l-51 -366l119 112c100 94 181 189 222 255c4 6 12 8 33 8h13c19 0 26 -2 22 -10c-40 -73 -128 -177 -251 -290l182 -407c4 -10 1 -13 -24 -13h-16c-28 0 -32 2 -35 10l-160 361l-117 -108l-36 -254c-1 -7 -9 -9 -32 -9h-8
c-22 0 -28 2 -27 9z" />
    <glyph glyph-name="L" unicode="L" horiz-adv-x="483" 
d="M202 711l-92 -654h291c7 0 9 -2 5 -26l-1 -6c-4 -23 -6 -25 -12 -25h-331c-21 0 -26 3 -25 11l98 700c1 7 6 9 29 9h8c23 0 31 -2 30 -9z" />
    <glyph glyph-name="M" unicode="M" horiz-adv-x="761" 
d="M195 626l-110 -619c-1 -5 -5 -7 -30 -7h-6c-26 0 -28 2 -27 7l133 703c1 8 7 10 37 10h8c33 0 36 -3 38 -10l131 -516l268 516c4 7 7 10 42 10h8c30 0 36 -2 35 -10l-69 -703c-1 -5 -3 -7 -29 -7h-8c-25 0 -29 2 -28 7l65 627l-259 -497c-4 -7 -9 -8 -33 -8h-9
c-24 0 -28 1 -30 8z" />
    <glyph glyph-name="N" unicode="N" horiz-adv-x="663" 
d="M463 10l-280 615l-87 -616c-1 -7 -7 -9 -29 -9h-6c-22 0 -27 2 -26 9l99 702c1 7 8 9 36 9h6c28 0 34 -2 38 -10l280 -615l86 616c1 7 6 9 28 9h6c22 0 28 -2 27 -9l-99 -702c-1 -7 -10 -9 -35 -9h-6c-31 0 -35 2 -38 10z" />
    <glyph glyph-name="O" unicode="O" horiz-adv-x="679" 
d="M398 671c-201 0 -280 -229 -280 -404c0 -148 64 -218 179 -218c199 0 280 225 280 398c0 149 -63 224 -179 224zM409 730c144 0 240 -88 240 -269c0 -224 -113 -471 -363 -471c-145 0 -240 95 -240 277c0 219 112 463 363 463z" />
    <glyph glyph-name="P" unicode="P" horiz-adv-x="514" 
d="M198 664l-46 -321c31 -5 64 -8 100 -8c61 0 110 15 143 44c41 36 58 94 58 155c0 35 -8 64 -24 83c-29 35 -74 47 -157 47h-74zM37 9l100 711h145c96 0 165 -16 207 -65c22 -26 36 -62 36 -112c0 -75 -24 -150 -84 -204c-42 -38 -110 -60 -188 -60c-35 0 -72 3 -108 9
l-40 -279c-1 -7 -9 -9 -33 -9h-7c-25 0 -29 2 -28 9z" />
    <glyph glyph-name="Q" unicode="Q" horiz-adv-x="679" 
d="M409 730c144 0 240 -88 240 -269c0 -165 -61 -341 -193 -424h1c19 -36 42 -68 71 -101c6 -7 2 -10 -13 -23l-11 -9c-13 -11 -18 -12 -23 -6c-28 34 -56 73 -78 112c-35 -13 -74 -20 -117 -20c-145 0 -240 95 -240 277c0 219 112 463 363 463zM398 671
c-201 0 -280 -229 -280 -404c0 -148 64 -218 179 -218c29 0 55 5 80 14c-16 34 -29 69 -35 103c-2 9 2 12 18 18l10 4c20 8 23 6 25 -3c8 -34 20 -65 34 -95c103 73 148 229 148 357c0 149 -63 224 -179 224z" />
    <glyph glyph-name="R" unicode="R" horiz-adv-x="543" 
d="M245 305h-98l-42 -296c-1 -7 -11 -9 -32 -9h-8c-21 0 -29 2 -28 9l100 711h149c108 0 174 -20 211 -64c22 -25 33 -64 33 -105c0 -67 -19 -130 -74 -181c-27 -25 -70 -44 -113 -54c37 -125 72 -217 123 -303c5 -8 1 -13 -29 -13h-10c-25 0 -31 1 -37 11
c-44 79 -86 191 -114 295c-11 -1 -20 -1 -31 -1zM198 665l-43 -306h94c64 0 113 13 149 42c37 30 59 81 59 143c0 38 -7 65 -25 84c-26 28 -75 37 -149 37h-85z" />
    <glyph glyph-name="S" unicode="S" horiz-adv-x="503" 
d="M11 47c-6 5 -5 11 8 29l4 5c12 16 16 21 23 16c47 -33 100 -50 149 -50c110 0 183 53 183 153c0 71 -70 105 -139 146c-74 44 -137 91 -138 182c0 115 94 202 225 202c62 0 120 -20 158 -49c7 -5 5 -10 -7 -26l-3 -5c-12 -18 -16 -20 -23 -16c-36 22 -75 39 -130 39
c-83 0 -152 -52 -152 -141c0 -65 58 -98 120 -133c76 -43 157 -86 157 -185c0 -137 -103 -224 -250 -224c-78 0 -142 26 -185 57z" />
    <glyph glyph-name="T" unicode="T" horiz-adv-x="506" 
d="M530 663h-191l-92 -654c-1 -7 -8 -9 -32 -9h-8c-23 0 -28 2 -27 9l92 654h-198c-7 0 -9 5 -5 27l1 6c4 22 5 24 12 24h456c7 0 9 -3 5 -27l-1 -6c-4 -22 -5 -24 -12 -24z" />
    <glyph glyph-name="U" unicode="U" horiz-adv-x="656" 
d="M639 711l-62 -444c-14 -102 -47 -168 -98 -212c-49 -42 -116 -65 -195 -65c-80 0 -142 22 -179 64c-29 33 -44 75 -44 133c0 27 2 52 6 79l62 445c1 7 6 9 31 9h7c25 0 31 -2 30 -9l-61 -436c-3 -25 -6 -51 -6 -71c0 -54 9 -83 30 -108c28 -32 74 -48 132 -48
s108 16 143 49c39 35 64 92 76 178l61 436c1 7 7 9 31 9h6c24 0 31 -2 30 -9z" />
    <glyph glyph-name="V" unicode="V" horiz-adv-x="582" 
d="M618 709l-316 -695c-5 -11 -13 -14 -46 -14h-7c-34 0 -40 2 -42 14l-131 693c-2 10 2 13 29 13h11c25 0 30 -3 32 -11l113 -642l288 643c4 8 7 10 31 10h12c25 0 29 -4 26 -11z" />
    <glyph glyph-name="W" unicode="W" horiz-adv-x="936" 
d="M965 709l-287 -695c-5 -12 -15 -14 -46 -14h-5c-34 0 -45 2 -46 14l-71 577l-236 -577c-5 -12 -15 -14 -46 -14h-5c-34 0 -40 2 -42 14l-96 693c-1 11 2 13 29 13h11c24 0 31 -3 32 -11l78 -642l258 643c3 7 6 10 29 10h13c22 0 26 -3 27 -10l78 -644l257 644
c3 8 7 10 32 10h10c26 0 29 -4 26 -11z" />
    <glyph glyph-name="X" unicode="X" horiz-adv-x="539" 
d="M402 9l-134 311l-220 -310c-7 -8 -14 -10 -41 -10h-4c-27 0 -29 5 -22 15l260 368l-140 323c-4 10 -1 14 29 14h12c22 0 29 -2 32 -9l117 -271l193 270c6 8 9 10 36 10h7c29 0 32 -5 25 -15l-235 -330l159 -361c4 -9 0 -14 -30 -14h-11c-23 0 -30 2 -33 9z" />
    <glyph glyph-name="Y" unicode="Y" horiz-adv-x="513" 
d="M216 278l-146 430c-2 7 0 12 30 12h8c28 0 33 -3 35 -11l118 -369l223 371c5 8 11 9 36 9h9c25 0 30 -4 25 -12l-271 -430l-38 -269c-1 -7 -9 -9 -32 -9h-8c-23 0 -28 2 -27 9z" />
    <glyph glyph-name="Z" unicode="Z" horiz-adv-x="528" 
d="M511 642l-427 -585h362c6 0 8 -2 4 -27l-1 -6c-4 -22 -5 -24 -11 -24h-420c-15 0 -18 3 -17 11l2 19c3 21 9 31 25 53l425 580h-334c-7 0 -8 5 -5 26l1 6c4 24 5 25 12 25h391c19 0 22 -2 21 -11l-2 -14c-3 -20 -9 -31 -26 -53z" />
    <glyph glyph-name="a" unicode="a" horiz-adv-x="552" 
d="M490 369l-21 -146c-11 -75 -18 -144 -23 -215c-1 -6 -6 -8 -26 -8h-3c-22 0 -25 2 -25 9l1 62c-40 -55 -99 -81 -163 -81c-134 0 -190 90 -190 207c0 154 90 341 270 341c67 0 110 -29 134 -73l13 53c2 8 5 10 25 10h7c21 0 25 -2 23 -12zM409 246l21 150
c-26 53 -65 82 -125 82c-135 0 -195 -155 -195 -275c0 -84 31 -154 128 -154c47 0 84 14 111 40c32 31 46 63 60 157z" />
    <glyph glyph-name="b" unicode="b" horiz-adv-x="538" 
d="M158 467c42 46 97 71 161 71c132 0 179 -94 179 -202c0 -177 -98 -346 -294 -346c-69 0 -120 12 -160 28c-10 4 -11 8 -10 17l100 716c1 7 6 9 29 9h8c22 0 28 -2 27 -9zM122 206l-20 -140c28 -11 69 -18 108 -18c155 0 219 136 219 284c0 95 -41 146 -122 146
c-47 0 -88 -16 -118 -45c-19 -19 -35 -41 -44 -84c-6 -29 -15 -82 -23 -143z" />
    <glyph glyph-name="c" unicode="c" horiz-adv-x="472" 
d="M396 63l3 -12c4 -16 3 -20 -4 -24c-45 -24 -103 -37 -158 -37c-136 0 -197 91 -197 212c0 155 96 336 281 336c60 0 105 -15 147 -45c7 -5 6 -8 -6 -28l-5 -8c-12 -20 -17 -20 -24 -15c-37 24 -75 35 -115 35c-139 0 -208 -142 -208 -272c0 -89 37 -156 137 -156
c47 0 91 9 133 30c10 5 11 2 16 -16z" />
    <glyph glyph-name="d" unicode="d" horiz-adv-x="571" 
d="M483 50c6 0 6 -2 4 -20l-1 -8c-2 -16 -2 -18 -9 -20s-20 -4 -33 -4c-37 0 -61 28 -58 66c-34 -48 -92 -74 -164 -74c-120 0 -185 78 -185 205c0 159 93 343 280 343c47 0 95 -16 124 -42l36 255c1 7 6 9 28 9h8c22 0 29 -2 28 -9l-90 -636c-2 -13 -3 -24 -3 -32
c0 -29 11 -33 35 -33zM405 244l27 186c-31 30 -69 47 -118 47c-138 0 -208 -140 -208 -277c0 -102 50 -151 132 -151c44 0 86 15 114 41c31 28 40 62 53 154z" />
    <glyph glyph-name="e" unicode="e" horiz-adv-x="531" 
d="M470 243h-358c-1 -13 -2 -26 -2 -38c0 -52 13 -90 37 -114c25 -27 66 -40 117 -40c50 0 96 11 141 31c7 3 10 2 16 -17l3 -10c4 -15 6 -21 -2 -25c-50 -26 -108 -40 -176 -40c-134 0 -206 83 -206 212c0 161 95 336 277 336c85 0 137 -42 159 -108c11 -31 16 -64 16 -101
c0 -20 -1 -40 -4 -61c-4 -23 -8 -25 -18 -25zM120 295h305c1 12 2 24 2 39c0 78 -33 143 -119 143c-85 0 -155 -50 -188 -182z" />
    <glyph glyph-name="f" unicode="f" horiz-adv-x="324" 
d="M313 472h-120l-96 -695c-1 -7 -9 -10 -30 -10h-8c-22 0 -27 3 -26 10l96 695h-69c-7 0 -7 4 -4 26l1 7c3 22 4 23 11 23h69l6 41c21 141 80 213 203 213c33 0 61 -6 88 -17c7 -3 8 -6 -1 -26l-3 -7c-9 -21 -11 -23 -20 -20c-20 7 -42 12 -69 12c-90 0 -120 -56 -134 -157
l-6 -39h120c7 0 9 -2 6 -25l-1 -7c-3 -21 -6 -24 -13 -24z" />
    <glyph glyph-name="g" unicode="g" horiz-adv-x="550" 
d="M519 519c-9 -75 -20 -162 -32 -252l-24 -174c-12 -88 -24 -145 -45 -194c-40 -92 -114 -144 -229 -144c-53 0 -102 11 -137 27c-5 2 -7 6 3 27l3 6c11 23 12 24 21 20c32 -14 69 -21 114 -21c94 0 148 42 178 129c11 32 19 71 25 123c-47 -43 -106 -66 -172 -66
c-118 0 -174 82 -174 202c0 160 94 336 269 336c60 0 110 -23 132 -67l8 48c1 7 6 9 28 9h4c26 0 29 -2 28 -9zM405 132l21 152c5 38 8 55 8 75c0 24 -2 40 -7 53c-13 38 -55 66 -113 66c-124 0 -195 -134 -195 -274c0 -95 43 -144 131 -144c57 0 114 29 155 72z" />
    <glyph glyph-name="h" unicode="h" horiz-adv-x="568" 
d="M202 751l-41 -294c43 52 104 81 181 81c59 0 105 -18 133 -52c20 -25 29 -58 29 -103c0 -19 -2 -41 -5 -65l-43 -307c-1 -7 -7 -11 -30 -11h-8c-23 0 -27 4 -26 11l37 262c5 40 9 70 9 95c0 29 -5 50 -17 68c-18 26 -56 38 -104 38c-54 0 -94 -17 -128 -49
c-18 -18 -33 -45 -40 -72c-7 -29 -14 -84 -23 -145l-28 -197c-1 -7 -8 -11 -30 -11h-8c-22 0 -27 3 -26 11l104 740c1 7 5 9 28 9h8c20 0 29 -2 28 -9z" />
    <glyph glyph-name="i" unicode="i" horiz-adv-x="223" 
d="M117 704c0 29 27 60 60 60c24 0 44 -22 44 -48c0 -30 -26 -59 -59 -59c-25 0 -45 20 -45 47zM39 10l72 509c1 7 8 9 28 9h8c22 0 28 -2 27 -9l-72 -509c-1 -7 -7 -10 -28 -10h-8c-23 0 -28 3 -27 10z" />
    <glyph glyph-name="j" unicode="j" horiz-adv-x="241" 
d="M200 519l-75 -534c-24 -171 -86 -230 -207 -230c-23 0 -48 5 -62 11c-5 2 -5 8 1 25l2 6c7 21 8 23 14 21c13 -4 30 -8 47 -8c81 0 122 39 141 173l75 536c1 7 6 9 29 9h8c23 0 28 -2 27 -9zM143 704c0 29 27 60 60 60c24 0 44 -22 44 -48c0 -30 -26 -59 -59 -59
c-25 0 -45 20 -45 47z" />
    <glyph glyph-name="k" unicode="k" horiz-adv-x="469" 
d="M127 219l-30 -210c-1 -7 -9 -9 -29 -9h-8c-24 0 -27 2 -26 9l104 742c1 7 8 9 28 9h9c21 0 28 -2 27 -9l-65 -462l64 50c65 50 134 116 188 179c6 7 13 10 36 10h5c27 0 32 -2 25 -11c-39 -48 -111 -124 -194 -194l142 -309c6 -12 -2 -14 -28 -14h-6c-29 0 -32 2 -36 11
l-125 271z" />
    <glyph glyph-name="l" unicode="l" horiz-adv-x="240" 
d="M152 460l-48 -348c-2 -12 -3 -23 -3 -31c0 -21 7 -30 27 -30c9 0 16 1 22 2c5 1 7 -1 7 -18v-7c0 -15 -1 -18 -9 -21c-12 -4 -29 -7 -44 -7c-47 0 -68 26 -68 66c0 17 2 38 6 66l50 351c16 117 25 190 33 268c1 7 4 9 28 9h8c22 0 29 -2 28 -9c-5 -63 -21 -177 -37 -291z
" />
    <glyph glyph-name="m" unicode="m" horiz-adv-x="906" 
d="M167 458c45 54 105 80 177 80c58 0 100 -18 127 -52c10 -13 18 -27 23 -45c50 67 115 97 191 97c58 0 106 -18 133 -52c20 -24 30 -57 30 -101c0 -20 -2 -42 -6 -67l-43 -309c-1 -7 -13 -9 -28 -9h-8c-18 0 -28 2 -27 9l37 264c5 39 9 70 9 94c0 35 -3 54 -16 72
c-18 24 -50 35 -101 35c-53 0 -96 -16 -130 -55c-15 -17 -25 -39 -32 -66c-4 -17 -9 -42 -13 -72l-38 -272c-1 -7 -12 -9 -28 -9h-8c-18 0 -28 2 -27 9l37 264c5 39 9 70 9 94c0 30 -5 51 -18 69c-17 26 -51 38 -99 38c-50 0 -96 -16 -130 -55c-15 -17 -25 -39 -32 -66
c-7 -29 -15 -84 -23 -145l-28 -199c-1 -7 -12 -9 -28 -9h-8c-18 0 -28 2 -27 9l53 378c7 47 13 93 17 132c1 8 5 9 26 9h8c23 0 28 -1 27 -9z" />
    <glyph glyph-name="n" unicode="n" horiz-adv-x="569" 
d="M171 519l-6 -64c44 53 106 83 184 83c59 0 105 -18 133 -52c28 -35 36 -87 24 -168l-43 -307c-1 -8 -7 -11 -30 -11h-8c-23 0 -27 3 -26 11l37 262c12 87 16 131 -8 163c-20 27 -56 38 -104 38c-54 0 -94 -17 -129 -49c-17 -18 -32 -42 -39 -72c-7 -29 -15 -84 -23 -145
l-28 -197c-1 -8 -8 -11 -30 -11h-8c-24 0 -27 3 -26 11l53 376c6 41 12 87 17 132c1 7 7 9 28 9h7c20 0 26 -2 25 -9z" />
    <glyph glyph-name="o" unicode="o" horiz-adv-x="554" 
d="M315 479c-141 0 -206 -151 -206 -276c0 -83 31 -154 131 -154c140 0 205 150 205 276c0 83 -31 154 -130 154zM229 -10c-59 0 -106 15 -138 49c-33 35 -51 91 -51 159c0 162 92 340 286 340c59 0 105 -15 137 -49c33 -35 51 -91 51 -159c0 -162 -92 -340 -285 -340z" />
    <glyph glyph-name="p" unicode="p" horiz-adv-x="549" 
d="M175 469c41 46 98 69 163 69c112 0 179 -65 179 -200c0 -167 -84 -348 -272 -348c-55 0 -101 18 -130 48l-37 -262c-1 -7 -11 -9 -31 -9h-8c-21 0 -26 2 -25 9l105 743c1 7 5 9 26 9h8c22 0 27 -1 26 -9zM147 265l-23 -163c26 -30 75 -53 127 -53c139 0 197 153 197 285
c0 102 -49 144 -127 144c-54 0 -92 -17 -119 -45c-22 -24 -39 -53 -55 -168z" />
    <glyph glyph-name="q" unicode="q" horiz-adv-x="549" 
d="M514 490l-61 -435c-15 -104 -28 -208 -34 -280c-1 -6 -8 -8 -31 -8h-6c-22 0 -28 2 -27 8c6 67 20 188 37 302c-38 -56 -98 -87 -171 -87c-119 0 -174 84 -174 201c0 178 103 347 306 347c58 0 105 -11 149 -29c9 -4 14 -7 12 -19zM423 302l22 158c-29 13 -65 21 -100 21
c-154 0 -228 -145 -228 -288c0 -97 42 -144 122 -144c43 0 81 17 113 45c36 32 53 77 71 208z" />
    <glyph glyph-name="r" unicode="r" horiz-adv-x="340" 
d="M172 519l-13 -114c40 83 105 129 163 129c13 0 22 -1 28 -3c5 -2 6 -5 3 -26l-1 -8c-3 -21 -3 -26 -12 -26c-53 0 -97 -25 -129 -60c-34 -37 -55 -84 -65 -135c-7 -29 -17 -94 -25 -155l-16 -112c-1 -7 -8 -9 -31 -9h-6c-24 0 -28 2 -27 9l49 348c8 54 15 106 21 164
c1 6 3 7 29 7h5c26 0 28 -3 27 -9z" />
    <glyph glyph-name="s" unicode="s" horiz-adv-x="440" 
d="M403 460l-5 -6c-13 -16 -19 -17 -25 -12c-34 26 -69 40 -121 40c-56 0 -119 -28 -119 -102c0 -52 45 -64 105 -80c91 -24 143 -51 143 -129c0 -111 -88 -181 -204 -181c-66 0 -125 22 -160 47c-4 4 -4 7 8 25l4 6c13 21 17 22 24 17c33 -23 79 -41 128 -41
c69 0 140 30 140 112c0 53 -43 67 -117 86c-46 12 -86 28 -107 50c-19 19 -29 44 -29 80c0 102 88 166 192 166c62 0 116 -20 151 -52c6 -5 4 -11 -8 -26z" />
    <glyph glyph-name="t" unicode="t" horiz-adv-x="357" 
d="M196 528h139c5 0 6 -3 3 -22l-1 -7c-3 -19 -5 -21 -10 -21h-138l-45 -321c-7 -53 -10 -76 4 -92c11 -12 27 -19 58 -19c25 0 53 4 76 12c9 3 9 0 12 -18l1 -7c2 -19 0 -22 -5 -24c-33 -13 -70 -19 -102 -19c-43 0 -74 12 -92 31c-24 26 -25 63 -16 129l46 328h-69
c-5 0 -6 2 -3 22l1 7c3 19 4 21 10 21h68l21 149c1 5 3 6 27 6h7c25 0 30 -1 29 -6z" />
    <glyph glyph-name="u" unicode="u" horiz-adv-x="566" 
d="M405 10l4 69c-40 -57 -105 -89 -180 -89c-60 0 -112 17 -138 51c-26 33 -34 83 -22 169l43 308c1 7 4 10 28 10h8c23 0 29 -3 28 -10l-37 -264c-13 -92 -17 -132 3 -163c19 -26 50 -39 103 -39c47 0 89 15 120 42c30 28 51 68 66 175l35 249c1 7 5 10 29 10h7
c24 0 29 -3 28 -10l-49 -347c-7 -52 -14 -103 -19 -159c-1 -11 -6 -12 -26 -12h-8c-21 0 -24 1 -23 10z" />
    <glyph glyph-name="v" unicode="v" horiz-adv-x="483" 
d="M123 517l89 -464c86 163 154 312 212 464c3 9 9 11 28 11h12c23 0 31 -3 27 -13c-73 -180 -167 -367 -242 -500c-7 -12 -9 -15 -41 -15h-8c-31 0 -35 4 -39 17l-108 498c0 9 3 13 28 13h12c23 0 28 -2 30 -11z" />
    <glyph glyph-name="w" unicode="w" horiz-adv-x="772" 
d="M129 516l59 -463l181 464c3 9 11 11 39 11h12c31 0 37 -2 38 -10l64 -465c81 171 132 299 185 463c3 10 5 12 31 12h8c23 0 29 -2 26 -9c-80 -222 -130 -340 -210 -498c-8 -15 -18 -21 -48 -21h-8c-31 0 -38 6 -39 17l-32 235c-9 67 -17 134 -26 217
c-31 -85 -53 -145 -83 -218l-95 -231c-6 -14 -16 -20 -46 -20h-8c-27 0 -36 5 -39 17l-78 498c-1 11 5 13 31 13h8c26 0 29 -2 30 -12z" />
    <glyph glyph-name="x" unicode="x" horiz-adv-x="486" 
d="M170 519l86 -190l139 190c6 8 10 9 36 9h7c32 0 34 -4 26 -13l-179 -233l132 -267c5 -10 -5 -15 -28 -15h-9c-29 0 -35 3 -39 13l-103 213l-165 -218c-5 -6 -13 -8 -39 -8h-5c-28 0 -30 5 -26 11l207 264l-116 240c-4 8 -2 13 33 13h6c29 0 34 -3 37 -9z" />
    <glyph glyph-name="y" unicode="y" horiz-adv-x="499" 
d="M146 518l57 -254c14 -64 26 -126 40 -207c37 81 64 138 94 200l126 261c4 8 9 10 33 10h5c23 0 30 -2 26 -10l-263 -539c-37 -75 -74 -130 -108 -163c-45 -43 -97 -60 -152 -60c-23 0 -50 5 -69 13c-7 3 -7 8 3 25l5 9c11 20 14 20 19 18c13 -5 27 -8 47 -8
c80 0 133 49 192 173l-128 530c-2 8 0 12 32 12h7c25 0 32 -2 34 -10z" />
    <glyph glyph-name="z" unicode="z" horiz-adv-x="445" 
d="M91 56h278c6 0 7 -1 4 -25l-1 -7c-3 -22 -5 -24 -11 -24h-348c-7 0 -9 3 -6 21l1 6c2 14 4 20 10 27l324 418h-253c-7 0 -8 2 -4 26l1 6c4 23 5 24 11 24h324c8 0 9 -2 7 -19l-1 -7c-3 -17 -5 -22 -12 -31z" />
    <glyph glyph-name="ampersand" unicode="&#x26;" horiz-adv-x="687" 
d="M482 652c-34 14 -67 21 -108 21c-84 0 -146 -56 -146 -151c0 -64 27 -109 127 -217l116 -126c43 57 80 130 106 214c2 6 5 9 26 9h3c22 0 26 -2 24 -9c-27 -94 -69 -182 -124 -252l98 -103c6 -6 3 -11 -11 -25l-11 -11c-14 -14 -20 -16 -27 -9l-93 99
c-65 -63 -142 -102 -232 -102c-128 0 -198 72 -198 170c0 103 67 189 162 238c-22 37 -34 76 -34 118c0 128 92 213 225 213c44 0 86 -10 122 -27c6 -3 5 -7 -3 -25l-4 -10c-7 -16 -10 -18 -18 -15zM243 46c68 0 131 30 185 83l-132 141c-31 33 -56 62 -75 88
c-66 -36 -119 -105 -119 -186c0 -79 57 -126 141 -126z" />
    <glyph glyph-name="at" unicode="@" horiz-adv-x="806" 
d="M458 538c40 0 68 -14 89 -37l10 23c3 6 6 7 26 7h10c18 0 24 -2 22 -8l-71 -204c-8 -22 -13 -40 -13 -64c0 -29 17 -44 49 -44c107 0 154 160 154 249c0 137 -97 216 -246 216c-214 0 -389 -188 -389 -407c0 -150 95 -229 255 -229c52 0 106 8 162 24c8 2 10 -2 11 -15
l1 -11c1 -10 1 -18 -6 -20c-58 -19 -120 -28 -186 -28c-185 0 -300 105 -300 282c0 256 202 458 462 458c173 0 296 -97 296 -261c0 -121 -67 -306 -226 -306c-56 0 -91 32 -94 77c-31 -47 -83 -77 -133 -77c-75 0 -111 50 -111 118c0 116 94 257 228 257zM492 345l37 110
c-17 23 -41 38 -76 38c-98 0 -160 -123 -160 -212c0 -41 18 -70 64 -70c26 0 51 11 73 31c26 23 47 58 62 103z" />
    <glyph glyph-name="exclam" unicode="!" horiz-adv-x="301" 
d="M197 720h14c31 0 37 -4 36 -12l-88 -504c-1 -5 -4 -7 -21 -7h-10c-17 0 -19 3 -19 7l52 504c1 8 4 12 36 12zM119 97c26 0 46 -21 46 -47c0 -30 -25 -60 -61 -60c-24 0 -43 19 -43 44c0 30 22 63 58 63z" />
    <glyph glyph-name="exclamdown" unicode="&#xa1;" horiz-adv-x="301" 
d="M112 -192h-14c-31 0 -37 4 -36 12l88 504c1 5 4 7 21 7h10c17 0 19 -3 19 -7l-52 -504c-1 -8 -4 -12 -36 -12zM190 431c-26 0 -46 21 -46 47c0 30 25 60 61 60c24 0 43 -19 43 -44c0 -30 -22 -63 -58 -63z" />
    <glyph glyph-name="question" unicode="?" horiz-adv-x="411" 
d="M146 195h-10c-23 0 -26 3 -25 12l8 54c11 74 40 113 138 175c59 37 99 70 99 136c0 24 -8 45 -20 61c-18 24 -51 37 -96 37s-90 -13 -133 -32c-9 -4 -13 0 -18 17l-3 10c-5 17 -5 19 5 24c42 21 104 40 161 40c66 0 112 -19 141 -53c23 -24 34 -56 34 -94
c0 -83 -49 -140 -125 -187c-79 -49 -109 -69 -119 -140l-7 -50c-1 -8 -8 -10 -30 -10zM129 96c26 0 46 -21 46 -47c0 -30 -25 -60 -61 -60c-24 0 -43 19 -43 44c0 30 22 63 58 63z" />
    <glyph glyph-name="questiondown" unicode="&#xbf;" horiz-adv-x="411" 
d="M321 332h10c23 0 26 -3 25 -12l-8 -54c-11 -74 -40 -113 -138 -175c-59 -37 -99 -70 -99 -136c0 -24 8 -45 20 -61c18 -24 51 -37 96 -37s90 13 133 32c9 4 13 0 18 -17l3 -10c5 -17 5 -19 -5 -24c-42 -21 -104 -40 -161 -40c-66 0 -112 19 -141 53c-23 24 -34 56 -34 94
c0 83 49 140 125 187c79 49 109 69 119 140l7 50c1 8 8 10 30 10zM338 431c-26 0 -46 21 -46 47c0 30 25 60 61 60c24 0 43 -19 43 -44c0 -30 -22 -63 -58 -63z" />
    <glyph glyph-name="asterisk" unicode="*" horiz-adv-x="393" 
d="M193 564l-122 23c-8 2 -7 7 0 22l5 11c7 15 11 19 19 16l111 -47l7 132c1 6 1 9 20 9h10c19 0 21 -3 20 -9l-28 -132l123 47c9 3 10 0 14 -16l3 -11c4 -15 2 -20 -8 -22l-127 -23l57 -109c2 -5 3 -7 -17 -18l-9 -5c-17 -9 -19 -8 -21 -3l-36 117l-72 -117
c-3 -5 -5 -5 -20 3l-9 5c-15 8 -15 13 -10 18z" />
    <glyph glyph-name="period" unicode="." horiz-adv-x="237" 
d="M111 106c27 0 49 -22 49 -51c0 -35 -29 -65 -65 -65c-26 0 -48 21 -48 50c0 34 28 66 64 66z" />
    <glyph glyph-name="comma" unicode="," horiz-adv-x="236" 
d="M5 -170l-3 4c-6 9 -7 11 -1 16c32 28 80 75 80 122c0 36 -34 46 -34 81c0 31 22 53 56 53c35 0 55 -22 55 -60c0 -80 -62 -165 -139 -223c-4 -3 -7 -2 -14 7z" />
    <glyph glyph-name="colon" unicode=":" horiz-adv-x="236" 
d="M97 105c27 0 48 -21 48 -50c0 -35 -28 -65 -64 -65c-26 0 -48 21 -48 50c0 34 28 65 64 65zM152 496c27 0 48 -21 48 -50c0 -35 -28 -65 -64 -65c-26 0 -48 21 -48 50c0 34 28 65 64 65z" />
    <glyph glyph-name="semicolon" unicode=";" horiz-adv-x="235" 
d="M158 496c27 0 48 -21 48 -50c0 -35 -28 -65 -64 -65c-26 0 -48 21 -48 50c0 34 28 65 64 65zM-1 -170l-3 4c-6 9 -7 11 -1 16c32 28 80 75 80 122c0 36 -34 46 -34 81c0 31 22 53 56 53c35 0 55 -22 55 -60c0 -80 -62 -165 -139 -223c-4 -3 -7 -2 -14 7z" />
    <glyph glyph-name="ellipsis" unicode="&#x2026;" horiz-adv-x="709" 
d="M111 106c27 0 49 -22 49 -51c0 -35 -29 -65 -65 -65c-26 0 -48 21 -48 50c0 34 28 66 64 66zM347 106c27 0 49 -22 49 -51c0 -35 -29 -65 -65 -65c-26 0 -48 21 -48 50c0 34 28 66 64 66zM583 106c27 0 49 -22 49 -51c0 -35 -29 -65 -65 -65c-26 0 -48 21 -48 50
c0 34 28 66 64 66z" />
    <glyph glyph-name="periodcentered" unicode="&#xb7;" horiz-adv-x="236" 
d="M135 410c27 0 49 -22 49 -51c0 -35 -29 -65 -65 -65c-26 0 -48 21 -48 50c0 34 28 66 64 66z" />
    <glyph glyph-name="uni22C5" unicode="&#x22c5;" horiz-adv-x="236" 
d="M135 410c27 0 49 -22 49 -51c0 -35 -29 -65 -65 -65c-26 0 -48 21 -48 50c0 34 28 66 64 66z" />
    <glyph glyph-name="bullet" unicode="&#x2022;" horiz-adv-x="333" 
d="M58 338c0 66 58 131 131 131c58 0 98 -45 98 -102c0 -66 -59 -129 -131 -129c-57 0 -98 44 -98 100z" />
    <glyph glyph-name="slash" unicode="/" horiz-adv-x="328" 
d="M-18 -4l316 731c3 7 7 11 33 11h4c25 0 31 -3 26 -13l-318 -731c-3 -7 -7 -11 -33 -11h-4c-24 0 -28 3 -24 13z" />
    <glyph glyph-name="parenleft" unicode="(" horiz-adv-x="323" 
d="M85 204c0 192 72 399 211 555c5 5 10 5 22 -3l9 -7c13 -9 13 -13 8 -19c-124 -155 -186 -346 -186 -528c0 -119 24 -219 69 -308c3 -6 1 -10 -14 -19l-11 -7c-14 -8 -19 -8 -22 -3c-49 93 -86 195 -86 339z" />
    <glyph glyph-name="brokenbar" unicode="&#xa6;" horiz-adv-x="270" 
d="M233 757l-54 -382c-1 -7 -6 -10 -27 -10h-8c-20 0 -25 3 -24 10l54 382c1 7 4 10 25 10h8c23 0 27 -3 26 -10zM150 170l-53 -382c-1 -7 -7 -10 -28 -10h-8c-21 0 -24 3 -23 10l53 382c1 7 6 10 26 10h8c21 0 26 -3 25 -10z" />
    <glyph glyph-name="parenright" unicode=")" horiz-adv-x="323" 
d="M245 420c0 -192 -72 -399 -211 -555c-5 -5 -10 -5 -22 3l-9 7c-13 9 -13 13 -8 19c124 155 186 346 186 528c0 119 -24 219 -69 308c-3 6 -1 10 14 19l11 7c14 8 19 8 22 3c49 -93 86 -195 86 -339z" />
    <glyph glyph-name="bracketleft" unicode="[" horiz-adv-x="324" 
d="M117 -80h121c7 0 8 -1 6 -22l-1 -9c-2 -18 -4 -21 -12 -21h-184l125 885h184c7 0 7 -1 5 -22l-1 -9c-2 -20 -5 -21 -12 -21h-121z" />
    <glyph glyph-name="backslash" unicode="\" horiz-adv-x="328" 
d="M146 727l113 -731c1 -10 -2 -13 -29 -13h-4c-28 0 -30 4 -31 11l-112 731c-1 10 1 13 29 13h4c26 0 29 -4 30 -11z" />
    <glyph glyph-name="bracketright" unicode="]" horiz-adv-x="324" 
d="M214 701h-121c-7 0 -8 1 -6 22l1 9c2 18 4 21 12 21h184l-125 -885h-184c-7 0 -7 1 -5 22l1 9c2 20 5 21 12 21h121z" />
    <glyph glyph-name="braceleft" unicode="{" horiz-adv-x="323" 
d="M177 167l-20 -143c-2 -14 -3 -25 -3 -35c0 -53 25 -69 80 -69h14c6 0 7 -4 5 -23l-1 -8c-2 -19 -5 -21 -11 -21h-20c-78 0 -130 32 -130 114c0 12 1 27 3 42l19 136c2 16 5 35 5 49c0 50 -19 66 -60 73c-6 1 -6 5 -4 24l1 10c2 18 5 22 11 23c50 7 77 35 90 122l20 143
c15 106 82 149 170 149h16c8 0 10 -1 8 -22l-1 -9c-2 -20 -4 -21 -11 -21h-14c-63 0 -95 -26 -106 -104l-20 -142c-12 -81 -39 -121 -96 -146c38 -16 59 -44 59 -96c0 -13 -2 -29 -4 -46z" />
    <glyph glyph-name="bar" unicode="|" horiz-adv-x="270" 
d="M240 807l-151 -1070c-1 -7 -6 -10 -27 -10h-8c-22 0 -25 3 -24 10l151 1070c1 7 3 10 26 10h8c22 0 26 -3 25 -10z" />
    <glyph glyph-name="braceright" unicode="}" horiz-adv-x="323" 
d="M153 454l20 143c2 14 3 25 3 35c0 53 -25 69 -80 69h-14c-6 0 -7 4 -5 23l1 8c2 19 5 21 11 21h20c78 0 130 -32 130 -114c0 -12 -1 -27 -3 -42l-19 -136c-2 -16 -5 -35 -5 -49c0 -50 19 -66 60 -73c6 -1 6 -5 4 -24l-1 -10c-2 -18 -5 -22 -11 -23
c-50 -7 -77 -35 -90 -122l-20 -143c-15 -106 -82 -149 -170 -149h-16c-8 0 -10 1 -8 22l1 9c2 20 4 21 11 21h14c63 0 95 26 106 104l20 142c12 81 39 121 96 146c-38 16 -59 44 -59 96c0 13 2 29 4 46z" />
    <glyph glyph-name="hyphen" unicode="-" horiz-adv-x="374" 
d="M314 279h-256c-6 0 -8 3 -4 24l1 5c4 21 5 22 11 22h256c7 0 8 -2 4 -23l-1 -5c-4 -21 -5 -23 -11 -23z" />
    <glyph glyph-name="uni00AD" unicode="&#xad;" horiz-adv-x="374" 
d="M314 279h-256c-6 0 -8 3 -4 24l1 5c4 21 5 22 11 22h256c7 0 8 -2 4 -23l-1 -5c-4 -21 -5 -23 -11 -23z" />
    <glyph glyph-name="endash" unicode="&#x2013;" horiz-adv-x="490" 
d="M433 261h-384c-7 0 -9 4 -5 22l1 5c4 19 5 20 12 20h386c8 0 9 -3 5 -21l-1 -5c-4 -18 -6 -21 -14 -21z" />
    <glyph glyph-name="emdash" unicode="&#x2014;" horiz-adv-x="980" 
d="M924 261h-875c-7 0 -9 4 -5 22l1 5c4 19 5 20 12 20h877c8 0 9 -3 5 -21l-1 -5c-4 -18 -6 -21 -14 -21z" />
    <glyph glyph-name="underscore" unicode="_" horiz-adv-x="494" 
d="M451 -209h-478c-7 0 -9 3 -5 21l1 5c3 17 5 19 10 19h482c6 0 7 -1 3 -19l-1 -5c-4 -18 -5 -21 -12 -21z" />
    <glyph glyph-name="dagger" unicode="&#x2020;" horiz-adv-x="463" 
d="M451 412h-171l-76 -540c-1 -7 -6 -9 -28 -9h-5c-24 0 -27 2 -26 9l76 540h-171c-7 0 -8 3 -5 23l1 6c3 20 5 22 11 22h171l35 248c1 7 4 9 27 9h5c23 0 28 -2 27 -9l-35 -248h171c7 0 8 -3 5 -23l-1 -6c-3 -20 -5 -22 -11 -22z" />
    <glyph glyph-name="daggerdbl" unicode="&#x2021;" horiz-adv-x="463" 
d="M406 92h-171l-31 -220c-1 -7 -7 -9 -29 -9h-4c-24 0 -27 2 -26 9l31 220h-171c-7 0 -8 3 -5 23l1 6c3 20 5 22 11 22h171l42 297h-171c-7 0 -8 3 -5 23l1 6c3 20 5 22 11 22h171l31 220c1 7 6 9 28 9h4c23 0 28 -2 27 -9l-31 -220h171c7 0 8 -3 5 -23l-1 -6
c-3 -20 -5 -22 -11 -22h-171l-42 -297h171c7 0 8 -3 5 -23l-1 -6c-3 -20 -5 -22 -11 -22z" />
    <glyph glyph-name="section" unicode="&#xa7;" horiz-adv-x="491" 
d="M436 641c-33 23 -73 37 -124 37c-65 0 -130 -29 -130 -102c0 -40 22 -61 116 -87c84 -23 156 -48 155 -135c0 -64 -38 -123 -94 -160c14 -17 23 -39 23 -66c0 -114 -100 -168 -201 -168c-55 0 -105 15 -148 45c-4 3 -1 10 7 22l5 7c12 17 15 17 20 14
c34 -23 74 -37 119 -37c65 0 135 26 135 98c0 56 -57 74 -133 97c-72 22 -137 54 -137 135c0 61 39 117 93 154c-14 17 -22 41 -22 70c0 102 86 164 198 164c59 0 110 -15 150 -45c5 -3 1 -10 -7 -22l-5 -7c-12 -17 -15 -17 -20 -14zM326 221c34 26 67 68 67 117
c0 54 -57 71 -119 90c-35 10 -71 21 -100 39c-32 -25 -66 -69 -66 -117s44 -67 97 -83c41 -13 87 -24 121 -46z" />
    <glyph glyph-name="paragraph" unicode="&#xb6;" horiz-adv-x="605" 
d="M603 664h-61l-111 -792c-1 -7 -10 -9 -31 -9h-6c-24 0 -28 2 -27 9l112 793h-115l-112 -793c-1 -7 -10 -9 -32 -9h-5c-21 0 -28 2 -27 9l62 441c-113 5 -178 74 -178 170c0 138 100 237 285 237h254c7 0 9 -3 6 -26l-1 -7c-3 -22 -6 -23 -13 -23z" />
    <glyph glyph-name="registered" unicode="&#xae;" horiz-adv-x="793" 
d="M457 731c180 0 304 -134 304 -313c0 -213 -175 -428 -409 -428c-180 0 -307 135 -307 315c0 218 178 426 412 426zM451 689c-194 0 -355 -185 -355 -381c0 -162 106 -276 261 -276c195 0 355 184 355 381c0 161 -107 276 -261 276zM404 329h-78l-21 -152
c-1 -5 -8 -7 -25 -7h-6c-17 0 -22 2 -21 7l54 387h113c55 0 99 -11 123 -38c13 -14 21 -35 21 -59c0 -42 -15 -78 -48 -104c-15 -12 -37 -21 -58 -26c20 -60 41 -107 70 -157c2 -4 0 -10 -23 -10h-7c-19 0 -24 1 -29 9c-22 35 -46 93 -65 150zM353 521l-21 -152h55
c40 0 69 7 88 22c20 15 32 41 32 68c0 19 -7 35 -20 45c-16 12 -38 17 -77 17h-57z" />
    <glyph glyph-name="copyright" unicode="&#xa9;" horiz-adv-x="793" 
d="M535 551c3 -2 4 -5 -5 -19l-3 -5c-8 -14 -10 -15 -15 -13c-23 10 -46 16 -70 16c-106 0 -157 -106 -157 -205c0 -68 30 -119 105 -119c31 0 55 5 81 16c6 2 7 -1 10 -13l2 -8c3 -11 4 -15 0 -17c-30 -15 -63 -23 -100 -23c-104 0 -153 71 -153 167c0 122 79 246 217 246
c31 0 64 -9 88 -23zM457 731c180 0 304 -134 304 -313c0 -213 -175 -428 -409 -428c-180 0 -307 135 -307 315c0 218 178 426 412 426zM451 689c-194 0 -355 -185 -355 -381c0 -162 106 -276 261 -276c195 0 355 184 355 381c0 161 -107 276 -261 276z" />
    <glyph glyph-name="trademark" unicode="&#x2122;" horiz-adv-x="874" 
d="M487 659l-65 -327c-1 -5 -5 -6 -21 -6h-11c-14 0 -17 2 -16 7l82 387c2 8 4 10 26 10h9c20 0 24 -1 26 -8l80 -276l151 276c4 7 8 8 28 8h12c23 0 27 -3 26 -10l-30 -388c0 -5 -4 -6 -20 -6h-11c-15 0 -17 1 -17 6l26 337l-146 -268c-3 -5 -6 -6 -22 -6h-11
c-17 0 -20 2 -21 6zM83 730h299c4 0 5 -2 3 -17l-1 -6c-3 -16 -4 -18 -8 -18h-125l-50 -357c-1 -5 -6 -6 -21 -6h-12c-15 0 -18 1 -17 6l50 357h-124c-4 0 -5 3 -3 18l1 6c2 14 4 17 8 17z" />
    <glyph glyph-name="quotedblleft" unicode="&#x201c;" horiz-adv-x="428" 
d="M414 721l3 -4c6 -9 7 -11 1 -16c-32 -28 -80 -75 -80 -122c0 -36 34 -46 34 -81c0 -31 -22 -53 -56 -53c-35 0 -55 22 -55 60c0 80 62 165 139 223c4 3 7 2 14 -7zM213 721l3 -4c6 -9 7 -11 1 -16c-32 -28 -80 -75 -80 -122c0 -36 34 -46 34 -81c0 -31 -22 -53 -56 -53
c-35 0 -55 22 -55 60c0 80 62 165 139 223c4 3 7 2 14 -7z" />
    <glyph glyph-name="quotedblright" unicode="&#x201d;" horiz-adv-x="428" 
d="M59 454l-3 4c-6 9 -7 11 -1 16c32 28 80 75 80 122c0 36 -34 46 -34 81c0 31 22 53 56 53c35 0 55 -22 55 -60c0 -80 -62 -165 -139 -223c-4 -3 -7 -2 -14 7zM260 454l-3 4c-6 9 -7 11 -1 16c32 28 80 75 80 122c0 36 -34 46 -34 81c0 31 22 53 56 53c35 0 55 -22 55 -60
c0 -80 -62 -165 -139 -223c-4 -3 -7 -2 -14 7z" />
    <glyph glyph-name="quoteleft" unicode="&#x2018;" horiz-adv-x="227" 
d="M213 721l3 -4c6 -9 7 -11 1 -16c-32 -28 -80 -75 -80 -122c0 -36 34 -46 34 -81c0 -31 -22 -53 -56 -53c-35 0 -55 22 -55 60c0 80 62 165 139 223c4 3 7 2 14 -7z" />
    <glyph glyph-name="quoteright" unicode="&#x2019;" horiz-adv-x="227" 
d="M59 454l-3 4c-6 9 -7 11 -1 16c32 28 80 75 80 122c0 36 -34 46 -34 81c0 31 22 53 56 53c35 0 55 -22 55 -60c0 -80 -62 -165 -139 -223c-4 -3 -7 -2 -14 7z" />
    <glyph glyph-name="guillemotleft" unicode="&#xab;" horiz-adv-x="505" 
d="M73 303l1 6c2 10 4 12 8 17l158 194c6 7 9 8 22 0l7 -4c12 -8 12 -12 7 -18l-141 -194l87 -193c2 -5 1 -10 -13 -18l-7 -4c-14 -7 -18 -7 -22 0l-104 194c-3 6 -5 10 -3 20zM275 303l1 6c2 10 4 12 8 17l158 194c6 7 9 8 22 0l7 -4c12 -8 12 -12 7 -18l-141 -194l87 -193
c2 -5 1 -10 -13 -18l-7 -4c-14 -7 -18 -7 -22 0l-104 194c-3 6 -5 10 -3 20z" />
    <glyph glyph-name="guillemotright" unicode="&#xbb;" horiz-adv-x="505" 
d="M439 307l-1 -6c-2 -10 -4 -12 -8 -17l-158 -194c-6 -7 -9 -8 -22 0l-7 4c-12 8 -12 12 -7 18l141 194l-87 193c-2 5 -1 10 13 18l7 4c14 7 18 7 22 0l104 -194c3 -6 5 -10 3 -20zM237 307l-1 -6c-2 -10 -4 -12 -8 -17l-158 -194c-6 -7 -9 -8 -22 0l-7 4
c-12 8 -12 12 -7 18l141 194l-87 193c-2 5 -1 10 13 18l7 4c14 7 18 7 22 0l104 -194c3 -6 5 -10 3 -20z" />
    <glyph glyph-name="guilsinglleft" unicode="&#x2039;" horiz-adv-x="303" 
d="M73 303l1 6c2 10 4 12 8 17l158 194c6 7 9 8 22 0l7 -4c12 -8 12 -12 7 -18l-141 -194l87 -193c2 -5 1 -10 -13 -18l-7 -4c-14 -7 -18 -7 -22 0l-104 194c-3 6 -5 10 -3 20z" />
    <glyph glyph-name="guilsinglright" unicode="&#x203a;" horiz-adv-x="303" 
d="M236 306l-1 -6c-2 -10 -4 -12 -8 -17l-158 -194c-6 -7 -9 -8 -22 0l-7 4c-12 8 -12 12 -7 18l141 194l-87 193c-2 5 -1 10 13 18l7 4c14 7 18 7 22 0l104 -194c3 -6 5 -10 3 -20z" />
    <glyph glyph-name="quotesinglbase" unicode="&#x201a;" horiz-adv-x="227" 
d="M11 -170l-3 4c-6 9 -7 11 -1 16c32 28 80 75 80 122c0 36 -34 46 -34 81c0 31 22 53 56 53c35 0 55 -22 55 -60c0 -80 -62 -165 -139 -223c-4 -3 -7 -2 -14 7z" />
    <glyph glyph-name="quotedblbase" unicode="&#x201e;" horiz-adv-x="428" 
d="M11 -170l-3 4c-6 9 -7 11 -1 16c32 28 80 75 80 122c0 36 -34 46 -34 81c0 31 22 53 56 53c35 0 55 -22 55 -60c0 -80 -62 -165 -139 -223c-4 -3 -7 -2 -14 7zM212 -170l-3 4c-6 9 -7 11 -1 16c32 28 80 75 80 122c0 36 -34 46 -34 81c0 31 22 53 56 53
c35 0 55 -22 55 -60c0 -80 -62 -165 -139 -223c-4 -3 -7 -2 -14 7z" />
    <glyph glyph-name="arrowleft" unicode="&#x2190;" horiz-adv-x="596" 
d="M33 289l1 5c1 6 2 8 11 16l196 172c6 5 9 4 23 -12l7 -8c13 -14 12 -17 7 -22l-140 -120h393c7 0 9 -4 6 -26l-1 -8c-3 -21 -6 -23 -13 -23h-403l109 -125c5 -6 4 -8 -9 -19l-7 -6c-17 -15 -21 -17 -25 -12l-148 172c-7 8 -8 10 -7 16z" />
    <glyph glyph-name="arrowup" unicode="&#x2191;" horiz-adv-x="596" 
d="M267 0h-11c-21 0 -22 2 -21 9l58 413l-143 -124c-5 -5 -8 -4 -20 10l-7 8c-13 15 -15 19 -9 24l196 172c9 8 11 9 17 9h5c6 0 8 -1 15 -9l148 -172c4 -5 1 -8 -15 -24l-4 -4c-16 -16 -19 -15 -24 -10l-102 120l-58 -413c-1 -7 -4 -9 -25 -9z" />
    <glyph glyph-name="arrowright" unicode="&#x2192;" horiz-adv-x="596" 
d="M563 294l-1 -5c-1 -6 -2 -8 -11 -16l-196 -172c-6 -5 -9 -4 -23 12l-7 8c-13 14 -12 17 -7 22l140 120h-393c-7 0 -9 4 -6 26l1 8c3 21 6 23 13 23h403l-109 125c-5 6 -4 8 9 19l7 6c17 15 21 17 25 12l148 -172c7 -8 8 -10 7 -16z" />
    <glyph glyph-name="arrowdown" unicode="&#x2193;" horiz-adv-x="596" 
d="M329 521h11c21 0 22 -2 21 -9l-58 -413l143 124c5 5 8 4 20 -10l7 -8c13 -15 15 -19 9 -24l-196 -172c-9 -8 -11 -9 -17 -9h-5c-6 0 -8 1 -15 9l-148 172c-4 5 -1 8 15 24l4 4c16 16 19 15 24 10l102 -120l58 413c1 7 4 9 25 9z" />
    <glyph glyph-name="uni266A" unicode="&#x266a;" horiz-adv-x="690" 
d="M513 408c-4 -2 -6 -2 -14 10l-4 6c-8 12 -8 13 -4 16c20 14 32 33 32 50c0 44 -48 54 -99 73c-22 7 -43 17 -62 33v-472c0 -85 -52 -134 -146 -134c-74 0 -116 37 -116 80s42 80 112 80c32 0 70 -10 96 -27v588c0 7 2 9 23 9h8c21 0 23 -2 23 -9v-25
c32 -24 69 -37 104 -50c66 -24 124 -43 124 -117c0 -41 -28 -83 -77 -111z" />
    <glyph glyph-name="grave" unicode="`" horiz-adv-x="346" 
d="M165 721h15c26 0 29 -3 32 -10l49 -118c2 -5 -5 -7 -21 -7h-4c-19 0 -22 1 -25 6l-70 119c-4 7 0 10 24 10z" />
    <glyph glyph-name="acute" unicode="&#xb4;" horiz-adv-x="346" 
d="M241 721h11c26 0 30 -3 24 -10l-104 -119c-5 -5 -8 -6 -27 -6h-4c-16 0 -22 2 -18 8l82 117c5 7 10 10 36 10z" />
    <glyph glyph-name="dieresis" unicode="&#xa8;" horiz-adv-x="346" 
d="M54 649c0 26 22 53 53 53c24 0 41 -20 41 -43c0 -27 -21 -52 -54 -52c-23 0 -40 19 -40 42zM252 649c0 26 22 53 53 53c24 0 41 -20 41 -43c0 -27 -22 -52 -54 -52c-23 0 -40 19 -40 42z" />
    <glyph glyph-name="circumflex" unicode="&#x2c6;" horiz-adv-x="346" 
d="M198 729h26c19 0 25 -3 31 -10l78 -100c3 -4 2 -7 -6 -15l-6 -6c-10 -10 -12 -11 -16 -7l-97 97l-131 -97c-5 -4 -8 -2 -14 7l-4 6c-6 9 -6 11 -2 15l106 100c8 7 16 10 35 10z" />
    <glyph glyph-name="tilde" unicode="&#x2dc;" horiz-adv-x="346" 
d="M348 665c-21 -23 -55 -44 -90 -44c-56 0 -79 38 -123 38c-21 0 -38 -8 -59 -28c-4 -4 -9 -3 -17 8l-4 6c-5 8 -6 13 -1 18c21 23 55 44 90 44c54 0 79 -38 123 -38c20 0 37 8 61 30c4 3 7 2 14 -8l5 -7c6 -9 6 -14 1 -19z" />
    <glyph glyph-name="macron" unicode="&#xaf;" horiz-adv-x="346" 
d="M323 633h-254c-7 0 -8 4 -4 24l1 5c4 20 6 22 12 22h254c7 0 8 -2 4 -24l-1 -5c-4 -20 -6 -22 -12 -22z" />
    <glyph glyph-name="breve" unicode="&#x2d8;" horiz-adv-x="346" 
d="M195 595c-69 0 -121 36 -121 95c0 5 0 10 1 16c1 4 1 6 18 6h10c17 0 20 -1 20 -8c0 -44 26 -68 78 -68c51 0 81 24 91 69c1 6 5 7 22 7h8c17 0 20 -3 19 -8c-12 -72 -68 -109 -146 -109z" />
    <glyph glyph-name="dotaccent" unicode="&#x2d9;" horiz-adv-x="346" 
d="M153 654c0 26 23 51 53 51c23 0 40 -19 40 -42c0 -27 -23 -51 -51 -51c-25 0 -42 19 -42 42z" />
    <glyph glyph-name="ring" unicode="&#x2da;" horiz-adv-x="346" 
d="M108 657c0 56 40 101 105 101c47 0 81 -33 81 -78c0 -56 -48 -102 -105 -102c-45 0 -81 31 -81 79zM206 719c-35 0 -56 -25 -56 -57c0 -26 19 -45 44 -45c31 0 56 26 56 58c0 24 -15 44 -44 44z" />
    <glyph glyph-name="cedilla" unicode="&#xb8;" horiz-adv-x="346" 
d="M72 -109l27 102c1 5 4 6 19 6h9c15 0 20 -2 19 -6l-17 -60c8 1 18 2 28 2c48 0 78 -27 78 -68c0 -63 -51 -100 -122 -100c-27 0 -54 6 -68 12c-4 2 -4 5 0 17l2 6c5 14 7 15 12 14c17 -5 35 -7 52 -7c29 0 68 10 68 50c1 26 -21 37 -55 37c-19 0 -38 -2 -52 -5z" />
    <glyph glyph-name="hungarumlaut" unicode="&#x2dd;" horiz-adv-x="346" 
d="M163 721h15c26 0 27 -3 21 -10l-103 -119c-5 -5 -9 -6 -28 -6h-3c-16 0 -23 2 -19 7l83 118c6 8 10 10 34 10zM317 721h14c23 0 28 -3 22 -10l-103 -119c-5 -5 -9 -6 -28 -6h-4c-15 0 -22 2 -18 7l82 118c6 8 11 10 35 10z" />
    <glyph glyph-name="ogonek" unicode="&#x2db;" horiz-adv-x="346" 
d="M214 -214c-22 -10 -46 -15 -73 -15c-56 0 -86 33 -86 81c0 61 50 111 105 140c10 5 18 7 31 7h8c16 0 19 -2 13 -6c-43 -27 -99 -71 -99 -132c0 -29 16 -46 46 -46c20 0 36 3 52 10c5 2 8 -1 8 -16v-5c0 -12 -1 -16 -5 -18z" />
    <glyph glyph-name="caron" unicode="&#x2c7;" horiz-adv-x="346" 
d="M204 583h-26c-17 0 -25 2 -32 10l-78 100c-3 4 -3 7 6 16l6 6c9 9 12 10 16 6l100 -97l128 97c6 4 8 3 14 -6l4 -6c7 -10 7 -12 2 -16l-106 -100c-8 -7 -17 -10 -34 -10z" />
    <glyph glyph-name="commaaccent" unicode="&#xf6c3;" horiz-adv-x="346" 
d="M48 -268l-3 4c-5 7 -8 11 -2 16c37 31 63 63 63 91c0 26 -23 35 -23 63c0 25 21 41 45 41c27 0 42 -18 42 -47c0 -62 -48 -129 -108 -174c-4 -3 -7 -3 -14 6z" />
    <glyph glyph-name="grave.sc" horiz-adv-x="346" 
d="M205 763h15c26 0 29 -3 32 -10l49 -118c2 -5 -5 -7 -21 -7h-4c-19 0 -22 1 -25 6l-70 119c-4 7 0 10 24 10z" />
    <glyph glyph-name="acute.sc" horiz-adv-x="346" 
d="M281 763h11c26 0 30 -3 24 -10l-104 -119c-5 -5 -8 -6 -27 -6h-4c-16 0 -22 2 -18 8l82 117c5 7 10 10 36 10z" />
    <glyph glyph-name="dieresis.sc" horiz-adv-x="346" 
d="M94 691c0 26 22 53 53 53c24 0 41 -20 41 -43c0 -27 -21 -52 -54 -52c-23 0 -40 19 -40 42zM292 691c0 26 22 53 53 53c24 0 41 -20 41 -43c0 -27 -22 -52 -54 -52c-23 0 -40 19 -40 42z" />
    <glyph glyph-name="circumflex.sc" horiz-adv-x="346" 
d="M238 771h26c19 0 25 -3 31 -10l78 -100c3 -4 2 -7 -6 -15l-6 -6c-10 -10 -12 -11 -16 -7l-97 97l-131 -97c-5 -4 -8 -2 -14 7l-4 6c-6 9 -6 11 -2 15l106 100c8 7 16 10 35 10z" />
    <glyph glyph-name="tilde.sc" horiz-adv-x="346" 
d="M388 707c-21 -23 -55 -44 -90 -44c-56 0 -79 38 -123 38c-21 0 -38 -8 -59 -28c-4 -4 -9 -3 -17 8l-4 6c-5 8 -6 13 -1 18c21 23 55 44 90 44c54 0 79 -38 123 -38c20 0 37 8 61 30c4 3 7 2 14 -8l5 -7c6 -9 6 -14 1 -19z" />
    <glyph glyph-name="macron.sc" horiz-adv-x="346" 
d="M363 675h-254c-7 0 -8 4 -4 24l1 5c4 20 6 22 12 22h254c7 0 8 -2 4 -24l-1 -5c-4 -20 -6 -22 -12 -22z" />
    <glyph glyph-name="breve.sc" horiz-adv-x="346" 
d="M235 637c-69 0 -121 36 -121 95c0 5 0 10 1 16c1 4 1 6 18 6h10c17 0 20 -1 20 -8c0 -44 26 -68 78 -68c51 0 81 24 91 69c1 6 5 7 22 7h8c17 0 20 -3 19 -8c-12 -72 -68 -109 -146 -109z" />
    <glyph glyph-name="dotaccent.sc" horiz-adv-x="346" 
d="M193 696c0 26 23 51 53 51c23 0 40 -19 40 -42c0 -27 -23 -51 -51 -51c-25 0 -42 19 -42 42z" />
    <glyph glyph-name="ring.sc" horiz-adv-x="346" 
d="M148 699c0 56 40 101 105 101c47 0 81 -33 81 -78c0 -56 -48 -102 -105 -102c-45 0 -81 31 -81 79zM246 761c-35 0 -56 -25 -56 -57c0 -26 19 -45 44 -45c31 0 56 26 56 58c0 24 -15 44 -44 44z" />
    <glyph glyph-name="hungarumlaut.sc" horiz-adv-x="346" 
d="M203 763h15c26 0 27 -3 21 -10l-103 -119c-5 -5 -9 -6 -28 -6h-3c-16 0 -23 2 -19 7l83 118c6 8 10 10 34 10zM357 763h14c23 0 28 -3 22 -10l-103 -119c-5 -5 -9 -6 -28 -6h-4c-15 0 -22 2 -18 7l82 118c6 8 11 10 35 10z" />
    <glyph glyph-name="caron.sc" horiz-adv-x="346" 
d="M244 625h-26c-17 0 -25 2 -32 10l-78 100c-3 4 -3 7 6 16l6 6c9 9 12 10 16 6l100 -97l128 97c6 4 8 3 14 -6l4 -6c7 -10 7 -12 2 -16l-106 -100c-8 -7 -17 -10 -34 -10z" />
    <glyph glyph-name="grave.cap" horiz-adv-x="346" 
d="M185 913h15c26 0 29 -3 32 -10l49 -118c2 -5 -5 -7 -21 -7h-4c-19 0 -22 1 -25 6l-70 119c-4 7 0 10 24 10z" />
    <glyph glyph-name="acute.cap" horiz-adv-x="346" 
d="M291 913h11c26 0 30 -3 24 -10l-104 -119c-5 -5 -8 -6 -27 -6h-4c-16 0 -22 2 -18 8l82 117c5 7 10 10 36 10z" />
    <glyph glyph-name="dieresis.cap" horiz-adv-x="346" 
d="M96 841c0 26 22 53 53 53c24 0 41 -20 41 -43c0 -27 -21 -52 -54 -52c-23 0 -40 19 -40 42zM294 841c0 26 22 53 53 53c24 0 41 -20 41 -43c0 -27 -22 -52 -54 -52c-23 0 -40 19 -40 42z" />
    <glyph glyph-name="circumflex.cap" horiz-adv-x="346" 
d="M242 921h26c19 0 25 -3 31 -10l78 -100c3 -4 2 -7 -6 -15l-6 -6c-10 -10 -12 -11 -16 -7l-97 97l-131 -97c-5 -4 -8 -2 -14 7l-4 6c-6 9 -6 11 -2 15l106 100c8 7 16 10 35 10z" />
    <glyph glyph-name="tilde.cap" horiz-adv-x="346" 
d="M400 857c-21 -23 -55 -44 -90 -44c-56 0 -79 38 -123 38c-21 0 -38 -8 -59 -28c-4 -4 -9 -3 -17 8l-4 6c-5 8 -6 13 -1 18c21 23 55 44 90 44c54 0 79 -38 123 -38c20 0 37 8 61 30c4 3 7 2 14 -8l5 -7c6 -9 6 -14 1 -19z" />
    <glyph glyph-name="macron.cap" horiz-adv-x="346" 
d="M364 823h-254c-7 0 -8 4 -4 24l1 5c4 20 6 22 12 22h254c7 0 8 -2 4 -24l-1 -5c-4 -20 -6 -22 -12 -22z" />
    <glyph glyph-name="breve.cap" horiz-adv-x="346" 
d="M241 795c-69 0 -121 36 -121 95c0 5 0 10 1 16c1 4 1 6 18 6h10c17 0 20 -1 20 -8c0 -44 26 -68 78 -68c51 0 81 24 91 69c1 6 5 7 22 7h8c17 0 20 -3 19 -8c-12 -72 -68 -109 -146 -109z" />
    <glyph glyph-name="dotaccent.cap" horiz-adv-x="346" 
d="M195 836c0 26 23 51 53 51c23 0 40 -19 40 -42c0 -27 -23 -51 -51 -51c-25 0 -42 19 -42 42z" />
    <glyph glyph-name="ring.cap" horiz-adv-x="346" 
d="M158 857c0 56 40 101 105 101c47 0 81 -33 81 -78c0 -56 -48 -102 -105 -102c-45 0 -81 31 -81 79zM256 919c-35 0 -56 -25 -56 -57c0 -26 19 -45 44 -45c31 0 56 26 56 58c0 24 -15 44 -44 44z" />
    <glyph glyph-name="hungarumlaut.cap" horiz-adv-x="346" 
d="M233 913h15c26 0 27 -3 21 -10l-103 -119c-5 -5 -9 -6 -28 -6h-3c-16 0 -23 2 -19 7l83 118c6 8 10 10 34 10zM387 913h14c23 0 28 -3 22 -10l-103 -119c-5 -5 -9 -6 -28 -6h-4c-15 0 -22 2 -18 7l82 118c6 8 11 10 35 10z" />
    <glyph glyph-name="caron.cap" horiz-adv-x="346" 
d="M257 782h-26c-17 0 -25 2 -32 10l-78 100c-3 4 -3 7 6 16l6 6c9 9 12 10 16 6l100 -97l128 97c6 4 8 3 14 -6l4 -6c7 -10 7 -12 2 -16l-106 -100c-8 -7 -17 -10 -34 -10z" />
    <glyph glyph-name="periodcentered.cap" horiz-adv-x="236" 
d="M135 410c27 0 49 -22 49 -51c0 -35 -29 -65 -65 -65c-26 0 -48 21 -48 50c0 34 28 66 64 66z" />
    <glyph glyph-name="bullet.cap" horiz-adv-x="333" 
d="M58 361c0 66 58 131 131 131c58 0 98 -45 98 -102c0 -66 -59 -129 -131 -129c-57 0 -98 44 -98 100z" />
    <glyph glyph-name="parenleft.cap" horiz-adv-x="323" 
d="M85 240c0 192 72 399 211 555c5 5 10 5 22 -3l9 -7c13 -9 13 -13 8 -19c-124 -155 -186 -346 -186 -528c0 -119 24 -219 69 -308c3 -6 1 -10 -14 -19l-11 -7c-14 -8 -19 -8 -22 -3c-49 93 -86 195 -86 339z" />
    <glyph glyph-name="parenright.cap" horiz-adv-x="323" 
d="M245 456c0 -192 -72 -399 -211 -555c-5 -5 -10 -5 -22 3l-9 7c-13 9 -13 13 -8 19c124 155 186 346 186 528c0 119 -24 219 -69 308c-3 6 -1 10 14 19l11 7c14 8 19 8 22 3c49 -93 86 -195 86 -339z" />
    <glyph glyph-name="bracketleft.cap" horiz-adv-x="324" 
d="M117 -33h121c7 0 8 -1 6 -22l-1 -9c-2 -18 -4 -21 -12 -21h-184l125 885h184c7 0 7 -1 5 -22l-1 -9c-2 -20 -5 -21 -12 -21h-121z" />
    <glyph glyph-name="bracketright.cap" horiz-adv-x="324" 
d="M214 748h-121c-7 0 -8 1 -6 22l1 9c2 18 4 21 12 21h184l-125 -885h-184c-7 0 -7 1 -5 22l1 9c2 20 5 21 12 21h121z" />
    <glyph glyph-name="braceleft.cap" horiz-adv-x="323" 
d="M177 214l-20 -143c-2 -14 -3 -25 -3 -35c0 -53 25 -69 80 -69h14c6 0 7 -4 5 -23l-1 -8c-2 -19 -5 -21 -11 -21h-20c-78 0 -130 32 -130 114c0 12 1 27 3 42l19 136c2 16 5 35 5 49c0 50 -19 66 -60 73c-6 1 -6 5 -4 24l1 10c2 18 5 22 11 23c50 7 77 35 90 122l20 143
c15 106 82 149 170 149h16c8 0 10 -1 8 -22l-1 -9c-2 -20 -4 -21 -11 -21h-14c-63 0 -95 -26 -106 -104l-20 -142c-12 -81 -39 -121 -96 -146c38 -16 59 -44 59 -96c0 -13 -2 -29 -4 -46z" />
    <glyph glyph-name="braceright.cap" horiz-adv-x="323" 
d="M153 501l20 143c2 14 3 25 3 35c0 53 -25 69 -80 69h-14c-6 0 -7 4 -5 23l1 8c2 19 5 21 11 21h20c78 0 130 -32 130 -114c0 -12 -1 -27 -3 -42l-19 -136c-2 -16 -5 -35 -5 -49c0 -50 19 -66 60 -73c6 -1 6 -5 4 -24l-1 -10c-2 -18 -5 -22 -11 -23
c-50 -7 -77 -35 -90 -122l-20 -143c-15 -106 -82 -149 -170 -149h-16c-8 0 -10 1 -8 22l1 9c2 20 4 21 11 21h14c63 0 95 26 106 104l20 142c12 81 39 121 96 146c-38 16 -59 44 -59 96c0 13 2 29 4 46z" />
    <glyph glyph-name="questiondown.cap" horiz-adv-x="411" 
d="M310 524h10c23 0 26 -3 25 -12l-8 -54c-11 -74 -40 -113 -138 -175c-59 -37 -99 -70 -99 -136c0 -24 8 -45 20 -61c18 -24 51 -37 96 -37s90 13 133 32c9 4 13 0 18 -17l3 -10c5 -17 5 -19 -5 -24c-42 -21 -104 -40 -161 -40c-66 0 -112 19 -141 53c-23 24 -34 56 -34 94
c0 83 49 140 125 187c79 49 109 69 119 140l7 50c1 8 8 10 30 10zM327 623c-26 0 -46 21 -46 47c0 30 25 60 61 60c24 0 43 -19 43 -44c0 -30 -22 -63 -58 -63z" />
    <glyph glyph-name="exclamdown.cap" horiz-adv-x="301" 
d="M117 0h-14c-31 0 -37 4 -36 12l88 504c1 5 4 7 21 7h10c17 0 19 -3 19 -7l-52 -504c-1 -8 -4 -12 -36 -12zM195 623c-26 0 -46 21 -46 47c0 30 25 60 61 60c24 0 43 -19 43 -44c0 -30 -22 -63 -58 -63z" />
    <glyph glyph-name="guillemotleft.cap" horiz-adv-x="505" 
d="M73 362l1 6c2 10 4 12 8 17l158 194c6 7 9 8 22 0l7 -4c12 -8 12 -12 7 -18l-141 -194l87 -193c2 -5 1 -10 -13 -18l-7 -4c-14 -7 -18 -7 -22 0l-104 194c-3 6 -5 10 -3 20zM275 362l1 6c2 10 4 12 8 17l158 194c6 7 9 8 22 0l7 -4c12 -8 12 -12 7 -18l-141 -194l87 -193
c2 -5 1 -10 -13 -18l-7 -4c-14 -7 -18 -7 -22 0l-104 194c-3 6 -5 10 -3 20z" />
    <glyph glyph-name="guillemotright.cap" horiz-adv-x="505" 
d="M439 364l-1 -6c-2 -10 -4 -12 -8 -17l-158 -194c-6 -7 -9 -8 -22 0l-7 4c-12 8 -12 12 -7 18l141 194l-87 193c-2 5 -1 10 13 18l7 4c14 7 18 7 22 0l104 -194c3 -6 5 -10 3 -20zM237 364l-1 -6c-2 -10 -4 -12 -8 -17l-158 -194c-6 -7 -9 -8 -22 0l-7 4
c-12 8 -12 12 -7 18l141 194l-87 193c-2 5 -1 10 13 18l7 4c14 7 18 7 22 0l104 -194c3 -6 5 -10 3 -20z" />
    <glyph glyph-name="guilsinglleft.cap" horiz-adv-x="303" 
d="M73 362l1 6c2 10 4 12 8 17l158 194c6 7 9 8 22 0l7 -4c12 -8 12 -12 7 -18l-141 -194l87 -193c2 -5 1 -10 -13 -18l-7 -4c-14 -7 -18 -7 -22 0l-104 194c-3 6 -5 10 -3 20z" />
    <glyph glyph-name="guilsinglright.cap" horiz-adv-x="303" 
d="M236 364l-1 -6c-2 -10 -4 -12 -8 -17l-158 -194c-6 -7 -9 -8 -22 0l-7 4c-12 8 -12 12 -7 18l141 194l-87 193c-2 5 -1 10 13 18l7 4c14 7 18 7 22 0l104 -194c3 -6 5 -10 3 -20z" />
    <glyph glyph-name="hyphen.cap" horiz-adv-x="374" 
d="M314 321h-256c-6 0 -8 3 -4 24l1 5c4 21 5 22 11 22h256c7 0 8 -2 4 -23l-1 -5c-4 -21 -5 -23 -11 -23z" />
    <glyph glyph-name="uni00AD.cap" horiz-adv-x="374" 
d="M314 321h-256c-6 0 -8 3 -4 24l1 5c4 21 5 22 11 22h256c7 0 8 -2 4 -23l-1 -5c-4 -21 -5 -23 -11 -23z" />
    <glyph glyph-name="endash.cap" horiz-adv-x="490" 
d="M433 325h-384c-7 0 -9 4 -5 22l1 5c4 19 5 20 12 20h386c8 0 9 -3 5 -21l-1 -5c-4 -18 -6 -21 -14 -21z" />
    <glyph glyph-name="emdash.cap" horiz-adv-x="980" 
d="M924 325h-875c-7 0 -9 4 -5 22l1 5c4 19 5 20 12 20h877c8 0 9 -3 5 -21l-1 -5c-4 -18 -6 -21 -14 -21z" />
    <glyph glyph-name="afii00208.cap" horiz-adv-x="980" 
d="M924 325h-875c-7 0 -9 4 -5 22l1 5c4 19 5 20 12 20h877c8 0 9 -3 5 -21l-1 -5c-4 -18 -6 -21 -14 -21z" />
    <glyph glyph-name="A.sc" horiz-adv-x="549" 
d="M310 582h7c25 0 34 -2 36 -9l129 -564c2 -7 -6 -9 -30 -9h-8c-24 0 -31 2 -32 8l-31 146h-253l-71 -145c-3 -7 -12 -9 -33 -9h-7c-24 0 -29 3 -26 9l282 563c4 8 10 10 37 10zM307 517l-155 -309h219z" />
    <glyph glyph-name="B.sc" horiz-adv-x="495" 
d="M119 582h137c118 0 188 -44 188 -133c0 -62 -31 -115 -109 -145c61 -20 103 -57 103 -123c0 -57 -25 -105 -67 -136c-47 -35 -107 -45 -192 -45h-142zM141 274l-32 -220h83c122 0 178 41 178 122c0 62 -43 98 -143 98h-86zM177 528l-30 -203h71c56 0 97 12 124 35
c25 22 35 48 35 82c0 62 -36 86 -128 86h-72z" />
    <glyph glyph-name="C.sc" horiz-adv-x="493" 
d="M481 532l-7 -12c-8 -14 -12 -17 -18 -14c-41 21 -75 30 -116 30c-160 0 -229 -171 -229 -306c0 -107 49 -183 164 -183c40 0 84 7 121 26c6 3 9 -2 14 -17l3 -9c4 -13 3 -21 -3 -24c-48 -22 -99 -33 -155 -33c-142 0 -212 94 -212 235c0 170 100 367 304 367
c50 0 98 -13 138 -38c5 -3 4 -8 -4 -22z" />
    <glyph glyph-name="D.sc" horiz-adv-x="561" 
d="M119 582h138c177 0 265 -79 265 -233c0 -102 -34 -215 -118 -286c-56 -48 -123 -63 -225 -63h-142zM177 528l-68 -474h74c81 0 128 12 174 49c69 55 97 149 97 244c0 113 -51 181 -206 181h-71z" />
    <glyph glyph-name="E.sc" horiz-adv-x="459" 
d="M119 582h328c7 0 8 -7 5 -24l-1 -6c-3 -16 -5 -24 -11 -24h-264l-29 -207h223c6 0 8 -5 5 -23l-1 -7c-3 -18 -5 -23 -11 -23h-224l-30 -214h267c6 0 7 -5 5 -22l-1 -8c-2 -17 -5 -24 -11 -24h-332z" />
    <glyph glyph-name="F.sc" horiz-adv-x="411" 
d="M118 582h307c6 0 6 -5 4 -22l-1 -8c-2 -17 -5 -24 -11 -24h-242l-30 -207h203c6 0 7 -4 4 -23l-1 -7c-3 -19 -4 -23 -10 -23h-203l-36 -259c-1 -6 -9 -9 -30 -9h-6c-23 0 -29 2 -28 9z" />
    <glyph glyph-name="G.sc" horiz-adv-x="551" 
d="M505 523l-8 -14c-7 -12 -11 -13 -18 -9c-41 25 -84 36 -136 36c-153 0 -231 -158 -231 -306c0 -110 50 -185 173 -185c39 0 83 8 114 20l27 188h-136c-6 0 -7 3 -4 23l2 13c2 15 5 18 11 18h197l-38 -278c-57 -24 -122 -39 -186 -39c-157 0 -229 92 -229 236
c0 198 114 366 306 366c68 0 123 -18 159 -45c6 -4 5 -10 -3 -24z" />
    <glyph glyph-name="H.sc" horiz-adv-x="570" 
d="M146 582h7c23 0 30 -2 29 -8l-35 -253h287l36 253c1 6 8 8 28 8h8c22 0 30 -2 29 -8l-80 -566c-1 -6 -9 -8 -29 -8h-8c-21 0 -28 2 -27 8l37 259h-288l-37 -259c-1 -6 -10 -8 -31 -8h-7c-21 0 -28 2 -27 8l80 566c1 6 7 8 28 8z" />
    <glyph glyph-name="I.sc" horiz-adv-x="327" 
d="M112 582h189c5 0 6 -4 4 -20l-1 -7c-2 -17 -4 -19 -10 -19h-62l-69 -490h62c6 0 6 -3 4 -20l-1 -7c-2 -17 -4 -19 -10 -19h-189c-5 0 -6 6 -4 19l1 8c2 17 4 19 9 19h63l70 490h-63c-5 0 -6 4 -4 19l1 8c2 16 5 19 10 19z" />
    <glyph glyph-name="J.sc" horiz-adv-x="387" 
d="M324 582h7c22 0 30 -2 29 -8l-58 -408c-17 -118 -75 -176 -181 -176c-46 0 -91 15 -120 37c-5 4 -7 8 3 25l6 10c10 16 14 16 21 12c28 -16 60 -29 90 -29c74 0 105 42 117 124l57 405c1 6 8 8 29 8z" />
    <glyph glyph-name="K.sc" horiz-adv-x="501" 
d="M146 582h7c20 0 30 -2 29 -8l-41 -285l95 83c85 75 152 149 188 203c4 6 10 7 27 7h15c20 0 26 -2 22 -9c-31 -54 -108 -143 -212 -235l159 -328c3 -7 -3 -10 -25 -10h-14c-24 0 -30 2 -33 8l-137 286l-95 -81l-29 -205c-1 -6 -9 -8 -30 -8h-7c-21 0 -28 2 -27 8l80 566
c1 6 9 8 28 8z" />
    <glyph glyph-name="L.sc" horiz-adv-x="435" 
d="M146 582h7c22 0 30 -3 29 -9l-73 -519h245c7 0 8 -4 6 -22l-1 -9c-2 -20 -6 -23 -10 -23h-280c-20 0 -29 2 -28 11l77 562c1 7 8 9 28 9z" />
    <glyph glyph-name="M.sc" horiz-adv-x="675" 
d="M169 582h5c30 0 34 -3 36 -10l113 -400l220 400c4 7 8 10 39 10h8c29 0 35 -3 34 -10l-54 -565c-1 -5 -6 -7 -28 -7h-7c-22 0 -28 2 -27 7l50 481l-210 -378c-3 -6 -9 -7 -32 -7h-6c-22 0 -27 1 -29 7l-107 373l-88 -476c-1 -5 -6 -7 -28 -7h-6c-22 0 -27 2 -26 7
l108 565c2 8 7 10 35 10z" />
    <glyph glyph-name="N.sc" horiz-adv-x="586" 
d="M150 582h4c28 0 33 -2 37 -10l236 -481l69 483c1 6 7 8 26 8h7c20 0 26 -2 25 -9l-79 -565c-1 -6 -9 -8 -33 -8h-5c-29 0 -33 2 -36 9l-237 482l-69 -483c-1 -6 -8 -8 -27 -8h-6c-21 0 -27 2 -26 8l80 566c1 6 7 8 34 8z" />
    <glyph glyph-name="O.sc" horiz-adv-x="601" 
d="M340 536c-148 0 -229 -158 -229 -306c0 -121 54 -184 155 -184c147 0 228 158 228 303c0 123 -54 187 -154 187zM350 592c128 0 212 -77 212 -234c0 -188 -112 -368 -306 -368c-129 0 -213 80 -213 236c0 187 112 366 307 366z" />
    <glyph glyph-name="P.sc" horiz-adv-x="461" 
d="M119 582h128c123 0 210 -33 210 -146c0 -112 -68 -214 -230 -214c-30 0 -62 2 -92 6l-32 -220c-1 -6 -10 -8 -31 -8h-6c-22 0 -29 2 -28 8zM177 528l-36 -247c27 -4 56 -6 86 -6c112 0 162 62 162 151c0 83 -55 102 -147 102h-65z" />
    <glyph glyph-name="Q.sc" horiz-adv-x="600" 
d="M350 592c128 0 212 -77 212 -234c0 -134 -57 -264 -160 -327c17 -28 37 -53 60 -75c5 -5 2 -12 -11 -23l-10 -8c-13 -10 -18 -12 -23 -7c-24 26 -47 56 -66 88c-30 -10 -62 -16 -96 -16c-129 0 -213 80 -213 236c0 187 112 366 307 366zM340 536
c-148 0 -229 -158 -229 -306c0 -121 54 -184 155 -184c21 0 41 3 59 9c-12 26 -22 53 -29 80c-2 8 3 12 16 18l13 6c13 6 19 4 21 -4c7 -24 17 -50 29 -75c77 55 119 165 119 269c0 123 -54 187 -154 187z" />
    <glyph glyph-name="R.sc" horiz-adv-x="487" 
d="M119 582h131c75 0 132 -16 168 -45c30 -25 43 -57 43 -97c0 -58 -21 -120 -80 -159c-21 -13 -48 -22 -79 -29c33 -94 65 -167 111 -241c4 -7 -2 -11 -27 -11h-11c-23 0 -31 4 -36 12c-40 66 -74 150 -100 230h-27h-76l-33 -234c-1 -6 -11 -8 -30 -8h-7c-20 0 -29 2 -28 8
zM179 528l-36 -234h81c45 0 85 6 113 24c35 24 54 64 54 117c0 27 -7 50 -25 65c-26 21 -69 28 -122 28h-65z" />
    <glyph glyph-name="S.sc" horiz-adv-x="450" 
d="M413 528l-4 -8c-7 -14 -14 -18 -21 -14c-26 14 -58 31 -107 31c-71 0 -129 -35 -129 -99c0 -49 34 -75 96 -110c71 -40 142 -77 142 -166c0 -98 -86 -172 -211 -172c-76 0 -143 27 -165 47c-5 5 -7 10 1 20l11 14c10 13 15 18 23 13c36 -20 73 -39 130 -39
c86 0 146 44 146 111c0 60 -48 85 -106 116c-90 48 -132 89 -132 156c0 98 84 164 191 164c68 0 127 -27 140 -41c5 -5 3 -8 -5 -23z" />
    <glyph glyph-name="T.sc" horiz-adv-x="450" 
d="M72 582h392c6 0 6 -7 4 -24l-1 -8c-2 -18 -4 -23 -10 -23h-162l-74 -519c-1 -6 -9 -8 -30 -8h-8c-20 0 -27 2 -26 8l74 519h-166c-6 0 -7 6 -5 24l1 8c2 18 5 23 11 23z" />
    <glyph glyph-name="U.sc" horiz-adv-x="583" 
d="M142 582h7c22 0 30 -2 29 -8l-50 -353c-2 -16 -4 -36 -4 -51c0 -89 48 -125 137 -125c101 0 161 53 179 176l50 353c1 6 8 8 29 8h7c21 0 29 -2 28 -9l-49 -351c-22 -159 -110 -232 -251 -232c-126 0 -196 55 -196 167c0 18 1 38 4 58l51 359c1 6 7 8 29 8z" />
    <glyph glyph-name="V.sc" horiz-adv-x="519" 
d="M96 582h9c22 0 30 -3 31 -10l97 -508l238 509c3 7 9 9 30 9h11c22 0 28 -3 25 -10l-266 -562c-4 -8 -14 -10 -40 -10h-11c-27 0 -34 2 -36 10l-117 562c-2 7 5 10 29 10z" />
    <glyph glyph-name="W.sc" horiz-adv-x="821" 
d="M103 582h9c21 0 30 -3 31 -10l67 -510l210 511c3 6 8 9 29 9h14c21 0 27 -3 28 -9l67 -510l209 510c3 6 8 9 30 9h9c23 0 28 -3 25 -10l-237 -562c-4 -8 -15 -10 -40 -10h-11c-28 0 -38 2 -39 10l-62 473l-195 -472c-4 -8 -15 -11 -40 -11h-11c-27 0 -35 3 -36 11
l-86 561c-1 8 6 10 29 10z" />
    <glyph glyph-name="X.sc" horiz-adv-x="484" 
d="M119 582h9c20 0 28 -2 31 -8l100 -219l161 218c5 7 11 9 34 9h7c25 0 32 -4 26 -11l-204 -269l140 -291c3 -7 -4 -11 -29 -11h-10c-20 0 -29 2 -32 8l-113 248l-183 -247c-5 -6 -14 -9 -37 -9h-6c-23 0 -30 4 -24 11l224 298l-123 262c-3 7 4 11 29 11z" />
    <glyph glyph-name="Y.sc" horiz-adv-x="461" 
d="M91 582h4c24 0 31 -3 33 -9l101 -290l187 291c4 7 12 8 33 8h10c22 0 29 -3 25 -10l-229 -347l-31 -217c-1 -6 -10 -8 -30 -8h-8c-21 0 -27 2 -26 8l30 217l-129 347c-2 6 4 10 30 10z" />
    <glyph glyph-name="Z.sc" horiz-adv-x="473" 
d="M109 582h337c18 0 22 -2 21 -10l-3 -23c-2 -14 -10 -26 -22 -42l-356 -452h307c6 0 6 -4 4 -24l-1 -9c-2 -18 -5 -22 -10 -22h-361c-16 0 -20 3 -19 10l3 25c2 15 8 25 21 42l355 450h-283c-7 0 -7 6 -4 25l1 6c3 19 4 24 10 24z" />
    <glyph glyph-name="ampersand.sc" horiz-adv-x="606" 
d="M208 -10c-114 0 -175 62 -175 145c0 84 56 148 138 186c-19 33 -30 67 -30 102c0 104 78 169 190 169c40 0 76 -9 108 -24c6 -3 6 -10 -2 -24l-4 -7c-8 -15 -10 -19 -16 -16c-29 12 -59 18 -94 18c-68 0 -116 -38 -116 -110c0 -52 23 -97 116 -188l86 -85
c35 43 64 99 84 162c2 6 6 9 25 9h6c21 0 25 -3 23 -9c-22 -76 -56 -144 -102 -200l90 -81c5 -5 3 -11 -10 -24l-9 -9c-13 -13 -19 -17 -24 -12l-87 78c-53 -51 -120 -80 -197 -80zM219 43c57 0 109 26 151 65l-97 94c-34 33 -59 63 -74 82c-54 -27 -99 -76 -99 -139
c0 -62 47 -102 119 -102z" />
    <glyph glyph-name="at.sc" horiz-adv-x="709" 
d="M460 41l1 -7c2 -13 1 -17 -7 -20c-46 -15 -101 -22 -154 -22c-160 0 -263 88 -263 238c0 207 172 360 388 360c151 0 261 -84 261 -223c0 -98 -57 -236 -192 -236c-47 0 -75 23 -80 53c-29 -35 -70 -53 -112 -53c-67 0 -101 43 -101 101c0 93 77 205 193 205
c34 0 58 -10 76 -25l6 12c3 6 7 7 23 7h13c17 0 21 -4 20 -8l-58 -165c-5 -15 -10 -29 -10 -46c0 -22 13 -38 42 -38c87 0 126 120 126 188c0 113 -86 181 -215 181c-179 0 -324 -138 -324 -311c0 -126 85 -195 222 -195c44 0 90 7 135 19c7 2 8 -3 10 -15zM423 279l29 87
c-14 15 -35 26 -63 26c-80 0 -127 -90 -127 -157c0 -35 16 -58 54 -58c21 0 41 8 58 22c21 18 37 45 49 80z" />
    <glyph glyph-name="exclam.sc" horiz-adv-x="273" 
d="M127 160h-9c-16 0 -20 2 -20 6l41 406c1 7 7 10 35 10h12c28 0 34 -3 33 -11l-71 -405c-1 -5 -6 -6 -21 -6zM100 -10c-23 0 -41 18 -41 41c0 26 20 53 52 53c25 0 43 -18 43 -42c0 -25 -21 -52 -54 -52z" />
    <glyph glyph-name="exclamdown.sc" horiz-adv-x="271" 
d="M101 0h-12c-27 0 -34 3 -33 9l72 407c1 5 4 6 20 6h9c17 0 20 -2 20 -7l-41 -405c-1 -7 -7 -10 -35 -10zM166 497c-25 0 -43 19 -43 43c0 26 21 52 53 52c24 0 41 -18 41 -41c0 -26 -18 -54 -51 -54z" />
    <glyph glyph-name="question.sc" horiz-adv-x="367" 
d="M130 158h-9c-21 0 -26 3 -25 10l6 45c8 61 33 97 113 136c51 25 87 54 87 107s-43 79 -93 79c-42 0 -76 -11 -112 -25c-7 -3 -12 1 -16 16l-3 11c-4 16 -4 19 3 23c37 17 89 32 139 32c76 0 149 -39 149 -125c0 -73 -44 -124 -114 -159c-61 -31 -85 -54 -91 -96l-6 -46
c-1 -6 -9 -8 -28 -8zM104 -10c-23 0 -41 17 -41 41c0 26 20 53 52 53c25 0 43 -19 43 -42c0 -26 -21 -52 -54 -52z" />
    <glyph glyph-name="questiondown.sc" horiz-adv-x="368" 
d="M259 424h9c21 0 26 -3 25 -10l-6 -45c-8 -61 -33 -97 -113 -136c-51 -25 -87 -54 -87 -107s43 -79 93 -79c42 0 76 11 112 25c7 3 12 -1 16 -16l3 -11c4 -16 4 -19 -3 -23c-37 -17 -89 -32 -139 -32c-76 0 -149 39 -149 125c0 73 44 124 114 159c61 31 85 54 91 96l6 46
c1 6 9 8 28 8zM285 592c23 0 41 -17 41 -41c0 -26 -20 -53 -52 -53c-25 0 -43 19 -43 42c0 26 21 52 54 52z" />
    <glyph glyph-name="slash.sc" horiz-adv-x="298" 
d="M26 0h-8c-21 0 -25 3 -22 10l254 564c3 6 8 8 29 8h8c21 0 27 -2 24 -9l-255 -564c-3 -6 -8 -9 -30 -9z" />
    <glyph glyph-name="backslash.sc" horiz-adv-x="298" 
d="M205 -10h-7c-23 0 -27 3 -28 8l-99 584c-1 7 3 10 26 10h7c21 0 26 -2 27 -9l100 -583c1 -7 -3 -10 -26 -10z" />
    <glyph glyph-name="parenleft.sc" horiz-adv-x="310" 
d="M193 -59l-15 -7c-15 -7 -20 -8 -24 -2c-42 69 -75 156 -75 280c0 173 70 344 179 452c4 4 11 6 23 -3l11 -8c8 -6 10 -10 6 -15c-99 -115 -156 -267 -156 -425c0 -106 22 -181 61 -257c3 -5 1 -10 -10 -15z" />
    <glyph glyph-name="parenright.sc" horiz-adv-x="310" 
d="M28 -61l-7 5c-12 9 -15 14 -10 19c100 116 157 267 157 423c0 103 -23 186 -60 255c-4 7 -3 12 13 20l10 5c14 7 19 7 23 1c42 -67 77 -155 77 -278c0 -171 -71 -346 -181 -454c-5 -4 -10 -4 -22 4z" />
    <glyph glyph-name="bracketleft.sc" horiz-adv-x="310" 
d="M210 -90h-163l105 744h162c6 0 7 -3 5 -21l-1 -7c-2 -17 -4 -22 -11 -22h-102l-91 -643h102c6 0 8 -3 5 -22l-1 -7c-2 -17 -4 -22 -10 -22z" />
    <glyph glyph-name="bracketright.sc" horiz-adv-x="310" 
d="M90 654h163l-103 -744h-162c-6 0 -7 3 -5 21l1 7c2 17 4 22 11 22h102l89 643h-102c-6 0 -8 3 -5 22l1 7c2 17 4 22 10 22z" />
    <glyph glyph-name="braceleft.sc" horiz-adv-x="310" 
d="M213 -89h-18c-70 0 -116 34 -116 103c0 9 1 20 3 31l16 110c1 11 3 24 3 35c0 36 -15 56 -49 61c-6 1 -6 8 -4 23l1 7c2 15 4 22 10 22c41 3 65 37 73 91l19 130c13 90 71 131 148 131h17c6 0 9 -4 6 -21l-2 -11c-2 -12 -3 -18 -9 -18h-14c-52 0 -78 -25 -86 -81
l-19 -127c-8 -54 -30 -107 -80 -120c34 -10 50 -40 50 -79c0 -11 -1 -24 -3 -36l-17 -114c-1 -9 -2 -18 -2 -25c0 -41 20 -61 66 -61h14c5 0 6 -7 4 -22l-1 -6c-3 -16 -4 -23 -10 -23z" />
    <glyph glyph-name="braceright.sc" horiz-adv-x="310" 
d="M83 655h18c70 0 116 -34 116 -103c0 -9 -1 -20 -3 -31l-16 -110c-1 -11 -3 -24 -3 -35c0 -36 15 -56 49 -61c6 -1 6 -8 4 -23l-1 -7c-2 -15 -4 -22 -10 -22c-41 -3 -65 -37 -73 -91l-19 -130c-13 -90 -71 -131 -148 -131h-17c-6 0 -9 4 -6 21l2 11c2 12 3 18 9 18h14
c52 0 78 25 86 81l19 127c8 54 30 107 80 120c-34 10 -50 40 -50 79c0 11 1 24 3 36l17 114c1 9 2 18 2 25c0 41 -20 61 -66 61h-14c-5 0 -6 7 -4 22l1 6c3 16 4 23 10 23z" />
    <glyph glyph-name="FI.sc" horiz-adv-x="748" 
d="M118 582h307c6 0 6 -5 4 -22l-1 -8c-2 -17 -5 -24 -11 -24h-242l-30 -207h203c6 0 7 -4 4 -23l-1 -7c-3 -19 -4 -23 -10 -23h-203l-36 -259c-1 -6 -9 -9 -30 -9h-6c-23 0 -29 2 -28 9zM533 582h189c5 0 6 -4 4 -20l-1 -7c-2 -17 -4 -19 -10 -19h-62l-69 -490h62
c6 0 6 -3 4 -20l-1 -7c-2 -17 -4 -19 -10 -19h-189c-5 0 -6 6 -4 19l1 8c2 17 4 19 9 19h63l70 490h-63c-5 0 -6 4 -4 19l1 8c2 16 5 19 10 19z" />
    <glyph glyph-name="FL.sc" horiz-adv-x="856" 
d="M118 582h307c6 0 6 -5 4 -22l-1 -8c-2 -17 -5 -24 -11 -24h-242l-30 -207h203c6 0 7 -4 4 -23l-1 -7c-3 -19 -4 -23 -10 -23h-203l-36 -259c-1 -6 -9 -9 -30 -9h-6c-23 0 -29 2 -28 9zM567 582h7c22 0 30 -3 29 -9l-73 -519h245c7 0 8 -4 6 -22l-1 -9
c-2 -20 -6 -23 -10 -23h-280c-20 0 -29 2 -28 11l77 562c1 7 8 9 28 9z" />
    <glyph glyph-name="zero.slash" 
d="M347 730c116 0 186 -76 186 -243c0 -174 -63 -497 -306 -497c-116 0 -184 80 -184 246c0 175 62 494 304 494zM463 481c0 52 -8 93 -22 124l-273 -535c18 -15 41 -22 68 -22c178 0 227 290 227 433zM339 672c-180 0 -226 -290 -226 -432c0 -51 7 -92 20 -123l273 534
c-18 14 -41 21 -67 21z" />
    <glyph glyph-name="zero" unicode="0" 
d="M339 672c-180 0 -226 -290 -226 -432c0 -125 42 -192 123 -192c178 0 227 290 227 433c0 126 -43 191 -124 191zM347 730c116 0 186 -76 186 -243c0 -174 -63 -497 -306 -497c-116 0 -184 80 -184 246c0 175 62 494 304 494z" />
    <glyph glyph-name="one" unicode="1" horiz-adv-x="563" 
d="M119 54h115l83 593l-167 -95c-7 -4 -11 -2 -18 14l-4 9c-7 16 -7 19 1 24l191 109c15 8 24 12 42 12h13c14 0 20 -2 19 -7l-92 -659h105c7 0 8 -1 5 -24l-1 -7c-3 -21 -5 -23 -12 -23h-288c-7 0 -9 2 -6 23l1 7c3 22 6 24 13 24z" />
    <glyph glyph-name="two" unicode="2" 
d="M38 24l1 6c3 17 4 21 15 32l166 171c78 81 201 203 201 328c0 74 -49 111 -117 111c-57 0 -104 -17 -153 -44c-8 -5 -13 -2 -20 15l-3 7c-7 17 -6 20 2 25c52 31 119 55 186 55c101 0 172 -57 172 -158c0 -143 -121 -262 -223 -367l-146 -147h303c7 0 8 -1 5 -25l-1 -8
c-3 -22 -5 -25 -12 -25h-370c-7 0 -9 4 -6 24z" />
    <glyph glyph-name="three" unicode="3" horiz-adv-x="563" 
d="M205 352h-20c-7 0 -9 3 -6 23l1 6c3 21 5 24 12 24h16c62 0 115 13 152 45c31 28 51 70 51 115c0 28 -8 49 -21 66c-21 29 -57 42 -99 42c-45 0 -95 -14 -134 -30c-12 -5 -14 -1 -19 14l-3 10c-5 16 -4 19 3 23c44 23 110 40 164 40c62 0 113 -20 145 -58
c19 -24 31 -55 31 -96c0 -91 -63 -172 -152 -198c65 -14 129 -61 129 -149c0 -147 -112 -239 -262 -239c-60 0 -121 13 -160 33c-7 4 -6 9 3 27l3 6c10 20 13 22 24 18c37 -16 85 -26 125 -26c60 0 109 14 144 44c38 31 55 81 55 133c0 31 -10 56 -28 75
c-33 36 -86 52 -154 52z" />
    <glyph glyph-name="four" unicode="4" 
d="M49 273l263 438c4 7 5 9 31 9h7c28 0 32 -2 27 -11l-277 -459h241l25 172c1 7 8 9 29 9h7c24 0 31 -2 30 -9l-25 -172h94c8 0 9 -2 5 -27l-1 -6c-4 -24 -6 -24 -12 -24h-94l-26 -184c-1 -7 -9 -9 -32 -9h-7c-23 0 -28 2 -27 9l26 184h-286c-16 0 -21 3 -19 15l2 14
c3 21 10 37 19 51z" />
    <glyph glyph-name="five" unicode="5" 
d="M226 662l-32 -226c21 5 45 8 74 8c71 0 128 -22 163 -63c25 -29 40 -69 40 -118c0 -148 -104 -273 -278 -273c-59 0 -124 17 -148 31c-8 4 -9 8 1 25l6 10c9 15 11 20 22 16c34 -14 76 -24 119 -24c60 0 110 17 142 44c45 38 69 105 69 167c0 34 -9 62 -26 83
c-25 32 -70 48 -130 48c-46 0 -88 -7 -129 -18l49 348h338c6 0 7 -2 4 -25l-1 -8c-3 -22 -5 -25 -11 -25h-272z" />
    <glyph glyph-name="six" unicode="6" 
d="M492 657c-28 11 -57 17 -91 17c-130 0 -208 -135 -250 -282c49 31 109 53 169 53c120 0 177 -74 177 -178c0 -144 -92 -277 -250 -277c-131 0 -189 85 -189 224c0 215 114 516 351 516c48 0 85 -10 113 -25c5 -3 6 -7 -3 -24l-5 -10c-8 -16 -12 -18 -22 -14zM138 336
c-6 -38 -9 -76 -9 -116c0 -115 37 -174 127 -174c108 0 173 104 173 211c0 70 -29 133 -125 133c-58 0 -119 -26 -166 -54z" />
    <glyph glyph-name="seven" unicode="7" 
d="M531 641l-343 -630c-5 -8 -10 -11 -35 -11h-8c-26 0 -29 4 -24 13l358 649h-342c-7 0 -8 5 -5 26l1 8c3 22 5 24 12 24h384c18 0 22 -2 21 -9l-5 -31c-2 -14 -6 -24 -14 -39z" />
    <glyph glyph-name="eight" unicode="8" 
d="M515 582c0 -96 -84 -155 -169 -194c73 -39 144 -81 144 -168c0 -132 -118 -230 -260 -230c-109 0 -194 56 -193 164c0 107 84 190 186 228c-65 41 -101 80 -101 149c0 113 102 199 223 199c95 0 170 -58 170 -148zM241 46c92 0 182 61 182 160c0 78 -77 112 -154 151
c-78 -28 -164 -94 -164 -193c0 -79 57 -118 136 -118zM335 675c-71 0 -145 -54 -145 -137c0 -60 48 -91 110 -126c62 27 148 82 148 165c0 57 -44 98 -113 98z" />
    <glyph glyph-name="nine" unicode="9" 
d="M78 70c31 -15 68 -24 105 -24c54 0 91 14 127 46c53 47 88 126 114 236c-47 -30 -109 -53 -169 -53c-120 0 -178 77 -178 181c0 139 92 274 248 274c131 0 191 -92 191 -231c0 -143 -48 -344 -165 -446c-47 -40 -99 -63 -171 -63c-47 0 -100 13 -130 31c-6 4 -6 7 3 25
l5 10c8 17 10 19 20 14zM437 384c6 42 9 79 9 112c0 116 -39 178 -129 178c-111 0 -171 -108 -171 -214c0 -70 29 -130 125 -130c58 0 119 26 166 54z" />
    <glyph glyph-name="dollar" unicode="$" 
d="M45 47c-7 5 -6 9 7 27l5 7c12 16 16 20 23 16c47 -34 100 -50 149 -50c83 0 183 53 183 153c0 71 -69 106 -139 146c-76 43 -138 94 -138 185c0 115 98 189 216 198l11 84c1 7 6 8 24 8h3c18 0 24 -1 23 -8l-12 -86c45 -7 88 -23 118 -46c7 -5 4 -10 -7 -26l-4 -5
c-11 -18 -15 -20 -22 -16c-36 22 -77 39 -126 39c-81 0 -156 -49 -156 -138c0 -65 58 -100 120 -136c76 -42 158 -87 157 -186c0 -120 -96 -204 -221 -221l-12 -82c-1 -7 -8 -8 -26 -8h-3c-18 0 -22 1 -21 8l12 81c-69 3 -131 26 -164 56z" />
    <glyph glyph-name="cent" unicode="&#xa2;" 
d="M432 194c9 4 11 1 16 -16l3 -9c6 -18 6 -19 -2 -24c-41 -23 -88 -37 -142 -40l-14 -97c-1 -7 -7 -8 -25 -8h-3c-20 0 -23 1 -22 8l14 98c-119 13 -168 104 -168 211c0 139 88 283 251 305l14 100c1 7 5 8 23 8h3c20 0 25 -1 24 -8l-14 -100c48 -3 94 -21 126 -46
c7 -5 7 -8 -6 -26l-5 -7c-14 -20 -18 -19 -25 -13c-37 28 -75 36 -119 36c-122 0 -202 -111 -202 -245c0 -96 38 -158 139 -158c51 0 93 11 134 31z" />
    <glyph glyph-name="Euro" unicode="&#x20ac;" 
d="M428 413h-240c-9 -35 -14 -68 -16 -105h227c7 0 9 -4 5 -22l-1 -5c-4 -19 -5 -20 -10 -20h-221c3 -138 58 -212 170 -212c46 0 89 10 133 29c9 4 11 2 16 -16l3 -10c4 -16 4 -21 -5 -25c-48 -23 -99 -37 -157 -37c-83 0 -133 26 -170 69c-40 47 -61 118 -62 202h-80
c-7 0 -9 4 -5 22l1 5c4 19 5 20 10 20h76c2 33 8 68 16 105h-63c-7 0 -9 4 -5 22l1 5c4 19 5 20 10 20h69c54 179 170 270 304 270c61 0 110 -17 149 -43c6 -4 5 -9 -4 -25l-6 -11c-9 -17 -13 -18 -20 -14c-42 22 -82 34 -122 34c-116 0 -191 -82 -230 -211h233
c7 0 9 -4 5 -22l-1 -5c-4 -19 -5 -20 -10 -20z" />
    <glyph glyph-name="florin" unicode="&#x192;" 
d="M472 385h-136l-68 -258c-47 -180 -117 -242 -227 -242c-28 0 -53 6 -67 14c-6 4 -4 7 2 22l4 10c7 18 11 20 18 18c15 -4 31 -7 49 -7c82 0 120 50 153 176l70 267h-105c-7 0 -8 2 -5 22l1 6c3 19 4 21 11 21h111l16 63c45 178 112 242 227 242c28 0 54 -6 68 -14
c7 -4 4 -9 -2 -24l-4 -10c-8 -16 -11 -18 -19 -16c-15 4 -33 7 -49 7c-82 0 -118 -46 -152 -176l-19 -72h130c7 0 8 -2 5 -22l-1 -6c-3 -19 -4 -21 -11 -21z" />
    <glyph glyph-name="sterling" unicode="&#xa3;" horiz-adv-x="563" 
d="M433 351h-191l-14 -98c-16 -109 -42 -150 -102 -194h347c5 0 6 -2 3 -26l-1 -7c-3 -24 -5 -26 -10 -26h-421c-7 0 -9 4 -5 27l1 6c3 19 6 25 11 29c70 47 96 101 108 181l15 108h-88c-7 0 -7 4 -4 22l1 6c3 19 3 21 10 21h88l14 102c20 150 88 237 232 237
c47 0 95 -13 130 -35c6 -4 5 -8 -5 -25l-6 -10c-10 -17 -14 -16 -22 -12c-28 16 -63 26 -101 26c-100 0 -145 -68 -160 -179l-14 -104h191c6 0 7 -1 4 -22l-1 -6c-3 -20 -5 -21 -10 -21z" />
    <glyph glyph-name="yen" unicode="&#xa5;" 
d="M372 381h96c5 0 6 -2 3 -24l-1 -7c-3 -19 -5 -20 -9 -20h-119l-32 -52l-5 -39h143c5 0 6 -2 3 -24l-1 -7c-3 -19 -5 -20 -10 -20h-142l-26 -179c-1 -7 -10 -9 -32 -9h-8c-20 0 -28 2 -27 9l26 179h-144c-5 0 -6 3 -3 24l1 7c3 19 5 20 10 20h143l5 39l-17 52h-119
c-5 0 -6 3 -3 24l1 7c3 19 5 20 10 20h95l-103 327c-2 8 2 12 30 12h8c27 0 32 -2 35 -11l112 -369l214 371c5 8 9 9 31 9h9c24 0 30 -4 25 -12z" />
    <glyph glyph-name="numbersign" unicode="#" 
d="M253 0c-15 0 -16 3 -14 10l70 205h-154l-70 -205c-4 -8 -8 -10 -20 -10h-13c-15 0 -16 3 -14 10l70 205h-88c-7 0 -8 3 -6 18l1 6c3 15 4 16 11 16h95l77 215h-97c-7 0 -8 3 -6 17l1 7c2 15 4 16 11 16h105l69 200c3 8 7 10 20 10h12c15 0 17 -3 15 -10l-69 -200h154
l69 200c3 8 7 10 20 10h11c15 0 17 -3 15 -10l-69 -200h97c7 0 8 -2 6 -17l-1 -7c-2 -14 -4 -16 -11 -16h-105l-75 -215h105c7 0 10 -1 7 -17l-1 -6c-3 -15 -5 -17 -12 -17h-114l-70 -205c-4 -8 -8 -10 -21 -10h-11zM245 470l-76 -215h154l76 215h-154z" />
    <glyph glyph-name="percent" unicode="%" horiz-adv-x="868" 
d="M262 683c-94 0 -125 -124 -125 -204c0 -70 26 -106 77 -106c95 0 124 126 124 204c0 70 -27 106 -76 106zM270 730c82 0 131 -50 131 -148c0 -112 -57 -257 -197 -257c-81 0 -130 51 -130 149c0 113 56 256 196 256zM193 -5l439 731c5 8 7 11 29 11h9c20 0 26 -2 19 -13
l-441 -731c-5 -8 -9 -11 -29 -11h-9c-20 0 -23 3 -17 13zM668 348c-94 0 -125 -124 -125 -204c0 -70 26 -106 77 -106c95 0 124 126 124 204c0 70 -27 106 -76 106zM676 395c82 0 131 -50 131 -148c0 -112 -57 -257 -197 -257c-81 0 -130 51 -130 149c0 113 56 256 196 256z
" />
    <glyph glyph-name="perthousand" unicode="&#x2030;" horiz-adv-x="1244" 
d="M262 683c-94 0 -125 -124 -125 -204c0 -70 26 -106 77 -106c95 0 124 126 124 204c0 70 -27 106 -76 106zM270 730c82 0 131 -50 131 -148c0 -112 -57 -257 -197 -257c-81 0 -130 51 -130 149c0 113 56 256 196 256zM193 -5l439 731c5 8 7 11 29 11h9c20 0 26 -2 19 -13
l-441 -731c-5 -8 -9 -11 -29 -11h-9c-20 0 -23 3 -17 13zM668 348c-94 0 -125 -124 -125 -204c0 -70 26 -106 77 -106c95 0 124 126 124 204c0 70 -27 106 -76 106zM676 395c82 0 131 -50 131 -148c0 -112 -57 -257 -197 -257c-81 0 -130 51 -130 149c0 113 56 256 196 256z
M1045 348c-94 0 -125 -124 -125 -204c0 -70 26 -106 77 -106c95 0 124 126 124 204c0 70 -27 106 -76 106zM1053 395c82 0 131 -50 131 -148c0 -112 -57 -257 -197 -257c-81 0 -130 51 -130 149c0 113 56 256 196 256z" />
    <glyph glyph-name="plus" unicode="+" 
d="M231 126l30 215h-209c-7 0 -9 4 -5 22l1 5c4 19 5 20 10 20h209l31 214c1 7 5 8 22 8h3c16 0 23 -1 22 -8l-31 -214h210c8 0 9 -3 5 -21l-1 -5c-4 -18 -5 -21 -12 -21h-208l-30 -215c-1 -7 -8 -8 -24 -8h-3c-17 0 -21 1 -20 8z" />
    <glyph glyph-name="minus" unicode="&#x2212;" 
d="M515 341h-463c-8 0 -9 4 -5 22l1 5c4 19 5 20 10 20h466c8 0 9 -3 5 -21l-1 -5c-4 -18 -6 -21 -13 -21z" />
    <glyph glyph-name="multiply" unicode="&#xd7;" 
d="M409 180l-127 151l-169 -152c-6 -5 -9 -3 -19 9l-4 5c-10 13 -10 15 -4 20l169 151l-127 151c-4 5 -4 8 10 20l5 4c16 13 19 13 24 8l125 -150l168 150c6 5 9 5 20 -7l4 -4c10 -11 11 -15 6 -20l-170 -152l127 -151c4 -5 2 -8 -11 -21l-4 -4c-15 -15 -18 -14 -23 -8z" />
    <glyph glyph-name="less" unicode="&#x3c;" 
d="M48 366l1 8c2 17 5 21 13 25l475 251c8 4 10 3 17 -13l3 -7c7 -15 7 -19 0 -23l-449 -237l382 -237c7 -4 5 -8 -6 -23l-5 -7c-11 -15 -13 -17 -21 -13l-405 251c-6 4 -7 8 -5 25z" />
    <glyph glyph-name="divide" unicode="&#xf7;" 
d="M516 341h-464c-7 0 -9 4 -5 22l1 5c4 19 5 20 10 20h466c8 0 9 -3 5 -21l-1 -5c-4 -18 -5 -21 -12 -21zM276 212c23 0 42 -19 42 -44c0 -31 -25 -57 -56 -57c-23 0 -42 19 -42 44c0 29 24 57 56 57zM333 619c23 0 42 -19 42 -44c0 -31 -25 -57 -56 -57
c-23 0 -42 19 -42 44c0 29 24 57 56 57z" />
    <glyph glyph-name="equal" unicode="=" 
d="M530 442h-464c-7 0 -9 4 -5 22l1 5c4 19 5 20 10 20h466c8 0 9 -3 5 -21l-1 -5c-4 -18 -5 -21 -12 -21zM502 239h-464c-7 0 -9 4 -5 22l1 5c4 19 5 20 10 20h466c8 0 9 -3 5 -21l-1 -5c-4 -18 -5 -21 -12 -21z" />
    <glyph glyph-name="logicalnot" unicode="&#xac;" 
d="M494 442h-428c-7 0 -9 4 -5 22l1 5c4 19 5 20 10 20h475l-34 -241c-1 -7 -6 -8 -23 -8h-3c-17 0 -21 1 -20 8z" />
    <glyph glyph-name="greater" unicode="&#x3e;" 
d="M529 374l-1 -8c-2 -17 -5 -21 -13 -25l-475 -251c-8 -4 -10 -3 -17 13l-3 7c-7 15 -7 19 0 23l449 237l-382 237c-7 4 -5 8 6 23l5 7c11 15 13 18 21 13l405 -251c6 -4 7 -8 5 -25z" />
    <glyph glyph-name="notequal" unicode="&#x2260;" 
d="M501 239h-274l-64 -94c-4 -6 -8 -8 -24 -8h-6c-16 0 -19 3 -15 8l64 94h-147c-6 0 -7 2 -3 22l1 5c4 19 6 20 12 20h167l106 156h-255c-6 0 -7 2 -3 22l1 5c4 19 6 20 12 20h277l63 94c4 6 6 7 22 7h8c15 0 17 -3 15 -7l-63 -94h144c6 0 7 -2 3 -22l-1 -5
c-4 -19 -6 -20 -12 -20h-166l-106 -156h254c6 0 7 -2 3 -22l-1 -5c-4 -19 -6 -20 -12 -20z" />
    <glyph glyph-name="approxequal" unicode="&#x2248;" 
d="M413 447c46 0 75 27 98 78c2 5 4 7 17 2l8 -3c13 -5 15 -5 13 -12c-27 -76 -81 -115 -142 -115c-53 0 -87 24 -118 47c-28 21 -55 40 -93 40c-43 0 -78 -28 -101 -77c-3 -6 -7 -7 -21 -2l-6 2c-12 4 -15 5 -12 12c32 74 83 115 146 115c51 0 83 -25 115 -48
c28 -20 57 -39 96 -39zM384 243c46 0 75 27 98 78c2 5 4 7 17 2l8 -3c13 -5 15 -5 13 -12c-27 -76 -81 -115 -142 -115c-53 0 -87 24 -118 47c-28 21 -55 40 -93 40c-43 0 -78 -28 -101 -77c-3 -6 -7 -7 -21 -2l-6 2c-12 4 -15 5 -12 12c32 74 83 115 146 115
c51 0 83 -25 115 -48c28 -20 57 -39 96 -39z" />
    <glyph glyph-name="plusminus" unicode="&#xb1;" 
d="M530 421h-210l-30 -215c-1 -7 -5 -8 -23 -8h-3c-19 0 -22 1 -21 8l30 215h-209c-5 0 -7 3 -4 22l1 6c3 18 5 19 10 19h209l30 214c1 7 4 8 23 8h3c19 0 22 -1 21 -8l-30 -214h210c5 0 7 -3 4 -22l-1 -6c-3 -18 -5 -19 -10 -19zM471 0h-467c-5 0 -7 3 -4 22l1 6
c3 18 5 19 10 19h467c5 0 7 -3 4 -22l-1 -6c-3 -18 -5 -19 -10 -19z" />
    <glyph glyph-name="lessequal" unicode="&#x2264;" 
d="M58 440l1 8c2 16 5 21 12 25l476 251c8 4 10 3 17 -14l3 -7c6 -15 7 -18 0 -22l-450 -240l383 -234c7 -4 5 -8 -6 -23l-5 -7c-11 -15 -14 -17 -21 -13l-405 251c-6 4 -7 9 -5 25zM471 0h-467c-5 0 -7 3 -4 22l1 6c3 18 5 19 10 19h467c5 0 7 -3 4 -22l-1 -6
c-3 -18 -5 -19 -10 -19z" />
    <glyph glyph-name="greaterequal" unicode="&#x2265;" 
d="M541 448l-1 -8c-2 -16 -5 -21 -13 -25l-475 -251c-9 -4 -12 -1 -17 13l-3 7c-6 14 -7 19 0 23l449 240l-382 234c-7 4 -4 9 6 23l5 7c9 14 13 17 21 13l404 -251c7 -4 8 -9 6 -25zM471 0h-467c-5 0 -7 3 -4 22l1 6c3 18 5 19 10 19h467c5 0 7 -3 4 -22l-1 -6
c-3 -18 -5 -19 -10 -19z" />
    <glyph glyph-name="asciicircum" unicode="^" 
d="M320 668l-190 -325c-4 -6 -10 -9 -32 -9h-9c-25 0 -27 3 -22 11l226 375c5 8 8 10 32 10h4c23 0 27 -2 30 -10l122 -375c2 -8 -1 -11 -26 -11h-9c-24 0 -28 3 -30 9z" />
    <glyph glyph-name="asciitilde" unicode="~" 
d="M407 365c55 0 86 31 112 85c2 6 5 7 21 2l7 -2c13 -4 18 -6 15 -13c-32 -84 -92 -127 -164 -127c-105 0 -137 96 -226 96c-54 0 -86 -31 -111 -85c-2 -6 -6 -7 -23 -2l-7 2c-12 3 -17 6 -14 13c36 87 92 127 164 127c105 0 138 -96 226 -96z" />
    <glyph glyph-name="lozenge" unicode="&#x25ca;" horiz-adv-x="535" 
d="M231 58l216 307l-130 307l-216 -307zM494 325l-244 -340c-4 -5 -7 -7 -25 -7h-12c-17 0 -19 2 -21 7l-148 340c-4 9 -6 19 -4 34l2 14c2 15 6 22 13 32l244 340c3 5 6 7 23 7h12c17 0 20 -2 23 -7l148 -340c4 -9 6 -19 4 -34l-2 -14c-2 -15 -6 -22 -13 -32z" />
    <glyph glyph-name="degree" unicode="&#xb0;" horiz-adv-x="349" 
d="M214 691c-65 0 -108 -56 -108 -121c0 -48 26 -73 74 -73c67 0 109 55 109 120c0 48 -25 74 -75 74zM61 566c0 87 61 164 159 164c70 0 116 -39 115 -112c0 -86 -64 -161 -160 -161c-70 0 -114 40 -114 109z" />
    <glyph glyph-name="quotesingle" unicode="'" horiz-adv-x="247" 
d="M131 449h-7c-20 0 -22 2 -21 7l26 254c1 8 7 10 30 10h13c23 0 27 -2 26 -10l-44 -254c-1 -5 -3 -7 -23 -7z" />
    <glyph glyph-name="quotedbl" unicode="&#x22;" horiz-adv-x="420" 
d="M132 449h-7c-20 0 -23 2 -22 7l26 254c1 8 7 10 31 10h13c23 0 27 -2 26 -10l-44 -254c-1 -5 -4 -7 -23 -7zM303 449h-7c-19 0 -22 2 -21 7l26 254c1 8 7 10 30 10h13c24 0 28 -2 27 -10l-44 -254c-1 -5 -4 -7 -24 -7z" />
    <glyph glyph-name="radical" unicode="&#x221a;" horiz-adv-x="631" 
d="M145 427h-69c-7 0 -8 3 -4 26l1 6c4 24 5 25 11 25h111c8 0 11 -5 14 -24l87 -460l365 811c4 8 8 11 34 11h4c26 0 31 -3 26 -13l-404 -880c-3 -7 -7 -9 -30 -9h-12c-27 0 -31 2 -32 9z" />
    <glyph glyph-name="currency" unicode="&#xa4;" 
d="M467 409c0 -75 -26 -154 -78 -205l51 -112c4 -9 0 -12 -30 -12c-27 0 -33 3 -37 12l-35 76c-24 -12 -51 -18 -82 -18c-34 0 -63 7 -86 21l-58 -79c-7 -9 -13 -12 -40 -12c-32 1 -35 4 -29 12l87 118c-17 26 -26 59 -26 99c0 74 26 154 78 205l-51 112c-4 9 0 12 30 12
c27 0 33 -3 37 -12l34 -77c24 12 52 19 83 19c34 0 63 -8 86 -22l58 80c7 9 13 12 40 12c32 -1 35 -4 29 -12l-88 -118c18 -26 27 -60 27 -99zM165 316c0 -61 26 -113 95 -113c98 0 146 110 146 199c0 61 -26 113 -95 113c-98 0 -146 -110 -146 -199z" />
    <glyph glyph-name="infinity" unicode="&#x221e;" horiz-adv-x="807" 
d="M376 328c-34 60 -73 107 -138 107c-68 0 -125 -50 -125 -122c0 -52 39 -88 99 -88c62 0 113 43 164 103zM402 293c-64 -80 -123 -117 -200 -117c-81 0 -145 47 -145 129c0 98 78 179 188 179c77 0 126 -37 168 -117c64 80 123 117 200 117c82 0 147 -48 146 -132
c0 -97 -74 -176 -185 -176c-78 0 -130 39 -172 117zM439 332c35 -60 73 -107 139 -107c67 0 125 47 125 120c0 53 -38 90 -97 90c-65 0 -116 -43 -167 -103z" />
    <glyph glyph-name="uni00B5" unicode="&#xb5;" horiz-adv-x="566" 
d="M408 72c-41 -51 -92 -82 -172 -82c-54 0 -100 22 -120 55l-12 -88c-7 -54 -13 -117 -16 -178c0 -9 -8 -12 -31 -12h-6c-26 0 -31 2 -30 10c5 57 11 111 19 170l80 571c1 7 5 10 28 10h8c23 0 28 -3 27 -10l-37 -263c-5 -39 -9 -69 -9 -95c0 -28 4 -50 15 -66
c17 -26 51 -41 97 -41c49 0 89 12 122 43c24 22 37 46 47 91c7 29 14 74 22 135l28 196c1 7 5 10 28 10h8c23 0 28 -3 27 -10l-56 -399c-2 -15 -4 -29 -4 -38c0 -26 8 -31 36 -31c6 0 7 -1 4 -21l-1 -7c-2 -16 -3 -18 -9 -20s-17 -4 -33 -4c-39 0 -61 19 -61 55
c0 7 0 12 1 19z" />
    <glyph glyph-name="partialdiff" unicode="&#x2202;" horiz-adv-x="540" 
d="M161 656c-8 -3 -12 0 -17 16l-3 10c-5 16 -4 18 3 22c33 16 74 26 122 26c165 0 230 -159 230 -329c0 -34 -2 -68 -7 -101c-26 -189 -113 -310 -269 -310c-120 0 -186 80 -186 190c0 137 91 265 241 265c60 0 114 -22 153 -53c0 147 -40 282 -170 282
c-35 0 -69 -7 -97 -18zM425 336c-39 28 -92 54 -150 54c-113 0 -173 -104 -173 -212c0 -80 43 -132 125 -132c116 0 182 112 198 290z" />
    <glyph glyph-name="summation" unicode="&#x2211;" horiz-adv-x="556" 
d="M479 -167h-488c-18 0 -21 4 -20 12l2 15c2 14 7 20 23 37l365 389l-254 367c-11 16 -14 27 -12 41l2 16c1 8 5 10 23 10h484c7 0 9 -2 6 -25l-1 -7c-3 -23 -6 -25 -13 -25h-415l239 -345c4 -6 4 -11 2 -26l-2 -11c-3 -17 -4 -22 -10 -28l-346 -363h423c7 0 9 -2 6 -25
l-1 -7c-3 -24 -6 -25 -13 -25z" />
    <glyph glyph-name="product" unicode="&#x220f;" horiz-adv-x="684" 
d="M700 663h-91l-115 -821c-1 -7 -8 -9 -32 -9h-9c-23 0 -28 2 -27 9l115 821h-289l-115 -821c-1 -7 -8 -9 -32 -9h-9c-23 0 -28 2 -27 9l115 821h-91c-7 0 -9 5 -5 27l1 6c4 22 5 24 12 24h607c7 0 9 -3 5 -27l-1 -6c-4 -22 -5 -24 -12 -24z" />
    <glyph glyph-name="integral" unicode="&#x222b;" horiz-adv-x="356" 
d="M28 -89c113 0 127 102 127 224c0 104 -22 200 -22 307c0 160 36 288 203 288c18 0 37 -3 51 -7c7 -2 8 -8 3 -23l-4 -13c-6 -20 -8 -22 -17 -20c-13 3 -26 5 -38 5c-113 0 -127 -105 -127 -224c0 -104 22 -200 22 -307c0 -153 -36 -288 -203 -288c-19 0 -37 3 -51 7
c-8 2 -7 8 -1 27l3 9c7 20 9 21 16 20c13 -3 27 -5 38 -5z" />
    <glyph glyph-name="Ohm" unicode="&#x2126;" horiz-adv-x="722" 
d="M631 0h-246c-7 0 -7 3 -5 21l1 10c2 18 6 20 13 23c147 71 206 221 206 389c0 166 -76 228 -175 228c-190 0 -269 -213 -269 -387c0 -116 46 -186 118 -231c7 -4 10 -6 7 -24l-1 -8c-3 -18 -4 -21 -11 -21h-246c-7 0 -8 4 -5 23l1 7c3 20 4 21 11 21h162
c-62 49 -106 118 -106 237c0 202 105 442 346 442c146 0 238 -101 238 -282c0 -170 -59 -322 -194 -397h162c7 0 8 -4 5 -23l-1 -7c-3 -20 -4 -21 -11 -21z" />
    <glyph glyph-name="increment" unicode="&#x2206;" horiz-adv-x="597" 
d="M72 57h392l-111 597zM499 0h-478c-19 0 -23 3 -22 12l3 25c2 17 7 28 18 51l294 619c5 11 9 13 39 13h16c30 0 34 -2 36 -13l121 -619c4 -21 4 -34 2 -51l-3 -26c-1 -8 -7 -11 -26 -11z" />
    <glyph glyph-name="litre" unicode="&#x2113;" horiz-adv-x="240" 
d="M152 460l-48 -348c-2 -12 -3 -23 -3 -31c0 -21 7 -30 27 -30c9 0 16 1 22 2c5 1 7 -1 7 -18v-7c0 -15 -1 -18 -9 -21c-12 -4 -29 -7 -44 -7c-47 0 -68 26 -68 66c0 17 2 38 6 66l50 351c16 117 25 190 33 268c1 7 4 9 28 9h8c22 0 29 -2 28 -9c-5 -63 -21 -177 -37 -291z
" />
    <glyph glyph-name="estimated" unicode="&#x212e;" horiz-adv-x="922" 
d="M872 352h-666c-4 0 -5 -1 -5 -6v-202c0 -8 3 -16 9 -24c64 -64 154 -108 253 -108c106 0 201 47 264 122h60c-75 -87 -193 -144 -325 -144c-227 0 -412 166 -412 370c0 205 185 370 412 370c226 0 410 -165 410 -370v-8zM721 377v203c0 9 -4 18 -10 25
c-64 63 -152 103 -248 103c-99 0 -187 -42 -252 -106c-7 -7 -10 -17 -10 -26v-199c0 -3 1 -6 5 -6h510c4 0 5 3 5 6z" />
    <glyph glyph-name="numero" unicode="&#x2116;" horiz-adv-x="1043" 
d="M1029 509c0 -123 -71 -259 -211 -259c-98 0 -152 62 -152 159c0 123 72 259 211 259c97 0 152 -62 152 -159zM968 502c0 61 -26 113 -95 113c-98 0 -146 -110 -146 -199c0 -61 26 -113 95 -113c98 0 146 110 146 199zM463 10l-280 615l-87 -616c-1 -7 -7 -9 -29 -9h-6
c-22 0 -27 2 -26 9l99 702c1 7 8 9 36 9h6c28 0 34 -2 38 -10l280 -615l86 616c1 7 6 9 28 9h6c22 0 28 -2 27 -9l-99 -702c-1 -7 -10 -9 -35 -9h-6c-31 0 -35 2 -38 10z" />
    <glyph glyph-name="zero.otab" 
d="M314 535c-152 0 -205 -180 -205 -314c0 -106 44 -174 138 -174c150 0 207 184 207 313c0 106 -49 175 -140 175zM236 -10c-114 0 -197 78 -197 228c0 172 79 374 288 374c114 0 197 -78 197 -228c0 -174 -76 -374 -288 -374z" />
    <glyph glyph-name="one.otab" horiz-adv-x="563" 
d="M409 0h-288c-7 0 -9 3 -7 21l1 10c2 19 5 22 12 22h115l68 453l-164 -73c-7 -3 -12 1 -19 15l-5 10c-7 13 -7 21 1 24l188 89c14 6 24 11 42 11h13c14 0 20 -2 19 -8l-75 -521h105c7 0 8 -4 6 -21l-1 -10c-2 -17 -4 -22 -11 -22z" />
    <glyph glyph-name="two.otab" 
d="M424 0h-370c-7 0 -9 6 -7 25l1 11c2 16 3 26 14 35l160 136c136 115 194 154 194 234c0 60 -50 93 -120 93c-57 0 -104 -14 -152 -34c-8 -3 -13 -1 -20 14l-4 9c-6 14 -6 19 2 23c51 26 117 46 184 46c104 0 177 -51 177 -140c0 -103 -85 -175 -214 -279l-142 -115h303
c7 0 8 -6 6 -25l-1 -8c-2 -18 -4 -25 -11 -25z" />
    <glyph glyph-name="three.otab" horiz-adv-x="563" 
d="M185 212h-20c-7 0 -9 3 -6 23l1 6c3 21 5 24 12 24h16c62 0 115 13 152 45c31 28 51 70 51 115c0 28 -8 49 -21 66c-21 29 -57 42 -99 42c-45 0 -95 -14 -134 -30c-12 -5 -14 -1 -19 14l-3 10c-5 16 -4 19 3 23c44 23 110 40 164 40c62 0 113 -20 145 -58
c19 -24 31 -55 31 -96c0 -91 -63 -172 -152 -198c65 -14 129 -61 129 -149c0 -147 -112 -239 -262 -239c-60 0 -121 13 -160 33c-7 4 -6 9 3 27l3 6c10 20 13 22 24 18c37 -16 85 -26 125 -26c60 0 109 14 144 44c38 31 55 81 55 133c0 31 -10 56 -28 75
c-33 36 -86 52 -154 52z" />
    <glyph glyph-name="four.otab" 
d="M49 133l263 438c4 7 5 9 31 9h7c28 0 32 -2 27 -11l-277 -459h241l25 172c1 7 8 9 29 9h7c24 0 31 -2 30 -9l-25 -172h94c8 0 9 -2 5 -27l-1 -6c-4 -24 -6 -24 -12 -24h-94l-26 -184c-1 -7 -9 -9 -32 -9h-7c-23 0 -28 2 -27 9l26 184h-286c-16 0 -21 3 -19 15l2 14
c3 21 10 37 19 51z" />
    <glyph glyph-name="five.otab" 
d="M216 522l-32 -226c21 5 45 8 74 8c71 0 128 -22 163 -63c25 -29 40 -69 40 -118c0 -148 -104 -273 -278 -273c-59 0 -124 17 -148 31c-8 4 -9 8 1 25l6 10c9 15 11 20 22 16c34 -14 76 -24 119 -24c60 0 110 17 142 44c45 38 69 105 69 167c0 34 -9 62 -26 83
c-25 32 -70 48 -130 48c-46 0 -88 -7 -129 -18l49 348h338c6 0 7 -2 4 -25l-1 -8c-3 -22 -5 -25 -11 -25h-272z" />
    <glyph glyph-name="six.otab" 
d="M492 657c-28 11 -57 17 -91 17c-130 0 -208 -135 -250 -282c49 31 109 53 169 53c120 0 177 -74 177 -178c0 -144 -92 -277 -250 -277c-131 0 -189 85 -189 224c0 215 114 516 351 516c48 0 85 -10 113 -25c5 -3 6 -7 -3 -24l-5 -10c-8 -16 -12 -18 -22 -14zM138 336
c-6 -38 -9 -76 -9 -116c0 -115 37 -174 127 -174c108 0 173 104 173 211c0 70 -29 133 -125 133c-58 0 -119 -26 -166 -54z" />
    <glyph glyph-name="seven.otab" 
d="M491 501l-343 -630c-5 -8 -10 -11 -35 -11h-8c-26 0 -29 4 -24 13l358 649h-342c-7 0 -8 5 -5 26l1 8c3 22 5 24 12 24h384c18 0 22 -2 21 -9l-5 -31c-2 -14 -6 -24 -14 -39z" />
    <glyph glyph-name="eight.otab" 
d="M520 582c0 -96 -84 -155 -169 -194c73 -39 144 -81 144 -168c0 -132 -118 -230 -260 -230c-109 0 -194 56 -193 164c0 107 84 190 186 228c-65 41 -101 80 -101 149c0 113 102 199 223 199c95 0 170 -58 170 -148zM246 46c92 0 182 61 182 160c0 78 -77 112 -154 151
c-78 -28 -164 -94 -164 -193c0 -79 57 -118 136 -118zM340 675c-71 0 -145 -54 -145 -137c0 -60 48 -91 110 -126c62 27 148 82 148 165c0 57 -44 98 -113 98z" />
    <glyph glyph-name="nine.otab" 
d="M58 -70c31 -15 68 -24 105 -24c54 0 91 14 127 46c53 47 88 126 114 236c-47 -30 -109 -53 -169 -53c-120 0 -178 77 -178 181c0 139 92 274 248 274c131 0 191 -92 191 -231c0 -143 -48 -344 -165 -446c-47 -40 -99 -63 -171 -63c-47 0 -100 13 -130 31c-6 4 -6 7 3 25
l5 10c8 17 10 19 20 14zM417 244c6 42 9 79 9 112c0 116 -39 178 -129 178c-111 0 -171 -108 -171 -214c0 -70 29 -130 125 -130c58 0 119 26 166 54z" />
    <glyph glyph-name="dollar.otab" 
d="M219 -71h-5c-17 0 -22 2 -21 8l10 68c-56 4 -106 19 -135 43c-6 5 -5 10 7 27l4 6c11 17 17 18 22 15c39 -25 86 -38 126 -38c67 0 144 27 144 108c0 55 -55 81 -112 110c-63 32 -118 68 -118 143c0 102 79 151 177 159l9 65c1 6 6 8 23 8h5c17 0 23 -2 22 -8l-9 -66
c35 -5 70 -17 96 -35c6 -4 4 -9 -6 -23l-4 -6c-10 -16 -14 -19 -20 -15c-28 16 -63 28 -103 28c-65 0 -125 -24 -125 -98c0 -47 46 -73 96 -99c63 -34 134 -68 134 -151c0 -107 -78 -161 -183 -173l-10 -68c-1 -6 -7 -8 -24 -8z" />
    <glyph glyph-name="cent.otab" 
d="M262 0h-5c-18 0 -22 2 -21 8l11 77c-101 12 -144 82 -144 170c0 112 73 230 211 246l11 73c1 6 6 8 23 8h5c18 0 23 -2 22 -8l-11 -73c41 -4 80 -18 107 -38c6 -4 6 -9 -6 -26l-5 -8c-10 -16 -16 -15 -22 -11c-32 21 -65 30 -102 30c-104 0 -167 -88 -167 -185
c0 -71 32 -123 118 -123c41 0 77 8 112 23c8 3 10 0 15 -14l3 -9c6 -17 5 -20 -2 -24c-35 -18 -75 -29 -118 -32l-11 -76c-1 -6 -7 -8 -24 -8z" />
    <glyph glyph-name="Euro.otab" horiz-adv-x="561" 
d="M452 56l3 -9c5 -15 3 -22 -4 -25c-43 -21 -88 -32 -139 -32c-71 0 -116 23 -149 59c-34 37 -52 92 -54 158h-67c-6 0 -7 4 -5 19l1 7c2 15 4 19 9 19h63c1 24 6 49 11 74h-51c-6 0 -7 5 -4 21l1 6c3 15 4 19 9 19h56c43 131 137 220 262 220c54 0 99 -13 134 -37
c5 -3 3 -9 -4 -23l-5 -10c-8 -16 -14 -18 -20 -15c-37 19 -71 29 -107 29c-98 0 -161 -70 -192 -164h202c6 0 7 -5 5 -19l-1 -7c-2 -16 -4 -20 -9 -20h-209c-6 -25 -10 -48 -11 -74h197c6 0 7 -5 4 -20l-1 -6c-3 -16 -4 -19 -9 -19h-190c5 -97 50 -160 146 -160
c39 0 76 8 113 24c7 3 10 1 15 -15z" />
    <glyph glyph-name="florin.otab" 
d="M428 304h-116l-54 -194c-37 -134 -93 -201 -191 -201c-27 0 -51 5 -65 13c-5 3 -3 10 2 22l4 9c7 15 11 20 17 18c14 -4 29 -8 46 -8c66 0 96 44 122 139l56 202h-89c-6 0 -6 4 -4 21l1 8c2 16 4 19 10 19h94l13 46c34 121 89 194 192 194c25 0 48 -6 62 -13
c6 -3 4 -8 -2 -23l-3 -8c-7 -17 -11 -20 -17 -18c-13 4 -30 7 -45 7c-66 0 -95 -41 -122 -133l-15 -52h110c6 0 6 -3 4 -20l-1 -7c-2 -17 -3 -21 -9 -21z" />
    <glyph glyph-name="sterling.otab" 
d="M433 0h-363c-6 0 -8 6 -5 24l1 7c2 16 6 24 11 27c56 34 80 82 89 142l12 79h-74c-6 0 -5 5 -3 21l1 7c2 16 3 20 9 20h73l11 76c17 117 75 189 198 189c40 0 82 -11 114 -30c5 -3 4 -9 -5 -23l-5 -8c-10 -15 -13 -18 -20 -14c-27 14 -55 21 -87 21
c-83 0 -120 -51 -131 -132l-11 -79h164c5 0 6 -4 4 -20l-1 -8c-2 -17 -5 -20 -10 -20h-163l-10 -69c-12 -79 -35 -122 -85 -154h293c5 0 6 -6 3 -25l-1 -7c-3 -19 -4 -24 -9 -24z" />
    <glyph glyph-name="yen.otab" 
d="M417 149h-123l-21 -141c-1 -6 -10 -8 -30 -8h-8c-18 0 -27 2 -26 8l21 141h-122c-5 0 -7 5 -4 21l1 6c2 15 5 19 9 19h122l4 30l-14 40h-102c-5 0 -6 4 -4 21l1 6c1 15 5 19 10 19h80l-88 261c-2 6 5 10 29 10h4c23 0 31 -2 33 -9l91 -286l174 287c4 7 11 8 30 8h14
c21 0 29 -3 25 -10l-166 -261h83c5 0 6 -5 3 -21l-1 -6c-3 -16 -4 -19 -8 -19h-104l-26 -40l-4 -30h124c5 0 5 -4 3 -20l-1 -7c-2 -16 -4 -19 -9 -19z" />
    <glyph glyph-name="numbersign.otab" horiz-adv-x="563" 
d="M444 168h-96l-57 -160c-2 -7 -7 -8 -21 -8h-10c-14 0 -18 2 -16 8l57 160h-130l-57 -160c-2 -7 -7 -8 -21 -8h-10c-15 0 -18 2 -16 8l57 160h-73c-6 0 -7 5 -5 20l1 6c2 14 4 17 10 17h82l58 163h-78c-6 0 -7 5 -5 20l1 6c2 14 4 17 10 17h88l56 157c2 7 7 8 21 8h10
c15 0 18 -2 16 -8l-56 -157h131l56 157c2 7 6 8 21 8h9c14 0 18 -2 16 -8l-56 -157h82c6 0 7 -4 5 -19l-1 -6c-2 -14 -4 -18 -10 -18h-92l-58 -163h88c6 0 7 -3 5 -18l-1 -7c-2 -15 -5 -18 -11 -18zM244 374l-58 -163h131l58 163h-131z" />
    <glyph glyph-name="percent.otab" horiz-adv-x="769" 
d="M190 310c72 0 98 85 98 152c0 54 -22 82 -63 82c-72 0 -99 -85 -99 -152c0 -54 21 -82 64 -82zM182 262c-63 0 -117 42 -117 125c0 104 53 205 167 205c63 0 117 -41 117 -124c0 -103 -53 -206 -167 -206zM198 -10h-11c-18 0 -22 3 -17 10l371 584c4 6 7 8 25 8h11
c18 0 24 -2 19 -9l-372 -585c-4 -6 -9 -8 -26 -8zM542 38c72 0 98 85 98 152c0 54 -22 82 -63 82c-72 0 -99 -85 -99 -152c0 -54 22 -82 64 -82zM534 -10c-62 0 -117 42 -117 125c0 103 53 205 167 205c63 0 117 -41 117 -125c0 -102 -52 -205 -167 -205z" />
    <glyph glyph-name="perthousand.otab" horiz-adv-x="1094" 
d="M190 310c72 0 98 85 98 152c0 54 -22 82 -63 82c-72 0 -99 -85 -99 -152c0 -54 21 -82 64 -82zM182 262c-63 0 -117 42 -117 125c0 104 53 205 167 205c63 0 117 -41 117 -124c0 -103 -53 -206 -167 -206zM198 -10h-11c-18 0 -22 3 -17 10l371 584c4 6 7 8 25 8h11
c18 0 24 -2 19 -9l-372 -585c-4 -6 -9 -8 -26 -8zM542 38c72 0 98 85 98 152c0 54 -22 82 -63 82c-72 0 -99 -85 -99 -152c0 -54 22 -82 64 -82zM534 -10c-62 0 -117 42 -117 125c0 103 53 205 167 205c63 0 117 -41 117 -125c0 -102 -52 -205 -167 -205zM868 38
c72 0 98 85 98 152c0 54 -22 82 -63 82c-72 0 -99 -85 -99 -152c0 -54 22 -82 64 -82zM860 -10c-62 0 -117 42 -117 125c0 103 53 205 167 205c63 0 117 -41 117 -125c0 -102 -52 -205 -167 -205z" />
    <glyph glyph-name="zero.lprop" horiz-adv-x="566" 
d="M342 672c-180 0 -226 -290 -226 -432c0 -125 42 -192 123 -192c178 0 227 290 227 433c0 126 -43 191 -124 191zM350 730c116 0 186 -76 186 -243c0 -174 -63 -497 -306 -497c-116 0 -184 80 -184 246c0 175 62 494 304 494z" />
    <glyph glyph-name="one.lprop" horiz-adv-x="463" 
d="M69 54h115l83 593l-167 -95c-7 -4 -11 -2 -18 14l-4 9c-7 16 -7 19 1 24l191 109c15 8 24 12 42 12h13c14 0 20 -2 19 -7l-92 -659h105c7 0 8 -1 5 -24l-1 -7c-3 -21 -5 -23 -12 -23h-288c-7 0 -9 2 -6 23l1 7c3 22 6 24 13 24z" />
    <glyph glyph-name="two.lprop" horiz-adv-x="482" 
d="M-14 24l1 6c3 17 4 21 15 32l166 171c78 81 201 203 201 328c0 74 -49 111 -117 111c-57 0 -104 -17 -153 -44c-8 -5 -13 -2 -20 15l-3 7c-7 17 -6 20 2 25c52 31 119 55 186 55c101 0 172 -57 172 -158c0 -143 -121 -262 -223 -367l-146 -147h303c7 0 8 -1 5 -25l-1 -8
c-3 -22 -5 -25 -12 -25h-370c-7 0 -9 4 -6 24z" />
    <glyph glyph-name="three.lprop" horiz-adv-x="478" 
d="M165 352h-20c-7 0 -9 3 -6 23l1 6c3 21 5 24 12 24h16c62 0 115 13 152 45c31 28 51 70 51 115c0 28 -8 49 -21 66c-21 29 -57 42 -99 42c-45 0 -95 -14 -134 -30c-12 -5 -14 -1 -19 14l-3 10c-5 16 -4 19 3 23c44 23 110 40 164 40c62 0 113 -20 145 -58
c19 -24 31 -55 31 -96c0 -91 -63 -172 -152 -198c65 -14 129 -61 129 -149c0 -147 -112 -239 -262 -239c-60 0 -121 13 -160 33c-7 4 -6 9 3 27l3 6c10 20 13 22 24 18c37 -16 85 -26 125 -26c60 0 109 14 144 44c38 31 55 81 55 133c0 31 -10 56 -28 75
c-33 36 -86 52 -154 52z" />
    <glyph glyph-name="four.lprop" horiz-adv-x="551" 
d="M46 273l263 438c4 7 5 9 31 9h7c28 0 32 -2 27 -11l-277 -459h241l25 172c1 7 8 9 29 9h7c24 0 31 -2 30 -9l-25 -172h94c8 0 9 -2 5 -27l-1 -6c-4 -24 -6 -24 -12 -24h-94l-26 -184c-1 -7 -9 -9 -32 -9h-7c-23 0 -28 2 -27 9l26 184h-286c-16 0 -21 3 -19 15l2 14
c3 21 10 37 19 51z" />
    <glyph glyph-name="five.lprop" horiz-adv-x="514" 
d="M202 662l-32 -226c21 5 45 8 74 8c71 0 128 -22 163 -63c25 -29 40 -69 40 -118c0 -148 -104 -273 -278 -273c-59 0 -124 17 -148 31c-8 4 -9 8 1 25l6 10c9 15 11 20 22 16c34 -14 76 -24 119 -24c60 0 110 17 142 44c45 38 69 105 69 167c0 34 -9 62 -26 83
c-25 32 -70 48 -130 48c-46 0 -88 -7 -129 -18l49 348h338c6 0 7 -2 4 -25l-1 -8c-3 -22 -5 -25 -11 -25h-272z" />
    <glyph glyph-name="six.lprop" horiz-adv-x="552" 
d="M480 657c-28 11 -57 17 -91 17c-130 0 -208 -135 -250 -282c49 31 109 53 169 53c120 0 177 -74 177 -178c0 -144 -92 -277 -250 -277c-131 0 -189 85 -189 224c0 215 114 516 351 516c48 0 85 -10 113 -25c5 -3 6 -7 -3 -24l-5 -10c-8 -16 -12 -18 -22 -14zM126 336
c-6 -38 -9 -76 -9 -116c0 -115 37 -174 127 -174c108 0 173 104 173 211c0 70 -29 133 -125 133c-58 0 -119 -26 -166 -54z" />
    <glyph glyph-name="seven.lprop" horiz-adv-x="455" 
d="M471 641l-343 -630c-5 -8 -10 -11 -35 -11h-8c-26 0 -29 4 -24 13l358 649h-342c-7 0 -8 5 -5 26l1 8c3 22 5 24 12 24h384c18 0 22 -2 21 -9l-5 -31c-2 -14 -6 -24 -14 -39z" />
    <glyph glyph-name="eight.lprop" horiz-adv-x="549" 
d="M512 582c0 -96 -84 -155 -169 -194c73 -39 144 -81 144 -168c0 -132 -118 -230 -260 -230c-109 0 -194 56 -193 164c0 107 84 190 186 228c-65 41 -101 80 -101 149c0 113 102 199 223 199c95 0 170 -58 170 -148zM238 46c92 0 182 61 182 160c0 78 -77 112 -154 151
c-78 -28 -164 -94 -164 -193c0 -79 57 -118 136 -118zM332 675c-71 0 -145 -54 -145 -137c0 -60 48 -91 110 -126c62 27 148 82 148 165c0 57 -44 98 -113 98z" />
    <glyph glyph-name="nine.lprop" horiz-adv-x="546" 
d="M78 70c31 -15 68 -24 105 -24c54 0 91 14 127 46c53 47 88 126 114 236c-47 -30 -109 -53 -169 -53c-120 0 -178 77 -178 181c0 139 92 274 248 274c131 0 191 -92 191 -231c0 -143 -48 -344 -165 -446c-47 -40 -99 -63 -171 -63c-47 0 -100 13 -130 31c-6 4 -6 7 3 25
l5 10c8 17 10 19 20 14zM437 384c6 42 9 79 9 112c0 116 -39 178 -129 178c-111 0 -171 -108 -171 -214c0 -70 29 -130 125 -130c58 0 119 26 166 54z" />
    <glyph glyph-name="dollar.lprop" horiz-adv-x="513" 
d="M20 47c-7 5 -6 9 7 27l5 7c12 16 16 20 23 16c47 -34 100 -50 149 -50c83 0 183 53 183 153c0 71 -69 106 -139 146c-76 43 -138 94 -138 185c0 115 98 189 216 198l11 84c1 7 6 8 24 8h3c18 0 24 -1 23 -8l-12 -86c45 -7 88 -23 118 -46c7 -5 4 -10 -7 -26l-4 -5
c-11 -18 -15 -20 -22 -16c-36 22 -77 39 -126 39c-81 0 -156 -49 -156 -138c0 -65 58 -100 120 -136c76 -42 158 -87 157 -186c0 -120 -96 -204 -221 -221l-12 -82c-1 -7 -8 -8 -26 -8h-3c-18 0 -22 1 -21 8l12 81c-69 3 -131 26 -164 56z" />
    <glyph glyph-name="cent.lprop" horiz-adv-x="502" 
d="M399 194c9 4 11 1 16 -16l3 -9c6 -18 6 -19 -2 -24c-41 -23 -88 -37 -142 -40l-14 -97c-1 -7 -7 -8 -25 -8h-3c-20 0 -23 1 -22 8l14 98c-119 13 -168 104 -168 211c0 139 88 283 251 305l14 100c1 7 5 8 23 8h3c20 0 25 -1 24 -8l-14 -100c48 -3 94 -21 126 -46
c7 -5 7 -8 -6 -26l-5 -7c-14 -20 -18 -19 -25 -13c-37 28 -75 36 -119 36c-122 0 -202 -111 -202 -245c0 -96 38 -158 139 -158c51 0 93 11 134 31z" />
    <glyph glyph-name="Euro.lprop" 
d="M428 413h-240c-9 -35 -14 -68 -16 -105h227c7 0 9 -4 5 -22l-1 -5c-4 -19 -5 -20 -10 -20h-221c3 -138 58 -212 170 -212c46 0 89 10 133 29c9 4 11 2 16 -16l3 -10c4 -16 4 -21 -5 -25c-48 -23 -99 -37 -157 -37c-83 0 -133 26 -170 69c-40 47 -61 118 -62 202h-80
c-7 0 -9 4 -5 22l1 5c4 19 5 20 10 20h76c2 33 8 68 16 105h-63c-7 0 -9 4 -5 22l1 5c4 19 5 20 10 20h69c54 179 170 270 304 270c61 0 110 -17 149 -43c6 -4 5 -9 -4 -25l-6 -11c-9 -17 -13 -18 -20 -14c-42 22 -82 34 -122 34c-116 0 -191 -82 -230 -211h233
c7 0 9 -4 5 -22l-1 -5c-4 -19 -5 -20 -10 -20z" />
    <glyph glyph-name="florin.lprop" 
d="M472 385h-136l-68 -258c-47 -180 -117 -242 -227 -242c-28 0 -53 6 -67 14c-6 4 -4 7 2 22l4 10c7 18 11 20 18 18c15 -4 31 -7 49 -7c82 0 120 50 153 176l70 267h-105c-7 0 -8 2 -5 22l1 6c3 19 4 21 11 21h111l16 63c45 178 112 242 227 242c28 0 54 -6 68 -14
c7 -4 4 -9 -2 -24l-4 -10c-8 -16 -11 -18 -19 -16c-15 4 -33 7 -49 7c-82 0 -118 -46 -152 -176l-19 -72h130c7 0 8 -2 5 -22l-1 -6c-3 -19 -4 -21 -11 -21z" />
    <glyph glyph-name="sterling.lprop" horiz-adv-x="533" 
d="M413 351h-191l-14 -98c-16 -109 -42 -150 -102 -194h347c5 0 6 -2 3 -26l-1 -7c-3 -24 -5 -26 -10 -26h-421c-7 0 -9 4 -5 27l1 6c3 19 6 25 11 29c70 47 96 101 108 181l15 108h-88c-7 0 -7 4 -4 22l1 6c3 19 3 21 10 21h88l14 102c20 150 88 237 232 237
c47 0 95 -13 130 -35c6 -4 5 -8 -5 -25l-6 -10c-10 -17 -14 -16 -22 -12c-28 16 -63 26 -101 26c-100 0 -145 -68 -160 -179l-14 -104h191c6 0 7 -1 4 -22l-1 -6c-3 -20 -5 -21 -10 -21z" />
    <glyph glyph-name="yen.lprop" horiz-adv-x="511" 
d="M342 381h96c5 0 6 -2 3 -24l-1 -7c-3 -19 -5 -20 -9 -20h-119l-32 -52l-5 -39h143c5 0 6 -2 3 -24l-1 -7c-3 -19 -5 -20 -10 -20h-142l-26 -179c-1 -7 -10 -9 -32 -9h-8c-20 0 -28 2 -27 9l26 179h-144c-5 0 -6 3 -3 24l1 7c3 19 5 20 10 20h143l5 39l-17 52h-119
c-5 0 -6 3 -3 24l1 7c3 19 5 20 10 20h95l-103 327c-2 8 2 12 30 12h8c27 0 32 -2 35 -11l112 -369l214 371c5 8 9 9 31 9h9c24 0 30 -4 25 -12z" />
    <glyph glyph-name="numbersign.lprop" 
d="M253 0c-15 0 -16 3 -14 10l70 205h-154l-70 -205c-4 -8 -8 -10 -20 -10h-13c-15 0 -16 3 -14 10l70 205h-88c-7 0 -8 3 -6 18l1 6c3 15 4 16 11 16h95l77 215h-97c-7 0 -8 3 -6 17l1 7c2 15 4 16 11 16h105l69 200c3 8 7 10 20 10h12c15 0 17 -3 15 -10l-69 -200h154
l69 200c3 8 7 10 20 10h11c15 0 17 -3 15 -10l-69 -200h97c7 0 8 -2 6 -17l-1 -7c-2 -14 -4 -16 -11 -16h-105l-75 -215h105c7 0 10 -1 7 -17l-1 -6c-3 -15 -5 -17 -12 -17h-114l-70 -205c-4 -8 -8 -10 -21 -10h-11zM245 470l-76 -215h154l76 215h-154z" />
    <glyph glyph-name="percent.lprop" horiz-adv-x="868" 
d="M262 683c-94 0 -125 -124 -125 -204c0 -70 26 -106 77 -106c95 0 124 126 124 204c0 70 -27 106 -76 106zM270 730c82 0 131 -50 131 -148c0 -112 -57 -257 -197 -257c-81 0 -130 51 -130 149c0 113 56 256 196 256zM193 -5l439 731c5 8 7 11 29 11h9c20 0 26 -2 19 -13
l-441 -731c-5 -8 -9 -11 -29 -11h-9c-20 0 -23 3 -17 13zM668 348c-94 0 -125 -124 -125 -204c0 -70 26 -106 77 -106c95 0 124 126 124 204c0 70 -27 106 -76 106zM676 395c82 0 131 -50 131 -148c0 -112 -57 -257 -197 -257c-81 0 -130 51 -130 149c0 113 56 256 196 256z
" />
    <glyph glyph-name="perthousand.lprop" horiz-adv-x="1244" 
d="M262 683c-94 0 -125 -124 -125 -204c0 -70 26 -106 77 -106c95 0 124 126 124 204c0 70 -27 106 -76 106zM270 730c82 0 131 -50 131 -148c0 -112 -57 -257 -197 -257c-81 0 -130 51 -130 149c0 113 56 256 196 256zM193 -5l439 731c5 8 7 11 29 11h9c20 0 26 -2 19 -13
l-441 -731c-5 -8 -9 -11 -29 -11h-9c-20 0 -23 3 -17 13zM668 348c-94 0 -125 -124 -125 -204c0 -70 26 -106 77 -106c95 0 124 126 124 204c0 70 -27 106 -76 106zM676 395c82 0 131 -50 131 -148c0 -112 -57 -257 -197 -257c-81 0 -130 51 -130 149c0 113 56 256 196 256z
M1045 348c-94 0 -125 -124 -125 -204c0 -70 26 -106 77 -106c95 0 124 126 124 204c0 70 -27 106 -76 106zM1053 395c82 0 131 -50 131 -148c0 -112 -57 -257 -197 -257c-81 0 -130 51 -130 149c0 113 56 256 196 256z" />
    <glyph glyph-name="zero.oprop" horiz-adv-x="566" 
d="M314 535c-152 0 -205 -180 -205 -314c0 -106 44 -174 138 -174c150 0 207 184 207 313c0 106 -49 175 -140 175zM236 -10c-114 0 -197 78 -197 228c0 172 79 374 288 374c114 0 197 -78 197 -228c0 -174 -76 -374 -288 -374z" />
    <glyph glyph-name="one.oprop" horiz-adv-x="463" 
d="M359 0h-288c-7 0 -9 3 -7 21l1 10c2 19 5 22 12 22h115l68 453l-164 -73c-7 -3 -12 1 -19 15l-5 10c-7 13 -7 21 1 24l188 89c14 6 24 11 42 11h13c14 0 20 -2 19 -8l-75 -521h105c7 0 8 -4 6 -21l-1 -10c-2 -17 -4 -22 -11 -22z" />
    <glyph glyph-name="two.oprop" horiz-adv-x="482" 
d="M382 0h-370c-7 0 -9 6 -7 25l1 11c2 16 3 26 14 35l160 136c136 115 194 154 194 234c0 60 -50 91 -120 91c-57 0 -104 -12 -152 -32c-8 -3 -13 -1 -20 14l-4 9c-6 14 -6 19 2 23c51 26 117 44 184 44c104 0 177 -49 177 -138c0 -103 -85 -175 -214 -279l-142 -115h303
c7 0 8 -6 6 -25l-1 -8c-2 -18 -4 -25 -11 -25z" />
    <glyph glyph-name="three.oprop" horiz-adv-x="478" 
d="M147 212h-20c-7 0 -9 3 -6 23l1 6c3 21 5 24 12 24h16c62 0 115 13 152 45c31 28 51 70 51 115c0 28 -8 49 -21 66c-21 29 -57 42 -99 42c-45 0 -95 -14 -134 -30c-12 -5 -14 -1 -19 14l-3 10c-5 16 -4 19 3 23c44 23 110 40 164 40c62 0 113 -20 145 -58
c19 -24 31 -55 31 -96c0 -91 -63 -172 -152 -198c65 -14 129 -61 129 -149c0 -147 -112 -239 -262 -239c-60 0 -121 13 -160 33c-7 4 -6 9 3 27l3 6c10 20 13 22 24 18c37 -16 85 -26 125 -26c60 0 109 14 144 44c38 31 55 81 55 133c0 31 -10 56 -28 75
c-33 36 -86 52 -154 52z" />
    <glyph glyph-name="four.oprop" horiz-adv-x="551" 
d="M36 133l263 438c4 7 5 9 31 9h7c28 0 32 -2 27 -11l-277 -459h241l25 172c1 7 8 9 29 9h7c24 0 31 -2 30 -9l-25 -172h94c8 0 9 -2 5 -27l-1 -6c-4 -24 -6 -24 -12 -24h-94l-26 -184c-1 -7 -9 -9 -32 -9h-7c-23 0 -28 2 -27 9l26 184h-286c-16 0 -21 3 -19 15l2 14
c3 21 10 37 19 51z" />
    <glyph glyph-name="five.oprop" horiz-adv-x="514" 
d="M187 522l-32 -226c21 5 45 8 74 8c71 0 128 -22 163 -63c25 -29 40 -69 40 -118c0 -148 -104 -273 -278 -273c-59 0 -124 17 -148 31c-8 4 -9 8 1 25l6 10c9 15 11 20 22 16c34 -14 76 -24 119 -24c60 0 110 17 142 44c45 38 69 105 69 167c0 34 -9 62 -26 83
c-25 32 -70 48 -130 48c-46 0 -88 -7 -129 -18l49 348h338c6 0 7 -2 4 -25l-1 -8c-3 -22 -5 -25 -11 -25h-272z" />
    <glyph glyph-name="six.oprop" horiz-adv-x="552" 
d="M500 657c-28 11 -57 17 -91 17c-130 0 -208 -135 -250 -282c49 31 109 53 169 53c120 0 177 -74 177 -178c0 -144 -92 -277 -250 -277c-131 0 -189 85 -189 224c0 215 114 516 351 516c48 0 85 -10 113 -25c5 -3 6 -7 -3 -24l-5 -10c-8 -16 -12 -18 -22 -14zM146 336
c-6 -38 -9 -76 -9 -116c0 -115 37 -174 127 -174c108 0 173 104 173 211c0 70 -29 133 -125 133c-58 0 -119 -26 -166 -54z" />
    <glyph glyph-name="seven.oprop" horiz-adv-x="455" 
d="M441 501l-343 -630c-5 -8 -10 -11 -35 -11h-8c-26 0 -29 4 -24 13l358 649h-342c-7 0 -8 5 -5 26l1 8c3 22 5 24 12 24h384c18 0 22 -2 21 -9l-5 -31c-2 -14 -6 -24 -14 -39z" />
    <glyph glyph-name="eight.oprop" horiz-adv-x="549" 
d="M512 582c0 -96 -84 -155 -169 -194c73 -39 144 -81 144 -168c0 -132 -118 -230 -260 -230c-109 0 -194 56 -193 164c0 107 84 190 186 228c-65 41 -101 80 -101 149c0 113 102 199 223 199c95 0 170 -58 170 -148zM238 46c92 0 182 61 182 160c0 78 -77 112 -154 151
c-78 -28 -164 -94 -164 -193c0 -79 57 -118 136 -118zM332 675c-71 0 -145 -54 -145 -137c0 -60 48 -91 110 -126c62 27 148 82 148 165c0 57 -44 98 -113 98z" />
    <glyph glyph-name="nine.oprop" horiz-adv-x="546" 
d="M53 -70c31 -15 68 -24 105 -24c54 0 91 14 127 46c53 47 88 126 114 236c-47 -30 -109 -53 -169 -53c-120 0 -178 77 -178 181c0 139 92 274 248 274c131 0 191 -92 191 -231c0 -143 -48 -344 -165 -446c-47 -40 -99 -63 -171 -63c-47 0 -100 13 -130 31c-6 4 -6 7 3 25
l5 10c8 17 10 19 20 14zM412 244c6 42 9 79 9 112c0 116 -39 178 -129 178c-111 0 -171 -108 -171 -214c0 -70 29 -130 125 -130c58 0 119 26 166 54z" />
    <glyph glyph-name="dollar.oprop" horiz-adv-x="462" 
d="M158 -71h-5c-17 0 -22 2 -21 8l10 68c-56 4 -106 19 -135 43c-6 5 -5 10 7 27l4 6c11 17 17 18 22 15c39 -25 86 -38 126 -38c67 0 144 27 144 108c0 55 -55 81 -112 110c-63 32 -118 68 -118 143c0 102 79 151 177 159l9 65c1 6 6 8 23 8h5c17 0 23 -2 22 -8l-9 -66
c35 -5 70 -17 96 -35c6 -4 4 -9 -6 -23l-4 -6c-10 -16 -14 -19 -20 -15c-28 16 -63 28 -103 28c-65 0 -125 -24 -125 -98c0 -47 46 -73 96 -99c63 -34 134 -68 134 -151c0 -107 -78 -161 -183 -173l-10 -68c-1 -6 -7 -8 -24 -8z" />
    <glyph glyph-name="cent.oprop" horiz-adv-x="458" 
d="M211 0h-5c-18 0 -22 2 -21 8l11 77c-101 12 -144 82 -144 170c0 112 73 230 211 246l11 73c1 6 6 8 23 8h5c18 0 23 -2 22 -8l-11 -73c41 -4 80 -18 107 -38c6 -4 6 -9 -6 -26l-5 -8c-10 -16 -16 -15 -22 -11c-32 21 -65 30 -102 30c-104 0 -167 -88 -167 -185
c0 -71 32 -123 118 -123c41 0 77 8 112 23c8 3 10 0 15 -14l3 -9c6 -17 5 -20 -2 -24c-35 -18 -75 -29 -118 -32l-11 -76c-1 -6 -7 -8 -24 -8z" />
    <glyph glyph-name="Euro.oprop" horiz-adv-x="513" 
d="M438 56l3 -9c5 -15 3 -22 -4 -25c-43 -21 -88 -32 -139 -32c-71 0 -116 23 -149 59c-34 37 -52 92 -54 158h-67c-6 0 -7 4 -5 19l1 7c2 15 4 19 9 19h63c1 24 6 49 11 74h-51c-6 0 -7 5 -4 21l1 6c3 15 4 19 9 19h56c43 131 137 220 262 220c54 0 99 -13 134 -37
c5 -3 3 -9 -4 -23l-5 -10c-8 -16 -14 -18 -20 -15c-37 19 -71 29 -107 29c-98 0 -161 -70 -192 -164h202c6 0 7 -5 5 -19l-1 -7c-2 -16 -4 -20 -9 -20h-209c-6 -25 -10 -48 -11 -74h197c6 0 7 -5 4 -20l-1 -6c-3 -16 -4 -19 -9 -19h-190c5 -97 50 -160 146 -160
c39 0 76 8 113 24c7 3 10 1 15 -15z" />
    <glyph glyph-name="florin.oprop" horiz-adv-x="510" 
d="M402 304h-116l-54 -194c-37 -134 -93 -201 -191 -201c-27 0 -51 5 -65 13c-5 3 -3 10 2 22l4 9c7 15 11 20 17 18c14 -4 29 -8 46 -8c66 0 96 44 122 139l56 202h-89c-6 0 -6 4 -4 21l1 8c2 16 4 19 10 19h94l13 46c34 121 89 194 192 194c25 0 48 -6 62 -13
c6 -3 4 -8 -2 -23l-3 -8c-7 -17 -11 -20 -17 -18c-13 4 -30 7 -45 7c-66 0 -95 -41 -122 -133l-15 -52h110c6 0 6 -3 4 -20l-1 -7c-2 -17 -3 -21 -9 -21z" />
    <glyph glyph-name="sterling.oprop" horiz-adv-x="484" 
d="M394 0h-363c-6 0 -8 6 -5 24l1 7c2 16 6 24 11 27c56 34 80 82 89 142l12 79h-74c-6 0 -5 5 -3 21l1 7c2 16 3 20 9 20h73l11 76c17 117 75 189 198 189c40 0 82 -11 114 -30c5 -3 4 -9 -5 -23l-5 -8c-10 -15 -13 -18 -20 -14c-27 14 -55 21 -87 21
c-83 0 -120 -51 -131 -132l-11 -79h164c5 0 6 -4 4 -20l-1 -8c-2 -17 -5 -20 -10 -20h-163l-10 -69c-12 -79 -35 -122 -85 -154h293c5 0 6 -6 3 -25l-1 -7c-3 -19 -4 -24 -9 -24z" />
    <glyph glyph-name="yen.oprop" horiz-adv-x="472" 
d="M372 149h-123l-21 -141c-1 -6 -10 -8 -30 -8h-8c-18 0 -27 2 -26 8l21 141h-122c-5 0 -7 5 -4 21l1 6c2 15 5 19 9 19h122l4 30l-14 40h-102c-5 0 -6 4 -4 21l1 6c1 15 5 19 10 19h80l-88 261c-2 6 5 10 29 10h4c23 0 31 -2 33 -9l91 -286l174 287c4 7 11 8 30 8h14
c21 0 29 -3 25 -10l-166 -261h83c5 0 6 -5 3 -21l-1 -6c-3 -16 -4 -19 -8 -19h-104l-26 -40l-4 -30h124c5 0 5 -4 3 -20l-1 -7c-2 -16 -4 -19 -9 -19z" />
    <glyph glyph-name="numbersign.oprop" horiz-adv-x="511" 
d="M418 168h-96l-57 -160c-2 -7 -7 -8 -21 -8h-10c-14 0 -18 2 -16 8l57 160h-130l-57 -160c-2 -7 -7 -8 -21 -8h-10c-15 0 -18 2 -16 8l57 160h-73c-6 0 -7 5 -5 20l1 6c2 14 4 17 10 17h82l58 163h-78c-6 0 -7 5 -5 20l1 6c2 14 4 17 10 17h88l56 157c2 7 7 8 21 8h10
c15 0 18 -2 16 -8l-56 -157h131l56 157c2 7 6 8 21 8h9c14 0 18 -2 16 -8l-56 -157h82c6 0 7 -4 5 -19l-1 -6c-2 -14 -4 -18 -10 -18h-92l-58 -163h88c6 0 7 -3 5 -18l-1 -7c-2 -15 -5 -18 -11 -18zM218 374l-58 -163h131l58 163h-131z" />
    <glyph glyph-name="percent.oprop" horiz-adv-x="769" 
d="M190 310c72 0 98 85 98 152c0 54 -22 82 -63 82c-72 0 -99 -85 -99 -152c0 -54 21 -82 64 -82zM182 262c-63 0 -117 42 -117 125c0 104 53 205 167 205c63 0 117 -41 117 -124c0 -103 -53 -206 -167 -206zM198 -10h-11c-18 0 -22 3 -17 10l371 584c4 6 7 8 25 8h11
c18 0 24 -2 19 -9l-372 -585c-4 -6 -9 -8 -26 -8zM542 38c72 0 98 85 98 152c0 54 -22 82 -63 82c-72 0 -99 -85 -99 -152c0 -54 22 -82 64 -82zM534 -10c-62 0 -117 42 -117 125c0 103 53 205 167 205c63 0 117 -41 117 -125c0 -102 -52 -205 -167 -205z" />
    <glyph glyph-name="perthousand.oprop" horiz-adv-x="1094" 
d="M190 310c72 0 98 85 98 152c0 54 -22 82 -63 82c-72 0 -99 -85 -99 -152c0 -54 21 -82 64 -82zM182 262c-63 0 -117 42 -117 125c0 104 53 205 167 205c63 0 117 -41 117 -124c0 -103 -53 -206 -167 -206zM198 -10h-11c-18 0 -22 3 -17 10l371 584c4 6 7 8 25 8h11
c18 0 24 -2 19 -9l-372 -585c-4 -6 -9 -8 -26 -8zM542 38c72 0 98 85 98 152c0 54 -22 82 -63 82c-72 0 -99 -85 -99 -152c0 -54 22 -82 64 -82zM534 -10c-62 0 -117 42 -117 125c0 103 53 205 167 205c63 0 117 -41 117 -125c0 -102 -52 -205 -167 -205zM868 38
c72 0 98 85 98 152c0 54 -22 82 -63 82c-72 0 -99 -85 -99 -152c0 -54 22 -82 64 -82zM860 -10c-62 0 -117 42 -117 125c0 103 53 205 167 205c63 0 117 -41 117 -125c0 -102 -52 -205 -167 -205z" />
    <glyph glyph-name="a.sup" horiz-adv-x="353" 
d="M292 305h-3c-19 0 -21 1 -21 7v33c-24 -28 -59 -46 -102 -46c-82 0 -117 60 -117 139c0 99 59 213 170 213c41 0 69 -18 84 -42l7 28c2 7 6 8 22 8h3c20 0 22 -3 21 -8l-15 -98l-12 -90c-8 -57 -12 -100 -15 -137c0 -5 -4 -7 -22 -7zM277 464l13 92c-13 25 -39 46 -73 46
c-77 0 -111 -86 -111 -156c0 -53 19 -99 75 -99c21 0 46 7 65 26c16 16 23 35 31 91z" />
    <glyph glyph-name="b.sup" horiz-adv-x="352" 
d="M52 333l65 454c0 4 2 7 25 7h5c22 0 24 -3 23 -8l-25 -175c22 25 57 40 93 40c82 0 116 -61 116 -138c0 -107 -56 -214 -187 -214c-45 0 -83 9 -109 20c-5 2 -7 7 -6 14zM121 439l-12 -83c20 -6 44 -10 66 -10c83 0 122 81 122 162c0 60 -25 91 -74 91
c-24 0 -48 -9 -65 -26c-9 -9 -17 -19 -23 -47c-4 -18 -9 -49 -14 -87z" />
    <glyph glyph-name="c.sup" horiz-adv-x="307" 
d="M179 299c-88 0 -130 59 -130 140c0 100 59 212 177 212c39 0 77 -11 101 -30c5 -4 4 -11 -4 -23l-2 -3c-9 -13 -16 -19 -21 -16c-25 15 -52 23 -79 23c-76 0 -114 -81 -114 -155c0 -53 23 -99 85 -99c27 0 54 8 80 20c6 3 8 0 14 -15l2 -5c5 -13 4 -19 -1 -22
c-33 -17 -71 -27 -108 -27z" />
    <glyph glyph-name="d.sup" horiz-adv-x="364" 
d="M166 299c-74 0 -117 51 -117 135c0 99 59 217 175 217c32 0 59 -10 77 -24l22 159c1 6 6 8 26 8h4c19 0 25 -2 24 -9l-57 -401c-1 -8 -1 -14 -1 -19c0 -15 6 -17 19 -17c4 0 6 -4 4 -17l-1 -8c-1 -10 -5 -14 -9 -16c-6 -3 -16 -3 -27 -3c-19 0 -35 13 -38 38
c-19 -25 -55 -43 -101 -43zM183 347c22 0 48 8 63 24s25 37 32 91l16 114c-16 15 -42 25 -70 25c-78 0 -118 -82 -118 -157c0 -65 31 -97 77 -97z" />
    <glyph glyph-name="e.sup" horiz-adv-x="342" 
d="M299 356l2 -6c5 -15 4 -20 -1 -23c-34 -19 -73 -28 -115 -28c-91 0 -136 51 -136 136c0 98 56 216 174 216c51 0 86 -22 104 -57c11 -20 16 -46 16 -74c0 -14 -2 -29 -4 -44c-3 -18 -4 -21 -10 -21h-223v-17c0 -29 7 -50 21 -65c16 -17 42 -25 74 -25c27 0 53 7 85 21
c6 3 9 -1 13 -13zM115 500h173c1 7 1 13 1 20c0 43 -20 82 -72 82c-46 0 -85 -32 -102 -102z" />
    <glyph glyph-name="f.sup" horiz-adv-x="209" 
d="M75 155h-4c-23 0 -25 3 -24 8l62 438h-47c-4 0 -5 2 -3 17l1 8c2 16 5 19 9 19h46l2 16c11 91 53 141 129 141c24 0 45 -5 64 -14c4 -2 3 -7 -2 -22l-1 -3c-5 -14 -9 -18 -14 -16c-15 6 -33 9 -50 9c-48 0 -65 -36 -72 -94l-2 -17h73c5 0 5 -3 3 -19l-1 -7
c-2 -15 -3 -18 -8 -18h-74l-62 -438c-1 -5 -2 -8 -25 -8z" />
    <glyph glyph-name="g.sup" horiz-adv-x="356" 
d="M181 354c35 0 69 16 92 40l13 94c3 23 4 38 4 49c0 13 -2 24 -7 32c-11 20 -35 31 -66 31c-75 0 -108 -83 -108 -153c0 -59 24 -93 72 -93zM168 305c-79 0 -116 57 -116 136c0 96 57 210 164 210c41 0 72 -15 86 -41l4 27c1 6 5 8 24 8h4c18 0 22 -2 22 -8
c-2 -35 -12 -118 -18 -160l-15 -108c-7 -52 -16 -95 -27 -122c-26 -63 -82 -93 -148 -93c-33 0 -78 8 -97 19c-4 2 -5 8 2 23l3 6c7 13 10 17 16 15c23 -10 51 -15 78 -15c51 0 87 23 103 73c6 18 10 48 12 68c-26 -27 -63 -38 -97 -38z" />
    <glyph glyph-name="h.sup" horiz-adv-x="367" 
d="M302 305h-4c-24 0 -25 3 -25 7l24 169c3 25 6 43 6 58c0 17 -3 28 -10 38c-10 15 -31 22 -59 22c-25 0 -54 -9 -72 -25c-9 -8 -18 -20 -24 -46c-4 -18 -9 -51 -14 -89l-18 -126c-1 -5 -2 -8 -26 -8h-3c-24 0 -26 2 -25 7l67 474c1 5 1 8 25 8h4c23 0 26 -3 25 -8
l-25 -178c26 27 68 43 107 43c36 0 65 -12 83 -34c13 -17 20 -38 20 -68c0 -12 -1 -26 -3 -41l-28 -195c0 -5 -2 -8 -25 -8z" />
    <glyph glyph-name="i.sup" horiz-adv-x="150" 
d="M81 305h-4c-24 0 -26 2 -25 8l45 324c1 5 4 8 27 8h4c23 0 24 -3 24 -7l-46 -326c-1 -5 -2 -7 -25 -7zM138 712c-21 0 -36 15 -36 35c0 21 17 43 42 43c21 0 35 -15 35 -35s-16 -43 -41 -43z" />
    <glyph glyph-name="j.sup" horiz-adv-x="179" 
d="M79 300l47 337c1 5 3 8 27 8h4c23 0 24 -3 23 -8l-47 -335c-16 -110 -63 -148 -136 -148c-14 0 -35 4 -43 9c-4 2 -5 6 0 18l4 10c4 11 6 17 11 15c9 -3 21 -6 30 -6c47 0 69 24 80 100zM166 712c-21 0 -36 15 -36 35c0 21 17 43 42 43c21 0 35 -15 35 -35
s-15 -43 -41 -43z" />
    <glyph glyph-name="k.sup" horiz-adv-x="308" 
d="M274 305h-4c-23 0 -29 3 -31 8l-75 164l-40 -32l-19 -133c-1 -5 -3 -7 -26 -7h-3c-24 0 -26 2 -25 8l66 473c1 5 5 8 27 8h4c21 0 25 -3 24 -8l-40 -281l41 34c40 33 65 58 101 99c4 5 10 7 32 7h2c20 0 26 -4 22 -10c-18 -25 -65 -76 -123 -125l90 -195
c2 -5 0 -10 -23 -10z" />
    <glyph glyph-name="l.sup" horiz-adv-x="160" 
d="M140 332v-5c0 -12 -3 -16 -8 -18c-9 -3 -20 -5 -30 -5c-30 0 -47 15 -47 46c0 10 2 26 4 43l30 217c10 75 17 143 18 176c0 6 6 8 27 8h3c19 0 24 -2 24 -8c-1 -25 -7 -95 -20 -189l-30 -216c-1 -6 -2 -12 -2 -17c0 -12 6 -17 20 -17h8c3 0 3 -5 3 -15z" />
    <glyph glyph-name="m.sup" horiz-adv-x="576" 
d="M466 651c35 0 63 -12 81 -34c13 -16 20 -39 20 -69c0 -12 -2 -29 -4 -45l-27 -191c-1 -4 -3 -7 -25 -7h-4c-23 0 -26 2 -25 8l23 164c4 25 7 48 7 62c0 17 -3 28 -10 38c-11 15 -31 22 -57 22c-24 0 -51 -9 -69 -25c-8 -8 -17 -19 -23 -45c-4 -17 -8 -47 -13 -81
l-19 -136c-1 -4 -2 -7 -25 -7h-4c-23 0 -26 2 -25 8l24 168c4 25 6 44 6 58c0 17 -3 28 -10 38c-10 15 -31 22 -56 22c-20 0 -46 -8 -67 -25c-9 -8 -18 -19 -24 -45c-4 -18 -10 -52 -15 -89l-18 -128c-1 -4 -2 -7 -25 -7h-5c-23 0 -25 2 -24 8l31 223c6 41 11 83 13 101
c1 5 3 8 25 8h4c21 0 24 -2 23 -8l-3 -31c26 28 65 45 106 45c31 0 58 -9 77 -31c6 -7 12 -16 15 -25c31 37 76 56 122 56z" />
    <glyph glyph-name="n.sup" horiz-adv-x="368" 
d="M123 645h3c21 0 24 -3 23 -8l-3 -31c26 27 69 45 110 45c66 0 104 -37 103 -104c0 -11 -1 -24 -3 -38l-28 -196c-1 -5 -2 -8 -25 -8h-4c-24 0 -26 2 -25 7l24 169c4 27 6 47 6 62c-1 40 -25 56 -69 56c-26 0 -53 -10 -71 -26c-19 -16 -25 -38 -39 -134l-18 -126
c-1 -5 -2 -8 -26 -8h-3c-24 0 -26 2 -25 8l34 245c5 33 8 63 10 79c1 5 4 8 26 8z" />
    <glyph glyph-name="o.sup" horiz-adv-x="356" 
d="M177 299c-41 0 -73 11 -94 33c-23 24 -34 60 -34 106c0 122 73 213 180 213c39 0 69 -11 90 -31c25 -24 38 -61 38 -110c0 -120 -71 -211 -180 -211zM186 348c66 0 113 67 113 157c0 51 -17 97 -79 97c-66 0 -114 -67 -114 -157c0 -52 18 -97 80 -97z" />
    <glyph glyph-name="p.sup" horiz-adv-x="354" 
d="M355 517c0 -99 -57 -218 -175 -218c-31 0 -58 8 -75 21l-22 -157c-1 -6 -7 -8 -27 -8h-4c-19 0 -24 2 -23 8l65 474c1 5 3 8 26 8h3c21 0 24 -2 23 -8l-3 -30c24 29 61 44 99 44c71 0 113 -51 113 -134zM298 508c0 62 -29 93 -74 93c-28 0 -54 -11 -70 -29
c-14 -15 -18 -35 -27 -97l-14 -101c14 -14 40 -26 69 -26c79 0 116 90 116 160z" />
    <glyph glyph-name="q.sup" horiz-adv-x="353" 
d="M266 160h-4c-19 0 -23 2 -23 8c0 22 8 94 20 172c-22 -25 -56 -41 -96 -41c-79 0 -114 57 -114 137c0 121 74 215 190 215c41 0 80 -9 107 -20c5 -2 7 -7 6 -15l-39 -271c-8 -57 -20 -149 -21 -174c0 -10 -4 -11 -26 -11zM281 498l13 96c-17 6 -40 10 -62 10
c-80 0 -126 -80 -126 -164c0 -60 25 -91 74 -91c22 0 46 8 63 23c19 18 27 44 38 126z" />
    <glyph glyph-name="r.sup" horiz-adv-x="234" 
d="M81 305h-3c-22 0 -26 2 -25 7l31 220c6 42 11 85 13 105c0 5 3 8 26 8h3c21 0 24 -3 23 -8l-7 -67c28 54 67 78 103 78c6 0 10 0 13 -1c5 -1 7 -7 4 -20l-2 -8c-3 -13 -3 -21 -10 -21c-31 0 -58 -16 -78 -39c-20 -22 -33 -50 -39 -77c-4 -17 -11 -62 -16 -97l-10 -73
c-1 -4 -5 -7 -26 -7z" />
    <glyph glyph-name="s.sup" horiz-adv-x="287" 
d="M288 597l-3 -4c-10 -14 -16 -16 -20 -13c-22 17 -47 25 -71 25c-49 0 -73 -22 -73 -51c0 -32 30 -42 62 -51c70 -20 92 -49 92 -96c0 -70 -62 -108 -138 -108c-44 0 -79 13 -102 30c-4 3 -1 11 6 21l3 6c8 14 14 17 20 13c21 -14 52 -24 81 -24c52 0 78 25 78 56
c0 33 -32 45 -67 55c-28 8 -51 18 -67 35c-12 12 -21 29 -21 58c0 64 60 102 131 102c37 0 74 -11 95 -32c4 -4 2 -11 -6 -22z" />
    <glyph glyph-name="t.sup" horiz-adv-x="232" 
d="M220 339l1 -8c1 -11 1 -15 -4 -18c-18 -10 -45 -14 -69 -14c-46 0 -74 22 -74 68c0 11 1 24 3 37l28 198h-46c-4 0 -6 5 -3 19l1 5c3 14 5 19 9 19h45l12 88c1 5 3 8 26 8h4c24 0 25 -4 24 -8l-12 -88h81c4 0 6 -6 3 -19l-1 -5c-3 -14 -4 -19 -8 -19h-82l-27 -193
c-2 -12 -3 -22 -3 -30c0 -22 13 -34 38 -34c14 0 31 2 45 7c6 2 8 -2 9 -13z" />
    <glyph glyph-name="u.sup" horiz-adv-x="365" 
d="M163 299c-36 0 -66 9 -83 32c-22 28 -21 69 -15 111l27 195c1 4 3 8 25 8h5c22 0 25 -3 24 -8l-24 -169c-6 -42 -10 -76 3 -97c9 -15 28 -22 55 -22c28 0 54 8 73 25c16 14 26 32 36 103l23 160c1 5 4 8 25 8h5c20 0 24 -3 23 -7l-31 -221c-6 -42 -10 -84 -13 -104
c-1 -5 -3 -8 -24 -8h-4c-20 0 -23 2 -23 7l3 31c-27 -28 -66 -44 -110 -44z" />
    <glyph glyph-name="v.sup" horiz-adv-x="311" 
d="M128 314l-69 322c-1 7 3 9 21 9h6c21 0 29 -2 30 -8l55 -273c45 89 88 182 120 274c2 5 5 7 27 7h4c21 0 27 -2 23 -12c-48 -121 -103 -238 -151 -320c-4 -7 -9 -8 -33 -8h-5c-20 0 -25 2 -28 9z" />
    <glyph glyph-name="w.sup" horiz-adv-x="491" 
d="M357 305h-10c-19 0 -28 3 -29 9l-18 150c-5 37 -7 87 -9 128c-12 -40 -31 -90 -46 -128l-62 -150c-3 -7 -8 -9 -31 -9h-6c-25 0 -30 2 -31 9l-49 322c-1 8 4 9 25 9h2c23 0 27 -3 28 -8l35 -274l107 273c3 6 7 9 29 9h11c20 0 24 -3 25 -9l33 -279c43 93 78 179 108 278
c2 6 4 10 27 10h5c18 0 23 -3 20 -12c-47 -134 -87 -225 -133 -317c-4 -8 -12 -11 -31 -11z" />
    <glyph glyph-name="x.sup" horiz-adv-x="325" 
d="M246 312l-61 131l-99 -131c-4 -6 -11 -7 -32 -7h-4c-23 0 -31 2 -26 9l136 172l-74 151c-3 6 2 8 27 8h3c24 0 27 -1 30 -7l51 -110l79 109c5 6 11 8 33 8h2c23 0 34 -4 28 -10l-118 -151l87 -170c3 -6 -5 -9 -28 -9h-3c-25 0 -28 1 -31 7z" />
    <glyph glyph-name="y.sup" horiz-adv-x="320" 
d="M142 300l-79 336c-2 7 4 9 29 9h2c21 0 25 -2 26 -7l37 -161c10 -45 16 -78 21 -117c13 34 32 73 51 113l79 165c3 5 9 7 25 7h5c22 0 29 -2 26 -9l-167 -340c-20 -41 -41 -78 -69 -104c-25 -24 -57 -38 -96 -38c-18 0 -37 3 -51 10c-6 3 -4 9 2 22l3 6c6 12 9 16 15 14
c9 -3 22 -6 36 -6c42 0 69 26 105 100z" />
    <glyph glyph-name="z.sup" horiz-adv-x="287" 
d="M260 305h-225c-5 0 -7 4 -5 16l1 8c1 7 3 13 8 20l193 250h-151c-4 0 -8 3 -4 19l2 7c4 15 4 20 9 20h214c5 0 5 -6 4 -15l-1 -7c-1 -9 -5 -16 -9 -22l-194 -250h164c5 0 6 -3 4 -20l-1 -7c-2 -16 -4 -19 -9 -19z" />
    <glyph glyph-name="ordfeminine" unicode="&#xaa;" horiz-adv-x="425" 
d="M248 739c39 0 74 -16 92 -44l9 32c1 5 3 7 23 7h5c19 0 24 -1 23 -7c-6 -34 -16 -95 -22 -136l-8 -56c-6 -45 -13 -102 -16 -137c0 -5 -6 -6 -24 -6h-5c-20 0 -22 2 -22 7v45c-25 -34 -65 -57 -114 -57c-78 0 -118 52 -118 136c0 98 61 216 177 216zM318 564l12 84
c-15 28 -42 48 -79 48c-85 0 -122 -94 -122 -171c0 -59 24 -94 77 -94c29 0 56 14 74 33c20 22 32 53 38 100z" />
    <glyph glyph-name="ordmasculine" unicode="&#xba;" horiz-adv-x="425" 
d="M212 435c86 0 126 85 126 165c0 49 -19 92 -83 92c-86 0 -126 -86 -126 -166c0 -49 19 -91 83 -91zM202 387c-86 0 -132 51 -132 134c0 109 70 218 195 218c86 0 132 -51 132 -133c0 -109 -69 -219 -195 -219z" />
    <glyph glyph-name="zero.sup" horiz-adv-x="360" 
d="M197 437c81 0 117 108 117 210c0 73 -29 110 -72 110c-81 0 -118 -110 -118 -211c0 -72 30 -109 73 -109zM196 394c-76 0 -125 53 -125 147c0 139 58 260 172 260c76 0 123 -49 123 -147c0 -140 -54 -260 -170 -260z" />
    <glyph glyph-name="onesuperior" unicode="&#xb9;" horiz-adv-x="360" 
d="M243 440h61c5 0 6 -2 4 -13l-2 -13c-2 -13 -3 -15 -7 -15h-179c-5 0 -6 2 -4 13l2 13c2 13 3 15 7 15h65l43 295l-91 -48c-4 -2 -10 3 -15 13l-4 8c-5 9 -5 17 -2 19l114 61c6 3 14 7 27 7h12c14 0 19 -2 18 -7z" />
    <glyph glyph-name="twosuperior" unicode="&#xb2;" horiz-adv-x="360" 
d="M307 399h-233c-4 0 -7 1 -5 15l2 15c2 12 4 21 11 28l96 89c50 47 115 102 115 154c0 35 -27 56 -70 56c-28 0 -55 -7 -83 -20c-4 -2 -8 0 -13 11l-3 7c-4 9 -3 15 0 17c29 18 72 30 111 30c64 0 110 -34 110 -96c0 -66 -62 -127 -128 -185l-87 -77h182c6 0 7 -2 5 -14
l-2 -14c-2 -14 -4 -16 -8 -16z" />
    <glyph glyph-name="threesuperior" unicode="&#xb3;" horiz-adv-x="361" 
d="M72 431l4 10c5 12 7 13 12 11c26 -10 57 -15 83 -15c29 0 54 8 73 22s30 34 30 58c0 21 -8 37 -21 48c-17 15 -45 22 -76 22h-22c-4 0 -6 1 -4 16l1 9c2 14 4 16 8 16h21c30 0 58 7 77 21c17 12 27 29 27 53c0 18 -5 31 -15 40c-13 12 -34 17 -57 17
c-41 0 -68 -14 -72 -16s-8 1 -11 12l-2 7c-4 13 -4 15 1 18c27 13 60 21 93 21c34 0 64 -8 85 -25c19 -15 30 -37 30 -67c0 -42 -30 -84 -80 -99c35 -7 69 -36 69 -87c0 -77 -68 -129 -157 -129c-36 0 -68 5 -99 16c-5 2 -4 7 2 21z" />
    <glyph glyph-name="four.sup" horiz-adv-x="361" 
d="M347 499h-48l-14 -94c0 -4 -7 -6 -23 -6h-6c-17 0 -23 2 -23 6l14 94h-161c-14 0 -19 2 -18 8l3 25c1 10 5 20 11 29l151 227c4 5 10 7 25 7h10c16 0 24 -3 20 -8l-168 -244h132l13 88c1 5 8 6 23 6h6c17 0 24 -2 23 -6l-13 -88h48c6 0 7 -2 5 -14l-2 -14
c-2 -14 -4 -16 -8 -16z" />
    <glyph glyph-name="five.sup" horiz-adv-x="360" 
d="M144 795h206c6 0 7 -2 5 -14l-2 -14c-2 -13 -5 -16 -8 -16h-156l-16 -106c12 2 25 3 37 3c41 0 76 -12 98 -36c16 -18 25 -41 25 -73c0 -84 -64 -145 -169 -145c-30 0 -66 5 -89 14c-3 1 -5 5 1 20l3 7c6 14 8 18 13 16c23 -7 44 -13 74 -13c32 0 57 7 76 19
c26 17 39 45 39 77c0 23 -6 38 -16 49c-16 17 -41 22 -73 22c-25 0 -52 -3 -75 -8z" />
    <glyph glyph-name="six.sup" horiz-adv-x="361" 
d="M360 767l-3 -6c-6 -12 -8 -16 -14 -14c-19 6 -35 11 -57 11c-79 0 -118 -68 -137 -136c25 16 57 24 90 24c75 0 112 -41 112 -104c0 -74 -52 -148 -147 -148c-84 0 -121 58 -121 136c0 96 57 271 206 271c30 0 53 -5 72 -14c5 -2 6 -6 -1 -20zM142 579
c-4 -18 -6 -42 -6 -52c0 -47 17 -90 72 -90c61 0 89 52 89 100c0 36 -16 66 -68 66c-32 0 -64 -11 -87 -24z" />
    <glyph glyph-name="seven.sup" horiz-adv-x="360" 
d="M302 751h-193c-6 0 -7 2 -5 14l2 14c2 13 5 16 8 16h227c14 0 18 -2 17 -7l-4 -27c-1 -9 -5 -18 -8 -24l-196 -332c-2 -4 -11 -6 -25 -6h-10c-15 0 -22 3 -20 7z" />
    <glyph glyph-name="eight.sup" horiz-adv-x="361" 
d="M217 586c-45 -15 -93 -43 -93 -89c0 -37 32 -61 76 -61c50 0 96 31 96 74c0 41 -41 62 -79 76zM273 613c39 -17 76 -47 76 -97c0 -74 -73 -122 -155 -122c-66 0 -122 30 -122 95c0 55 43 99 104 120c-31 12 -59 42 -59 83c0 70 67 109 134 109c58 0 110 -29 110 -86
c0 -49 -44 -88 -88 -102zM231 635c39 15 78 37 78 72c0 30 -26 51 -64 51c-41 0 -75 -25 -75 -59c0 -32 29 -50 61 -64z" />
    <glyph glyph-name="nine.sup" horiz-adv-x="361" 
d="M81 431l3 6c6 12 8 16 14 14c25 -10 40 -14 63 -14c19 0 37 4 52 11c47 21 70 80 82 125c-25 -16 -57 -24 -90 -24c-75 0 -112 41 -112 104c0 74 52 148 147 148c84 0 121 -58 121 -137c0 -77 -36 -212 -129 -254c-22 -10 -46 -16 -73 -16c-28 0 -61 7 -79 17
c-5 3 -6 6 1 20zM302 616c4 18 6 41 6 56c0 42 -17 86 -72 86c-61 0 -89 -52 -89 -100c0 -36 16 -66 68 -66c32 0 64 11 87 24z" />
    <glyph glyph-name="plus.sup" horiz-adv-x="361" 
d="M197 580h-124c-3 0 -5 2 -3 16l1 6c2 14 3 16 7 16h124l17 121c1 4 4 6 17 6h7c13 0 17 -2 16 -6l-17 -121h124c3 0 5 -2 3 -16l-1 -6c-2 -14 -3 -16 -7 -16h-123l-17 -122c0 -4 -6 -6 -18 -6h-7c-12 0 -16 2 -16 6z" />
    <glyph glyph-name="minus.sup" horiz-adv-x="360" 
d="M79 618h284c3 0 5 -2 3 -16l-1 -6c-2 -14 -3 -16 -7 -16h-284c-3 0 -5 2 -3 16l1 6c2 14 3 16 7 16z" />
    <glyph glyph-name="equal.sup" horiz-adv-x="361" 
d="M87 674h284c3 0 5 -2 3 -16l-1 -6c-2 -14 -3 -16 -7 -16h-284c-3 0 -5 2 -3 16l1 6c2 14 3 16 7 16zM72 562h284c3 0 5 -2 3 -16l-1 -6c-2 -14 -3 -16 -7 -16h-284c-3 0 -5 2 -3 16l1 6c2 14 3 16 7 16z" />
    <glyph glyph-name="parenleft.sup" horiz-adv-x="212" 
d="M181 331l-11 -4c-13 -5 -18 -5 -20 -2c-28 41 -52 113 -52 188c0 130 57 247 122 305c3 3 8 4 15 -1l8 -6c10 -8 11 -12 8 -15c-60 -66 -103 -166 -103 -280c0 -76 17 -120 42 -172c4 -8 -1 -10 -9 -13z" />
    <glyph glyph-name="parenright.sup" horiz-adv-x="212" 
d="M116 812l11 4c13 5 18 5 20 2c28 -41 52 -113 52 -188c0 -130 -57 -247 -122 -305c-3 -3 -8 -4 -15 1l-8 6c-10 8 -11 12 -8 15c60 66 103 166 103 280c0 76 -17 120 -42 172c-4 8 1 10 9 13z" />
    <glyph glyph-name="period.sup" horiz-adv-x="162" 
d="M102 394c-21 0 -36 15 -36 34c0 20 16 40 41 40c21 0 36 -14 36 -34c0 -19 -16 -40 -41 -40z" />
    <glyph glyph-name="comma.sup" horiz-adv-x="162" 
d="M44 310l-6 7c-3 3 -5 9 -1 12c17 13 46 37 46 58c0 20 -20 19 -20 45c0 19 15 36 38 36c25 0 38 -18 38 -41c0 -45 -41 -95 -84 -121c-3 -2 -8 0 -11 4z" />
    <glyph glyph-name="zero.sub" horiz-adv-x="360" 
d="M137 -37c81 0 117 108 117 210c0 73 -29 110 -72 110c-81 0 -118 -110 -118 -211c0 -72 30 -109 73 -109zM136 -80c-76 0 -125 53 -125 147c0 139 58 260 172 260c76 0 123 -49 123 -147c0 -140 -54 -260 -170 -260z" />
    <glyph glyph-name="one.sub" horiz-adv-x="360" 
d="M183 -34h61c5 0 6 -2 4 -13l-2 -13c-2 -13 -3 -15 -7 -15h-179c-5 0 -6 2 -4 13l2 13c2 13 3 15 7 15h65l43 295l-91 -48c-4 -2 -10 3 -15 13l-4 8c-5 9 -5 17 -2 19l114 61c6 3 14 7 27 7h12c14 0 19 -2 18 -7z" />
    <glyph glyph-name="two.sub" horiz-adv-x="360" 
d="M247 -75h-233c-4 0 -7 1 -5 15l2 15c2 12 4 21 11 28l96 89c50 47 115 102 115 154c0 35 -27 56 -70 56c-28 0 -55 -7 -83 -20c-4 -2 -8 0 -13 11l-3 7c-4 9 -3 15 0 17c29 18 72 30 111 30c64 0 110 -34 110 -96c0 -66 -62 -127 -128 -185l-87 -77h182c6 0 7 -2 5 -14
l-2 -14c-2 -14 -4 -16 -8 -16z" />
    <glyph glyph-name="three.sub" horiz-adv-x="361" 
d="M12 -43l4 10c5 12 7 13 12 11c26 -10 57 -15 83 -15c29 0 54 8 73 22s30 34 30 58c0 21 -8 37 -21 48c-17 15 -45 22 -76 22h-22c-4 0 -6 1 -4 16l1 9c2 14 4 16 8 16h21c30 0 58 7 77 21c17 12 27 29 27 53c0 18 -5 31 -15 40c-13 12 -34 17 -57 17
c-41 0 -68 -14 -72 -16s-8 1 -11 12l-2 7c-4 13 -4 15 1 18c27 13 60 21 93 21c34 0 64 -8 85 -25c19 -15 30 -37 30 -67c0 -42 -30 -84 -80 -99c35 -7 69 -36 69 -87c0 -77 -68 -129 -157 -129c-36 0 -68 5 -99 16c-5 2 -4 7 2 21z" />
    <glyph glyph-name="four.sub" horiz-adv-x="361" 
d="M287 25h-48l-14 -94c0 -4 -7 -6 -23 -6h-6c-17 0 -23 2 -23 6l14 94h-161c-14 0 -19 2 -18 8l3 25c1 10 5 20 11 29l151 227c4 5 10 7 25 7h10c16 0 24 -3 20 -8l-168 -244h132l13 88c1 5 8 6 23 6h6c17 0 24 -2 23 -6l-13 -88h48c6 0 7 -2 5 -14l-2 -14
c-2 -14 -4 -16 -8 -16z" />
    <glyph glyph-name="five.sub" horiz-adv-x="360" 
d="M84 321h206c6 0 7 -2 5 -14l-2 -14c-2 -13 -5 -16 -8 -16h-156l-16 -106c12 2 25 3 37 3c41 0 76 -12 98 -36c16 -18 25 -41 25 -73c0 -84 -64 -145 -169 -145c-30 0 -66 5 -89 14c-3 1 -5 5 1 20l3 7c6 14 8 18 13 16c23 -7 44 -13 74 -13c32 0 57 7 76 19
c26 17 39 45 39 77c0 23 -6 38 -16 49c-16 17 -41 22 -73 22c-25 0 -52 -3 -75 -8z" />
    <glyph glyph-name="six.sub" horiz-adv-x="361" 
d="M300 293l-3 -6c-6 -12 -8 -16 -14 -14c-19 6 -35 11 -57 11c-79 0 -118 -68 -137 -136c25 16 57 24 90 24c75 0 112 -41 112 -104c0 -74 -52 -148 -147 -148c-84 0 -121 58 -121 136c0 96 57 271 206 271c30 0 53 -5 72 -14c5 -2 6 -6 -1 -20zM82 105
c-4 -18 -6 -42 -6 -52c0 -47 17 -90 72 -90c61 0 89 52 89 100c0 36 -16 66 -68 66c-32 0 -64 -11 -87 -24z" />
    <glyph glyph-name="seven.sub" horiz-adv-x="360" 
d="M242 277h-193c-6 0 -7 2 -5 14l2 14c2 13 5 16 8 16h227c14 0 18 -2 17 -7l-4 -27c-1 -9 -5 -18 -8 -24l-196 -332c-2 -4 -11 -6 -25 -6h-10c-15 0 -22 3 -20 7z" />
    <glyph glyph-name="eight.sub" horiz-adv-x="361" 
d="M157 112c-45 -15 -93 -43 -93 -89c0 -37 32 -61 76 -61c50 0 96 31 96 74c0 41 -41 62 -79 76zM213 139c39 -17 76 -47 76 -97c0 -74 -73 -122 -155 -122c-66 0 -122 30 -122 95c0 55 43 99 104 120c-31 12 -59 42 -59 83c0 70 67 109 134 109c58 0 110 -29 110 -86
c0 -49 -44 -88 -88 -102zM171 161c39 15 78 37 78 72c0 30 -26 51 -64 51c-41 0 -75 -25 -75 -59c0 -32 29 -50 61 -64z" />
    <glyph glyph-name="nine.sub" horiz-adv-x="361" 
d="M21 -43l3 6c6 12 8 16 14 14c25 -10 40 -14 63 -14c19 0 37 4 52 11c47 21 70 80 82 125c-25 -16 -57 -24 -90 -24c-75 0 -112 41 -112 104c0 74 52 148 147 148c84 0 121 -58 121 -137c0 -77 -36 -212 -129 -254c-22 -10 -46 -16 -73 -16c-28 0 -61 7 -79 17
c-5 3 -6 6 1 20zM242 142c4 18 6 41 6 56c0 42 -17 86 -72 86c-61 0 -89 -52 -89 -100c0 -36 16 -66 68 -66c32 0 64 11 87 24z" />
    <glyph glyph-name="plus.sub" horiz-adv-x="361" 
d="M137 106h-124c-3 0 -5 2 -3 16l1 6c2 14 3 16 7 16h124l17 121c1 4 4 6 17 6h7c13 0 17 -2 16 -6l-17 -121h124c3 0 5 -2 3 -16l-1 -6c-2 -14 -3 -16 -7 -16h-123l-17 -122c0 -4 -6 -6 -18 -6h-7c-12 0 -16 2 -16 6z" />
    <glyph glyph-name="minus.sub" horiz-adv-x="360" 
d="M19 144h284c3 0 5 -2 3 -16l-1 -6c-2 -14 -3 -16 -7 -16h-284c-3 0 -5 2 -3 16l1 6c2 14 3 16 7 16z" />
    <glyph glyph-name="equal.sub" horiz-adv-x="361" 
d="M27 200h284c3 0 5 -2 3 -16l-1 -6c-2 -14 -3 -16 -7 -16h-284c-3 0 -5 2 -3 16l1 6c2 14 3 16 7 16zM12 88h284c3 0 5 -2 3 -16l-1 -6c-2 -14 -3 -16 -7 -16h-284c-3 0 -5 2 -3 16l1 6c2 14 3 16 7 16z" />
    <glyph glyph-name="parenleft.sub" horiz-adv-x="212" 
d="M121 -143l-11 -4c-13 -5 -18 -5 -20 -2c-28 41 -52 113 -52 188c0 130 57 247 122 305c3 3 8 4 15 -1l8 -6c10 -8 11 -12 8 -15c-60 -66 -103 -166 -103 -280c0 -76 17 -120 42 -172c4 -8 -1 -10 -9 -13z" />
    <glyph glyph-name="parenright.sub" horiz-adv-x="212" 
d="M56 338l11 4c13 5 18 5 20 2c28 -41 52 -113 52 -188c0 -130 -57 -247 -122 -305c-3 -3 -8 -4 -15 1l-8 6c-10 8 -11 12 -8 15c60 66 103 166 103 280c0 76 -17 120 -42 172c-4 8 1 10 9 13z" />
    <glyph glyph-name="period.sub" horiz-adv-x="162" 
d="M42 -80c-21 0 -36 15 -36 34c0 20 16 40 41 40c21 0 36 -14 36 -34c0 -19 -16 -40 -41 -40z" />
    <glyph glyph-name="comma.sub" horiz-adv-x="162" 
d="M-16 -164l-6 7c-3 3 -5 9 -1 12c17 13 46 37 46 58c0 20 -20 19 -20 45c0 19 15 36 38 36c25 0 38 -18 38 -41c0 -45 -41 -95 -84 -121c-3 -2 -8 0 -11 4z" />
    <glyph glyph-name="zero.num" horiz-adv-x="360" 
d="M187 364c81 0 117 108 117 210c0 73 -29 110 -72 110c-81 0 -118 -110 -118 -211c0 -72 30 -109 73 -109zM186 321c-76 0 -125 53 -125 147c0 139 58 260 172 260c76 0 123 -49 123 -147c0 -140 -54 -260 -170 -260z" />
    <glyph glyph-name="one.num" horiz-adv-x="360" 
d="M233 367h61c5 0 6 -2 4 -13l-2 -13c-2 -13 -3 -15 -7 -15h-179c-5 0 -6 2 -4 13l2 13c2 13 3 15 7 15h65l43 295l-91 -48c-4 -2 -10 3 -15 13l-4 8c-5 9 -5 17 -2 19l114 61c6 3 14 7 27 7h12c14 0 19 -2 18 -7z" />
    <glyph glyph-name="two.num" horiz-adv-x="360" 
d="M297 326h-233c-4 0 -7 1 -5 15l2 15c2 12 4 21 11 28l96 89c50 47 115 102 115 154c0 35 -27 56 -70 56c-28 0 -55 -7 -83 -20c-4 -2 -8 0 -13 11l-3 7c-4 9 -3 15 0 17c29 18 72 30 111 30c64 0 110 -34 110 -96c0 -66 -62 -127 -128 -185l-87 -77h182c6 0 7 -2 5 -14
l-2 -14c-2 -14 -4 -16 -8 -16z" />
    <glyph glyph-name="three.num" horiz-adv-x="361" 
d="M62 358l4 10c5 12 7 13 12 11c26 -10 57 -15 83 -15c29 0 54 8 73 22s30 34 30 58c0 21 -8 37 -21 48c-17 15 -45 22 -76 22h-22c-4 0 -6 1 -4 16l1 9c2 14 4 16 8 16h21c30 0 58 7 77 21c17 12 27 29 27 53c0 18 -5 31 -15 40c-13 12 -34 17 -57 17
c-41 0 -68 -14 -72 -16s-8 1 -11 12l-2 7c-4 13 -4 15 1 18c27 13 60 21 93 21c34 0 64 -8 85 -25c19 -15 30 -37 30 -67c0 -42 -30 -84 -80 -99c35 -7 69 -36 69 -87c0 -77 -68 -129 -157 -129c-36 0 -68 5 -99 16c-5 2 -4 7 2 21z" />
    <glyph glyph-name="four.num" horiz-adv-x="361" 
d="M337 426h-48l-14 -94c0 -4 -7 -6 -23 -6h-6c-17 0 -23 2 -23 6l14 94h-161c-14 0 -19 2 -18 8l3 25c1 10 5 20 11 29l151 227c4 5 10 7 25 7h10c16 0 24 -3 20 -8l-168 -244h132l13 88c1 5 8 6 23 6h6c17 0 24 -2 23 -6l-13 -88h48c6 0 7 -2 5 -14l-2 -14
c-2 -14 -4 -16 -8 -16z" />
    <glyph glyph-name="five.num" horiz-adv-x="360" 
d="M134 722h206c6 0 7 -2 5 -14l-2 -14c-2 -13 -5 -16 -8 -16h-156l-16 -106c12 2 25 3 37 3c41 0 76 -12 98 -36c16 -18 25 -41 25 -73c0 -84 -64 -145 -169 -145c-30 0 -66 5 -89 14c-3 1 -5 5 1 20l3 7c6 14 8 18 13 16c23 -7 44 -13 74 -13c32 0 57 7 76 19
c26 17 39 45 39 77c0 23 -6 38 -16 49c-16 17 -41 22 -73 22c-25 0 -52 -3 -75 -8z" />
    <glyph glyph-name="six.num" horiz-adv-x="361" 
d="M350 694l-3 -6c-6 -12 -8 -16 -14 -14c-19 6 -35 11 -57 11c-79 0 -118 -68 -137 -136c25 16 57 24 90 24c75 0 112 -41 112 -104c0 -74 -52 -148 -147 -148c-84 0 -121 58 -121 136c0 96 57 271 206 271c30 0 53 -5 72 -14c5 -2 6 -6 -1 -20zM132 506
c-4 -18 -6 -42 -6 -52c0 -47 17 -90 72 -90c61 0 89 52 89 100c0 36 -16 66 -68 66c-32 0 -64 -11 -87 -24z" />
    <glyph glyph-name="seven.num" horiz-adv-x="360" 
d="M292 678h-193c-6 0 -7 2 -5 14l2 14c2 13 5 16 8 16h227c14 0 18 -2 17 -7l-4 -27c-1 -9 -5 -18 -8 -24l-196 -332c-2 -4 -11 -6 -25 -6h-10c-15 0 -22 3 -20 7z" />
    <glyph glyph-name="eight.num" horiz-adv-x="361" 
d="M207 513c-45 -15 -93 -43 -93 -89c0 -37 32 -61 76 -61c50 0 96 31 96 74c0 41 -41 62 -79 76zM263 540c39 -17 76 -47 76 -97c0 -74 -73 -122 -155 -122c-66 0 -122 30 -122 95c0 55 43 99 104 120c-31 12 -59 42 -59 83c0 70 67 109 134 109c58 0 110 -29 110 -86
c0 -49 -44 -88 -88 -102zM221 562c39 15 78 37 78 72c0 30 -26 51 -64 51c-41 0 -75 -25 -75 -59c0 -32 29 -50 61 -64z" />
    <glyph glyph-name="nine.num" horiz-adv-x="361" 
d="M71 358l3 6c6 12 8 16 14 14c25 -10 40 -14 63 -14c19 0 37 4 52 11c47 21 70 80 82 125c-25 -16 -57 -24 -90 -24c-75 0 -112 41 -112 104c0 74 52 148 147 148c84 0 121 -58 121 -137c0 -77 -36 -212 -129 -254c-22 -10 -46 -16 -73 -16c-28 0 -61 7 -79 17
c-5 3 -6 6 1 20zM292 543c4 18 6 41 6 56c0 42 -17 86 -72 86c-61 0 -89 -52 -89 -100c0 -36 16 -66 68 -66c32 0 64 11 87 24z" />
    <glyph glyph-name="plus.num" horiz-adv-x="361" 
d="M187 507h-124c-3 0 -5 2 -3 16l1 6c2 14 3 16 7 16h124l17 121c1 4 4 6 17 6h7c13 0 17 -2 16 -6l-17 -121h124c3 0 5 -2 3 -16l-1 -6c-2 -14 -3 -16 -7 -16h-123l-17 -122c0 -4 -6 -6 -18 -6h-7c-12 0 -16 2 -16 6z" />
    <glyph glyph-name="minus.num" horiz-adv-x="360" 
d="M69 545h284c3 0 5 -2 3 -16l-1 -6c-2 -14 -3 -16 -7 -16h-284c-3 0 -5 2 -3 16l1 6c2 14 3 16 7 16z" />
    <glyph glyph-name="equal.num" horiz-adv-x="361" 
d="M77 601h284c3 0 5 -2 3 -16l-1 -6c-2 -14 -3 -16 -7 -16h-284c-3 0 -5 2 -3 16l1 6c2 14 3 16 7 16zM62 489h284c3 0 5 -2 3 -16l-1 -6c-2 -14 -3 -16 -7 -16h-284c-3 0 -5 2 -3 16l1 6c2 14 3 16 7 16z" />
    <glyph glyph-name="parenleft.num" horiz-adv-x="212" 
d="M171 258l-11 -4c-13 -5 -18 -5 -20 -2c-28 41 -52 113 -52 188c0 130 57 247 122 305c3 3 8 4 15 -1l8 -6c10 -8 11 -12 8 -15c-60 -66 -103 -166 -103 -280c0 -76 17 -120 42 -172c4 -8 -1 -10 -9 -13z" />
    <glyph glyph-name="parenright.num" horiz-adv-x="212" 
d="M106 739l11 4c13 5 18 5 20 2c28 -41 52 -113 52 -188c0 -130 -57 -247 -122 -305c-3 -3 -8 -4 -15 1l-8 6c-10 8 -11 12 -8 15c60 66 103 166 103 280c0 76 -17 120 -42 172c-4 8 1 10 9 13z" />
    <glyph glyph-name="period.num" horiz-adv-x="162" 
d="M92 321c-21 0 -36 15 -36 34c0 20 16 40 41 40c21 0 36 -14 36 -34c0 -19 -16 -40 -41 -40z" />
    <glyph glyph-name="comma.num" horiz-adv-x="162" 
d="M34 237l-6 7c-3 3 -5 9 -1 12c17 13 46 37 46 58c0 20 -20 19 -20 45c0 19 15 36 38 36c25 0 38 -18 38 -41c0 -45 -41 -95 -84 -121c-3 -2 -8 0 -11 4z" />
    <glyph glyph-name="zero.den" horiz-adv-x="360" 
d="M146 38c81 0 117 108 117 210c0 73 -29 110 -72 110c-81 0 -118 -110 -118 -211c0 -72 30 -109 73 -109zM145 -5c-76 0 -125 53 -125 147c0 139 58 260 172 260c76 0 123 -49 123 -147c0 -140 -54 -260 -170 -260z" />
    <glyph glyph-name="one.den" horiz-adv-x="360" 
d="M193 41h61c5 0 6 -2 4 -13l-2 -13c-2 -13 -3 -15 -7 -15h-179c-5 0 -6 2 -4 13l2 13c2 13 3 15 7 15h65l43 295l-91 -48c-4 -2 -10 3 -15 13l-4 8c-5 9 -5 17 -2 19l114 61c6 3 14 7 27 7h12c14 0 19 -2 18 -7z" />
    <glyph glyph-name="two.den" horiz-adv-x="360" 
d="M257 0h-233c-4 0 -7 1 -5 15l2 15c2 12 4 21 11 28l96 89c50 47 115 102 115 154c0 35 -27 56 -70 56c-28 0 -55 -7 -83 -20c-4 -2 -8 0 -13 11l-3 7c-4 9 -3 15 0 17c29 18 72 30 111 30c64 0 110 -34 110 -96c0 -66 -62 -127 -128 -185l-87 -77h182c6 0 7 -2 5 -14
l-2 -14c-2 -14 -4 -16 -8 -16z" />
    <glyph glyph-name="three.den" horiz-adv-x="361" 
d="M22 32l4 10c5 12 7 13 12 11c26 -10 57 -15 83 -15c29 0 54 8 73 22s30 34 30 58c0 21 -8 37 -21 48c-17 15 -45 22 -76 22h-22c-4 0 -6 1 -4 16l1 9c2 14 4 16 8 16h21c30 0 58 7 77 21c17 12 27 29 27 53c0 18 -5 31 -15 40c-13 12 -34 17 -57 17
c-41 0 -68 -14 -72 -16s-8 1 -11 12l-2 7c-4 13 -4 15 1 18c27 13 60 21 93 21c34 0 64 -8 85 -25c19 -15 30 -37 30 -67c0 -42 -30 -84 -80 -99c35 -7 69 -36 69 -87c0 -77 -68 -129 -157 -129c-36 0 -68 5 -99 16c-5 2 -4 7 2 21z" />
    <glyph glyph-name="four.den" horiz-adv-x="361" 
d="M297 100h-48l-14 -94c0 -4 -7 -6 -23 -6h-6c-17 0 -23 2 -23 6l14 94h-161c-14 0 -19 2 -18 8l3 25c1 10 5 20 11 29l151 227c4 5 10 7 25 7h10c16 0 24 -3 20 -8l-168 -244h132l13 88c1 5 8 6 23 6h6c17 0 24 -2 23 -6l-13 -88h48c6 0 7 -2 5 -14l-2 -14
c-2 -14 -4 -16 -8 -16z" />
    <glyph glyph-name="five.den" horiz-adv-x="360" 
d="M94 396h206c6 0 7 -2 5 -14l-2 -14c-2 -13 -5 -16 -8 -16h-156l-16 -106c12 2 25 3 37 3c41 0 76 -12 98 -36c16 -18 25 -41 25 -73c0 -84 -64 -145 -169 -145c-30 0 -66 5 -89 14c-3 1 -5 5 1 20l3 7c6 14 8 18 13 16c23 -7 44 -13 74 -13c32 0 57 7 76 19
c26 17 39 45 39 77c0 23 -6 38 -16 49c-16 17 -41 22 -73 22c-25 0 -52 -3 -75 -8z" />
    <glyph glyph-name="six.den" horiz-adv-x="361" 
d="M310 368l-3 -6c-6 -12 -8 -16 -14 -14c-19 6 -35 11 -57 11c-79 0 -118 -68 -137 -136c25 16 57 24 90 24c75 0 112 -41 112 -104c0 -74 -52 -148 -147 -148c-84 0 -121 58 -121 136c0 96 57 271 206 271c30 0 53 -5 72 -14c5 -2 6 -6 -1 -20zM92 180
c-4 -18 -6 -42 -6 -52c0 -47 17 -90 72 -90c61 0 89 52 89 100c0 36 -16 66 -68 66c-32 0 -64 -11 -87 -24z" />
    <glyph glyph-name="seven.den" horiz-adv-x="360" 
d="M252 352h-193c-6 0 -7 2 -5 14l2 14c2 13 5 16 8 16h227c14 0 18 -2 17 -7l-4 -27c-1 -9 -5 -18 -8 -24l-196 -332c-2 -4 -11 -6 -25 -6h-10c-15 0 -22 3 -20 7z" />
    <glyph glyph-name="eight.den" horiz-adv-x="361" 
d="M167 187c-45 -15 -93 -43 -93 -89c0 -37 32 -61 76 -61c50 0 96 31 96 74c0 41 -41 62 -79 76zM223 214c39 -17 76 -47 76 -97c0 -74 -73 -122 -155 -122c-66 0 -122 30 -122 95c0 55 43 99 104 120c-31 12 -59 42 -59 83c0 70 67 109 134 109c58 0 110 -29 110 -86
c0 -49 -44 -88 -88 -102zM181 236c39 15 78 37 78 72c0 30 -26 51 -64 51c-41 0 -75 -25 -75 -59c0 -32 29 -50 61 -64z" />
    <glyph glyph-name="nine.den" horiz-adv-x="361" 
d="M31 32l3 6c6 12 8 16 14 14c25 -10 40 -14 63 -14c19 0 37 4 52 11c47 21 70 80 82 125c-25 -16 -57 -24 -90 -24c-75 0 -112 41 -112 104c0 74 52 148 147 148c84 0 121 -58 121 -137c0 -77 -36 -212 -129 -254c-22 -10 -46 -16 -73 -16c-28 0 -61 7 -79 17
c-5 3 -6 6 1 20zM252 217c4 18 6 41 6 56c0 42 -17 86 -72 86c-61 0 -89 -52 -89 -100c0 -36 16 -66 68 -66c32 0 64 11 87 24z" />
    <glyph glyph-name="plus.den" horiz-adv-x="361" 
d="M147 181h-124c-3 0 -5 2 -3 16l1 6c2 14 3 16 7 16h124l17 121c1 4 4 6 17 6h7c13 0 17 -2 16 -6l-17 -121h124c3 0 5 -2 3 -16l-1 -6c-2 -14 -3 -16 -7 -16h-123l-17 -122c0 -4 -6 -6 -18 -6h-7c-12 0 -16 2 -16 6z" />
    <glyph glyph-name="minus.den" horiz-adv-x="360" 
d="M29 219h284c3 0 5 -2 3 -16l-1 -6c-2 -14 -3 -16 -7 -16h-284c-3 0 -5 2 -3 16l1 6c2 14 3 16 7 16z" />
    <glyph glyph-name="equal.den" horiz-adv-x="361" 
d="M37 275h284c3 0 5 -2 3 -16l-1 -6c-2 -14 -3 -16 -7 -16h-284c-3 0 -5 2 -3 16l1 6c2 14 3 16 7 16zM22 163h284c3 0 5 -2 3 -16l-1 -6c-2 -14 -3 -16 -7 -16h-284c-3 0 -5 2 -3 16l1 6c2 14 3 16 7 16z" />
    <glyph glyph-name="parenleft.den" horiz-adv-x="212" 
d="M131 -68l-11 -4c-13 -5 -18 -5 -20 -2c-28 41 -52 113 -52 188c0 130 57 247 122 305c3 3 8 4 15 -1l8 -6c10 -8 11 -12 8 -15c-60 -66 -103 -166 -103 -280c0 -76 17 -120 42 -172c4 -8 -1 -10 -9 -13z" />
    <glyph glyph-name="parenright.den" horiz-adv-x="212" 
d="M66 413l11 4c13 5 18 5 20 2c28 -41 52 -113 52 -188c0 -130 -57 -247 -122 -305c-3 -3 -8 -4 -15 1l-8 6c-10 8 -11 12 -8 15c60 66 103 166 103 280c0 76 -17 120 -42 172c-4 8 1 10 9 13z" />
    <glyph glyph-name="period.den" horiz-adv-x="162" 
d="M52 -5c-21 0 -36 15 -36 34c0 20 16 40 41 40c21 0 36 -14 36 -34c0 -19 -16 -40 -41 -40z" />
    <glyph glyph-name="comma.den" horiz-adv-x="162" 
d="M-6 -89l-6 7c-3 3 -5 9 -1 12c17 13 46 37 46 58c0 20 -20 19 -20 45c0 19 15 36 38 36c25 0 38 -18 38 -41c0 -45 -41 -95 -84 -121c-3 -2 -8 0 -11 4z" />
    <glyph glyph-name="fraction" unicode="&#x2044;" horiz-adv-x="323" 
d="M-76 -5l438 731c5 8 7 11 28 11h5c22 0 27 -2 20 -13l-440 -731c-5 -8 -11 -11 -31 -11h-5c-20 0 -22 3 -15 13z" />
    <glyph glyph-name="onehalf" unicode="&#xbd;" horiz-adv-x="904" 
d="M233 367h61c5 0 6 -2 4 -13l-2 -13c-2 -13 -3 -15 -7 -15h-179c-5 0 -6 2 -4 13l2 13c2 13 3 15 7 15h65l43 295l-91 -48c-4 -2 -10 3 -15 13l-4 8c-5 9 -5 17 -2 19l114 61c6 3 14 7 27 7h12c14 0 19 -2 18 -7zM214 -5l438 731c5 8 7 11 28 11h5c22 0 27 -2 20 -13
l-440 -731c-5 -8 -11 -11 -31 -11h-5c-20 0 -22 3 -15 13zM800 0h-233c-4 0 -7 1 -5 15l2 15c2 12 4 21 11 28l96 89c50 47 115 102 115 154c0 35 -27 56 -70 56c-28 0 -55 -7 -83 -20c-4 -2 -8 0 -13 11l-3 7c-4 9 -3 15 0 17c29 18 72 30 111 30c64 0 110 -34 110 -96
c0 -66 -62 -127 -128 -185l-87 -77h182c6 0 7 -2 5 -14l-2 -14c-2 -14 -4 -16 -8 -16z" />
    <glyph glyph-name="onequarter" unicode="&#xbc;" horiz-adv-x="904" 
d="M233 367h61c5 0 6 -2 4 -13l-2 -13c-2 -13 -3 -15 -7 -15h-179c-5 0 -6 2 -4 13l2 13c2 13 3 15 7 15h65l43 295l-91 -48c-4 -2 -10 3 -15 13l-4 8c-5 9 -5 17 -2 19l114 61c6 3 14 7 27 7h12c14 0 19 -2 18 -7zM214 -5l438 731c5 8 7 11 28 11h5c22 0 27 -2 20 -13
l-440 -731c-5 -8 -11 -11 -31 -11h-5c-20 0 -22 3 -15 13zM840 100h-48l-14 -94c0 -4 -7 -6 -23 -6h-6c-17 0 -23 2 -23 6l14 94h-161c-14 0 -19 2 -18 8l3 25c1 10 5 20 11 29l151 227c4 5 10 7 25 7h10c16 0 24 -3 20 -8l-168 -244h132l13 88c1 5 8 6 23 6h6
c17 0 24 -2 23 -6l-13 -88h48c6 0 7 -2 5 -14l-2 -14c-2 -14 -4 -16 -8 -16z" />
    <glyph glyph-name="threequarters" unicode="&#xbe;" horiz-adv-x="905" 
d="M62 358l4 10c5 12 7 13 12 11c26 -10 57 -15 83 -15c29 0 54 8 73 22s30 34 30 58c0 21 -8 37 -21 48c-17 15 -45 22 -76 22h-22c-4 0 -6 1 -4 16l1 9c2 14 4 16 8 16h21c30 0 58 7 77 21c17 12 27 29 27 53c0 18 -5 31 -15 40c-13 12 -34 17 -57 17
c-41 0 -68 -14 -72 -16s-8 1 -11 12l-2 7c-4 13 -4 15 1 18c27 13 60 21 93 21c34 0 64 -8 85 -25c19 -15 30 -37 30 -67c0 -42 -30 -84 -80 -99c35 -7 69 -36 69 -87c0 -77 -68 -129 -157 -129c-36 0 -68 5 -99 16c-5 2 -4 7 2 21zM215 -5l438 731c5 8 7 11 28 11h5
c22 0 27 -2 20 -13l-440 -731c-5 -8 -11 -11 -31 -11h-5c-20 0 -22 3 -15 13zM841 100h-48l-14 -94c0 -4 -7 -6 -23 -6h-6c-17 0 -23 2 -23 6l14 94h-161c-14 0 -19 2 -18 8l3 25c1 10 5 20 11 29l151 227c4 5 10 7 25 7h10c16 0 24 -3 20 -8l-168 -244h132l13 88
c1 5 8 6 23 6h6c17 0 24 -2 23 -6l-13 -88h48c6 0 7 -2 5 -14l-2 -14c-2 -14 -4 -16 -8 -16z" />
    <glyph glyph-name="onethird" unicode="&#x2153;" horiz-adv-x="904" 
d="M233 367h61c5 0 6 -2 4 -13l-2 -13c-2 -13 -3 -15 -7 -15h-179c-5 0 -6 2 -4 13l2 13c2 13 3 15 7 15h65l43 295l-91 -48c-4 -2 -10 3 -15 13l-4 8c-5 9 -5 17 -2 19l114 61c6 3 14 7 27 7h12c14 0 19 -2 18 -7zM214 -5l438 731c5 8 7 11 28 11h5c22 0 27 -2 20 -13
l-440 -731c-5 -8 -11 -11 -31 -11h-5c-20 0 -22 3 -15 13zM565 32l4 10c5 12 7 13 12 11c26 -10 57 -15 83 -15c29 0 54 8 73 22s30 34 30 58c0 21 -8 37 -21 48c-17 15 -45 22 -76 22h-22c-4 0 -6 1 -4 16l1 9c2 14 4 16 8 16h21c30 0 58 7 77 21c17 12 27 29 27 53
c0 18 -5 31 -15 40c-13 12 -34 17 -57 17c-41 0 -68 -14 -72 -16s-8 1 -11 12l-2 7c-4 13 -4 15 1 18c27 13 60 21 93 21c34 0 64 -8 85 -25c19 -15 30 -37 30 -67c0 -42 -30 -84 -80 -99c35 -7 69 -36 69 -87c0 -77 -68 -129 -157 -129c-36 0 -68 5 -99 16c-5 2 -4 7 2 21z
" />
    <glyph glyph-name="twothirds" unicode="&#x2154;" horiz-adv-x="904" 
d="M297 326h-233c-4 0 -7 1 -5 15l2 15c2 12 4 21 11 28l96 89c50 47 115 102 115 154c0 35 -27 56 -70 56c-28 0 -55 -7 -83 -20c-4 -2 -8 0 -13 11l-3 7c-4 9 -3 15 0 17c29 18 72 30 111 30c64 0 110 -34 110 -96c0 -66 -62 -127 -128 -185l-87 -77h182c6 0 7 -2 5 -14
l-2 -14c-2 -14 -4 -16 -8 -16zM214 -5l438 731c5 8 7 11 28 11h5c22 0 27 -2 20 -13l-440 -731c-5 -8 -11 -11 -31 -11h-5c-20 0 -22 3 -15 13zM565 32l4 10c5 12 7 13 12 11c26 -10 57 -15 83 -15c29 0 54 8 73 22s30 34 30 58c0 21 -8 37 -21 48c-17 15 -45 22 -76 22h-22
c-4 0 -6 1 -4 16l1 9c2 14 4 16 8 16h21c30 0 58 7 77 21c17 12 27 29 27 53c0 18 -5 31 -15 40c-13 12 -34 17 -57 17c-41 0 -68 -14 -72 -16s-8 1 -11 12l-2 7c-4 13 -4 15 1 18c27 13 60 21 93 21c34 0 64 -8 85 -25c19 -15 30 -37 30 -67c0 -42 -30 -84 -80 -99
c35 -7 69 -36 69 -87c0 -77 -68 -129 -157 -129c-36 0 -68 5 -99 16c-5 2 -4 7 2 21z" />
    <glyph glyph-name="uni2155" unicode="&#x2155;" horiz-adv-x="904" 
d="M233 367h61c5 0 6 -2 4 -13l-2 -13c-2 -13 -3 -15 -7 -15h-179c-5 0 -6 2 -4 13l2 13c2 13 3 15 7 15h65l43 295l-91 -48c-4 -2 -10 3 -15 13l-4 8c-5 9 -5 17 -2 19l114 61c6 3 14 7 27 7h12c14 0 19 -2 18 -7zM214 -5l438 731c5 8 7 11 28 11h5c22 0 27 -2 20 -13
l-440 -731c-5 -8 -11 -11 -31 -11h-5c-20 0 -22 3 -15 13zM637 396h206c6 0 7 -2 5 -14l-2 -14c-2 -13 -5 -16 -8 -16h-156l-16 -106c12 2 25 3 37 3c41 0 76 -12 98 -36c16 -18 25 -41 25 -73c0 -84 -64 -145 -169 -145c-30 0 -66 5 -89 14c-3 1 -5 5 1 20l3 7
c6 14 8 18 13 16c23 -7 44 -13 74 -13c32 0 57 7 76 19c26 17 39 45 39 77c0 23 -6 38 -16 49c-16 17 -41 22 -73 22c-25 0 -52 -3 -75 -8z" />
    <glyph glyph-name="uni2156" unicode="&#x2156;" horiz-adv-x="904" 
d="M297 326h-233c-4 0 -7 1 -5 15l2 15c2 12 4 21 11 28l96 89c50 47 115 102 115 154c0 35 -27 56 -70 56c-28 0 -55 -7 -83 -20c-4 -2 -8 0 -13 11l-3 7c-4 9 -3 15 0 17c29 18 72 30 111 30c64 0 110 -34 110 -96c0 -66 -62 -127 -128 -185l-87 -77h182c6 0 7 -2 5 -14
l-2 -14c-2 -14 -4 -16 -8 -16zM214 -5l438 731c5 8 7 11 28 11h5c22 0 27 -2 20 -13l-440 -731c-5 -8 -11 -11 -31 -11h-5c-20 0 -22 3 -15 13zM637 396h206c6 0 7 -2 5 -14l-2 -14c-2 -13 -5 -16 -8 -16h-156l-16 -106c12 2 25 3 37 3c41 0 76 -12 98 -36
c16 -18 25 -41 25 -73c0 -84 -64 -145 -169 -145c-30 0 -66 5 -89 14c-3 1 -5 5 1 20l3 7c6 14 8 18 13 16c23 -7 44 -13 74 -13c32 0 57 7 76 19c26 17 39 45 39 77c0 23 -6 38 -16 49c-16 17 -41 22 -73 22c-25 0 -52 -3 -75 -8z" />
    <glyph glyph-name="uni2157" unicode="&#x2157;" horiz-adv-x="904" 
d="M62 358l4 10c5 12 7 13 12 11c26 -10 57 -15 83 -15c29 0 54 8 73 22s30 34 30 58c0 21 -8 37 -21 48c-17 15 -45 22 -76 22h-22c-4 0 -6 1 -4 16l1 9c2 14 4 16 8 16h21c30 0 58 7 77 21c17 12 27 29 27 53c0 18 -5 31 -15 40c-13 12 -34 17 -57 17
c-41 0 -68 -14 -72 -16s-8 1 -11 12l-2 7c-4 13 -4 15 1 18c27 13 60 21 93 21c34 0 64 -8 85 -25c19 -15 30 -37 30 -67c0 -42 -30 -84 -80 -99c35 -7 69 -36 69 -87c0 -77 -68 -129 -157 -129c-36 0 -68 5 -99 16c-5 2 -4 7 2 21zM215 -5l438 731c5 8 7 11 28 11h5
c22 0 27 -2 20 -13l-440 -731c-5 -8 -11 -11 -31 -11h-5c-20 0 -22 3 -15 13zM638 396h206c6 0 7 -2 5 -14l-2 -14c-2 -13 -5 -16 -8 -16h-156l-16 -106c12 2 25 3 37 3c41 0 76 -12 98 -36c16 -18 25 -41 25 -73c0 -84 -64 -145 -169 -145c-30 0 -66 5 -89 14
c-3 1 -5 5 1 20l3 7c6 14 8 18 13 16c23 -7 44 -13 74 -13c32 0 57 7 76 19c26 17 39 45 39 77c0 23 -6 38 -16 49c-16 17 -41 22 -73 22c-25 0 -52 -3 -75 -8z" />
    <glyph glyph-name="uni2158" unicode="&#x2158;" horiz-adv-x="904" 
d="M337 426h-48l-14 -94c0 -4 -7 -6 -23 -6h-6c-17 0 -23 2 -23 6l14 94h-161c-14 0 -19 2 -18 8l3 25c1 10 5 20 11 29l151 227c4 5 10 7 25 7h10c16 0 24 -3 20 -8l-168 -244h132l13 88c1 5 8 6 23 6h6c17 0 24 -2 23 -6l-13 -88h48c6 0 7 -2 5 -14l-2 -14
c-2 -14 -4 -16 -8 -16zM215 -5l438 731c5 8 7 11 28 11h5c22 0 27 -2 20 -13l-440 -731c-5 -8 -11 -11 -31 -11h-5c-20 0 -22 3 -15 13zM638 396h206c6 0 7 -2 5 -14l-2 -14c-2 -13 -5 -16 -8 -16h-156l-16 -106c12 2 25 3 37 3c41 0 76 -12 98 -36c16 -18 25 -41 25 -73
c0 -84 -64 -145 -169 -145c-30 0 -66 5 -89 14c-3 1 -5 5 1 20l3 7c6 14 8 18 13 16c23 -7 44 -13 74 -13c32 0 57 7 76 19c26 17 39 45 39 77c0 23 -6 38 -16 49c-16 17 -41 22 -73 22c-25 0 -52 -3 -75 -8z" />
    <glyph glyph-name="uni2159" unicode="&#x2159;" horiz-adv-x="904" 
d="M233 367h61c5 0 6 -2 4 -13l-2 -13c-2 -13 -3 -15 -7 -15h-179c-5 0 -6 2 -4 13l2 13c2 13 3 15 7 15h65l43 295l-91 -48c-4 -2 -10 3 -15 13l-4 8c-5 9 -5 17 -2 19l114 61c6 3 14 7 27 7h12c14 0 19 -2 18 -7zM214 -5l438 731c5 8 7 11 28 11h5c22 0 27 -2 20 -13
l-440 -731c-5 -8 -11 -11 -31 -11h-5c-20 0 -22 3 -15 13zM853 368l-3 -6c-6 -12 -8 -16 -14 -14c-19 6 -35 11 -57 11c-79 0 -118 -68 -137 -136c25 16 57 24 90 24c75 0 112 -41 112 -104c0 -74 -52 -148 -147 -148c-84 0 -121 58 -121 136c0 96 57 271 206 271
c30 0 53 -5 72 -14c5 -2 6 -6 -1 -20zM635 180c-4 -18 -6 -42 -6 -52c0 -47 17 -90 72 -90c61 0 89 52 89 100c0 36 -16 66 -68 66c-32 0 -64 -11 -87 -24z" />
    <glyph glyph-name="uni215A" unicode="&#x215a;" horiz-adv-x="904" 
d="M134 722h206c6 0 7 -2 5 -14l-2 -14c-2 -13 -5 -16 -8 -16h-156l-16 -106c12 2 25 3 37 3c41 0 76 -12 98 -36c16 -18 25 -41 25 -73c0 -84 -64 -145 -169 -145c-30 0 -66 5 -89 14c-3 1 -5 5 1 20l3 7c6 14 8 18 13 16c23 -7 44 -13 74 -13c32 0 57 7 76 19
c26 17 39 45 39 77c0 23 -6 38 -16 49c-16 17 -41 22 -73 22c-25 0 -52 -3 -75 -8zM214 -5l438 731c5 8 7 11 28 11h5c22 0 27 -2 20 -13l-440 -731c-5 -8 -11 -11 -31 -11h-5c-20 0 -22 3 -15 13zM853 368l-3 -6c-6 -12 -8 -16 -14 -14c-19 6 -35 11 -57 11
c-79 0 -118 -68 -137 -136c25 16 57 24 90 24c75 0 112 -41 112 -104c0 -74 -52 -148 -147 -148c-84 0 -121 58 -121 136c0 96 57 271 206 271c30 0 53 -5 72 -14c5 -2 6 -6 -1 -20zM635 180c-4 -18 -6 -42 -6 -52c0 -47 17 -90 72 -90c61 0 89 52 89 100
c0 36 -16 66 -68 66c-32 0 -64 -11 -87 -24z" />
    <glyph glyph-name="oneeighth" unicode="&#x215b;" horiz-adv-x="904" 
d="M233 367h61c5 0 6 -2 4 -13l-2 -13c-2 -13 -3 -15 -7 -15h-179c-5 0 -6 2 -4 13l2 13c2 13 3 15 7 15h65l43 295l-91 -48c-4 -2 -10 3 -15 13l-4 8c-5 9 -5 17 -2 19l114 61c6 3 14 7 27 7h12c14 0 19 -2 18 -7zM214 -5l438 731c5 8 7 11 28 11h5c22 0 27 -2 20 -13
l-440 -731c-5 -8 -11 -11 -31 -11h-5c-20 0 -22 3 -15 13zM710 187c-45 -15 -93 -43 -93 -89c0 -37 32 -61 76 -61c50 0 96 31 96 74c0 41 -41 62 -79 76zM766 214c39 -17 76 -47 76 -97c0 -74 -73 -122 -155 -122c-66 0 -122 30 -122 95c0 55 43 99 104 120
c-31 12 -59 42 -59 83c0 70 67 109 134 109c58 0 110 -29 110 -86c0 -49 -44 -88 -88 -102zM724 236c39 15 78 37 78 72c0 30 -26 51 -64 51c-41 0 -75 -25 -75 -59c0 -32 29 -50 61 -64z" />
    <glyph glyph-name="threeeighths" unicode="&#x215c;" horiz-adv-x="905" 
d="M62 358l4 10c5 12 7 13 12 11c26 -10 57 -15 83 -15c29 0 54 8 73 22s30 34 30 58c0 21 -8 37 -21 48c-17 15 -45 22 -76 22h-22c-4 0 -6 1 -4 16l1 9c2 14 4 16 8 16h21c30 0 58 7 77 21c17 12 27 29 27 53c0 18 -5 31 -15 40c-13 12 -34 17 -57 17
c-41 0 -68 -14 -72 -16s-8 1 -11 12l-2 7c-4 13 -4 15 1 18c27 13 60 21 93 21c34 0 64 -8 85 -25c19 -15 30 -37 30 -67c0 -42 -30 -84 -80 -99c35 -7 69 -36 69 -87c0 -77 -68 -129 -157 -129c-36 0 -68 5 -99 16c-5 2 -4 7 2 21zM215 -5l438 731c5 8 7 11 28 11h5
c22 0 27 -2 20 -13l-440 -731c-5 -8 -11 -11 -31 -11h-5c-20 0 -22 3 -15 13zM711 187c-45 -15 -93 -43 -93 -89c0 -37 32 -61 76 -61c50 0 96 31 96 74c0 41 -41 62 -79 76zM767 214c39 -17 76 -47 76 -97c0 -74 -73 -122 -155 -122c-66 0 -122 30 -122 95
c0 55 43 99 104 120c-31 12 -59 42 -59 83c0 70 67 109 134 109c58 0 110 -29 110 -86c0 -49 -44 -88 -88 -102zM725 236c39 15 78 37 78 72c0 30 -26 51 -64 51c-41 0 -75 -25 -75 -59c0 -32 29 -50 61 -64z" />
    <glyph glyph-name="fiveeighths" unicode="&#x215d;" horiz-adv-x="904" 
d="M134 722h206c6 0 7 -2 5 -14l-2 -14c-2 -13 -5 -16 -8 -16h-156l-16 -106c12 2 25 3 37 3c41 0 76 -12 98 -36c16 -18 25 -41 25 -73c0 -84 -64 -145 -169 -145c-30 0 -66 5 -89 14c-3 1 -5 5 1 20l3 7c6 14 8 18 13 16c23 -7 44 -13 74 -13c32 0 57 7 76 19
c26 17 39 45 39 77c0 23 -6 38 -16 49c-16 17 -41 22 -73 22c-25 0 -52 -3 -75 -8zM214 -5l438 731c5 8 7 11 28 11h5c22 0 27 -2 20 -13l-440 -731c-5 -8 -11 -11 -31 -11h-5c-20 0 -22 3 -15 13zM710 187c-45 -15 -93 -43 -93 -89c0 -37 32 -61 76 -61c50 0 96 31 96 74
c0 41 -41 62 -79 76zM766 214c39 -17 76 -47 76 -97c0 -74 -73 -122 -155 -122c-66 0 -122 30 -122 95c0 55 43 99 104 120c-31 12 -59 42 -59 83c0 70 67 109 134 109c58 0 110 -29 110 -86c0 -49 -44 -88 -88 -102zM724 236c39 15 78 37 78 72c0 30 -26 51 -64 51
c-41 0 -75 -25 -75 -59c0 -32 29 -50 61 -64z" />
    <glyph glyph-name="seveneighths" unicode="&#x215e;" horiz-adv-x="904" 
d="M292 678h-193c-6 0 -7 2 -5 14l2 14c2 13 5 16 8 16h227c14 0 18 -2 17 -7l-4 -27c-1 -9 -5 -18 -8 -24l-196 -332c-2 -4 -11 -6 -25 -6h-10c-15 0 -22 3 -20 7zM214 -5l438 731c5 8 7 11 28 11h5c22 0 27 -2 20 -13l-440 -731c-5 -8 -11 -11 -31 -11h-5
c-20 0 -22 3 -15 13zM710 187c-45 -15 -93 -43 -93 -89c0 -37 32 -61 76 -61c50 0 96 31 96 74c0 41 -41 62 -79 76zM766 214c39 -17 76 -47 76 -97c0 -74 -73 -122 -155 -122c-66 0 -122 30 -122 95c0 55 43 99 104 120c-31 12 -59 42 -59 83c0 70 67 109 134 109
c58 0 110 -29 110 -86c0 -49 -44 -88 -88 -102zM724 236c39 15 78 37 78 72c0 30 -26 51 -64 51c-41 0 -75 -25 -75 -59c0 -32 29 -50 61 -64z" />
    <glyph glyph-name="Agrave" unicode="&#xc0;" horiz-adv-x="614" 
d="M472 10l-35 184h-302l-85 -184c-4 -8 -12 -10 -36 -10h-5c-27 0 -29 4 -26 11l333 696c5 11 10 13 41 13h6c29 0 39 -2 41 -13l143 -696c2 -9 -3 -11 -31 -11h-10c-28 0 -33 2 -34 10zM353 657l-192 -407h266zM321 913h15c26 0 29 -3 32 -10l49 -118c2 -5 -5 -7 -21 -7
h-4c-19 0 -22 1 -25 6l-70 119c-4 7 0 10 24 10z" />
    <glyph glyph-name="Aacute" unicode="&#xc1;" horiz-adv-x="614" 
d="M472 10l-35 184h-302l-85 -184c-4 -8 -12 -10 -36 -10h-5c-27 0 -29 4 -26 11l333 696c5 11 10 13 41 13h6c29 0 39 -2 41 -13l143 -696c2 -9 -3 -11 -31 -11h-10c-28 0 -33 2 -34 10zM353 657l-192 -407h266zM441 913h11c26 0 30 -3 24 -10l-104 -119
c-5 -5 -8 -6 -27 -6h-4c-16 0 -22 2 -18 8l82 117c5 7 10 10 36 10z" />
    <glyph glyph-name="Acircumflex" unicode="&#xc2;" horiz-adv-x="614" 
d="M472 10l-35 184h-302l-85 -184c-4 -8 -12 -10 -36 -10h-5c-27 0 -29 4 -26 11l333 696c5 11 10 13 41 13h6c29 0 39 -2 41 -13l143 -696c2 -9 -3 -11 -31 -11h-10c-28 0 -33 2 -34 10zM353 657l-192 -407h266zM367 921h26c19 0 25 -3 31 -10l78 -100c3 -4 2 -7 -6 -15
l-6 -6c-10 -10 -12 -11 -16 -7l-97 97l-131 -97c-5 -4 -8 -2 -14 7l-4 6c-6 9 -6 11 -2 15l106 100c8 7 16 10 35 10z" />
    <glyph glyph-name="Atilde" unicode="&#xc3;" horiz-adv-x="614" 
d="M472 10l-35 184h-302l-85 -184c-4 -8 -12 -10 -36 -10h-5c-27 0 -29 4 -26 11l333 696c5 11 10 13 41 13h6c29 0 39 -2 41 -13l143 -696c2 -9 -3 -11 -31 -11h-10c-28 0 -33 2 -34 10zM353 657l-192 -407h266zM523 857c-21 -23 -55 -44 -90 -44c-56 0 -79 38 -123 38
c-21 0 -38 -8 -59 -28c-4 -4 -9 -3 -17 8l-4 6c-5 8 -6 13 -1 18c21 23 55 44 90 44c54 0 79 -38 123 -38c20 0 37 8 61 30c4 3 7 2 14 -8l5 -7c6 -9 6 -14 1 -19z" />
    <glyph glyph-name="Adieresis" unicode="&#xc4;" horiz-adv-x="614" 
d="M472 10l-35 184h-302l-85 -184c-4 -8 -12 -10 -36 -10h-5c-27 0 -29 4 -26 11l333 696c5 11 10 13 41 13h6c29 0 39 -2 41 -13l143 -696c2 -9 -3 -11 -31 -11h-10c-28 0 -33 2 -34 10zM353 657l-192 -407h266zM228 841c0 26 22 53 53 53c24 0 41 -20 41 -43
c0 -27 -21 -52 -54 -52c-23 0 -40 19 -40 42zM426 841c0 26 22 53 53 53c24 0 41 -20 41 -43c0 -27 -22 -52 -54 -52c-23 0 -40 19 -40 42z" />
    <glyph glyph-name="Amacron" unicode="&#x100;" horiz-adv-x="614" 
d="M472 10l-35 184h-302l-85 -184c-4 -8 -12 -10 -36 -10h-5c-27 0 -29 4 -26 11l333 696c5 11 10 13 41 13h6c29 0 39 -2 41 -13l143 -696c2 -9 -3 -11 -31 -11h-10c-28 0 -33 2 -34 10zM353 657l-192 -407h266zM502 823h-254c-7 0 -8 4 -4 24l1 5c4 20 6 22 12 22h254
c7 0 8 -2 4 -24l-1 -5c-4 -20 -6 -22 -12 -22z" />
    <glyph glyph-name="Abreve" unicode="&#x102;" horiz-adv-x="614" 
d="M472 10l-35 184h-302l-85 -184c-4 -8 -12 -10 -36 -10h-5c-27 0 -29 4 -26 11l333 696c5 11 10 13 41 13h6c29 0 39 -2 41 -13l143 -696c2 -9 -3 -11 -31 -11h-10c-28 0 -33 2 -34 10zM353 657l-192 -407h266zM372 795c-69 0 -121 36 -121 95c0 5 0 10 1 16c1 4 1 6 18 6
h10c17 0 20 -1 20 -8c0 -44 26 -68 78 -68c51 0 81 24 91 69c1 6 5 7 22 7h8c17 0 20 -3 19 -8c-12 -72 -68 -109 -146 -109z" />
    <glyph glyph-name="Acaron" unicode="&#x1cd;" horiz-adv-x="614" 
d="M472 10l-35 184h-302l-85 -184c-4 -8 -12 -10 -36 -10h-5c-27 0 -29 4 -26 11l333 696c5 11 10 13 41 13h6c29 0 39 -2 41 -13l143 -696c2 -9 -3 -11 -31 -11h-10c-28 0 -33 2 -34 10zM353 657l-192 -407h266zM377 782h-26c-17 0 -25 2 -32 10l-78 100c-3 4 -3 7 6 16
l6 6c9 9 12 10 16 6l100 -97l128 97c6 4 8 3 14 -6l4 -6c7 -10 7 -12 2 -16l-106 -100c-8 -7 -17 -10 -34 -10z" />
    <glyph glyph-name="Aring" unicode="&#xc5;" horiz-adv-x="613" 
d="M280 772c0 52 44 100 105 100c46 0 81 -33 81 -78c0 -39 -24 -75 -62 -92l142 -691c1 -7 -2 -11 -30 -11h-10c-26 0 -33 2 -35 10l-34 184h-302l-86 -184c-4 -8 -12 -10 -35 -10h-5c-26 0 -29 4 -26 11l333 693c-23 13 -36 40 -36 68zM352 657l-191 -407h266zM380 833
c-31 0 -58 -24 -58 -60c0 -26 20 -42 44 -42c30 0 56 25 56 59c0 24 -16 43 -42 43z" />
    <glyph glyph-name="Aringacute" unicode="&#x1fa;" horiz-adv-x="614" 
d="M275 772c0 52 44 100 105 100c46 0 81 -33 81 -78c0 -39 -24 -75 -62 -92l142 -691c1 -7 -2 -11 -30 -11h-10c-26 0 -33 2 -35 10l-34 184h-302l-86 -184c-4 -8 -12 -10 -35 -10h-5c-26 0 -29 4 -26 11l333 693c-23 13 -36 40 -36 68zM347 657l-191 -407h266zM375 833
c-31 0 -58 -24 -58 -60c0 -26 20 -42 44 -42c30 0 56 25 56 59c0 24 -16 43 -42 43zM441 1034h11c26 0 30 -3 24 -10l-104 -119c-5 -5 -8 -6 -27 -6h-4c-16 0 -22 2 -18 8l82 117c5 7 10 10 36 10z" />
    <glyph glyph-name="Aogonek" unicode="&#x104;" horiz-adv-x="614" 
d="M518 -214c-22 -10 -46 -15 -73 -15c-55 0 -86 33 -86 81c0 61 50 125 113 157l-35 185h-302l-85 -184c-4 -8 -12 -10 -36 -10h-5c-27 0 -29 4 -26 11l333 696c5 11 10 13 41 13h6c29 0 39 -2 41 -13l143 -696c1 -6 0 -9 -8 -10c-61 -10 -122 -68 -122 -140
c0 -29 18 -46 48 -46c17 0 34 5 50 10c6 2 8 0 8 -16v-5c0 -12 -1 -16 -5 -18zM353 657l-192 -407h266z" />
    <glyph glyph-name="AE" unicode="&#xc6;" horiz-adv-x="877" 
d="M491 720h378c8 0 10 -3 6 -26l-1 -6c-4 -22 -6 -25 -13 -25h-310l-38 -270h263c7 0 10 -3 6 -26l-1 -6c-4 -22 -6 -25 -13 -25h-263l-39 -279h314c7 0 10 -3 6 -26l-1 -6c-4 -22 -6 -25 -13 -25h-382l28 199h-250l-131 -189c-5 -7 -13 -10 -38 -10h-6c-28 0 -30 4 -25 11
l489 698c7 9 12 11 34 11zM207 256h219l55 392z" />
    <glyph glyph-name="AEacute" unicode="&#x1fc;" horiz-adv-x="877" 
d="M491 720h378c8 0 10 -3 6 -26l-1 -6c-4 -22 -6 -25 -13 -25h-310l-38 -270h263c7 0 10 -3 6 -26l-1 -6c-4 -22 -6 -25 -13 -25h-263l-39 -279h314c7 0 10 -3 6 -26l-1 -6c-4 -22 -6 -25 -13 -25h-382l28 199h-250l-131 -189c-5 -7 -13 -10 -38 -10h-6c-28 0 -30 4 -25 11
l489 698c7 9 12 11 34 11zM207 256h219l55 392zM719 913h11c26 0 30 -3 24 -10l-104 -119c-5 -5 -8 -6 -27 -6h-4c-16 0 -22 2 -18 8l82 117c5 7 10 10 36 10z" />
    <glyph glyph-name="Cacute" unicode="&#x106;" horiz-adv-x="552" 
d="M399 671c-204 0 -282 -224 -282 -403c0 -142 62 -219 192 -219c48 0 100 12 144 33c8 4 12 -2 15 -19l2 -10c3 -16 4 -21 -4 -25c-56 -27 -114 -38 -179 -38c-159 0 -241 111 -241 280c0 209 110 460 357 460c58 0 112 -15 157 -44c6 -4 5 -6 -5 -24l-7 -13
c-9 -16 -12 -18 -19 -14c-48 25 -85 36 -130 36zM466 913h11c26 0 30 -3 24 -10l-104 -119c-5 -5 -8 -6 -27 -6h-4c-16 0 -22 2 -18 8l82 117c5 7 10 10 36 10z" />
    <glyph glyph-name="Ccedilla" unicode="&#xc7;" horiz-adv-x="552" 
d="M224 -109l27 101c-136 15 -205 122 -205 278c0 209 110 460 357 460c58 0 112 -15 157 -44c6 -4 5 -6 -5 -24l-7 -13c-9 -16 -12 -18 -19 -14c-48 25 -85 36 -130 36c-204 0 -282 -224 -282 -403c0 -142 62 -219 192 -219c48 0 100 12 144 33c8 4 12 -2 15 -19l2 -10
c3 -16 4 -21 -4 -25c-53 -26 -108 -37 -169 -38l-16 -57c8 1 18 2 28 2c48 0 78 -27 78 -68c0 -63 -51 -100 -122 -100c-27 0 -54 6 -68 12c-4 2 -4 5 0 17l2 6c5 14 7 15 12 14c17 -5 35 -7 52 -7c29 0 68 10 68 50c1 26 -21 37 -55 37c-19 0 -38 -2 -52 -5z" />
    <glyph glyph-name="Ccircumflex" unicode="&#x108;" horiz-adv-x="552" 
d="M399 671c-204 0 -282 -224 -282 -403c0 -142 62 -219 192 -219c48 0 100 12 144 33c8 4 12 -2 15 -19l2 -10c3 -16 4 -21 -4 -25c-56 -27 -114 -38 -179 -38c-159 0 -241 111 -241 280c0 209 110 460 357 460c58 0 112 -15 157 -44c6 -4 5 -6 -5 -24l-7 -13
c-9 -16 -12 -18 -19 -14c-48 25 -85 36 -130 36zM420 921h26c19 0 25 -3 31 -10l78 -100c3 -4 2 -7 -6 -15l-6 -6c-10 -10 -12 -11 -16 -7l-97 97l-131 -97c-5 -4 -8 -2 -14 7l-4 6c-6 9 -6 11 -2 15l106 100c8 7 16 10 35 10z" />
    <glyph glyph-name="Ccaron" unicode="&#x10c;" horiz-adv-x="552" 
d="M399 671c-204 0 -282 -224 -282 -403c0 -142 62 -219 192 -219c48 0 100 12 144 33c8 4 12 -2 15 -19l2 -10c3 -16 4 -21 -4 -25c-56 -27 -114 -38 -179 -38c-159 0 -241 111 -241 280c0 209 110 460 357 460c58 0 112 -15 157 -44c6 -4 5 -6 -5 -24l-7 -13
c-9 -16 -12 -18 -19 -14c-48 25 -85 36 -130 36zM420 782h-26c-17 0 -25 2 -32 10l-78 100c-3 4 -3 7 6 16l6 6c9 9 12 10 16 6l100 -97l128 97c6 4 8 3 14 -6l4 -6c7 -10 7 -12 2 -16l-106 -100c-8 -7 -17 -10 -34 -10z" />
    <glyph glyph-name="Cdotaccent" unicode="&#x10a;" horiz-adv-x="552" 
d="M399 671c-204 0 -282 -224 -282 -403c0 -142 62 -219 192 -219c48 0 100 12 144 33c8 4 12 -2 15 -19l2 -10c3 -16 4 -21 -4 -25c-56 -27 -114 -38 -179 -38c-159 0 -241 111 -241 280c0 209 110 460 357 460c58 0 112 -15 157 -44c6 -4 5 -6 -5 -24l-7 -13
c-9 -16 -12 -18 -19 -14c-48 25 -85 36 -130 36zM379 836c0 26 23 51 53 51c23 0 40 -19 40 -42c0 -27 -23 -51 -51 -51c-25 0 -42 19 -42 42z" />
    <glyph glyph-name="Dcaron" unicode="&#x10e;" horiz-adv-x="633" 
d="M137 720h159c128 0 202 -31 252 -94c34 -44 52 -106 52 -182c0 -133 -35 -269 -135 -362c-65 -60 -147 -82 -269 -82h-160zM198 664l-86 -608h86c105 0 164 19 218 66c83 73 113 199 113 318c0 65 -15 118 -46 156c-39 47 -93 68 -201 68h-84zM383 782h-26
c-17 0 -25 2 -32 10l-78 100c-3 4 -3 7 6 16l6 6c9 9 12 10 16 6l100 -97l128 97c6 4 8 3 14 -6l4 -6c7 -10 7 -12 2 -16l-106 -100c-8 -7 -17 -10 -34 -10z" />
    <glyph glyph-name="Dcroat" unicode="&#x110;" horiz-adv-x="639" 
d="M144 720h159c128 0 202 -31 252 -94c34 -44 52 -106 52 -182c0 -133 -35 -269 -135 -362c-65 -60 -147 -82 -269 -82h-160l47 339h-56c-7 0 -8 3 -5 23l1 6c3 20 4 22 11 22h56zM205 664l-39 -274h165c7 0 8 -3 5 -23l-1 -6c-3 -20 -4 -22 -11 -22h-165l-40 -283h86
c105 0 163 22 217 69c83 73 114 196 114 315c0 65 -15 118 -46 156c-39 47 -93 68 -201 68h-84z" />
    <glyph glyph-name="Eth" unicode="&#xd0;" horiz-adv-x="639" 
d="M144 720h159c128 0 202 -31 252 -94c34 -44 52 -106 52 -182c0 -133 -35 -269 -135 -362c-65 -60 -147 -82 -269 -82h-160l47 339h-56c-7 0 -8 3 -5 23l1 6c3 20 4 22 11 22h56zM205 664l-39 -274h165c7 0 8 -3 5 -23l-1 -6c-3 -20 -4 -22 -11 -22h-165l-40 -283h86
c105 0 163 22 217 69c83 73 114 196 114 315c0 65 -15 118 -46 156c-39 47 -93 68 -201 68h-84z" />
    <glyph glyph-name="Egrave" unicode="&#xc8;" horiz-adv-x="523" 
d="M507 663h-310l-38 -270h263c7 0 10 -3 6 -26l-1 -6c-4 -22 -6 -25 -13 -25h-263l-39 -279h314c7 0 10 -3 6 -26l-1 -6c-4 -22 -6 -25 -13 -25h-382l101 720h378c8 0 10 -3 6 -26l-1 -6c-4 -22 -6 -25 -13 -25zM297 913h15c26 0 29 -3 32 -10l49 -118c2 -5 -5 -7 -21 -7
h-4c-19 0 -22 1 -25 6l-70 119c-4 7 0 10 24 10z" />
    <glyph glyph-name="Eacute" unicode="&#xc9;" horiz-adv-x="523" 
d="M507 663h-310l-38 -270h263c7 0 10 -3 6 -26l-1 -6c-4 -22 -6 -25 -13 -25h-263l-39 -279h314c7 0 10 -3 6 -26l-1 -6c-4 -22 -6 -25 -13 -25h-382l101 720h378c8 0 10 -3 6 -26l-1 -6c-4 -22 -6 -25 -13 -25zM397 913h11c26 0 30 -3 24 -10l-104 -119
c-5 -5 -8 -6 -27 -6h-4c-16 0 -22 2 -18 8l82 117c5 7 10 10 36 10z" />
    <glyph glyph-name="Ecircumflex" unicode="&#xca;" horiz-adv-x="523" 
d="M507 663h-310l-38 -270h263c7 0 10 -3 6 -26l-1 -6c-4 -22 -6 -25 -13 -25h-263l-39 -279h314c7 0 10 -3 6 -26l-1 -6c-4 -22 -6 -25 -13 -25h-382l101 720h378c8 0 10 -3 6 -26l-1 -6c-4 -22 -6 -25 -13 -25zM344 921h26c19 0 25 -3 31 -10l78 -100c3 -4 2 -7 -6 -15
l-6 -6c-10 -10 -12 -11 -16 -7l-97 97l-131 -97c-5 -4 -8 -2 -14 7l-4 6c-6 9 -6 11 -2 15l106 100c8 7 16 10 35 10z" />
    <glyph glyph-name="Ecaron" unicode="&#x11a;" horiz-adv-x="523" 
d="M507 663h-310l-38 -270h263c7 0 10 -3 6 -26l-1 -6c-4 -22 -6 -25 -13 -25h-263l-39 -279h314c7 0 10 -3 6 -26l-1 -6c-4 -22 -6 -25 -13 -25h-382l101 720h378c8 0 10 -3 6 -26l-1 -6c-4 -22 -6 -25 -13 -25zM352 782h-26c-17 0 -25 2 -32 10l-78 100c-3 4 -3 7 6 16
l6 6c9 9 12 10 16 6l100 -97l128 97c6 4 8 3 14 -6l4 -6c7 -10 7 -12 2 -16l-106 -100c-8 -7 -17 -10 -34 -10z" />
    <glyph glyph-name="Edieresis" unicode="&#xcb;" horiz-adv-x="523" 
d="M507 663h-310l-38 -270h263c7 0 10 -3 6 -26l-1 -6c-4 -22 -6 -25 -13 -25h-263l-39 -279h314c7 0 10 -3 6 -26l-1 -6c-4 -22 -6 -25 -13 -25h-382l101 720h378c8 0 10 -3 6 -26l-1 -6c-4 -22 -6 -25 -13 -25zM201 841c0 26 22 53 53 53c24 0 41 -20 41 -43
c0 -27 -21 -52 -54 -52c-23 0 -40 19 -40 42zM399 841c0 26 22 53 53 53c24 0 41 -20 41 -43c0 -27 -22 -52 -54 -52c-23 0 -40 19 -40 42z" />
    <glyph glyph-name="Emacron" unicode="&#x112;" horiz-adv-x="523" 
d="M507 663h-310l-38 -270h263c7 0 10 -3 6 -26l-1 -6c-4 -22 -6 -25 -13 -25h-263l-39 -279h314c7 0 10 -3 6 -26l-1 -6c-4 -22 -6 -25 -13 -25h-382l101 720h378c8 0 10 -3 6 -26l-1 -6c-4 -22 -6 -25 -13 -25zM468 823h-254c-7 0 -8 4 -4 24l1 5c4 20 6 22 12 22h254
c7 0 8 -2 4 -24l-1 -5c-4 -20 -6 -22 -12 -22z" />
    <glyph glyph-name="Ebreve" unicode="&#x114;" horiz-adv-x="523" 
d="M507 663h-310l-38 -270h263c7 0 10 -3 6 -26l-1 -6c-4 -22 -6 -25 -13 -25h-263l-39 -279h314c7 0 10 -3 6 -26l-1 -6c-4 -22 -6 -25 -13 -25h-382l101 720h378c8 0 10 -3 6 -26l-1 -6c-4 -22 -6 -25 -13 -25zM334 795c-69 0 -121 36 -121 95c0 5 0 10 1 16c1 4 1 6 18 6
h10c17 0 20 -1 20 -8c0 -44 26 -68 78 -68c51 0 81 24 91 69c1 6 5 7 22 7h8c17 0 20 -3 19 -8c-12 -72 -68 -109 -146 -109z" />
    <glyph glyph-name="Edotaccent" unicode="&#x116;" horiz-adv-x="523" 
d="M507 663h-310l-38 -270h263c7 0 10 -3 6 -26l-1 -6c-4 -22 -6 -25 -13 -25h-263l-39 -279h314c7 0 10 -3 6 -26l-1 -6c-4 -22 -6 -25 -13 -25h-382l101 720h378c8 0 10 -3 6 -26l-1 -6c-4 -22 -6 -25 -13 -25zM299 836c0 26 23 51 53 51c23 0 40 -19 40 -42
c0 -27 -23 -51 -51 -51c-25 0 -42 19 -42 42z" />
    <glyph glyph-name="Eogonek" unicode="&#x118;" horiz-adv-x="523" 
d="M507 663h-310l-38 -270h263c7 0 10 -3 6 -26l-1 -6c-4 -22 -6 -25 -13 -25h-263l-39 -279h314c7 0 10 -3 6 -26l-1 -6c-3 -18 -5 -21 -13 -24c-69 -25 -123 -76 -123 -136c0 -33 18 -50 48 -50c17 0 34 5 50 10c6 2 8 0 8 -16v-5c0 -12 -1 -16 -5 -18
c-22 -10 -46 -15 -73 -15c-56 0 -86 33 -86 83c0 57 44 115 105 146h-306l101 720h378c8 0 10 -3 6 -26l-1 -6c-4 -22 -6 -25 -13 -25z" />
    <glyph glyph-name="Gcircumflex" unicode="&#x11c;" horiz-adv-x="623" 
d="M559 625c-49 31 -97 46 -157 46c-203 0 -284 -210 -284 -398c0 -136 59 -225 203 -225c48 0 102 11 141 27l34 243h-160c-7 0 -8 5 -4 27l1 5c4 22 5 25 12 25h225l-47 -337c-70 -31 -142 -48 -214 -48c-94 0 -161 30 -203 81c-40 49 -60 121 -60 204
c0 225 115 455 364 455c75 0 137 -22 180 -56c5 -4 4 -8 -6 -25l-4 -7c-10 -16 -15 -21 -21 -17zM419 921h26c19 0 25 -3 31 -10l78 -100c3 -4 2 -7 -6 -15l-6 -6c-10 -10 -12 -11 -16 -7l-97 97l-131 -97c-5 -4 -8 -2 -14 7l-4 6c-6 9 -6 11 -2 15l106 100c8 7 16 10 35 10
z" />
    <glyph glyph-name="Gbreve" unicode="&#x11e;" horiz-adv-x="623" 
d="M559 625c-49 31 -97 46 -157 46c-203 0 -284 -210 -284 -398c0 -136 59 -225 203 -225c48 0 102 11 141 27l34 243h-160c-7 0 -8 5 -4 27l1 5c4 22 5 25 12 25h225l-47 -337c-70 -31 -142 -48 -214 -48c-94 0 -161 30 -203 81c-40 49 -60 121 -60 204
c0 225 115 455 364 455c75 0 137 -22 180 -56c5 -4 4 -8 -6 -25l-4 -7c-10 -16 -15 -21 -21 -17zM410 795c-69 0 -121 36 -121 95c0 5 0 10 1 16c1 4 1 6 18 6h10c17 0 20 -1 20 -8c0 -44 26 -68 78 -68c51 0 81 24 91 69c1 6 5 7 22 7h8c17 0 20 -3 19 -8
c-12 -72 -68 -109 -146 -109z" />
    <glyph glyph-name="Gdotaccent" unicode="&#x120;" horiz-adv-x="623" 
d="M559 625c-49 31 -97 46 -157 46c-203 0 -284 -210 -284 -398c0 -136 59 -225 203 -225c48 0 102 11 141 27l34 243h-160c-7 0 -8 5 -4 27l1 5c4 22 5 25 12 25h225l-47 -337c-70 -31 -142 -48 -214 -48c-94 0 -161 30 -203 81c-40 49 -60 121 -60 204
c0 225 115 455 364 455c75 0 137 -22 180 -56c5 -4 4 -8 -6 -25l-4 -7c-10 -16 -15 -21 -21 -17zM370 836c0 26 23 51 53 51c23 0 40 -19 40 -42c0 -27 -23 -51 -51 -51c-25 0 -42 19 -42 42z" />
    <glyph glyph-name="Gcommaaccent" unicode="&#x122;" horiz-adv-x="623" 
d="M559 625c-49 31 -97 46 -157 46c-203 0 -284 -210 -284 -398c0 -136 59 -225 203 -225c48 0 102 11 141 27l34 243h-160c-7 0 -8 5 -4 27l1 5c4 22 5 25 12 25h225l-47 -337c-70 -31 -142 -48 -214 -48c-94 0 -161 30 -203 81c-40 49 -60 121 -60 204
c0 225 115 455 364 455c75 0 137 -22 180 -56c5 -4 4 -8 -6 -25l-4 -7c-10 -16 -15 -21 -21 -17zM222 -268l-3 4c-5 7 -8 11 -2 16c37 31 63 63 63 91c0 26 -23 35 -23 63c0 25 21 41 45 41c27 0 42 -18 42 -47c0 -62 -48 -129 -108 -174c-4 -3 -7 -3 -14 6z" />
    <glyph glyph-name="Hcircumflex" unicode="&#x124;" horiz-adv-x="642" 
d="M618 711l-99 -702c-1 -7 -10 -9 -32 -9h-8c-23 0 -29 2 -28 9l46 327h-346l-46 -327c-1 -7 -9 -9 -33 -9h-8c-22 0 -28 2 -27 9l99 702c1 7 5 9 29 9h8c25 0 32 -1 31 -9l-45 -318h346l45 318c1 7 5 9 29 9h8c25 0 32 -1 31 -9zM391 921h26c19 0 25 -3 31 -10l78 -100
c3 -4 2 -7 -6 -15l-6 -6c-10 -10 -12 -11 -16 -7l-97 97l-131 -97c-5 -4 -8 -2 -14 7l-4 6c-6 9 -6 11 -2 15l106 100c8 7 16 10 35 10z" />
    <glyph glyph-name="Hbar" unicode="&#x126;" horiz-adv-x="656" 
d="M63 543c-7 0 -8 3 -5 23l1 6c3 20 4 22 11 22h56l17 117c1 7 5 9 29 9h8c25 0 32 -1 31 -9l-17 -117h346l17 117c1 7 5 9 29 9h8c25 0 32 -1 31 -9l-17 -117h56c7 0 8 -3 5 -23l-1 -6c-3 -20 -4 -22 -11 -22h-56l-75 -534c-1 -7 -10 -9 -32 -9h-8c-23 0 -29 2 -28 9
l46 327h-346l-46 -327c-1 -7 -9 -9 -33 -9h-8c-22 0 -28 2 -27 9l75 534h-56zM166 393h346l21 150h-346z" />
    <glyph glyph-name="Igrave" unicode="&#xcc;" horiz-adv-x="357" 
d="M241 0h-215c-6 0 -8 3 -4 22l1 5c4 20 4 20 11 20h74l88 626h-75c-6 0 -8 3 -4 22l1 5c4 20 5 20 11 20h214c6 0 8 -1 4 -22l-1 -5c-4 -20 -4 -20 -11 -20h-72l-88 -626h74c6 0 8 -1 4 -22l-1 -5c-4 -20 -4 -20 -11 -20zM197 913h15c26 0 29 -3 32 -10l49 -118
c2 -5 -5 -7 -21 -7h-4c-19 0 -22 1 -25 6l-70 119c-4 7 0 10 24 10z" />
    <glyph glyph-name="Iacute" unicode="&#xcd;" horiz-adv-x="357" 
d="M241 0h-215c-6 0 -8 3 -4 22l1 5c4 20 4 20 11 20h74l88 626h-75c-6 0 -8 3 -4 22l1 5c4 20 5 20 11 20h214c6 0 8 -1 4 -22l-1 -5c-4 -20 -4 -20 -11 -20h-72l-88 -626h74c6 0 8 -1 4 -22l-1 -5c-4 -20 -4 -20 -11 -20zM314 913h11c26 0 30 -3 24 -10l-104 -119
c-5 -5 -8 -6 -27 -6h-4c-16 0 -22 2 -18 8l82 117c5 7 10 10 36 10z" />
    <glyph glyph-name="Icircumflex" unicode="&#xce;" horiz-adv-x="357" 
d="M241 0h-215c-6 0 -8 3 -4 22l1 5c4 20 4 20 11 20h74l88 626h-75c-6 0 -8 3 -4 22l1 5c4 20 5 20 11 20h214c6 0 8 -1 4 -22l-1 -5c-4 -20 -4 -20 -11 -20h-72l-88 -626h74c6 0 8 -1 4 -22l-1 -5c-4 -20 -4 -20 -11 -20zM253 921h26c19 0 25 -3 31 -10l78 -100
c3 -4 2 -7 -6 -15l-6 -6c-10 -10 -12 -11 -16 -7l-97 97l-131 -97c-5 -4 -8 -2 -14 7l-4 6c-6 9 -6 11 -2 15l106 100c8 7 16 10 35 10z" />
    <glyph glyph-name="Itilde" unicode="&#x128;" horiz-adv-x="357" 
d="M241 0h-215c-6 0 -8 3 -4 22l1 5c4 20 4 20 11 20h74l88 626h-75c-6 0 -8 3 -4 22l1 5c4 20 5 20 11 20h214c6 0 8 -1 4 -22l-1 -5c-4 -20 -4 -20 -11 -20h-72l-88 -626h74c6 0 8 -1 4 -22l-1 -5c-4 -20 -4 -20 -11 -20zM396 857c-21 -23 -55 -44 -90 -44
c-56 0 -79 38 -123 38c-21 0 -38 -8 -59 -28c-4 -4 -9 -3 -17 8l-4 6c-5 8 -6 13 -1 18c21 23 55 44 90 44c54 0 79 -38 123 -38c20 0 37 8 61 30c4 3 7 2 14 -8l5 -7c6 -9 6 -14 1 -19z" />
    <glyph glyph-name="Idieresis" unicode="&#xcf;" horiz-adv-x="357" 
d="M241 0h-215c-6 0 -8 3 -4 22l1 5c4 20 4 20 11 20h74l88 626h-75c-6 0 -8 3 -4 22l1 5c4 20 5 20 11 20h214c6 0 8 -1 4 -22l-1 -5c-4 -20 -4 -20 -11 -20h-72l-88 -626h74c6 0 8 -1 4 -22l-1 -5c-4 -20 -4 -20 -11 -20zM109 841c0 26 22 53 53 53c24 0 41 -20 41 -43
c0 -27 -21 -52 -54 -52c-23 0 -40 19 -40 42zM307 841c0 26 22 53 53 53c24 0 41 -20 41 -43c0 -27 -22 -52 -54 -52c-23 0 -40 19 -40 42z" />
    <glyph glyph-name="Imacron" unicode="&#x12a;" horiz-adv-x="357" 
d="M241 0h-215c-6 0 -8 3 -4 22l1 5c4 20 4 20 11 20h74l88 626h-75c-6 0 -8 3 -4 22l1 5c4 20 5 20 11 20h214c6 0 8 -1 4 -22l-1 -5c-4 -20 -4 -20 -11 -20h-72l-88 -626h74c6 0 8 -1 4 -22l-1 -5c-4 -20 -4 -20 -11 -20zM373 823h-254c-7 0 -8 4 -4 24l1 5
c4 20 6 22 12 22h254c7 0 8 -2 4 -24l-1 -5c-4 -20 -6 -22 -12 -22z" />
    <glyph glyph-name="Ibreve" unicode="&#x12c;" horiz-adv-x="357" 
d="M241 0h-215c-6 0 -8 3 -4 22l1 5c4 20 4 20 11 20h74l88 626h-75c-6 0 -8 3 -4 22l1 5c4 20 5 20 11 20h214c6 0 8 -1 4 -22l-1 -5c-4 -20 -4 -20 -11 -20h-72l-88 -626h74c6 0 8 -1 4 -22l-1 -5c-4 -20 -4 -20 -11 -20zM245 795c-69 0 -121 36 -121 95c0 5 0 10 1 16
c1 4 1 6 18 6h10c17 0 20 -1 20 -8c0 -44 26 -68 78 -68c51 0 81 24 91 69c1 6 5 7 22 7h8c17 0 20 -3 19 -8c-12 -72 -68 -109 -146 -109z" />
    <glyph glyph-name="Idotaccent" unicode="&#x130;" horiz-adv-x="357" 
d="M241 0h-215c-6 0 -8 3 -4 22l1 5c4 20 4 20 11 20h74l88 626h-75c-6 0 -8 3 -4 22l1 5c4 20 5 20 11 20h214c6 0 8 -1 4 -22l-1 -5c-4 -20 -4 -20 -11 -20h-72l-88 -626h74c6 0 8 -1 4 -22l-1 -5c-4 -20 -4 -20 -11 -20zM205 836c0 26 23 51 53 51c23 0 40 -19 40 -42
c0 -27 -23 -51 -51 -51c-25 0 -42 19 -42 42z" />
    <glyph glyph-name="Iogonek" unicode="&#x12e;" horiz-adv-x="357" 
d="M126 0h-100c-6 0 -8 3 -4 22l1 5c4 20 4 20 11 20h74l88 626h-75c-6 0 -8 3 -4 22l1 5c4 20 5 20 11 20h214c6 0 8 -1 4 -22l-1 -5c-4 -20 -4 -20 -11 -20h-72l-88 -626h74c6 0 8 -1 4 -22l-1 -5c-4 -20 -4 -20 -11 -20h-6c-36 0 -79 -14 -112 -45
c-27 -26 -42 -58 -42 -90c0 -33 19 -50 49 -50c17 0 33 5 49 10c6 2 8 0 8 -16v-5c0 -12 -1 -16 -5 -18c-22 -10 -46 -15 -72 -15c-56 0 -87 33 -87 83c0 58 42 115 103 146z" />
    <glyph glyph-name="IJ" unicode="&#x132;" horiz-adv-x="786" 
d="M241 0h-215c-6 0 -8 3 -4 22l1 5c4 20 4 20 11 20h74l88 626h-75c-6 0 -8 3 -4 22l1 5c4 20 5 20 11 20h214c6 0 8 -1 4 -22l-1 -5c-4 -20 -4 -20 -11 -20h-72l-88 -626h74c6 0 8 -1 4 -22l-1 -5c-4 -20 -4 -20 -11 -20zM732 720h8c24 0 31 -2 30 -9l-72 -516
c-11 -77 -29 -119 -67 -155c-34 -32 -89 -50 -142 -50c-52 0 -102 16 -141 42c-8 6 -7 7 4 26l6 10c10 17 14 18 23 13c35 -21 74 -33 108 -33c44 0 76 13 100 38c25 26 34 61 43 125l70 500c1 7 6 9 30 9z" />
    <glyph glyph-name="Jcircumflex" unicode="&#x134;" horiz-adv-x="429" 
d="M375 720h8c24 0 31 -2 30 -9l-72 -516c-11 -77 -29 -119 -67 -155c-34 -32 -89 -50 -142 -50c-52 0 -102 16 -141 42c-8 6 -7 7 4 26l6 10c10 17 14 18 23 13c35 -21 74 -33 108 -33c44 0 76 13 100 38c25 26 34 61 43 125l70 500c1 7 6 9 30 9zM391 921h26
c19 0 25 -3 31 -10l78 -100c3 -4 2 -7 -6 -15l-6 -6c-10 -10 -12 -11 -16 -7l-97 97l-131 -97c-5 -4 -8 -2 -14 7l-4 6c-6 9 -6 11 -2 15l106 100c8 7 16 10 35 10z" />
    <glyph glyph-name="Kcommaaccent" unicode="&#x136;" horiz-adv-x="559" 
d="M37 9l99 702c1 7 9 9 29 9h8c21 0 31 -2 30 -9l-51 -366l119 112c100 94 181 189 222 255c4 6 12 8 33 8h13c19 0 26 -2 22 -10c-40 -73 -128 -177 -251 -290l182 -407c4 -10 1 -13 -24 -13h-16c-28 0 -32 2 -35 10l-160 361l-117 -108l-36 -254c-1 -7 -9 -9 -32 -9h-8
c-22 0 -28 2 -27 9zM175 -268l-3 4c-5 7 -8 11 -2 16c37 31 63 63 63 91c0 26 -23 35 -23 63c0 25 21 41 45 41c27 0 42 -18 42 -47c0 -62 -48 -129 -108 -174c-4 -3 -7 -3 -14 6z" />
    <glyph glyph-name="Lacute" unicode="&#x139;" horiz-adv-x="483" 
d="M202 711l-92 -654h291c7 0 9 -2 5 -26l-1 -6c-4 -23 -6 -25 -12 -25h-331c-21 0 -26 3 -25 11l98 700c1 7 6 9 29 9h8c23 0 31 -2 30 -9zM262 913h11c26 0 30 -3 24 -10l-104 -119c-5 -5 -8 -6 -27 -6h-4c-16 0 -22 2 -18 8l82 117c5 7 10 10 36 10z" />
    <glyph glyph-name="Lcaron" unicode="&#x13d;" horiz-adv-x="483" 
d="M202 711l-92 -654h291c7 0 9 -2 5 -26l-1 -6c-4 -23 -6 -25 -12 -25h-331c-21 0 -26 3 -25 11l98 700c1 7 6 9 29 9h8c23 0 31 -2 30 -9zM250 515l-3 4c-5 7 -8 11 -2 16c37 31 63 63 63 91c0 26 -23 35 -23 63c0 25 21 41 45 41c27 0 42 -18 42 -47
c0 -62 -48 -129 -108 -174c-4 -3 -7 -3 -14 6z" />
    <glyph glyph-name="Lcommaaccent" unicode="&#x13b;" horiz-adv-x="483" 
d="M202 711l-92 -654h291c7 0 9 -2 5 -26l-1 -6c-4 -23 -6 -25 -12 -25h-331c-21 0 -26 3 -25 11l98 700c1 7 6 9 29 9h8c23 0 31 -2 30 -9zM140 -268l-3 4c-5 7 -8 11 -2 16c37 31 63 63 63 91c0 26 -23 35 -23 63c0 25 21 41 45 41c27 0 42 -18 42 -47
c0 -62 -48 -129 -108 -174c-4 -3 -7 -3 -14 6z" />
    <glyph glyph-name="Lslash" unicode="&#x141;" horiz-adv-x="485" 
d="M203 711l-46 -326l134 95c7 5 11 4 9 -16l-1 -8c-2 -17 -4 -20 -11 -25l-138 -98l-39 -276h291c7 0 9 -2 5 -26l-1 -6c-4 -23 -6 -25 -12 -25h-331c-21 0 -26 3 -25 11l37 269l-64 -46c-8 -5 -12 -2 -9 18l1 8c2 15 3 18 8 21l72 51l53 379c1 7 6 9 29 9h8
c23 0 31 -2 30 -9z" />
    <glyph glyph-name="Ldot" unicode="&#x13f;" horiz-adv-x="483" 
d="M202 711l-92 -654h291c7 0 9 -2 5 -26l-1 -6c-4 -23 -6 -25 -12 -25h-331c-21 0 -26 3 -25 11l98 700c1 7 6 9 29 9h8c23 0 31 -2 30 -9zM283 357c0 26 23 51 53 51c23 0 40 -19 40 -42c0 -27 -23 -51 -51 -51c-25 0 -42 19 -42 42z" />
    <glyph glyph-name="Nacute" unicode="&#x143;" horiz-adv-x="663" 
d="M463 10l-280 615l-87 -616c-1 -7 -7 -9 -29 -9h-6c-22 0 -27 2 -26 9l99 702c1 7 8 9 36 9h6c28 0 34 -2 38 -10l280 -615l86 616c1 7 6 9 28 9h6c22 0 28 -2 27 -9l-99 -702c-1 -7 -10 -9 -35 -9h-6c-31 0 -35 2 -38 10zM455 913h11c26 0 30 -3 24 -10l-104 -119
c-5 -5 -8 -6 -27 -6h-4c-16 0 -22 2 -18 8l82 117c5 7 10 10 36 10z" />
    <glyph glyph-name="Ncaron" unicode="&#x147;" horiz-adv-x="663" 
d="M463 10l-280 615l-87 -616c-1 -7 -7 -9 -29 -9h-6c-22 0 -27 2 -26 9l99 702c1 7 8 9 36 9h6c28 0 34 -2 38 -10l280 -615l86 616c1 7 6 9 28 9h6c22 0 28 -2 27 -9l-99 -702c-1 -7 -10 -9 -35 -9h-6c-31 0 -35 2 -38 10zM415 782h-26c-17 0 -25 2 -32 10l-78 100
c-3 4 -3 7 6 16l6 6c9 9 12 10 16 6l100 -97l128 97c6 4 8 3 14 -6l4 -6c7 -10 7 -12 2 -16l-106 -100c-8 -7 -17 -10 -34 -10z" />
    <glyph glyph-name="Ntilde" unicode="&#xd1;" horiz-adv-x="663" 
d="M463 10l-280 615l-87 -616c-1 -7 -7 -9 -29 -9h-6c-22 0 -27 2 -26 9l99 702c1 7 8 9 36 9h6c28 0 34 -2 38 -10l280 -615l86 616c1 7 6 9 28 9h6c22 0 28 -2 27 -9l-99 -702c-1 -7 -10 -9 -35 -9h-6c-31 0 -35 2 -38 10zM542 857c-21 -23 -55 -44 -90 -44
c-56 0 -79 38 -123 38c-21 0 -38 -8 -59 -28c-4 -4 -9 -3 -17 8l-4 6c-5 8 -6 13 -1 18c21 23 55 44 90 44c54 0 79 -38 123 -38c20 0 37 8 61 30c4 3 7 2 14 -8l5 -7c6 -9 6 -14 1 -19z" />
    <glyph glyph-name="Ncommaaccent" unicode="&#x145;" horiz-adv-x="663" 
d="M463 10l-280 615l-87 -616c-1 -7 -7 -9 -29 -9h-6c-22 0 -27 2 -26 9l99 702c1 7 8 9 36 9h6c28 0 34 -2 38 -10l280 -615l86 616c1 7 6 9 28 9h6c22 0 28 -2 27 -9l-99 -702c-1 -7 -10 -9 -35 -9h-6c-31 0 -35 2 -38 10zM212 -268l-3 4c-5 7 -8 11 -2 16
c37 31 63 63 63 91c0 26 -23 35 -23 63c0 25 21 41 45 41c27 0 42 -18 42 -47c0 -62 -48 -129 -108 -174c-4 -3 -7 -3 -14 6z" />
    <glyph glyph-name="Eng" unicode="&#x14a;" horiz-adv-x="663" 
d="M341 -140c70 0 112 30 135 126l-293 639l-87 -616c-1 -7 -7 -9 -29 -9h-6c-22 0 -27 2 -26 9l99 702c1 7 8 9 36 9h6c28 0 34 -2 38 -10l280 -615l86 616c1 7 6 9 28 9h6c22 0 28 -2 27 -9l-95 -676c-24 -171 -86 -230 -207 -230c-23 0 -48 5 -62 11c-5 2 -5 8 1 25l2 6
c7 21 8 23 14 21c13 -4 30 -8 47 -8z" />
    <glyph glyph-name="Ograve" unicode="&#xd2;" horiz-adv-x="679" 
d="M398 671c-201 0 -280 -229 -280 -404c0 -148 64 -218 179 -218c199 0 280 225 280 398c0 149 -63 224 -179 224zM409 730c144 0 240 -88 240 -269c0 -224 -113 -471 -363 -471c-145 0 -240 95 -240 277c0 219 112 463 363 463zM378 913h15c26 0 29 -3 32 -10l49 -118
c2 -5 -5 -7 -21 -7h-4c-19 0 -22 1 -25 6l-70 119c-4 7 0 10 24 10z" />
    <glyph glyph-name="Oacute" unicode="&#xd3;" horiz-adv-x="679" 
d="M398 671c-201 0 -280 -229 -280 -404c0 -148 64 -218 179 -218c199 0 280 225 280 398c0 149 -63 224 -179 224zM409 730c144 0 240 -88 240 -269c0 -224 -113 -471 -363 -471c-145 0 -240 95 -240 277c0 219 112 463 363 463zM488 913h11c26 0 30 -3 24 -10l-104 -119
c-5 -5 -8 -6 -27 -6h-4c-16 0 -22 2 -18 8l82 117c5 7 10 10 36 10z" />
    <glyph glyph-name="Ocircumflex" unicode="&#xd4;" horiz-adv-x="679" 
d="M398 671c-201 0 -280 -229 -280 -404c0 -148 64 -218 179 -218c199 0 280 225 280 398c0 149 -63 224 -179 224zM409 730c144 0 240 -88 240 -269c0 -224 -113 -471 -363 -471c-145 0 -240 95 -240 277c0 219 112 463 363 463zM431 921h26c19 0 25 -3 31 -10l78 -100
c3 -4 2 -7 -6 -15l-6 -6c-10 -10 -12 -11 -16 -7l-97 97l-131 -97c-5 -4 -8 -2 -14 7l-4 6c-6 9 -6 11 -2 15l106 100c8 7 16 10 35 10z" />
    <glyph glyph-name="Otilde" unicode="&#xd5;" horiz-adv-x="679" 
d="M398 671c-201 0 -280 -229 -280 -404c0 -148 64 -218 179 -218c199 0 280 225 280 398c0 149 -63 224 -179 224zM409 730c144 0 240 -88 240 -269c0 -224 -113 -471 -363 -471c-145 0 -240 95 -240 277c0 219 112 463 363 463zM581 857c-21 -23 -55 -44 -90 -44
c-56 0 -79 38 -123 38c-21 0 -38 -8 -59 -28c-4 -4 -9 -3 -17 8l-4 6c-5 8 -6 13 -1 18c21 23 55 44 90 44c54 0 79 -38 123 -38c20 0 37 8 61 30c4 3 7 2 14 -8l5 -7c6 -9 6 -14 1 -19z" />
    <glyph glyph-name="Odieresis" unicode="&#xd6;" horiz-adv-x="679" 
d="M398 671c-201 0 -280 -229 -280 -404c0 -148 64 -218 179 -218c199 0 280 225 280 398c0 149 -63 224 -179 224zM409 730c144 0 240 -88 240 -269c0 -224 -113 -471 -363 -471c-145 0 -240 95 -240 277c0 219 112 463 363 463zM278 841c0 26 22 53 53 53
c24 0 41 -20 41 -43c0 -27 -21 -52 -54 -52c-23 0 -40 19 -40 42zM476 841c0 26 22 53 53 53c24 0 41 -20 41 -43c0 -27 -22 -52 -54 -52c-23 0 -40 19 -40 42z" />
    <glyph glyph-name="Omacron" unicode="&#x14c;" horiz-adv-x="679" 
d="M398 671c-201 0 -280 -229 -280 -404c0 -148 64 -218 179 -218c199 0 280 225 280 398c0 149 -63 224 -179 224zM409 730c144 0 240 -88 240 -269c0 -224 -113 -471 -363 -471c-145 0 -240 95 -240 277c0 219 112 463 363 463zM552 823h-254c-7 0 -8 4 -4 24l1 5
c4 20 6 22 12 22h254c7 0 8 -2 4 -24l-1 -5c-4 -20 -6 -22 -12 -22z" />
    <glyph glyph-name="Obreve" unicode="&#x14e;" horiz-adv-x="679" 
d="M398 671c-201 0 -280 -229 -280 -404c0 -148 64 -218 179 -218c199 0 280 225 280 398c0 149 -63 224 -179 224zM409 730c144 0 240 -88 240 -269c0 -224 -113 -471 -363 -471c-145 0 -240 95 -240 277c0 219 112 463 363 463zM430 795c-69 0 -121 36 -121 95
c0 5 0 10 1 16c1 4 1 6 18 6h10c17 0 20 -1 20 -8c0 -44 26 -68 78 -68c51 0 81 24 91 69c1 6 5 7 22 7h8c17 0 20 -3 19 -8c-12 -72 -68 -109 -146 -109z" />
    <glyph glyph-name="Ohungarumlaut" unicode="&#x150;" horiz-adv-x="679" 
d="M398 671c-201 0 -280 -229 -280 -404c0 -148 64 -218 179 -218c199 0 280 225 280 398c0 149 -63 224 -179 224zM409 730c144 0 240 -88 240 -269c0 -224 -113 -471 -363 -471c-145 0 -240 95 -240 277c0 219 112 463 363 463zM410 913h15c26 0 27 -3 21 -10l-103 -119
c-5 -5 -9 -6 -28 -6h-3c-16 0 -23 2 -19 7l83 118c6 8 10 10 34 10zM564 913h14c23 0 28 -3 22 -10l-103 -119c-5 -5 -9 -6 -28 -6h-4c-15 0 -22 2 -18 7l82 118c6 8 11 10 35 10z" />
    <glyph glyph-name="Oslash" unicode="&#xd8;" horiz-adv-x="679" 
d="M408 730c67 0 123 -20 165 -58l72 85c5 6 11 7 25 -5l10 -9c14 -12 14 -17 9 -23l-80 -94c25 -42 39 -97 39 -165c0 -224 -113 -471 -363 -471c-66 0 -122 19 -163 58l-69 -83c-5 -6 -11 -7 -25 5l-10 9c-14 12 -15 17 -10 23l77 92c-26 44 -40 102 -40 173
c0 219 112 463 363 463zM397 671c-201 0 -280 -229 -280 -404c0 -46 6 -84 18 -115l392 466c-30 35 -74 53 -130 53zM576 447c0 46 -5 84 -18 117l-392 -465c30 -34 74 -50 130 -50c199 0 280 225 280 398z" />
    <glyph glyph-name="Oslashacute" unicode="&#x1fe;" horiz-adv-x="679" 
d="M408 730c67 0 123 -20 165 -58l72 85c5 6 11 7 25 -5l10 -9c14 -12 14 -17 9 -23l-80 -94c25 -42 39 -97 39 -165c0 -224 -113 -471 -363 -471c-66 0 -122 19 -163 58l-69 -83c-5 -6 -11 -7 -25 5l-10 9c-14 12 -15 17 -10 23l77 92c-26 44 -40 102 -40 173
c0 219 112 463 363 463zM397 671c-201 0 -280 -229 -280 -404c0 -46 6 -84 18 -115l392 466c-30 35 -74 53 -130 53zM576 447c0 46 -5 84 -18 117l-392 -465c30 -34 74 -50 130 -50c199 0 280 225 280 398zM474 913h11c26 0 30 -3 24 -10l-104 -119c-5 -5 -8 -6 -27 -6h-4
c-16 0 -22 2 -18 8l82 117c5 7 10 10 36 10z" />
    <glyph glyph-name="OE" unicode="&#x152;" horiz-adv-x="921" 
d="M309 46c39 0 87 4 133 9l85 606c-35 6 -78 12 -118 12c-210 0 -293 -224 -293 -410c0 -146 68 -217 193 -217zM816 0h-382c-42 -5 -94 -10 -137 -10c-154 0 -253 89 -253 272c0 213 112 468 374 468c41 0 80 -5 114 -10h381c8 0 10 -3 6 -26l-1 -6c-4 -22 -6 -25 -13 -25
h-310l-38 -270h263c7 0 10 -3 6 -26l-1 -6c-4 -22 -6 -25 -13 -25h-263l-39 -279h314c7 0 10 -3 6 -26l-1 -6c-4 -22 -6 -25 -13 -25z" />
    <glyph glyph-name="Thorn" unicode="&#xde;" horiz-adv-x="525" 
d="M204 711l-21 -152c33 6 71 10 113 10c133 0 210 -57 210 -164c0 -148 -113 -230 -265 -230c-42 0 -80 4 -111 10l-25 -176c-1 -7 -10 -9 -33 -9h-7c-24 0 -29 2 -28 9l99 702c1 7 7 9 30 9h7c23 0 32 -2 31 -9zM286 513c-43 0 -80 -4 -111 -9l-37 -264
c30 -6 66 -9 109 -9c104 0 187 48 187 169c0 80 -57 113 -148 113z" />
    <glyph glyph-name="Racute" unicode="&#x154;" horiz-adv-x="543" 
d="M245 305h-98l-42 -296c-1 -7 -11 -9 -32 -9h-8c-21 0 -29 2 -28 9l100 711h149c108 0 174 -20 211 -64c22 -25 33 -64 33 -105c0 -67 -19 -130 -74 -181c-27 -25 -70 -44 -113 -54c37 -125 72 -217 123 -303c5 -8 1 -13 -29 -13h-10c-25 0 -31 1 -37 11
c-44 79 -86 191 -114 295c-11 -1 -20 -1 -31 -1zM198 665l-43 -306h94c64 0 113 13 149 42c37 30 59 81 59 143c0 38 -7 65 -25 84c-26 28 -75 37 -149 37h-85zM408 913h11c26 0 30 -3 24 -10l-104 -119c-5 -5 -8 -6 -27 -6h-4c-16 0 -22 2 -18 8l82 117c5 7 10 10 36 10z
" />
    <glyph glyph-name="Rcaron" unicode="&#x158;" horiz-adv-x="543" 
d="M245 305h-98l-42 -296c-1 -7 -11 -9 -32 -9h-8c-21 0 -29 2 -28 9l100 711h149c108 0 174 -20 211 -64c22 -25 33 -64 33 -105c0 -67 -19 -130 -74 -181c-27 -25 -70 -44 -113 -54c37 -125 72 -217 123 -303c5 -8 1 -13 -29 -13h-10c-25 0 -31 1 -37 11
c-44 79 -86 191 -114 295c-11 -1 -20 -1 -31 -1zM198 665l-43 -306h94c64 0 113 13 149 42c37 30 59 81 59 143c0 38 -7 65 -25 84c-26 28 -75 37 -149 37h-85zM357 782h-26c-17 0 -25 2 -32 10l-78 100c-3 4 -3 7 6 16l6 6c9 9 12 10 16 6l100 -97l128 97c6 4 8 3 14 -6
l4 -6c7 -10 7 -12 2 -16l-106 -100c-8 -7 -17 -10 -34 -10z" />
    <glyph glyph-name="Rcommaaccent" unicode="&#x156;" horiz-adv-x="543" 
d="M245 305h-98l-42 -296c-1 -7 -11 -9 -32 -9h-8c-21 0 -29 2 -28 9l100 711h149c108 0 174 -20 211 -64c22 -25 33 -64 33 -105c0 -67 -19 -130 -74 -181c-27 -25 -70 -44 -113 -54c37 -125 72 -217 123 -303c5 -8 1 -13 -29 -13h-10c-25 0 -31 1 -37 11
c-44 79 -86 191 -114 295c-11 -1 -20 -1 -31 -1zM198 665l-43 -306h94c64 0 113 13 149 42c37 30 59 81 59 143c0 38 -7 65 -25 84c-26 28 -75 37 -149 37h-85zM161 -268l-3 4c-5 7 -8 11 -2 16c37 31 63 63 63 91c0 26 -23 35 -23 63c0 25 21 41 45 41c27 0 42 -18 42 -47
c0 -62 -48 -129 -108 -174c-4 -3 -7 -3 -14 6z" />
    <glyph glyph-name="Sacute" unicode="&#x15a;" horiz-adv-x="503" 
d="M11 47c-6 5 -5 11 8 29l4 5c12 16 16 21 23 16c47 -33 100 -50 149 -50c110 0 183 53 183 153c0 71 -70 105 -139 146c-74 44 -137 91 -138 182c0 115 94 202 225 202c62 0 120 -20 158 -49c7 -5 5 -10 -7 -26l-3 -5c-12 -18 -16 -20 -23 -16c-36 22 -75 39 -130 39
c-83 0 -152 -52 -152 -141c0 -65 58 -98 120 -133c76 -43 157 -86 157 -185c0 -137 -103 -224 -250 -224c-78 0 -142 26 -185 57zM394 913h11c26 0 30 -3 24 -10l-104 -119c-5 -5 -8 -6 -27 -6h-4c-16 0 -22 2 -18 8l82 117c5 7 10 10 36 10z" />
    <glyph glyph-name="Scircumflex" unicode="&#x15c;" horiz-adv-x="503" 
d="M11 47c-6 5 -5 11 8 29l4 5c12 16 16 21 23 16c47 -33 100 -50 149 -50c110 0 183 53 183 153c0 71 -70 105 -139 146c-74 44 -137 91 -138 182c0 115 94 202 225 202c62 0 120 -20 158 -49c7 -5 5 -10 -7 -26l-3 -5c-12 -18 -16 -20 -23 -16c-36 22 -75 39 -130 39
c-83 0 -152 -52 -152 -141c0 -65 58 -98 120 -133c76 -43 157 -86 157 -185c0 -137 -103 -224 -250 -224c-78 0 -142 26 -185 57zM351 921h26c19 0 25 -3 31 -10l78 -100c3 -4 2 -7 -6 -15l-6 -6c-10 -10 -12 -11 -16 -7l-97 97l-131 -97c-5 -4 -8 -2 -14 7l-4 6
c-6 9 -6 11 -2 15l106 100c8 7 16 10 35 10z" />
    <glyph glyph-name="Scaron" unicode="&#x160;" horiz-adv-x="503" 
d="M11 47c-6 5 -5 11 8 29l4 5c12 16 16 21 23 16c47 -33 100 -50 149 -50c110 0 183 53 183 153c0 71 -70 105 -139 146c-74 44 -137 91 -138 182c0 115 94 202 225 202c62 0 120 -20 158 -49c7 -5 5 -10 -7 -26l-3 -5c-12 -18 -16 -20 -23 -16c-36 22 -75 39 -130 39
c-83 0 -152 -52 -152 -141c0 -65 58 -98 120 -133c76 -43 157 -86 157 -185c0 -137 -103 -224 -250 -224c-78 0 -142 26 -185 57zM330 775h-26c-17 0 -25 2 -32 10l-78 100c-3 4 -3 7 6 16l6 6c9 9 12 10 16 6l100 -97l128 97c6 4 8 3 14 -6l4 -6c7 -10 7 -12 2 -16
l-106 -100c-8 -7 -17 -10 -34 -10z" />
    <glyph glyph-name="Scedilla" unicode="&#x15e;" horiz-adv-x="503" 
d="M144 -109l26 100c-66 5 -121 28 -159 56c-6 5 -5 11 8 29l4 5c12 16 16 21 23 16c47 -33 100 -50 149 -50c110 0 183 53 183 153c0 71 -70 105 -139 146c-74 44 -137 91 -138 182c0 115 94 202 225 202c62 0 120 -20 158 -49c7 -5 5 -10 -7 -26l-3 -5
c-12 -18 -16 -20 -23 -16c-36 22 -75 39 -130 39c-83 0 -152 -52 -152 -141c0 -65 58 -98 120 -133c76 -43 157 -86 157 -185c0 -130 -93 -215 -229 -223l-16 -58c8 1 18 2 28 2c48 0 78 -27 78 -68c0 -63 -51 -100 -122 -100c-27 0 -54 6 -68 12c-4 2 -4 5 0 17l2 6
c5 14 7 15 12 14c17 -5 35 -7 52 -7c29 0 68 10 68 50c1 26 -21 37 -55 37c-19 0 -38 -2 -52 -5z" />
    <glyph glyph-name="Scommaaccent" unicode="&#x218;" horiz-adv-x="503" 
d="M11 47c-6 5 -5 11 8 29l4 5c12 16 16 21 23 16c47 -33 100 -50 149 -50c110 0 183 53 183 153c0 71 -70 105 -139 146c-74 44 -137 91 -138 182c0 115 94 202 225 202c62 0 120 -20 158 -49c7 -5 5 -10 -7 -26l-3 -5c-12 -18 -16 -20 -23 -16c-36 22 -75 39 -130 39
c-83 0 -152 -52 -152 -141c0 -65 58 -98 120 -133c76 -43 157 -86 157 -185c0 -137 -103 -224 -250 -224c-78 0 -142 26 -185 57zM113 -268l-3 4c-5 7 -8 11 -2 16c37 31 63 63 63 91c0 26 -23 35 -23 63c0 25 21 41 45 41c27 0 42 -18 42 -47c0 -62 -48 -129 -108 -174
c-4 -3 -7 -3 -14 6z" />
    <glyph glyph-name="Tcaron" unicode="&#x164;" horiz-adv-x="506" 
d="M530 663h-191l-92 -654c-1 -7 -8 -9 -32 -9h-8c-23 0 -28 2 -27 9l92 654h-198c-7 0 -9 5 -5 27l1 6c4 22 5 24 12 24h456c7 0 9 -3 5 -27l-1 -6c-4 -22 -5 -24 -12 -24zM331 782h-26c-17 0 -25 2 -32 10l-78 100c-3 4 -3 7 6 16l6 6c9 9 12 10 16 6l100 -97l128 97
c6 4 8 3 14 -6l4 -6c7 -10 7 -12 2 -16l-106 -100c-8 -7 -17 -10 -34 -10z" />
    <glyph glyph-name="Tcommaaccent" unicode="&#x162;" horiz-adv-x="506" 
d="M530 663h-191l-92 -654c-1 -7 -8 -9 -32 -9h-8c-23 0 -28 2 -27 9l92 654h-198c-7 0 -9 5 -5 27l1 6c4 22 5 24 12 24h456c7 0 9 -3 5 -27l-1 -6c-4 -22 -5 -24 -12 -24zM116 -268l-3 4c-5 7 -8 11 -2 16c37 31 63 63 63 91c0 26 -23 35 -23 63c0 25 21 41 45 41
c27 0 42 -18 42 -47c0 -62 -48 -129 -108 -174c-4 -3 -7 -3 -14 6z" />
    <glyph glyph-name="uni021A" unicode="&#x21a;" horiz-adv-x="506" 
d="M530 663h-191l-92 -654c-1 -7 -8 -9 -32 -9h-8c-23 0 -28 2 -27 9l92 654h-198c-7 0 -9 5 -5 27l1 6c4 22 5 24 12 24h456c7 0 9 -3 5 -27l-1 -6c-4 -22 -5 -24 -12 -24zM116 -268l-3 4c-5 7 -8 11 -2 16c37 31 63 63 63 91c0 26 -23 35 -23 63c0 25 21 41 45 41
c27 0 42 -18 42 -47c0 -62 -48 -129 -108 -174c-4 -3 -7 -3 -14 6z" />
    <glyph glyph-name="Tbar" unicode="&#x166;" horiz-adv-x="506" 
d="M293 339l-46 -330c-1 -7 -8 -9 -32 -9h-8c-23 0 -28 2 -27 9l46 330h-115c-7 0 -8 3 -5 23l1 6c3 20 4 22 11 22h115l39 273h-198c-7 0 -9 5 -5 27l1 6c4 22 5 24 12 24h456c7 0 9 -3 5 -27l-1 -6c-4 -22 -5 -24 -12 -24h-191l-39 -273h117c7 0 8 -3 5 -23l-1 -6
c-3 -20 -4 -22 -11 -22h-117z" />
    <glyph glyph-name="Ugrave" unicode="&#xd9;" horiz-adv-x="656" 
d="M639 711l-62 -444c-14 -102 -47 -168 -98 -212c-49 -42 -116 -65 -195 -65c-80 0 -142 22 -179 64c-29 33 -44 75 -44 133c0 27 2 52 6 79l62 445c1 7 6 9 31 9h7c25 0 31 -2 30 -9l-61 -436c-3 -25 -6 -51 -6 -71c0 -54 9 -83 30 -108c28 -32 74 -48 132 -48
s108 16 143 49c39 35 64 92 76 178l61 436c1 7 7 9 31 9h6c24 0 31 -2 30 -9zM346 913h15c26 0 29 -3 32 -10l49 -118c2 -5 -5 -7 -21 -7h-4c-19 0 -22 1 -25 6l-70 119c-4 7 0 10 24 10z" />
    <glyph glyph-name="Uacute" unicode="&#xda;" horiz-adv-x="656" 
d="M639 711l-62 -444c-14 -102 -47 -168 -98 -212c-49 -42 -116 -65 -195 -65c-80 0 -142 22 -179 64c-29 33 -44 75 -44 133c0 27 2 52 6 79l62 445c1 7 6 9 31 9h7c25 0 31 -2 30 -9l-61 -436c-3 -25 -6 -51 -6 -71c0 -54 9 -83 30 -108c28 -32 74 -48 132 -48
s108 16 143 49c39 35 64 92 76 178l61 436c1 7 7 9 31 9h6c24 0 31 -2 30 -9zM458 913h11c26 0 30 -3 24 -10l-104 -119c-5 -5 -8 -6 -27 -6h-4c-16 0 -22 2 -18 8l82 117c5 7 10 10 36 10z" />
    <glyph glyph-name="Ucircumflex" unicode="&#xdb;" horiz-adv-x="656" 
d="M639 711l-62 -444c-14 -102 -47 -168 -98 -212c-49 -42 -116 -65 -195 -65c-80 0 -142 22 -179 64c-29 33 -44 75 -44 133c0 27 2 52 6 79l62 445c1 7 6 9 31 9h7c25 0 31 -2 30 -9l-61 -436c-3 -25 -6 -51 -6 -71c0 -54 9 -83 30 -108c28 -32 74 -48 132 -48
s108 16 143 49c39 35 64 92 76 178l61 436c1 7 7 9 31 9h6c24 0 31 -2 30 -9zM403 921h26c19 0 25 -3 31 -10l78 -100c3 -4 2 -7 -6 -15l-6 -6c-10 -10 -12 -11 -16 -7l-97 97l-131 -97c-5 -4 -8 -2 -14 7l-4 6c-6 9 -6 11 -2 15l106 100c8 7 16 10 35 10z" />
    <glyph glyph-name="Utilde" unicode="&#x168;" horiz-adv-x="656" 
d="M639 711l-62 -444c-14 -102 -47 -168 -98 -212c-49 -42 -116 -65 -195 -65c-80 0 -142 22 -179 64c-29 33 -44 75 -44 133c0 27 2 52 6 79l62 445c1 7 6 9 31 9h7c25 0 31 -2 30 -9l-61 -436c-3 -25 -6 -51 -6 -71c0 -54 9 -83 30 -108c28 -32 74 -48 132 -48
s108 16 143 49c39 35 64 92 76 178l61 436c1 7 7 9 31 9h6c24 0 31 -2 30 -9zM554 857c-21 -23 -55 -44 -90 -44c-56 0 -79 38 -123 38c-21 0 -38 -8 -59 -28c-4 -4 -9 -3 -17 8l-4 6c-5 8 -6 13 -1 18c21 23 55 44 90 44c54 0 79 -38 123 -38c20 0 37 8 61 30
c4 3 7 2 14 -8l5 -7c6 -9 6 -14 1 -19z" />
    <glyph glyph-name="Udieresis" unicode="&#xdc;" horiz-adv-x="656" 
d="M639 711l-62 -444c-14 -102 -47 -168 -98 -212c-49 -42 -116 -65 -195 -65c-80 0 -142 22 -179 64c-29 33 -44 75 -44 133c0 27 2 52 6 79l62 445c1 7 6 9 31 9h7c25 0 31 -2 30 -9l-61 -436c-3 -25 -6 -51 -6 -71c0 -54 9 -83 30 -108c28 -32 74 -48 132 -48
s108 16 143 49c39 35 64 92 76 178l61 436c1 7 7 9 31 9h6c24 0 31 -2 30 -9zM251 841c0 26 22 53 53 53c24 0 41 -20 41 -43c0 -27 -21 -52 -54 -52c-23 0 -40 19 -40 42zM449 841c0 26 22 53 53 53c24 0 41 -20 41 -43c0 -27 -22 -52 -54 -52c-23 0 -40 19 -40 42z" />
    <glyph glyph-name="Umacron" unicode="&#x16a;" horiz-adv-x="656" 
d="M639 711l-62 -444c-14 -102 -47 -168 -98 -212c-49 -42 -116 -65 -195 -65c-80 0 -142 22 -179 64c-29 33 -44 75 -44 133c0 27 2 52 6 79l62 445c1 7 6 9 31 9h7c25 0 31 -2 30 -9l-61 -436c-3 -25 -6 -51 -6 -71c0 -54 9 -83 30 -108c28 -32 74 -48 132 -48
s108 16 143 49c39 35 64 92 76 178l61 436c1 7 7 9 31 9h6c24 0 31 -2 30 -9zM531 823h-254c-7 0 -8 4 -4 24l1 5c4 20 6 22 12 22h254c7 0 8 -2 4 -24l-1 -5c-4 -20 -6 -22 -12 -22z" />
    <glyph glyph-name="Ubreve" unicode="&#x16c;" horiz-adv-x="656" 
d="M639 711l-62 -444c-14 -102 -47 -168 -98 -212c-49 -42 -116 -65 -195 -65c-80 0 -142 22 -179 64c-29 33 -44 75 -44 133c0 27 2 52 6 79l62 445c1 7 6 9 31 9h7c25 0 31 -2 30 -9l-61 -436c-3 -25 -6 -51 -6 -71c0 -54 9 -83 30 -108c28 -32 74 -48 132 -48
s108 16 143 49c39 35 64 92 76 178l61 436c1 7 7 9 31 9h6c24 0 31 -2 30 -9zM395 795c-69 0 -121 36 -121 95c0 5 0 10 1 16c1 4 1 6 18 6h10c17 0 20 -1 20 -8c0 -44 26 -68 78 -68c51 0 81 24 91 69c1 6 5 7 22 7h8c17 0 20 -3 19 -8c-12 -72 -68 -109 -146 -109z" />
    <glyph glyph-name="Uring" unicode="&#x16e;" horiz-adv-x="656" 
d="M639 711l-62 -444c-14 -102 -47 -168 -98 -212c-49 -42 -116 -65 -195 -65c-80 0 -142 22 -179 64c-29 33 -44 75 -44 133c0 27 2 52 6 79l62 445c1 7 6 9 31 9h7c25 0 31 -2 30 -9l-61 -436c-3 -25 -6 -51 -6 -71c0 -54 9 -83 30 -108c28 -32 74 -48 132 -48
s108 16 143 49c39 35 64 92 76 178l61 436c1 7 7 9 31 9h6c24 0 31 -2 30 -9zM316 857c0 56 40 101 105 101c47 0 81 -33 81 -78c0 -56 -48 -102 -105 -102c-45 0 -81 31 -81 79zM414 919c-35 0 -56 -25 -56 -57c0 -26 19 -45 44 -45c31 0 56 26 56 58c0 24 -15 44 -44 44z
" />
    <glyph glyph-name="Uhungarumlaut" unicode="&#x170;" horiz-adv-x="656" 
d="M639 711l-62 -444c-14 -102 -47 -168 -98 -212c-49 -42 -116 -65 -195 -65c-80 0 -142 22 -179 64c-29 33 -44 75 -44 133c0 27 2 52 6 79l62 445c1 7 6 9 31 9h7c25 0 31 -2 30 -9l-61 -436c-3 -25 -6 -51 -6 -71c0 -54 9 -83 30 -108c28 -32 74 -48 132 -48
s108 16 143 49c39 35 64 92 76 178l61 436c1 7 7 9 31 9h6c24 0 31 -2 30 -9zM385 913h15c26 0 27 -3 21 -10l-103 -119c-5 -5 -9 -6 -28 -6h-3c-16 0 -23 2 -19 7l83 118c6 8 10 10 34 10zM539 913h14c23 0 28 -3 22 -10l-103 -119c-5 -5 -9 -6 -28 -6h-4
c-15 0 -22 2 -18 7l82 118c6 8 11 10 35 10z" />
    <glyph glyph-name="Uogonek" unicode="&#x172;" horiz-adv-x="656" 
d="M365 -214c-22 -10 -46 -15 -73 -15c-55 0 -87 33 -87 81c0 54 41 102 102 139c-8 -1 -15 -1 -23 -1c-80 0 -142 22 -179 64c-29 33 -44 75 -44 133c0 27 2 52 6 79l62 445c1 7 6 9 31 9h7c25 0 31 -2 30 -9l-61 -436c-3 -25 -6 -51 -6 -71c0 -54 9 -83 30 -108
c28 -32 74 -48 132 -48s108 16 143 49c39 35 64 92 76 178l61 436c1 7 7 9 31 9h6c24 0 31 -2 30 -9l-62 -444c-14 -102 -45 -166 -98 -212c-38 -33 -121 -65 -172 -112c-25 -23 -43 -50 -43 -82c0 -31 18 -46 47 -46c17 0 35 4 51 10c5 2 8 -1 8 -16v-5
c0 -12 -1 -16 -5 -18z" />
    <glyph glyph-name="Wgrave" unicode="&#x1e80;" horiz-adv-x="936" 
d="M965 709l-287 -695c-5 -12 -15 -14 -46 -14h-5c-34 0 -45 2 -46 14l-71 577l-236 -577c-5 -12 -15 -14 -46 -14h-5c-34 0 -40 2 -42 14l-96 693c-1 11 2 13 29 13h11c24 0 31 -3 32 -11l78 -642l258 643c3 7 6 10 29 10h13c22 0 26 -3 27 -10l78 -644l257 644
c3 8 7 10 32 10h10c26 0 29 -4 26 -11zM491 913h15c26 0 29 -3 32 -10l49 -118c2 -5 -5 -7 -21 -7h-4c-19 0 -22 1 -25 6l-70 119c-4 7 0 10 24 10z" />
    <glyph glyph-name="Wacute" unicode="&#x1e82;" horiz-adv-x="936" 
d="M965 709l-287 -695c-5 -12 -15 -14 -46 -14h-5c-34 0 -45 2 -46 14l-71 577l-236 -577c-5 -12 -15 -14 -46 -14h-5c-34 0 -40 2 -42 14l-96 693c-1 11 2 13 29 13h11c24 0 31 -3 32 -11l78 -642l258 643c3 7 6 10 29 10h13c22 0 26 -3 27 -10l78 -644l257 644
c3 8 7 10 32 10h10c26 0 29 -4 26 -11zM610 913h11c26 0 30 -3 24 -10l-104 -119c-5 -5 -8 -6 -27 -6h-4c-16 0 -22 2 -18 8l82 117c5 7 10 10 36 10z" />
    <glyph glyph-name="Wcircumflex" unicode="&#x174;" horiz-adv-x="936" 
d="M965 709l-287 -695c-5 -12 -15 -14 -46 -14h-5c-34 0 -45 2 -46 14l-71 577l-236 -577c-5 -12 -15 -14 -46 -14h-5c-34 0 -40 2 -42 14l-96 693c-1 11 2 13 29 13h11c24 0 31 -3 32 -11l78 -642l258 643c3 7 6 10 29 10h13c22 0 26 -3 27 -10l78 -644l257 644
c3 8 7 10 32 10h10c26 0 29 -4 26 -11zM542 921h26c19 0 25 -3 31 -10l78 -100c3 -4 2 -7 -6 -15l-6 -6c-10 -10 -12 -11 -16 -7l-97 97l-131 -97c-5 -4 -8 -2 -14 7l-4 6c-6 9 -6 11 -2 15l106 100c8 7 16 10 35 10z" />
    <glyph glyph-name="Wdieresis" unicode="&#x1e84;" horiz-adv-x="936" 
d="M965 709l-287 -695c-5 -12 -15 -14 -46 -14h-5c-34 0 -45 2 -46 14l-71 577l-236 -577c-5 -12 -15 -14 -46 -14h-5c-34 0 -40 2 -42 14l-96 693c-1 11 2 13 29 13h11c24 0 31 -3 32 -11l78 -642l258 643c3 7 6 10 29 10h13c22 0 26 -3 27 -10l78 -644l257 644
c3 8 7 10 32 10h10c26 0 29 -4 26 -11zM401 841c0 26 22 53 53 53c24 0 41 -20 41 -43c0 -27 -21 -52 -54 -52c-23 0 -40 19 -40 42zM599 841c0 26 22 53 53 53c24 0 41 -20 41 -43c0 -27 -22 -52 -54 -52c-23 0 -40 19 -40 42z" />
    <glyph glyph-name="Ygrave" unicode="&#x1ef2;" horiz-adv-x="513" 
d="M216 278l-146 430c-2 7 0 12 30 12h8c28 0 33 -3 35 -11l118 -369l223 371c5 8 11 9 36 9h9c25 0 30 -4 25 -12l-271 -430l-38 -269c-1 -7 -9 -9 -32 -9h-8c-23 0 -28 2 -27 9zM268 913h15c26 0 29 -3 32 -10l49 -118c2 -5 -5 -7 -21 -7h-4c-19 0 -22 1 -25 6l-70 119
c-4 7 0 10 24 10z" />
    <glyph glyph-name="Yacute" unicode="&#xdd;" horiz-adv-x="513" 
d="M216 278l-146 430c-2 7 0 12 30 12h8c28 0 33 -3 35 -11l118 -369l223 371c5 8 11 9 36 9h9c25 0 30 -4 25 -12l-271 -430l-38 -269c-1 -7 -9 -9 -32 -9h-8c-23 0 -28 2 -27 9zM387 913h11c26 0 30 -3 24 -10l-104 -119c-5 -5 -8 -6 -27 -6h-4c-16 0 -22 2 -18 8l82 117
c5 7 10 10 36 10z" />
    <glyph glyph-name="Ycircumflex" unicode="&#x176;" horiz-adv-x="513" 
d="M216 278l-146 430c-2 7 0 12 30 12h8c28 0 33 -3 35 -11l118 -369l223 371c5 8 11 9 36 9h9c25 0 30 -4 25 -12l-271 -430l-38 -269c-1 -7 -9 -9 -32 -9h-8c-23 0 -28 2 -27 9zM327 921h26c19 0 25 -3 31 -10l78 -100c3 -4 2 -7 -6 -15l-6 -6c-10 -10 -12 -11 -16 -7
l-97 97l-131 -97c-5 -4 -8 -2 -14 7l-4 6c-6 9 -6 11 -2 15l106 100c8 7 16 10 35 10z" />
    <glyph glyph-name="Ydieresis" unicode="&#x178;" horiz-adv-x="513" 
d="M216 278l-146 430c-2 7 0 12 30 12h8c28 0 33 -3 35 -11l118 -369l223 371c5 8 11 9 36 9h9c25 0 30 -4 25 -12l-271 -430l-38 -269c-1 -7 -9 -9 -32 -9h-8c-23 0 -28 2 -27 9zM178 841c0 26 22 53 53 53c24 0 41 -20 41 -43c0 -27 -21 -52 -54 -52c-23 0 -40 19 -40 42z
M376 841c0 26 22 53 53 53c24 0 41 -20 41 -43c0 -27 -22 -52 -54 -52c-23 0 -40 19 -40 42z" />
    <glyph glyph-name="Zacute" unicode="&#x179;" horiz-adv-x="528" 
d="M511 642l-427 -585h362c6 0 8 -2 4 -27l-1 -6c-4 -22 -5 -24 -11 -24h-420c-15 0 -18 3 -17 11l2 19c3 21 9 31 25 53l425 580h-334c-7 0 -8 5 -5 26l1 6c4 24 5 25 12 25h391c19 0 22 -2 21 -11l-2 -14c-3 -20 -9 -31 -26 -53zM393 913h11c26 0 30 -3 24 -10l-104 -119
c-5 -5 -8 -6 -27 -6h-4c-16 0 -22 2 -18 8l82 117c5 7 10 10 36 10z" />
    </font>
</defs>
</svg>
