<?xml version="1.0" standalone="no"?>
<!DOCTYPE svg PUBLIC "-//W3C//DTD SVG 1.1//EN" "http://www.w3.org/Graphics/SVG/1.1/DTD/svg11.dtd" >
<svg xmlns="http://www.w3.org/2000/svg" xmlns:xlink="http://www.w3.org/1999/xlink" version="1.1">
<metadata>
Created by FontForge 20170924 at Tue May 19 12:32:16 2015
 By www-data
Copyright (c) 2011 by Fontsmith Ltd. All rights reserved.
</metadata>
<defs>
<font id="FSMePro" horiz-adv-x="570" >
  <font-face 
    font-family="FS Me Pro"
    font-weight="400"
    font-stretch="normal"
    units-per-em="1000"
    panose-1="2 0 5 6 4 0 0 2 0 4"
    ascent="750"
    descent="-250"
    x-height="528"
    cap-height="720"
    bbox="-83.7027 -299.277 1231 1040"
    underline-thickness="66"
    underline-position="-100"
    stemh="75"
    stemv="90"
    unicode-range="U+000D-FB04"
  />
<missing-glyph horiz-adv-x="694" 
d="M90 0v720h514v-720h-514zM348 406l174 263h-350zM378 360l175 -262v524zM172 52h350l-174 262zM142 622v-524l174 262z" />
    <glyph glyph-name="fi" unicode="fi" horiz-adv-x="572" 
d="M29 528h73v19c0 146 64 223 208 223c51 0 104 -11 154 -38c7 -3 6 -16 1 -32l-3 -9c-6 -17 -13 -31 -23 -27c-48 21 -83 31 -129 31c-97 0 -118 -59 -118 -144v-23h116c7 0 9 -5 9 -32v-8c0 -26 -2 -31 -9 -31h-116v-445c0 -7 -1 -12 -41 -12h-6c-40 0 -43 4 -43 12v445
h-73c-7 0 -9 5 -9 31v8c0 27 2 32 9 32zM450 528h6c40 0 41 -5 41 -12v-504c0 -7 -1 -12 -41 -12h-6c-40 0 -43 4 -43 12v504c0 8 3 12 43 12z" />
    <glyph glyph-name="fl" unicode="fl" horiz-adv-x="589" 
d="M29 528h73v21c0 144 69 221 217 221c42 0 97 -9 144 -30c24 -10 24 -24 25 -34c5 -60 7 -150 7 -258v-329c0 -37 5 -50 38 -50h10c5 0 6 -4 6 -27v-3c0 -26 0 -30 -6 -32c-14 -5 -32 -8 -47 -8c-28 0 -56 7 -74 34c-13 19 -17 52 -17 105v332c0 70 -2 153 -6 211
c-26 10 -52 15 -81 15c-100 0 -126 -61 -126 -146v-22h116c7 0 9 -5 9 -32v-8c0 -26 -2 -31 -9 -31h-116v-445c0 -7 -1 -12 -41 -12h-6c-40 0 -43 4 -43 12v445h-73c-7 0 -9 5 -9 31v8c0 27 2 32 9 32z" />
    <glyph glyph-name="f_f" unicode="ff" horiz-adv-x="664" 
d="M102 457h-73c-7 0 -9 5 -9 31v8c0 27 2 32 9 32h73v24c0 141 59 218 182 218c36 0 68 -7 101 -22c6 -3 7 -8 0 -35l-1 -4c-6 -25 -10 -32 -18 -29c-25 9 -52 15 -79 15c-76 0 -95 -53 -95 -142v-25h241v24c0 141 59 218 182 218c36 0 68 -7 101 -22c6 -3 7 -8 0 -35
l-1 -4c-6 -25 -10 -32 -18 -29c-25 9 -52 15 -79 15c-76 0 -95 -53 -95 -142v-25h116c7 0 9 -5 9 -32v-8c0 -26 -2 -31 -9 -31h-116v-445c0 -7 -1 -12 -41 -12h-6c-40 0 -43 4 -43 12v445h-241v-445c0 -7 -1 -12 -41 -12h-6c-40 0 -43 4 -43 12v445z" />
    <glyph glyph-name="f_f_i" unicode="ffi" horiz-adv-x="903" 
d="M102 457h-73c-7 0 -9 5 -9 31v8c0 27 2 32 9 32h73v24c0 141 59 218 182 218c36 0 68 -7 101 -22c6 -3 7 -8 0 -35l-1 -4c-6 -25 -10 -32 -18 -29c-25 9 -52 15 -79 15c-76 0 -95 -53 -95 -142v-25h241v19c0 146 64 223 208 223c51 0 104 -11 154 -38c7 -3 6 -16 1 -32
l-3 -9c-6 -17 -13 -31 -23 -27c-48 21 -83 31 -129 31c-97 0 -118 -59 -118 -144v-23h116c7 0 9 -5 9 -32v-8c0 -26 -2 -31 -9 -31h-116v-445c0 -7 -1 -12 -41 -12h-6c-40 0 -43 4 -43 12v445h-241v-445c0 -7 -1 -12 -41 -12h-6c-40 0 -43 4 -43 12v445zM781 528h6
c40 0 41 -5 41 -12v-504c0 -7 -1 -12 -41 -12h-6c-40 0 -43 4 -43 12v504c0 8 3 12 43 12z" />
    <glyph glyph-name="f_j" unicode="fj" horiz-adv-x="572" 
d="M29 528h73v19c0 146 64 223 208 223c51 0 104 -11 154 -38c7 -3 6 -16 1 -32l-3 -9c-6 -17 -13 -31 -23 -27c-48 21 -83 31 -129 31c-97 0 -118 -59 -118 -144v-23h116c7 0 9 -5 9 -32v-8c0 -26 -2 -31 -9 -31h-116v-445c0 -7 -1 -12 -41 -12h-6c-40 0 -43 4 -43 12v445
h-73c-7 0 -9 5 -9 31v8c0 27 2 32 9 32zM450 528h6c40 0 41 -5 41 -12v-513c0 -172 -72 -237 -185 -237c-22 0 -56 6 -71 15c-7 4 -7 9 -3 30l3 15c4 20 8 25 19 23c15 -3 32 -7 46 -7c71 0 101 45 101 159v515c0 8 3 12 43 12z" />
    <glyph glyph-name="f_f_j" unicode="ffj" horiz-adv-x="903" 
d="M102 457h-73c-7 0 -9 5 -9 31v8c0 27 2 32 9 32h73v24c0 141 59 218 182 218c36 0 68 -7 101 -22c6 -3 7 -8 0 -35l-1 -4c-6 -25 -10 -32 -18 -29c-25 9 -52 15 -79 15c-76 0 -95 -53 -95 -142v-25h241v19c0 146 64 223 208 223c51 0 104 -11 154 -38c7 -3 6 -16 1 -32
l-3 -9c-6 -17 -13 -31 -23 -27c-48 21 -83 31 -129 31c-97 0 -118 -59 -118 -144v-23h116c7 0 9 -5 9 -32v-8c0 -26 -2 -31 -9 -31h-116v-445c0 -7 -1 -12 -41 -12h-6c-40 0 -43 4 -43 12v445h-241v-445c0 -7 -1 -12 -41 -12h-6c-40 0 -43 4 -43 12v445zM781 528h6
c40 0 41 -5 41 -12v-513c0 -172 -72 -237 -185 -237c-22 0 -56 6 -71 15c-7 4 -7 9 -3 30l3 15c4 20 8 25 19 23c15 -3 32 -7 46 -7c71 0 101 45 101 159v515c0 8 3 12 43 12z" />
    <glyph glyph-name="f_f_l" unicode="ffl" horiz-adv-x="920" 
d="M433 528v21c0 144 69 221 217 221c42 0 97 -9 144 -30c24 -10 24 -24 25 -34c5 -60 7 -150 7 -258v-329c0 -37 5 -50 38 -50h10c5 0 6 -4 6 -27v-3c0 -26 0 -30 -6 -32c-14 -5 -32 -8 -47 -8c-28 0 -56 7 -74 34c-13 19 -17 52 -17 105v332c0 70 -2 153 -6 211
c-26 10 -52 15 -81 15c-100 0 -126 -61 -126 -146v-22h116c7 0 9 -5 9 -32v-8c0 -26 -2 -31 -9 -31h-116v-445c0 -7 -1 -12 -41 -12h-6c-40 0 -43 4 -43 12v445h-241v-445c0 -7 -1 -12 -41 -12h-6c-40 0 -43 4 -43 12v445h-73c-7 0 -9 5 -9 31v8c0 27 2 32 9 32h73v24
c0 141 59 218 182 218c36 0 68 -7 101 -22c6 -3 7 -8 0 -35l-1 -4c-6 -25 -10 -32 -18 -29c-25 9 -52 15 -79 15c-76 0 -95 -53 -95 -142v-25h241z" />
    <glyph glyph-name=".notdef" horiz-adv-x="694" 
d="M90 0v720h514v-720h-514zM348 406l174 263h-350zM378 360l175 -262v524zM172 52h350l-174 262zM142 622v-524l174 262z" />
    <glyph glyph-name=".null" horiz-adv-x="0" 
 />
    <glyph glyph-name=".null" horiz-adv-x="0" 
 />
    <glyph glyph-name="CR" unicode="&#xd;" horiz-adv-x="250" 
 />
    <glyph glyph-name="nbspace" unicode="&#xa0;" horiz-adv-x="250" 
 />
    <glyph glyph-name="space" unicode=" " horiz-adv-x="250" 
 />
    <glyph glyph-name="A" unicode="A" horiz-adv-x="648" 
d="M313 720h19c30 0 42 -3 45 -11l248 -698c3 -8 -15 -11 -43 -11h-15c-26 0 -43 3 -46 11l-59 176h-282l-59 -176c-3 -8 -18 -11 -44 -11h-13c-28 0 -44 3 -41 11l244 698c3 8 13 11 46 11zM320 620l-117 -354h235z" />
    <glyph glyph-name="B" unicode="B" horiz-adv-x="574" 
d="M80 720h174c132 0 243 -48 243 -187c0 -76 -41 -127 -85 -151c82 -35 123 -88 123 -173c0 -158 -118 -209 -260 -209h-195v720zM175 333v-255h92c69 0 171 12 171 123c0 76 -48 132 -153 132h-110zM175 642v-234h78c104 0 148 49 148 118c0 101 -86 116 -144 116h-82z
" />
    <glyph glyph-name="C" unicode="C" horiz-adv-x="573" 
d="M528 646l-6 -12c-8 -16 -18 -26 -24 -23c-46 25 -90 38 -137 38c-121 0 -215 -91 -215 -293c0 -139 47 -283 210 -283c46 0 93 11 137 33c6 3 16 -4 24 -22l6 -13c7 -15 9 -30 3 -34c-54 -31 -118 -47 -188 -47c-200 0 -290 149 -290 360c0 198 77 380 303 380
c68 0 131 -17 180 -50c6 -4 4 -19 -3 -34z" />
    <glyph glyph-name="D" unicode="D" horiz-adv-x="654" 
d="M80 720h168c132 0 212 -24 273 -88c55 -57 88 -144 88 -268c0 -123 -33 -224 -102 -290c-60 -57 -144 -74 -254 -74h-173v720zM175 642v-564h80c69 0 135 14 180 56c50 47 76 126 76 227c0 92 -21 161 -57 205c-38 48 -98 76 -193 76h-86z" />
    <glyph glyph-name="E" unicode="E" horiz-adv-x="544" 
d="M80 720h400c7 0 9 -11 9 -33v-12c0 -23 -2 -34 -9 -34h-305v-237h259c7 0 9 -11 9 -33v-12c0 -23 -2 -34 -9 -34h-259v-245h309c7 0 9 -11 9 -33v-13c0 -23 -2 -34 -9 -34h-404v720z" />
    <glyph glyph-name="F" unicode="F" horiz-adv-x="490" 
d="M80 720h375c7 0 9 -11 9 -33v-12c0 -23 -2 -34 -9 -34h-280v-237h234c7 0 9 -11 9 -33v-12c0 -23 -2 -34 -9 -34h-234v-314c0 -8 -15 -11 -41 -11h-11c-28 0 -43 3 -43 11v709z" />
    <glyph glyph-name="G" unicode="G" horiz-adv-x="635" 
d="M550 635l-7 -12c-10 -18 -22 -24 -28 -20c-50 32 -105 47 -161 47c-147 0 -215 -115 -215 -291c0 -171 65 -289 224 -289c42 0 89 8 121 21v216h-157c-7 0 -9 10 -9 32v14c0 23 2 33 9 33h251v-346c-55 -25 -145 -50 -230 -50c-204 0 -307 137 -307 363
c0 229 106 377 309 377c85 0 153 -23 202 -60c6 -4 8 -17 -2 -35z" />
    <glyph glyph-name="H" unicode="H" horiz-adv-x="664" 
d="M121 720h11c28 0 43 -3 43 -11v-305h314v305c0 8 15 11 41 11h11c28 0 43 -3 43 -11v-698c0 -8 -15 -11 -41 -11h-11c-28 0 -43 3 -43 11v314h-314v-314c0 -8 -15 -11 -41 -11h-11c-28 0 -43 3 -43 11v698c0 8 15 11 41 11z" />
    <glyph glyph-name="I" unicode="I" horiz-adv-x="381" 
d="M70 720h241c6 0 8 -9 8 -28v-12c0 -20 -2 -29 -8 -29h-73v-582h73c6 0 8 -9 8 -29v-12c0 -19 -2 -28 -8 -28h-241c-6 0 -8 4 -8 29v11c0 25 2 29 8 29h73v582h-73c-6 0 -8 4 -8 29v11c0 25 2 29 8 29z" />
    <glyph glyph-name="J" unicode="J" horiz-adv-x="442" 
d="M319 720h11c28 0 43 -3 43 -11v-493c0 -144 -56 -226 -197 -226c-60 0 -114 16 -151 50c-5 5 -1 21 11 38l7 10c11 15 23 21 30 16c30 -20 60 -33 98 -33c83 0 107 62 107 136v502c0 8 15 11 41 11z" />
    <glyph glyph-name="K" unicode="K" horiz-adv-x="588" 
d="M121 720h11c28 0 43 -3 43 -11v-342l77 86c93 104 156 190 192 257c4 8 10 10 42 10h9c36 0 44 -2 40 -11c-24 -59 -105 -178 -212 -293l244 -405c4 -7 -15 -11 -43 -11h-19c-26 0 -44 4 -48 11l-200 342l-82 -91v-251c0 -8 -15 -11 -41 -11h-11c-28 0 -43 3 -43 11v698
c0 8 15 11 41 11z" />
    <glyph glyph-name="L" unicode="L" horiz-adv-x="506" 
d="M121 720h11c28 0 43 -3 43 -11v-629h286c7 0 9 -11 9 -33v-13c0 -23 -2 -34 -9 -34h-346c-26 0 -35 4 -35 14v695c0 8 15 11 41 11z" />
    <glyph glyph-name="M" unicode="M" horiz-adv-x="779" 
d="M148 720h5c39 0 51 -4 55 -15l186 -466l181 466c4 11 13 15 52 15h7c42 0 52 -5 52 -15l28 -694c0 -8 -14 -11 -39 -11h-11c-27 0 -41 3 -41 11l-18 555l-165 -431c-3 -7 -13 -10 -45 -10h-8c-33 0 -42 3 -45 11l-167 416l-20 -541c0 -8 -14 -11 -41 -11h-10
c-25 0 -39 3 -39 11l33 694c1 13 7 15 50 15z" />
    <glyph glyph-name="N" unicode="N" horiz-adv-x="678" 
d="M123 720h5c42 0 49 -3 55 -13l333 -554v556c0 8 13 11 38 11h8c27 0 40 -3 40 -11v-698c0 -9 -10 -11 -47 -11h-3c-42 0 -49 3 -55 13l-335 553v-555c0 -8 -13 -11 -38 -11h-8c-27 0 -40 3 -40 11v698c0 9 10 11 47 11z" />
    <glyph glyph-name="O" unicode="O" horiz-adv-x="697" 
d="M356 649c-131 0 -213 -107 -213 -295c0 -182 73 -283 198 -283c131 0 213 109 213 296c0 182 -73 282 -198 282zM360 730c172 0 292 -121 292 -359c0 -234 -124 -381 -315 -381c-172 0 -292 122 -292 360c0 234 124 380 315 380z" />
    <glyph glyph-name="P" unicode="P" horiz-adv-x="537" 
d="M80 720h169c152 0 269 -47 269 -217c0 -104 -53 -233 -239 -233c-34 0 -71 2 -104 6v-265c0 -8 -15 -11 -41 -11h-11c-28 0 -43 3 -43 11v709zM175 642v-289c31 -4 65 -6 97 -6c103 0 148 63 148 153c0 130 -93 142 -159 142h-86z" />
    <glyph glyph-name="Q" unicode="Q" horiz-adv-x="695" 
d="M586 -77l-9 -10c-18 -20 -29 -19 -36 -13c-29 27 -64 66 -96 108c-33 -12 -69 -18 -108 -18c-172 0 -292 122 -292 360c0 234 124 380 315 380c172 0 292 -121 292 -359c0 -149 -50 -262 -135 -325c29 -39 56 -69 82 -90c7 -6 3 -15 -13 -33zM377 199l14 6
c17 7 30 8 35 -2c12 -24 25 -51 45 -83c53 49 83 133 83 247c0 182 -73 282 -198 282c-131 0 -213 -107 -213 -295c0 -182 73 -283 198 -283c22 0 44 3 63 10c-16 25 -38 64 -50 96c-3 8 6 15 23 22z" />
    <glyph glyph-name="R" unicode="R" horiz-adv-x="574" 
d="M80 720h169c153 0 271 -41 271 -204c0 -104 -51 -172 -147 -208l48 -93c36 -72 71 -131 120 -199c5 -8 -11 -16 -40 -16h-19c-31 0 -47 10 -53 19c-39 55 -59 97 -90 157l-61 119h-103v-284c0 -8 -15 -11 -41 -11h-11c-28 0 -43 3 -43 11v709zM175 643v-272h91
c112 0 156 60 156 142c0 119 -93 130 -158 130h-89z" />
    <glyph glyph-name="S" unicode="S" horiz-adv-x="519" 
d="M441 644l-5 -9c-11 -20 -22 -24 -28 -20c-32 21 -74 35 -125 35c-85 0 -122 -53 -122 -106c0 -146 320 -123 320 -348c0 -122 -79 -206 -230 -206c-83 0 -158 23 -202 57c-7 6 -6 20 6 41l7 12c10 16 22 23 28 19c45 -31 107 -49 150 -49c82 0 147 40 147 114
c0 172 -319 134 -319 347c0 126 95 199 208 199c58 0 131 -18 171 -51c6 -5 2 -20 -6 -35z" />
    <glyph glyph-name="T" unicode="T" horiz-adv-x="512" 
d="M23 720h466c7 0 9 -11 9 -33v-12c0 -23 -2 -34 -9 -34h-186v-630c0 -8 -15 -11 -43 -11h-11c-26 0 -41 3 -41 11v630h-185c-7 0 -9 11 -9 34v12c0 22 2 33 9 33z" />
    <glyph glyph-name="U" unicode="U" horiz-adv-x="678" 
d="M114 720h11c28 0 43 -3 43 -11v-440c0 -141 60 -199 171 -199c109 0 171 67 171 198v441c0 8 15 11 41 11h11c28 0 43 -3 43 -11v-429c0 -197 -90 -290 -270 -290c-172 0 -262 82 -262 272v447c0 8 15 11 41 11z" />
    <glyph glyph-name="V" unicode="V" horiz-adv-x="607" 
d="M62 720h15c26 0 45 -5 47 -12l186 -613l183 613c2 8 17 12 43 12h13c28 0 43 -4 40 -12l-223 -697c-3 -8 -21 -11 -47 -11h-24c-28 0 -43 3 -46 11l-231 697c-3 8 16 12 44 12z" />
    <glyph glyph-name="W" unicode="W" horiz-adv-x="953" 
d="M72 720h14c26 0 45 -4 47 -12l148 -613l146 614c2 8 17 11 45 11h23c28 0 43 -3 45 -11l150 -614l144 613c2 8 16 12 42 12h11c28 0 42 -4 40 -12l-179 -698c-2 -8 -21 -11 -47 -11h-30c-28 0 -44 3 -46 11l-144 590l-139 -588c-2 -8 -21 -13 -47 -13h-31
c-28 0 -44 5 -46 13l-190 696c-2 8 16 12 44 12z" />
    <glyph glyph-name="X" unicode="X" horiz-adv-x="576" 
d="M94 720h12c26 0 44 -3 48 -11l149 -265l149 265c5 8 22 11 48 11h10c28 0 49 -4 44 -12l-206 -339l210 -356c5 -8 -16 -13 -44 -13h-15c-26 0 -45 4 -49 11l-162 290l-166 -290c-4 -7 -22 -11 -48 -11h-12c-28 0 -48 5 -43 13l221 365l-190 330c-4 8 16 12 44 12z" />
    <glyph glyph-name="Y" unicode="Y" horiz-adv-x="543" 
d="M54 720h15c26 0 44 -3 48 -11l159 -338l156 338c4 8 21 11 46 11h11c27 0 46 -4 42 -12l-214 -429v-268c0 -8 -15 -11 -43 -11h-11c-26 0 -41 3 -41 11v268l-212 429c-4 8 16 12 44 12z" />
    <glyph glyph-name="Z" unicode="Z" horiz-adv-x="547" 
d="M70 720h398c26 0 35 -3 35 -14v-43c0 -16 -11 -34 -21 -50l-333 -533h353c7 0 9 -11 9 -33v-12c0 -23 -2 -35 -9 -35h-426c-27 0 -35 4 -35 14v43c0 18 6 32 18 51l334 533h-323c-7 0 -9 8 -9 37v7c0 23 2 35 9 35z" />
    <glyph glyph-name="a" unicode="a" horiz-adv-x="567" 
d="M451 528h2c38 0 39 -4 39 -12c0 -24 -2 -88 -2 -152v-140c0 -92 4 -157 7 -212c0 -8 -5 -12 -36 -12h-4c-31 0 -37 3 -38 12l-6 46c-32 -39 -89 -68 -154 -68c-146 0 -214 121 -214 265c0 171 98 283 230 283c60 0 107 -28 135 -64l5 42c1 12 6 12 36 12zM400 247v142
c-23 36 -68 68 -115 68c-92 0 -146 -77 -146 -197c0 -94 33 -190 136 -190c33 0 73 10 100 39c21 23 25 51 25 138z" />
    <glyph glyph-name="b" unicode="b" horiz-adv-x="560" 
d="M164 209v-124c25 -10 58 -17 87 -17c114 0 170 83 170 203s-43 182 -128 182c-37 0 -76 -14 -99 -37c-12 -12 -23 -29 -27 -72c-2 -28 -3 -77 -3 -135zM117 760h6c40 0 41 -5 41 -12v-269c29 34 90 59 149 59c80 0 140 -42 172 -110c19 -41 30 -93 30 -150
c0 -177 -87 -288 -256 -288c-77 0 -136 14 -182 35c-2 1 -3 6 -3 10v713c0 8 3 12 43 12z" />
    <glyph glyph-name="c" unicode="c" horiz-adv-x="487" 
d="M439 83l5 -13c10 -24 7 -31 0 -35c-50 -28 -108 -45 -170 -45c-153 0 -229 117 -229 266c0 183 107 282 246 282c63 0 119 -22 161 -52c8 -6 8 -13 -6 -46c-15 -34 -25 -31 -32 -26c-37 25 -78 42 -118 42c-93 0 -157 -70 -157 -194c0 -96 39 -190 147 -190
c42 0 88 12 127 31c8 4 18 1 26 -20z" />
    <glyph glyph-name="d" unicode="d" horiz-adv-x="580" 
d="M444 760h6c32 0 41 -3 41 -13v-622c0 -50 8 -54 35 -54c6 0 9 -6 9 -27v-7c0 -24 -3 -31 -9 -33c-14 -5 -27 -6 -44 -6c-30 0 -57 19 -69 58h-1c-25 -34 -81 -66 -153 -66c-132 0 -214 99 -214 263c0 150 78 285 243 285c41 0 88 -16 113 -33v242c0 10 9 13 43 13z
M401 244v175c-25 21 -68 37 -108 37c-94 0 -154 -79 -154 -200c0 -123 60 -186 138 -186c34 0 72 11 95 34s29 56 29 140z" />
    <glyph glyph-name="e" unicode="e" horiz-adv-x="544" 
d="M491 232h-352c3 -55 19 -98 50 -124c27 -24 66 -36 118 -36c42 0 84 10 132 32c9 4 15 6 25 -19l5 -12c11 -26 10 -32 2 -37c-51 -30 -114 -46 -181 -46c-162 0 -245 101 -245 262c0 168 92 286 240 286c89 0 150 -44 183 -110c23 -46 33 -101 33 -160
c0 -30 -2 -36 -10 -36zM142 306h267c-1 75 -39 150 -123 150c-73 0 -130 -47 -144 -150z" />
    <glyph glyph-name="f" unicode="f" horiz-adv-x="333" 
d="M39 528h63v24c0 141 59 218 182 218c36 0 68 -7 101 -22c6 -3 7 -8 0 -35l-1 -4c-6 -25 -10 -32 -18 -29c-25 9 -52 15 -79 15c-76 0 -95 -53 -95 -142v-25h116c7 0 9 -5 9 -32v-8c0 -26 -2 -31 -9 -31h-116v-445c0 -7 -1 -12 -41 -12h-6c-40 0 -43 4 -43 12v445h-63
c-7 0 -9 5 -9 31v8c0 27 2 32 9 32z" />
    <glyph glyph-name="g" unicode="g" horiz-adv-x="565" 
d="M404 140v144c0 67 -3 93 -15 116c-16 31 -51 54 -108 54c-87 0 -142 -76 -142 -192s45 -181 137 -181c50 0 101 25 128 59zM445 528h3c32 0 39 -3 40 -13c4 -49 6 -190 6 -248v-166c0 -87 -5 -142 -19 -188c-29 -95 -120 -147 -221 -147c-50 0 -119 12 -151 31
c-6 3 -7 12 1 35l4 12c8 24 12 28 17 28s16 -5 24 -8c29 -10 58 -17 95 -17c85 0 138 36 154 114c5 26 6 69 6 96c-36 -39 -95 -57 -146 -57c-144 0 -213 111 -213 258c1 173 99 280 228 280c57 0 106 -24 130 -64h1v41c0 9 7 13 41 13z" />
    <glyph glyph-name="h" unicode="h" horiz-adv-x="584" 
d="M117 760h6c40 0 43 -4 43 -12v-274c35 39 100 64 160 64c55 0 104 -19 137 -53c36 -37 51 -89 51 -170v-303c0 -7 -1 -12 -41 -12h-6c-40 0 -43 4 -43 12v261c0 81 -3 119 -27 147c-19 23 -51 33 -95 33c-37 0 -82 -13 -106 -36c-12 -11 -23 -28 -27 -71
c-2 -28 -3 -79 -3 -137v-197c0 -7 -1 -12 -41 -12h-6c-40 0 -43 4 -43 12v736c0 7 1 12 41 12z" />
    <glyph glyph-name="i" unicode="i" horiz-adv-x="240" 
d="M118 528h6c40 0 41 -5 41 -12v-504c0 -7 -1 -12 -41 -12h-6c-40 0 -43 4 -43 12v504c0 8 3 12 43 12zM57 690c0 35 28 63 63 63s63 -28 63 -63s-28 -63 -63 -63s-63 28 -63 63z" />
    <glyph glyph-name="j" unicode="j" horiz-adv-x="253" 
d="M131 528h6c40 0 41 -5 41 -12v-513c0 -172 -72 -237 -185 -237c-22 0 -56 6 -71 15c-7 4 -7 9 -3 30l3 15c4 20 8 25 19 23c15 -3 32 -7 46 -7c71 0 101 45 101 159v515c0 8 3 12 43 12zM70 690c0 35 28 63 63 63s63 -28 63 -63s-28 -63 -63 -63s-63 28 -63 63z" />
    <glyph glyph-name="k" unicode="k" horiz-adv-x="492" 
d="M119 760h6c40 0 41 -5 41 -12v-436l61 57c54 51 84 85 132 148c6 8 11 11 48 11c36 0 48 -6 43 -15c-20 -37 -85 -117 -166 -195l187 -304c4 -7 -1 -14 -39 -14h-7c-38 0 -48 3 -53 11l-155 251l-51 -45v-205c0 -7 -1 -12 -41 -12h-6c-40 0 -43 4 -43 12v736
c0 8 3 12 43 12z" />
    <glyph glyph-name="l" unicode="l" horiz-adv-x="256" 
d="M109 760h6c32 0 39 -3 41 -13c5 -28 6 -148 6 -296v-332c0 -37 5 -50 38 -50h10c5 0 6 -4 6 -27v-3c0 -26 0 -30 -6 -32c-14 -5 -32 -8 -47 -8c-28 0 -56 7 -74 34c-13 19 -17 52 -17 105v335c0 105 -1 235 -6 274c-1 10 9 13 43 13z" />
    <glyph glyph-name="m" unicode="m" horiz-adv-x="910" 
d="M113 528h5c36 0 41 -3 41 -12l1 -45h1c35 41 93 67 155 67c55 0 102 -19 135 -53c9 -10 17 -20 23 -32c40 55 109 85 180 85c55 0 102 -19 135 -53c36 -37 51 -89 51 -170v-303c0 -7 -1 -12 -41 -12h-6c-40 0 -43 4 -43 12v261c0 81 -3 119 -27 147c-19 23 -53 33 -91 33
c-35 0 -77 -13 -100 -35c-12 -11 -23 -28 -27 -71c-2 -28 -3 -79 -3 -137v-198c0 -7 -1 -12 -41 -12h-6c-40 0 -43 4 -43 12v261c0 81 -3 119 -27 147c-19 23 -53 33 -91 33c-35 0 -77 -13 -100 -35c-12 -11 -23 -28 -27 -71c-2 -28 -3 -79 -3 -137v-198
c0 -7 -1 -12 -41 -12h-6c-40 0 -43 4 -43 12v341c0 68 -2 138 -2 163c0 8 3 12 41 12z" />
    <glyph glyph-name="n" unicode="n" horiz-adv-x="585" 
d="M117 528h5c36 0 41 -3 41 -12l1 -45h1c35 41 101 67 163 67c55 0 104 -19 137 -53c36 -37 51 -89 51 -170v-303c0 -7 -1 -12 -41 -12h-6c-40 0 -43 4 -43 12v261c0 81 -3 119 -27 147c-19 23 -51 33 -95 33c-37 0 -82 -13 -106 -36c-12 -11 -23 -28 -27 -71
c-2 -28 -3 -79 -3 -137v-197c0 -7 -1 -12 -41 -12h-6c-40 0 -43 4 -43 12v341c0 68 -2 138 -2 163c0 8 3 12 41 12z" />
    <glyph glyph-name="o" unicode="o" horiz-adv-x="568" 
d="M294 538c61 0 112 -16 150 -50c50 -44 79 -118 79 -212c0 -189 -99 -286 -249 -286c-61 0 -112 16 -150 50c-50 44 -79 118 -79 212c0 189 99 286 249 286zM290 458c-80 0 -151 -56 -151 -199c0 -90 30 -189 139 -189c80 0 151 56 151 199c0 90 -30 189 -139 189z" />
    <glyph glyph-name="p" unicode="p" horiz-adv-x="565" 
d="M116 528h4c36 0 42 -3 42 -12l1 -44c31 38 89 66 144 66c132 0 213 -99 213 -263c0 -150 -79 -284 -244 -284c-39 0 -84 14 -109 31v-241c0 -10 -9 -13 -43 -13h-6c-32 0 -41 3 -41 13v572c0 68 -2 138 -2 163c0 8 3 12 41 12zM167 265v-155c25 -21 64 -38 104 -38
c94 0 155 79 155 200s-56 185 -134 185c-40 0 -86 -18 -106 -44c-18 -23 -19 -49 -19 -148z" />
    <glyph glyph-name="q" unicode="q" horiz-adv-x="565" 
d="M489 493v-429c0 -105 1 -235 6 -274c1 -10 -9 -13 -43 -13h-6c-32 0 -39 3 -41 13c-5 26 -6 131 -6 259c-30 -35 -86 -59 -150 -59c-136 0 -204 117 -204 260c0 177 104 288 263 288c71 0 132 -14 178 -35c2 -1 3 -6 3 -10zM399 300v143c-25 10 -58 17 -87 17
c-112 0 -173 -82 -173 -203c0 -122 45 -183 131 -183c36 0 72 11 95 33c28 26 34 67 34 193z" />
    <glyph glyph-name="r" unicode="r" horiz-adv-x="359" 
d="M116 528h5c36 0 41 -3 41 -12l2 -103c38 84 93 121 146 121c9 0 16 -1 21 -2c9 -2 10 -5 10 -28v-15c0 -29 -1 -37 -11 -37c-71 0 -107 -44 -136 -91c-14 -23 -22 -51 -24 -86c-2 -28 -3 -90 -3 -148v-115c0 -7 -1 -12 -41 -12h-6c-40 0 -43 4 -43 12v341
c0 68 -2 138 -2 163c0 8 3 12 41 12z" />
    <glyph glyph-name="s" unicode="s" horiz-adv-x="458" 
d="M394 447l-7 -10c-18 -26 -23 -26 -30 -20c-37 26 -72 44 -116 44c-41 0 -100 -16 -100 -71c0 -54 56 -68 104 -80c82 -21 169 -51 169 -155c0 -107 -90 -165 -200 -165c-64 0 -126 23 -164 50c-10 7 -7 13 4 36l5 11c13 28 17 29 30 21c38 -22 86 -40 130 -40
c46 0 110 23 110 81c0 54 -64 72 -115 83c-53 12 -92 26 -119 51c-25 23 -40 58 -40 97c0 98 85 158 185 158c63 0 121 -22 158 -55c8 -7 10 -16 -4 -36z" />
    <glyph glyph-name="t" unicode="t" horiz-adv-x="368" 
d="M140 676h6c40 0 41 -5 41 -12v-136h126c7 0 9 -5 9 -31v-8c0 -27 -2 -32 -9 -32h-126v-295c0 -38 3 -63 16 -77c11 -12 28 -18 51 -18s48 7 68 13c10 3 13 -1 18 -20l3 -13c5 -21 5 -27 -3 -32c-25 -16 -68 -25 -105 -25c-45 0 -78 12 -100 33c-29 27 -38 65 -38 132v302
h-63c-7 0 -9 5 -9 32v8c0 26 2 31 9 31h63v136c0 8 3 12 43 12z" />
    <glyph glyph-name="u" unicode="u" horiz-adv-x="581" 
d="M109 528h8c38 0 42 -4 42 -12v-262c0 -79 3 -120 25 -147c18 -22 48 -34 89 -34c39 0 85 13 109 36c21 20 32 50 32 160v247c0 7 6 12 40 12h9c34 0 41 -4 41 -12v-341c0 -68 2 -138 2 -163c0 -8 -3 -12 -41 -12h-4c-35 0 -41 4 -41 12l-2 43h-1
c-37 -41 -92 -65 -166 -65c-54 0 -100 18 -133 53c-35 37 -49 89 -49 170v303c0 7 2 12 40 12z" />
    <glyph glyph-name="v" unicode="v" horiz-adv-x="493" 
d="M111 517l144 -415h1c49 133 97 275 128 416c2 8 3 10 42 10c40 0 48 -1 44 -19c-47 -191 -112 -371 -169 -497c-5 -11 -13 -12 -53 -12c-39 0 -47 2 -51 12l-183 502c-4 12 7 14 44 14c36 0 50 -3 53 -11z" />
    <glyph glyph-name="w" unicode="w" horiz-adv-x="777" 
d="M115 517l113 -413l106 410c3 10 9 14 45 14h21c32 0 38 -4 41 -14l110 -411c44 139 83 266 108 413c1 8 6 12 45 12c36 0 45 -2 41 -20c-45 -205 -94 -354 -144 -493c-4 -11 -17 -15 -49 -15h-15c-30 0 -43 4 -46 14l-63 235c-15 55 -31 126 -42 180
c-10 -52 -27 -122 -43 -181l-62 -235c-3 -10 -13 -13 -49 -13h-9c-41 0 -50 3 -53 13l-149 501c-3 12 7 14 40 14c41 0 51 -3 54 -11z" />
    <glyph glyph-name="x" unicode="x" horiz-adv-x="519" 
d="M161 517l101 -165l99 165c5 9 19 11 55 11c39 0 51 -4 44 -14l-150 -232l176 -270c6 -9 -6 -12 -47 -12c-45 0 -51 2 -58 11l-124 196l-120 -196c-6 -8 -19 -11 -55 -11c-39 0 -51 4 -44 14l171 261l-153 241c-6 9 5 12 46 12c45 0 53 -1 59 -11z" />
    <glyph glyph-name="y" unicode="y" horiz-adv-x="507" 
d="M116 517l94 -249c27 -72 41 -116 55 -171c11 46 31 105 51 164l89 256c3 9 14 11 45 11c39 0 50 -3 46 -14l-189 -526c-26 -73 -54 -127 -85 -160c-41 -44 -91 -61 -149 -61c-26 0 -59 7 -80 18c-11 6 -9 14 -3 32l4 12c8 24 11 28 22 25c18 -5 34 -9 54 -9
c66 0 105 36 147 149l-199 520c-5 12 7 14 47 14c36 0 48 -3 51 -11z" />
    <glyph glyph-name="z" unicode="z" horiz-adv-x="455" 
d="M61 528h341c7 0 9 -7 9 -28v-7c0 -18 -2 -25 -8 -34l-249 -382h254c7 0 9 -5 9 -32v-14c0 -26 -2 -31 -9 -31h-359c-7 0 -9 7 -9 28v9c0 16 2 22 8 32l249 382h-236c-7 0 -9 5 -9 32v14c0 26 2 31 9 31z" />
    <glyph glyph-name="ampersand" unicode="&#x26;" horiz-adv-x="697" 
d="M461 665l-3 -9c-6 -18 -15 -33 -21 -30c-35 18 -69 27 -106 27c-83 0 -111 -42 -111 -101c0 -52 24 -87 69 -140c58 -69 126 -138 199 -203c26 49 46 114 57 186c1 9 8 13 36 13h11c28 0 37 -6 36 -15c-12 -93 -39 -172 -78 -238c38 -32 77 -63 117 -92
c6 -4 2 -15 -12 -35l-8 -11c-14 -19 -23 -28 -29 -24c-44 30 -82 60 -117 91c-52 -58 -124 -94 -228 -94c-148 0 -229 86 -229 202c0 97 58 164 144 207c-45 47 -63 99 -63 145c0 96 62 186 206 186c48 0 90 -12 129 -33c7 -4 7 -13 1 -32zM439 137
c-78 68 -144 134 -205 204c-47 -29 -95 -73 -95 -143c0 -81 61 -131 145 -131c74 0 122 32 155 70z" />
    <glyph glyph-name="at" unicode="@" horiz-adv-x="818" 
d="M518 516l2 8c2 9 13 12 30 12h25c23 0 28 -8 27 -13c-7 -25 -16 -62 -25 -107l-19 -97c-3 -16 -5 -31 -5 -43c0 -27 10 -55 50 -55c85 0 113 122 113 199c0 157 -117 247 -273 247c-192 0 -330 -135 -330 -331c0 -185 118 -283 286 -283c53 0 112 9 159 24
c6 2 12 -4 16 -19l2 -7c4 -14 7 -26 -1 -29c-54 -21 -129 -32 -188 -32c-199 0 -344 123 -344 337c0 235 176 403 402 403c190 0 341 -113 341 -307c0 -124 -63 -263 -200 -263c-55 0 -74 24 -95 55c-31 -32 -68 -55 -122 -55c-99 0 -139 63 -139 143c0 110 72 240 207 240
c36 0 62 -10 81 -27zM477 346l22 101c-16 18 -39 29 -67 29c-77 0 -113 -89 -113 -164c0 -52 16 -83 63 -83c61 0 81 54 95 117z" />
    <glyph glyph-name="exclam" unicode="!" horiz-adv-x="303" 
d="M142 720h14c35 0 49 -4 49 -13l-16 -500c0 -7 -10 -9 -32 -9h-11c-24 0 -34 2 -34 9l-18 500c0 10 16 13 48 13zM151 117c35 0 64 -29 64 -64c0 -34 -29 -63 -64 -63c-34 0 -63 29 -63 63c0 35 29 64 63 64z" />
    <glyph glyph-name="exclamdown" unicode="&#xa1;" horiz-adv-x="293" 
d="M141 330h11c24 0 34 -2 34 -9l18 -500c0 -10 -16 -13 -48 -13h-14c-35 0 -49 4 -49 13l16 500c0 7 10 9 32 9zM83 475c0 34 29 63 64 63c34 0 63 -29 63 -63c0 -35 -29 -64 -63 -64c-35 0 -64 29 -64 64z" />
    <glyph glyph-name="question" unicode="?" horiz-adv-x="412" 
d="M149 117c35 0 64 -29 64 -64c0 -34 -29 -63 -64 -63c-34 0 -63 29 -63 63c0 35 29 64 63 64zM51 640l-9 20c-6 14 -5 30 0 33c41 24 100 37 147 37c113 0 201 -47 201 -170c0 -96 -52 -161 -126 -199c-54 -28 -70 -48 -70 -86v-68c0 -7 -15 -10 -39 -10h-13
c-26 0 -41 3 -41 10v64c0 78 27 117 106 157c59 30 87 61 87 120c0 77 -51 98 -115 98c-36 0 -70 -8 -104 -25c-5 -3 -16 2 -24 19z" />
    <glyph glyph-name="questiondown" unicode="&#xbf;" horiz-adv-x="412" 
d="M203 475c0 34 29 63 64 63c34 0 63 -29 63 -63c0 -35 -29 -64 -63 -64c-35 0 -64 29 -64 64zM261 331h13c26 0 41 -3 41 -10v-64c0 -78 -27 -117 -106 -157c-59 -30 -87 -61 -87 -120c0 -77 51 -98 115 -98c36 0 70 8 104 25c5 3 16 0 24 -19l9 -20c7 -15 5 -30 0 -33
c-41 -24 -100 -37 -147 -37c-113 0 -201 47 -201 170c0 96 52 161 126 199c54 28 70 48 70 86v68c0 7 15 10 39 10z" />
    <glyph glyph-name="asterisk" unicode="*" horiz-adv-x="397" 
d="M65 652l103 -43l-9 110c0 8 7 11 32 11h14c25 0 30 -5 30 -11l-9 -110l105 43c9 3 15 -5 21 -27l5 -14c6 -21 7 -32 0 -34l-114 -26l78 -85c5 -6 0 -15 -19 -28l-12 -9c-17 -11 -27 -16 -31 -9l-63 96l-59 -96c-4 -8 -14 -5 -33 9l-11 9c-17 13 -23 21 -18 26l75 87
l-109 25c-7 2 -8 11 -1 35l5 15c7 24 12 29 20 26z" />
    <glyph glyph-name="period" unicode="." horiz-adv-x="241" 
d="M124 125c38 0 68 -30 68 -68c0 -37 -30 -67 -68 -67c-37 0 -67 30 -67 67c0 38 30 68 67 68z" />
    <glyph glyph-name="comma" unicode="," horiz-adv-x="241" 
d="M55 -162l-11 12c-6 6 -12 17 -2 27c29 28 58 65 58 100c0 41 -44 33 -44 90c0 35 29 58 63 58c46 0 73 -35 73 -78c0 -79 -44 -160 -108 -211c-8 -7 -19 -8 -29 2z" />
    <glyph glyph-name="colon" unicode=":" horiz-adv-x="241" 
d="M57 57c0 37 30 67 67 67s67 -30 67 -67s-30 -67 -67 -67s-67 30 -67 67zM57 430c0 37 30 67 67 67s67 -30 67 -67s-30 -67 -67 -67s-67 30 -67 67z" />
    <glyph glyph-name="semicolon" unicode=";" horiz-adv-x="241" 
d="M53 430c0 37 30 67 67 67s67 -30 67 -67s-30 -67 -67 -67s-67 30 -67 67zM52 -162l-11 12c-6 6 -12 17 -2 27c29 28 58 65 58 100c0 41 -44 33 -44 90c0 36 29 58 66 58c45 0 70 -35 70 -78c0 -79 -44 -160 -108 -211c-8 -7 -19 -8 -29 2z" />
    <glyph glyph-name="ellipsis" unicode="&#x2026;" horiz-adv-x="723" 
d="M124 125c38 0 68 -30 68 -68c0 -37 -30 -67 -68 -67c-37 0 -67 30 -67 67c0 38 30 68 67 68zM365 125c38 0 68 -30 68 -68c0 -37 -30 -67 -68 -67c-37 0 -67 30 -67 67c0 38 30 68 67 68zM606 125c38 0 68 -30 68 -68c0 -37 -30 -67 -68 -67c-37 0 -67 30 -67 67
c0 38 30 68 67 68z" />
    <glyph glyph-name="periodcentered" unicode="&#xb7;" horiz-adv-x="241" 
d="M124 429c38 0 68 -30 68 -68c0 -37 -30 -67 -68 -67c-37 0 -67 30 -67 67c0 38 30 68 67 68z" />
    <glyph glyph-name="uni22C5" unicode="&#x22c5;" horiz-adv-x="241" 
d="M124 429c38 0 68 -30 68 -68c0 -37 -30 -67 -68 -67c-37 0 -67 30 -67 67c0 38 30 68 67 68z" />
    <glyph glyph-name="bullet" unicode="&#x2022;" horiz-adv-x="335" 
d="M166 472c69 0 124 -55 124 -124c0 -67 -55 -121 -124 -121c-67 0 -121 54 -121 121c0 69 54 124 121 124z" />
    <glyph glyph-name="slash" unicode="/" horiz-adv-x="330" 
d="M267 738h19c24 0 34 -4 32 -12l-219 -733c-2 -7 -13 -10 -36 -10h-20c-24 0 -33 4 -31 12l220 733c3 9 12 10 35 10z" />
    <glyph glyph-name="parenleft" unicode="(" horiz-adv-x="326" 
d="M258 755l8 -4c24 -12 27 -19 23 -25c-66 -103 -115 -233 -115 -408c0 -181 49 -310 118 -419c4 -7 1 -14 -24 -26l-8 -4c-18 -9 -30 -13 -35 -7c-70 92 -141 240 -141 448c0 210 74 364 140 452c4 6 17 2 34 -7z" />
    <glyph glyph-name="brokenbar" unicode="&#xa6;" horiz-adv-x="272" 
d="M129 766h13c28 0 37 -3 37 -11v-379c0 -8 -9 -11 -35 -11h-13c-28 0 -38 3 -38 11v379c0 8 10 11 36 11zM129 179h13c28 0 37 -3 37 -11v-379c0 -8 -9 -11 -35 -11h-13c-28 0 -38 3 -38 11v379c0 8 10 11 36 11z" />
    <glyph glyph-name="parenright" unicode=")" horiz-adv-x="326" 
d="M63 751l8 4c17 9 30 13 34 7c66 -86 140 -229 140 -432c0 -215 -71 -374 -141 -468c-5 -6 -18 -1 -35 7l-8 4c-21 11 -28 19 -24 26c69 112 118 234 118 419c0 171 -49 308 -115 408c-4 6 -1 13 23 25z" />
    <glyph glyph-name="bracketleft" unicode="[" horiz-adv-x="326" 
d="M86 753h203c7 0 9 -11 9 -32v-6c0 -22 -2 -35 -9 -35h-114v-739h117c7 0 9 -11 9 -32v-6c0 -22 -2 -35 -9 -35h-206v885z" />
    <glyph glyph-name="backslash" unicode="\" horiz-adv-x="336" 
d="M45 738h23c23 0 32 -1 35 -10l220 -733c2 -8 -7 -12 -31 -12h-24c-23 0 -34 3 -36 10l-219 733c-2 8 8 12 32 12z" />
    <glyph glyph-name="bracketright" unicode="]" horiz-adv-x="326" 
d="M37 753h203v-885h-206c-7 0 -9 13 -9 35v6c0 21 2 32 9 32h117v739h-114c-7 0 -9 13 -9 35v6c0 21 2 32 9 32z" />
    <glyph glyph-name="braceleft" unicode="{" horiz-adv-x="326" 
d="M271 753h29c7 0 9 -11 9 -32v-6c0 -22 -2 -35 -9 -35h-23c-53 0 -76 -42 -76 -96v-114c0 -49 -9 -144 -69 -151c60 -11 69 -94 69 -142v-130c0 -59 24 -106 77 -106h25c7 0 9 -11 9 -32v-6c0 -22 -2 -35 -9 -35h-29c-96 0 -162 61 -162 169v131c0 52 -13 110 -66 115
c-6 1 -7 14 -7 34v6c0 19 2 30 7 31c48 5 66 59 66 103v118c0 114 69 178 159 178z" />
    <glyph glyph-name="bar" unicode="|" horiz-adv-x="278" 
d="M132 817h13c28 0 37 -4 37 -12v-1066c0 -8 -9 -12 -35 -12h-13c-28 0 -38 4 -38 12v1066c0 8 10 12 36 12z" />
    <glyph glyph-name="braceright" unicode="}" horiz-adv-x="326" 
d="M27 753h29c90 0 159 -60 159 -166v-119c0 -50 18 -109 66 -114c5 -1 7 -11 7 -30v-8c0 -20 -1 -32 -7 -33c-53 -5 -66 -57 -66 -107v-131c0 -113 -66 -177 -162 -177h-29c-7 0 -9 13 -9 35v6c0 21 2 32 9 32h25c53 0 77 44 77 100v128c0 51 9 138 69 150
c-60 7 -69 97 -69 142v119c0 57 -23 100 -76 100h-23c-7 0 -9 13 -9 35v6c0 21 2 32 9 32z" />
    <glyph glyph-name="hyphen" unicode="-" horiz-adv-x="378" 
d="M52 339h274c7 0 9 -10 9 -31v-9c0 -22 -2 -32 -9 -32h-274c-7 0 -9 10 -9 32v9c0 21 2 31 9 31z" />
    <glyph glyph-name="uni00AD" unicode="&#xad;" horiz-adv-x="378" 
d="M52 339h274c7 0 9 -10 9 -31v-9c0 -22 -2 -32 -9 -32h-274c-7 0 -9 10 -9 32v9c0 21 2 31 9 31z" />
    <glyph glyph-name="endash" unicode="&#x2013;" horiz-adv-x="500" 
d="M48 316h404c7 0 9 -7 9 -28v-8c0 -22 -2 -31 -9 -31h-404c-7 0 -9 9 -9 31v8c0 21 2 28 9 28z" />
    <glyph glyph-name="emdash" unicode="&#x2014;" horiz-adv-x="1000" 
d="M48 316h904c7 0 9 -7 9 -28v-8c0 -22 -2 -31 -9 -31h-904c-7 0 -9 9 -9 31v8c0 21 2 28 9 28z" />
    <glyph glyph-name="underscore" unicode="_" horiz-adv-x="500" 
d="M-2 -133h504c7 0 9 -7 9 -28v-9c0 -22 -2 -29 -9 -29h-504c-7 0 -9 7 -9 29v9c0 21 2 28 9 28z" />
    <glyph glyph-name="dagger" unicode="&#x2020;" horiz-adv-x="469" 
d="M228 720h9c25 0 39 -2 39 -10v-231h168c7 0 9 -5 9 -32v-10c0 -26 -2 -31 -9 -31h-168v-533c0 -8 -14 -10 -38 -10h-9c-25 0 -39 2 -39 10v533h-165c-7 0 -9 5 -9 31v10c0 27 2 32 9 32h165v231c0 8 14 10 38 10z" />
    <glyph glyph-name="daggerdbl" unicode="&#x2021;" horiz-adv-x="483" 
d="M235 720h9c25 0 39 -2 39 -10v-211h168c7 0 9 -5 9 -32v-10c0 -26 -2 -31 -9 -31h-168v-269h168c7 0 9 -5 9 -32v-10c0 -26 -2 -31 -9 -31h-168v-211c0 -8 -14 -10 -38 -10h-9c-25 0 -39 2 -39 10v211h-165c-7 0 -9 5 -9 31v10c0 27 2 32 9 32h165v269h-165
c-7 0 -9 5 -9 31v10c0 27 2 32 9 32h165v211c0 8 14 10 38 10z" />
    <glyph glyph-name="section" unicode="&#xa7;" horiz-adv-x="497" 
d="M424 651l-4 -7c-16 -27 -22 -26 -30 -21c-37 20 -73 34 -123 34c-44 0 -98 -18 -98 -73c0 -53 60 -71 111 -82c92 -20 185 -51 185 -163c0 -62 -29 -111 -73 -139c15 -19 24 -42 24 -75c0 -106 -86 -165 -198 -165c-69 0 -131 16 -171 38c-11 6 -5 22 3 37l5 10
c8 16 15 25 28 20c38 -16 93 -30 137 -30c50 0 111 22 111 82c0 55 -68 73 -123 85c-90 19 -176 54 -176 156c0 50 23 102 81 136c-22 19 -30 47 -30 78c0 101 80 158 183 158c63 0 123 -17 162 -43c8 -5 8 -15 -4 -36zM163 455c-28 -23 -46 -54 -46 -85
c0 -58 61 -79 112 -91c37 -9 76 -20 108 -36c27 21 44 52 44 89c0 60 -67 81 -123 93c-33 7 -67 16 -95 30z" />
    <glyph glyph-name="paragraph" unicode="&#xb6;" horiz-adv-x="613" 
d="M261 720h305c7 0 9 -5 9 -32v-10c0 -26 -2 -31 -9 -31h-68v-774c0 -8 -14 -10 -38 -10h-9c-25 0 -39 2 -39 10v775h-100v-775c0 -8 -14 -10 -38 -10h-9c-25 0 -39 2 -39 10v434c-123 5 -198 87 -198 202c0 128 80 211 233 211z" />
    <glyph glyph-name="registered" unicode="&#xae;" horiz-adv-x="805" 
d="M405 730c203 0 360 -164 360 -370c0 -205 -159 -370 -361 -370c-203 0 -364 165 -364 370c0 206 160 370 365 370zM405 668c-162 0 -289 -135 -289 -308s124 -308 287 -308c162 0 288 133 288 308c0 173 -124 308 -286 308zM265 563h130c98 0 162 -29 162 -116
c0 -60 -27 -102 -82 -124l24 -42c19 -33 43 -68 72 -107c5 -7 -8 -11 -28 -11h-23c-24 0 -31 5 -35 10c-21 27 -39 54 -54 81l-35 61h-52v-143c0 -4 -8 -9 -23 -9h-32c-15 0 -24 5 -24 9v391zM344 498v-121h58c56 0 78 27 78 64c0 49 -46 57 -87 57h-49z" />
    <glyph glyph-name="copyright" unicode="&#xa9;" horiz-adv-x="805" 
d="M405 730c203 0 360 -164 360 -370c0 -205 -159 -370 -361 -370c-203 0 -364 165 -364 370c0 206 160 370 365 370zM405 668c-162 0 -289 -135 -289 -308s124 -308 287 -308c162 0 288 133 288 308c0 173 -124 308 -286 308zM523 517l-4 -10c-5 -12 -14 -25 -23 -21
c-22 10 -45 17 -68 17c-65 0 -116 -47 -116 -142c0 -67 24 -136 115 -136c21 0 43 5 64 14c9 4 16 -4 21 -16l6 -14c6 -15 5 -28 0 -31c-31 -16 -65 -24 -105 -24c-120 0 -182 88 -182 205c0 107 55 212 193 212c37 0 68 -7 101 -25c6 -3 4 -14 -2 -29z" />
    <glyph glyph-name="trademark" unicode="&#x2122;" horiz-adv-x="887" 
d="M43 720h313c6 0 9 -7 9 -26v-6c0 -20 -3 -27 -9 -27h-120v-333c0 -7 -8 -10 -30 -10h-11c-24 0 -32 3 -32 10v333h-120c-6 0 -9 7 -9 27v6c0 19 3 26 9 26zM459 720h21c22 0 27 -4 30 -10l103 -237l100 237c3 6 8 10 30 10h21c24 0 31 -4 32 -13l25 -379
c0 -7 -8 -10 -32 -10h-9c-22 0 -30 3 -30 10l-17 270l-84 -203c-3 -6 -8 -10 -30 -10h-14c-24 0 -29 4 -32 10l-85 196l-17 -263c0 -7 -8 -10 -30 -10h-8c-24 0 -32 3 -32 10l26 379c1 9 8 13 32 13z" />
    <glyph glyph-name="quotedblleft" unicode="&#x201c;" horiz-adv-x="432" 
d="M369 727l9 -10c5 -5 12 -17 2 -27c-28 -28 -54 -64 -54 -98c0 -41 43 -36 43 -90c0 -34 -26 -56 -59 -56c-45 0 -72 34 -72 76c0 77 41 156 102 207c8 7 20 8 29 -2zM172 727l9 -10c5 -5 12 -17 2 -27c-28 -28 -54 -64 -54 -98c0 -41 43 -36 43 -90
c0 -34 -26 -56 -59 -56c-45 0 -72 34 -72 76c0 77 41 156 102 207c8 7 20 8 29 -2z" />
    <glyph glyph-name="quotedblright" unicode="&#x201d;" horiz-adv-x="432" 
d="M63 449l-9 10c-5 5 -12 17 -2 27c28 28 54 64 54 98c0 41 -43 36 -43 90c0 34 26 56 59 56c45 0 72 -34 72 -76c0 -77 -41 -156 -102 -207c-8 -7 -20 -8 -29 2zM260 449l-9 10c-5 5 -12 17 -2 27c28 28 54 64 54 98c0 41 -43 36 -43 90c0 34 26 56 59 56
c45 0 72 -34 72 -76c0 -77 -41 -156 -102 -207c-8 -7 -20 -8 -29 2z" />
    <glyph glyph-name="quoteleft" unicode="&#x2018;" horiz-adv-x="235" 
d="M172 728l9 -10c5 -5 12 -17 2 -27c-28 -28 -54 -64 -54 -98c0 -41 43 -36 43 -90c0 -34 -26 -56 -59 -56c-45 0 -72 34 -72 76c0 77 41 156 102 207c8 7 20 8 29 -2z" />
    <glyph glyph-name="quoteright" unicode="&#x2019;" horiz-adv-x="235" 
d="M63 449l-9 10c-5 5 -12 17 -2 27c28 28 54 64 54 98c0 41 -43 36 -43 90c0 34 26 56 59 56c45 0 72 -34 72 -76c0 -77 -41 -156 -102 -207c-8 -7 -20 -8 -29 2z" />
    <glyph glyph-name="guillemotleft" unicode="&#xab;" horiz-adv-x="511" 
d="M216 518l8 -3c20 -8 28 -15 24 -21l-116 -188l120 -194c4 -6 -2 -13 -22 -23l-8 -4c-20 -10 -32 -11 -37 -4l-132 191c-4 6 -7 13 -7 26v9c0 14 3 19 7 25l129 188c4 6 15 5 34 -2zM424 518l8 -3c20 -8 28 -15 24 -21l-116 -188l120 -194c4 -6 -2 -13 -22 -23l-8 -4
c-20 -10 -32 -11 -37 -4l-132 191c-4 6 -7 13 -7 26v9c0 14 3 19 7 25l129 188c4 6 15 5 34 -2z" />
    <glyph glyph-name="guillemotright" unicode="&#xbb;" horiz-adv-x="511" 
d="M73 511l8 4c20 10 32 11 37 4l132 -186c4 -6 7 -13 7 -26v-9c0 -14 -3 -19 -7 -25l-129 -193c-4 -6 -15 -5 -34 2l-8 3c-20 8 -28 15 -24 21l116 193l-120 189c-4 6 2 13 22 23zM281 511l8 4c20 10 32 11 37 4l132 -186c4 -6 7 -13 7 -26v-9c0 -14 -3 -19 -7 -25
l-129 -193c-4 -6 -15 -5 -34 2l-8 3c-20 8 -28 15 -24 21l116 193l-120 189c-4 6 2 13 22 23z" />
    <glyph glyph-name="guilsinglleft" unicode="&#x2039;" horiz-adv-x="303" 
d="M216 518l8 -3c20 -8 28 -15 24 -21l-116 -188l120 -194c4 -6 -2 -13 -22 -23l-8 -4c-20 -10 -32 -11 -37 -4l-132 191c-4 6 -7 13 -7 26v9c0 14 3 19 7 25l129 188c4 6 15 5 34 -2z" />
    <glyph glyph-name="guilsinglright" unicode="&#x203a;" horiz-adv-x="303" 
d="M73 511l8 4c20 10 32 11 37 4l132 -186c4 -6 7 -13 7 -26v-9c0 -14 -3 -19 -7 -25l-129 -193c-4 -6 -15 -5 -34 2l-8 3c-20 8 -28 15 -24 21l116 193l-120 189c-4 6 2 13 22 23z" />
    <glyph glyph-name="quotesinglbase" unicode="&#x201a;" horiz-adv-x="241" 
d="M64 -161l-10 11c-6 6 -12 17 -2 27c29 28 58 65 58 100c0 41 -44 34 -44 90c0 34 28 57 61 57c46 0 73 -34 73 -77c0 -79 -43 -159 -107 -210c-8 -7 -19 -8 -29 2z" />
    <glyph glyph-name="quotedblbase" unicode="&#x201e;" horiz-adv-x="438" 
d="M64 -161l-10 11c-6 6 -12 17 -2 27c29 28 58 65 58 100c0 41 -44 34 -44 90c0 34 28 57 61 57c46 0 73 -34 73 -77c0 -79 -43 -159 -107 -210c-8 -7 -19 -8 -29 2zM261 -161l-10 11c-6 6 -12 17 -2 27c29 28 58 65 58 100c0 41 -44 34 -44 90c0 34 28 57 61 57
c46 0 73 -34 73 -77c0 -79 -43 -159 -107 -210c-8 -7 -19 -8 -29 2z" />
    <glyph glyph-name="arrowleft" unicode="&#x2190;" horiz-adv-x="666" 
d="M170 251l120 -133c5 -5 2 -11 -16 -29l-9 -9c-18 -18 -23 -20 -28 -15l-176 201c-11 12 -13 15 -13 22v8c0 7 2 10 13 22l176 201c5 5 10 3 28 -15l9 -9c18 -18 21 -24 16 -29l-120 -133h443c7 0 9 -7 9 -34v-14c0 -27 -2 -34 -9 -34h-443z" />
    <glyph glyph-name="arrowup" unicode="&#x2191;" horiz-adv-x="666" 
d="M292 452l-133 -120c-5 -5 -11 -2 -29 16l-9 9c-18 18 -20 23 -15 28l201 176c12 11 15 13 22 13h8c7 0 10 -2 22 -13l201 -176c5 -5 3 -10 -15 -28l-9 -9c-18 -18 -24 -21 -29 -16l-133 120v-443c0 -7 -7 -9 -34 -9h-14c-27 0 -34 2 -34 9v443z" />
    <glyph glyph-name="arrowright" unicode="&#x2192;" horiz-adv-x="666" 
d="M376 118l120 133h-443c-7 0 -9 7 -9 34v14c0 27 2 34 9 34h443l-120 133c-5 5 -2 11 16 29l9 9c18 18 23 20 28 15l176 -201c11 -12 13 -15 13 -22v-8c0 -7 -2 -10 -13 -22l-176 -201c-5 -5 -10 -3 -28 15l-9 9c-18 18 -21 24 -16 29z" />
    <glyph glyph-name="arrowdown" unicode="&#x2193;" horiz-adv-x="666" 
d="M159 242l133 -120v443c0 7 7 9 34 9h14c27 0 34 -2 34 -9v-443l133 120c5 5 11 2 29 -16l9 -9c18 -18 20 -23 15 -28l-201 -176c-12 -11 -15 -13 -22 -13h-8c-7 0 -10 2 -22 13l-201 176c-5 5 -3 10 15 28l9 9c18 18 24 21 29 16z" />
    <glyph glyph-name="uni266A" unicode="&#x266a;" horiz-adv-x="690" 
d="M513 408c-4 -2 -6 -2 -14 10l-4 6c-8 12 -8 13 -4 16c20 14 32 33 32 50c0 44 -48 54 -99 73c-22 7 -43 17 -62 33v-472c0 -85 -52 -134 -146 -134c-74 0 -116 37 -116 80s42 80 112 80c32 0 70 -10 96 -27v588c0 7 2 9 23 9h8c21 0 23 -2 23 -9v-25
c32 -24 69 -37 104 -50c66 -24 124 -43 124 -117c0 -41 -28 -83 -77 -111z" />
    <glyph glyph-name="grave" unicode="`" horiz-adv-x="350" 
d="M115 732h13c28 0 42 -4 46 -11l73 -128c3 -6 0 -12 -32 -12h-9c-24 0 -33 4 -37 9l-94 128c-5 6 3 14 40 14z" />
    <glyph glyph-name="acute" unicode="&#xb4;" horiz-adv-x="350" 
d="M218 732h12c37 0 44 -7 39 -14l-94 -128c-3 -5 -12 -9 -36 -9h-8c-32 0 -34 6 -30 12l73 128c4 7 16 11 44 11z" />
    <glyph glyph-name="dieresis" unicode="&#xa8;" horiz-adv-x="350" 
d="M1 655c0 32 25 57 57 57s57 -25 57 -57s-25 -57 -57 -57s-57 25 -57 57zM234 655c0 32 25 57 57 57s57 -25 57 -57s-25 -57 -57 -57s-57 25 -57 57z" />
    <glyph glyph-name="circumflex" unicode="&#x2c6;" horiz-adv-x="350" 
d="M22 627l91 97c7 8 18 13 44 13h38c28 0 39 -7 45 -14l89 -94c6 -6 2 -16 -10 -29l-8 -9c-9 -11 -21 -16 -26 -11l-110 96l-112 -95c-4 -4 -14 0 -24 11l-7 8c-12 13 -15 21 -10 27z" />
    <glyph glyph-name="tilde" unicode="&#x2dc;" horiz-adv-x="350" 
d="M36 636l-7 10c-9 12 -13 21 -8 27c21 25 55 47 96 47c59 0 74 -37 119 -37c21 0 39 14 51 27c5 5 15 -2 26 -15l6 -8c8 -10 12 -22 8 -27c-19 -26 -53 -52 -93 -52c-50 0 -72 37 -119 37c-21 0 -40 -12 -53 -27c-5 -5 -15 3 -26 18z" />
    <glyph glyph-name="macron" unicode="&#xaf;" horiz-adv-x="350" 
d="M37 693h275c7 0 10 -8 10 -29v-12c0 -22 -3 -32 -10 -32h-275c-7 0 -10 10 -10 32v12c0 21 3 29 10 29z" />
    <glyph glyph-name="breve" unicode="&#x2d8;" horiz-adv-x="350" 
d="M58 722h12c22 0 29 -3 30 -10c4 -38 32 -59 74 -59s69 22 74 59c1 7 8 10 30 10h13c23 0 32 -3 32 -10c-5 -81 -66 -119 -151 -119c-82 0 -141 36 -146 119c0 7 9 10 32 10z" />
    <glyph glyph-name="dotaccent" unicode="&#x2d9;" horiz-adv-x="350" 
d="M118 662c0 31 26 56 57 56s56 -25 56 -56s-25 -57 -56 -57s-57 26 -57 57z" />
    <glyph glyph-name="ring" unicode="&#x2da;" horiz-adv-x="350" 
d="M81 668c0 50 43 90 94 90s94 -39 94 -90s-43 -90 -94 -90s-94 40 -94 90zM133 668c0 -25 19 -42 42 -42c24 0 41 19 41 42s-17 42 -41 42c-23 0 -42 -17 -42 -42z" />
    <glyph glyph-name="cedilla" unicode="&#xb8;" horiz-adv-x="350" 
d="M140 17h29c16 0 21 -3 21 -8l-4 -50c6 1 13 1 17 1c50 0 91 -28 91 -84c0 -49 -35 -98 -118 -98c-28 0 -59 6 -76 12c-5 2 -8 8 -4 23l4 16c3 13 8 20 14 18c17 -5 39 -8 54 -8c26 0 45 11 45 33c0 23 -15 29 -50 29c-19 0 -43 -1 -59 -3l14 111c1 5 5 8 22 8z" />
    <glyph glyph-name="hungarumlaut" unicode="&#x2dd;" horiz-adv-x="350" 
d="M125 732h10c37 0 43 -6 38 -14l-84 -128c-4 -7 -13 -10 -34 -10h-8c-30 0 -32 5 -28 13l64 128c3 7 14 11 42 11zM293 732h10c37 0 43 -6 38 -14l-84 -128c-4 -7 -13 -10 -34 -10h-8c-30 0 -32 5 -28 13l64 128c3 7 14 11 42 11z" />
    <glyph glyph-name="ogonek" unicode="&#x2db;" horiz-adv-x="350" 
d="M197 15h19c24 0 25 -9 20 -12c-55 -38 -78 -78 -78 -111c0 -29 23 -37 49 -37c11 0 27 1 41 6c7 2 10 -5 14 -22l2 -9c4 -19 3 -25 -2 -27c-19 -8 -45 -14 -72 -14c-75 0 -111 45 -111 92c0 52 35 98 84 126c7 4 15 8 34 8z" />
    <glyph glyph-name="caron" unicode="&#x2c7;" horiz-adv-x="350" 
d="M31 711l8 9c9 10 23 18 28 13l112 -98l109 95c5 4 15 0 25 -11l6 -7c12 -13 14 -21 9 -27l-91 -97c-7 -8 -18 -13 -44 -13h-38c-28 0 -39 7 -45 14l-89 94c-6 6 0 17 10 28z" />
    <glyph glyph-name="commaaccent" unicode="&#xf6c3;" horiz-adv-x="350" 
d="M128 -293l-9 10c-8 9 -8 15 -1 22c23 23 47 52 47 81c0 33 -36 33 -36 74c0 28 25 47 52 47c36 0 59 -28 59 -64c0 -64 -35 -130 -89 -172c-9 -6 -14 -6 -23 2z" />
    <glyph glyph-name="grave.sc" horiz-adv-x="350" 
d="M115 774h13c28 0 42 -4 46 -11l73 -128c3 -6 0 -12 -32 -12h-9c-24 0 -33 4 -37 9l-94 128c-5 6 3 14 40 14z" />
    <glyph glyph-name="acute.sc" horiz-adv-x="350" 
d="M218 774h12c37 0 44 -7 39 -14l-94 -128c-4 -5 -12 -9 -36 -9h-8c-32 0 -34 6 -30 12l73 128c4 7 16 11 44 11z" />
    <glyph glyph-name="dieresis.sc" horiz-adv-x="350" 
d="M1 697c0 32 25 57 57 57s57 -25 57 -57s-25 -57 -57 -57s-57 25 -57 57zM234 697c0 32 25 57 57 57s57 -25 57 -57s-25 -57 -57 -57s-57 25 -57 57z" />
    <glyph glyph-name="circumflex.sc" horiz-adv-x="350" 
d="M22 669l91 97c7 8 18 13 44 13h38c28 0 39 -7 45 -14l89 -94c6 -6 2 -16 -10 -29l-8 -9c-9 -11 -21 -16 -26 -11l-110 96l-112 -95c-4 -4 -14 0 -24 11l-7 8c-12 13 -15 21 -10 27z" />
    <glyph glyph-name="tilde.sc" horiz-adv-x="350" 
d="M36 678l-7 10c-9 12 -13 21 -8 27c21 25 55 47 96 47c59 0 74 -37 119 -37c21 0 39 14 51 27c5 5 15 -2 26 -15l6 -8c8 -10 12 -22 8 -27c-19 -26 -53 -52 -93 -52c-50 0 -72 37 -119 37c-21 0 -40 -12 -53 -27c-5 -5 -15 3 -26 18z" />
    <glyph glyph-name="macron.sc" horiz-adv-x="350" 
d="M37 735h275c7 0 10 -8 10 -29v-12c0 -22 -3 -32 -10 -32h-275c-7 0 -10 10 -10 32v12c0 21 3 29 10 29z" />
    <glyph glyph-name="breve.sc" horiz-adv-x="350" 
d="M58 764h12c22 0 29 -3 30 -10c4 -38 32 -59 74 -59s69 22 74 59c1 7 8 10 30 10h13c23 0 32 -3 32 -10c-5 -81 -66 -119 -151 -119c-82 0 -141 36 -146 119c0 7 9 10 32 10z" />
    <glyph glyph-name="dotaccent.sc" horiz-adv-x="350" 
d="M118 704c0 31 26 56 57 56s56 -25 56 -56s-25 -57 -56 -57s-57 26 -57 57z" />
    <glyph glyph-name="ring.sc" horiz-adv-x="350" 
d="M81 710c0 50 43 90 94 90s94 -39 94 -90s-43 -90 -94 -90s-94 40 -94 90zM133 710c0 -25 19 -42 42 -42c24 0 41 19 41 42s-17 42 -41 42c-23 0 -42 -17 -42 -42z" />
    <glyph glyph-name="hungarumlaut.sc" horiz-adv-x="350" 
d="M125 774h10c37 0 43 -6 38 -14l-84 -128c-4 -7 -13 -10 -34 -10h-8c-30 0 -32 5 -28 13l64 128c3 7 14 11 42 11zM293 774h10c37 0 43 -6 38 -14l-84 -128c-4 -7 -13 -10 -34 -10h-8c-30 0 -32 5 -28 13l64 128c3 7 14 11 42 11z" />
    <glyph glyph-name="caron.sc" horiz-adv-x="350" 
d="M31 753l8 9c9 10 23 18 28 13l112 -98l109 95c5 4 15 0 25 -11l6 -7c12 -13 14 -21 9 -27l-91 -97c-7 -8 -18 -13 -44 -13h-38c-28 0 -39 7 -45 14l-89 94c-6 6 0 17 10 28z" />
    <glyph glyph-name="grave.cap" horiz-adv-x="350" 
d="M115 914h13c28 0 42 -4 46 -11l73 -128c3 -6 0 -12 -32 -12h-9c-24 0 -33 4 -37 9l-94 128c-5 6 3 14 40 14z" />
    <glyph glyph-name="acute.cap" horiz-adv-x="350" 
d="M221 914h12c37 0 44 -7 39 -14l-94 -128c-5 -7 -12 -9 -36 -9h-8c-32 0 -34 6 -30 12l73 128c4 7 16 11 44 11z" />
    <glyph glyph-name="dieresis.cap" horiz-adv-x="350" 
d="M1 812c0 32 25 57 57 57s57 -25 57 -57s-25 -57 -57 -57s-57 25 -57 57zM234 812c0 32 25 57 57 57s57 -25 57 -57s-25 -57 -57 -57s-57 25 -57 57z" />
    <glyph glyph-name="circumflex.cap" horiz-adv-x="350" 
d="M22 799l91 97c7 8 18 13 44 13h38c28 0 39 -7 45 -14l89 -94c6 -6 2 -16 -10 -29l-8 -9c-9 -11 -21 -16 -26 -11l-110 96l-112 -95c-4 -4 -14 0 -24 11l-7 8c-12 13 -15 21 -10 27z" />
    <glyph glyph-name="tilde.cap" horiz-adv-x="350" 
d="M36 798l-7 10c-9 12 -13 21 -8 27c21 25 55 47 96 47c59 0 74 -37 119 -37c21 0 39 14 51 27c5 5 15 -2 26 -15l6 -8c8 -10 12 -22 8 -27c-19 -26 -53 -52 -93 -52c-50 0 -72 37 -119 37c-21 0 -40 -12 -53 -27c-5 -5 -15 3 -26 18z" />
    <glyph glyph-name="macron.cap" horiz-adv-x="350" 
d="M37 874h275c7 0 10 -8 10 -29v-12c0 -22 -3 -32 -10 -32h-275c-7 0 -10 10 -10 32v12c0 21 3 29 10 29z" />
    <glyph glyph-name="breve.cap" horiz-adv-x="350" 
d="M58 912h12c22 0 29 -3 30 -10c4 -38 32 -59 74 -59s69 22 74 59c1 7 8 10 30 10h13c23 0 32 -3 32 -10c-5 -81 -66 -119 -151 -119c-82 0 -141 36 -146 119c0 7 9 10 32 10z" />
    <glyph glyph-name="dotaccent.cap" horiz-adv-x="350" 
d="M118 842c0 31 26 56 57 56s56 -25 56 -56s-25 -57 -56 -57s-57 26 -57 57z" />
    <glyph glyph-name="ring.cap" horiz-adv-x="350" 
d="M81 832c0 50 43 90 94 90s94 -39 94 -90s-43 -90 -94 -90s-94 40 -94 90zM133 832c0 -25 19 -42 42 -42c24 0 41 19 41 42s-17 42 -41 42c-23 0 -42 -17 -42 -42z" />
    <glyph glyph-name="hungarumlaut.cap" horiz-adv-x="350" 
d="M125 914h10c37 0 43 -6 38 -14l-84 -128c-4 -7 -13 -10 -34 -10h-8c-30 0 -32 5 -28 13l64 128c3 7 14 11 42 11zM293 914h10c37 0 43 -6 38 -14l-84 -128c-4 -7 -13 -10 -34 -10h-8c-30 0 -32 5 -28 13l64 128c3 7 14 11 42 11z" />
    <glyph glyph-name="caron.cap" horiz-adv-x="350" 
d="M31 903l8 9c9 10 23 18 28 13l112 -98l109 95c5 4 15 0 25 -11l6 -7c12 -13 14 -21 9 -27l-91 -97c-7 -8 -18 -13 -44 -13h-38c-28 0 -39 7 -45 14l-89 94c-6 6 0 17 10 28z" />
    <glyph glyph-name="periodcentered.cap" horiz-adv-x="243" 
d="M121 421c38 0 68 -30 68 -68c0 -37 -30 -67 -68 -67c-37 0 -67 30 -67 67c0 38 30 68 67 68z" />
    <glyph glyph-name="bullet.cap" horiz-adv-x="345" 
d="M171 497c69 0 124 -55 124 -124c0 -67 -55 -121 -124 -121c-67 0 -121 54 -121 121c0 69 54 124 121 124z" />
    <glyph glyph-name="parenleft.cap" horiz-adv-x="326" 
d="M258 806l8 -4c24 -12 27 -19 23 -25c-66 -100 -115 -237 -115 -408c0 -185 49 -307 118 -419c4 -7 -3 -15 -24 -26l-8 -4c-17 -8 -30 -13 -35 -7c-70 94 -141 253 -141 468c0 203 74 346 140 432c4 6 17 2 34 -7z" />
    <glyph glyph-name="parenright.cap" horiz-adv-x="326" 
d="M63 802l8 4c17 9 30 13 34 7c66 -86 140 -229 140 -432c0 -215 -71 -374 -141 -468c-5 -6 -18 -1 -35 7l-8 4c-21 11 -28 19 -24 26c69 112 118 234 118 419c0 171 -49 308 -115 408c-4 6 -1 13 23 25z" />
    <glyph glyph-name="bracketleft.cap" horiz-adv-x="326" 
d="M98 805h203c7 0 9 -11 9 -32v-6c0 -22 -2 -35 -9 -35h-114v-739h117c7 0 9 -11 9 -32v-6c0 -22 -2 -35 -9 -35h-206v885z" />
    <glyph glyph-name="bracketright.cap" horiz-adv-x="326" 
d="M37 805h203v-885h-206c-7 0 -9 13 -9 35v6c0 21 2 32 9 32h117v739h-114c-7 0 -9 13 -9 35v6c0 21 2 32 9 32z" />
    <glyph glyph-name="braceleft.cap" horiz-adv-x="332" 
d="M271 805h29c7 0 9 -11 9 -32v-6c0 -22 -2 -35 -9 -35h-23c-53 0 -76 -42 -76 -96v-114c0 -49 -9 -144 -69 -151c60 -11 69 -94 69 -142v-130c0 -59 24 -106 77 -106h25c7 0 9 -11 9 -32v-6c0 -22 -2 -35 -9 -35h-29c-96 0 -162 61 -162 169v131c0 52 -13 110 -66 115
c-6 1 -7 14 -7 34v6c0 19 2 30 7 31c48 5 66 59 66 103v118c0 114 69 178 159 178z" />
    <glyph glyph-name="braceright.cap" horiz-adv-x="332" 
d="M27 805h29c90 0 159 -60 159 -166v-119c0 -50 18 -109 66 -114c5 -1 7 -11 7 -30v-8c0 -20 -1 -32 -7 -33c-53 -5 -66 -57 -66 -107v-131c0 -113 -66 -177 -162 -177h-29c-7 0 -9 13 -9 35v6c0 21 2 32 9 32h25c53 0 77 44 77 100v128c0 51 9 138 69 150
c-60 7 -69 97 -69 142v119c0 57 -23 100 -76 100h-23c-7 0 -9 13 -9 35v6c0 21 2 32 9 32z" />
    <glyph glyph-name="questiondown.cap" horiz-adv-x="412" 
d="M203 667c0 34 29 63 64 63c34 0 63 -29 63 -63c0 -35 -29 -64 -63 -64c-35 0 -64 29 -64 64zM261 523h13c26 0 41 -3 41 -10v-64c0 -78 -27 -117 -106 -157c-59 -30 -87 -61 -87 -120c0 -77 51 -98 115 -98c36 0 70 8 104 25c5 3 16 0 24 -19l9 -20c7 -15 5 -30 0 -33
c-41 -24 -100 -37 -147 -37c-113 0 -201 47 -201 170c0 96 52 161 126 199c54 28 70 48 70 86v68c0 7 15 10 39 10z" />
    <glyph glyph-name="exclamdown.cap" horiz-adv-x="293" 
d="M141 522h11c24 0 34 -2 34 -9l18 -500c0 -10 -16 -13 -48 -13h-14c-35 0 -49 4 -49 13l16 500c0 7 10 9 32 9zM83 667c0 34 29 63 64 63c34 0 63 -29 63 -63c0 -35 -29 -64 -63 -64c-35 0 -64 29 -64 64z" />
    <glyph glyph-name="guillemotleft.cap" horiz-adv-x="511" 
d="M216 565l8 -3c20 -8 28 -15 24 -21l-116 -188l120 -194c4 -6 -2 -13 -22 -23l-8 -4c-20 -10 -32 -11 -37 -4l-132 191c-4 6 -7 13 -7 26v9c0 14 3 19 7 25l129 188c4 6 15 5 34 -2zM424 565l8 -3c20 -8 28 -15 24 -21l-116 -188l120 -194c4 -6 -2 -13 -22 -23l-8 -4
c-20 -10 -32 -11 -37 -4l-132 191c-4 6 -7 13 -7 26v9c0 14 3 19 7 25l129 188c4 6 15 5 34 -2z" />
    <glyph glyph-name="guillemotright.cap" horiz-adv-x="511" 
d="M73 565l8 4c20 10 32 11 37 4l132 -186c4 -6 7 -13 7 -26v-9c0 -14 -3 -19 -7 -25l-129 -193c-4 -6 -15 -5 -34 2l-8 3c-20 8 -28 15 -24 21l116 193l-120 189c-4 6 2 13 22 23zM281 565l8 4c20 10 32 11 37 4l132 -186c4 -6 7 -13 7 -26v-9c0 -14 -3 -19 -7 -25
l-129 -193c-4 -6 -15 -5 -34 2l-8 3c-20 8 -28 15 -24 21l116 193l-120 189c-4 6 2 13 22 23z" />
    <glyph glyph-name="guilsinglleft.cap" horiz-adv-x="316" 
d="M216 565l8 -3c20 -8 28 -15 24 -21l-116 -188l120 -194c4 -6 -2 -13 -22 -23l-8 -4c-20 -10 -32 -11 -37 -4l-132 191c-4 6 -7 13 -7 26v9c0 14 3 19 7 25l129 188c4 6 15 5 34 -2z" />
    <glyph glyph-name="guilsinglright.cap" horiz-adv-x="316" 
d="M73 565l8 4c20 10 32 11 37 4l132 -186c4 -6 7 -13 7 -26v-9c0 -14 -3 -19 -7 -25l-129 -193c-4 -6 -15 -5 -34 2l-8 3c-20 8 -28 15 -24 21l116 193l-120 189c-4 6 2 13 22 23z" />
    <glyph glyph-name="hyphen.cap" horiz-adv-x="378" 
d="M52 389h274c7 0 9 -10 9 -31v-9c0 -22 -2 -32 -9 -32h-274c-7 0 -9 10 -9 32v9c0 21 2 31 9 31z" />
    <glyph glyph-name="uni00AD.cap" horiz-adv-x="378" 
d="M52 389h274c7 0 9 -10 9 -31v-9c0 -22 -2 -32 -9 -32h-274c-7 0 -9 10 -9 32v9c0 21 2 31 9 31z" />
    <glyph glyph-name="endash.cap" horiz-adv-x="500" 
d="M48 389h404c7 0 9 -7 9 -28v-8c0 -22 -2 -31 -9 -31h-404c-7 0 -9 9 -9 31v8c0 21 2 28 9 28z" />
    <glyph glyph-name="emdash.cap" horiz-adv-x="1000" 
d="M48 389h904c7 0 9 -7 9 -28v-8c0 -22 -2 -31 -9 -31h-904c-7 0 -9 9 -9 31v8c0 21 2 28 9 28z" />
    <glyph glyph-name="afii00208.cap" horiz-adv-x="1000" 
d="M48 389h904c7 0 9 -7 9 -28v-8c0 -22 -2 -31 -9 -31h-904c-7 0 -9 9 -9 31v8c0 21 2 28 9 28z" />
    <glyph glyph-name="A.sc" horiz-adv-x="578" 
d="M280 582h15c33 0 40 -4 43 -11l213 -560c3 -8 -11 -11 -41 -11h-12c-28 0 -42 3 -45 11l-49 138h-236l-48 -138c-3 -8 -15 -11 -44 -11h-10c-30 0 -42 2 -39 10l210 561c3 7 10 11 43 11zM286 489l-92 -265h184z" />
    <glyph glyph-name="B.sc" horiz-adv-x="520" 
d="M246 0h-167v582h150c121 0 214 -41 214 -150c0 -58 -32 -98 -75 -122c70 -26 108 -70 108 -140c0 -124 -100 -170 -230 -170zM170 74h71c61 0 142 10 142 92c0 75 -53 99 -167 99h-46v-191zM170 336h59c83 0 122 31 122 87c0 69 -64 85 -119 85h-62v-172z" />
    <glyph glyph-name="C.sc" horiz-adv-x="514" 
d="M457 77l7 -14c8 -17 8 -29 1 -33c-46 -26 -106 -40 -164 -40c-171 0 -252 116 -252 294c0 169 83 308 263 308c60 0 114 -16 157 -44c8 -5 6 -15 -3 -33l-6 -12c-9 -17 -17 -25 -23 -21c-35 21 -76 33 -116 33c-89 0 -178 -61 -178 -227c0 -155 71 -219 174 -219
c37 0 77 10 118 28c7 3 13 -2 22 -20z" />
    <glyph glyph-name="D.sc" horiz-adv-x="589" 
d="M79 582h150c211 0 311 -90 311 -288c0 -99 -28 -181 -88 -234c-58 -52 -139 -60 -248 -60h-125v582zM170 74h64c67 0 120 15 156 50c37 35 56 90 56 168c0 152 -66 216 -208 216h-68v-434z" />
    <glyph glyph-name="E.sc" horiz-adv-x="493" 
d="M170 332h218c7 0 9 -8 9 -34v-7c0 -26 -2 -34 -9 -34h-218v-181h260c7 0 9 -8 9 -34v-8c0 -26 -2 -34 -9 -34h-351v582h348c7 0 9 -8 9 -34v-7c0 -26 -2 -34 -9 -34h-257v-175z" />
    <glyph glyph-name="F.sc" horiz-adv-x="449" 
d="M79 10v572h331c7 0 9 -8 9 -34v-7c0 -26 -2 -34 -9 -34h-240v-175h201c7 0 9 -8 9 -34v-7c0 -26 -2 -34 -9 -34h-201v-247c0 -8 -12 -10 -41 -10h-9c-29 0 -41 2 -41 10z" />
    <glyph glyph-name="G.sc" horiz-adv-x="580" 
d="M290 274v11c0 27 2 32 9 32h217v-251c0 -11 0 -23 -1 -34c-63 -26 -133 -42 -200 -42c-141 1 -266 76 -266 297c0 193 100 305 270 305c62 0 125 -15 175 -50c7 -5 8 -12 -3 -34l-6 -12c-10 -20 -19 -22 -26 -18c-38 23 -86 38 -134 38c-104 0 -182 -62 -182 -225
c0 -165 80 -225 183 -225c33 0 66 5 100 15v161h-127c-7 0 -9 5 -9 32z" />
    <glyph glyph-name="H.sc" horiz-adv-x="599" 
d="M170 257v-247c0 -8 -12 -10 -41 -10h-9c-29 0 -41 2 -41 10v562c0 8 12 10 41 10h9c29 0 41 -2 41 -10v-240h259v240c0 8 12 10 41 10h9c29 0 41 -2 41 -10v-562c0 -8 -12 -10 -41 -10h-9c-29 0 -41 2 -41 10v247h-259z" />
    <glyph glyph-name="I.sc" horiz-adv-x="357" 
d="M133 66v450h-61c-6 0 -8 4 -8 29v8c0 25 2 29 8 29h213c6 0 8 -4 8 -29v-8c0 -25 -2 -29 -8 -29h-61v-450h61c6 0 8 -4 8 -29v-8c0 -25 -2 -29 -8 -29h-213c-6 0 -8 4 -8 29v8c0 25 2 29 8 29h61z" />
    <glyph glyph-name="J.sc" horiz-adv-x="402" 
d="M33 32c-5 4 -5 10 9 34l6 10c10 16 21 21 28 16c25 -18 53 -25 78 -25c62 0 87 42 87 111v394c0 8 12 10 41 10h9c29 0 41 -2 41 -10v-387c0 -129 -52 -195 -171 -195c-46 0 -93 15 -128 42z" />
    <glyph glyph-name="K.sc" horiz-adv-x="535" 
d="M297 336l208 -325c4 -7 -14 -11 -41 -11h-20c-35 0 -42 4 -46 11l-164 262l-64 -61v-202c0 -8 -12 -10 -41 -10h-9c-29 0 -41 2 -41 10v562c0 8 12 10 41 10h9c29 0 41 -2 41 -10v-259l56 54c82 80 134 151 167 206c4 7 10 9 41 9h8c35 0 42 -3 38 -11
c-23 -51 -89 -140 -183 -235z" />
    <glyph glyph-name="L.sc" horiz-adv-x="460" 
d="M170 76h241c7 0 9 -8 9 -34v-8c0 -26 -2 -34 -9 -34h-302c-23 0 -30 4 -30 12v560c0 8 12 10 41 10h9c29 0 41 -2 41 -10v-496z" />
    <glyph glyph-name="M.sc" horiz-adv-x="704" 
d="M596 0h-9c-28 0 -39 2 -39 10l-14 427l-135 -329c-3 -7 -11 -10 -42 -10h-10c-32 0 -39 3 -42 11l-135 317c-2 -64 -4 -139 -7 -211l-8 -205c0 -8 -12 -10 -40 -10h-8c-28 0 -38 2 -38 10l28 560c0 10 6 12 46 12h5c37 0 47 -3 51 -12l156 -370l154 369c4 9 11 13 48 13
h7c39 0 47 -4 47 -12l24 -560c0 -8 -11 -10 -39 -10z" />
    <glyph glyph-name="N.sc" horiz-adv-x="613" 
d="M536 572v-562c0 -8 -8 -10 -43 -10h-3c-37 0 -44 3 -49 11l-281 426v-427c0 -8 -11 -10 -37 -10h-7c-28 0 -39 2 -39 10v562c0 8 7 10 42 10h6c38 0 44 -3 49 -11l279 -426v427c0 8 11 10 37 10h7c28 0 39 -2 39 -10z" />
    <glyph glyph-name="O.sc" horiz-adv-x="623" 
d="M305 67c109 0 175 84 175 229c0 144 -60 219 -162 219c-109 0 -175 -84 -175 -229c0 -144 60 -219 162 -219zM321 592c149 0 253 -94 253 -293c0 -190 -104 -309 -272 -309c-149 0 -253 94 -253 293c0 190 104 309 272 309z" />
    <glyph glyph-name="P.sc" horiz-adv-x="484" 
d="M170 217v-207c0 -8 -12 -10 -41 -10h-9c-29 0 -41 2 -41 10v572h145c146 0 237 -44 237 -178c0 -95 -52 -190 -210 -190c-27 0 -56 1 -81 3zM235 508h-65v-217c23 -3 50 -4 74 -4c86 0 123 46 123 115c0 78 -49 106 -132 106z" />
    <glyph glyph-name="Q.sc" horiz-adv-x="623" 
d="M321 592c149 0 253 -94 253 -293c0 -119 -41 -210 -112 -261c23 -28 46 -49 69 -69c7 -6 2 -13 -14 -30l-8 -9c-18 -20 -28 -18 -35 -12c-25 21 -56 52 -83 84c-27 -8 -57 -12 -89 -12c-149 0 -253 94 -253 293c0 190 104 309 272 309zM305 67c16 0 31 2 45 5
c-14 24 -31 56 -42 81c-3 7 3 14 23 22l12 5c20 8 29 11 34 0c8 -19 23 -47 40 -71c40 38 63 102 63 187c0 144 -60 219 -162 219c-109 0 -175 -84 -175 -229c0 -144 60 -219 162 -219z" />
    <glyph glyph-name="R.sc" horiz-adv-x="525" 
d="M170 233v-223c0 -8 -12 -10 -41 -10h-9c-29 0 -41 2 -41 10v572h147c136 0 237 -35 237 -168c0 -81 -43 -136 -122 -166l42 -76c33 -60 64 -106 104 -158c6 -8 -7 -14 -35 -14h-23c-27 0 -40 5 -47 14c-26 33 -52 75 -78 122l-54 97h-80zM170 305h70c92 0 129 43 129 107
c0 82 -70 97 -130 97h-69v-204z" />
    <glyph glyph-name="S.sc" horiz-adv-x="473" 
d="M58 76l6 13c8 18 21 23 27 19c42 -28 89 -42 130 -42c67 0 118 32 118 86c0 121 -269 105 -269 274c0 106 84 166 183 166c52 0 113 -15 149 -42c7 -5 4 -17 -5 -35l-5 -10c-11 -21 -20 -23 -26 -19c-30 20 -70 30 -106 30c-54 0 -101 -24 -101 -80
c0 -107 270 -97 270 -274c0 -102 -68 -172 -200 -172c-72 0 -138 20 -176 49c-8 6 -5 16 5 37z" />
    <glyph glyph-name="T.sc" horiz-adv-x="461" 
d="M276 507v-497c0 -8 -12 -10 -41 -10h-9c-29 0 -41 2 -41 10v497h-156c-7 0 -9 8 -9 34v7c0 26 2 34 9 34h403c7 0 9 -8 9 -34v-7c0 -26 -2 -34 -9 -34h-156z" />
    <glyph glyph-name="U.sc" horiz-adv-x="608" 
d="M444 217v355c0 8 12 10 41 10h9c29 0 41 -2 41 -10v-343c0 -166 -80 -239 -235 -239c-148 0 -227 62 -227 223v359c0 8 12 10 41 10h9c29 0 41 -2 41 -10v-355c0 -109 49 -151 140 -151c89 0 140 49 140 151z" />
    <glyph glyph-name="V.sc" horiz-adv-x="554" 
d="M290 0h-17c-32 0 -45 2 -48 12l-196 559c-3 8 11 11 41 11h13c29 0 43 -4 45 -11l154 -488l153 488c2 8 13 11 42 11h9c30 0 42 -4 39 -12l-189 -558c-3 -9 -18 -12 -46 -12z" />
    <glyph glyph-name="W.sc" horiz-adv-x="851" 
d="M615 0h-23c-30 0 -44 3 -46 11l-116 451l-113 -450c-2 -8 -17 -12 -45 -12h-25c-30 0 -42 4 -44 12l-164 559c-2 8 12 11 42 11h12c29 0 43 -3 45 -11l121 -481l121 481c2 8 14 11 43 11h18c29 0 41 -3 43 -11l123 -479l119 479c2 8 12 11 41 11h8c31 0 41 -4 39 -11
l-154 -560c-2 -8 -17 -11 -45 -11z" />
    <glyph glyph-name="X.sc" horiz-adv-x="530" 
d="M462 0h-18c-26 0 -41 3 -45 10l-134 227l-138 -228c-4 -6 -17 -9 -44 -9h-16c-28 0 -42 4 -37 12l189 291l-165 268c-4 7 11 11 39 11h16c26 0 40 -3 44 -9l124 -208l123 207c5 8 17 10 49 10h10c28 0 43 -4 38 -11l-177 -273l181 -287c5 -7 -10 -11 -39 -11z" />
    <glyph glyph-name="Y.sc" horiz-adv-x="500" 
d="M294 226v-216c0 -8 -12 -10 -41 -10h-9c-29 0 -41 2 -41 10v216l-182 345c-4 8 11 11 41 11h15c27 0 42 -3 46 -11l132 -265l129 266c4 7 16 10 43 10h12c28 0 42 -4 38 -11z" />
    <glyph glyph-name="Z.sc" horiz-adv-x="497" 
d="M72 582h344c25 0 32 -2 32 -12v-37c0 -15 -5 -29 -16 -45l-280 -412h294c7 0 9 -8 9 -34v-8c0 -26 -2 -34 -9 -34h-367c-25 0 -32 3 -32 12v37c0 16 3 29 15 46l279 412h-269c-7 0 -9 8 -9 34v7c0 26 2 34 9 34z" />
    <glyph glyph-name="ampersand.sc" horiz-adv-x="621" 
d="M572 25l-7 -9c-16 -20 -23 -25 -29 -21c-34 21 -65 43 -94 66c-45 -44 -107 -71 -195 -71c-124 0 -199 68 -199 170c0 76 48 129 121 163c-36 37 -51 76 -51 117c0 80 58 152 179 152c44 0 81 -11 115 -30c7 -4 6 -11 0 -30l-3 -9c-6 -18 -13 -27 -20 -24
c-30 13 -61 20 -89 20c-60 0 -91 -27 -91 -76c0 -37 18 -66 56 -107c45 -48 103 -102 165 -154c21 38 36 86 44 140c1 8 7 11 35 11h9c27 0 36 -4 35 -12c-9 -73 -31 -138 -63 -193c31 -24 62 -47 94 -68c6 -4 3 -16 -12 -35zM383 111c-65 56 -122 109 -172 160
c-37 -21 -72 -56 -72 -106c0 -63 50 -102 121 -102c57 0 96 21 123 48z" />
    <glyph glyph-name="at.sc" horiz-adv-x="726" 
d="M517 52l2 -8c4 -14 5 -24 -1 -26c-56 -19 -114 -28 -170 -28c-161 0 -301 87 -301 274c0 194 155 328 348 328c168 0 295 -94 295 -250c0 -140 -85 -214 -168 -214c-40 0 -76 18 -92 53c-25 -34 -62 -53 -108 -53c-58 0 -114 36 -114 119c0 103 76 192 173 192
c31 0 53 -8 73 -25l2 9c2 7 14 10 29 10h20c24 0 28 -6 27 -11c-6 -21 -13 -51 -22 -91l-16 -73c-3 -12 -4 -24 -4 -32c0 -21 8 -40 40 -40c66 0 93 82 93 153c0 122 -95 193 -230 193c-165 0 -279 -114 -279 -262c0 -163 120 -220 245 -220c49 0 99 7 144 21
c6 2 10 -4 14 -19zM420 281l18 76c-15 15 -32 22 -56 22c-54 0 -93 -54 -93 -126c0 -41 16 -62 51 -62c44 0 67 34 80 90z" />
    <glyph glyph-name="exclam.sc" horiz-adv-x="286" 
d="M149 171h-11c-23 0 -32 2 -32 8l-15 391c0 9 13 12 45 12h11c35 0 46 -4 46 -11l-14 -392c0 -7 -8 -8 -30 -8zM85 47c0 32 26 57 58 57s58 -25 58 -57s-26 -57 -58 -57s-58 25 -58 57z" />
    <glyph glyph-name="exclamdown.sc" horiz-adv-x="286" 
d="M137 411h11c23 0 32 -2 32 -8l15 -391c0 -9 -13 -12 -45 -12h-11c-35 0 -46 4 -46 11l14 392c0 7 8 8 30 8zM201 535c0 -32 -26 -57 -58 -57s-58 25 -58 57s26 57 58 57s58 -25 58 -57z" />
    <glyph glyph-name="question.sc" horiz-adv-x="387" 
d="M89 47c0 32 26 57 58 57s58 -25 58 -57s-26 -57 -58 -57s-58 25 -58 57zM151 171h-11c-25 0 -37 2 -37 9v34c0 70 31 102 92 137c44 25 67 50 67 92c0 50 -39 69 -93 69c-31 0 -62 -9 -90 -23c-6 -3 -14 0 -23 19l-8 16c-10 19 -9 27 0 33c34 23 86 35 131 35
c118 0 174 -59 174 -144c0 -76 -48 -125 -108 -160c-48 -28 -57 -43 -57 -73v-35c0 -7 -12 -9 -37 -9z" />
    <glyph glyph-name="questiondown.sc" horiz-adv-x="387" 
d="M298 535c0 -32 -26 -57 -58 -57s-58 25 -58 57s26 57 58 57s58 -25 58 -57zM236 411h11c25 0 37 -2 37 -9v-34c0 -70 -31 -102 -92 -137c-44 -25 -67 -50 -67 -92c0 -50 39 -69 93 -69c31 0 62 9 90 23c6 3 14 0 23 -19l8 -16c10 -19 9 -27 0 -33
c-34 -23 -86 -35 -131 -35c-118 0 -174 59 -174 144c0 76 48 125 108 160c48 28 57 43 57 73v35c0 7 12 9 37 9z" />
    <glyph glyph-name="slash.sc" horiz-adv-x="317" 
d="M71 -10h-16c-27 0 -34 4 -32 11l187 581c3 9 11 10 36 10h16c27 0 34 -4 32 -11l-187 -581c-3 -9 -11 -10 -36 -10z" />
    <glyph glyph-name="backslash.sc" horiz-adv-x="317" 
d="M262 -10h-16c-25 0 -33 1 -36 10l-187 581c-2 7 5 11 32 11h16c25 0 33 -1 36 -10l187 -581c2 -7 -5 -11 -32 -11z" />
    <glyph glyph-name="parenleft.sc" horiz-adv-x="309" 
d="M80 293c0 166 62 304 126 377c4 5 15 3 33 -8l8 -5c23 -14 26 -18 22 -24c-59 -85 -102 -199 -102 -340s43 -254 102 -339c4 -6 1 -10 -22 -24l-8 -5c-18 -11 -29 -13 -33 -8c-64 73 -126 210 -126 376z" />
    <glyph glyph-name="parenright.sc" horiz-adv-x="309" 
d="M229 293c0 -166 -62 -303 -126 -376c-4 -5 -15 -3 -33 8l-8 5c-23 14 -26 18 -22 24c59 85 102 198 102 339s-43 255 -102 340c-4 6 -1 10 22 24l8 5c18 11 29 13 33 8c64 -73 126 -211 126 -377z" />
    <glyph glyph-name="bracketleft.sc" horiz-adv-x="306" 
d="M168 -7h97c6 0 8 -7 8 -29v-11c0 -22 -2 -29 -8 -29h-182v739h182c6 0 8 -7 8 -29v-11c0 -22 -2 -29 -8 -29h-97v-601z" />
    <glyph glyph-name="bracketright.sc" horiz-adv-x="306" 
d="M41 -7h97v601h-97c-6 0 -8 7 -8 29v11c0 22 2 29 8 29h182v-739h-182c-6 0 -8 7 -8 29v11c0 22 2 29 8 29z" />
    <glyph glyph-name="braceleft.sc" horiz-adv-x="303" 
d="M47 259c-6 1 -7 10 -7 30v9c0 20 2 28 7 29c39 6 55 41 55 79v115c0 92 54 142 139 142h26c6 0 8 -7 8 -29v-11c0 -22 -2 -29 -8 -29h-20c-43 0 -60 -25 -60 -65v-113c0 -46 -10 -111 -60 -123c50 -12 60 -76 60 -122v-113c0 -40 17 -65 60 -65h20c6 0 8 -7 8 -29v-11
c0 -22 -2 -29 -8 -29h-26c-85 0 -139 50 -139 142v115c0 38 -16 72 -55 78z" />
    <glyph glyph-name="braceright.sc" horiz-adv-x="303" 
d="M256 259c-39 -6 -55 -40 -55 -78v-115c0 -92 -54 -142 -139 -142h-26c-6 0 -8 7 -8 29v11c0 22 2 29 8 29h20c43 0 60 25 60 65v113c0 46 10 110 60 122c-50 12 -60 77 -60 123v113c0 40 -17 65 -60 65h-20c-6 0 -8 7 -8 29v11c0 22 2 29 8 29h26c85 0 139 -50 139 -142
v-115c0 -38 16 -73 55 -79c5 -1 7 -9 7 -29v-9c0 -20 -1 -29 -7 -30z" />
    <glyph glyph-name="FI.sc" horiz-adv-x="806" 
d="M79 10v572h331c7 0 9 -8 9 -34v-7c0 -26 -2 -34 -9 -34h-240v-175h201c7 0 9 -8 9 -34v-7c0 -26 -2 -34 -9 -34h-201v-247c0 -8 -12 -10 -41 -10h-9c-29 0 -41 2 -41 10zM582 66v450h-61c-6 0 -8 4 -8 29v8c0 25 2 29 8 29h213c6 0 8 -4 8 -29v-8c0 -25 -2 -29 -8 -29
h-61v-450h61c6 0 8 -4 8 -29v-8c0 -25 -2 -29 -8 -29h-213c-6 0 -8 4 -8 29v8c0 25 2 29 8 29h61z" />
    <glyph glyph-name="FL.sc" horiz-adv-x="909" 
d="M79 10v572h331c7 0 9 -8 9 -34v-7c0 -26 -2 -34 -9 -34h-240v-175h201c7 0 9 -8 9 -34v-7c0 -26 -2 -34 -9 -34h-201v-247c0 -8 -12 -10 -41 -10h-9c-29 0 -41 2 -41 10zM619 76h241c7 0 9 -8 9 -34v-8c0 -26 -2 -34 -9 -34h-302c-23 0 -30 4 -30 12v560c0 8 12 10 41 10
h9c29 0 41 -2 41 -10v-496z" />
    <glyph glyph-name="zero.slash" 
d="M294 730c144 0 234 -111 234 -354c0 -247 -91 -386 -251 -386c-145 0 -234 115 -234 355c0 250 93 385 251 385zM433 371c0 96 -14 168 -40 215l-174 -499c17 -12 38 -18 62 -18c98 0 152 108 152 302zM290 651c-95 0 -151 -103 -151 -299c0 -93 12 -163 36 -211l173 494
c-17 11 -37 16 -58 16z" />
    <glyph glyph-name="zero" unicode="0" 
d="M290 651c-95 0 -151 -103 -151 -299c0 -184 48 -283 142 -283c98 0 152 108 152 302c0 184 -50 280 -143 280zM294 730c144 0 234 -111 234 -354c0 -247 -91 -386 -251 -386c-145 0 -234 115 -234 355c0 250 93 385 251 385z" />
    <glyph glyph-name="one" unicode="1" 
d="M84 596l183 114c10 6 22 10 41 10h18c26 0 35 -3 35 -11v-635h104c6 0 8 -8 8 -28v-17c0 -19 -2 -29 -8 -29h-311c-6 0 -8 4 -8 29v16c0 25 2 29 8 29h112v537l-141 -84c-7 -4 -18 4 -28 22l-7 12c-10 17 -12 31 -6 35z" />
    <glyph glyph-name="two" unicode="2" 
d="M90 628l-5 10c-7 14 -9 30 -3 34c50 36 117 58 185 58c112 0 203 -68 203 -193c0 -111 -67 -192 -176 -318l-121 -139h306c7 0 9 -11 9 -33v-13c0 -23 -2 -34 -9 -34h-397c-9 0 -12 9 -12 35v18c0 21 4 38 14 49l140 162c113 130 153 183 153 263c0 81 -54 122 -128 122
c-44 0 -90 -16 -136 -44c-5 -3 -15 7 -23 23z" />
    <glyph glyph-name="three" unicode="3" 
d="M91 644l-7 15c-9 19 -7 28 -2 31c45 24 101 40 159 40c110 0 214 -59 214 -183c0 -80 -45 -144 -107 -164c64 -12 134 -69 134 -176c0 -145 -120 -217 -247 -217c-56 0 -117 13 -167 36c-5 2 -7 10 2 34l7 17c8 20 15 25 20 23c40 -20 94 -31 136 -31
c85 0 153 46 153 135c0 96 -87 137 -180 137h-39c-6 0 -8 4 -8 29v16c0 25 2 29 8 29h38c85 0 156 37 156 125c0 82 -60 114 -127 114c-38 0 -85 -10 -123 -31c-5 -3 -11 1 -20 21z" />
    <glyph glyph-name="four" unicode="4" 
d="M296 720h16c25 0 42 -5 38 -14l-213 -443h203v159c0 8 15 11 41 11h11c28 0 43 -3 43 -11v-159h81c7 0 9 -11 9 -33v-13c0 -23 -2 -34 -9 -34h-81v-172c0 -8 -15 -11 -41 -11h-11c-28 0 -43 3 -43 11v172h-266c-26 0 -35 3 -35 14v44c0 18 5 38 12 54l200 413
c4 9 21 12 45 12z" />
    <glyph glyph-name="five" unicode="5" 
d="M107 720h357c7 0 9 -11 9 -33v-13c0 -23 -2 -34 -9 -34h-264v-195c21 4 43 7 64 7c125 0 229 -65 229 -218c0 -163 -116 -244 -264 -244c-45 0 -108 12 -150 29c-7 3 -7 13 0 35l4 13c6 21 13 32 20 29c44 -18 91 -25 134 -25c94 0 161 55 161 157
c0 117 -74 146 -150 146c-53 0 -96 -6 -141 -16v362z" />
    <glyph glyph-name="six" unicode="6" 
d="M482 667l-3 -9c-7 -20 -13 -34 -19 -31c-31 16 -71 24 -104 24c-129 0 -177 -127 -191 -247c39 30 90 45 144 45c143 0 212 -90 212 -221c0 -136 -79 -238 -222 -238c-190 0 -236 147 -236 312c0 206 74 428 293 428c52 0 90 -11 126 -29c7 -4 7 -12 0 -34zM159 328v-26
c0 -103 15 -233 143 -233c94 0 123 80 123 150c0 77 -25 152 -125 152c-53 0 -105 -19 -141 -43z" />
    <glyph glyph-name="seven" unicode="7" 
d="M85 720h381c26 0 35 -3 35 -14v-49c0 -15 -5 -31 -9 -41l-249 -606c-3 -7 -20 -10 -44 -10h-16c-25 0 -42 4 -39 12l265 628h-324c-7 0 -9 11 -9 34v13c0 22 2 33 9 33z" />
    <glyph glyph-name="eight" unicode="8" 
d="M196 380c-66 24 -117 81 -117 167c0 123 105 183 211 183c103 0 202 -57 202 -171c0 -86 -58 -143 -119 -170c76 -30 145 -89 145 -189c0 -131 -110 -210 -242 -210c-117 0 -224 61 -224 196c0 97 65 165 144 194zM289 430c59 26 109 62 109 123c0 60 -46 100 -112 100
c-65 0 -113 -41 -113 -101c0 -63 56 -97 116 -122zM281 339c-72 -27 -134 -73 -134 -149c0 -77 57 -122 134 -122s142 50 142 125c0 82 -75 119 -142 146z" />
    <glyph glyph-name="nine" unicode="9" 
d="M69 62l4 9c7 16 19 29 26 25c31 -17 78 -27 115 -27c149 0 187 153 195 284c-40 -34 -101 -56 -157 -56c-140 0 -203 87 -203 209c0 129 80 224 228 224c185 0 230 -147 230 -312c0 -212 -65 -428 -293 -428c-59 0 -105 13 -146 34c-7 4 -6 22 1 38zM413 425v12
c0 96 -16 215 -139 215c-98 0 -130 -74 -130 -137c0 -70 24 -139 121 -139c60 0 111 26 148 49z" />
    <glyph glyph-name="dollar" unicode="$" 
d="M304 789h13c25 0 33 -3 33 -11v-77c41 -6 80 -22 112 -45c5 -4 2 -13 -8 -32l-5 -9c-11 -18 -21 -25 -27 -21c-29 20 -64 33 -107 33c-81 0 -114 -50 -114 -97c0 -135 283 -112 283 -317c0 -103 -59 -177 -173 -191v-87c0 -8 -9 -11 -32 -11h-13c-25 0 -33 3 -33 11v87
c-63 6 -118 27 -150 57c-7 5 -8 14 7 37l7 12c14 19 22 23 28 20c40 -30 97 -49 136 -49c73 0 131 36 131 103c0 154 -283 119 -283 316c0 106 69 170 163 183v77c0 8 9 11 32 11z" />
    <glyph glyph-name="cent" unicode="&#xa2;" 
d="M322 720h13c25 0 33 -3 33 -11v-90c51 -6 90 -26 125 -50c8 -6 8 -13 -6 -46c-15 -34 -25 -31 -32 -26c-37 27 -70 42 -118 42c-93 0 -157 -65 -157 -180c0 -89 39 -176 147 -176c42 0 89 12 128 32c8 4 13 3 23 -21l4 -10c10 -24 10 -31 3 -38c-38 -22 -81 -37 -127 -43
v-92c0 -8 -9 -11 -32 -11h-13c-25 0 -33 3 -33 11v92c-130 16 -194 120 -194 250c0 156 86 247 204 265v91c0 8 9 11 32 11z" />
    <glyph glyph-name="Euro" unicode="&#x20ac;" 
d="M40 462h67c25 149 107 268 281 268c66 0 126 -17 173 -50c6 -4 4 -19 -3 -34l-6 -12c-8 -16 -18 -26 -24 -23c-43 25 -85 38 -129 38c-92 0 -168 -59 -194 -187h239c7 0 9 -8 9 -27v-13c0 -20 -2 -28 -9 -28h-247c-1 -12 -1 -25 -1 -38s0 -26 1 -38h234c7 0 9 -8 9 -27
v-13c0 -20 -2 -28 -9 -28h-225c20 -98 73 -177 188 -177c43 0 88 11 129 33c6 3 16 -4 24 -22l6 -13c7 -15 9 -30 3 -34c-52 -31 -113 -47 -180 -47c-160 0 -246 103 -271 260h-78c-7 0 -9 8 -9 28v13c0 19 2 27 9 27h71v32c0 15 0 29 1 44h-59c-7 0 -9 8 -9 28v13
c0 19 2 27 9 27z" />
    <glyph glyph-name="florin" unicode="&#x192;" 
d="M134 438h109l6 50c15 119 61 242 202 242c30 0 55 -7 75 -16c7 -3 6 -17 1 -34l-3 -10c-5 -18 -13 -31 -19 -29c-15 6 -34 10 -52 10c-71 0 -99 -61 -111 -157l-7 -56h124c7 0 9 -7 9 -28v-13c0 -22 -2 -29 -9 -29h-133l-27 -222c-19 -150 -62 -256 -195 -256
c-36 0 -67 7 -89 18c-7 3 -6 18 0 35l4 11c6 17 13 28 19 26c17 -7 39 -11 59 -11c70 0 96 58 109 167l28 232h-100c-7 0 -9 7 -9 29v13c0 21 2 28 9 28z" />
    <glyph glyph-name="sterling" unicode="&#xa3;" 
d="M82 410h77v81c0 140 68 239 216 239c43 0 95 -13 137 -40c6 -4 2 -21 -4 -34l-4 -9c-7 -16 -17 -27 -25 -23c-39 21 -66 27 -96 27c-99 0 -129 -61 -129 -153v-88h193c7 0 9 -8 9 -29v-12c0 -22 -2 -30 -9 -30h-193v-79c0 -86 -17 -143 -70 -180h333c7 0 9 -11 9 -33v-13
c0 -23 -2 -34 -9 -34h-435c-7 0 -9 11 -9 34v11c0 22 4 32 10 36c51 35 76 96 76 163v95h-77c-7 0 -9 8 -9 30v12c0 21 2 29 9 29z" />
    <glyph glyph-name="yen" unicode="&#xa5;" 
d="M93 720h14c26 0 45 -3 48 -11l136 -338l133 338c3 8 21 11 46 11h10c27 0 46 -4 42 -12l-141 -319h101c7 0 9 -8 9 -27v-9c0 -20 -2 -28 -9 -28h-130l-20 -46v-34h150c7 0 9 -8 9 -27v-9c0 -20 -2 -28 -9 -28h-150v-170c0 -8 -15 -11 -43 -11h-11c-26 0 -41 3 -41 11v170
h-139c-7 0 -9 8 -9 28v9c0 19 2 27 9 27h139v34l-20 46h-119c-7 0 -9 8 -9 28v9c0 19 2 27 9 27h91l-140 319c-4 9 16 12 44 12z" />
    <glyph glyph-name="numbersign" unicode="#" horiz-adv-x="588" 
d="M243 720h7c23 0 33 -2 31 -10l-37 -186h154l39 186c2 8 8 10 33 10h7c23 0 33 -2 31 -10l-36 -186h91c7 0 9 -8 9 -29v-9c0 -22 -2 -30 -9 -30h-105l-38 -187h95c7 0 9 -8 9 -29v-9c0 -22 -2 -30 -9 -30h-109l-38 -191c-2 -8 -9 -10 -34 -10h-8c-23 0 -34 2 -32 10
l38 191h-153l-38 -191c-2 -8 -9 -10 -34 -10h-8c-23 0 -34 2 -32 10l39 191h-77c-7 0 -9 8 -9 30v9c0 21 2 29 9 29h90l39 187h-83c-7 0 -9 8 -9 30v9c0 21 2 29 9 29h96l39 186c2 8 8 10 33 10zM231 456l-38 -187h153l39 187h-154z" />
    <glyph glyph-name="percent" unicode="%" horiz-adv-x="881" 
d="M599 737h17c23 0 32 -4 29 -11l-336 -734c-3 -6 -12 -9 -33 -9h-18c-23 0 -32 4 -29 11l337 734c3 6 12 9 33 9zM675 330c-49 0 -80 -48 -80 -139c0 -84 25 -130 75 -130c52 0 81 50 81 141c0 84 -26 128 -76 128zM678 401c99 0 163 -62 163 -197
c0 -137 -65 -214 -173 -214c-99 0 -163 64 -163 197c0 139 66 214 173 214zM210 659c-49 0 -80 -48 -80 -139c0 -84 25 -130 75 -130c52 0 81 50 81 141c0 84 -26 128 -76 128zM213 730c99 0 163 -62 163 -197c0 -137 -65 -214 -173 -214c-99 0 -163 64 -163 197
c0 139 66 214 173 214z" />
    <glyph glyph-name="perthousand" unicode="&#x2030;" horiz-adv-x="1271" 
d="M599 737h17c23 0 32 -4 29 -11l-336 -734c-3 -6 -12 -9 -33 -9h-18c-23 0 -32 4 -29 11l337 734c3 6 12 9 33 9zM675 330c-49 0 -80 -48 -80 -139c0 -84 25 -130 75 -130c52 0 81 50 81 141c0 84 -26 128 -76 128zM678 401c99 0 163 -62 163 -197
c0 -137 -65 -214 -173 -214c-99 0 -163 64 -163 197c0 139 66 214 173 214zM210 659c-49 0 -80 -48 -80 -139c0 -84 25 -130 75 -130c52 0 81 50 81 141c0 84 -26 128 -76 128zM213 730c99 0 163 -62 163 -197c0 -137 -65 -214 -173 -214c-99 0 -163 64 -163 197
c0 139 66 214 173 214zM1065 330c-49 0 -80 -48 -80 -139c0 -84 25 -130 75 -130c52 0 81 50 81 141c0 84 -26 128 -76 128zM1068 401c99 0 163 -62 163 -197c0 -137 -65 -214 -173 -214c-99 0 -163 64 -163 197c0 139 66 214 173 214z" />
    <glyph glyph-name="plus" unicode="+" 
d="M38 398h209v220c0 7 8 10 31 10h15c22 0 30 -3 30 -10v-220h209c7 0 9 -8 9 -29v-9c0 -22 -2 -30 -9 -30h-209v-222c0 -7 -8 -10 -30 -10h-15c-23 0 -31 3 -31 10v222h-209c-7 0 -9 8 -9 30v9c0 21 2 29 9 29z" />
    <glyph glyph-name="minus" unicode="&#x2212;" 
d="M43 398h484c7 0 9 -8 9 -29v-9c0 -22 -2 -30 -9 -30h-484c-7 0 -9 8 -9 30v9c0 21 2 29 9 29z" />
    <glyph glyph-name="multiply" unicode="&#xd7;" 
d="M50 596l11 11c20 20 26 20 31 15l195 -202l192 198c5 5 13 3 30 -14l7 -7c15 -15 18 -22 13 -27l-193 -199l198 -203c5 -5 2 -12 -14 -28l-10 -10c-15 -15 -26 -20 -31 -15l-197 202l-196 -202c-5 -5 -12 -4 -30 14l-8 8c-15 15 -18 21 -13 27l199 202l-198 202
c-5 5 -2 12 14 28z" />
    <glyph glyph-name="less" unicode="&#x3c;" 
d="M51 402l434 244c6 3 12 -5 22 -23l5 -9c10 -18 12 -31 6 -34l-390 -213l392 -218c6 -3 2 -18 -5 -30l-7 -12c-7 -13 -18 -24 -24 -21l-433 240c-5 3 -8 12 -8 33v11c0 20 3 29 8 32z" />
    <glyph glyph-name="divide" unicode="&#xf7;" 
d="M43 398h484c7 0 9 -8 9 -29v-9c0 -22 -2 -30 -9 -30h-484c-7 0 -9 8 -9 30v9c0 21 2 29 9 29zM287 624c34 0 61 -27 61 -61c0 -33 -27 -60 -61 -60c-33 0 -60 27 -60 60c0 34 27 61 60 61zM287 222c34 0 61 -27 61 -61c0 -33 -27 -60 -61 -60c-33 0 -60 27 -60 60
c0 34 27 61 60 61z" />
    <glyph glyph-name="equal" unicode="=" 
d="M43 500h484c7 0 9 -8 9 -29v-9c0 -22 -2 -30 -9 -30h-484c-7 0 -9 8 -9 30v9c0 21 2 29 9 29zM43 296h484c7 0 9 -8 9 -29v-9c0 -22 -2 -30 -9 -30h-484c-7 0 -9 8 -9 30v9c0 21 2 29 9 29z" />
    <glyph glyph-name="logicalnot" unicode="&#xac;" 
d="M40 445h495v-220c0 -7 -8 -10 -30 -10h-15c-23 0 -31 3 -31 10v152h-419c-7 0 -9 8 -9 30v9c0 21 2 29 9 29z" />
    <glyph glyph-name="greater" unicode="&#x3e;" 
d="M86 648l433 -240c5 -3 8 -12 8 -33v-11c0 -20 -3 -29 -8 -32l-434 -244c-6 -3 -12 5 -22 23l-5 9c-10 18 -12 31 -6 34l390 213l-392 218c-6 3 -2 18 5 30l7 12c7 13 18 24 24 21z" />
    <glyph glyph-name="notequal" unicode="&#x2260;" 
d="M43 500h281l47 85c4 7 10 10 31 10h15c23 0 31 -5 27 -12l-46 -83h129c7 0 9 -8 9 -29v-9c0 -22 -2 -30 -9 -30h-164l-74 -136h238c7 0 9 -8 9 -29v-9c0 -22 -2 -30 -9 -30h-275l-57 -105c-3 -6 -10 -10 -31 -10h-16c-23 0 -31 5 -27 12l56 103h-134c-7 0 -9 8 -9 30v9
c0 21 2 29 9 29h172l74 136h-246c-7 0 -9 8 -9 30v9c0 21 2 29 9 29z" />
    <glyph glyph-name="approxequal" unicode="&#x2248;" 
d="M67 405l-13 3c-22 5 -24 10 -24 15c14 76 73 115 151 115c104 0 137 -75 225 -75c38 0 61 20 68 49c0 7 11 9 29 6l11 -2c22 -4 26 -8 26 -14c-14 -81 -77 -109 -149 -109c-119 0 -133 74 -220 74c-41 0 -69 -22 -75 -58c-1 -7 -11 -8 -29 -4zM67 201l-13 3
c-22 5 -25 10 -24 15c18 77 73 116 151 116c104 0 137 -76 225 -76c38 0 65 19 68 49c1 7 11 9 29 6l11 -2c22 -4 27 -8 26 -14c-8 -82 -77 -110 -149 -110c-119 0 -133 75 -220 75c-41 0 -69 -22 -75 -58c-1 -7 -11 -8 -29 -4z" />
    <glyph glyph-name="plusminus" unicode="&#xb1;" 
d="M53 68h464c7 0 9 -8 9 -29v-9c0 -22 -2 -30 -9 -30h-464c-7 0 -9 8 -9 30v9c0 21 2 29 9 29zM53 478h194v195c0 7 8 10 31 10h15c22 0 30 -3 30 -10v-195h194c7 0 9 -8 9 -29v-9c0 -22 -2 -30 -9 -30h-194v-197c0 -7 -8 -10 -30 -10h-15c-23 0 -31 3 -31 10v197h-194
c-7 0 -9 8 -9 30v9c0 21 2 29 9 29z" />
    <glyph glyph-name="lessequal" unicode="&#x2264;" 
d="M51 68h464c7 0 9 -8 9 -29v-9c0 -22 -2 -30 -9 -30h-464c-7 0 -9 8 -9 30v9c0 21 2 29 9 29zM54 479l422 212c6 3 12 -2 23 -22l5 -9c10 -18 12 -31 6 -34l-379 -182l384 -189c6 -3 1 -20 -6 -32l-6 -10c-8 -13 -18 -24 -24 -21l-425 211c-5 3 -8 12 -8 33v11
c0 20 3 29 8 32z" />
    <glyph glyph-name="greaterequal" unicode="&#x2265;" 
d="M55 68h464c7 0 9 -8 9 -29v-9c0 -22 -2 -30 -9 -30h-464c-7 0 -9 8 -9 30v9c0 21 2 29 9 29zM95 694l422 -209c5 -3 8 -12 8 -33v-11c0 -20 -3 -29 -8 -32l-425 -214c-6 -3 -12 2 -23 22l-5 9c-10 18 -12 31 -6 34l382 184l-381 187c-6 3 -1 20 6 32l6 10
c8 13 18 24 24 21z" />
    <glyph glyph-name="asciicircum" unicode="^" 
d="M275 730h23c26 0 37 -5 41 -13l177 -377c4 -9 -8 -12 -39 -12h-15c-29 0 -41 4 -45 13l-133 294l-134 -294c-4 -9 -13 -13 -42 -13h-13c-32 0 -44 4 -40 12l181 377c4 8 15 13 39 13z" />
    <glyph glyph-name="asciitilde" unicode="~" 
d="M57 310l-14 3c-24 6 -27 10 -26 17c14 92 76 134 158 134c98 0 154 -92 235 -92c40 0 64 25 71 65c1 7 12 8 32 5l12 -2c24 -4 29 -8 28 -15c-14 -97 -80 -128 -156 -128c-114 0 -149 91 -230 91c-42 0 -72 -27 -79 -75c-1 -7 -12 -7 -31 -3z" />
    <glyph glyph-name="lozenge" unicode="&#x25ca;" horiz-adv-x="541" 
d="M273 638l-154 -275l154 -272l152 275zM267 752h14c20 0 30 -3 33 -9l186 -330c4 -7 9 -20 9 -38v-13c0 -21 -4 -31 -9 -40l-191 -335c-3 -5 -14 -9 -32 -9h-16c-20 0 -31 4 -34 9l-186 329c-5 9 -9 19 -9 40v14c0 18 5 31 9 38l193 335c3 5 14 9 33 9z" />
    <glyph glyph-name="degree" unicode="&#xb0;" horiz-adv-x="353" 
d="M179 668c-47 0 -76 -30 -76 -82c0 -51 25 -79 71 -79c47 0 75 30 75 83c0 50 -24 78 -70 78zM31 584c0 89 59 146 149 146c84 0 142 -46 142 -139c0 -89 -59 -146 -149 -146c-84 0 -142 47 -142 139z" />
    <glyph glyph-name="quotesingle" unicode="'" horiz-adv-x="236" 
d="M108 720h17c29 0 41 -4 41 -13l-10 -256c0 -7 -10 -10 -32 -10h-11c-24 0 -34 3 -34 10l-9 256c0 9 12 13 38 13z" />
    <glyph glyph-name="quotedbl" unicode="&#x22;" horiz-adv-x="424" 
d="M296 720h17c29 0 41 -3 41 -12l-10 -257c0 -7 -10 -10 -32 -10h-11c-24 0 -34 3 -34 10l-9 257c0 9 12 12 38 12zM108 720h17c29 0 41 -3 41 -12l-10 -257c0 -7 -10 -10 -32 -10h-11c-24 0 -34 3 -34 10l-9 257c0 9 12 12 38 12z" />
    <glyph glyph-name="radical" unicode="&#x221a;" horiz-adv-x="640" 
d="M16 484h127c12 0 18 -6 26 -32l137 -422l237 780c2 8 15 12 39 12h21c26 0 38 -3 35 -12l-282 -880c-3 -8 -13 -10 -34 -10h-35c-23 0 -32 2 -35 10l-168 476h-68c-7 0 -10 9 -10 31v17c0 21 3 30 10 30z" />
    <glyph glyph-name="currency" unicode="&#xa4;" 
d="M467 368c0 -66 -16 -118 -46 -155l69 -120c4 -7 0 -12 -34 -12h-17c-27 0 -32 2 -38 12l-43 73c-24 -10 -51 -15 -81 -15c-28 0 -52 5 -73 14l-43 -72c-6 -10 -11 -12 -38 -12h-17c-34 0 -38 5 -34 12l70 121c-26 35 -39 82 -39 137c0 66 16 118 46 155l-69 120
c-4 7 0 12 34 12h17c27 0 32 -2 38 -12l43 -73c24 10 51 15 81 15c28 0 52 -5 73 -14l43 72c6 10 11 12 38 12h17c34 0 38 -5 34 -12l-70 -121c26 -35 39 -82 39 -137zM384 363c0 62 -19 130 -94 130c-56 0 -104 -39 -104 -137c0 -62 19 -130 94 -130c56 0 104 39 104 137z
" />
    <glyph glyph-name="infinity" unicode="&#x221e;" horiz-adv-x="819" 
d="M411 379c55 63 110 107 194 107c95 0 165 -58 165 -159c0 -107 -79 -160 -168 -160c-69 0 -125 33 -192 106c-51 -61 -118 -108 -198 -108c-88 0 -163 57 -163 160c0 97 67 163 165 163c77 0 137 -39 197 -109zM463 328c54 -61 81 -86 128 -86c59 0 98 37 98 88
c0 54 -46 83 -96 83c-57 0 -94 -38 -130 -85zM358 328c-41 48 -79 87 -138 87c-55 0 -92 -34 -92 -87c0 -55 41 -86 93 -86c58 0 100 38 137 86z" />
    <glyph glyph-name="uni00B5" unicode="&#xb5;" horiz-adv-x="595" 
d="M179 -219c1 -10 -4 -13 -39 -13h-11c-30 0 -33 2 -35 12c-10 49 -19 128 -19 211v525c0 7 2 12 40 12h8c38 0 42 -4 42 -12v-254c0 -105 11 -147 35 -168c20 -17 50 -26 82 -26c34 0 70 10 91 30c27 25 43 65 43 182v236c0 7 6 12 40 12h9c34 0 41 -4 41 -12v-391
c0 -45 8 -58 35 -58h5c7 0 9 -7 9 -29v-12c0 -23 -2 -29 -9 -29h-44c-46 0 -74 27 -78 69c-34 -53 -95 -76 -152 -76c-44 0 -84 15 -107 41c0 -99 4 -183 14 -250z" />
    <glyph glyph-name="partialdiff" unicode="&#x2202;" horiz-adv-x="547" 
d="M92 648l-7 16c-9 19 -6 28 -1 31c42 23 90 35 140 35c220 0 266 -231 266 -397c0 -204 -66 -343 -232 -343c-134 0 -215 92 -215 227c0 145 92 227 210 227c42 0 92 -9 138 -43c-3 135 -51 251 -175 251c-34 0 -66 -8 -103 -26c-5 -3 -12 2 -21 22zM395 314
c-37 34 -80 51 -128 51c-89 0 -130 -71 -130 -148c0 -73 37 -147 123 -147c112 0 135 124 135 244z" />
    <glyph glyph-name="summation" unicode="&#x2211;" horiz-adv-x="563" 
d="M56 720h477c7 0 9 -11 9 -33v-12c0 -23 -2 -34 -9 -34h-382l261 -314c5 -5 8 -15 8 -31v-19c0 -15 -3 -27 -9 -34l-266 -331h395c7 0 9 -11 9 -33v-12c0 -23 -2 -34 -9 -34h-484c-26 0 -35 3 -35 14v33c0 17 7 28 20 44l290 355l-290 350c-13 15 -20 27 -20 44v33
c0 11 9 14 35 14z" />
    <glyph glyph-name="product" unicode="&#x220f;" horiz-adv-x="694" 
d="M31 720h632c7 0 9 -11 9 -33v-12c0 -23 -2 -34 -9 -34h-89v-797c0 -8 -15 -11 -41 -11h-11c-28 0 -43 3 -43 11v797h-269v-797c0 -8 -15 -11 -41 -11h-11c-28 0 -43 3 -43 11v797h-84c-7 0 -9 11 -9 34v12c0 22 2 33 9 33z" />
    <glyph glyph-name="integral" unicode="&#x222b;" horiz-adv-x="360" 
d="M338 689l-3 -13c-5 -23 -9 -34 -17 -31c-13 4 -26 6 -39 6c-74 0 -87 -51 -87 -119c0 -171 76 -307 76 -483c0 -115 -55 -196 -179 -196c-21 0 -43 2 -65 9c-7 2 -6 16 -3 35l1 8c4 26 8 36 16 33c13 -5 31 -7 46 -7c70 0 87 52 87 118c0 157 -74 293 -74 476
c0 121 47 205 176 205c21 0 42 -2 61 -8c7 -2 8 -13 4 -33z" />
    <glyph glyph-name="Ohm" unicode="&#x2126;" horiz-adv-x="754" 
d="M377 652c-119 0 -205 -91 -205 -288c0 -157 61 -250 149 -298c10 -6 13 -10 13 -31v-4c0 -25 -1 -31 -11 -31h-255c-9 0 -12 7 -12 34v4c0 29 3 32 12 32h142c-68 52 -135 135 -135 300c0 224 122 360 302 360s302 -136 302 -360c0 -165 -67 -248 -135 -300h142
c10 0 12 -3 12 -32v-4c0 -27 -2 -34 -12 -34h-255c-10 0 -11 6 -11 31v4c0 21 3 25 13 31c88 48 149 141 149 298c0 197 -86 288 -205 288z" />
    <glyph glyph-name="increment" unicode="&#x2206;" horiz-adv-x="634" 
d="M135 78h363l-182 538zM567 0h-500c-26 0 -31 4 -31 15v29c0 18 3 30 10 51l214 611c5 11 9 14 46 14h21c36 0 42 -3 46 -14l215 -611c7 -20 10 -34 10 -51v-29c0 -11 -5 -15 -31 -15z" />
    <glyph glyph-name="litre" unicode="&#x2113;" horiz-adv-x="256" 
d="M109 760h6c32 0 39 -3 41 -13c5 -28 6 -148 6 -296v-332c0 -37 5 -50 38 -50h10c5 0 6 -4 6 -27v-3c0 -26 0 -30 -6 -32c-14 -5 -32 -8 -47 -8c-28 0 -56 7 -74 34c-13 19 -17 52 -17 105v335c0 105 -1 235 -6 274c-1 10 9 13 43 13z" />
    <glyph glyph-name="estimated" unicode="&#x212e;" horiz-adv-x="922" 
d="M872 352h-666c-4 0 -5 -1 -5 -6v-202c0 -8 3 -16 9 -24c64 -64 154 -108 253 -108c106 0 201 47 264 122h60c-75 -87 -193 -144 -325 -144c-227 0 -412 166 -412 370c0 205 185 370 412 370c226 0 410 -165 410 -370v-8zM721 377v203c0 9 -4 18 -10 25
c-64 63 -152 103 -248 103c-99 0 -187 -42 -252 -106c-7 -7 -10 -17 -10 -26v-199c0 -3 1 -6 5 -6h510c4 0 5 3 5 6z" />
    <glyph glyph-name="numero" unicode="&#x2116;" horiz-adv-x="1073" 
d="M1033 468c0 -140 -75 -217 -190 -217s-174 83 -174 200c0 140 75 217 190 217s174 -83 174 -200zM950 463c0 62 -19 130 -94 130c-56 0 -104 -39 -104 -137c0 -62 19 -130 94 -130c56 0 104 39 104 137zM123 720h5c42 0 49 -3 55 -13l333 -554v556c0 8 13 11 38 11h8
c27 0 40 -3 40 -11v-698c0 -9 -10 -11 -47 -11h-3c-42 0 -49 3 -55 13l-335 553v-555c0 -8 -13 -11 -38 -11h-8c-27 0 -40 3 -40 11v698c0 9 10 11 47 11z" />
    <glyph glyph-name="zero.otab" 
d="M280 67c106 0 169 84 169 229c0 144 -58 219 -158 219c-106 0 -169 -84 -169 -229c0 -144 58 -219 158 -219zM294 592c147 0 249 -94 249 -293c0 -190 -102 -309 -266 -309c-147 0 -249 94 -249 293c0 190 102 309 266 309z" />
    <glyph glyph-name="one.otab" 
d="M154 73h107v409l-117 -59c-7 -4 -15 3 -25 22l-6 11c-10 19 -11 29 -5 32l156 83c13 7 24 11 41 11h17c23 0 30 -3 30 -10v-499h101c7 0 9 -10 9 -30v-12c0 -21 -2 -31 -9 -31h-299c-7 0 -9 10 -9 31v12c0 20 2 30 9 30z" />
    <glyph glyph-name="two.otab" 
d="M129 461c-8 -6 -17 -5 -31 19l-6 10c-11 18 -12 28 -6 33c54 45 133 69 199 69c122 0 197 -70 197 -171c0 -92 -52 -150 -197 -268l-94 -76h286c7 0 9 -11 9 -32v-12c0 -22 -2 -33 -9 -33h-393c-13 0 -16 5 -16 23v18c0 19 1 34 14 45l157 127c118 95 152 141 152 206
c0 61 -43 96 -114 96c-45 0 -99 -17 -148 -54z" />
    <glyph glyph-name="three.otab" 
d="M89 507l-7 15c-9 19 -7 27 -2 30c45 24 101 40 159 40c110 0 214 -59 214 -183c0 -80 -45 -144 -107 -164c64 -12 134 -69 134 -176c0 -134 -104 -217 -249 -217c-52 0 -107 12 -161 34c-15 6 -6 24 -3 33l7 17c8 20 15 25 20 23c41 -20 97 -31 140 -31
c86 0 155 47 155 137c0 82 -65 138 -183 138h-41c-6 0 -8 4 -8 29v17c0 25 2 29 8 29h39c86 0 158 36 158 125c0 82 -61 114 -128 114c-39 0 -86 -10 -125 -31c-5 -3 -11 1 -20 21z" />
    <glyph glyph-name="four.otab" 
d="M371 569l-237 -492h208v176c0 8 14 11 41 11h11c25 0 39 -3 39 -11v-176h88c7 0 9 -11 9 -32v-12c0 -22 -2 -33 -9 -33h-88v-127c0 -8 -14 -11 -39 -11h-11c-27 0 -41 3 -41 11v127h-269c-26 0 -35 3 -35 14v37c0 18 4 38 12 54l226 466c4 8 20 11 42 11h18
c23 0 39 -5 35 -13z" />
    <glyph glyph-name="five.otab" 
d="M457 505h-267v-198c21 4 46 7 67 7c125 0 229 -65 229 -218c0 -163 -116 -244 -264 -244c-45 0 -108 12 -150 29c-7 3 -7 8 0 31l4 13c6 22 13 33 20 30c45 -18 93 -26 136 -26c96 0 164 57 164 160c0 119 -74 151 -153 151c-53 0 -97 -8 -143 -20v362h357
c7 0 9 -11 9 -32v-12c0 -22 -2 -33 -9 -33z" />
    <glyph glyph-name="six.otab" 
d="M476 671l-3 -9c-7 -20 -13 -35 -19 -32c-31 17 -72 25 -105 25c-133 0 -181 -129 -195 -251c40 30 94 45 148 45c143 0 212 -90 212 -221c0 -136 -79 -238 -222 -238c-190 0 -236 147 -236 312c0 206 74 428 293 428c52 0 90 -11 126 -29c7 -4 8 -8 1 -30zM148 332v-27
c0 -107 14 -240 147 -240c97 0 127 82 127 153c0 81 -25 158 -129 158c-55 0 -107 -19 -145 -44z" />
    <glyph glyph-name="seven.otab" 
d="M420 505h-341c-7 0 -9 11 -9 33v12c0 21 2 32 9 32h393c26 0 34 -3 34 -14v-49c0 -15 -5 -31 -9 -41l-260 -606c-3 -7 -20 -10 -44 -10h-11c-25 0 -42 4 -39 12z" />
    <glyph glyph-name="eight.otab" 
d="M198 380c-66 24 -118 81 -118 167c0 123 105 183 211 183c103 0 202 -57 202 -171c0 -86 -61 -144 -121 -171c75 -30 143 -89 143 -189c0 -130 -109 -209 -238 -209c-114 0 -222 61 -222 196c0 97 64 165 143 194zM290 429c61 26 111 63 111 126c0 60 -46 101 -114 101
c-67 0 -115 -42 -115 -102c0 -65 56 -100 118 -125zM282 341c-74 -27 -136 -74 -136 -153c0 -78 57 -123 136 -123s144 51 144 126c0 85 -77 123 -144 150z" />
    <glyph glyph-name="nine.otab" 
d="M74 -80l4 9c7 16 18 29 26 25c33 -17 73 -27 111 -27c132 0 193 107 204 288c-42 -34 -104 -56 -161 -56c-139 0 -202 87 -202 209c0 129 80 224 228 224c185 0 230 -147 230 -312c0 -212 -65 -428 -296 -428c-52 0 -102 11 -143 34c-7 4 -8 18 -1 34zM423 284v12
c0 99 -16 221 -142 221c-101 0 -134 -76 -134 -140c0 -73 24 -143 125 -143c60 0 112 26 151 50z" />
    <glyph glyph-name="dollar.otab" 
d="M345 658v-70c39 -6 77 -19 103 -38c7 -5 4 -17 -5 -35l-5 -10c-11 -21 -20 -23 -26 -19c-30 20 -70 30 -106 30c-54 0 -101 -24 -101 -80c0 -107 270 -97 270 -274c0 -92 -55 -158 -162 -170v-66c0 -7 -7 -10 -33 -10h-10c-26 0 -33 3 -33 10v66c-57 6 -107 23 -138 47
c-8 6 -5 16 5 37l6 13c8 18 21 23 27 19c42 -28 89 -42 130 -42c67 0 118 32 118 86c0 121 -269 105 -269 274c0 95 67 153 153 164v68c0 7 7 10 33 10h10c26 0 33 -3 33 -10z" />
    <glyph glyph-name="cent.otab" 
d="M322 656h13c25 0 33 -3 33 -11v-90c51 -6 90 -26 125 -50c8 -6 8 -13 -6 -46c-15 -34 -25 -31 -32 -26c-37 27 -70 42 -118 42c-93 0 -157 -65 -157 -180c0 -89 39 -176 147 -176c42 0 89 12 128 32c8 4 13 3 23 -21l4 -10c10 -24 10 -31 3 -38c-38 -22 -81 -37 -127 -43
v-92c0 -8 -9 -11 -32 -11h-13c-25 0 -33 3 -33 11v92c-130 16 -194 120 -194 250c0 156 86 247 204 265v91c0 8 9 11 32 11z" />
    <glyph glyph-name="Euro.otab" 
d="M218 259h190c6 0 8 -4 8 -27v-7c0 -23 -2 -27 -8 -27h-182c18 -74 62 -131 153 -131c38 0 75 8 110 28c7 3 15 -1 23 -22l5 -13c7 -16 10 -25 2 -30c-44 -26 -96 -40 -156 -40c-136 0 -211 81 -233 208h-65c-6 0 -8 4 -8 27v7c0 23 2 27 8 27h58v24c0 13 0 23 1 35h-50
c-6 0 -8 4 -8 27v7c0 23 2 27 8 27h57c23 123 97 213 242 213c58 0 109 -14 150 -42c8 -5 5 -17 -4 -34l-6 -11c-10 -20 -17 -25 -23 -23c-37 23 -71 33 -109 33c-74 0 -134 -45 -155 -136h191c6 0 8 -4 8 -27v-7c0 -23 -2 -27 -8 -27h-199c-1 -9 -1 -19 -1 -31
c0 -10 0 -19 1 -28z" />
    <glyph glyph-name="florin.otab" 
d="M336 359h104c7 0 9 -4 9 -29v-8c0 -25 -2 -30 -9 -30h-113l-25 -192c-7 -56 -23 -107 -55 -142c-30 -34 -75 -49 -116 -49c-26 0 -50 3 -73 13c-9 4 -10 6 -3 32l3 11c6 21 12 28 18 26c13 -4 30 -7 45 -7c60 0 83 40 93 114l25 194h-80c-6 0 -8 5 -8 30v8
c0 25 2 29 8 29h89l6 42c8 56 23 107 55 142c30 34 75 49 116 49c26 0 50 -3 73 -13c9 -4 10 -6 3 -32l-3 -11c-6 -21 -12 -28 -18 -26c-13 4 -30 7 -45 7c-60 0 -83 -40 -93 -114z" />
    <glyph glyph-name="sterling.otab" 
d="M481 0h-372c-7 0 -9 7 -9 33v7c0 22 3 30 10 34c44 27 63 72 63 132v64h-65c-6 0 -8 5 -8 30v8c0 25 2 29 8 29h65v58c0 117 59 197 187 197c38 0 82 -10 117 -30c6 -4 7 -11 -2 -34l-4 -10c-8 -18 -16 -25 -23 -22c-31 14 -54 19 -81 19c-79 0 -103 -45 -103 -113v-65
h159c7 0 9 -4 9 -29v-8c0 -25 -2 -30 -9 -30h-159v-54c0 -68 -12 -112 -52 -138h269c7 0 9 -7 9 -34v-10c0 -27 -2 -34 -9 -34z" />
    <glyph glyph-name="yen.otab" 
d="M465 124h-125v-114c0 -8 -12 -10 -41 -10h-9c-29 0 -41 2 -41 10v114h-118c-5 0 -8 6 -8 26v7c0 20 3 26 8 26h118v33l-10 21h-108c-5 0 -8 6 -8 26v7c0 20 3 26 8 26h79l-133 275c-4 8 11 11 41 11h15c27 0 42 -3 46 -11l122 -275l119 276c4 7 16 10 43 10h12
c28 0 42 -4 38 -11l-134 -275h86c5 0 8 -6 8 -26v-7c0 -20 -3 -26 -8 -26h-115l-10 -21v-33h125c5 0 8 -6 8 -26v-7c0 -20 -3 -26 -8 -26z" />
    <glyph glyph-name="numbersign.otab" 
d="M279 573l-32 -147h125l32 147c1 6 6 9 31 9h8c24 0 31 -3 30 -9l-32 -147h73c6 0 9 -9 9 -29v-6c0 -21 -3 -30 -9 -30h-88l-30 -136h78c6 0 9 -9 9 -30v-6c0 -20 -3 -29 -9 -29h-92l-33 -151c-1 -6 -6 -9 -31 -9h-8c-24 0 -31 3 -30 9l33 151h-125l-33 -151
c-1 -6 -6 -9 -31 -9h-8c-24 0 -31 3 -30 9l33 151h-63c-6 0 -9 9 -9 29v6c0 21 3 30 9 30h77l30 136h-67c-6 0 -9 9 -9 30v6c0 20 3 29 9 29h82l32 147c1 6 6 9 31 9h8c24 0 31 -3 30 -9zM232 361l-30 -136h125l30 136h-125z" />
    <glyph glyph-name="percent.otab" horiz-adv-x="786" 
d="M189 324c43 0 69 38 69 104c0 68 -23 100 -64 100c-43 0 -69 -38 -69 -104c0 -68 23 -100 64 -100zM548 597h12c24 0 32 -4 29 -10l-315 -591c-4 -7 -12 -10 -36 -10h-12c-24 0 -32 4 -29 10l315 591c4 7 12 10 36 10zM185 260c-81 0 -139 50 -139 162
c0 102 53 170 152 170c81 0 139 -50 139 -162c0 -102 -53 -170 -152 -170zM592 54c43 0 69 38 69 104c0 68 -23 100 -64 100c-43 0 -69 -38 -69 -104c0 -68 23 -100 64 -100zM588 -10c-81 0 -139 50 -139 162c0 102 53 170 152 170c81 0 139 -50 139 -162
c0 -102 -53 -170 -152 -170z" />
    <glyph glyph-name="perthousand.otab" horiz-adv-x="1123" 
d="M189 324c43 0 69 38 69 104c0 68 -23 100 -64 100c-43 0 -69 -38 -69 -104c0 -68 23 -100 64 -100zM548 597h12c24 0 32 -4 29 -10l-315 -591c-4 -7 -12 -10 -36 -10h-12c-24 0 -32 4 -29 10l315 591c4 7 12 10 36 10zM185 260c-81 0 -139 50 -139 162
c0 102 53 170 152 170c81 0 139 -50 139 -162c0 -102 -53 -170 -152 -170zM592 54c43 0 69 38 69 104c0 68 -23 100 -64 100c-43 0 -69 -38 -69 -104c0 -68 23 -100 64 -100zM588 -10c-81 0 -139 50 -139 162c0 102 53 170 152 170c81 0 139 -50 139 -162
c0 -102 -53 -170 -152 -170zM929 54c43 0 69 38 69 104c0 68 -23 100 -64 100c-43 0 -69 -38 -69 -104c0 -68 23 -100 64 -100zM925 -10c-81 0 -139 50 -139 162c0 102 53 170 152 170c81 0 139 -50 139 -162c0 -102 -53 -170 -152 -170z" />
    <glyph glyph-name="zero.lprop" horiz-adv-x="579" 
d="M294 651c-95 0 -151 -103 -151 -299c0 -184 48 -283 142 -283c98 0 152 108 152 302c0 184 -50 280 -143 280zM298 730c144 0 234 -111 234 -354c0 -247 -91 -386 -251 -386c-145 0 -234 115 -234 355c0 250 93 385 251 385z" />
    <glyph glyph-name="one.lprop" horiz-adv-x="495" 
d="M36 596l183 114c10 6 22 10 41 10h18c26 0 35 -3 35 -11v-635h104c6 0 8 -8 8 -28v-17c0 -19 -2 -29 -8 -29h-311c-6 0 -8 4 -8 29v16c0 25 2 29 8 29h112v537l-141 -84c-7 -4 -18 4 -28 22l-7 12c-10 17 -12 31 -6 35z" />
    <glyph glyph-name="two.lprop" horiz-adv-x="526" 
d="M54 628l-5 10c-7 14 -9 30 -3 34c50 36 117 58 185 58c112 0 203 -68 203 -193c0 -111 -67 -192 -176 -318l-121 -139h306c7 0 9 -11 9 -33v-13c0 -23 -2 -34 -9 -34h-397c-9 0 -12 9 -12 35v18c0 21 4 38 14 49l140 162c113 130 153 183 153 263c0 81 -54 122 -128 122
c-44 0 -90 -16 -136 -44c-5 -3 -15 7 -23 23z" />
    <glyph glyph-name="three.lprop" horiz-adv-x="522" 
d="M64 644l-7 15c-9 19 -7 28 -2 31c45 24 101 40 159 40c110 0 214 -59 214 -183c0 -80 -45 -144 -107 -164c64 -12 134 -69 134 -176c0 -145 -120 -217 -247 -217c-56 0 -117 13 -167 36c-5 2 -7 10 2 34l7 17c8 20 15 25 20 23c40 -20 94 -31 136 -31
c85 0 153 46 153 135c0 96 -87 137 -180 137h-39c-6 0 -8 4 -8 29v17c0 25 2 29 8 29h38c85 0 156 36 156 124c0 82 -60 114 -127 114c-38 0 -85 -10 -123 -31c-5 -3 -11 1 -20 21z" />
    <glyph glyph-name="four.lprop" horiz-adv-x="568" 
d="M295 720h16c25 0 42 -5 38 -14l-213 -443h203v159c0 8 15 11 41 11h11c28 0 43 -3 43 -11v-159h81c7 0 9 -11 9 -33v-13c0 -23 -2 -34 -9 -34h-81v-172c0 -8 -15 -11 -41 -11h-11c-28 0 -43 3 -43 11v172h-266c-26 0 -35 3 -35 14v44c0 18 5 38 12 54l200 413
c4 9 21 12 45 12z" />
    <glyph glyph-name="five.lprop" horiz-adv-x="530" 
d="M84 720h357c7 0 9 -11 9 -33v-13c0 -23 -2 -34 -9 -34h-264v-195c21 4 43 7 64 7c125 0 229 -65 229 -218c0 -163 -116 -244 -264 -244c-45 0 -108 12 -150 29c-7 3 -7 13 0 35l4 13c6 21 13 32 20 29c44 -18 91 -25 134 -25c94 0 161 55 161 157c0 117 -74 146 -150 146
c-53 0 -96 -6 -141 -16v362z" />
    <glyph glyph-name="six.lprop" horiz-adv-x="559" 
d="M466 667l-3 -9c-7 -20 -13 -34 -19 -31c-31 16 -71 24 -104 24c-129 0 -177 -127 -191 -247c39 30 90 45 144 45c143 0 212 -90 212 -221c0 -136 -79 -238 -222 -238c-190 0 -236 147 -236 312c0 206 74 428 293 428c52 0 90 -11 126 -29c7 -4 7 -12 0 -34zM143 328v-26
c0 -103 15 -233 143 -233c94 0 123 80 123 150c0 77 -25 152 -125 152c-53 0 -105 -19 -141 -43z" />
    <glyph glyph-name="seven.lprop" horiz-adv-x="473" 
d="M33 720h381c26 0 35 -3 35 -14v-49c0 -15 -5 -31 -9 -41l-249 -606c-3 -7 -20 -10 -44 -10h-16c-25 0 -42 4 -39 12l265 628h-324c-7 0 -9 11 -9 34v13c0 22 2 33 9 33z" />
    <glyph glyph-name="eight.lprop" horiz-adv-x="562" 
d="M192 380c-66 24 -117 81 -117 167c0 123 105 183 211 183c103 0 202 -57 202 -171c0 -86 -58 -143 -119 -170c76 -30 145 -89 145 -189c0 -131 -110 -210 -242 -210c-117 0 -224 61 -224 196c0 97 65 165 144 194zM285 430c59 26 109 62 109 123c0 60 -46 100 -112 100
c-65 0 -113 -41 -113 -101c0 -63 56 -97 116 -122zM277 339c-72 -27 -134 -73 -134 -149c0 -77 57 -122 134 -122s142 50 142 125c0 82 -75 119 -142 146z" />
    <glyph glyph-name="nine.lprop" horiz-adv-x="556" 
d="M71 62l4 9c7 16 19 29 26 25c31 -17 78 -27 115 -27c149 0 187 153 195 284c-40 -34 -101 -56 -157 -56c-140 0 -203 87 -203 209c0 129 80 224 228 224c185 0 230 -147 230 -312c0 -212 -65 -428 -293 -428c-59 0 -105 13 -146 34c-7 4 -6 22 1 38zM415 425v12
c0 96 -16 215 -139 215c-98 0 -130 -74 -130 -137c0 -70 24 -139 121 -139c60 0 111 26 148 49z" />
    <glyph glyph-name="dollar.lprop" horiz-adv-x="498" 
d="M276 789h13c25 0 33 -3 33 -11v-77c41 -6 80 -22 112 -45c5 -4 2 -13 -8 -32l-5 -9c-11 -18 -21 -25 -27 -21c-29 20 -64 33 -107 33c-81 0 -114 -50 -114 -97c0 -135 283 -112 283 -317c0 -103 -59 -177 -173 -191v-87c0 -8 -9 -11 -32 -11h-13c-25 0 -33 3 -33 11v87
c-63 6 -118 27 -150 57c-7 5 -8 14 7 37l7 12c14 19 22 23 28 20c40 -30 97 -49 136 -49c73 0 131 36 131 103c0 154 -283 119 -283 316c0 106 69 170 163 183v77c0 8 9 11 32 11z" />
    <glyph glyph-name="cent.lprop" horiz-adv-x="509" 
d="M282 720h13c25 0 33 -3 33 -11v-90c51 -6 90 -26 125 -50c8 -6 8 -13 -6 -46c-15 -34 -25 -31 -32 -26c-37 27 -70 42 -118 42c-93 0 -157 -65 -157 -180c0 -89 39 -176 147 -176c42 0 89 12 128 32c8 4 13 3 23 -21l4 -10c10 -24 10 -31 3 -38c-38 -22 -81 -37 -127 -43
v-92c0 -8 -9 -11 -32 -11h-13c-25 0 -33 3 -33 11v92c-130 16 -194 120 -194 250c0 156 86 247 204 265v91c0 8 9 11 32 11z" />
    <glyph glyph-name="Euro.lprop" horiz-adv-x="601" 
d="M58 462h67c25 149 107 268 281 268c66 0 126 -17 173 -50c6 -4 4 -19 -3 -34l-6 -12c-8 -16 -18 -26 -24 -23c-43 25 -85 38 -129 38c-92 0 -168 -59 -194 -187h239c7 0 9 -8 9 -27v-13c0 -20 -2 -28 -9 -28h-247c-1 -12 -1 -25 -1 -38s0 -26 1 -38h234c7 0 9 -8 9 -27
v-13c0 -20 -2 -28 -9 -28h-225c20 -98 73 -177 188 -177c43 0 88 11 129 33c6 3 16 -4 24 -22l6 -13c7 -15 9 -30 3 -34c-52 -31 -113 -47 -180 -47c-160 0 -246 103 -271 260h-78c-7 0 -9 8 -9 28v13c0 19 2 27 9 27h71v32c0 15 0 29 1 44h-59c-7 0 -9 8 -9 28v13
c0 19 2 27 9 27z" />
    <glyph glyph-name="florin.lprop" horiz-adv-x="529" 
d="M114 438h109l6 50c15 119 61 242 202 242c30 0 55 -7 75 -16c7 -3 6 -17 1 -34l-3 -10c-5 -18 -13 -31 -19 -29c-15 6 -34 10 -52 10c-71 0 -99 -61 -111 -157l-7 -56h124c7 0 9 -7 9 -28v-13c0 -22 -2 -29 -9 -29h-133l-27 -222c-19 -150 -62 -256 -195 -256
c-36 0 -67 7 -89 18c-7 3 -6 18 0 35l4 11c6 17 13 28 19 26c17 -7 39 -11 59 -11c70 0 96 58 109 167l28 232h-100c-7 0 -9 7 -9 29v13c0 21 2 28 9 28z" />
    <glyph glyph-name="sterling.lprop" horiz-adv-x="541" 
d="M63 410h77v81c0 140 68 239 216 239c43 0 95 -13 137 -40c6 -4 2 -21 -4 -34l-4 -9c-7 -16 -17 -27 -25 -23c-39 21 -66 27 -96 27c-99 0 -129 -61 -129 -153v-88h193c7 0 9 -8 9 -29v-12c0 -22 -2 -30 -9 -30h-193v-79c0 -86 -17 -143 -70 -180h333c7 0 9 -11 9 -33v-13
c0 -23 -2 -34 -9 -34h-435c-7 0 -9 11 -9 34v11c0 22 4 32 10 36c51 35 76 96 76 163v95h-77c-7 0 -9 8 -9 30v12c0 21 2 29 9 29z" />
    <glyph glyph-name="yen.lprop" horiz-adv-x="537" 
d="M77 720h14c26 0 45 -3 48 -11l136 -338l133 338c3 8 21 11 46 11h10c27 0 46 -4 42 -12l-141 -319h101c7 0 9 -8 9 -27v-9c0 -20 -2 -28 -9 -28h-130l-20 -46v-34h150c7 0 9 -8 9 -27v-9c0 -20 -2 -28 -9 -28h-150v-170c0 -8 -15 -11 -43 -11h-11c-26 0 -41 3 -41 11v170
h-139c-7 0 -9 8 -9 28v9c0 19 2 27 9 27h139v34l-20 46h-119c-7 0 -9 8 -9 28v9c0 19 2 27 9 27h91l-140 319c-4 9 16 12 44 12z" />
    <glyph glyph-name="numbersign.lprop" horiz-adv-x="588" 
d="M243 720h7c23 0 33 -2 31 -10l-37 -186h154l39 186c2 8 8 10 33 10h7c23 0 33 -2 31 -10l-36 -186h91c7 0 9 -8 9 -29v-9c0 -22 -2 -30 -9 -30h-105l-38 -187h95c7 0 9 -8 9 -29v-9c0 -22 -2 -30 -9 -30h-109l-38 -191c-2 -8 -9 -10 -34 -10h-8c-23 0 -34 2 -32 10
l38 191h-153l-38 -191c-2 -8 -9 -10 -34 -10h-8c-23 0 -34 2 -32 10l39 191h-77c-7 0 -9 8 -9 30v9c0 21 2 29 9 29h90l39 187h-83c-7 0 -9 8 -9 30v9c0 21 2 29 9 29h96l39 186c2 8 8 10 33 10zM231 456l-38 -187h153l39 187h-154z" />
    <glyph glyph-name="percent.lprop" horiz-adv-x="881" 
d="M599 737h17c23 0 32 -4 29 -11l-336 -734c-3 -6 -12 -9 -33 -9h-18c-23 0 -32 4 -29 11l337 734c3 6 12 9 33 9zM675 330c-49 0 -80 -48 -80 -139c0 -84 25 -130 75 -130c52 0 81 50 81 141c0 84 -26 128 -76 128zM678 401c99 0 163 -62 163 -197
c0 -137 -65 -214 -173 -214c-99 0 -163 64 -163 197c0 139 66 214 173 214zM210 659c-49 0 -80 -48 -80 -139c0 -84 25 -130 75 -130c52 0 81 50 81 141c0 84 -26 128 -76 128zM213 730c99 0 163 -62 163 -197c0 -137 -65 -214 -173 -214c-99 0 -163 64 -163 197
c0 139 66 214 173 214z" />
    <glyph glyph-name="perthousand.lprop" horiz-adv-x="1271" 
d="M599 737h17c23 0 32 -4 29 -11l-336 -734c-3 -6 -12 -9 -33 -9h-18c-23 0 -32 4 -29 11l337 734c3 6 12 9 33 9zM675 330c-49 0 -80 -48 -80 -139c0 -84 25 -130 75 -130c52 0 81 50 81 141c0 84 -26 128 -76 128zM678 401c99 0 163 -62 163 -197
c0 -137 -65 -214 -173 -214c-99 0 -163 64 -163 197c0 139 66 214 173 214zM210 659c-49 0 -80 -48 -80 -139c0 -84 25 -130 75 -130c52 0 81 50 81 141c0 84 -26 128 -76 128zM213 730c99 0 163 -62 163 -197c0 -137 -65 -214 -173 -214c-99 0 -163 64 -163 197
c0 139 66 214 173 214zM1065 330c-49 0 -80 -48 -80 -139c0 -84 25 -130 75 -130c52 0 81 50 81 141c0 84 -26 128 -76 128zM1068 401c99 0 163 -62 163 -197c0 -137 -65 -214 -173 -214c-99 0 -163 64 -163 197c0 139 66 214 173 214z" />
    <glyph glyph-name="zero.oprop" horiz-adv-x="619" 
d="M304 67c106 0 169 84 169 229c0 144 -58 219 -158 219c-106 0 -169 -84 -169 -229c0 -144 58 -219 158 -219zM318 592c147 0 249 -94 249 -293c0 -190 -102 -309 -266 -309c-147 0 -249 94 -249 293c0 190 102 309 266 309z" />
    <glyph glyph-name="one.oprop" horiz-adv-x="464" 
d="M88 73h107v409l-117 -59c-7 -4 -15 3 -25 22l-6 11c-10 19 -11 29 -5 32l156 83c13 7 24 11 41 11h17c23 0 30 -3 30 -10v-499h101c7 0 9 -10 9 -30v-12c0 -21 -2 -31 -9 -31h-299c-7 0 -9 10 -9 31v12c0 20 2 30 9 30z" />
    <glyph glyph-name="two.oprop" horiz-adv-x="530" 
d="M97 461c-8 -6 -17 -5 -31 19l-6 10c-11 18 -12 28 -6 33c54 45 133 69 199 69c122 0 197 -70 197 -171c0 -92 -52 -150 -197 -268l-94 -76h286c7 0 9 -11 9 -32v-12c0 -22 -2 -33 -9 -33h-393c-13 0 -16 5 -16 23v18c0 19 1 34 14 45l157 127c118 95 152 141 152 206
c0 61 -43 96 -114 96c-45 0 -99 -17 -148 -54z" />
    <glyph glyph-name="three.oprop" horiz-adv-x="537" 
d="M70 507l-7 15c-9 19 -7 27 -2 30c45 24 101 40 159 40c110 0 214 -59 214 -183c0 -80 -45 -144 -107 -164c64 -12 134 -69 134 -176c0 -134 -104 -217 -249 -217c-52 0 -107 12 -161 34c-15 6 -6 24 -3 33l7 17c8 20 15 25 20 23c41 -20 97 -31 140 -31
c86 0 155 47 155 137c0 82 -65 138 -183 138h-41c-6 0 -8 4 -8 29v17c0 25 2 29 8 29h39c86 0 158 36 158 125c0 82 -61 114 -128 114c-39 0 -86 -10 -125 -31c-5 -3 -11 1 -20 21z" />
    <glyph glyph-name="four.oprop" horiz-adv-x="580" 
d="M377 569l-237 -492h208v176c0 8 14 11 41 11h11c25 0 39 -3 39 -11v-176h88c7 0 9 -11 9 -32v-12c0 -22 -2 -33 -9 -33h-88v-127c0 -8 -14 -11 -39 -11h-11c-27 0 -41 3 -41 11v127h-269c-26 0 -35 3 -35 14v37c0 18 4 38 12 54l226 466c4 8 20 11 42 11h18
c23 0 39 -5 35 -13z" />
    <glyph glyph-name="five.oprop" horiz-adv-x="532" 
d="M470 96c0 -163 -116 -244 -264 -244c-45 0 -108 12 -150 29c-7 3 -7 8 0 31l4 13c6 22 13 33 20 30c45 -18 93 -26 136 -26c96 0 164 57 164 160c0 119 -74 151 -153 151c-53 0 -97 -8 -143 -20v362h357c7 0 9 -11 9 -33v-13c0 -23 -2 -34 -9 -34h-267v-195
c21 4 46 7 67 7c125 0 229 -65 229 -218z" />
    <glyph glyph-name="six.oprop" horiz-adv-x="564" 
d="M472 671l-3 -9c-7 -20 -13 -35 -19 -32c-31 17 -72 25 -105 25c-133 0 -181 -129 -195 -251c40 30 94 45 148 45c143 0 212 -90 212 -221c0 -136 -79 -238 -222 -238c-190 0 -236 147 -236 312c0 206 74 428 293 428c52 0 90 -11 126 -29c7 -4 8 -8 1 -30zM144 332v-27
c0 -107 14 -240 147 -240c97 0 127 82 127 153c0 81 -25 158 -129 158c-55 0 -107 -19 -145 -44z" />
    <glyph glyph-name="seven.oprop" horiz-adv-x="500" 
d="M382 505h-341c-7 0 -9 11 -9 33v12c0 21 2 32 9 32h393c26 0 34 -3 34 -14v-49c0 -15 -5 -31 -9 -41l-260 -606c-3 -7 -20 -10 -44 -10h-11c-25 0 -42 4 -39 12z" />
    <glyph glyph-name="eight.oprop" horiz-adv-x="568" 
d="M197 380c-66 24 -118 81 -118 167c0 123 105 183 211 183c103 0 202 -57 202 -171c0 -86 -61 -144 -121 -171c75 -30 143 -89 143 -189c0 -130 -109 -209 -238 -209c-114 0 -222 61 -222 196c0 97 64 165 143 194zM289 429c61 26 111 63 111 126c0 60 -46 101 -114 101
c-67 0 -115 -42 -115 -102c0 -65 56 -100 118 -125zM281 341c-74 -27 -136 -74 -136 -153c0 -78 57 -123 136 -123s144 51 144 126c0 85 -77 123 -144 150z" />
    <glyph glyph-name="nine.oprop" horiz-adv-x="564" 
d="M72 -80l4 9c7 16 18 29 26 25c33 -17 73 -27 111 -27c132 0 193 107 204 288c-42 -34 -104 -56 -161 -56c-139 0 -202 87 -202 209c0 129 80 224 228 224c185 0 230 -147 230 -312c0 -212 -65 -428 -296 -428c-52 0 -102 11 -143 34c-7 4 -8 18 -1 34zM421 284v12
c0 99 -16 221 -142 221c-101 0 -134 -76 -134 -140c0 -73 24 -143 125 -143c60 0 112 26 151 50z" />
    <glyph glyph-name="dollar.oprop" horiz-adv-x="471" 
d="M295 658v-70c39 -6 77 -19 103 -38c7 -5 4 -17 -5 -35l-5 -10c-11 -21 -20 -23 -26 -19c-30 20 -70 30 -106 30c-54 0 -101 -24 -101 -80c0 -107 270 -97 270 -274c0 -92 -55 -158 -162 -170v-66c0 -7 -7 -10 -33 -10h-10c-26 0 -33 3 -33 10v66c-57 6 -107 23 -138 47
c-8 6 -5 16 5 37l6 13c8 18 21 23 27 19c42 -28 89 -42 130 -42c67 0 118 32 118 86c0 121 -269 105 -269 274c0 95 67 153 153 164v68c0 7 7 10 33 10h10c26 0 33 -3 33 -10z" />
    <glyph glyph-name="cent.oprop" horiz-adv-x="520" 
d="M288 656h13c25 0 33 -3 33 -11v-90c51 -6 90 -26 125 -50c8 -6 8 -13 -6 -46c-15 -34 -25 -31 -32 -26c-37 27 -70 42 -118 42c-93 0 -157 -65 -157 -180c0 -89 39 -176 147 -176c42 0 89 12 128 32c8 4 13 3 23 -21l4 -10c10 -24 10 -31 3 -38c-38 -22 -81 -37 -127 -43
v-92c0 -8 -9 -11 -32 -11h-13c-25 0 -33 3 -33 11v92c-130 16 -194 120 -194 250c0 156 86 247 204 265v91c0 8 9 11 32 11z" />
    <glyph glyph-name="Euro.oprop" horiz-adv-x="538" 
d="M203 259h190c6 0 8 -4 8 -27v-7c0 -23 -2 -27 -8 -27h-182c18 -74 62 -131 153 -131c38 0 75 8 110 28c7 3 15 -1 23 -22l5 -13c7 -16 10 -25 2 -30c-44 -26 -96 -40 -156 -40c-136 0 -211 81 -233 208h-65c-6 0 -8 4 -8 27v7c0 23 2 27 8 27h58v24c0 13 0 23 1 35h-50
c-6 0 -8 4 -8 27v7c0 23 2 27 8 27h57c23 123 97 213 242 213c58 0 109 -14 150 -42c8 -5 5 -17 -4 -34l-6 -11c-10 -20 -17 -25 -23 -23c-37 23 -71 33 -109 33c-74 0 -134 -45 -155 -136h191c6 0 8 -4 8 -27v-7c0 -23 -2 -27 -8 -27h-199c-1 -9 -1 -19 -1 -31
c0 -10 0 -19 1 -28z" />
    <glyph glyph-name="florin.oprop" horiz-adv-x="476" 
d="M286 359h104c7 0 9 -4 9 -29v-8c0 -25 -2 -30 -9 -30h-113l-25 -192c-7 -56 -23 -107 -55 -142c-30 -34 -75 -49 -116 -49c-26 0 -50 3 -73 13c-9 4 -10 6 -3 32l3 11c6 21 12 28 18 26c13 -4 30 -7 45 -7c60 0 83 40 93 114l25 194h-80c-6 0 -8 5 -8 30v8
c0 25 2 29 8 29h89l6 42c8 56 23 107 55 142c30 34 75 49 116 49c26 0 50 -3 73 -13c9 -4 10 -6 3 -32l-3 -11c-6 -21 -12 -28 -18 -26c-13 4 -30 7 -45 7c-60 0 -83 -40 -93 -114z" />
    <glyph glyph-name="sterling.oprop" horiz-adv-x="495" 
d="M438 0h-372c-7 0 -9 7 -9 33v7c0 22 3 30 10 34c44 27 63 72 63 132v64h-65c-6 0 -8 5 -8 30v8c0 25 2 29 8 29h65v58c0 117 59 197 187 197c38 0 82 -10 117 -30c6 -4 7 -11 -2 -34l-4 -10c-8 -18 -16 -25 -23 -22c-31 14 -54 19 -81 19c-79 0 -103 -45 -103 -113v-65
h159c7 0 9 -4 9 -29v-8c0 -25 -2 -30 -9 -30h-159v-54c0 -68 -12 -112 -52 -138h269c7 0 9 -7 9 -34v-10c0 -27 -2 -34 -9 -34z" />
    <glyph glyph-name="yen.oprop" horiz-adv-x="506" 
d="M423 124h-125v-114c0 -8 -12 -10 -41 -10h-9c-29 0 -41 2 -41 10v114h-118c-5 0 -8 6 -8 26v7c0 20 3 26 8 26h118v33l-10 21h-108c-5 0 -8 6 -8 26v7c0 20 3 26 8 26h79l-133 275c-4 8 11 11 41 11h15c27 0 42 -3 46 -11l122 -275l119 276c4 7 16 10 43 10h12
c28 0 42 -4 38 -11l-134 -275h86c5 0 8 -6 8 -26v-7c0 -20 -3 -26 -8 -26h-115l-10 -21v-33h125c5 0 8 -6 8 -26v-7c0 -20 -3 -26 -8 -26z" />
    <glyph glyph-name="numbersign.oprop" horiz-adv-x="536" 
d="M262 573l-32 -147h125l32 147c1 6 6 9 31 9h8c24 0 31 -3 30 -9l-32 -147h73c6 0 9 -9 9 -29v-6c0 -21 -3 -30 -9 -30h-88l-30 -136h78c6 0 9 -9 9 -30v-6c0 -20 -3 -29 -9 -29h-92l-33 -151c-1 -6 -6 -9 -31 -9h-8c-24 0 -31 3 -30 9l33 151h-125l-33 -151
c-1 -6 -6 -9 -31 -9h-8c-24 0 -31 3 -30 9l33 151h-63c-6 0 -9 9 -9 29v6c0 21 3 30 9 30h77l30 136h-67c-6 0 -9 9 -9 30v6c0 20 3 29 9 29h82l32 147c1 6 6 9 31 9h8c24 0 31 -3 30 -9zM215 361l-30 -136h125l30 136h-125z" />
    <glyph glyph-name="percent.oprop" horiz-adv-x="786" 
d="M189 324c43 0 69 38 69 104c0 68 -23 100 -64 100c-43 0 -69 -38 -69 -104c0 -68 23 -100 64 -100zM548 597h12c24 0 32 -4 29 -10l-315 -591c-4 -7 -12 -10 -36 -10h-12c-24 0 -32 4 -29 10l315 591c4 7 12 10 36 10zM185 260c-81 0 -139 50 -139 162
c0 102 53 170 152 170c81 0 139 -50 139 -162c0 -102 -53 -170 -152 -170zM592 54c43 0 69 38 69 104c0 68 -23 100 -64 100c-43 0 -69 -38 -69 -104c0 -68 23 -100 64 -100zM588 -10c-81 0 -139 50 -139 162c0 102 53 170 152 170c81 0 139 -50 139 -162
c0 -102 -53 -170 -152 -170z" />
    <glyph glyph-name="perthousand.oprop" horiz-adv-x="1123" 
d="M189 324c43 0 69 38 69 104c0 68 -23 100 -64 100c-43 0 -69 -38 -69 -104c0 -68 23 -100 64 -100zM548 597h12c24 0 32 -4 29 -10l-315 -591c-4 -7 -12 -10 -36 -10h-12c-24 0 -32 4 -29 10l315 591c4 7 12 10 36 10zM185 260c-81 0 -139 50 -139 162
c0 102 53 170 152 170c81 0 139 -50 139 -162c0 -102 -53 -170 -152 -170zM592 54c43 0 69 38 69 104c0 68 -23 100 -64 100c-43 0 -69 -38 -69 -104c0 -68 23 -100 64 -100zM588 -10c-81 0 -139 50 -139 162c0 102 53 170 152 170c81 0 139 -50 139 -162
c0 -102 -53 -170 -152 -170zM929 54c43 0 69 38 69 104c0 68 -23 100 -64 100c-43 0 -69 -38 -69 -104c0 -68 23 -100 64 -100zM925 -10c-81 0 -139 50 -139 162c0 102 53 170 152 170c81 0 139 -50 139 -162c0 -102 -53 -170 -152 -170z" />
    <glyph glyph-name="a.sup" horiz-adv-x="402" 
d="M280 316l-2 25c-24 -27 -64 -43 -105 -43c-72 0 -146 52 -146 179c0 117 68 193 158 193c43 0 74 -17 94 -39l2 21c1 8 12 11 26 11h16c23 0 29 -3 29 -8c0 -17 -1 -60 -1 -103v-95c0 -62 2 -106 5 -143c0 -6 -5 -9 -42 -9h-3c-30 0 -31 6 -31 11zM271 474v91
c-16 19 -42 37 -71 37c-58 0 -91 -47 -91 -119c0 -58 21 -117 86 -117c19 0 44 6 60 24c14 14 16 32 16 84z" />
    <glyph glyph-name="b.sup" horiz-adv-x="399" 
d="M128 811v-177c22 23 56 36 97 36c94 0 147 -74 147 -179c0 -122 -73 -193 -192 -193c-40 0 -89 9 -126 30c-6 3 -7 7 -7 11v472c0 6 3 9 38 9h5c35 0 38 -3 38 -9zM128 498v-126c18 -6 36 -8 52 -8c66 0 109 42 109 123c0 78 -30 111 -83 111c-20 0 -47 -5 -63 -24
c-13 -15 -15 -32 -15 -76z" />
    <glyph glyph-name="c.sup" horiz-adv-x="348" 
d="M291 573c-28 18 -54 27 -81 27c-56 0 -101 -37 -101 -115c0 -68 30 -117 100 -117c30 0 58 7 86 20c7 3 12 2 20 -20l4 -10c9 -21 9 -24 2 -27c-33 -19 -76 -33 -122 -33c-112 0 -172 74 -172 182c0 116 70 190 182 190c40 0 84 -12 115 -37c6 -4 9 -9 -2 -31l-5 -10
c-10 -21 -18 -23 -26 -19z" />
    <glyph glyph-name="d.sup" horiz-adv-x="413" 
d="M275 641v170c0 6 3 9 38 9h4c35 0 38 -3 38 -9v-417c0 -23 7 -27 24 -27c6 0 7 -3 7 -24v-6c0 -20 -2 -25 -6 -28c-11 -4 -26 -6 -41 -6c-26 0 -46 14 -55 36c-25 -27 -65 -41 -105 -41c-94 0 -152 67 -152 180c0 118 65 192 156 192c31 0 63 -9 92 -29zM109 478
c0 -70 32 -111 89 -111c23 0 47 7 62 23c13 14 15 29 15 59v123c-20 18 -46 28 -71 28c-50 0 -95 -34 -95 -122z" />
    <glyph glyph-name="e.sup" horiz-adv-x="384" 
d="M334 373l5 -13c8 -22 8 -25 1 -29c-36 -19 -87 -33 -134 -33c-114 0 -179 68 -179 180c0 113 66 192 173 192c109 0 159 -81 159 -182c0 -25 -1 -31 -7 -31h-242c6 -67 51 -89 108 -89c33 0 68 9 97 22c7 3 12 2 19 -17zM111 517h168c-2 45 -28 83 -78 83
c-47 0 -80 -28 -90 -83z" />
    <glyph glyph-name="f.sup" horiz-adv-x="246" 
d="M263 758c-18 5 -33 7 -51 7c-43 0 -64 -20 -64 -87v-15h82c6 0 8 -2 8 -28v-6c0 -26 -2 -28 -8 -28h-82v-286c0 -7 -3 -10 -38 -10h-4c-35 0 -38 3 -38 10v286h-47c-7 0 -9 2 -9 28v6c0 26 2 28 9 28h47v16c0 96 46 149 136 149c26 0 52 -6 75 -15c5 -2 4 -8 0 -26l-1 -4
c-5 -21 -8 -28 -15 -25z" />
    <glyph glyph-name="g.sup" horiz-adv-x="403" 
d="M277 403v99c0 26 -2 56 -23 76c-13 14 -33 20 -54 20c-56 0 -91 -41 -91 -114c0 -83 43 -110 89 -110c31 0 61 14 79 29zM72 202l4 10c12 23 15 23 25 19c25 -10 51 -15 76 -15c75 0 100 36 100 123c-25 -22 -63 -34 -98 -34c-99 0 -152 71 -152 178
c0 123 72 187 158 187c35 0 70 -13 96 -41l3 27c1 5 3 7 31 7h4c26 0 31 -1 32 -8c4 -37 6 -92 6 -144v-146c0 -58 -4 -97 -16 -130c-23 -58 -84 -88 -157 -88c-39 0 -87 11 -113 25c-5 4 -8 9 1 30z" />
    <glyph glyph-name="h.sup" horiz-adv-x="414" 
d="M235 670c42 0 76 -13 99 -36c24 -25 35 -59 35 -112v-207c0 -7 -3 -10 -38 -10h-4c-36 0 -39 3 -39 10v173c0 49 -2 72 -16 89c-11 14 -31 20 -58 20c-26 0 -50 -7 -64 -20c-8 -7 -16 -19 -18 -45c-2 -19 -2 -51 -2 -86v-131c0 -7 -3 -10 -38 -10h-4c-35 0 -39 3 -39 10
v496c0 6 4 9 39 9h4c35 0 38 -3 38 -9v-180c28 26 66 39 105 39z" />
    <glyph glyph-name="i.sup" horiz-adv-x="177" 
d="M48 315v338c0 7 3 10 39 10h4c35 0 38 -3 38 -10v-338c0 -7 -3 -10 -38 -10h-4c-36 0 -39 3 -39 10zM37 773c0 28 23 50 52 50c28 0 51 -22 51 -50s-23 -50 -51 -50c-29 0 -52 22 -52 50z" />
    <glyph glyph-name="j.sup" horiz-adv-x="186" 
d="M58 299v354c0 7 3 10 38 10h4c35 0 38 -3 38 -10v-345c0 -118 -53 -161 -134 -161c-22 0 -49 6 -61 12c-6 3 -7 7 -3 24l3 11c5 20 7 23 17 21c11 -2 26 -4 36 -4c45 0 62 26 62 88zM46 773c0 28 23 50 52 50s51 -22 51 -50s-22 -50 -51 -50s-52 22 -52 50z" />
    <glyph glyph-name="k.sup" horiz-adv-x="357" 
d="M128 523l34 32c33 29 62 62 93 101c5 5 9 7 41 7c35 0 41 -3 37 -11c-20 -34 -65 -90 -120 -140l136 -194c4 -6 1 -13 -34 -13h-7c-37 0 -43 2 -48 10l-104 149l-28 -23v-126c0 -7 -3 -10 -38 -10h-5c-35 0 -38 3 -38 10v496c0 6 3 9 38 9h5c35 0 38 -3 38 -9v-288z" />
    <glyph glyph-name="l.sup" horiz-adv-x="188" 
d="M164 341v-5c0 -21 0 -23 -5 -25c-11 -5 -26 -8 -41 -8c-22 0 -43 6 -56 22c-14 14 -17 37 -17 71v232c0 67 -2 157 -5 184c-1 7 3 8 38 8h4c32 0 37 -1 39 -8c3 -19 5 -104 5 -199v-219c0 -20 4 -28 24 -28h8c5 0 6 -4 6 -25z" />
    <glyph glyph-name="m.sup" horiz-adv-x="644" 
d="M133 446v-131c0 -7 -3 -10 -38 -10h-4c-35 0 -38 3 -38 10v186c0 54 -3 121 -4 151c0 9 2 11 36 11h4c30 0 35 -1 36 -8c1 -8 3 -19 3 -29c23 26 64 44 107 44c41 0 74 -13 96 -36c5 -6 10 -12 14 -20c29 36 74 56 122 56c83 0 131 -48 131 -148v-207
c0 -7 -3 -10 -38 -10h-4c-35 0 -38 3 -38 10v173c0 50 -2 73 -18 91c-11 12 -27 18 -53 18c-25 0 -48 -7 -62 -20c-8 -7 -15 -19 -17 -45c-2 -19 -2 -51 -2 -86v-131c0 -7 -3 -10 -38 -10h-5c-35 0 -38 3 -38 10v173c0 50 -2 73 -18 91c-11 12 -27 18 -53 18
c-24 0 -48 -7 -62 -20c-8 -7 -15 -19 -17 -45c-2 -19 -2 -51 -2 -86z" />
    <glyph glyph-name="n.sup" horiz-adv-x="417" 
d="M128 626c24 26 67 44 111 44c41 0 75 -13 98 -36c25 -25 35 -59 35 -112v-207c0 -7 -3 -10 -38 -10h-4c-35 0 -39 3 -39 10v173c0 49 -2 72 -16 89c-11 14 -31 20 -58 20c-25 0 -50 -7 -64 -20c-8 -7 -16 -19 -18 -45c-2 -19 -2 -51 -2 -86v-131c0 -7 -3 -10 -38 -10h-4
c-35 0 -38 3 -38 10v186c0 54 -3 121 -4 151c0 9 2 11 36 11h4c30 0 35 -1 36 -8z" />
    <glyph glyph-name="o.sup" horiz-adv-x="401" 
d="M206 670c45 0 84 -11 110 -34c36 -30 58 -80 58 -144c0 -128 -72 -194 -180 -194c-45 0 -84 11 -110 34c-36 30 -57 80 -57 144c0 128 72 194 179 194zM204 602c-50 0 -95 -34 -95 -122c0 -54 20 -114 88 -114c49 0 94 34 94 122c0 54 -19 114 -87 114z" />
    <glyph glyph-name="p.sup" horiz-adv-x="403" 
d="M49 161v378c0 44 -2 90 -3 113c0 9 2 11 36 11h3c30 0 36 -1 37 -8c1 -8 3 -18 3 -28c22 25 60 43 101 43c92 0 150 -68 150 -179c0 -117 -61 -193 -160 -193c-30 0 -59 5 -86 23v-160c0 -6 -3 -9 -38 -9h-4c-35 0 -39 3 -39 9zM130 515v-122c17 -16 42 -26 68 -26
c61 0 96 45 96 123c0 75 -33 111 -89 111c-25 0 -47 -7 -60 -22c-11 -13 -15 -31 -15 -64z" />
    <glyph glyph-name="q.sup" horiz-adv-x="403" 
d="M325 154h-6c-32 0 -36 2 -38 10c-4 22 -8 88 -8 170c-23 -22 -59 -36 -98 -36c-71 0 -148 48 -148 179c0 120 76 193 192 193c41 0 91 -9 128 -30c5 -3 6 -7 6 -11v-278c0 -73 4 -151 10 -187c1 -7 -5 -10 -38 -10zM195 370c21 0 44 5 59 21c19 18 19 43 19 74v131
c-19 6 -36 8 -53 8c-63 0 -111 -43 -111 -123c0 -79 33 -111 86 -111z" />
    <glyph glyph-name="r.sup" horiz-adv-x="263" 
d="M119 655c3 -14 5 -45 6 -71c18 45 52 84 103 84c4 0 9 0 13 -1c6 -1 9 -3 9 -30v-8c0 -27 -2 -31 -9 -31c-45 0 -72 -24 -91 -54c-16 -26 -22 -59 -22 -123v-106c0 -7 -3 -10 -38 -10h-5c-35 0 -38 3 -38 10v186c0 54 -2 121 -3 151c0 9 2 11 36 11h3c31 0 35 -1 36 -8z
" />
    <glyph glyph-name="s.sup" horiz-adv-x="331" 
d="M36 363l5 11c9 20 16 23 25 18c33 -20 66 -28 94 -28c38 0 69 17 69 41c0 28 -36 37 -70 46c-64 15 -122 39 -122 108s63 111 139 111c46 0 88 -13 115 -35c7 -5 8 -8 -5 -29l-5 -8c-12 -21 -17 -24 -25 -19c-22 17 -53 26 -80 26c-34 0 -63 -12 -63 -38
c0 -29 36 -38 74 -48c53 -15 117 -32 117 -104c0 -71 -61 -117 -148 -117c-50 0 -97 17 -125 38c-6 5 -3 8 5 27z" />
    <glyph glyph-name="t.sup" horiz-adv-x="277" 
d="M64 663v89c0 7 3 10 38 10h4c35 0 38 -3 38 -10v-89h87c6 0 8 -2 8 -28v-6c0 -26 -2 -28 -8 -28h-87v-181c0 -25 4 -39 14 -48c6 -6 18 -9 33 -9c13 0 27 3 41 7c7 2 10 -2 17 -22l3 -9c7 -15 3 -20 -3 -23c-22 -12 -49 -18 -80 -18c-33 0 -60 9 -77 26
c-20 17 -28 42 -28 91v186h-48c-6 0 -8 2 -8 28v6c0 26 2 28 8 28h48z" />
    <glyph glyph-name="u.sup" horiz-adv-x="414" 
d="M286 342c-24 -26 -66 -44 -109 -44c-41 0 -75 14 -97 36c-24 25 -35 59 -35 112v207c0 7 3 10 38 10h5c35 0 38 -3 38 -10v-174c0 -50 2 -73 16 -90c11 -14 31 -20 56 -20c26 0 49 7 63 20c8 7 16 19 18 45c2 20 2 52 2 87v132c0 7 3 10 38 10h4c35 0 39 -3 39 -10v-186
c0 -53 2 -120 3 -151c0 -9 -2 -11 -36 -11h-4c-30 0 -35 1 -36 9z" />
    <glyph glyph-name="v.sup" horiz-adv-x="358" 
d="M135 314l-130 338c-3 9 2 11 38 11c35 0 45 -2 47 -10l94 -266c31 74 67 188 86 268c2 6 3 8 37 8c35 0 42 -3 40 -12c-29 -117 -83 -254 -126 -337c-3 -7 -10 -9 -42 -9c-35 0 -41 1 -44 9z" />
    <glyph glyph-name="w.sup" horiz-adv-x="552" 
d="M394 305h-7c-34 0 -41 2 -43 10l-40 146c-11 42 -21 73 -29 113c-5 -33 -18 -78 -28 -114l-41 -145c-2 -7 -9 -10 -43 -10h-7c-35 0 -43 2 -45 10l-104 336c-2 10 3 12 37 12c35 0 44 -2 46 -10l72 -268l73 267c2 9 7 11 39 11h11c30 0 35 -3 37 -10l72 -269
c29 82 54 182 69 269c2 8 5 10 40 10c31 0 38 -1 36 -12c-25 -115 -61 -235 -101 -336c-3 -9 -12 -10 -44 -10z" />
    <glyph glyph-name="x.sup" horiz-adv-x="362" 
d="M255 315l-82 119l-75 -118c-5 -9 -13 -11 -44 -11c-39 0 -48 3 -42 12l122 173l-112 162c-7 9 1 11 35 11c43 0 50 -1 55 -10l67 -103l66 103c5 8 12 10 44 10c39 0 46 -3 41 -11l-111 -159l128 -177c5 -9 -3 -11 -39 -11c-41 0 -46 1 -53 10z" />
    <glyph glyph-name="y.sup" horiz-adv-x="365" 
d="M148 303l-136 349c-3 9 2 11 39 11c38 0 44 -2 47 -10l61 -166c14 -40 22 -68 31 -100c8 36 23 84 39 128l48 140c2 7 9 8 38 8c39 0 47 -2 43 -11l-129 -347c-44 -115 -90 -157 -173 -157c-25 0 -52 6 -67 14c-8 4 -5 9 0 28l2 8c5 21 9 24 18 22c16 -4 30 -6 42 -6
c46 0 73 27 97 89z" />
    <glyph glyph-name="z.sup" horiz-adv-x="324" 
d="M40 663h243c14 0 16 -3 16 -14v-15c0 -14 -2 -21 -9 -30l-167 -235h173c6 0 8 -2 8 -29v-6c0 -27 -2 -29 -8 -29h-258c-13 0 -15 3 -15 14v16c0 14 2 20 8 29l168 235h-159c-6 0 -8 2 -8 29v6c0 27 2 29 8 29z" />
    <glyph glyph-name="ordfeminine" unicode="&#xaa;" horiz-adv-x="441" 
d="M303 316l-2 25c-24 -27 -64 -43 -105 -43c-72 0 -147 52 -147 179c0 117 68 193 159 193c42 0 73 -17 94 -39l2 21c1 8 11 11 26 11h16c23 0 29 -3 29 -8c0 -17 -1 -60 -1 -103v-95c0 -62 2 -106 5 -143c0 -6 -5 -9 -42 -9h-3c-30 0 -31 6 -31 11zM294 474v91
c-16 19 -43 37 -72 37c-57 0 -90 -47 -90 -119c0 -58 20 -117 85 -117c20 0 45 6 61 24c13 14 16 32 16 84z" />
    <glyph glyph-name="ordmasculine" unicode="&#xba;" horiz-adv-x="446" 
d="M229 670c45 0 84 -11 110 -34c36 -30 58 -80 58 -144c0 -128 -73 -194 -181 -194c-44 0 -83 11 -109 34c-36 30 -58 80 -58 144c0 128 73 194 180 194zM227 602c-50 0 -95 -34 -95 -122c0 -54 19 -114 87 -114c50 0 95 34 95 122c0 54 -19 114 -87 114z" />
    <glyph glyph-name="zero.sup" horiz-adv-x="376" 
d="M186 455c52 0 79 52 79 144c0 94 -25 138 -75 138c-52 0 -79 -52 -79 -144c0 -94 25 -138 75 -138zM183 392c-93 0 -149 65 -149 196c0 137 58 212 159 212c93 0 149 -65 149 -196c0 -137 -58 -212 -159 -212z" />
    <glyph glyph-name="onesuperior" unicode="&#xb9;" horiz-adv-x="376" 
d="M296 399h-215c-4 0 -8 4 -8 24v10c0 20 4 24 8 24h74v255l-74 -40c-6 -3 -12 0 -21 21l-2 4c-8 18 -9 23 -4 26l103 60c15 9 24 10 37 10h14c18 0 21 -2 21 -8v-328h67c4 0 8 -4 8 -24v-10c0 -20 -4 -24 -8 -24z" />
    <glyph glyph-name="twosuperior" unicode="&#xb2;" horiz-adv-x="376" 
d="M306 399h-243c-16 0 -18 2 -18 11v16c0 14 0 22 11 34l84 89c60 64 83 94 83 134c0 36 -27 52 -65 52c-26 0 -54 -7 -79 -22c-5 -3 -13 -1 -20 14l-7 13c-8 16 -8 22 0 28c29 21 73 32 115 32c65 0 131 -33 131 -114c0 -52 -27 -94 -102 -171l-52 -54h162c4 0 8 -5 8 -23
v-16c0 -18 -4 -23 -8 -23z" />
    <glyph glyph-name="threesuperior" unicode="&#xb3;" horiz-adv-x="376" 
d="M312 509c0 -69 -63 -117 -157 -117c-40 0 -81 10 -111 28c-6 4 -7 11 2 29l5 9c8 15 13 18 18 15c26 -12 57 -18 85 -18c47 0 80 19 80 57c0 46 -52 62 -108 62h-37c-4 0 -9 5 -9 24v13c0 19 5 23 9 23h36c52 0 95 15 95 54c0 33 -28 52 -69 52c-24 0 -52 -7 -81 -22
c-4 -2 -9 -1 -17 16l-6 12c-8 17 -5 21 -2 23c29 19 72 31 116 31c68 0 135 -30 135 -103c0 -45 -26 -78 -67 -91c42 -7 83 -37 83 -97z" />
    <glyph glyph-name="four.sup" horiz-adv-x="376" 
d="M212 549v68c0 6 7 8 35 8h4c28 0 35 -2 35 -8v-68h46c4 0 8 -5 8 -23v-16c0 -18 -4 -23 -8 -23h-46v-80c0 -6 -7 -8 -35 -8h-4c-28 0 -35 2 -35 8v80h-158c-20 0 -24 1 -24 8v23c0 10 0 19 5 29l119 238c3 7 10 8 35 8h10c27 0 34 -3 31 -8l-117 -236h99z" />
    <glyph glyph-name="five.sup" horiz-adv-x="376" 
d="M74 793h219c4 0 8 -5 8 -23v-16c0 -18 -4 -23 -8 -23h-147v-81c11 2 22 3 34 3c70 0 138 -38 138 -124c0 -81 -66 -137 -158 -137c-35 0 -75 9 -106 27c-7 4 -8 14 1 32l5 10c8 14 13 17 19 14c27 -13 49 -18 78 -18c49 0 84 29 84 70c0 45 -35 65 -89 65
c-23 0 -50 -3 -78 -9v210z" />
    <glyph glyph-name="six.sup" horiz-adv-x="376" 
d="M299 752l-2 -5c-7 -20 -14 -23 -20 -21c-21 7 -40 11 -57 11c-56 0 -91 -35 -99 -111c23 16 53 25 84 25c63 0 126 -34 126 -119c0 -77 -55 -140 -144 -140c-100 0 -145 64 -145 176c0 125 52 232 172 232c30 0 59 -7 85 -23c5 -3 5 -9 0 -25zM119 570v-6
c0 -70 18 -109 69 -109c43 0 65 30 65 72c0 46 -27 62 -64 62c-25 0 -49 -8 -70 -19z" />
    <glyph glyph-name="seven.sup" horiz-adv-x="376" 
d="M247 731h-188c-4 0 -8 5 -8 23v16c0 18 4 23 8 23h240c21 0 25 -3 25 -11v-23c0 -10 -2 -20 -10 -37l-147 -315c-3 -7 -11 -8 -36 -8h-18c-19 0 -28 2 -25 8z" />
    <glyph glyph-name="eight.sup" horiz-adv-x="376" 
d="M250 610c43 -20 85 -47 85 -103c0 -76 -67 -115 -152 -115c-76 0 -141 36 -141 106c0 40 25 78 82 104c-33 19 -62 47 -62 90c0 64 57 108 132 108c71 0 126 -40 126 -96c0 -40 -32 -75 -70 -94zM198 638c24 13 46 33 46 57c0 26 -22 44 -54 44c-31 0 -53 -19 -53 -43
c0 -30 25 -43 61 -58zM177 575c-44 -23 -59 -48 -59 -70c0 -33 30 -51 70 -51c39 0 70 20 70 51c0 28 -34 51 -81 70z" />
    <glyph glyph-name="nine.sup" horiz-adv-x="376" 
d="M67 442l6 12c8 15 13 16 18 14c23 -9 44 -13 65 -13c55 0 97 32 101 123c-25 -17 -59 -26 -92 -26c-61 0 -120 34 -120 118c0 64 47 130 142 130c99 0 147 -59 147 -176c0 -142 -59 -232 -173 -232c-32 0 -66 8 -94 22c-8 4 -6 16 0 28zM259 633c0 79 -23 105 -71 105
c-43 0 -66 -27 -66 -65c0 -41 27 -58 65 -58c23 0 47 6 72 18z" />
    <glyph glyph-name="plus.sup" horiz-adv-x="376" 
d="M157 572h-115c-5 0 -7 2 -7 25v4c0 23 2 25 7 25h115v125c0 5 4 8 26 8h10c22 0 26 -3 26 -8v-125h115c5 0 7 -2 7 -25v-4c0 -23 -2 -25 -7 -25h-115v-128c0 -5 -4 -8 -26 -8h-10c-22 0 -26 3 -26 8v128z" />
    <glyph glyph-name="minus.sup" horiz-adv-x="376" 
d="M42 626h292c5 0 7 -2 7 -25v-4c0 -23 -2 -25 -7 -25h-292c-5 0 -7 2 -7 25v4c0 23 2 25 7 25z" />
    <glyph glyph-name="equal.sup" horiz-adv-x="376" 
d="M332 634h-288c-5 0 -7 2 -7 25v4c0 23 2 25 7 25h288c5 0 7 -2 7 -25v-4c0 -23 -2 -25 -7 -25zM332 510h-288c-5 0 -7 2 -7 25v4c0 23 2 25 7 25h288c5 0 7 -2 7 -25v-4c0 -23 -2 -25 -7 -25z" />
    <glyph glyph-name="parenleft.sup" horiz-adv-x="231" 
d="M131 596c0 -91 30 -166 70 -220c3 -4 3 -7 -17 -20l-8 -5c-17 -11 -23 -10 -26 -7c-49 48 -96 143 -96 252s47 204 96 252c3 3 9 4 26 -7l8 -5c20 -13 20 -16 17 -20c-40 -54 -70 -129 -70 -220z" />
    <glyph glyph-name="parenright.sup" horiz-adv-x="231" 
d="M100 596c0 91 -30 166 -70 220c-3 4 -3 7 17 20l8 5c17 11 23 10 26 7c49 -48 96 -143 96 -252s-47 -204 -96 -252c-3 -3 -9 -4 -26 7l-8 5c-20 13 -20 16 -17 20c40 54 70 129 70 220z" />
    <glyph glyph-name="period.sup" horiz-adv-x="164" 
d="M34 437c0 25 21 45 48 45s48 -20 48 -45s-21 -45 -48 -45s-48 20 -48 45z" />
    <glyph glyph-name="comma.sup" horiz-adv-x="159" 
d="M35 301l-10 8c-5 5 -6 9 -1 15c25 30 34 51 34 65c0 25 -27 26 -27 54c0 20 18 39 43 39c31 0 51 -22 51 -53c0 -45 -28 -91 -72 -129c-6 -5 -12 -5 -18 1z" />
    <glyph glyph-name="zero.sub" horiz-adv-x="376" 
d="M186 -17c52 0 79 52 79 144c0 94 -25 138 -75 138c-52 0 -79 -52 -79 -144c0 -94 25 -138 75 -138zM183 -80c-93 0 -149 65 -149 196c0 137 58 212 159 212c93 0 149 -65 149 -196c0 -137 -58 -212 -159 -212z" />
    <glyph glyph-name="one.sub" horiz-adv-x="376" 
d="M296 -73h-215c-4 0 -8 4 -8 24v10c0 20 4 24 8 24h74v255l-74 -40c-6 -3 -12 0 -21 21l-2 4c-8 18 -9 23 -4 26l103 60c15 9 24 10 37 10h14c18 0 21 -2 21 -8v-328h67c4 0 8 -4 8 -24v-10c0 -20 -4 -24 -8 -24z" />
    <glyph glyph-name="two.sub" horiz-adv-x="376" 
d="M306 -73h-243c-16 0 -18 2 -18 11v16c0 14 0 22 11 34l84 89c60 64 83 94 83 134c0 36 -27 52 -65 52c-26 0 -54 -7 -79 -22c-5 -3 -13 -1 -20 14l-7 13c-8 16 -8 22 0 28c29 21 73 32 115 32c65 0 131 -33 131 -114c0 -52 -27 -94 -102 -171l-52 -54h162c4 0 8 -5 8 -23
v-16c0 -18 -4 -23 -8 -23z" />
    <glyph glyph-name="three.sub" horiz-adv-x="376" 
d="M312 37c0 -69 -63 -117 -157 -117c-40 0 -81 10 -111 28c-6 4 -7 11 2 29l5 9c8 15 13 18 18 15c26 -12 57 -18 85 -18c47 0 80 19 80 57c0 46 -52 62 -108 62h-37c-4 0 -9 5 -9 24v13c0 19 5 23 9 23h36c52 0 95 15 95 54c0 33 -28 52 -69 52c-24 0 -52 -7 -81 -22
c-4 -2 -9 -1 -17 16l-6 12c-8 17 -5 21 -2 23c29 19 72 31 116 31c68 0 135 -30 135 -103c0 -45 -26 -78 -67 -91c42 -7 83 -37 83 -97z" />
    <glyph glyph-name="four.sub" horiz-adv-x="376" 
d="M212 77v68c0 6 7 8 35 8h4c28 0 35 -2 35 -8v-68h46c4 0 8 -5 8 -23v-16c0 -18 -4 -23 -8 -23h-46v-80c0 -6 -7 -8 -35 -8h-4c-28 0 -35 2 -35 8v80h-158c-20 0 -24 1 -24 8v23c0 10 0 19 5 29l119 238c3 7 10 8 35 8h10c27 0 34 -3 31 -8l-117 -236h99z" />
    <glyph glyph-name="five.sub" horiz-adv-x="376" 
d="M74 321h219c4 0 8 -5 8 -23v-16c0 -18 -4 -23 -8 -23h-147v-81c11 2 22 3 34 3c70 0 138 -38 138 -124c0 -81 -66 -137 -158 -137c-35 0 -75 9 -106 27c-7 4 -8 14 1 32l5 10c8 14 13 17 19 14c27 -13 49 -18 78 -18c49 0 84 29 84 70c0 45 -35 65 -89 65
c-23 0 -50 -3 -78 -9v210z" />
    <glyph glyph-name="six.sub" horiz-adv-x="376" 
d="M299 280l-2 -5c-7 -20 -14 -23 -20 -21c-21 7 -40 11 -57 11c-56 0 -91 -35 -99 -111c23 16 53 25 84 25c63 0 126 -34 126 -119c0 -77 -55 -140 -144 -140c-100 0 -145 64 -145 176c0 125 52 232 172 232c30 0 59 -7 85 -23c5 -3 5 -9 0 -25zM119 98v-6
c0 -70 18 -109 69 -109c43 0 65 30 65 72c0 46 -27 62 -64 62c-25 0 -49 -8 -70 -19z" />
    <glyph glyph-name="seven.sub" horiz-adv-x="376" 
d="M247 259h-188c-4 0 -8 5 -8 23v16c0 18 4 23 8 23h240c21 0 25 -3 25 -11v-23c0 -10 -2 -20 -10 -37l-147 -315c-3 -7 -11 -8 -36 -8h-18c-19 0 -28 2 -25 8z" />
    <glyph glyph-name="eight.sub" horiz-adv-x="376" 
d="M250 138c43 -20 85 -47 85 -103c0 -76 -67 -115 -152 -115c-76 0 -141 36 -141 106c0 40 25 78 82 104c-33 19 -62 47 -62 90c0 64 57 108 132 108c71 0 126 -40 126 -96c0 -40 -32 -75 -70 -94zM198 166c24 13 46 33 46 57c0 26 -22 44 -54 44c-31 0 -53 -19 -53 -43
c0 -30 25 -43 61 -58zM177 103c-44 -23 -59 -48 -59 -70c0 -33 30 -51 70 -51c39 0 70 20 70 51c0 28 -34 51 -81 70z" />
    <glyph glyph-name="nine.sub" horiz-adv-x="376" 
d="M67 -30l6 12c8 15 13 16 18 14c23 -9 44 -13 65 -13c55 0 97 32 101 123c-25 -17 -59 -26 -92 -26c-61 0 -120 34 -120 118c0 64 47 130 142 130c99 0 147 -59 147 -176c0 -142 -59 -232 -173 -232c-32 0 -66 8 -94 22c-8 4 -6 16 0 28zM259 161c0 79 -23 105 -71 105
c-43 0 -66 -27 -66 -65c0 -41 27 -58 65 -58c23 0 47 6 72 18z" />
    <glyph glyph-name="plus.sub" horiz-adv-x="376" 
d="M157 100h-115c-5 0 -7 2 -7 25v4c0 23 2 25 7 25h115v125c0 5 4 8 26 8h10c22 0 26 -3 26 -8v-125h115c5 0 7 -2 7 -25v-4c0 -23 -2 -25 -7 -25h-115v-128c0 -5 -4 -8 -26 -8h-10c-22 0 -26 3 -26 8v128z" />
    <glyph glyph-name="minus.sub" horiz-adv-x="376" 
d="M42 154h292c5 0 7 -2 7 -25v-4c0 -23 -2 -25 -7 -25h-292c-5 0 -7 2 -7 25v4c0 23 2 25 7 25z" />
    <glyph glyph-name="equal.sub" horiz-adv-x="376" 
d="M332 162h-288c-5 0 -7 2 -7 25v4c0 23 2 25 7 25h288c5 0 7 -2 7 -25v-4c0 -23 -2 -25 -7 -25zM332 38h-288c-5 0 -7 2 -7 25v4c0 23 2 25 7 25h288c5 0 7 -2 7 -25v-4c0 -23 -2 -25 -7 -25z" />
    <glyph glyph-name="parenleft.sub" horiz-adv-x="231" 
d="M131 124c0 -91 30 -166 70 -220c3 -4 3 -7 -17 -20l-8 -5c-17 -11 -23 -10 -26 -7c-49 48 -96 143 -96 252s47 204 96 252c3 3 9 4 26 -7l8 -5c20 -13 20 -16 17 -20c-40 -54 -70 -129 -70 -220z" />
    <glyph glyph-name="parenright.sub" horiz-adv-x="231" 
d="M100 124c0 91 -30 166 -70 220c-3 4 -3 7 17 20l8 5c17 11 23 10 26 7c49 -48 96 -143 96 -252s-47 -204 -96 -252c-3 -3 -9 -4 -26 7l-8 5c-20 13 -20 16 -17 20c40 54 70 129 70 220z" />
    <glyph glyph-name="period.sub" horiz-adv-x="164" 
d="M34 -35c0 25 21 45 48 45s48 -20 48 -45s-21 -45 -48 -45s-48 20 -48 45z" />
    <glyph glyph-name="comma.sub" horiz-adv-x="159" 
d="M35 -171l-10 8c-5 5 -6 9 -1 15c25 30 34 51 34 65c0 25 -27 26 -27 54c0 20 18 39 43 39c31 0 51 -22 51 -53c0 -45 -28 -91 -72 -129c-6 -5 -12 -5 -18 1z" />
    <glyph glyph-name="zero.num" horiz-adv-x="376" 
d="M186 385c52 0 79 52 79 144c0 94 -25 138 -75 138c-52 0 -79 -52 -79 -144c0 -94 25 -138 75 -138zM183 322c-93 0 -149 65 -149 196c0 137 58 212 159 212c93 0 149 -65 149 -196c0 -137 -58 -212 -159 -212z" />
    <glyph glyph-name="one.num" horiz-adv-x="376" 
d="M296 329h-215c-4 0 -8 4 -8 24v10c0 20 4 24 8 24h74v255l-74 -40c-6 -3 -12 0 -21 21l-2 4c-8 18 -9 23 -4 26l103 60c15 9 24 10 37 10h14c18 0 21 -2 21 -8v-328h67c4 0 8 -4 8 -24v-10c0 -20 -4 -24 -8 -24z" />
    <glyph glyph-name="two.num" horiz-adv-x="376" 
d="M306 329h-243c-16 0 -18 2 -18 11v16c0 14 0 22 11 34l84 89c60 64 83 94 83 134c0 36 -27 52 -65 52c-26 0 -54 -7 -79 -22c-5 -3 -13 -1 -20 14l-7 13c-8 16 -8 22 0 28c29 21 73 32 115 32c65 0 131 -33 131 -114c0 -52 -27 -94 -102 -171l-52 -54h162c4 0 8 -5 8 -23
v-16c0 -18 -4 -23 -8 -23z" />
    <glyph glyph-name="three.num" horiz-adv-x="376" 
d="M312 439c0 -69 -63 -117 -157 -117c-40 0 -81 10 -111 28c-6 4 -7 11 2 29l5 9c8 15 13 18 18 15c26 -12 57 -18 85 -18c47 0 80 19 80 57c0 46 -52 62 -108 62h-37c-4 0 -9 5 -9 24v13c0 19 5 23 9 23h36c52 0 95 15 95 54c0 33 -28 52 -69 52c-24 0 -52 -7 -81 -22
c-4 -2 -9 -1 -17 16l-6 12c-8 17 -5 21 -2 23c29 19 72 31 116 31c68 0 135 -30 135 -103c0 -45 -26 -78 -67 -91c42 -7 83 -37 83 -97z" />
    <glyph glyph-name="four.num" horiz-adv-x="376" 
d="M212 479v68c0 6 7 8 35 8h4c28 0 35 -2 35 -8v-68h46c4 0 8 -5 8 -23v-16c0 -18 -4 -23 -8 -23h-46v-80c0 -6 -7 -8 -35 -8h-4c-28 0 -35 2 -35 8v80h-158c-20 0 -24 1 -24 8v23c0 10 0 19 5 29l119 238c3 7 10 8 35 8h10c27 0 34 -3 31 -8l-117 -236h99z" />
    <glyph glyph-name="five.num" horiz-adv-x="376" 
d="M74 723h219c4 0 8 -5 8 -23v-16c0 -18 -4 -23 -8 -23h-147v-81c11 2 22 3 34 3c70 0 138 -38 138 -124c0 -81 -66 -137 -158 -137c-35 0 -75 9 -106 27c-7 4 -8 14 1 32l5 10c8 14 13 17 19 14c27 -13 49 -18 78 -18c49 0 84 29 84 70c0 45 -35 65 -89 65
c-23 0 -50 -3 -78 -9v210z" />
    <glyph glyph-name="six.num" horiz-adv-x="376" 
d="M299 682l-2 -5c-7 -20 -14 -23 -20 -21c-21 7 -40 11 -57 11c-56 0 -91 -35 -99 -111c23 16 53 25 84 25c63 0 126 -34 126 -119c0 -77 -55 -140 -144 -140c-100 0 -145 64 -145 176c0 125 52 232 172 232c30 0 59 -7 85 -23c5 -3 5 -9 0 -25zM119 500v-6
c0 -70 18 -109 69 -109c43 0 65 30 65 72c0 46 -27 62 -64 62c-25 0 -49 -8 -70 -19z" />
    <glyph glyph-name="seven.num" horiz-adv-x="376" 
d="M247 661h-188c-4 0 -8 5 -8 23v16c0 18 4 23 8 23h240c21 0 25 -3 25 -11v-23c0 -10 -2 -20 -10 -37l-147 -315c-3 -7 -11 -8 -36 -8h-18c-19 0 -28 2 -25 8z" />
    <glyph glyph-name="eight.num" horiz-adv-x="376" 
d="M250 540c43 -20 85 -47 85 -103c0 -76 -67 -115 -152 -115c-76 0 -141 36 -141 106c0 40 25 78 82 104c-33 19 -62 47 -62 90c0 64 57 108 132 108c71 0 126 -40 126 -96c0 -40 -32 -75 -70 -94zM198 568c24 13 46 33 46 57c0 26 -22 44 -54 44c-31 0 -53 -19 -53 -43
c0 -30 25 -43 61 -58zM177 505c-44 -23 -59 -48 -59 -70c0 -33 30 -51 70 -51c39 0 70 20 70 51c0 28 -34 51 -81 70z" />
    <glyph glyph-name="nine.num" horiz-adv-x="376" 
d="M67 372l6 12c8 15 13 16 18 14c23 -9 44 -13 65 -13c55 0 97 32 101 123c-25 -17 -59 -26 -92 -26c-61 0 -120 34 -120 118c0 64 47 130 142 130c99 0 147 -59 147 -176c0 -142 -59 -232 -173 -232c-32 0 -66 8 -94 22c-8 4 -6 16 0 28zM259 563c0 79 -23 105 -71 105
c-43 0 -66 -27 -66 -65c0 -41 27 -58 65 -58c23 0 47 6 72 18z" />
    <glyph glyph-name="plus.num" horiz-adv-x="376" 
d="M157 502h-115c-5 0 -7 2 -7 25v4c0 23 2 25 7 25h115v125c0 5 4 8 26 8h10c22 0 26 -3 26 -8v-125h115c5 0 7 -2 7 -25v-4c0 -23 -2 -25 -7 -25h-115v-128c0 -5 -4 -8 -26 -8h-10c-22 0 -26 3 -26 8v128z" />
    <glyph glyph-name="minus.num" horiz-adv-x="376" 
d="M42 556h292c5 0 7 -2 7 -25v-4c0 -23 -2 -25 -7 -25h-292c-5 0 -7 2 -7 25v4c0 23 2 25 7 25z" />
    <glyph glyph-name="equal.num" horiz-adv-x="376" 
d="M332 564h-288c-5 0 -7 2 -7 25v4c0 23 2 25 7 25h288c5 0 7 -2 7 -25v-4c0 -23 -2 -25 -7 -25zM332 440h-288c-5 0 -7 2 -7 25v4c0 23 2 25 7 25h288c5 0 7 -2 7 -25v-4c0 -23 -2 -25 -7 -25z" />
    <glyph glyph-name="parenleft.num" horiz-adv-x="231" 
d="M131 526c0 -91 30 -166 70 -220c3 -4 3 -7 -17 -20l-8 -5c-17 -11 -23 -10 -26 -7c-49 48 -96 143 -96 252s47 204 96 252c3 3 9 4 26 -7l8 -5c20 -13 20 -16 17 -20c-40 -54 -70 -129 -70 -220z" />
    <glyph glyph-name="parenright.num" horiz-adv-x="231" 
d="M100 526c0 91 -30 166 -70 220c-3 4 -3 7 17 20l8 5c17 11 23 10 26 7c49 -48 96 -143 96 -252s-47 -204 -96 -252c-3 -3 -9 -4 -26 7l-8 5c-20 13 -20 16 -17 20c40 54 70 129 70 220z" />
    <glyph glyph-name="period.num" horiz-adv-x="164" 
d="M34 367c0 25 21 45 48 45s48 -20 48 -45s-21 -45 -48 -45s-48 20 -48 45z" />
    <glyph glyph-name="comma.num" horiz-adv-x="159" 
d="M35 231l-10 8c-5 5 -6 9 -1 15c25 30 34 51 34 65c0 25 -27 26 -27 54c0 20 18 39 43 39c31 0 51 -22 51 -53c0 -45 -28 -91 -72 -129c-6 -5 -12 -5 -18 1z" />
    <glyph glyph-name="zero.den" horiz-adv-x="376" 
d="M186 56c52 0 79 52 79 144c0 94 -25 138 -75 138c-52 0 -79 -52 -79 -144c0 -94 25 -138 75 -138zM183 -7c-93 0 -149 65 -149 196c0 137 58 212 159 212c93 0 149 -65 149 -196c0 -137 -58 -212 -159 -212z" />
    <glyph glyph-name="one.den" horiz-adv-x="376" 
d="M296 0h-215c-4 0 -8 4 -8 24v10c0 20 4 24 8 24h74v255l-74 -40c-6 -3 -12 0 -21 21l-2 4c-8 18 -9 23 -4 26l103 60c15 9 24 10 37 10h14c18 0 21 -2 21 -8v-328h67c4 0 8 -4 8 -24v-10c0 -20 -4 -24 -8 -24z" />
    <glyph glyph-name="two.den" horiz-adv-x="376" 
d="M306 0h-243c-16 0 -18 2 -18 11v16c0 14 0 22 11 34l84 89c60 64 83 94 83 134c0 36 -27 52 -65 52c-26 0 -54 -7 -79 -22c-5 -3 -13 -1 -20 14l-7 13c-8 16 -8 22 0 28c29 21 73 32 115 32c65 0 131 -33 131 -114c0 -52 -27 -94 -102 -171l-52 -54h162c4 0 8 -5 8 -23
v-16c0 -18 -4 -23 -8 -23z" />
    <glyph glyph-name="three.den" horiz-adv-x="376" 
d="M312 110c0 -69 -63 -117 -157 -117c-40 0 -81 10 -111 28c-6 4 -7 11 2 29l5 9c8 15 13 18 18 15c26 -12 57 -18 85 -18c47 0 80 19 80 57c0 46 -52 62 -108 62h-37c-4 0 -9 5 -9 24v13c0 19 5 23 9 23h36c52 0 95 15 95 54c0 33 -28 52 -69 52c-24 0 -52 -7 -81 -22
c-4 -2 -9 -1 -17 16l-6 12c-8 17 -5 21 -2 23c29 19 72 31 116 31c68 0 135 -30 135 -103c0 -45 -26 -78 -67 -91c42 -7 83 -37 83 -97z" />
    <glyph glyph-name="four.den" horiz-adv-x="376" 
d="M212 150v68c0 6 7 8 35 8h4c28 0 35 -2 35 -8v-68h46c4 0 8 -5 8 -23v-16c0 -18 -4 -23 -8 -23h-46v-80c0 -6 -7 -8 -35 -8h-4c-28 0 -35 2 -35 8v80h-158c-20 0 -24 1 -24 8v23c0 10 0 19 5 29l119 238c3 7 10 8 35 8h10c27 0 34 -3 31 -8l-117 -236h99z" />
    <glyph glyph-name="five.den" horiz-adv-x="376" 
d="M74 394h219c4 0 8 -5 8 -23v-16c0 -18 -4 -23 -8 -23h-147v-81c11 2 22 3 34 3c70 0 138 -38 138 -124c0 -81 -66 -137 -158 -137c-35 0 -75 9 -106 27c-7 4 -8 14 1 32l5 10c8 14 13 17 19 14c27 -13 49 -18 78 -18c49 0 84 29 84 70c0 45 -35 65 -89 65
c-23 0 -50 -3 -78 -9v210z" />
    <glyph glyph-name="six.den" horiz-adv-x="376" 
d="M299 353l-2 -5c-7 -20 -14 -23 -20 -21c-21 7 -40 11 -57 11c-56 0 -91 -35 -99 -111c23 16 53 25 84 25c63 0 126 -34 126 -119c0 -77 -55 -140 -144 -140c-100 0 -145 64 -145 176c0 125 52 232 172 232c30 0 59 -7 85 -23c5 -3 5 -9 0 -25zM119 171v-6
c0 -70 18 -109 69 -109c43 0 65 30 65 72c0 46 -27 62 -64 62c-25 0 -49 -8 -70 -19z" />
    <glyph glyph-name="seven.den" horiz-adv-x="376" 
d="M247 332h-188c-4 0 -8 5 -8 23v16c0 18 4 23 8 23h240c21 0 25 -3 25 -11v-23c0 -10 -2 -20 -10 -37l-147 -315c-3 -7 -11 -8 -36 -8h-18c-19 0 -28 2 -25 8z" />
    <glyph glyph-name="eight.den" horiz-adv-x="376" 
d="M250 211c43 -20 85 -47 85 -103c0 -76 -67 -115 -152 -115c-76 0 -141 36 -141 106c0 40 25 78 82 104c-33 19 -62 47 -62 90c0 64 57 108 132 108c71 0 126 -40 126 -96c0 -40 -32 -75 -70 -94zM198 239c24 13 46 33 46 57c0 26 -22 44 -54 44c-31 0 -53 -19 -53 -43
c0 -30 25 -43 61 -58zM177 176c-44 -23 -59 -48 -59 -70c0 -33 30 -51 70 -51c39 0 70 20 70 51c0 28 -34 51 -81 70z" />
    <glyph glyph-name="nine.den" horiz-adv-x="376" 
d="M67 43l6 12c8 15 13 16 18 14c23 -9 44 -13 65 -13c55 0 97 32 101 123c-25 -17 -59 -26 -92 -26c-61 0 -120 34 -120 118c0 64 47 130 142 130c99 0 147 -59 147 -176c0 -142 -59 -232 -173 -232c-32 0 -66 8 -94 22c-8 4 -6 16 0 28zM259 234c0 79 -23 105 -71 105
c-43 0 -66 -27 -66 -65c0 -41 27 -58 65 -58c23 0 47 6 72 18z" />
    <glyph glyph-name="plus.den" horiz-adv-x="376" 
d="M157 173h-115c-5 0 -7 2 -7 25v4c0 23 2 25 7 25h115v125c0 5 4 8 26 8h10c22 0 26 -3 26 -8v-125h115c5 0 7 -2 7 -25v-4c0 -23 -2 -25 -7 -25h-115v-128c0 -5 -4 -8 -26 -8h-10c-22 0 -26 3 -26 8v128z" />
    <glyph glyph-name="minus.den" horiz-adv-x="376" 
d="M42 227h292c5 0 7 -2 7 -25v-4c0 -23 -2 -25 -7 -25h-292c-5 0 -7 2 -7 25v4c0 23 2 25 7 25z" />
    <glyph glyph-name="equal.den" horiz-adv-x="376" 
d="M332 235h-288c-5 0 -7 2 -7 25v4c0 23 2 25 7 25h288c5 0 7 -2 7 -25v-4c0 -23 -2 -25 -7 -25zM332 111h-288c-5 0 -7 2 -7 25v4c0 23 2 25 7 25h288c5 0 7 -2 7 -25v-4c0 -23 -2 -25 -7 -25z" />
    <glyph glyph-name="parenleft.den" horiz-adv-x="231" 
d="M131 197c0 -91 30 -166 70 -220c3 -4 3 -7 -17 -20l-8 -5c-17 -11 -23 -10 -26 -7c-49 48 -96 143 -96 252s47 204 96 252c3 3 9 4 26 -7l8 -5c20 -13 20 -16 17 -20c-40 -54 -70 -129 -70 -220z" />
    <glyph glyph-name="parenright.den" horiz-adv-x="231" 
d="M100 197c0 91 -30 166 -70 220c-3 4 -3 7 17 20l8 5c17 11 23 10 26 7c49 -48 96 -143 96 -252s-47 -204 -96 -252c-3 -3 -9 -4 -26 7l-8 5c-20 13 -20 16 -17 20c40 54 70 129 70 220z" />
    <glyph glyph-name="period.den" horiz-adv-x="164" 
d="M34 38c0 25 21 45 48 45s48 -20 48 -45s-21 -45 -48 -45s-48 20 -48 45z" />
    <glyph glyph-name="comma.den" horiz-adv-x="159" 
d="M35 -98l-10 8c-5 5 -6 9 -1 15c25 30 34 51 34 65c0 25 -27 26 -27 54c0 20 18 39 43 39c31 0 51 -22 51 -53c0 -45 -28 -91 -72 -129c-6 -5 -12 -5 -18 1z" />
    <glyph glyph-name="fraction" unicode="&#x2044;" horiz-adv-x="386" 
d="M353 737h17c23 0 32 -4 29 -11l-336 -734c-3 -6 -12 -9 -33 -9h-18c-23 0 -32 4 -29 11l337 734c3 6 12 9 33 9z" />
    <glyph glyph-name="onehalf" unicode="&#xbd;" horiz-adv-x="900" 
d="M332 329h-215c-4 0 -8 4 -8 24v10c0 20 4 24 8 24h74v255l-74 -40c-6 -3 -12 0 -21 21l-2 4c-8 18 -9 23 -4 26l103 60c15 9 24 10 37 10h14c18 0 21 -2 21 -8v-328h67c4 0 8 -4 8 -24v-10c0 -20 -4 -24 -8 -24zM593 737h17c23 0 32 -4 29 -11l-336 -734
c-3 -6 -12 -9 -33 -9h-18c-23 0 -32 4 -29 11l337 734c3 6 12 9 33 9zM819 0h-243c-16 0 -18 2 -18 11v16c0 14 0 22 11 34l84 89c60 64 83 94 83 134c0 36 -27 52 -65 52c-26 0 -54 -7 -79 -22c-5 -3 -13 -1 -20 14l-7 13c-8 16 -8 22 0 28c29 21 73 32 115 32
c65 0 131 -33 131 -114c0 -52 -27 -94 -102 -171l-52 -54h162c4 0 8 -5 8 -23v-16c0 -18 -4 -23 -8 -23z" />
    <glyph glyph-name="onequarter" unicode="&#xbc;" horiz-adv-x="900" 
d="M346 329h-215c-4 0 -8 4 -8 24v10c0 20 4 24 8 24h74v255l-74 -40c-6 -3 -12 0 -21 21l-2 4c-8 18 -9 23 -4 26l103 60c15 9 24 10 37 10h14c18 0 21 -2 21 -8v-328h67c4 0 8 -4 8 -24v-10c0 -20 -4 -24 -8 -24zM617 737h17c23 0 32 -4 29 -11l-336 -734
c-3 -6 -12 -9 -33 -9h-18c-23 0 -32 4 -29 11l337 734c3 6 12 9 33 9zM704 150v68c0 6 7 8 35 8h4c28 0 35 -2 35 -8v-68h46c4 0 8 -5 8 -23v-16c0 -18 -4 -23 -8 -23h-46v-80c0 -6 -7 -8 -35 -8h-4c-28 0 -35 2 -35 8v80h-158c-20 0 -24 1 -24 8v23c0 10 0 19 5 29l119 238
c3 7 10 8 35 8h10c27 0 34 -3 31 -8l-117 -236h99z" />
    <glyph glyph-name="threequarters" unicode="&#xbe;" horiz-adv-x="900" 
d="M324 439c0 -69 -63 -117 -157 -117c-40 0 -81 10 -111 28c-6 4 -7 11 2 29l5 9c8 15 13 18 18 15c26 -12 57 -18 85 -18c47 0 80 19 80 57c0 46 -52 62 -108 62h-37c-4 0 -9 5 -9 24v13c0 19 5 23 9 23h36c52 0 95 15 95 54c0 33 -28 52 -69 52c-24 0 -52 -7 -81 -22
c-4 -2 -9 -1 -17 16l-6 12c-8 17 -5 21 -2 23c29 19 72 31 116 31c68 0 135 -30 135 -103c0 -45 -26 -78 -67 -91c42 -7 83 -37 83 -97zM593 737h17c23 0 32 -4 29 -11l-336 -734c-3 -6 -12 -9 -33 -9h-18c-23 0 -32 4 -29 11l337 734c3 6 12 9 33 9zM702 150v68
c0 6 7 8 35 8h4c28 0 35 -2 35 -8v-68h46c4 0 8 -5 8 -23v-16c0 -18 -4 -23 -8 -23h-46v-80c0 -6 -7 -8 -35 -8h-4c-28 0 -35 2 -35 8v80h-158c-20 0 -24 1 -24 8v23c0 10 0 19 5 29l119 238c3 7 10 8 35 8h10c27 0 34 -3 31 -8l-117 -236h99z" />
    <glyph glyph-name="onethird" unicode="&#x2153;" horiz-adv-x="900" 
d="M332 329h-215c-4 0 -8 4 -8 24v10c0 20 4 24 8 24h74v255l-74 -40c-6 -3 -12 0 -21 21l-2 4c-8 18 -9 23 -4 26l103 60c15 9 24 10 37 10h14c18 0 21 -2 21 -8v-328h67c4 0 8 -4 8 -24v-10c0 -20 -4 -24 -8 -24zM593 737h17c23 0 32 -4 29 -11l-336 -734
c-3 -6 -12 -9 -33 -9h-18c-23 0 -32 4 -29 11l337 734c3 6 12 9 33 9zM835 110c0 -69 -63 -117 -157 -117c-40 0 -81 10 -111 28c-6 4 -7 11 2 29l5 9c8 15 13 18 18 15c26 -12 57 -18 85 -18c47 0 80 19 80 57c0 46 -52 62 -108 62h-37c-4 0 -9 5 -9 24v13c0 19 5 23 9 23
h36c52 0 95 15 95 54c0 33 -28 52 -69 52c-24 0 -52 -7 -81 -22c-4 -2 -9 -1 -17 16l-6 12c-8 17 -5 21 -2 23c29 19 72 31 116 31c68 0 135 -30 135 -103c0 -45 -26 -78 -67 -91c42 -7 83 -37 83 -97z" />
    <glyph glyph-name="twothirds" unicode="&#x2154;" horiz-adv-x="900" 
d="M306 329h-243c-16 0 -18 2 -18 11v16c0 14 0 22 11 34l84 89c60 64 83 94 83 134c0 36 -27 52 -65 52c-26 0 -54 -7 -79 -22c-5 -3 -13 -1 -20 14l-7 13c-8 16 -8 22 0 28c29 21 73 32 115 32c65 0 131 -33 131 -114c0 -52 -27 -94 -102 -171l-52 -54h162c4 0 8 -5 8 -23
v-16c0 -18 -4 -23 -8 -23zM593 737h17c23 0 32 -4 29 -11l-336 -734c-3 -6 -12 -9 -33 -9h-18c-23 0 -32 4 -29 11l337 734c3 6 12 9 33 9zM835 110c0 -69 -63 -117 -157 -117c-40 0 -81 10 -111 28c-6 4 -7 11 2 29l5 9c8 15 13 18 18 15c26 -12 57 -18 85 -18
c47 0 80 19 80 57c0 46 -52 62 -108 62h-37c-4 0 -9 5 -9 24v13c0 19 5 23 9 23h36c52 0 95 15 95 54c0 33 -28 52 -69 52c-24 0 -52 -7 -81 -22c-4 -2 -9 -1 -17 16l-6 12c-8 17 -5 21 -2 23c29 19 72 31 116 31c68 0 135 -30 135 -103c0 -45 -26 -78 -67 -91
c42 -7 83 -37 83 -97z" />
    <glyph glyph-name="uni2155" unicode="&#x2155;" horiz-adv-x="900" 
d="M332 329h-215c-4 0 -8 4 -8 24v10c0 20 4 24 8 24h74v255l-74 -40c-6 -3 -12 0 -21 21l-2 4c-8 18 -9 23 -4 26l103 60c15 9 24 10 37 10h14c18 0 21 -2 21 -8v-328h67c4 0 8 -4 8 -24v-10c0 -20 -4 -24 -8 -24zM593 737h17c23 0 32 -4 29 -11l-336 -734
c-3 -6 -12 -9 -33 -9h-18c-23 0 -32 4 -29 11l337 734c3 6 12 9 33 9zM592 394h219c4 0 8 -5 8 -23v-16c0 -18 -4 -23 -8 -23h-147v-81c11 2 22 3 34 3c70 0 138 -38 138 -124c0 -81 -66 -137 -158 -137c-35 0 -75 9 -106 27c-7 4 -8 14 1 32l5 10c8 14 13 17 19 14
c27 -13 49 -18 78 -18c49 0 84 29 84 70c0 45 -35 65 -89 65c-23 0 -50 -3 -78 -9v210z" />
    <glyph glyph-name="uni2156" unicode="&#x2156;" horiz-adv-x="900" 
d="M306 329h-243c-16 0 -18 2 -18 11v16c0 14 0 22 11 34l84 89c60 64 83 94 83 134c0 36 -27 52 -65 52c-26 0 -54 -7 -79 -22c-5 -3 -13 -1 -20 14l-7 13c-8 16 -8 22 0 28c29 21 73 32 115 32c65 0 131 -33 131 -114c0 -52 -27 -94 -102 -171l-52 -54h162c4 0 8 -5 8 -23
v-16c0 -18 -4 -23 -8 -23zM593 737h17c23 0 32 -4 29 -11l-336 -734c-3 -6 -12 -9 -33 -9h-18c-23 0 -32 4 -29 11l337 734c3 6 12 9 33 9zM592 394h219c4 0 8 -5 8 -23v-16c0 -18 -4 -23 -8 -23h-147v-81c11 2 22 3 34 3c70 0 138 -38 138 -124c0 -81 -66 -137 -158 -137
c-35 0 -75 9 -106 27c-7 4 -8 14 1 32l5 10c8 14 13 17 19 14c27 -13 49 -18 78 -18c49 0 84 29 84 70c0 45 -35 65 -89 65c-23 0 -50 -3 -78 -9v210z" />
    <glyph glyph-name="uni2157" unicode="&#x2157;" horiz-adv-x="900" 
d="M324 439c0 -69 -63 -117 -157 -117c-40 0 -81 10 -111 28c-6 4 -7 11 2 29l5 9c8 15 13 18 18 15c26 -12 57 -18 85 -18c47 0 80 19 80 57c0 46 -52 62 -108 62h-37c-4 0 -9 5 -9 24v13c0 19 5 23 9 23h36c52 0 95 15 95 54c0 33 -28 52 -69 52c-24 0 -52 -7 -81 -22
c-4 -2 -9 -1 -17 16l-6 12c-8 17 -5 21 -2 23c29 19 72 31 116 31c68 0 135 -30 135 -103c0 -45 -26 -78 -67 -91c42 -7 83 -37 83 -97zM593 737h17c23 0 32 -4 29 -11l-336 -734c-3 -6 -12 -9 -33 -9h-18c-23 0 -32 4 -29 11l337 734c3 6 12 9 33 9zM592 394h219
c4 0 8 -5 8 -23v-16c0 -18 -4 -23 -8 -23h-147v-81c11 2 22 3 34 3c70 0 138 -38 138 -124c0 -81 -66 -137 -158 -137c-35 0 -75 9 -106 27c-7 4 -8 14 1 32l5 10c8 14 13 17 19 14c27 -13 49 -18 78 -18c49 0 84 29 84 70c0 45 -35 65 -89 65c-23 0 -50 -3 -78 -9v210z" />
    <glyph glyph-name="uni2158" unicode="&#x2158;" horiz-adv-x="900" 
d="M212 479v68c0 6 7 8 35 8h4c28 0 35 -2 35 -8v-68h46c4 0 8 -5 8 -23v-16c0 -18 -4 -23 -8 -23h-46v-80c0 -6 -7 -8 -35 -8h-4c-28 0 -35 2 -35 8v80h-158c-20 0 -24 1 -24 8v23c0 10 0 19 5 29l119 238c3 7 10 8 35 8h10c27 0 34 -3 31 -8l-117 -236h99zM593 737h17
c23 0 32 -4 29 -11l-336 -734c-3 -6 -12 -9 -33 -9h-18c-23 0 -32 4 -29 11l337 734c3 6 12 9 33 9zM592 394h219c4 0 8 -5 8 -23v-16c0 -18 -4 -23 -8 -23h-147v-81c11 2 22 3 34 3c70 0 138 -38 138 -124c0 -81 -66 -137 -158 -137c-35 0 -75 9 -106 27c-7 4 -8 14 1 32
l5 10c8 14 13 17 19 14c27 -13 49 -18 78 -18c49 0 84 29 84 70c0 45 -35 65 -89 65c-23 0 -50 -3 -78 -9v210z" />
    <glyph glyph-name="uni2159" unicode="&#x2159;" horiz-adv-x="900" 
d="M332 329h-215c-4 0 -8 4 -8 24v10c0 20 4 24 8 24h74v255l-74 -40c-6 -3 -12 0 -21 21l-2 4c-8 18 -9 23 -4 26l103 60c15 9 24 10 37 10h14c18 0 21 -2 21 -8v-328h67c4 0 8 -4 8 -24v-10c0 -20 -4 -24 -8 -24zM593 737h17c23 0 32 -4 29 -11l-336 -734
c-3 -6 -12 -9 -33 -9h-18c-23 0 -32 4 -29 11l337 734c3 6 12 9 33 9zM786 353l-2 -5c-7 -20 -14 -23 -20 -21c-21 7 -40 11 -57 11c-56 0 -91 -35 -99 -111c23 16 53 25 84 25c63 0 126 -34 126 -119c0 -77 -55 -140 -144 -140c-100 0 -145 64 -145 176
c0 125 52 232 172 232c30 0 59 -7 85 -23c5 -3 5 -9 0 -25zM606 171v-6c0 -70 18 -109 69 -109c43 0 65 30 65 72c0 46 -27 62 -64 62c-25 0 -49 -8 -70 -19z" />
    <glyph glyph-name="uni215A" unicode="&#x215a;" horiz-adv-x="900" 
d="M82 723h219c4 0 8 -5 8 -23v-16c0 -18 -4 -23 -8 -23h-147v-81c11 2 22 3 34 3c70 0 138 -38 138 -124c0 -81 -66 -137 -158 -137c-35 0 -75 9 -106 27c-7 4 -8 14 1 32l5 10c8 14 13 17 19 14c27 -13 49 -18 78 -18c49 0 84 29 84 70c0 45 -35 65 -89 65
c-23 0 -50 -3 -78 -9v210zM593 737h17c23 0 32 -4 29 -11l-336 -734c-3 -6 -12 -9 -33 -9h-18c-23 0 -32 4 -29 11l337 734c3 6 12 9 33 9zM786 353l-2 -5c-7 -20 -14 -23 -20 -21c-21 7 -40 11 -57 11c-56 0 -91 -35 -99 -111c23 16 53 25 84 25c63 0 126 -34 126 -119
c0 -77 -55 -140 -144 -140c-100 0 -145 64 -145 176c0 125 52 232 172 232c30 0 59 -7 85 -23c5 -3 5 -9 0 -25zM606 171v-6c0 -70 18 -109 69 -109c43 0 65 30 65 72c0 46 -27 62 -64 62c-25 0 -49 -8 -70 -19z" />
    <glyph glyph-name="oneeighth" unicode="&#x215b;" horiz-adv-x="900" 
d="M332 329h-215c-4 0 -8 4 -8 24v10c0 20 4 24 8 24h74v255l-74 -40c-6 -3 -12 0 -21 21l-2 4c-8 18 -9 23 -4 26l103 60c15 9 24 10 37 10h14c18 0 21 -2 21 -8v-328h67c4 0 8 -4 8 -24v-10c0 -20 -4 -24 -8 -24zM593 737h17c23 0 32 -4 29 -11l-336 -734
c-3 -6 -12 -9 -33 -9h-18c-23 0 -32 4 -29 11l337 734c3 6 12 9 33 9zM731 211c43 -20 85 -47 85 -103c0 -76 -67 -115 -152 -115c-76 0 -141 36 -141 106c0 40 25 78 82 104c-33 19 -62 47 -62 90c0 64 57 108 132 108c71 0 126 -40 126 -96c0 -40 -32 -75 -70 -94z
M679 239c24 13 46 33 46 57c0 26 -22 44 -54 44c-31 0 -53 -19 -53 -43c0 -30 25 -43 61 -58zM658 176c-44 -23 -59 -48 -59 -70c0 -33 30 -51 70 -51c39 0 70 20 70 51c0 28 -34 51 -81 70z" />
    <glyph glyph-name="threeeighths" unicode="&#x215c;" horiz-adv-x="900" 
d="M324 439c0 -69 -63 -117 -157 -117c-40 0 -81 10 -111 28c-6 4 -7 11 2 29l5 9c8 15 13 18 18 15c26 -12 57 -18 85 -18c47 0 80 19 80 57c0 46 -52 62 -108 62h-37c-4 0 -9 5 -9 24v13c0 19 5 23 9 23h36c52 0 95 15 95 54c0 33 -28 52 -69 52c-24 0 -52 -7 -81 -22
c-4 -2 -9 -1 -17 16l-6 12c-8 17 -5 21 -2 23c29 19 72 31 116 31c68 0 135 -30 135 -103c0 -45 -26 -78 -67 -91c42 -7 83 -37 83 -97zM593 737h17c23 0 32 -4 29 -11l-336 -734c-3 -6 -12 -9 -33 -9h-18c-23 0 -32 4 -29 11l337 734c3 6 12 9 33 9zM731 211
c43 -20 85 -47 85 -103c0 -76 -67 -115 -152 -115c-76 0 -141 36 -141 106c0 40 25 78 82 104c-33 19 -62 47 -62 90c0 64 57 108 132 108c71 0 126 -40 126 -96c0 -40 -32 -75 -70 -94zM679 239c24 13 46 33 46 57c0 26 -22 44 -54 44c-31 0 -53 -19 -53 -43
c0 -30 25 -43 61 -58zM658 176c-44 -23 -59 -48 -59 -70c0 -33 30 -51 70 -51c39 0 70 20 70 51c0 28 -34 51 -81 70z" />
    <glyph glyph-name="fiveeighths" unicode="&#x215d;" horiz-adv-x="900" 
d="M82 723h219c4 0 8 -5 8 -23v-16c0 -18 -4 -23 -8 -23h-147v-81c11 2 22 3 34 3c70 0 138 -38 138 -124c0 -81 -66 -137 -158 -137c-35 0 -75 9 -106 27c-7 4 -8 14 1 32l5 10c8 14 13 17 19 14c27 -13 49 -18 78 -18c49 0 84 29 84 70c0 45 -35 65 -89 65
c-23 0 -50 -3 -78 -9v210zM593 737h17c23 0 32 -4 29 -11l-336 -734c-3 -6 -12 -9 -33 -9h-18c-23 0 -32 4 -29 11l337 734c3 6 12 9 33 9zM731 211c43 -20 85 -47 85 -103c0 -76 -67 -115 -152 -115c-76 0 -141 36 -141 106c0 40 25 78 82 104c-33 19 -62 47 -62 90
c0 64 57 108 132 108c71 0 126 -40 126 -96c0 -40 -32 -75 -70 -94zM679 239c24 13 46 33 46 57c0 26 -22 44 -54 44c-31 0 -53 -19 -53 -43c0 -30 25 -43 61 -58zM658 176c-44 -23 -59 -48 -59 -70c0 -33 30 -51 70 -51c39 0 70 20 70 51c0 28 -34 51 -81 70z" />
    <glyph glyph-name="seveneighths" unicode="&#x215e;" horiz-adv-x="900" 
d="M293 661h-188c-4 0 -8 5 -8 23v16c0 18 4 23 8 23h240c21 0 25 -3 25 -11v-23c0 -10 -2 -20 -10 -37l-147 -315c-3 -7 -11 -8 -36 -8h-18c-19 0 -28 2 -25 8zM573 737h17c23 0 32 -4 29 -11l-336 -734c-3 -6 -12 -9 -33 -9h-18c-23 0 -32 4 -29 11l337 734c3 6 12 9 33 9
zM731 211c43 -20 85 -47 85 -103c0 -76 -67 -115 -152 -115c-76 0 -141 36 -141 106c0 40 25 78 82 104c-33 19 -62 47 -62 90c0 64 57 108 132 108c71 0 126 -40 126 -96c0 -40 -32 -75 -70 -94zM679 239c24 13 46 33 46 57c0 26 -22 44 -54 44c-31 0 -53 -19 -53 -43
c0 -30 25 -43 61 -58zM658 176c-44 -23 -59 -48 -59 -70c0 -33 30 -51 70 -51c39 0 70 20 70 51c0 28 -34 51 -81 70z" />
    <glyph glyph-name="Agrave" unicode="&#xc0;" horiz-adv-x="648" 
d="M313 720h19c30 0 42 -3 45 -11l248 -698c3 -8 -15 -11 -43 -11h-15c-26 0 -43 3 -46 11l-59 176h-282l-59 -176c-3 -8 -18 -11 -44 -11h-13c-28 0 -44 3 -41 11l244 698c3 8 13 11 46 11zM320 620l-117 -354h235zM261 914h13c28 0 42 -4 46 -11l73 -128
c3 -6 0 -12 -32 -12h-9c-24 0 -33 4 -37 9l-94 128c-5 6 3 14 40 14z" />
    <glyph glyph-name="Aacute" unicode="&#xc1;" horiz-adv-x="648" 
d="M313 720h19c30 0 42 -3 45 -11l248 -698c3 -8 -15 -11 -43 -11h-15c-26 0 -43 3 -46 11l-59 176h-282l-59 -176c-3 -8 -18 -11 -44 -11h-13c-28 0 -44 3 -41 11l244 698c3 8 13 11 46 11zM320 620l-117 -354h235zM378 914h12c37 0 44 -7 39 -14l-94 -128
c-5 -7 -12 -9 -36 -9h-8c-32 0 -34 6 -30 12l73 128c4 7 16 11 44 11z" />
    <glyph glyph-name="Acircumflex" unicode="&#xc2;" horiz-adv-x="648" 
d="M313 720h19c30 0 42 -3 45 -11l248 -698c3 -8 -15 -11 -43 -11h-15c-26 0 -43 3 -46 11l-59 176h-282l-59 -176c-3 -8 -18 -11 -44 -11h-13c-28 0 -44 3 -41 11l244 698c3 8 13 11 46 11zM320 620l-117 -354h235zM168 799l91 97c7 8 18 13 44 13h38c28 0 39 -7 45 -14
l89 -94c6 -6 2 -16 -10 -29l-8 -9c-9 -11 -21 -16 -26 -11l-110 96l-112 -95c-4 -4 -14 0 -24 11l-7 8c-12 13 -15 21 -10 27z" />
    <glyph glyph-name="Atilde" unicode="&#xc3;" horiz-adv-x="648" 
d="M313 720h19c30 0 42 -3 45 -11l248 -698c3 -8 -15 -11 -43 -11h-15c-26 0 -43 3 -46 11l-59 176h-282l-59 -176c-3 -8 -18 -11 -44 -11h-13c-28 0 -44 3 -41 11l244 698c3 8 13 11 46 11zM320 620l-117 -354h235zM184 798l-7 10c-9 12 -13 21 -8 27c21 25 55 47 96 47
c59 0 74 -37 119 -37c21 0 39 14 51 27c5 5 15 -2 26 -15l6 -8c8 -10 12 -22 8 -27c-19 -26 -53 -52 -93 -52c-50 0 -72 37 -119 37c-21 0 -40 -12 -53 -27c-5 -5 -15 3 -26 18z" />
    <glyph glyph-name="Adieresis" unicode="&#xc4;" horiz-adv-x="648" 
d="M313 720h19c30 0 42 -3 45 -11l248 -698c3 -8 -15 -11 -43 -11h-15c-26 0 -43 3 -46 11l-59 176h-282l-59 -176c-3 -8 -18 -11 -44 -11h-13c-28 0 -44 3 -41 11l244 698c3 8 13 11 46 11zM320 620l-117 -354h235zM147 812c0 32 25 57 57 57s57 -25 57 -57
s-25 -57 -57 -57s-57 25 -57 57zM380 812c0 32 25 57 57 57s57 -25 57 -57s-25 -57 -57 -57s-57 25 -57 57z" />
    <glyph glyph-name="Amacron" unicode="&#x100;" horiz-adv-x="648" 
d="M313 720h19c30 0 42 -3 45 -11l248 -698c3 -8 -15 -11 -43 -11h-15c-26 0 -43 3 -46 11l-59 176h-282l-59 -176c-3 -8 -18 -11 -44 -11h-13c-28 0 -44 3 -41 11l244 698c3 8 13 11 46 11zM320 620l-117 -354h235zM186 874h275c7 0 10 -8 10 -29v-12c0 -22 -3 -32 -10 -32
h-275c-7 0 -10 10 -10 32v12c0 21 3 29 10 29z" />
    <glyph glyph-name="Abreve" unicode="&#x102;" horiz-adv-x="648" 
d="M313 720h19c30 0 42 -3 45 -11l248 -698c3 -8 -15 -11 -43 -11h-15c-26 0 -43 3 -46 11l-59 176h-282l-59 -176c-3 -8 -18 -11 -44 -11h-13c-28 0 -44 3 -41 11l244 698c3 8 13 11 46 11zM320 620l-117 -354h235zM207 912h12c22 0 29 -3 30 -10c4 -38 32 -59 74 -59
s69 22 74 59c1 7 8 10 30 10h13c23 0 32 -3 32 -10c-5 -81 -66 -119 -151 -119c-82 0 -141 36 -146 119c0 7 9 10 32 10z" />
    <glyph glyph-name="Acaron" unicode="&#x1cd;" horiz-adv-x="648" 
d="M313 720h19c30 0 42 -3 45 -11l248 -698c3 -8 -15 -11 -43 -11h-15c-26 0 -43 3 -46 11l-59 176h-282l-59 -176c-3 -8 -18 -11 -44 -11h-13c-28 0 -44 3 -41 11l244 698c3 8 13 11 46 11zM320 620l-117 -354h235zM178 903l8 9c9 10 23 18 28 13l112 -98l109 95
c5 4 15 0 25 -11l6 -7c12 -13 14 -21 9 -27l-91 -97c-7 -8 -18 -13 -44 -13h-38c-28 0 -39 7 -45 14l-89 94c-6 6 0 17 10 28z" />
    <glyph glyph-name="Aring" unicode="&#xc5;" horiz-adv-x="648" 
d="M378 704l247 -693c3 -8 -15 -11 -43 -11h-15c-26 0 -43 3 -46 11l-59 176h-282l-59 -176c-3 -8 -18 -11 -44 -11h-13c-28 0 -44 3 -41 11l243 696c-22 16 -36 42 -36 71c0 50 43 90 94 90s94 -39 94 -90c0 -31 -16 -58 -40 -74zM320 620l-117 -354h235zM282 778
c0 -25 19 -42 42 -42c24 0 41 19 41 42s-17 42 -41 42c-23 0 -42 -17 -42 -42z" />
    <glyph glyph-name="Aringacute" unicode="&#x1fa;" horiz-adv-x="648" 
d="M378 704l247 -693c3 -8 -15 -11 -43 -11h-15c-26 0 -43 3 -46 11l-59 176h-282l-59 -176c-3 -8 -18 -11 -44 -11h-13c-28 0 -44 3 -41 11l243 696c-22 16 -36 42 -36 71c0 50 43 90 94 90s94 -39 94 -90c0 -31 -16 -58 -40 -74zM320 620l-117 -354h235zM282 778
c0 -25 19 -42 42 -42c24 0 41 19 41 42s-17 42 -41 42c-23 0 -42 -17 -42 -42zM359 1040h12c37 0 44 -7 39 -14l-94 -128c-3 -5 -12 -9 -36 -9h-8c-32 0 -34 6 -30 12l73 128c4 7 16 11 44 11z" />
    <glyph glyph-name="Aogonek" unicode="&#x104;" horiz-adv-x="648" 
d="M313 720h19c30 0 42 -3 45 -11l247 -695c3 -9 -1 -11 -11 -13c-47 -9 -95 -52 -95 -103c0 -34 24 -43 49 -43c11 0 27 1 41 6c7 2 10 -5 14 -22l2 -9c4 -19 3 -25 -2 -27c-19 -8 -45 -14 -72 -14c-75 0 -111 45 -111 92c0 52 35 98 83 125l-60 181h-282l-59 -176
c-3 -8 -18 -11 -44 -11h-13c-28 0 -44 3 -41 11l244 698c3 8 13 11 46 11zM320 620l-117 -354h235z" />
    <glyph glyph-name="AE" unicode="&#xc6;" horiz-adv-x="892" 
d="M449 720h379c7 0 9 -11 9 -33v-12c0 -23 -2 -34 -9 -34h-295v-237h249c7 0 9 -11 9 -33v-12c0 -23 -2 -34 -9 -34h-249v-245h299c7 0 9 -11 9 -33v-13c0 -23 -2 -34 -9 -34h-394v192h-229l-100 -181c-4 -7 -20 -11 -46 -11h-14c-28 0 -49 4 -45 11l397 694
c6 10 16 15 48 15zM438 604l-185 -333h185v333z" />
    <glyph glyph-name="AEacute" unicode="&#x1fc;" horiz-adv-x="892" 
d="M449 720h379c7 0 9 -11 9 -33v-12c0 -23 -2 -34 -9 -34h-295v-237h249c7 0 9 -11 9 -33v-12c0 -23 -2 -34 -9 -34h-249v-245h299c7 0 9 -11 9 -33v-13c0 -23 -2 -34 -9 -34h-394v192h-229l-100 -181c-4 -7 -20 -11 -46 -11h-14c-28 0 -49 4 -45 11l397 694
c6 10 16 15 48 15zM438 604l-185 -333h185v333zM653 914h12c37 0 44 -7 39 -14l-94 -128c-5 -7 -12 -9 -36 -9h-8c-32 0 -34 6 -30 12l73 128c4 7 16 11 44 11z" />
    <glyph glyph-name="Cacute" unicode="&#x106;" horiz-adv-x="573" 
d="M528 646l-6 -12c-8 -16 -18 -26 -24 -23c-46 25 -90 38 -137 38c-121 0 -215 -91 -215 -293c0 -139 47 -283 210 -283c46 0 93 11 137 33c6 3 16 -4 24 -22l6 -13c7 -15 9 -30 3 -34c-54 -31 -118 -47 -188 -47c-200 0 -290 149 -290 360c0 198 77 380 303 380
c68 0 131 -17 180 -50c6 -4 4 -19 -3 -34zM393 914h12c37 0 44 -7 39 -14l-94 -128c-5 -7 -12 -9 -36 -9h-8c-32 0 -34 6 -30 12l73 128c4 7 16 11 44 11z" />
    <glyph glyph-name="Ccedilla" unicode="&#xc7;" horiz-adv-x="573" 
d="M528 646l-6 -12c-8 -16 -18 -26 -24 -23c-46 25 -90 38 -137 38c-121 0 -215 -91 -215 -293c0 -139 47 -283 210 -283c46 0 93 11 137 33c6 3 16 -4 24 -22l6 -13c7 -15 9 -30 3 -34c-47 -27 -100 -42 -159 -46l-2 -32c6 1 13 1 17 1c50 0 91 -28 91 -84
c0 -49 -35 -98 -118 -98c-28 0 -59 6 -76 12c-5 2 -8 8 -4 23l4 16c3 13 8 20 14 18c17 -5 39 -8 54 -8c26 0 45 11 45 33c0 23 -15 29 -50 29c-19 0 -43 -1 -59 -3l12 95c-170 19 -247 162 -247 357c0 198 77 380 303 380c68 0 131 -17 180 -50c6 -4 4 -19 -3 -34z" />
    <glyph glyph-name="Ccircumflex" unicode="&#x108;" horiz-adv-x="573" 
d="M528 646l-6 -12c-8 -16 -18 -26 -24 -23c-46 25 -90 38 -137 38c-121 0 -215 -91 -215 -293c0 -139 47 -283 210 -283c46 0 93 11 137 33c6 3 16 -4 24 -22l6 -13c7 -15 9 -30 3 -34c-54 -31 -118 -47 -188 -47c-200 0 -290 149 -290 360c0 198 77 380 303 380
c68 0 131 -17 180 -50c6 -4 4 -19 -3 -34zM195 799l91 97c7 8 18 13 44 13h38c28 0 39 -7 45 -14l89 -94c6 -6 2 -16 -10 -29l-8 -9c-9 -11 -21 -16 -26 -11l-110 96l-112 -95c-4 -4 -14 0 -24 11l-7 8c-12 13 -15 21 -10 27z" />
    <glyph glyph-name="Ccaron" unicode="&#x10c;" horiz-adv-x="573" 
d="M528 646l-6 -12c-8 -16 -18 -26 -24 -23c-46 25 -90 38 -137 38c-121 0 -215 -91 -215 -293c0 -139 47 -283 210 -283c46 0 93 11 137 33c6 3 16 -4 24 -22l6 -13c7 -15 9 -30 3 -34c-54 -31 -118 -47 -188 -47c-200 0 -290 149 -290 360c0 198 77 380 303 380
c68 0 131 -17 180 -50c6 -4 4 -19 -3 -34zM205 901l8 9c9 10 23 18 28 13l112 -98l109 95c5 4 15 0 25 -11l6 -7c12 -13 14 -21 9 -27l-91 -97c-7 -8 -18 -13 -44 -13h-38c-28 0 -39 7 -45 14l-89 94c-6 6 0 17 10 28z" />
    <glyph glyph-name="Cdotaccent" unicode="&#x10a;" horiz-adv-x="573" 
d="M528 646l-6 -12c-8 -16 -18 -26 -24 -23c-46 25 -90 38 -137 38c-121 0 -215 -91 -215 -293c0 -139 47 -283 210 -283c46 0 93 11 137 33c6 3 16 -4 24 -22l6 -13c7 -15 9 -30 3 -34c-54 -31 -118 -47 -188 -47c-200 0 -290 149 -290 360c0 198 77 380 303 380
c68 0 131 -17 180 -50c6 -4 4 -19 -3 -34zM291 842c0 31 26 56 57 56s56 -25 56 -56s-25 -57 -56 -57s-57 26 -57 57z" />
    <glyph glyph-name="Dcaron" unicode="&#x10e;" horiz-adv-x="654" 
d="M80 720h168c132 0 212 -24 273 -88c55 -57 88 -144 88 -268c0 -123 -33 -224 -102 -290c-60 -57 -144 -74 -254 -74h-173v720zM175 642v-564h80c69 0 135 14 180 56c50 47 76 126 76 227c0 92 -21 161 -57 205c-38 48 -98 76 -193 76h-86zM184 903l8 9c9 10 23 18 28 13
l112 -98l109 95c5 4 15 0 25 -11l6 -7c12 -13 14 -21 9 -27l-91 -97c-7 -8 -18 -13 -44 -13h-38c-28 0 -39 7 -45 14l-89 94c-6 6 0 17 10 28z" />
    <glyph glyph-name="Dcroat" unicode="&#x110;" horiz-adv-x="668" 
d="M94 720h168c132 0 212 -24 273 -88c55 -57 88 -144 88 -268c0 -123 -33 -224 -102 -290c-60 -57 -144 -74 -254 -74h-173v328h-55c-7 0 -10 10 -10 32v11c0 21 3 31 10 31h55v318zM189 642v-240h168c7 0 10 -10 10 -31v-11c0 -22 -3 -32 -10 -32h-168v-250h80
c69 0 135 14 180 56c50 47 76 126 76 227c0 92 -21 161 -57 205c-38 48 -98 76 -193 76h-86z" />
    <glyph glyph-name="Eth" unicode="&#xd0;" horiz-adv-x="668" 
d="M94 720h168c132 0 212 -24 273 -88c55 -57 88 -144 88 -268c0 -123 -33 -224 -102 -290c-60 -57 -144 -74 -254 -74h-173v328h-55c-7 0 -10 10 -10 32v11c0 21 3 31 10 31h55v318zM189 642v-240h168c7 0 10 -10 10 -31v-11c0 -22 -3 -32 -10 -32h-168v-250h80
c69 0 135 14 180 56c50 47 76 126 76 227c0 92 -21 161 -57 205c-38 48 -98 76 -193 76h-86z" />
    <glyph glyph-name="Egrave" unicode="&#xc8;" horiz-adv-x="544" 
d="M80 720h400c7 0 9 -11 9 -33v-12c0 -23 -2 -34 -9 -34h-305v-237h259c7 0 9 -11 9 -33v-12c0 -23 -2 -34 -9 -34h-259v-245h309c7 0 9 -11 9 -33v-13c0 -23 -2 -34 -9 -34h-404v720zM215 914h13c28 0 42 -4 46 -11l73 -128c3 -6 0 -12 -32 -12h-9c-24 0 -33 4 -37 9
l-94 128c-5 6 3 14 40 14z" />
    <glyph glyph-name="Eacute" unicode="&#xc9;" horiz-adv-x="544" 
d="M80 720h400c7 0 9 -11 9 -33v-12c0 -23 -2 -34 -9 -34h-305v-237h259c7 0 9 -11 9 -33v-12c0 -23 -2 -34 -9 -34h-259v-245h309c7 0 9 -11 9 -33v-13c0 -23 -2 -34 -9 -34h-404v720zM366 914h12c37 0 44 -7 39 -14l-94 -128c-5 -7 -12 -9 -36 -9h-8c-32 0 -34 6 -30 12
l73 128c4 7 16 11 44 11z" />
    <glyph glyph-name="Ecircumflex" unicode="&#xca;" horiz-adv-x="544" 
d="M80 720h400c7 0 9 -11 9 -33v-12c0 -23 -2 -34 -9 -34h-305v-237h259c7 0 9 -11 9 -33v-12c0 -23 -2 -34 -9 -34h-259v-245h309c7 0 9 -11 9 -33v-13c0 -23 -2 -34 -9 -34h-404v720zM136 799l91 97c7 8 18 13 44 13h38c28 0 39 -7 45 -14l89 -94c6 -6 2 -16 -10 -29
l-8 -9c-9 -11 -21 -16 -26 -11l-110 96l-112 -95c-4 -4 -14 0 -24 11l-7 8c-12 13 -15 21 -10 27z" />
    <glyph glyph-name="Ecaron" unicode="&#x11a;" horiz-adv-x="544" 
d="M80 720h400c7 0 9 -11 9 -33v-12c0 -23 -2 -34 -9 -34h-305v-237h259c7 0 9 -11 9 -33v-12c0 -23 -2 -34 -9 -34h-259v-245h309c7 0 9 -11 9 -33v-13c0 -23 -2 -34 -9 -34h-404v720zM152 903l8 9c9 10 23 18 28 13l112 -98l109 95c5 4 15 0 25 -11l6 -7
c12 -13 14 -21 9 -27l-91 -97c-7 -8 -18 -13 -44 -13h-38c-28 0 -39 7 -45 14l-89 94c-6 6 0 17 10 28z" />
    <glyph glyph-name="Edieresis" unicode="&#xcb;" horiz-adv-x="544" 
d="M80 720h400c7 0 9 -11 9 -33v-12c0 -23 -2 -34 -9 -34h-305v-237h259c7 0 9 -11 9 -33v-12c0 -23 -2 -34 -9 -34h-259v-245h309c7 0 9 -11 9 -33v-13c0 -23 -2 -34 -9 -34h-404v720zM112 812c0 32 25 57 57 57s57 -25 57 -57s-25 -57 -57 -57s-57 25 -57 57zM345 812
c0 32 25 57 57 57s57 -25 57 -57s-25 -57 -57 -57s-57 25 -57 57z" />
    <glyph glyph-name="Emacron" unicode="&#x112;" horiz-adv-x="544" 
d="M80 720h400c7 0 9 -11 9 -33v-12c0 -23 -2 -34 -9 -34h-305v-237h259c7 0 9 -11 9 -33v-12c0 -23 -2 -34 -9 -34h-259v-245h309c7 0 9 -11 9 -33v-13c0 -23 -2 -34 -9 -34h-404v720zM144 874h275c7 0 10 -8 10 -29v-12c0 -22 -3 -32 -10 -32h-275c-7 0 -10 10 -10 32v12
c0 21 3 29 10 29z" />
    <glyph glyph-name="Ebreve" unicode="&#x114;" horiz-adv-x="544" 
d="M80 720h400c7 0 9 -11 9 -33v-12c0 -23 -2 -34 -9 -34h-305v-237h259c7 0 9 -11 9 -33v-12c0 -23 -2 -34 -9 -34h-259v-245h309c7 0 9 -11 9 -33v-13c0 -23 -2 -34 -9 -34h-404v720zM175 912h12c22 0 29 -3 30 -10c4 -38 32 -59 74 -59s69 22 74 59c1 7 8 10 30 10h13
c23 0 32 -3 32 -10c-5 -81 -66 -119 -151 -119c-82 0 -141 36 -146 119c0 7 9 10 32 10z" />
    <glyph glyph-name="Edotaccent" unicode="&#x116;" horiz-adv-x="544" 
d="M80 720h400c7 0 9 -11 9 -33v-12c0 -23 -2 -34 -9 -34h-305v-237h259c7 0 9 -11 9 -33v-12c0 -23 -2 -34 -9 -34h-259v-245h309c7 0 9 -11 9 -33v-13c0 -23 -2 -34 -9 -34h-404v720zM235 842c0 31 26 56 57 56s56 -25 56 -56s-25 -57 -56 -57s-57 26 -57 57z" />
    <glyph glyph-name="Eogonek" unicode="&#x118;" horiz-adv-x="544" 
d="M80 720h400c7 0 9 -11 9 -33v-12c0 -23 -2 -34 -9 -34h-305v-237h259c7 0 9 -11 9 -33v-12c0 -23 -2 -34 -9 -34h-259v-245h309c7 0 9 -11 9 -33v-13c0 -23 -2 -34 -9 -34h-7c-50 0 -99 -50 -99 -102c0 -33 24 -43 49 -43c11 0 27 1 41 6c7 2 10 -5 14 -22l2 -9
c4 -19 3 -25 -2 -27c-19 -8 -45 -14 -72 -14c-75 0 -111 45 -111 92c0 48 28 94 72 119h-291v720z" />
    <glyph glyph-name="Gcircumflex" unicode="&#x11c;" horiz-adv-x="635" 
d="M550 635l-7 -12c-10 -18 -22 -24 -28 -20c-50 32 -105 47 -161 47c-147 0 -215 -115 -215 -291c0 -171 65 -289 224 -289c42 0 89 8 121 21v216h-157c-7 0 -9 10 -9 32v14c0 23 2 33 9 33h251v-346c-55 -25 -145 -50 -230 -50c-204 0 -307 137 -307 363
c0 229 106 377 309 377c85 0 153 -23 202 -60c6 -4 8 -17 -2 -35zM193 799l91 97c7 8 18 13 44 13h38c28 0 39 -7 45 -14l89 -94c6 -6 2 -16 -10 -29l-8 -9c-9 -11 -21 -16 -26 -11l-110 96l-112 -95c-4 -4 -14 0 -24 11l-7 8c-12 13 -15 21 -10 27z" />
    <glyph glyph-name="Gbreve" unicode="&#x11e;" horiz-adv-x="635" 
d="M550 635l-7 -12c-10 -18 -22 -24 -28 -20c-50 32 -105 47 -161 47c-147 0 -215 -115 -215 -291c0 -171 65 -289 224 -289c42 0 89 8 121 21v216h-157c-7 0 -9 10 -9 32v14c0 23 2 33 9 33h251v-346c-55 -25 -145 -50 -230 -50c-204 0 -307 137 -307 363
c0 229 106 377 309 377c85 0 153 -23 202 -60c6 -4 8 -17 -2 -35zM231 912h12c22 0 29 -3 30 -10c4 -38 32 -59 74 -59s69 22 74 59c1 7 8 10 30 10h13c23 0 32 -3 32 -10c-5 -81 -66 -119 -151 -119c-82 0 -141 36 -146 119c0 7 9 10 32 10z" />
    <glyph glyph-name="Gdotaccent" unicode="&#x120;" horiz-adv-x="635" 
d="M550 635l-7 -12c-10 -18 -22 -24 -28 -20c-50 32 -105 47 -161 47c-147 0 -215 -115 -215 -291c0 -171 65 -289 224 -289c42 0 89 8 121 21v216h-157c-7 0 -9 10 -9 32v14c0 23 2 33 9 33h251v-346c-55 -25 -145 -50 -230 -50c-204 0 -307 137 -307 363
c0 229 106 377 309 377c85 0 153 -23 202 -60c6 -4 8 -17 -2 -35zM291 842c0 31 26 56 57 56s56 -25 56 -56s-25 -57 -56 -57s-57 26 -57 57z" />
    <glyph glyph-name="Gcommaaccent" unicode="&#x122;" horiz-adv-x="635" 
d="M550 635l-7 -12c-10 -18 -22 -24 -28 -20c-50 32 -105 47 -161 47c-147 0 -215 -115 -215 -291c0 -171 65 -289 224 -289c42 0 89 8 121 21v216h-157c-7 0 -9 10 -9 32v14c0 23 2 33 9 33h251v-346c-55 -25 -145 -50 -230 -50c-204 0 -307 137 -307 363
c0 229 106 377 309 377c85 0 153 -23 202 -60c6 -4 8 -17 -2 -35zM304 -293l-9 10c-8 9 -8 15 -1 22c23 23 47 52 47 81c0 33 -36 33 -36 74c0 28 25 47 52 47c36 0 59 -28 59 -64c0 -64 -35 -130 -89 -172c-9 -6 -14 -6 -23 2z" />
    <glyph glyph-name="Hcircumflex" unicode="&#x124;" horiz-adv-x="664" 
d="M121 720h11c28 0 43 -3 43 -11v-305h314v305c0 8 15 11 41 11h11c28 0 43 -3 43 -11v-698c0 -8 -15 -11 -41 -11h-11c-28 0 -43 3 -43 11v314h-314v-314c0 -8 -15 -11 -41 -11h-11c-28 0 -43 3 -43 11v698c0 8 15 11 41 11zM178 799l91 97c7 8 18 13 44 13h38
c28 0 39 -7 45 -14l89 -94c6 -6 2 -16 -10 -29l-8 -9c-9 -11 -21 -16 -26 -11l-110 96l-112 -95c-4 -4 -14 0 -24 11l-7 8c-12 13 -15 21 -10 27z" />
    <glyph glyph-name="Hbar" unicode="&#x126;" horiz-adv-x="692" 
d="M135 720h11c28 0 43 -3 43 -11v-107h314v107c0 8 15 11 41 11h11c28 0 43 -3 43 -11v-107h60c7 0 10 -10 10 -31v-8c0 -22 -3 -32 -10 -32h-60v-520c0 -8 -15 -11 -41 -11h-11c-28 0 -43 3 -43 11v314h-314v-314c0 -8 -15 -11 -41 -11h-11c-28 0 -43 3 -43 11v520h-59
c-7 0 -10 10 -10 32v8c0 21 3 31 10 31h59v107c0 8 15 11 41 11zM189 404h314v127h-314v-127z" />
    <glyph glyph-name="Igrave" unicode="&#xcc;" horiz-adv-x="381" 
d="M70 720h241c6 0 8 -9 8 -28v-12c0 -20 -2 -29 -8 -29h-73v-582h73c6 0 8 -9 8 -29v-12c0 -19 -2 -28 -8 -28h-241c-6 0 -8 4 -8 29v11c0 25 2 29 8 29h73v582h-73c-6 0 -8 4 -8 29v11c0 25 2 29 8 29zM115 914h13c28 0 42 -4 46 -11l73 -128c3 -6 0 -12 -32 -12h-9
c-24 0 -33 4 -37 9l-94 128c-5 6 3 14 40 14z" />
    <glyph glyph-name="Iacute" unicode="&#xcd;" horiz-adv-x="381" 
d="M70 720h241c6 0 8 -9 8 -28v-12c0 -20 -2 -29 -8 -29h-73v-582h73c6 0 8 -9 8 -29v-12c0 -19 -2 -28 -8 -28h-241c-6 0 -8 4 -8 29v11c0 25 2 29 8 29h73v582h-73c-6 0 -8 4 -8 29v11c0 25 2 29 8 29zM254 914h12c37 0 44 -7 39 -14l-94 -128c-5 -7 -12 -9 -36 -9h-8
c-32 0 -34 6 -30 12l73 128c4 7 16 11 44 11z" />
    <glyph glyph-name="Icircumflex" unicode="&#xce;" horiz-adv-x="381" 
d="M70 720h241c6 0 8 -9 8 -28v-12c0 -20 -2 -29 -8 -29h-73v-582h73c6 0 8 -9 8 -29v-12c0 -19 -2 -28 -8 -28h-241c-6 0 -8 4 -8 29v11c0 25 2 29 8 29h73v582h-73c-6 0 -8 4 -8 29v11c0 25 2 29 8 29zM37 799l91 97c7 8 18 13 44 13h38c28 0 39 -7 45 -14l89 -94
c6 -6 2 -16 -10 -29l-8 -9c-9 -11 -21 -16 -26 -11l-110 96l-112 -95c-4 -4 -14 0 -24 11l-7 8c-12 13 -15 21 -10 27z" />
    <glyph glyph-name="Itilde" unicode="&#x128;" horiz-adv-x="381" 
d="M70 720h241c6 0 8 -9 8 -28v-12c0 -20 -2 -29 -8 -29h-73v-582h73c6 0 8 -9 8 -29v-12c0 -19 -2 -28 -8 -28h-241c-6 0 -8 4 -8 29v11c0 25 2 29 8 29h73v582h-73c-6 0 -8 4 -8 29v11c0 25 2 29 8 29zM53 798l-7 10c-9 12 -13 21 -8 27c21 25 55 47 96 47
c59 0 74 -37 119 -37c21 0 39 14 51 27c5 5 15 -2 26 -15l6 -8c8 -10 12 -22 8 -27c-19 -26 -53 -52 -93 -52c-50 0 -72 37 -119 37c-21 0 -40 -12 -53 -27c-5 -5 -15 3 -26 18z" />
    <glyph glyph-name="Idieresis" unicode="&#xcf;" horiz-adv-x="381" 
d="M70 720h241c6 0 8 -9 8 -28v-12c0 -20 -2 -29 -8 -29h-73v-582h73c6 0 8 -9 8 -29v-12c0 -19 -2 -28 -8 -28h-241c-6 0 -8 4 -8 29v11c0 25 2 29 8 29h73v582h-73c-6 0 -8 4 -8 29v11c0 25 2 29 8 29zM17 812c0 32 25 57 57 57s57 -25 57 -57s-25 -57 -57 -57
s-57 25 -57 57zM250 812c0 32 25 57 57 57s57 -25 57 -57s-25 -57 -57 -57s-57 25 -57 57z" />
    <glyph glyph-name="Imacron" unicode="&#x12a;" horiz-adv-x="381" 
d="M70 720h241c6 0 8 -9 8 -28v-12c0 -20 -2 -29 -8 -29h-73v-582h73c6 0 8 -9 8 -29v-12c0 -19 -2 -28 -8 -28h-241c-6 0 -8 4 -8 29v11c0 25 2 29 8 29h73v582h-73c-6 0 -8 4 -8 29v11c0 25 2 29 8 29zM53 874h275c7 0 10 -8 10 -29v-12c0 -22 -3 -32 -10 -32h-275
c-7 0 -10 10 -10 32v12c0 21 3 29 10 29z" />
    <glyph glyph-name="Ibreve" unicode="&#x12c;" horiz-adv-x="381" 
d="M70 720h241c6 0 8 -9 8 -28v-12c0 -20 -2 -29 -8 -29h-73v-582h73c6 0 8 -9 8 -29v-12c0 -19 -2 -28 -8 -28h-241c-6 0 -8 4 -8 29v11c0 25 2 29 8 29h73v582h-73c-6 0 -8 4 -8 29v11c0 25 2 29 8 29zM74 912h12c22 0 29 -3 30 -10c4 -38 32 -59 74 -59s69 22 74 59
c1 7 8 10 30 10h13c23 0 32 -3 32 -10c-5 -81 -66 -119 -151 -119c-82 0 -141 36 -146 119c0 7 9 10 32 10z" />
    <glyph glyph-name="Idotaccent" unicode="&#x130;" horiz-adv-x="381" 
d="M70 720h241c6 0 8 -9 8 -28v-12c0 -20 -2 -29 -8 -29h-73v-582h73c6 0 8 -9 8 -29v-12c0 -19 -2 -28 -8 -28h-241c-6 0 -8 4 -8 29v11c0 25 2 29 8 29h73v582h-73c-6 0 -8 4 -8 29v11c0 25 2 29 8 29zM134 842c0 31 26 56 57 56s56 -25 56 -56s-25 -57 -56 -57
s-57 26 -57 57z" />
    <glyph glyph-name="Iogonek" unicode="&#x12e;" horiz-adv-x="381" 
d="M311 0h-13c-36 0 -61 -13 -80 -32c-18 -19 -30 -44 -30 -70c0 -33 24 -43 49 -43c11 0 27 1 41 6c7 2 10 -5 14 -22l2 -9c4 -19 3 -25 -2 -27c-19 -8 -45 -14 -72 -14c-75 0 -111 45 -111 92c0 48 28 94 72 119h-111c-6 0 -8 4 -8 29v11c0 25 2 29 8 29h73v582h-73
c-6 0 -8 4 -8 29v11c0 25 2 29 8 29h241c6 0 8 -9 8 -28v-12c0 -20 -2 -29 -8 -29h-73v-582h73c6 0 8 -9 8 -29v-12c0 -19 -2 -28 -8 -28z" />
    <glyph glyph-name="IJ" unicode="&#x132;" horiz-adv-x="823" 
d="M70 720h241c6 0 8 -9 8 -28v-12c0 -20 -2 -29 -8 -29h-73v-582h73c6 0 8 -9 8 -29v-12c0 -19 -2 -28 -8 -28h-241c-6 0 -8 4 -8 29v11c0 25 2 29 8 29h73v582h-73c-6 0 -8 4 -8 29v11c0 25 2 29 8 29zM700 720h11c28 0 43 -3 43 -11v-493c0 -144 -56 -226 -197 -226
c-60 0 -114 16 -151 50c-5 5 -1 21 11 38l7 10c11 15 23 21 30 16c30 -20 60 -33 98 -33c83 0 107 62 107 136v502c0 8 15 11 41 11z" />
    <glyph glyph-name="Jcircumflex" unicode="&#x134;" horiz-adv-x="442" 
d="M319 720h11c28 0 43 -3 43 -11v-493c0 -144 -56 -226 -197 -226c-60 0 -114 16 -151 50c-5 5 -1 21 11 38l7 10c11 15 23 21 30 16c30 -20 60 -33 98 -33c83 0 107 62 107 136v502c0 8 15 11 41 11zM173 799l91 97c7 8 18 13 44 13h38c28 0 39 -7 45 -14l89 -94
c6 -6 2 -16 -10 -29l-8 -9c-9 -11 -21 -16 -26 -11l-110 96l-112 -95c-4 -4 -14 0 -24 11l-7 8c-12 13 -15 21 -10 27z" />
    <glyph glyph-name="Kcommaaccent" unicode="&#x136;" horiz-adv-x="588" 
d="M121 720h11c28 0 43 -3 43 -11v-342l77 86c93 104 156 190 192 257c4 8 10 10 42 10h9c36 0 44 -2 40 -11c-24 -59 -105 -178 -212 -293l244 -405c4 -7 -15 -11 -43 -11h-19c-26 0 -44 4 -48 11l-200 342l-82 -91v-251c0 -8 -15 -11 -41 -11h-11c-28 0 -43 3 -43 11v698
c0 8 15 11 41 11zM259 -293l-9 10c-8 9 -8 15 -1 22c23 23 47 52 47 81c0 33 -36 33 -36 74c0 28 25 47 52 47c36 0 59 -28 59 -64c0 -64 -35 -130 -89 -172c-9 -6 -14 -6 -23 2z" />
    <glyph glyph-name="Lacute" unicode="&#x139;" horiz-adv-x="506" 
d="M121 720h11c28 0 43 -3 43 -11v-629h286c7 0 9 -11 9 -33v-13c0 -23 -2 -34 -9 -34h-346c-26 0 -35 4 -35 14v695c0 8 15 11 41 11zM191 914h12c37 0 44 -7 39 -14l-94 -128c-5 -7 -12 -9 -36 -9h-8c-32 0 -34 6 -30 12l73 128c4 7 16 11 44 11z" />
    <glyph glyph-name="Lcaron" unicode="&#x13d;" horiz-adv-x="506" 
d="M121 720h11c28 0 43 -3 43 -11v-629h286c7 0 9 -11 9 -33v-13c0 -23 -2 -34 -9 -34h-346c-26 0 -35 4 -35 14v695c0 8 15 11 41 11zM281 496l-9 10c-8 9 -8 15 -1 22c23 23 47 52 47 81c0 33 -36 33 -36 74c0 28 25 47 52 47c36 0 59 -28 59 -64c0 -64 -35 -130 -89 -172
c-9 -6 -14 -6 -23 2z" />
    <glyph glyph-name="Lcommaaccent" unicode="&#x13b;" horiz-adv-x="506" 
d="M121 720h11c28 0 43 -3 43 -11v-629h286c7 0 9 -11 9 -33v-13c0 -23 -2 -34 -9 -34h-346c-26 0 -35 4 -35 14v695c0 8 15 11 41 11zM228 -293l-9 10c-8 9 -8 15 -1 22c23 23 47 52 47 81c0 33 -36 33 -36 74c0 28 25 47 52 47c36 0 59 -28 59 -64
c0 -64 -35 -130 -89 -172c-9 -6 -14 -6 -23 2z" />
    <glyph glyph-name="Lslash" unicode="&#x141;" horiz-adv-x="513" 
d="M125 720h11c28 0 43 -3 43 -11v-304l119 90c6 5 12 0 12 -24v-22c0 -21 -3 -30 -8 -34l-123 -91v-244h286c7 0 9 -11 9 -33v-13c0 -23 -2 -34 -9 -34h-346c-26 0 -35 4 -35 14v247l-59 -44c-6 -5 -12 0 -12 24v20c0 21 3 30 8 34l63 47v367c0 8 15 11 41 11z" />
    <glyph glyph-name="Ldot" unicode="&#x13f;" horiz-adv-x="506" 
d="M301 384c0 31 26 56 57 56s56 -25 56 -56s-25 -57 -56 -57s-57 26 -57 57zM121 720h11c28 0 43 -3 43 -11v-629h286c7 0 9 -11 9 -33v-13c0 -23 -2 -34 -9 -34h-346c-26 0 -35 4 -35 14v695c0 8 15 11 41 11z" />
    <glyph glyph-name="Nacute" unicode="&#x143;" horiz-adv-x="678" 
d="M123 720h5c42 0 49 -3 55 -13l333 -554v556c0 8 13 11 38 11h8c27 0 40 -3 40 -11v-698c0 -9 -10 -11 -47 -11h-3c-42 0 -49 3 -55 13l-335 553v-555c0 -8 -13 -11 -38 -11h-8c-27 0 -40 3 -40 11v698c0 9 10 11 47 11zM391 914h12c37 0 44 -7 39 -14l-94 -128
c-5 -7 -12 -9 -36 -9h-8c-32 0 -34 6 -30 12l73 128c4 7 16 11 44 11z" />
    <glyph glyph-name="Ncaron" unicode="&#x147;" horiz-adv-x="678" 
d="M123 720h5c42 0 49 -3 55 -13l333 -554v556c0 8 13 11 38 11h8c27 0 40 -3 40 -11v-698c0 -9 -10 -11 -47 -11h-3c-42 0 -49 3 -55 13l-335 553v-555c0 -8 -13 -11 -38 -11h-8c-27 0 -40 3 -40 11v698c0 9 10 11 47 11zM199 903l8 9c9 10 23 18 28 13l112 -98l109 95
c5 4 15 0 25 -11l6 -7c12 -13 14 -21 9 -27l-91 -97c-7 -8 -18 -13 -44 -13h-38c-28 0 -39 7 -45 14l-89 94c-6 6 0 17 10 28z" />
    <glyph glyph-name="Ntilde" unicode="&#xd1;" horiz-adv-x="678" 
d="M123 720h5c42 0 49 -3 55 -13l333 -554v556c0 8 13 11 38 11h8c27 0 40 -3 40 -11v-698c0 -9 -10 -11 -47 -11h-3c-42 0 -49 3 -55 13l-335 553v-555c0 -8 -13 -11 -38 -11h-8c-27 0 -40 3 -40 11v698c0 9 10 11 47 11zM199 793l-7 10c-9 12 -13 21 -8 27
c21 25 55 47 96 47c59 0 74 -37 119 -37c21 0 39 14 51 27c5 5 15 -2 26 -15l6 -8c8 -10 12 -22 8 -27c-19 -26 -53 -52 -93 -52c-50 0 -72 37 -119 37c-21 0 -40 -12 -53 -27c-5 -5 -15 3 -26 18z" />
    <glyph glyph-name="Ncommaaccent" unicode="&#x145;" horiz-adv-x="678" 
d="M123 720h5c42 0 49 -3 55 -13l333 -554v556c0 8 13 11 38 11h8c27 0 40 -3 40 -11v-698c0 -9 -10 -11 -47 -11h-3c-42 0 -49 3 -55 13l-335 553v-555c0 -8 -13 -11 -38 -11h-8c-27 0 -40 3 -40 11v698c0 9 10 11 47 11zM287 -293l-9 10c-8 9 -8 15 -1 22
c23 23 47 52 47 81c0 33 -36 33 -36 74c0 28 25 47 52 47c36 0 59 -28 59 -64c0 -64 -35 -130 -89 -172c-9 -6 -14 -6 -23 2z" />
    <glyph glyph-name="Eng" unicode="&#x14a;" horiz-adv-x="678" 
d="M411 -118c58 0 94 31 102 106l-351 578v-555c0 -8 -13 -11 -38 -11h-8c-27 0 -40 3 -40 11v698c0 9 10 11 47 11h5c42 0 49 -3 55 -13l333 -554v556c0 8 13 11 38 11h8c27 0 40 -3 40 -11v-666c0 -172 -72 -237 -185 -237c-22 0 -56 6 -71 15c-7 4 -7 9 -3 30l3 15
c4 20 8 25 19 23c15 -3 32 -7 46 -7z" />
    <glyph glyph-name="Ograve" unicode="&#xd2;" horiz-adv-x="697" 
d="M356 649c-131 0 -213 -107 -213 -295c0 -182 73 -283 198 -283c131 0 213 109 213 296c0 182 -73 282 -198 282zM360 730c172 0 292 -121 292 -359c0 -234 -124 -381 -315 -381c-172 0 -292 122 -292 360c0 234 124 380 315 380zM296 914h13c28 0 42 -4 46 -11l73 -128
c3 -6 0 -12 -32 -12h-9c-24 0 -33 4 -37 9l-94 128c-5 6 3 14 40 14z" />
    <glyph glyph-name="Oacute" unicode="&#xd3;" horiz-adv-x="697" 
d="M356 649c-131 0 -213 -107 -213 -295c0 -182 73 -283 198 -283c131 0 213 109 213 296c0 182 -73 282 -198 282zM360 730c172 0 292 -121 292 -359c0 -234 -124 -381 -315 -381c-172 0 -292 122 -292 360c0 234 124 380 315 380zM412 914h12c37 0 44 -7 39 -14l-94 -128
c-5 -7 -12 -9 -36 -9h-8c-32 0 -34 6 -30 12l73 128c4 7 16 11 44 11z" />
    <glyph glyph-name="Ocircumflex" unicode="&#xd4;" horiz-adv-x="697" 
d="M356 649c-131 0 -213 -107 -213 -295c0 -182 73 -283 198 -283c131 0 213 109 213 296c0 182 -73 282 -198 282zM360 730c172 0 292 -121 292 -359c0 -234 -124 -381 -315 -381c-172 0 -292 122 -292 360c0 234 124 380 315 380zM203 799l91 97c7 8 18 13 44 13h38
c28 0 39 -7 45 -14l89 -94c6 -6 2 -16 -10 -29l-8 -9c-9 -11 -21 -16 -26 -11l-110 96l-112 -95c-4 -4 -14 0 -24 11l-7 8c-12 13 -15 21 -10 27z" />
    <glyph glyph-name="Otilde" unicode="&#xd5;" horiz-adv-x="697" 
d="M356 649c-131 0 -213 -107 -213 -295c0 -182 73 -283 198 -283c131 0 213 109 213 296c0 182 -73 282 -198 282zM360 730c172 0 292 -121 292 -359c0 -234 -124 -381 -315 -381c-172 0 -292 122 -292 360c0 234 124 380 315 380zM212 793l-7 10c-9 12 -13 21 -8 27
c21 25 55 47 96 47c59 0 74 -37 119 -37c21 0 39 14 51 27c5 5 15 -2 26 -15l6 -8c8 -10 12 -22 8 -27c-19 -26 -53 -52 -93 -52c-50 0 -72 37 -119 37c-21 0 -40 -12 -53 -27c-5 -5 -15 3 -26 18z" />
    <glyph glyph-name="Odieresis" unicode="&#xd6;" horiz-adv-x="697" 
d="M356 649c-131 0 -213 -107 -213 -295c0 -182 73 -283 198 -283c131 0 213 109 213 296c0 182 -73 282 -198 282zM360 730c172 0 292 -121 292 -359c0 -234 -124 -381 -315 -381c-172 0 -292 122 -292 360c0 234 124 380 315 380zM183 812c0 32 25 57 57 57s57 -25 57 -57
s-25 -57 -57 -57s-57 25 -57 57zM416 812c0 32 25 57 57 57s57 -25 57 -57s-25 -57 -57 -57s-57 25 -57 57z" />
    <glyph glyph-name="Omacron" unicode="&#x14c;" horiz-adv-x="697" 
d="M356 649c-131 0 -213 -107 -213 -295c0 -182 73 -283 198 -283c131 0 213 109 213 296c0 182 -73 282 -198 282zM360 730c172 0 292 -121 292 -359c0 -234 -124 -381 -315 -381c-172 0 -292 122 -292 360c0 234 124 380 315 380zM211 874h275c7 0 10 -8 10 -29v-12
c0 -22 -3 -32 -10 -32h-275c-7 0 -10 10 -10 32v12c0 21 3 29 10 29z" />
    <glyph glyph-name="Obreve" unicode="&#x14e;" horiz-adv-x="697" 
d="M356 649c-131 0 -213 -107 -213 -295c0 -182 73 -283 198 -283c131 0 213 109 213 296c0 182 -73 282 -198 282zM360 730c172 0 292 -121 292 -359c0 -234 -124 -381 -315 -381c-172 0 -292 122 -292 360c0 234 124 380 315 380zM232 912h12c22 0 29 -3 30 -10
c4 -38 32 -59 74 -59s69 22 74 59c1 7 8 10 30 10h13c23 0 32 -3 32 -10c-5 -81 -66 -119 -151 -119c-82 0 -141 36 -146 119c0 7 9 10 32 10z" />
    <glyph glyph-name="Ohungarumlaut" unicode="&#x150;" horiz-adv-x="697" 
d="M356 649c-131 0 -213 -107 -213 -295c0 -182 73 -283 198 -283c131 0 213 109 213 296c0 182 -73 282 -198 282zM360 730c172 0 292 -121 292 -359c0 -234 -124 -381 -315 -381c-172 0 -292 122 -292 360c0 234 124 380 315 380zM293 914h10c37 0 43 -6 38 -14l-84 -128
c-4 -7 -13 -10 -34 -10h-8c-30 0 -32 5 -28 13l64 128c3 7 14 11 42 11zM461 914h10c37 0 43 -6 38 -14l-84 -128c-4 -7 -13 -10 -34 -10h-8c-30 0 -32 5 -28 13l64 128c3 7 14 11 42 11z" />
    <glyph glyph-name="Oslash" unicode="&#xd8;" horiz-adv-x="717" 
d="M534 683l49 71c4 6 16 7 33 -6l24 -17c15 -10 18 -21 14 -26l-59 -82c44 -59 69 -144 69 -252c0 -234 -124 -381 -315 -381c-66 0 -124 17 -170 52l-55 -76c-4 -6 -17 -6 -33 6l-23 17c-12 9 -19 20 -14 27l65 90c-40 59 -62 140 -62 244c0 234 124 380 315 380
c62 0 117 -16 162 -47zM533 543l-305 -424c32 -32 74 -48 125 -48c131 0 213 109 213 296c0 72 -12 131 -33 176zM183 187l302 421c-31 27 -71 41 -117 41c-131 0 -213 -107 -213 -295c0 -67 10 -123 28 -167z" />
    <glyph glyph-name="Oslashacute" unicode="&#x1fe;" horiz-adv-x="717" 
d="M534 683l49 71c4 6 16 7 33 -6l24 -17c15 -10 18 -21 14 -26l-59 -82c44 -59 69 -144 69 -252c0 -234 -124 -381 -315 -381c-66 0 -124 17 -170 52l-55 -76c-4 -6 -17 -6 -33 6l-23 17c-12 9 -19 20 -14 27l65 90c-40 59 -62 140 -62 244c0 234 124 380 315 380
c62 0 117 -16 162 -47zM533 543l-305 -424c32 -32 74 -48 125 -48c131 0 213 109 213 296c0 72 -12 131 -33 176zM183 187l302 421c-31 27 -71 41 -117 41c-131 0 -213 -107 -213 -295c0 -67 10 -123 28 -167zM421 914h12c37 0 44 -7 39 -14l-94 -128c-5 -7 -12 -9 -36 -9
h-8c-32 0 -34 6 -30 12l73 128c4 7 16 11 44 11z" />
    <glyph glyph-name="OE" unicode="&#x152;" horiz-adv-x="937" 
d="M473 720h400c7 0 9 -11 9 -33v-12c0 -23 -2 -34 -9 -34h-305v-237h259c7 0 9 -11 9 -33v-12c0 -23 -2 -34 -9 -34h-259v-245h309c7 0 9 -11 9 -33v-13c0 -23 -2 -34 -9 -34h-404c-41 -6 -86 -10 -124 -10c-183 0 -304 112 -304 355c0 246 121 385 322 385
c36 0 72 -4 106 -10zM473 78v561c-33 9 -70 12 -107 12c-143 0 -223 -101 -223 -299c0 -188 74 -284 211 -284c41 0 83 3 119 10z" />
    <glyph glyph-name="Thorn" unicode="&#xde;" horiz-adv-x="539" 
d="M121 720h11c28 0 43 -3 43 -11v-140c24 3 50 5 77 5c148 0 266 -44 266 -197c0 -98 -50 -215 -244 -215c-26 0 -74 2 -99 6v-157c0 -8 -15 -11 -41 -11h-11c-28 0 -43 3 -43 11v698c0 8 15 11 41 11zM175 491v-246c23 -4 68 -6 92 -6c109 0 153 53 153 133
c0 116 -95 124 -165 124c-25 0 -55 -2 -80 -5z" />
    <glyph glyph-name="Racute" unicode="&#x154;" horiz-adv-x="574" 
d="M80 720h169c153 0 271 -41 271 -204c0 -104 -51 -172 -147 -208l48 -93c36 -72 71 -131 120 -199c5 -8 -11 -16 -40 -16h-19c-31 0 -47 10 -53 19c-39 55 -59 97 -90 157l-61 119h-103v-284c0 -8 -15 -11 -41 -11h-11c-28 0 -43 3 -43 11v709zM175 643v-272h91
c112 0 156 60 156 142c0 119 -93 130 -158 130h-89zM359 914h12c37 0 44 -7 39 -14l-94 -128c-5 -7 -12 -9 -36 -9h-8c-32 0 -34 6 -30 12l73 128c4 7 16 11 44 11z" />
    <glyph glyph-name="Rcaron" unicode="&#x158;" horiz-adv-x="574" 
d="M80 720h169c153 0 271 -41 271 -204c0 -104 -51 -172 -147 -208l48 -93c36 -72 71 -131 120 -199c5 -8 -11 -16 -40 -16h-19c-31 0 -47 10 -53 19c-39 55 -59 97 -90 157l-61 119h-103v-284c0 -8 -15 -11 -41 -11h-11c-28 0 -43 3 -43 11v709zM175 643v-272h91
c112 0 156 60 156 142c0 119 -93 130 -158 130h-89zM158 903l8 9c9 10 23 18 28 13l112 -98l109 95c5 4 15 0 25 -11l6 -7c12 -13 14 -21 9 -27l-91 -97c-7 -8 -18 -13 -44 -13h-38c-28 0 -39 7 -45 14l-89 94c-6 6 0 17 10 28z" />
    <glyph glyph-name="Rcommaaccent" unicode="&#x156;" horiz-adv-x="574" 
d="M80 720h169c153 0 271 -41 271 -204c0 -104 -51 -172 -147 -208l48 -93c36 -72 71 -131 120 -199c5 -8 -11 -16 -40 -16h-19c-31 0 -47 10 -53 19c-39 55 -59 97 -90 157l-61 119h-103v-284c0 -8 -15 -11 -41 -11h-11c-28 0 -43 3 -43 11v709zM175 643v-272h91
c112 0 156 60 156 142c0 119 -93 130 -158 130h-89zM248 -293l-9 10c-8 9 -8 15 -1 22c23 23 47 52 47 81c0 33 -36 33 -36 74c0 28 25 47 52 47c36 0 59 -28 59 -64c0 -64 -35 -130 -89 -172c-9 -6 -14 -6 -23 2z" />
    <glyph glyph-name="Sacute" unicode="&#x15a;" horiz-adv-x="519" 
d="M441 644l-5 -9c-11 -20 -22 -24 -28 -20c-32 21 -74 35 -125 35c-85 0 -122 -53 -122 -106c0 -146 320 -123 320 -348c0 -122 -79 -206 -230 -206c-83 0 -158 23 -202 57c-7 6 -6 20 6 41l7 12c10 16 22 23 28 19c45 -31 107 -49 150 -49c82 0 147 40 147 114
c0 172 -319 134 -319 347c0 126 95 199 208 199c58 0 131 -18 171 -51c6 -5 2 -20 -6 -35zM324 914h12c37 0 44 -7 39 -14l-94 -128c-5 -7 -12 -9 -36 -9h-8c-32 0 -34 6 -30 12l73 128c4 7 16 11 44 11z" />
    <glyph glyph-name="Scircumflex" unicode="&#x15c;" horiz-adv-x="519" 
d="M441 644l-5 -9c-11 -20 -22 -24 -28 -20c-32 21 -74 35 -125 35c-85 0 -122 -53 -122 -106c0 -146 320 -123 320 -348c0 -122 -79 -206 -230 -206c-83 0 -158 23 -202 57c-7 6 -6 20 6 41l7 12c10 16 22 23 28 19c45 -31 107 -49 150 -49c82 0 147 40 147 114
c0 172 -319 134 -319 347c0 126 95 199 208 199c58 0 131 -18 171 -51c6 -5 2 -20 -6 -35zM127 799l91 97c7 8 18 13 44 13h38c28 0 39 -7 45 -14l89 -94c6 -6 2 -16 -10 -29l-8 -9c-9 -11 -21 -16 -26 -11l-110 96l-112 -95c-4 -4 -14 0 -24 11l-7 8c-12 13 -15 21 -10 27z
" />
    <glyph glyph-name="Scaron" unicode="&#x160;" horiz-adv-x="519" 
d="M441 644l-5 -9c-11 -20 -22 -24 -28 -20c-32 21 -74 35 -125 35c-85 0 -122 -53 -122 -106c0 -146 320 -123 320 -348c0 -122 -79 -206 -230 -206c-83 0 -158 23 -202 57c-7 6 -6 20 6 41l7 12c10 16 22 23 28 19c45 -31 107 -49 150 -49c82 0 147 40 147 114
c0 172 -319 134 -319 347c0 126 95 199 208 199c58 0 131 -18 171 -51c6 -5 2 -20 -6 -35zM129 893l8 9c9 10 23 18 28 13l112 -98l109 95c5 4 15 0 25 -11l6 -7c12 -13 14 -21 9 -27l-91 -97c-7 -8 -18 -13 -44 -13h-38c-28 0 -39 7 -45 14l-89 94c-6 6 0 17 10 28z" />
    <glyph glyph-name="Scedilla" unicode="&#x15e;" horiz-adv-x="519" 
d="M441 644l-5 -9c-11 -20 -22 -24 -28 -20c-32 21 -74 35 -125 35c-85 0 -122 -53 -122 -106c0 -146 320 -123 320 -348c0 -115 -70 -196 -203 -205l-2 -32c6 1 13 1 17 1c50 0 91 -28 91 -84c0 -49 -35 -98 -118 -98c-28 0 -59 6 -76 12c-5 2 -8 8 -4 23l4 16
c3 13 8 20 14 18c17 -5 39 -8 54 -8c26 0 45 11 45 33c0 23 -15 29 -50 29c-19 0 -43 -1 -59 -3l12 94c-65 7 -121 27 -157 55c-7 6 -6 20 6 41l7 12c10 16 22 23 28 19c45 -31 107 -49 150 -49c82 0 147 40 147 114c0 172 -319 134 -319 347c0 126 95 199 208 199
c58 0 131 -18 171 -51c6 -5 2 -20 -6 -35z" />
    <glyph glyph-name="Scommaaccent" unicode="&#x218;" horiz-adv-x="519" 
d="M441 644l-5 -9c-11 -20 -22 -24 -28 -20c-32 21 -74 35 -125 35c-85 0 -122 -53 -122 -106c0 -146 320 -123 320 -348c0 -122 -79 -206 -230 -206c-83 0 -158 23 -202 57c-7 6 -6 20 6 41l7 12c10 16 22 23 28 19c45 -31 107 -49 150 -49c82 0 147 40 147 114
c0 172 -319 134 -319 347c0 126 95 199 208 199c58 0 131 -18 171 -51c6 -5 2 -20 -6 -35zM207 -293l-9 10c-8 9 -8 15 -1 22c23 23 47 52 47 81c0 33 -36 33 -36 74c0 28 25 47 52 47c36 0 59 -28 59 -64c0 -64 -35 -130 -89 -172c-9 -6 -14 -6 -23 2z" />
    <glyph glyph-name="Tcaron" unicode="&#x164;" horiz-adv-x="512" 
d="M23 720h466c7 0 9 -11 9 -33v-12c0 -23 -2 -34 -9 -34h-186v-630c0 -8 -15 -11 -43 -11h-11c-26 0 -41 3 -41 11v630h-185c-7 0 -9 11 -9 34v12c0 22 2 33 9 33zM113 903l8 9c9 10 23 18 28 13l112 -98l109 95c5 4 15 0 25 -11l6 -7c12 -13 14 -21 9 -27l-91 -97
c-7 -8 -18 -13 -44 -13h-38c-28 0 -39 7 -45 14l-89 94c-6 6 0 17 10 28z" />
    <glyph glyph-name="Tcommaaccent" unicode="&#x162;" horiz-adv-x="512" 
d="M23 720h466c7 0 9 -11 9 -33v-12c0 -23 -2 -34 -9 -34h-186v-630c0 -8 -15 -11 -43 -11h-11c-26 0 -41 3 -41 11v630h-185c-7 0 -9 11 -9 34v12c0 22 2 33 9 33zM202 -293l-9 10c-8 9 -8 15 -1 22c23 23 47 52 47 81c0 33 -36 33 -36 74c0 28 25 47 52 47
c36 0 59 -28 59 -64c0 -64 -35 -130 -89 -172c-9 -6 -14 -6 -23 2z" />
    <glyph glyph-name="uni021A" unicode="&#x21a;" horiz-adv-x="512" 
d="M23 720h466c7 0 9 -11 9 -33v-12c0 -23 -2 -34 -9 -34h-186v-630c0 -8 -15 -11 -43 -11h-11c-26 0 -41 3 -41 11v630h-185c-7 0 -9 11 -9 34v12c0 22 2 33 9 33zM202 -293l-9 10c-8 9 -8 15 -1 22c23 23 47 52 47 81c0 33 -36 33 -36 74c0 28 25 47 52 47
c36 0 59 -28 59 -64c0 -64 -35 -130 -89 -172c-9 -6 -14 -6 -23 2z" />
    <glyph glyph-name="Tbar" unicode="&#x166;" horiz-adv-x="512" 
d="M98 398h110v243h-185c-7 0 -9 11 -9 34v12c0 22 2 33 9 33h466c7 0 9 -11 9 -33v-12c0 -23 -2 -34 -9 -34h-186v-243h110c7 0 10 -8 10 -29v-7c0 -22 -3 -32 -10 -32h-110v-319c0 -8 -15 -11 -43 -11h-11c-26 0 -41 3 -41 11v319h-110c-7 0 -10 10 -10 32v7
c0 21 3 29 10 29z" />
    <glyph glyph-name="Ugrave" unicode="&#xd9;" horiz-adv-x="678" 
d="M114 720h11c28 0 43 -3 43 -11v-440c0 -141 60 -199 171 -199c109 0 171 67 171 198v441c0 8 15 11 41 11h11c28 0 43 -3 43 -11v-429c0 -197 -90 -290 -270 -290c-172 0 -262 82 -262 272v447c0 8 15 11 41 11zM263 914h13c28 0 42 -4 46 -11l73 -128
c3 -6 0 -12 -32 -12h-9c-24 0 -33 4 -37 9l-94 128c-5 6 3 14 40 14z" />
    <glyph glyph-name="Uacute" unicode="&#xda;" horiz-adv-x="678" 
d="M114 720h11c28 0 43 -3 43 -11v-440c0 -141 60 -199 171 -199c109 0 171 67 171 198v441c0 8 15 11 41 11h11c28 0 43 -3 43 -11v-429c0 -197 -90 -290 -270 -290c-172 0 -262 82 -262 272v447c0 8 15 11 41 11zM411 914h12c37 0 44 -7 39 -14l-94 -128
c-5 -7 -12 -9 -36 -9h-8c-32 0 -34 6 -30 12l73 128c4 7 16 11 44 11z" />
    <glyph glyph-name="Ucircumflex" unicode="&#xdb;" horiz-adv-x="678" 
d="M114 720h11c28 0 43 -3 43 -11v-440c0 -141 60 -199 171 -199c109 0 171 67 171 198v441c0 8 15 11 41 11h11c28 0 43 -3 43 -11v-429c0 -197 -90 -290 -270 -290c-172 0 -262 82 -262 272v447c0 8 15 11 41 11zM187 799l91 97c7 8 18 13 44 13h38c28 0 39 -7 45 -14
l89 -94c6 -6 2 -16 -10 -29l-8 -9c-9 -11 -21 -16 -26 -11l-110 96l-112 -95c-4 -4 -14 0 -24 11l-7 8c-12 13 -15 21 -10 27z" />
    <glyph glyph-name="Utilde" unicode="&#x168;" horiz-adv-x="678" 
d="M114 720h11c28 0 43 -3 43 -11v-440c0 -141 60 -199 171 -199c109 0 171 67 171 198v441c0 8 15 11 41 11h11c28 0 43 -3 43 -11v-429c0 -197 -90 -290 -270 -290c-172 0 -262 82 -262 272v447c0 8 15 11 41 11zM201 798l-7 10c-9 12 -13 21 -8 27c21 25 55 47 96 47
c59 0 74 -37 119 -37c21 0 39 14 51 27c5 5 15 -2 26 -15l6 -8c8 -10 12 -22 8 -27c-19 -26 -53 -52 -93 -52c-50 0 -72 37 -119 37c-21 0 -40 -12 -53 -27c-5 -5 -15 3 -26 18z" />
    <glyph glyph-name="Udieresis" unicode="&#xdc;" horiz-adv-x="678" 
d="M114 720h11c28 0 43 -3 43 -11v-440c0 -141 60 -199 171 -199c109 0 171 67 171 198v441c0 8 15 11 41 11h11c28 0 43 -3 43 -11v-429c0 -197 -90 -290 -270 -290c-172 0 -262 82 -262 272v447c0 8 15 11 41 11zM170 812c0 32 25 57 57 57s57 -25 57 -57s-25 -57 -57 -57
s-57 25 -57 57zM403 812c0 32 25 57 57 57s57 -25 57 -57s-25 -57 -57 -57s-57 25 -57 57z" />
    <glyph glyph-name="Umacron" unicode="&#x16a;" horiz-adv-x="678" 
d="M114 720h11c28 0 43 -3 43 -11v-440c0 -141 60 -199 171 -199c109 0 171 67 171 198v441c0 8 15 11 41 11h11c28 0 43 -3 43 -11v-429c0 -197 -90 -290 -270 -290c-172 0 -262 82 -262 272v447c0 8 15 11 41 11zM201 874h275c7 0 10 -8 10 -29v-12c0 -22 -3 -32 -10 -32
h-275c-7 0 -10 10 -10 32v12c0 21 3 29 10 29z" />
    <glyph glyph-name="Ubreve" unicode="&#x16c;" horiz-adv-x="678" 
d="M114 720h11c28 0 43 -3 43 -11v-440c0 -141 60 -199 171 -199c109 0 171 67 171 198v441c0 8 15 11 41 11h11c28 0 43 -3 43 -11v-429c0 -197 -90 -290 -270 -290c-172 0 -262 82 -262 272v447c0 8 15 11 41 11zM222 912h12c22 0 29 -3 30 -10c4 -38 32 -59 74 -59
s69 22 74 59c1 7 8 10 30 10h13c23 0 32 -3 32 -10c-5 -81 -66 -119 -151 -119c-82 0 -141 36 -146 119c0 7 9 10 32 10z" />
    <glyph glyph-name="Uring" unicode="&#x16e;" horiz-adv-x="678" 
d="M114 720h11c28 0 43 -3 43 -11v-440c0 -141 60 -199 171 -199c109 0 171 67 171 198v441c0 8 15 11 41 11h11c28 0 43 -3 43 -11v-429c0 -197 -90 -290 -270 -290c-172 0 -262 82 -262 272v447c0 8 15 11 41 11zM245 832c0 50 43 90 94 90s94 -39 94 -90s-43 -90 -94 -90
s-94 40 -94 90zM297 832c0 -25 19 -42 42 -42c24 0 41 19 41 42s-17 42 -41 42c-23 0 -42 -17 -42 -42z" />
    <glyph glyph-name="Uhungarumlaut" unicode="&#x170;" horiz-adv-x="678" 
d="M114 720h11c28 0 43 -3 43 -11v-440c0 -141 60 -199 171 -199c109 0 171 67 171 198v441c0 8 15 11 41 11h11c28 0 43 -3 43 -11v-429c0 -197 -90 -290 -270 -290c-172 0 -262 82 -262 272v447c0 8 15 11 41 11zM283 914h10c37 0 43 -6 38 -14l-84 -128
c-4 -7 -13 -10 -34 -10h-8c-30 0 -32 5 -28 13l64 128c3 7 14 11 42 11zM451 914h10c37 0 43 -6 38 -14l-84 -128c-4 -7 -13 -10 -34 -10h-8c-30 0 -32 5 -28 13l64 128c3 7 14 11 42 11z" />
    <glyph glyph-name="Uogonek" unicode="&#x172;" horiz-adv-x="678" 
d="M114 720h11c28 0 43 -3 43 -11v-440c0 -141 60 -199 171 -199c109 0 171 67 171 198v441c0 8 15 11 41 11h11c28 0 43 -3 43 -11v-431c0 -120 -31 -173 -95 -227c-33 -28 -66 -47 -101 -81c-20 -20 -34 -40 -34 -68c0 -31 21 -47 50 -47c10 0 28 3 40 6c6 1 9 -1 14 -22
l2 -9c4 -19 3 -25 -2 -27c-19 -8 -45 -14 -72 -14c-70 0 -111 37 -111 92c0 40 22 80 58 109h-18c-172 0 -263 84 -263 272v447c0 8 15 11 41 11z" />
    <glyph glyph-name="Wgrave" unicode="&#x1e80;" horiz-adv-x="953" 
d="M72 720h14c26 0 45 -4 47 -12l148 -613l146 614c2 8 17 11 45 11h23c28 0 43 -3 45 -11l150 -614l144 613c2 8 16 12 42 12h11c28 0 42 -4 40 -12l-179 -698c-2 -8 -21 -11 -47 -11h-30c-28 0 -44 3 -46 11l-144 590l-139 -588c-2 -8 -21 -13 -47 -13h-31
c-28 0 -44 5 -46 13l-190 696c-2 8 16 12 44 12zM431 924h13c28 0 42 -4 46 -11l73 -128c3 -6 0 -12 -32 -12h-9c-24 0 -33 4 -37 9l-94 128c-5 6 3 14 40 14z" />
    <glyph glyph-name="Wacute" unicode="&#x1e82;" horiz-adv-x="953" 
d="M72 720h14c26 0 45 -4 47 -12l148 -613l146 614c2 8 17 11 45 11h23c28 0 43 -3 45 -11l150 -614l144 613c2 8 16 12 42 12h11c28 0 42 -4 40 -12l-179 -698c-2 -8 -21 -11 -47 -11h-30c-28 0 -44 3 -46 11l-144 590l-139 -588c-2 -8 -21 -13 -47 -13h-31
c-28 0 -44 5 -46 13l-190 696c-2 8 16 12 44 12zM525 924h12c37 0 44 -7 39 -14l-94 -128c-5 -7 -12 -9 -36 -9h-8c-32 0 -34 6 -30 12l73 128c4 7 16 11 44 11z" />
    <glyph glyph-name="Wcircumflex" unicode="&#x174;" horiz-adv-x="953" 
d="M72 720h14c26 0 45 -4 47 -12l148 -613l146 614c2 8 17 11 45 11h23c28 0 43 -3 45 -11l150 -614l144 613c2 8 16 12 42 12h11c28 0 42 -4 40 -12l-179 -698c-2 -8 -21 -11 -47 -11h-30c-28 0 -44 3 -46 11l-144 590l-139 -588c-2 -8 -21 -13 -47 -13h-31
c-28 0 -44 5 -46 13l-190 696c-2 8 16 12 44 12zM322 819l91 97c7 8 18 13 44 13h38c28 0 39 -7 45 -14l89 -94c6 -6 2 -16 -10 -29l-8 -9c-9 -11 -21 -16 -26 -11l-110 96l-112 -95c-4 -4 -14 0 -24 11l-7 8c-12 13 -15 21 -10 27z" />
    <glyph glyph-name="Wdieresis" unicode="&#x1e84;" horiz-adv-x="953" 
d="M72 720h14c26 0 45 -4 47 -12l148 -613l146 614c2 8 17 11 45 11h23c28 0 43 -3 45 -11l150 -614l144 613c2 8 16 12 42 12h11c28 0 42 -4 40 -12l-179 -698c-2 -8 -21 -11 -47 -11h-30c-28 0 -44 3 -46 11l-144 590l-139 -588c-2 -8 -21 -13 -47 -13h-31
c-28 0 -44 5 -46 13l-190 696c-2 8 16 12 44 12zM303 847c0 32 25 57 57 57s57 -25 57 -57s-25 -57 -57 -57s-57 25 -57 57zM536 847c0 32 25 57 57 57s57 -25 57 -57s-25 -57 -57 -57s-57 25 -57 57z" />
    <glyph glyph-name="Ygrave" unicode="&#x1ef2;" horiz-adv-x="543" 
d="M54 720h15c26 0 44 -3 48 -11l159 -338l156 338c4 8 21 11 46 11h11c27 0 46 -4 42 -12l-214 -429v-268c0 -8 -15 -11 -43 -11h-11c-26 0 -41 3 -41 11v268l-212 429c-4 8 16 12 44 12zM202 924h13c28 0 42 -4 46 -11l73 -128c3 -6 0 -12 -32 -12h-9c-24 0 -33 4 -37 9
l-94 128c-5 6 3 14 40 14z" />
    <glyph glyph-name="Yacute" unicode="&#xdd;" horiz-adv-x="543" 
d="M54 720h15c26 0 44 -3 48 -11l159 -338l156 338c4 8 21 11 46 11h11c27 0 46 -4 42 -12l-214 -429v-268c0 -8 -15 -11 -43 -11h-11c-26 0 -41 3 -41 11v268l-212 429c-4 8 16 12 44 12zM346 924h12c37 0 44 -7 39 -14l-94 -128c-5 -7 -12 -9 -36 -9h-8
c-32 0 -34 6 -30 12l73 128c4 7 16 11 44 11z" />
    <glyph glyph-name="Ycircumflex" unicode="&#x176;" horiz-adv-x="543" 
d="M54 720h15c26 0 44 -3 48 -11l159 -338l156 338c4 8 21 11 46 11h11c27 0 46 -4 42 -12l-214 -429v-268c0 -8 -15 -11 -43 -11h-11c-26 0 -41 3 -41 11v268l-212 429c-4 8 16 12 44 12zM124 819l91 97c7 8 18 13 44 13h38c28 0 39 -7 45 -14l89 -94c6 -6 2 -16 -10 -29
l-8 -9c-9 -11 -21 -16 -26 -11l-110 96l-112 -95c-4 -4 -14 0 -24 11l-7 8c-12 13 -15 21 -10 27z" />
    <glyph glyph-name="Ydieresis" unicode="&#x178;" horiz-adv-x="543" 
d="M54 720h15c26 0 44 -3 48 -11l159 -338l156 338c4 8 21 11 46 11h11c27 0 46 -4 42 -12l-214 -429v-268c0 -8 -15 -11 -43 -11h-11c-26 0 -41 3 -41 11v268l-212 429c-4 8 16 12 44 12zM102 812c0 32 25 57 57 57s57 -25 57 -57s-25 -57 -57 -57s-57 25 -57 57zM335 812
c0 32 25 57 57 57s57 -25 57 -57s-25 -57 -57 -57s-57 25 -57 57z" />
    <glyph glyph-name="Zacute" unicode="&#x179;" horiz-adv-x="547" 
d="M70 720h398c26 0 35 -3 35 -14v-43c0 -16 -11 -34 -21 -50l-333 -533h353c7 0 9 -11 9 -33v-12c0 -23 -2 -35 -9 -35h-426c-27 0 -35 4 -35 14v43c0 18 6 32 18 51l334 533h-323c-7 0 -9 8 -9 37v7c0 23 2 35 9 35zM326 914h12c37 0 44 -7 39 -14l-94 -128
c-5 -7 -12 -9 -36 -9h-8c-32 0 -34 6 -30 12l73 128c4 7 16 11 44 11z" />
    <glyph glyph-name="Zcaron" unicode="&#x17d;" horiz-adv-x="547" 
d="M70 720h398c26 0 35 -3 35 -14v-43c0 -16 -11 -34 -21 -50l-333 -533h353c7 0 9 -11 9 -33v-12c0 -23 -2 -35 -9 -35h-426c-27 0 -35 4 -35 14v43c0 18 6 32 18 51l334 533h-323c-7 0 -9 8 -9 37v7c0 23 2 35 9 35zM140 893l8 9c9 10 23 18 28 13l112 -98l109 95
c5 4 15 0 25 -11l6 -7c12 -13 14 -21 9 -27l-91 -97c-7 -8 -18 -13 -44 -13h-38c-28 0 -39 7 -45 14l-89 94c-6 6 0 17 10 28z" />
    <glyph glyph-name="Zdotaccent" unicode="&#x17b;" horiz-adv-x="547" 
d="M70 720h398c26 0 35 -3 35 -14v-43c0 -16 -11 -34 -21 -50l-333 -533h353c7 0 9 -11 9 -33v-12c0 -23 -2 -35 -9 -35h-426c-27 0 -35 4 -35 14v43c0 18 6 32 18 51l334 533h-323c-7 0 -9 8 -9 37v7c0 23 2 35 9 35zM238 842c0 31 26 56 57 56s56 -25 56 -56
s-25 -57 -56 -57s-57 26 -57 57z" />
    <glyph glyph-name="agrave" unicode="&#xe0;" horiz-adv-x="569" 
d="M452 528h2c38 0 39 -4 39 -12c0 -24 -2 -88 -2 -152v-140c0 -92 4 -157 7 -212c0 -8 -5 -12 -36 -12h-4c-31 0 -37 3 -38 12l-6 46c-32 -39 -89 -68 -154 -68c-146 0 -214 121 -214 265c0 171 98 283 230 283c60 0 107 -28 135 -64l5 42c1 12 6 12 36 12zM401 247v142
c-23 36 -68 68 -115 68c-92 0 -146 -77 -146 -197c0 -94 33 -190 136 -190c33 0 73 10 100 39c21 23 25 51 25 138zM211 732h13c28 0 42 -4 46 -11l73 -128c3 -6 0 -12 -32 -12h-9c-24 0 -33 4 -37 9l-94 128c-5 6 3 14 40 14z" />
    <glyph glyph-name="aacute" unicode="&#xe1;" horiz-adv-x="567" 
d="M451 528h2c38 0 39 -4 39 -12c0 -24 -2 -88 -2 -152v-140c0 -92 4 -157 7 -212c0 -8 -5 -12 -36 -12h-4c-31 0 -37 3 -38 12l-6 46c-32 -39 -89 -68 -154 -68c-146 0 -214 121 -214 265c0 171 98 283 230 283c60 0 107 -28 135 -64l5 42c1 12 6 12 36 12zM400 247v142
c-23 36 -68 68 -115 68c-92 0 -146 -77 -146 -197c0 -94 33 -190 136 -190c33 0 73 10 100 39c21 23 25 51 25 138zM343 732h12c37 0 44 -7 39 -14l-94 -128c-3 -5 -12 -9 -36 -9h-8c-32 0 -34 6 -30 12l73 128c4 7 16 11 44 11z" />
    <glyph glyph-name="acircumflex" unicode="&#xe2;" horiz-adv-x="567" 
d="M451 528h2c38 0 39 -4 39 -12c0 -24 -2 -88 -2 -152v-140c0 -92 4 -157 7 -212c0 -8 -5 -12 -36 -12h-4c-31 0 -37 3 -38 12l-6 46c-32 -39 -89 -68 -154 -68c-146 0 -214 121 -214 265c0 171 98 283 230 283c60 0 107 -28 135 -64l5 42c1 12 6 12 36 12zM400 247v142
c-23 36 -68 68 -115 68c-92 0 -146 -77 -146 -197c0 -94 33 -190 136 -190c33 0 73 10 100 39c21 23 25 51 25 138zM125 627l91 97c7 8 18 13 44 13h38c28 0 39 -7 45 -14l89 -94c6 -6 2 -16 -10 -29l-8 -9c-9 -11 -21 -16 -26 -11l-110 96l-112 -95c-4 -4 -14 0 -24 11
l-7 8c-12 13 -15 21 -10 27z" />
    <glyph glyph-name="atilde" unicode="&#xe3;" horiz-adv-x="567" 
d="M451 528h2c38 0 39 -4 39 -12c0 -24 -2 -88 -2 -152v-140c0 -92 4 -157 7 -212c0 -8 -5 -12 -36 -12h-4c-31 0 -37 3 -38 12l-6 46c-32 -39 -89 -68 -154 -68c-146 0 -214 121 -214 265c0 171 98 283 230 283c60 0 107 -28 135 -64l5 42c1 12 6 12 36 12zM400 247v142
c-23 36 -68 68 -115 68c-92 0 -146 -77 -146 -197c0 -94 33 -190 136 -190c33 0 73 10 100 39c21 23 25 51 25 138zM140 636l-7 10c-9 12 -13 21 -8 27c21 25 55 47 96 47c59 0 74 -37 119 -37c21 0 39 14 51 27c5 5 15 -2 26 -15l6 -8c8 -10 12 -22 8 -27
c-19 -26 -53 -52 -93 -52c-50 0 -72 37 -119 37c-21 0 -40 -12 -53 -27c-5 -5 -15 3 -26 18z" />
    <glyph glyph-name="adieresis" unicode="&#xe4;" horiz-adv-x="567" 
d="M451 528h2c38 0 39 -4 39 -12c0 -24 -2 -88 -2 -152v-140c0 -92 4 -157 7 -212c0 -8 -5 -12 -36 -12h-4c-31 0 -37 3 -38 12l-6 46c-32 -39 -89 -68 -154 -68c-146 0 -214 121 -214 265c0 171 98 283 230 283c60 0 107 -28 135 -64l5 42c1 12 6 12 36 12zM400 247v142
c-23 36 -68 68 -115 68c-92 0 -146 -77 -146 -197c0 -94 33 -190 136 -190c33 0 73 10 100 39c21 23 25 51 25 138zM103 655c0 32 25 57 57 57s57 -25 57 -57s-25 -57 -57 -57s-57 25 -57 57zM336 655c0 32 25 57 57 57s57 -25 57 -57s-25 -57 -57 -57s-57 25 -57 57z" />
    <glyph glyph-name="amacron" unicode="&#x101;" horiz-adv-x="567" 
d="M451 528h2c38 0 39 -4 39 -12c0 -24 -2 -88 -2 -152v-140c0 -92 4 -157 7 -212c0 -8 -5 -12 -36 -12h-4c-31 0 -37 3 -38 12l-6 46c-32 -39 -89 -68 -154 -68c-146 0 -214 121 -214 265c0 171 98 283 230 283c60 0 107 -28 135 -64l5 42c1 12 6 12 36 12zM400 247v142
c-23 36 -68 68 -115 68c-92 0 -146 -77 -146 -197c0 -94 33 -190 136 -190c33 0 73 10 100 39c21 23 25 51 25 138zM146 693h275c7 0 10 -8 10 -29v-12c0 -22 -3 -32 -10 -32h-275c-7 0 -10 10 -10 32v12c0 21 3 29 10 29z" />
    <glyph glyph-name="abreve" unicode="&#x103;" horiz-adv-x="567" 
d="M451 528h2c38 0 39 -4 39 -12c0 -24 -2 -88 -2 -152v-140c0 -92 4 -157 7 -212c0 -8 -5 -12 -36 -12h-4c-31 0 -37 3 -38 12l-6 46c-32 -39 -89 -68 -154 -68c-146 0 -214 121 -214 265c0 171 98 283 230 283c60 0 107 -28 135 -64l5 42c1 12 6 12 36 12zM400 247v142
c-23 36 -68 68 -115 68c-92 0 -146 -77 -146 -197c0 -94 33 -190 136 -190c33 0 73 10 100 39c21 23 25 51 25 138zM167 722h12c22 0 29 -3 30 -10c4 -38 32 -59 74 -59s69 22 74 59c1 7 8 10 30 10h13c23 0 32 -3 32 -10c-5 -81 -66 -119 -151 -119c-82 0 -141 36 -146 119
c0 7 9 10 32 10z" />
    <glyph glyph-name="acaron" unicode="&#x1ce;" horiz-adv-x="567" 
d="M451 528h2c38 0 39 -4 39 -12c0 -24 -2 -88 -2 -152v-140c0 -92 4 -157 7 -212c0 -8 -5 -12 -36 -12h-4c-31 0 -37 3 -38 12l-6 46c-32 -39 -89 -68 -154 -68c-146 0 -214 121 -214 265c0 171 98 283 230 283c60 0 107 -28 135 -64l5 42c1 12 6 12 36 12zM400 247v142
c-23 36 -68 68 -115 68c-92 0 -146 -77 -146 -197c0 -94 33 -190 136 -190c33 0 73 10 100 39c21 23 25 51 25 138zM137 711l8 9c9 10 23 18 28 13l112 -98l109 95c5 4 15 0 25 -11l6 -7c12 -13 14 -21 9 -27l-91 -97c-7 -8 -18 -13 -44 -13h-38c-28 0 -39 7 -45 14l-89 94
c-6 6 0 17 10 28z" />
    <glyph glyph-name="aring" unicode="&#xe5;" horiz-adv-x="567" 
d="M186 668c0 50 43 90 94 90s94 -39 94 -90s-43 -90 -94 -90s-94 40 -94 90zM238 668c0 -25 19 -42 42 -42c24 0 41 19 41 42s-17 42 -41 42c-23 0 -42 -17 -42 -42zM451 528h2c38 0 39 -4 39 -12c0 -24 -2 -88 -2 -152v-140c0 -92 4 -157 7 -212c0 -8 -5 -12 -36 -12h-4
c-31 0 -37 3 -38 12l-6 46c-32 -39 -89 -68 -154 -68c-146 0 -214 121 -214 265c0 171 98 283 230 283c60 0 107 -28 135 -64l5 42c1 12 6 12 36 12zM400 247v142c-23 36 -68 68 -115 68c-92 0 -146 -77 -146 -197c0 -94 33 -190 136 -190c33 0 73 10 100 39
c21 23 25 51 25 138z" />
    <glyph glyph-name="aringacute" unicode="&#x1fb;" horiz-adv-x="567" 
d="M451 528h2c38 0 39 -4 39 -12c0 -24 -2 -88 -2 -152v-140c0 -92 4 -157 7 -212c0 -8 -5 -12 -36 -12h-4c-31 0 -37 3 -38 12l-6 46c-32 -39 -89 -68 -154 -68c-146 0 -214 121 -214 265c0 171 98 283 230 283c60 0 107 -28 135 -64l5 42c1 12 6 12 36 12zM400 247v142
c-23 36 -68 68 -115 68c-92 0 -146 -77 -146 -197c0 -94 33 -190 136 -190c33 0 73 10 100 39c21 23 25 51 25 138zM316 921h12c37 0 44 -7 39 -14l-94 -128c-3 -5 -12 -9 -36 -9h-8c-32 0 -34 6 -30 12l73 128c4 7 16 11 44 11zM186 658c0 50 43 90 94 90s94 -39 94 -90
s-43 -90 -94 -90s-94 40 -94 90zM238 658c0 -25 19 -42 42 -42c24 0 41 19 41 42s-17 42 -41 42c-23 0 -42 -17 -42 -42z" />
    <glyph glyph-name="aogonek" unicode="&#x105;" horiz-adv-x="567" 
d="M311 -119c0 50 27 101 107 138l-5 39c-32 -39 -89 -68 -154 -68c-146 0 -214 121 -214 265c0 171 98 283 230 283c60 0 107 -28 135 -64l5 42c1 12 6 12 36 12h2c38 0 39 -4 39 -12c0 -24 -2 -88 -2 -152v-140c0 -92 2 -155 7 -210c1 -7 -2 -11 -12 -13
c-47 -9 -95 -52 -95 -103c0 -34 24 -43 49 -43c11 0 27 1 41 6c7 2 10 -5 14 -22l2 -9c4 -19 3 -25 -2 -27c-19 -8 -45 -14 -72 -14c-75 0 -111 45 -111 92zM400 247v142c-23 36 -68 68 -115 68c-92 0 -146 -77 -146 -197c0 -94 33 -190 136 -190c33 0 73 10 100 39
c21 23 25 51 25 138z" />
    <glyph glyph-name="ae" unicode="&#xe6;" horiz-adv-x="857" 
d="M84 455l-4 13c-6 17 -8 30 0 34c46 24 117 36 172 36c92 0 145 -30 175 -82c40 52 99 82 173 82c87 0 146 -44 179 -110c22 -46 32 -101 32 -160c0 -30 -2 -36 -10 -36h-342c3 -55 18 -98 48 -124c26 -24 64 -36 114 -36c41 0 83 8 129 29c9 4 15 6 25 -19l5 -12
c11 -26 10 -32 2 -37c-50 -29 -112 -43 -178 -43c-86 0 -149 29 -189 82c-40 -40 -94 -82 -192 -82c-93 0 -181 55 -181 165s79 177 211 177c41 0 84 -9 114 -21v16c0 94 -35 131 -123 131c-39 0 -88 -7 -137 -26c-6 -3 -15 2 -23 23zM385 129c-12 33 -19 69 -20 111
c-28 10 -68 19 -110 19c-70 0 -122 -30 -122 -97c0 -59 46 -93 110 -93c66 0 117 31 142 60zM462 306h257c-1 75 -38 150 -118 150c-71 0 -126 -47 -139 -150z" />
    <glyph glyph-name="aeacute" unicode="&#x1fd;" horiz-adv-x="857" 
d="M84 455l-4 13c-6 17 -8 30 0 34c46 24 117 36 172 36c92 0 145 -30 175 -82c40 52 99 82 173 82c87 0 146 -44 179 -110c22 -46 32 -101 32 -160c0 -30 -2 -36 -10 -36h-342c3 -55 18 -98 48 -124c26 -24 64 -36 114 -36c41 0 83 8 129 29c9 4 15 6 25 -19l5 -12
c11 -26 10 -32 2 -37c-50 -29 -112 -43 -178 -43c-86 0 -149 29 -189 82c-40 -40 -94 -82 -192 -82c-93 0 -181 55 -181 165s79 177 211 177c41 0 84 -9 114 -21v16c0 94 -35 131 -123 131c-39 0 -88 -7 -137 -26c-6 -3 -15 2 -23 23zM385 129c-12 33 -19 69 -20 111
c-28 10 -68 19 -110 19c-70 0 -122 -30 -122 -97c0 -59 46 -93 110 -93c66 0 117 31 142 60zM462 306h257c-1 75 -38 150 -118 150c-71 0 -126 -47 -139 -150zM511 732h12c37 0 44 -7 39 -14l-94 -128c-3 -5 -12 -9 -36 -9h-8c-32 0 -34 6 -30 12l73 128c4 7 16 11 44 11z
" />
    <glyph glyph-name="cacute" unicode="&#x107;" horiz-adv-x="487" 
d="M439 83l5 -13c10 -24 7 -31 0 -35c-50 -28 -108 -45 -170 -45c-153 0 -229 117 -229 266c0 183 107 282 246 282c63 0 119 -22 161 -52c8 -6 8 -13 -6 -46c-15 -34 -25 -31 -32 -26c-37 25 -78 42 -118 42c-93 0 -157 -70 -157 -194c0 -96 39 -190 147 -190
c42 0 88 12 127 31c8 4 18 1 26 -20zM331 732h12c37 0 44 -7 39 -14l-94 -128c-3 -5 -12 -9 -36 -9h-8c-32 0 -34 6 -30 12l73 128c4 7 16 11 44 11z" />
    </font>
</defs>
</svg>
